<?xml version="1.0" encoding="utf-8" standalone="no"?>
<!DOCTYPE svg PUBLIC "-//W3C//DTD SVG 1.1//EN"
  "http://www.w3.org/Graphics/SVG/1.1/DTD/svg11.dtd">
<!-- Created with matplotlib (http://matplotlib.org/) -->
<svg height="432pt" version="1.1" viewBox="0 0 576 432" width="576pt" xmlns="http://www.w3.org/2000/svg" xmlns:xlink="http://www.w3.org/1999/xlink">
 <defs>
  <style type="text/css">
*{stroke-linecap:butt;stroke-linejoin:round;}
  </style>
 </defs>
 <g id="figure_1">
  <g id="patch_1">
   <path d="
M0 432
L576 432
L576 0
L0 0
z
" style="fill:#ffffff;"/>
  </g>
  <g id="axes_1">
   <g id="patch_2">
    <path d="
M72 345.6
L518.4 345.6
L518.4 43.2
L72 43.2
z
" style="fill:#ffffff;"/>
   </g>
   <g id="line2d_1">
    <path clip-path="url(#pcb2bf987bf)" d="
M72 224.64
L72.6065 224.64
L73.213 227.389
L73.8196 224.64
L74.4261 227.389
L75.0326 221.891
L76.2456 227.389
L76.8522 224.64
L77.4587 230.138
L78.0652 221.891
L78.6717 227.389
L81.0978 227.389
L81.7043 224.64
L82.3109 227.389
L82.9174 227.389
L83.5239 224.64
L85.3435 224.64
L85.95 230.138
L86.5565 227.389
L87.163 230.138
L87.7695 227.389
L88.3761 230.138
L88.9826 230.138
L89.5891 232.887
L90.1956 227.389
L90.8021 230.138
L91.4087 227.389
L92.6217 232.887
L93.2282 232.887
L93.8347 227.389
L94.4413 230.138
L95.0478 227.389
L95.6543 227.389
L96.2608 230.138
L96.8674 227.389
L97.4739 230.138
L98.0804 227.389
L98.6869 230.138
L99.2934 224.64
L99.9006 227.389
L100.506 224.64
L101.113 219.142
L101.72 227.389
L102.326 230.138
L102.933 221.891
L104.146 227.389
L104.752 219.142
L105.359 227.389
L106.572 221.891
L107.178 224.64
L108.998 224.64
L109.604 221.891
L110.817 227.389
L111.424 221.891
L112.03 221.891
L112.637 227.389
L113.243 224.64
L113.851 227.389
L114.456 224.64
L115.063 224.64
L115.669 219.142
L116.276 224.64
L116.883 224.64
L117.489 230.138
L118.096 227.389
L118.702 230.138
L119.309 221.891
L119.915 221.891
L120.522 224.64
L121.128 224.64
L121.735 227.389
L122.341 224.64
L122.948 224.64
L123.554 227.389
L124.161 227.389
L124.767 230.138
L125.374 227.389
L125.98 227.389
L126.587 224.64
L127.194 227.389
L128.406 227.389
L129.013 224.64
L129.619 227.389
L130.226 227.389
L130.833 224.64
L131.439 224.64
L132.046 221.891
L133.259 221.891
L133.865 224.64
L134.472 221.891
L135.078 224.64
L137.504 224.64
L138.111 230.138
L138.717 224.64
L139.324 230.138
L139.93 224.64
L140.537 227.389
L141.143 224.64
L141.75 230.138
L142.356 224.64
L143.569 230.138
L145.996 230.138
L146.602 227.389
L147.209 230.138
L148.422 230.138
L149.028 227.389
L149.635 227.389
L150.241 230.138
L150.848 227.389
L151.454 230.138
L152.667 230.138
L153.274 227.389
L153.88 230.138
L155.093 230.138
L155.7 221.891
L156.306 227.389
L156.913 221.891
L157.519 227.389
L158.126 227.389
L158.732 224.64
L159.946 224.64
L160.552 219.142
L161.159 221.891
L163.585 221.891
L164.191 224.64
L165.404 219.142
L166.011 221.891
L166.617 216.393
L167.224 224.64
L167.83 221.891
L170.256 221.891
L170.863 219.142
L171.469 221.891
L173.289 221.891
L173.895 224.64
L175.109 224.64
L175.715 221.891
L176.322 224.64
L177.535 219.142
L178.141 221.891
L178.748 221.891
L179.354 224.64
L180.567 224.64
L181.174 221.891
L181.78 224.64
L182.387 224.64
L182.993 221.891
L183.6 227.389
L184.813 221.891
L185.419 227.389
L186.026 224.64
L186.632 227.389
L187.239 221.891
L187.845 224.64
L189.059 224.64
L189.665 219.142
L190.272 221.891
L190.878 221.891
L191.485 224.64
L192.091 221.891
L192.698 224.64
L193.304 221.891
L194.517 221.891
L195.124 224.64
L195.73 221.891
L196.337 224.64
L197.55 224.64
L198.156 219.142
L198.763 221.891
L199.369 219.142
L199.976 227.389
L200.582 221.891
L201.189 224.64
L201.795 224.64
L202.402 227.389
L203.008 224.64
L203.615 227.389
L204.222 227.389
L204.828 224.64
L205.435 224.64
L206.041 227.389
L206.648 227.389
L207.254 232.887
L209.074 224.64
L209.68 227.389
L210.287 221.891
L210.893 224.64
L211.5 219.142
L212.106 227.389
L212.713 227.389
L213.319 224.64
L215.745 224.64
L216.352 221.891
L216.958 221.891
L217.565 219.142
L218.172 224.64
L218.778 219.142
L219.385 221.891
L220.598 221.891
L221.205 216.393
L221.811 219.142
L222.417 216.393
L223.024 221.891
L223.63 219.142
L224.237 219.142
L224.843 221.891
L227.269 221.891
L227.876 219.142
L228.482 221.891
L230.908 221.891
L231.515 224.64
L232.121 213.644
L232.728 221.891
L233.335 219.142
L233.941 221.891
L235.154 221.891
L235.761 219.142
L236.367 219.142
L236.974 221.891
L237.58 227.389
L238.187 224.64
L238.793 224.64
L239.4 219.142
L240.006 219.142
L241.219 224.64
L241.826 221.891
L242.432 224.64
L243.039 221.891
L243.645 224.64
L244.858 224.64
L245.465 219.142
L246.071 221.891
L246.678 221.891
L247.285 224.64
L247.891 221.891
L248.498 224.64
L249.104 219.142
L249.711 221.891
L250.924 221.891
L251.53 219.142
L252.137 221.891
L253.35 221.891
L253.956 219.142
L255.169 224.64
L255.776 221.891
L256.382 221.891
L256.989 224.64
L258.202 224.64
L258.809 221.891
L261.234 221.891
L261.841 224.64
L262.448 221.891
L263.054 227.389
L263.661 224.64
L265.48 224.64
L266.087 221.891
L266.693 224.64
L267.3 224.64
L267.906 227.389
L268.513 224.64
L269.119 230.138
L269.726 224.64
L270.939 224.64
L271.545 227.389
L272.759 227.389
L273.365 224.64
L274.578 224.64
L275.184 221.891
L275.791 216.393
L276.398 221.891
L277.004 219.142
L277.611 221.891
L278.217 219.142
L279.43 219.142
L280.643 224.64
L281.25 221.891
L281.856 221.891
L282.463 224.64
L283.069 219.142
L283.676 224.64
L284.282 221.891
L285.495 227.389
L286.708 221.891
L287.315 221.891
L287.921 219.142
L288.528 224.64
L289.741 224.64
L290.347 219.142
L290.954 224.64
L291.561 221.891
L292.167 224.64
L292.774 221.891
L293.38 227.389
L293.987 224.64
L294.593 227.389
L295.2 227.389
L295.806 224.64
L296.413 224.64
L297.019 227.389
L297.626 224.64
L298.232 227.389
L298.839 224.64
L299.445 227.389
L300.052 224.64
L300.658 227.389
L301.265 227.389
L302.478 221.891
L303.691 221.891
L304.297 224.64
L305.511 224.64
L306.117 221.891
L306.724 221.891
L307.33 224.64
L308.543 219.142
L309.15 224.64
L309.756 221.891
L310.363 227.389
L310.969 227.389
L311.576 224.64
L313.395 224.64
L314.002 227.389
L314.608 224.64
L315.821 224.64
L316.428 221.891
L317.034 216.393
L317.641 224.64
L318.247 221.891
L319.46 221.891
L320.067 224.64
L320.674 221.891
L321.28 221.891
L321.887 224.64
L322.493 224.64
L323.1 221.891
L324.313 221.891
L324.919 224.64
L326.132 224.64
L326.739 227.389
L327.345 224.64
L327.952 227.389
L328.558 224.64
L329.165 219.142
L329.771 227.389
L330.378 219.142
L331.591 213.644
L332.197 213.644
L332.804 216.393
L333.41 210.895
L334.624 210.895
L335.23 208.145
L335.837 208.145
L336.443 199.898
L337.05 208.145
L337.656 205.396
L338.263 208.145
L338.869 208.145
L339.476 205.396
L340.082 208.145
L341.295 208.145
L341.902 213.644
L343.115 213.644
L343.721 216.393
L344.328 213.644
L345.542 219.142
L346.147 216.393
L346.754 216.393
L347.36 219.142
L347.967 216.393
L348.573 210.895
L349.18 224.64
L349.787 221.891
L351 221.891
L351.606 224.64
L352.819 224.64
L353.426 227.389
L354.639 227.389
L355.245 224.64
L357.065 224.64
L357.671 227.389
L358.279 224.64
L358.884 227.389
L360.097 227.389
L360.704 224.64
L361.31 224.64
L361.917 227.389
L362.523 227.389
L363.13 224.64
L363.737 227.389
L364.343 224.64
L364.95 224.64
L365.556 221.891
L366.163 227.389
L366.769 224.64
L367.982 224.64
L368.589 227.389
L373.441 227.389
L374.047 221.891
L374.654 227.389
L375.26 224.64
L375.867 227.389
L376.473 224.64
L377.08 227.389
L377.686 221.891
L378.293 227.389
L378.9 224.64
L379.506 227.389
L380.113 224.64
L380.719 227.389
L381.932 227.389
L382.539 221.891
L383.752 227.389
L384.358 227.389
L384.965 221.891
L385.571 227.389
L386.178 227.389
L386.784 224.64
L387.391 227.389
L388.604 227.389
L389.21 224.64
L389.817 224.64
L390.423 230.138
L392.243 221.891
L392.85 221.891
L393.456 224.64
L394.669 219.142
L395.276 224.64
L395.882 221.891
L396.489 227.389
L397.095 224.64
L397.702 227.389
L398.308 224.64
L398.915 227.389
L399.521 221.891
L400.128 227.389
L400.734 224.64
L401.947 224.64
L402.554 227.389
L403.16 221.891
L403.767 224.64
L404.373 224.64
L404.98 227.389
L405.586 224.64
L406.193 227.389
L406.799 224.64
L407.406 227.389
L408.619 227.389
L409.226 224.64
L410.439 230.138
L411.045 230.138
L411.652 227.389
L412.258 230.138
L412.865 230.138
L413.471 232.887
L414.078 227.389
L414.684 227.389
L415.291 230.138
L418.323 230.138
L418.93 227.389
L419.536 232.887
L420.143 227.389
L420.749 224.64
L421.356 224.64
L421.963 230.138
L423.176 230.138
L423.782 227.389
L424.389 230.138
L424.995 227.389
L425.602 230.138
L426.208 230.138
L426.815 227.389
L427.421 230.138
L428.028 227.389
L429.241 227.389
L429.847 230.138
L430.454 227.389
L431.06 227.389
L431.667 230.138
L432.273 230.138
L432.88 227.389
L433.486 227.389
L434.093 230.138
L435.306 230.138
L435.912 227.389
L436.519 230.138
L437.732 230.138
L438.339 227.389
L438.945 230.138
L439.552 224.64
L440.158 230.138
L440.765 224.64
L441.371 230.138
L441.978 227.389
L442.584 230.138
L443.191 227.389
L443.797 232.887
L444.404 227.389
L445.01 230.138
L447.436 230.138
L448.043 232.887
L449.256 227.389
L449.862 227.389
L450.469 230.138
L451.076 230.138
L451.682 224.64
L452.289 227.389
L452.895 224.64
L454.108 224.64
L454.715 227.389
L455.321 221.891
L455.928 230.138
L456.534 227.389
L457.747 227.389
L458.354 230.138
L458.96 227.389
L459.567 227.389
L460.173 224.64
L460.78 227.389
L461.993 227.389
L462.599 224.64
L463.206 230.138
L464.419 230.138
L465.025 221.891
L465.632 230.138
L466.239 232.887
L466.845 230.138
L468.665 230.138
L469.878 224.64
L470.484 230.138
L471.697 230.138
L472.304 232.887
L472.91 232.887
L474.123 227.389
L474.73 230.138
L478.975 230.138
L479.582 224.64
L480.189 227.389
L482.008 227.389
L482.615 230.138
L483.221 227.389
L483.828 230.138
L484.434 227.389
L485.041 230.138
L485.647 227.389
L486.254 230.138
L487.467 230.138
L488.073 232.887
L489.286 227.389
L489.893 230.138
L490.499 235.636
L491.106 232.887
L491.712 232.887
L492.319 230.138
L492.925 230.138
L493.532 232.887
L495.958 232.887
L496.565 230.138
L497.171 235.636
L497.778 230.138
L498.384 232.887
L498.991 230.138
L499.597 232.887
L500.204 230.138
L500.81 235.636
L501.417 230.138
L502.023 235.636
L502.63 232.887
L503.236 235.636
L503.843 230.138
L504.449 232.887
L505.056 232.887
L505.662 230.138
L506.269 230.138
L506.875 232.887
L507.482 227.389
L508.088 232.887
L508.695 224.64
L509.302 230.138
L509.908 227.389
L510.515 230.138
L511.121 227.389
L512.334 227.389
L512.941 230.138
L514.154 230.138
L514.76 224.64
L515.367 227.389
L516.58 227.389
L517.186 230.138
L517.793 227.389
L518.4 230.138
L518.4 230.138" style="fill:none;stroke:#0000ff;stroke-linecap:square;"/>
   </g>
   <g id="line2d_2">
    <path clip-path="url(#pcb2bf987bf)" d="
M72 111.927
L518.4 111.927" style="fill:none;stroke:#ffa500;stroke-linecap:square;"/>
   </g>
   <g id="line2d_3">
    <path clip-path="url(#pcb2bf987bf)" d="
M72 84.4364
L518.4 84.4364" style="fill:none;stroke:#ff0000;stroke-linecap:square;stroke-width:2;"/>
   </g>
   <g id="patch_3">
    <path d="
M72 43.2
L518.4 43.2" style="fill:none;stroke:#000000;stroke-linecap:square;stroke-linejoin:miter;"/>
   </g>
   <g id="patch_4">
    <path d="
M518.4 345.6
L518.4 43.2" style="fill:none;stroke:#000000;stroke-linecap:square;stroke-linejoin:miter;"/>
   </g>
   <g id="patch_5">
    <path d="
M72 345.6
L518.4 345.6" style="fill:none;stroke:#000000;stroke-linecap:square;stroke-linejoin:miter;"/>
   </g>
   <g id="patch_6">
    <path d="
M72 345.6
L72 43.2" style="fill:none;stroke:#000000;stroke-linecap:square;stroke-linejoin:miter;"/>
   </g>
   <g id="matplotlib.axis_1">
    <g id="xtick_1">
     <g id="line2d_4">
      <path clip-path="url(#pcb2bf987bf)" d="
M130.225 345.6
L130.225 43.2" style="fill:none;stroke:#000000;stroke-dasharray:1.000000,3.000000;stroke-dashoffset:0.0;stroke-width:0.5;"/>
     </g>
     <g id="line2d_5">
      <defs>
       <path d="
M0 0
L0 -4" id="m93b0483c22" style="stroke:#000000;stroke-width:0.5;"/>
      </defs>
      <g>
       <use style="stroke:#000000;stroke-width:0.5;" x="130.225325145" xlink:href="#m93b0483c22" y="345.6"/>
      </g>
     </g>
     <g id="line2d_6">
      <defs>
       <path d="
M0 0
L0 4" id="m741efc42ff" style="stroke:#000000;stroke-width:0.5;"/>
      </defs>
      <g>
       <use style="stroke:#000000;stroke-width:0.5;" x="130.225325145" xlink:href="#m741efc42ff" y="43.2"/>
      </g>
     </g>
     <g id="text_1">
      <!-- Apr16 -->
      <defs>
       <path d="
M33.0156 40.375
Q26.375 40.375 22.4844 35.8281
Q18.6094 31.2969 18.6094 23.3906
Q18.6094 15.5312 22.4844 10.9531
Q26.375 6.39062 33.0156 6.39062
Q39.6562 6.39062 43.5312 10.9531
Q47.4062 15.5312 47.4062 23.3906
Q47.4062 31.2969 43.5312 35.8281
Q39.6562 40.375 33.0156 40.375
M52.5938 71.2969
L52.5938 62.3125
Q48.875 64.0625 45.0938 64.9844
Q41.3125 65.9219 37.5938 65.9219
Q27.8281 65.9219 22.6719 59.3281
Q17.5312 52.7344 16.7969 39.4062
Q19.6719 43.6562 24.0156 45.9219
Q28.375 48.1875 33.5938 48.1875
Q44.5781 48.1875 50.9531 41.5156
Q57.3281 34.8594 57.3281 23.3906
Q57.3281 12.1562 50.6875 5.35938
Q44.0469 -1.42188 33.0156 -1.42188
Q20.3594 -1.42188 13.6719 8.26562
Q6.98438 17.9688 6.98438 36.375
Q6.98438 53.6562 15.1875 63.9375
Q23.3906 74.2188 37.2031 74.2188
Q40.9219 74.2188 44.7031 73.4844
Q48.4844 72.75 52.5938 71.2969" id="BitstreamVeraSans-Roman-36"/>
       <path d="
M12.4062 8.29688
L28.5156 8.29688
L28.5156 63.9219
L10.9844 60.4062
L10.9844 69.3906
L28.4219 72.9062
L38.2812 72.9062
L38.2812 8.29688
L54.3906 8.29688
L54.3906 0
L12.4062 0
z
" id="BitstreamVeraSans-Roman-31"/>
       <path d="
M41.1094 46.2969
Q39.5938 47.1719 37.8125 47.5781
Q36.0312 48 33.8906 48
Q26.2656 48 22.1875 43.0469
Q18.1094 38.0938 18.1094 28.8125
L18.1094 0
L9.07812 0
L9.07812 54.6875
L18.1094 54.6875
L18.1094 46.1875
Q20.9531 51.1719 25.4844 53.5781
Q30.0312 56 36.5312 56
Q37.4531 56 38.5781 55.875
Q39.7031 55.7656 41.0625 55.5156
z
" id="BitstreamVeraSans-Roman-72"/>
       <path d="
M18.1094 8.20312
L18.1094 -20.7969
L9.07812 -20.7969
L9.07812 54.6875
L18.1094 54.6875
L18.1094 46.3906
Q20.9531 51.2656 25.2656 53.625
Q29.5938 56 35.5938 56
Q45.5625 56 51.7812 48.0938
Q58.0156 40.1875 58.0156 27.2969
Q58.0156 14.4062 51.7812 6.48438
Q45.5625 -1.42188 35.5938 -1.42188
Q29.5938 -1.42188 25.2656 0.953125
Q20.9531 3.32812 18.1094 8.20312
M48.6875 27.2969
Q48.6875 37.2031 44.6094 42.8438
Q40.5312 48.4844 33.4062 48.4844
Q26.2656 48.4844 22.1875 42.8438
Q18.1094 37.2031 18.1094 27.2969
Q18.1094 17.3906 22.1875 11.75
Q26.2656 6.10938 33.4062 6.10938
Q40.5312 6.10938 44.6094 11.75
Q48.6875 17.3906 48.6875 27.2969" id="BitstreamVeraSans-Roman-70"/>
       <path d="
M34.1875 63.1875
L20.7969 26.9062
L47.6094 26.9062
z

M28.6094 72.9062
L39.7969 72.9062
L67.5781 0
L57.3281 0
L50.6875 18.7031
L17.8281 18.7031
L11.1875 0
L0.78125 0
z
" id="BitstreamVeraSans-Roman-41"/>
      </defs>
      <g transform="translate(98.5101976738 375.086840385)rotate(-30.0)scale(0.12 -0.12)">
       <use xlink:href="#BitstreamVeraSans-Roman-41"/>
       <use x="68.408203125" xlink:href="#BitstreamVeraSans-Roman-70"/>
       <use x="131.884765625" xlink:href="#BitstreamVeraSans-Roman-72"/>
       <use x="172.998046875" xlink:href="#BitstreamVeraSans-Roman-31"/>
       <use x="236.62109375" xlink:href="#BitstreamVeraSans-Roman-36"/>
      </g>
     </g>
    </g>
    <g id="xtick_2">
     <g id="line2d_7">
      <path clip-path="url(#pcb2bf987bf)" d="
M188.451 345.6
L188.451 43.2" style="fill:none;stroke:#000000;stroke-dasharray:1.000000,3.000000;stroke-dashoffset:0.0;stroke-width:0.5;"/>
     </g>
     <g id="line2d_8">
      <g>
       <use style="stroke:#000000;stroke-width:0.5;" x="188.451324202" xlink:href="#m93b0483c22" y="345.6"/>
      </g>
     </g>
     <g id="line2d_9">
      <g>
       <use style="stroke:#000000;stroke-width:0.5;" x="188.451324202" xlink:href="#m741efc42ff" y="43.2"/>
      </g>
     </g>
     <g id="text_2">
      <!-- Apr17 -->
      <defs>
       <path d="
M8.20312 72.9062
L55.0781 72.9062
L55.0781 68.7031
L28.6094 0
L18.3125 0
L43.2188 64.5938
L8.20312 64.5938
z
" id="BitstreamVeraSans-Roman-37"/>
      </defs>
      <g transform="translate(156.97002359 374.951840385)rotate(-30.0)scale(0.12 -0.12)">
       <use xlink:href="#BitstreamVeraSans-Roman-41"/>
       <use x="68.408203125" xlink:href="#BitstreamVeraSans-Roman-70"/>
       <use x="131.884765625" xlink:href="#BitstreamVeraSans-Roman-72"/>
       <use x="172.998046875" xlink:href="#BitstreamVeraSans-Roman-31"/>
       <use x="236.62109375" xlink:href="#BitstreamVeraSans-Roman-37"/>
      </g>
     </g>
    </g>
    <g id="xtick_3">
     <g id="line2d_10">
      <path clip-path="url(#pcb2bf987bf)" d="
M246.677 345.6
L246.677 43.2" style="fill:none;stroke:#000000;stroke-dasharray:1.000000,3.000000;stroke-dashoffset:0.0;stroke-width:0.5;"/>
     </g>
     <g id="line2d_11">
      <g>
       <use style="stroke:#000000;stroke-width:0.5;" x="246.677323252" xlink:href="#m93b0483c22" y="345.6"/>
      </g>
     </g>
     <g id="line2d_12">
      <g>
       <use style="stroke:#000000;stroke-width:0.5;" x="246.677323252" xlink:href="#m741efc42ff" y="43.2"/>
      </g>
     </g>
     <g id="text_3">
      <!-- Apr18 -->
      <defs>
       <path d="
M31.7812 34.625
Q24.75 34.625 20.7188 30.8594
Q16.7031 27.0938 16.7031 20.5156
Q16.7031 13.9219 20.7188 10.1562
Q24.75 6.39062 31.7812 6.39062
Q38.8125 6.39062 42.8594 10.1719
Q46.9219 13.9688 46.9219 20.5156
Q46.9219 27.0938 42.8906 30.8594
Q38.875 34.625 31.7812 34.625
M21.9219 38.8125
Q15.5781 40.375 12.0312 44.7188
Q8.5 49.0781 8.5 55.3281
Q8.5 64.0625 14.7188 69.1406
Q20.9531 74.2188 31.7812 74.2188
Q42.6719 74.2188 48.875 69.1406
Q55.0781 64.0625 55.0781 55.3281
Q55.0781 49.0781 51.5312 44.7188
Q48 40.375 41.7031 38.8125
Q48.8281 37.1562 52.7969 32.3125
Q56.7812 27.4844 56.7812 20.5156
Q56.7812 9.90625 50.3125 4.23438
Q43.8438 -1.42188 31.7812 -1.42188
Q19.7344 -1.42188 13.25 4.23438
Q6.78125 9.90625 6.78125 20.5156
Q6.78125 27.4844 10.7812 32.3125
Q14.7969 37.1562 21.9219 38.8125
M18.3125 54.3906
Q18.3125 48.7344 21.8438 45.5625
Q25.3906 42.3906 31.7812 42.3906
Q38.1406 42.3906 41.7188 45.5625
Q45.3125 48.7344 45.3125 54.3906
Q45.3125 60.0625 41.7188 63.2344
Q38.1406 66.4062 31.7812 66.4062
Q25.3906 66.4062 21.8438 63.2344
Q18.3125 60.0625 18.3125 54.3906" id="BitstreamVeraSans-Roman-38"/>
      </defs>
      <g transform="translate(215.019028698 375.054027885)rotate(-30.0)scale(0.12 -0.12)">
       <use xlink:href="#BitstreamVeraSans-Roman-41"/>
       <use x="68.408203125" xlink:href="#BitstreamVeraSans-Roman-70"/>
       <use x="131.884765625" xlink:href="#BitstreamVeraSans-Roman-72"/>
       <use x="172.998046875" xlink:href="#BitstreamVeraSans-Roman-31"/>
       <use x="236.62109375" xlink:href="#BitstreamVeraSans-Roman-38"/>
      </g>
     </g>
    </g>
    <g id="xtick_4">
     <g id="line2d_13">
      <path clip-path="url(#pcb2bf987bf)" d="
M304.903 345.6
L304.903 43.2" style="fill:none;stroke:#000000;stroke-dasharray:1.000000,3.000000;stroke-dashoffset:0.0;stroke-width:0.5;"/>
     </g>
     <g id="line2d_14">
      <g>
       <use style="stroke:#000000;stroke-width:0.5;" x="304.903322309" xlink:href="#m93b0483c22" y="345.6"/>
      </g>
     </g>
     <g id="line2d_15">
      <g>
       <use style="stroke:#000000;stroke-width:0.5;" x="304.903322309" xlink:href="#m741efc42ff" y="43.2"/>
      </g>
     </g>
     <g id="text_4">
      <!-- Apr19 -->
      <defs>
       <path d="
M10.9844 1.51562
L10.9844 10.5
Q14.7031 8.73438 18.5 7.8125
Q22.3125 6.89062 25.9844 6.89062
Q35.75 6.89062 40.8906 13.4531
Q46.0469 20.0156 46.7812 33.4062
Q43.9531 29.2031 39.5938 26.9531
Q35.25 24.7031 29.9844 24.7031
Q19.0469 24.7031 12.6719 31.3125
Q6.29688 37.9375 6.29688 49.4219
Q6.29688 60.6406 12.9375 67.4219
Q19.5781 74.2188 30.6094 74.2188
Q43.2656 74.2188 49.9219 64.5156
Q56.5938 54.8281 56.5938 36.375
Q56.5938 19.1406 48.4062 8.85938
Q40.2344 -1.42188 26.4219 -1.42188
Q22.7031 -1.42188 18.8906 -0.6875
Q15.0938 0.046875 10.9844 1.51562
M30.6094 32.4219
Q37.25 32.4219 41.125 36.9531
Q45.0156 41.5 45.0156 49.4219
Q45.0156 57.2812 41.125 61.8438
Q37.25 66.4062 30.6094 66.4062
Q23.9688 66.4062 20.0938 61.8438
Q16.2188 57.2812 16.2188 49.4219
Q16.2188 41.5 20.0938 36.9531
Q23.9688 32.4219 30.6094 32.4219" id="BitstreamVeraSans-Roman-39"/>
      </defs>
      <g transform="translate(273.264513327 375.042777885)rotate(-30.0)scale(0.12 -0.12)">
       <use xlink:href="#BitstreamVeraSans-Roman-41"/>
       <use x="68.408203125" xlink:href="#BitstreamVeraSans-Roman-70"/>
       <use x="131.884765625" xlink:href="#BitstreamVeraSans-Roman-72"/>
       <use x="172.998046875" xlink:href="#BitstreamVeraSans-Roman-31"/>
       <use x="236.62109375" xlink:href="#BitstreamVeraSans-Roman-39"/>
      </g>
     </g>
    </g>
    <g id="xtick_5">
     <g id="line2d_16">
      <path clip-path="url(#pcb2bf987bf)" d="
M363.129 345.6
L363.129 43.2" style="fill:none;stroke:#000000;stroke-dasharray:1.000000,3.000000;stroke-dashoffset:0.0;stroke-width:0.5;"/>
     </g>
     <g id="line2d_17">
      <g>
       <use style="stroke:#000000;stroke-width:0.5;" x="363.129321367" xlink:href="#m93b0483c22" y="345.6"/>
      </g>
     </g>
     <g id="line2d_18">
      <g>
       <use style="stroke:#000000;stroke-width:0.5;" x="363.129321367" xlink:href="#m741efc42ff" y="43.2"/>
      </g>
     </g>
     <g id="text_5">
      <!-- Apr20 -->
      <defs>
       <path d="
M19.1875 8.29688
L53.6094 8.29688
L53.6094 0
L7.32812 0
L7.32812 8.29688
Q12.9375 14.1094 22.625 23.8906
Q32.3281 33.6875 34.8125 36.5312
Q39.5469 41.8438 41.4219 45.5312
Q43.3125 49.2188 43.3125 52.7812
Q43.3125 58.5938 39.2344 62.25
Q35.1562 65.9219 28.6094 65.9219
Q23.9688 65.9219 18.8125 64.3125
Q13.6719 62.7031 7.8125 59.4219
L7.8125 69.3906
Q13.7656 71.7812 18.9375 73
Q24.125 74.2188 28.4219 74.2188
Q39.75 74.2188 46.4844 68.5469
Q53.2188 62.8906 53.2188 53.4219
Q53.2188 48.9219 51.5312 44.8906
Q49.8594 40.875 45.4062 35.4062
Q44.1875 33.9844 37.6406 27.2188
Q31.1094 20.4531 19.1875 8.29688" id="BitstreamVeraSans-Roman-32"/>
       <path d="
M31.7812 66.4062
Q24.1719 66.4062 20.3281 58.9062
Q16.5 51.4219 16.5 36.375
Q16.5 21.3906 20.3281 13.8906
Q24.1719 6.39062 31.7812 6.39062
Q39.4531 6.39062 43.2812 13.8906
Q47.125 21.3906 47.125 36.375
Q47.125 51.4219 43.2812 58.9062
Q39.4531 66.4062 31.7812 66.4062
M31.7812 74.2188
Q44.0469 74.2188 50.5156 64.5156
Q56.9844 54.8281 56.9844 36.375
Q56.9844 17.9688 50.5156 8.26562
Q44.0469 -1.42188 31.7812 -1.42188
Q19.5312 -1.42188 13.0625 8.26562
Q6.59375 17.9688 6.59375 36.375
Q6.59375 54.8281 13.0625 64.5156
Q19.5312 74.2188 31.7812 74.2188" id="BitstreamVeraSans-Roman-30"/>
      </defs>
      <g transform="translate(331.449917443 375.066215385)rotate(-30.0)scale(0.12 -0.12)">
       <use xlink:href="#BitstreamVeraSans-Roman-41"/>
       <use x="68.408203125" xlink:href="#BitstreamVeraSans-Roman-70"/>
       <use x="131.884765625" xlink:href="#BitstreamVeraSans-Roman-72"/>
       <use x="172.998046875" xlink:href="#BitstreamVeraSans-Roman-32"/>
       <use x="236.62109375" xlink:href="#BitstreamVeraSans-Roman-30"/>
      </g>
     </g>
    </g>
    <g id="xtick_6">
     <g id="line2d_19">
      <path clip-path="url(#pcb2bf987bf)" d="
M421.355 345.6
L421.355 43.2" style="fill:none;stroke:#000000;stroke-dasharray:1.000000,3.000000;stroke-dashoffset:0.0;stroke-width:0.5;"/>
     </g>
     <g id="line2d_20">
      <g>
       <use style="stroke:#000000;stroke-width:0.5;" x="421.355320424" xlink:href="#m93b0483c22" y="345.6"/>
      </g>
     </g>
     <g id="line2d_21">
      <g>
       <use style="stroke:#000000;stroke-width:0.5;" x="421.355320424" xlink:href="#m741efc42ff" y="43.2"/>
      </g>
     </g>
     <g id="text_6">
      <!-- Apr21 -->
      <g transform="translate(389.945466908 374.910590385)rotate(-30.0)scale(0.12 -0.12)">
       <use xlink:href="#BitstreamVeraSans-Roman-41"/>
       <use x="68.408203125" xlink:href="#BitstreamVeraSans-Roman-70"/>
       <use x="131.884765625" xlink:href="#BitstreamVeraSans-Roman-72"/>
       <use x="172.998046875" xlink:href="#BitstreamVeraSans-Roman-32"/>
       <use x="236.62109375" xlink:href="#BitstreamVeraSans-Roman-31"/>
      </g>
     </g>
    </g>
    <g id="xtick_7">
     <g id="line2d_22">
      <path clip-path="url(#pcb2bf987bf)" d="
M479.581 345.6
L479.581 43.2" style="fill:none;stroke:#000000;stroke-dasharray:1.000000,3.000000;stroke-dashoffset:0.0;stroke-width:0.5;"/>
     </g>
     <g id="line2d_23">
      <g>
       <use style="stroke:#000000;stroke-width:0.5;" x="479.581319481" xlink:href="#m93b0483c22" y="345.6"/>
      </g>
     </g>
     <g id="line2d_24">
      <g>
       <use style="stroke:#000000;stroke-width:0.5;" x="479.581319481" xlink:href="#m741efc42ff" y="43.2"/>
      </g>
     </g>
     <g id="text_7">
      <!-- Apr22 -->
      <g transform="translate(448.252655847 374.863715385)rotate(-30.0)scale(0.12 -0.12)">
       <use xlink:href="#BitstreamVeraSans-Roman-41"/>
       <use x="68.408203125" xlink:href="#BitstreamVeraSans-Roman-70"/>
       <use x="131.884765625" xlink:href="#BitstreamVeraSans-Roman-72"/>
       <use x="172.998046875" xlink:href="#BitstreamVeraSans-Roman-32"/>
       <use x="236.62109375" xlink:href="#BitstreamVeraSans-Roman-32"/>
      </g>
     </g>
    </g>
   </g>
   <g id="matplotlib.axis_2">
    <g id="ytick_1">
     <g id="line2d_25">
      <path clip-path="url(#pcb2bf987bf)" d="
M72 345.6
L518.4 345.6" style="fill:none;stroke:#000000;stroke-dasharray:1.000000,3.000000;stroke-dashoffset:0.0;stroke-width:0.5;"/>
     </g>
     <g id="line2d_26">
      <defs>
       <path d="
M0 0
L4 0" id="m728421d6d4" style="stroke:#000000;stroke-width:0.5;"/>
      </defs>
      <g>
       <use style="stroke:#000000;stroke-width:0.5;" x="72.0" xlink:href="#m728421d6d4" y="345.6"/>
      </g>
     </g>
     <g id="line2d_27">
      <defs>
       <path d="
M0 0
L-4 0" id="mcb0005524f" style="stroke:#000000;stroke-width:0.5;"/>
      </defs>
      <g>
       <use style="stroke:#000000;stroke-width:0.5;" x="518.4" xlink:href="#mcb0005524f" y="345.6"/>
      </g>
     </g>
     <g id="text_8">
      <!-- 0 -->
      <g transform="translate(61.953125 348.91125)scale(0.12 -0.12)">
       <use xlink:href="#BitstreamVeraSans-Roman-30"/>
      </g>
     </g>
    </g>
    <g id="ytick_2">
     <g id="line2d_28">
      <path clip-path="url(#pcb2bf987bf)" d="
M72 290.618
L518.4 290.618" style="fill:none;stroke:#000000;stroke-dasharray:1.000000,3.000000;stroke-dashoffset:0.0;stroke-width:0.5;"/>
     </g>
     <g id="line2d_29">
      <g>
       <use style="stroke:#000000;stroke-width:0.5;" x="72.0" xlink:href="#m728421d6d4" y="290.618181818"/>
      </g>
     </g>
     <g id="line2d_30">
      <g>
       <use style="stroke:#000000;stroke-width:0.5;" x="518.4" xlink:href="#mcb0005524f" y="290.618181818"/>
      </g>
     </g>
     <g id="text_9">
      <!-- 20 -->
      <g transform="translate(54.40625 293.929431818)scale(0.12 -0.12)">
       <use xlink:href="#BitstreamVeraSans-Roman-32"/>
       <use x="63.623046875" xlink:href="#BitstreamVeraSans-Roman-30"/>
      </g>
     </g>
    </g>
    <g id="ytick_3">
     <g id="line2d_31">
      <path clip-path="url(#pcb2bf987bf)" d="
M72 235.636
L518.4 235.636" style="fill:none;stroke:#000000;stroke-dasharray:1.000000,3.000000;stroke-dashoffset:0.0;stroke-width:0.5;"/>
     </g>
     <g id="line2d_32">
      <g>
       <use style="stroke:#000000;stroke-width:0.5;" x="72.0" xlink:href="#m728421d6d4" y="235.636363636"/>
      </g>
     </g>
     <g id="line2d_33">
      <g>
       <use style="stroke:#000000;stroke-width:0.5;" x="518.4" xlink:href="#mcb0005524f" y="235.636363636"/>
      </g>
     </g>
     <g id="text_10">
      <!-- 40 -->
      <defs>
       <path d="
M37.7969 64.3125
L12.8906 25.3906
L37.7969 25.3906
z

M35.2031 72.9062
L47.6094 72.9062
L47.6094 25.3906
L58.0156 25.3906
L58.0156 17.1875
L47.6094 17.1875
L47.6094 0
L37.7969 0
L37.7969 17.1875
L4.89062 17.1875
L4.89062 26.7031
z
" id="BitstreamVeraSans-Roman-34"/>
      </defs>
      <g transform="translate(54.11375 238.947613636)scale(0.12 -0.12)">
       <use xlink:href="#BitstreamVeraSans-Roman-34"/>
       <use x="63.623046875" xlink:href="#BitstreamVeraSans-Roman-30"/>
      </g>
     </g>
    </g>
    <g id="ytick_4">
     <g id="line2d_34">
      <path clip-path="url(#pcb2bf987bf)" d="
M72 180.655
L518.4 180.655" style="fill:none;stroke:#000000;stroke-dasharray:1.000000,3.000000;stroke-dashoffset:0.0;stroke-width:0.5;"/>
     </g>
     <g id="line2d_35">
      <g>
       <use style="stroke:#000000;stroke-width:0.5;" x="72.0" xlink:href="#m728421d6d4" y="180.654545455"/>
      </g>
     </g>
     <g id="line2d_36">
      <g>
       <use style="stroke:#000000;stroke-width:0.5;" x="518.4" xlink:href="#mcb0005524f" y="180.654545455"/>
      </g>
     </g>
     <g id="text_11">
      <!-- 60 -->
      <g transform="translate(54.365 183.965795455)scale(0.12 -0.12)">
       <use xlink:href="#BitstreamVeraSans-Roman-36"/>
       <use x="63.623046875" xlink:href="#BitstreamVeraSans-Roman-30"/>
      </g>
     </g>
    </g>
    <g id="ytick_5">
     <g id="line2d_37">
      <path clip-path="url(#pcb2bf987bf)" d="
M72 125.673
L518.4 125.673" style="fill:none;stroke:#000000;stroke-dasharray:1.000000,3.000000;stroke-dashoffset:0.0;stroke-width:0.5;"/>
     </g>
     <g id="line2d_38">
      <g>
       <use style="stroke:#000000;stroke-width:0.5;" x="72.0" xlink:href="#m728421d6d4" y="125.672727273"/>
      </g>
     </g>
     <g id="line2d_39">
      <g>
       <use style="stroke:#000000;stroke-width:0.5;" x="518.4" xlink:href="#mcb0005524f" y="125.672727273"/>
      </g>
     </g>
     <g id="text_12">
      <!-- 80 -->
      <g transform="translate(54.340625 128.983977273)scale(0.12 -0.12)">
       <use xlink:href="#BitstreamVeraSans-Roman-38"/>
       <use x="63.623046875" xlink:href="#BitstreamVeraSans-Roman-30"/>
      </g>
     </g>
    </g>
    <g id="ytick_6">
     <g id="line2d_40">
      <path clip-path="url(#pcb2bf987bf)" d="
M72 70.6909
L518.4 70.6909" style="fill:none;stroke:#000000;stroke-dasharray:1.000000,3.000000;stroke-dashoffset:0.0;stroke-width:0.5;"/>
     </g>
     <g id="line2d_41">
      <g>
       <use style="stroke:#000000;stroke-width:0.5;" x="72.0" xlink:href="#m728421d6d4" y="70.6909090909"/>
      </g>
     </g>
     <g id="line2d_42">
      <g>
       <use style="stroke:#000000;stroke-width:0.5;" x="518.4" xlink:href="#mcb0005524f" y="70.6909090909"/>
      </g>
     </g>
     <g id="text_13">
      <!-- 100 -->
      <g transform="translate(47.21 74.0021590909)scale(0.12 -0.12)">
       <use xlink:href="#BitstreamVeraSans-Roman-31"/>
       <use x="63.623046875" xlink:href="#BitstreamVeraSans-Roman-30"/>
       <use x="127.24609375" xlink:href="#BitstreamVeraSans-Roman-30"/>
      </g>
     </g>
    </g>
    <g id="text_14">
     <!-- temperature (C) -->
     <defs>
      <path id="BitstreamVeraSans-Roman-20"/>
      <path d="
M8.01562 75.875
L15.8281 75.875
Q23.1406 64.3594 26.7812 53.3125
Q30.4219 42.2812 30.4219 31.3906
Q30.4219 20.4531 26.7812 9.375
Q23.1406 -1.70312 15.8281 -13.1875
L8.01562 -13.1875
Q14.5 -2 17.7031 9.0625
Q20.9062 20.125 20.9062 31.3906
Q20.9062 42.6719 17.7031 53.6562
Q14.5 64.6562 8.01562 75.875" id="BitstreamVeraSans-Roman-29"/>
      <path d="
M52 44.1875
Q55.375 50.25 60.0625 53.125
Q64.75 56 71.0938 56
Q79.6406 56 84.2812 50.0156
Q88.9219 44.0469 88.9219 33.0156
L88.9219 0
L79.8906 0
L79.8906 32.7188
Q79.8906 40.5781 77.0938 44.375
Q74.3125 48.1875 68.6094 48.1875
Q61.625 48.1875 57.5625 43.5469
Q53.5156 38.9219 53.5156 30.9062
L53.5156 0
L44.4844 0
L44.4844 32.7188
Q44.4844 40.625 41.7031 44.4062
Q38.9219 48.1875 33.1094 48.1875
Q26.2188 48.1875 22.1562 43.5312
Q18.1094 38.875 18.1094 30.9062
L18.1094 0
L9.07812 0
L9.07812 54.6875
L18.1094 54.6875
L18.1094 46.1875
Q21.1875 51.2188 25.4844 53.6094
Q29.7812 56 35.6875 56
Q41.6562 56 45.8281 52.9688
Q50 49.9531 52 44.1875" id="BitstreamVeraSans-Roman-6d"/>
      <path d="
M64.4062 67.2812
L64.4062 56.8906
Q59.4219 61.5312 53.7812 63.8125
Q48.1406 66.1094 41.7969 66.1094
Q29.2969 66.1094 22.6562 58.4688
Q16.0156 50.8281 16.0156 36.375
Q16.0156 21.9688 22.6562 14.3281
Q29.2969 6.6875 41.7969 6.6875
Q48.1406 6.6875 53.7812 8.98438
Q59.4219 11.2812 64.4062 15.9219
L64.4062 5.60938
Q59.2344 2.09375 53.4375 0.328125
Q47.6562 -1.42188 41.2188 -1.42188
Q24.6562 -1.42188 15.125 8.70312
Q5.60938 18.8438 5.60938 36.375
Q5.60938 53.9531 15.125 64.0781
Q24.6562 74.2188 41.2188 74.2188
Q47.75 74.2188 53.5312 72.4844
Q59.3281 70.75 64.4062 67.2812" id="BitstreamVeraSans-Roman-43"/>
      <path d="
M31 75.875
Q24.4688 64.6562 21.2812 53.6562
Q18.1094 42.6719 18.1094 31.3906
Q18.1094 20.125 21.3125 9.0625
Q24.5156 -2 31 -13.1875
L23.1875 -13.1875
Q15.875 -1.70312 12.2344 9.375
Q8.59375 20.4531 8.59375 31.3906
Q8.59375 42.2812 12.2031 53.3125
Q15.8281 64.3594 23.1875 75.875
z
" id="BitstreamVeraSans-Roman-28"/>
      <path d="
M56.2031 29.5938
L56.2031 25.2031
L14.8906 25.2031
Q15.4844 15.9219 20.4844 11.0625
Q25.4844 6.20312 34.4219 6.20312
Q39.5938 6.20312 44.4531 7.46875
Q49.3125 8.73438 54.1094 11.2812
L54.1094 2.78125
Q49.2656 0.734375 44.1875 -0.34375
Q39.1094 -1.42188 33.8906 -1.42188
Q20.7969 -1.42188 13.1562 6.1875
Q5.51562 13.8125 5.51562 26.8125
Q5.51562 40.2344 12.7656 48.1094
Q20.0156 56 32.3281 56
Q43.3594 56 49.7812 48.8906
Q56.2031 41.7969 56.2031 29.5938
M47.2188 32.2344
Q47.125 39.5938 43.0938 43.9844
Q39.0625 48.3906 32.4219 48.3906
Q24.9062 48.3906 20.3906 44.1406
Q15.875 39.8906 15.1875 32.1719
z
" id="BitstreamVeraSans-Roman-65"/>
      <path d="
M18.3125 70.2188
L18.3125 54.6875
L36.8125 54.6875
L36.8125 47.7031
L18.3125 47.7031
L18.3125 18.0156
Q18.3125 11.3281 20.1406 9.42188
Q21.9688 7.51562 27.5938 7.51562
L36.8125 7.51562
L36.8125 0
L27.5938 0
Q17.1875 0 13.2344 3.875
Q9.28125 7.76562 9.28125 18.0156
L9.28125 47.7031
L2.6875 47.7031
L2.6875 54.6875
L9.28125 54.6875
L9.28125 70.2188
z
" id="BitstreamVeraSans-Roman-74"/>
      <path d="
M8.5 21.5781
L8.5 54.6875
L17.4844 54.6875
L17.4844 21.9219
Q17.4844 14.1562 20.5 10.2656
Q23.5312 6.39062 29.5938 6.39062
Q36.8594 6.39062 41.0781 11.0312
Q45.3125 15.6719 45.3125 23.6875
L45.3125 54.6875
L54.2969 54.6875
L54.2969 0
L45.3125 0
L45.3125 8.40625
Q42.0469 3.42188 37.7188 1
Q33.4062 -1.42188 27.6875 -1.42188
Q18.2656 -1.42188 13.375 4.4375
Q8.5 10.2969 8.5 21.5781" id="BitstreamVeraSans-Roman-75"/>
      <path d="
M34.2812 27.4844
Q23.3906 27.4844 19.1875 25
Q14.9844 22.5156 14.9844 16.5
Q14.9844 11.7188 18.1406 8.90625
Q21.2969 6.10938 26.7031 6.10938
Q34.1875 6.10938 38.7031 11.4062
Q43.2188 16.7031 43.2188 25.4844
L43.2188 27.4844
z

M52.2031 31.2031
L52.2031 0
L43.2188 0
L43.2188 8.29688
Q40.1406 3.32812 35.5469 0.953125
Q30.9531 -1.42188 24.3125 -1.42188
Q15.9219 -1.42188 10.9531 3.29688
Q6 8.01562 6 15.9219
Q6 25.1406 12.1719 29.8281
Q18.3594 34.5156 30.6094 34.5156
L43.2188 34.5156
L43.2188 35.4062
Q43.2188 41.6094 39.1406 45
Q35.0625 48.3906 27.6875 48.3906
Q23 48.3906 18.5469 47.2656
Q14.1094 46.1406 10.0156 43.8906
L10.0156 52.2031
Q14.9375 54.1094 19.5781 55.0469
Q24.2188 56 28.6094 56
Q40.4844 56 46.3438 49.8438
Q52.2031 43.7031 52.2031 31.2031" id="BitstreamVeraSans-Roman-61"/>
     </defs>
     <g transform="translate(39.714375 242.37375)rotate(-90.0)scale(0.12 -0.12)">
      <use xlink:href="#BitstreamVeraSans-Roman-74"/>
      <use x="39.208984375" xlink:href="#BitstreamVeraSans-Roman-65"/>
      <use x="100.732421875" xlink:href="#BitstreamVeraSans-Roman-6d"/>
      <use x="198.14453125" xlink:href="#BitstreamVeraSans-Roman-70"/>
      <use x="261.62109375" xlink:href="#BitstreamVeraSans-Roman-65"/>
      <use x="323.14453125" xlink:href="#BitstreamVeraSans-Roman-72"/>
      <use x="364.2578125" xlink:href="#BitstreamVeraSans-Roman-61"/>
      <use x="425.537109375" xlink:href="#BitstreamVeraSans-Roman-74"/>
      <use x="464.74609375" xlink:href="#BitstreamVeraSans-Roman-75"/>
      <use x="528.125" xlink:href="#BitstreamVeraSans-Roman-72"/>
      <use x="566.98828125" xlink:href="#BitstreamVeraSans-Roman-65"/>
      <use x="628.51171875" xlink:href="#BitstreamVeraSans-Roman-20"/>
      <use x="660.298828125" xlink:href="#BitstreamVeraSans-Roman-28"/>
      <use x="699.3125" xlink:href="#BitstreamVeraSans-Roman-43"/>
      <use x="769.13671875" xlink:href="#BitstreamVeraSans-Roman-29"/>
     </g>
    </g>
   </g>
   <g id="text_15">
    <!--  CPU high temperature -->
    <defs>
     <path d="
M19.6719 64.7969
L19.6719 37.4062
L32.0781 37.4062
Q38.9688 37.4062 42.7188 40.9688
Q46.4844 44.5312 46.4844 51.125
Q46.4844 57.6719 42.7188 61.2344
Q38.9688 64.7969 32.0781 64.7969
z

M9.8125 72.9062
L32.0781 72.9062
Q44.3438 72.9062 50.6094 67.3594
Q56.8906 61.8125 56.8906 51.125
Q56.8906 40.3281 50.6094 34.8125
Q44.3438 29.2969 32.0781 29.2969
L19.6719 29.2969
L19.6719 0
L9.8125 0
z
" id="BitstreamVeraSans-Roman-50"/>
     <path d="
M45.4062 27.9844
Q45.4062 37.75 41.375 43.1094
Q37.3594 48.4844 30.0781 48.4844
Q22.8594 48.4844 18.8281 43.1094
Q14.7969 37.75 14.7969 27.9844
Q14.7969 18.2656 18.8281 12.8906
Q22.8594 7.51562 30.0781 7.51562
Q37.3594 7.51562 41.375 12.8906
Q45.4062 18.2656 45.4062 27.9844
M54.3906 6.78125
Q54.3906 -7.17188 48.1875 -13.9844
Q42 -20.7969 29.2031 -20.7969
Q24.4688 -20.7969 20.2656 -20.0938
Q16.0625 -19.3906 12.1094 -17.9219
L12.1094 -9.1875
Q16.0625 -11.3281 19.9219 -12.3438
Q23.7812 -13.375 27.7812 -13.375
Q36.625 -13.375 41.0156 -8.76562
Q45.4062 -4.15625 45.4062 5.17188
L45.4062 9.625
Q42.625 4.78125 38.2812 2.39062
Q33.9375 0 27.875 0
Q17.8281 0 11.6719 7.65625
Q5.51562 15.3281 5.51562 27.9844
Q5.51562 40.6719 11.6719 48.3281
Q17.8281 56 27.875 56
Q33.9375 56 38.2812 53.6094
Q42.625 51.2188 45.4062 46.3906
L45.4062 54.6875
L54.3906 54.6875
z
" id="BitstreamVeraSans-Roman-67"/>
     <path d="
M9.42188 54.6875
L18.4062 54.6875
L18.4062 0
L9.42188 0
z

M9.42188 75.9844
L18.4062 75.9844
L18.4062 64.5938
L9.42188 64.5938
z
" id="BitstreamVeraSans-Roman-69"/>
     <path d="
M8.6875 72.9062
L18.6094 72.9062
L18.6094 28.6094
Q18.6094 16.8906 22.8438 11.7344
Q27.0938 6.59375 36.625 6.59375
Q46.0938 6.59375 50.3438 11.7344
Q54.5938 16.8906 54.5938 28.6094
L54.5938 72.9062
L64.5 72.9062
L64.5 27.3906
Q64.5 13.1406 57.4375 5.85938
Q50.3906 -1.42188 36.625 -1.42188
Q22.7969 -1.42188 15.7344 5.85938
Q8.6875 13.1406 8.6875 27.3906
z
" id="BitstreamVeraSans-Roman-55"/>
     <path d="
M54.8906 33.0156
L54.8906 0
L45.9062 0
L45.9062 32.7188
Q45.9062 40.4844 42.875 44.3281
Q39.8438 48.1875 33.7969 48.1875
Q26.5156 48.1875 22.3125 43.5469
Q18.1094 38.9219 18.1094 30.9062
L18.1094 0
L9.07812 0
L9.07812 75.9844
L18.1094 75.9844
L18.1094 46.1875
Q21.3438 51.125 25.7031 53.5625
Q30.0781 56 35.7969 56
Q45.2188 56 50.0469 50.1719
Q54.8906 44.3438 54.8906 33.0156" id="BitstreamVeraSans-Roman-68"/>
    </defs>
    <g style="fill:#ffa500;" transform="translate(72.0 109.178181818)scale(0.12 -0.12)">
     <use xlink:href="#BitstreamVeraSans-Roman-20"/>
     <use x="31.787109375" xlink:href="#BitstreamVeraSans-Roman-43"/>
     <use x="101.611328125" xlink:href="#BitstreamVeraSans-Roman-50"/>
     <use x="161.9140625" xlink:href="#BitstreamVeraSans-Roman-55"/>
     <use x="235.107421875" xlink:href="#BitstreamVeraSans-Roman-20"/>
     <use x="266.89453125" xlink:href="#BitstreamVeraSans-Roman-68"/>
     <use x="330.2734375" xlink:href="#BitstreamVeraSans-Roman-69"/>
     <use x="358.056640625" xlink:href="#BitstreamVeraSans-Roman-67"/>
     <use x="421.533203125" xlink:href="#BitstreamVeraSans-Roman-68"/>
     <use x="484.912109375" xlink:href="#BitstreamVeraSans-Roman-20"/>
     <use x="516.69921875" xlink:href="#BitstreamVeraSans-Roman-74"/>
     <use x="555.908203125" xlink:href="#BitstreamVeraSans-Roman-65"/>
     <use x="617.431640625" xlink:href="#BitstreamVeraSans-Roman-6d"/>
     <use x="714.84375" xlink:href="#BitstreamVeraSans-Roman-70"/>
     <use x="778.3203125" xlink:href="#BitstreamVeraSans-Roman-65"/>
     <use x="839.84375" xlink:href="#BitstreamVeraSans-Roman-72"/>
     <use x="880.95703125" xlink:href="#BitstreamVeraSans-Roman-61"/>
     <use x="942.236328125" xlink:href="#BitstreamVeraSans-Roman-74"/>
     <use x="981.4453125" xlink:href="#BitstreamVeraSans-Roman-75"/>
     <use x="1044.82421875" xlink:href="#BitstreamVeraSans-Roman-72"/>
     <use x="1083.6875" xlink:href="#BitstreamVeraSans-Roman-65"/>
    </g>
   </g>
   <g id="text_16">
    <!--  CPU critical temperature -->
    <defs>
     <path d="
M9.42188 75.9844
L18.4062 75.9844
L18.4062 0
L9.42188 0
z
" id="BitstreamVeraSans-Roman-6c"/>
     <path d="
M48.7812 52.5938
L48.7812 44.1875
Q44.9688 46.2969 41.1406 47.3438
Q37.3125 48.3906 33.4062 48.3906
Q24.6562 48.3906 19.8125 42.8438
Q14.9844 37.3125 14.9844 27.2969
Q14.9844 17.2812 19.8125 11.7344
Q24.6562 6.20312 33.4062 6.20312
Q37.3125 6.20312 41.1406 7.25
Q44.9688 8.29688 48.7812 10.4062
L48.7812 2.09375
Q45.0156 0.34375 40.9844 -0.53125
Q36.9688 -1.42188 32.4219 -1.42188
Q20.0625 -1.42188 12.7812 6.34375
Q5.51562 14.1094 5.51562 27.2969
Q5.51562 40.6719 12.8594 48.3281
Q20.2188 56 33.0156 56
Q37.1562 56 41.1094 55.1406
Q45.0625 54.2969 48.7812 52.5938" id="BitstreamVeraSans-Roman-63"/>
    </defs>
    <g style="fill:#ff0000;" transform="translate(72.0 81.6872727273)scale(0.12 -0.12)">
     <use xlink:href="#BitstreamVeraSans-Roman-20"/>
     <use x="31.787109375" xlink:href="#BitstreamVeraSans-Roman-43"/>
     <use x="101.611328125" xlink:href="#BitstreamVeraSans-Roman-50"/>
     <use x="161.9140625" xlink:href="#BitstreamVeraSans-Roman-55"/>
     <use x="235.107421875" xlink:href="#BitstreamVeraSans-Roman-20"/>
     <use x="266.89453125" xlink:href="#BitstreamVeraSans-Roman-63"/>
     <use x="321.875" xlink:href="#BitstreamVeraSans-Roman-72"/>
     <use x="362.98828125" xlink:href="#BitstreamVeraSans-Roman-69"/>
     <use x="390.771484375" xlink:href="#BitstreamVeraSans-Roman-74"/>
     <use x="429.98046875" xlink:href="#BitstreamVeraSans-Roman-69"/>
     <use x="457.763671875" xlink:href="#BitstreamVeraSans-Roman-63"/>
     <use x="512.744140625" xlink:href="#BitstreamVeraSans-Roman-61"/>
     <use x="574.0234375" xlink:href="#BitstreamVeraSans-Roman-6c"/>
     <use x="601.806640625" xlink:href="#BitstreamVeraSans-Roman-20"/>
     <use x="633.59375" xlink:href="#BitstreamVeraSans-Roman-74"/>
     <use x="672.802734375" xlink:href="#BitstreamVeraSans-Roman-65"/>
     <use x="734.326171875" xlink:href="#BitstreamVeraSans-Roman-6d"/>
     <use x="831.73828125" xlink:href="#BitstreamVeraSans-Roman-70"/>
     <use x="895.21484375" xlink:href="#BitstreamVeraSans-Roman-65"/>
     <use x="956.73828125" xlink:href="#BitstreamVeraSans-Roman-72"/>
     <use x="997.8515625" xlink:href="#BitstreamVeraSans-Roman-61"/>
     <use x="1059.13085938" xlink:href="#BitstreamVeraSans-Roman-74"/>
     <use x="1098.33984375" xlink:href="#BitstreamVeraSans-Roman-75"/>
     <use x="1161.71875" xlink:href="#BitstreamVeraSans-Roman-72"/>
     <use x="1200.58203125" xlink:href="#BitstreamVeraSans-Roman-65"/>
    </g>
   </g>
   <g id="text_17">
    <!-- headnode -->
    <defs>
     <path d="
M54.8906 33.0156
L54.8906 0
L45.9062 0
L45.9062 32.7188
Q45.9062 40.4844 42.875 44.3281
Q39.8438 48.1875 33.7969 48.1875
Q26.5156 48.1875 22.3125 43.5469
Q18.1094 38.9219 18.1094 30.9062
L18.1094 0
L9.07812 0
L9.07812 54.6875
L18.1094 54.6875
L18.1094 46.1875
Q21.3438 51.125 25.7031 53.5625
Q30.0781 56 35.7969 56
Q45.2188 56 50.0469 50.1719
Q54.8906 44.3438 54.8906 33.0156" id="BitstreamVeraSans-Roman-6e"/>
     <path d="
M45.4062 46.3906
L45.4062 75.9844
L54.3906 75.9844
L54.3906 0
L45.4062 0
L45.4062 8.20312
Q42.5781 3.32812 38.25 0.953125
Q33.9375 -1.42188 27.875 -1.42188
Q17.9688 -1.42188 11.7344 6.48438
Q5.51562 14.4062 5.51562 27.2969
Q5.51562 40.1875 11.7344 48.0938
Q17.9688 56 27.875 56
Q33.9375 56 38.25 53.625
Q42.5781 51.2656 45.4062 46.3906
M14.7969 27.2969
Q14.7969 17.3906 18.875 11.75
Q22.9531 6.10938 30.0781 6.10938
Q37.2031 6.10938 41.2969 11.75
Q45.4062 17.3906 45.4062 27.2969
Q45.4062 37.2031 41.2969 42.8438
Q37.2031 48.4844 30.0781 48.4844
Q22.9531 48.4844 18.875 42.8438
Q14.7969 37.2031 14.7969 27.2969" id="BitstreamVeraSans-Roman-64"/>
     <path d="
M30.6094 48.3906
Q23.3906 48.3906 19.1875 42.75
Q14.9844 37.1094 14.9844 27.2969
Q14.9844 17.4844 19.1562 11.8438
Q23.3438 6.20312 30.6094 6.20312
Q37.7969 6.20312 41.9844 11.8594
Q46.1875 17.5312 46.1875 27.2969
Q46.1875 37.0156 41.9844 42.7031
Q37.7969 48.3906 30.6094 48.3906
M30.6094 56
Q42.3281 56 49.0156 48.375
Q55.7188 40.7656 55.7188 27.2969
Q55.7188 13.875 49.0156 6.21875
Q42.3281 -1.42188 30.6094 -1.42188
Q18.8438 -1.42188 12.1719 6.21875
Q5.51562 13.875 5.51562 27.2969
Q5.51562 40.7656 12.1719 48.375
Q18.8438 56 30.6094 56" id="BitstreamVeraSans-Roman-6f"/>
    </defs>
    <g transform="translate(260.29125 38.2)scale(0.144 -0.144)">
     <use xlink:href="#BitstreamVeraSans-Roman-68"/>
     <use x="63.37890625" xlink:href="#BitstreamVeraSans-Roman-65"/>
     <use x="124.90234375" xlink:href="#BitstreamVeraSans-Roman-61"/>
     <use x="186.181640625" xlink:href="#BitstreamVeraSans-Roman-64"/>
     <use x="249.658203125" xlink:href="#BitstreamVeraSans-Roman-6e"/>
     <use x="313.037109375" xlink:href="#BitstreamVeraSans-Roman-6f"/>
     <use x="374.21875" xlink:href="#BitstreamVeraSans-Roman-64"/>
     <use x="437.6953125" xlink:href="#BitstreamVeraSans-Roman-65"/>
    </g>
   </g>
  </g>
 </g>
 <defs>
  <clipPath id="pcb2bf987bf">
   <rect height="302.4" width="446.4" x="72.0" y="43.2"/>
  </clipPath>
 </defs>
</svg>
