<?xml version="1.0" encoding="utf-8" standalone="no"?>
<!DOCTYPE svg PUBLIC "-//W3C//DTD SVG 1.1//EN"
  "http://www.w3.org/Graphics/SVG/1.1/DTD/svg11.dtd">
<!-- Created with matplotlib (http://matplotlib.org/) -->
<svg height="432pt" version="1.1" viewBox="0 0 576 432" width="576pt" xmlns="http://www.w3.org/2000/svg" xmlns:xlink="http://www.w3.org/1999/xlink">
 <defs>
  <style type="text/css">
*{stroke-linecap:butt;stroke-linejoin:round;}
  </style>
 </defs>
 <g id="figure_1">
  <g id="patch_1">
   <path d="
M0 432
L576 432
L576 0
L0 0
z
" style="fill:#ffffff;"/>
  </g>
  <g id="axes_1">
   <g id="patch_2">
    <path d="
M72 345.6
L518.4 345.6
L518.4 43.2
L72 43.2
z
" style="fill:#ffffff;"/>
   </g>
   <g id="line2d_1">
    <path clip-path="url(#pcb2bf987bf)" d="
M72 230.138
L72.6166 238.385
L73.2331 199.898
L73.8497 235.636
L74.4663 213.644
L75.0829 232.887
L75.6994 205.396
L76.316 235.636
L76.9326 232.887
L77.5492 232.887
L78.1657 197.149
L78.7823 238.385
L79.3989 232.887
L80.0155 235.636
L80.632 205.396
L81.2486 241.135
L81.8652 230.138
L82.4818 232.887
L83.0983 232.887
L83.7149 235.636
L84.948 235.636
L85.5646 230.138
L86.1812 238.385
L86.7978 230.138
L87.4143 238.385
L88.0309 202.647
L88.6475 238.385
L89.2641 235.636
L89.8806 238.385
L90.4972 199.898
L91.1138 235.636
L91.7304 227.389
L92.3469 238.385
L92.9635 197.149
L93.5801 238.385
L94.1967 230.138
L94.8132 235.636
L95.4305 208.145
L96.0464 238.385
L96.6629 235.636
L97.8961 235.636
L98.5127 238.385
L99.1292 230.138
L99.7458 238.385
L100.362 232.887
L100.979 235.636
L101.596 227.389
L102.212 235.636
L102.829 227.389
L103.445 235.636
L104.678 235.636
L105.295 199.898
L105.912 230.138
L106.528 235.636
L107.145 232.887
L107.762 197.149
L108.378 232.887
L108.994 227.389
L109.611 238.385
L110.228 199.898
L110.844 232.887
L111.461 232.887
L112.077 235.636
L112.694 202.647
L113.31 235.636
L113.927 230.138
L114.544 235.636
L115.16 202.647
L115.777 235.636
L116.393 230.138
L117.01 232.887
L117.627 202.647
L118.243 235.636
L118.86 238.385
L119.476 235.636
L120.093 210.895
L120.709 238.385
L121.326 235.636
L121.942 230.138
L122.559 208.145
L123.176 238.385
L124.409 238.385
L125.025 208.145
L125.642 235.636
L126.258 235.636
L126.875 232.887
L127.492 205.396
L128.108 232.887
L128.725 232.887
L129.341 235.636
L129.958 205.396
L130.574 235.636
L131.191 232.887
L131.808 238.385
L132.424 199.898
L133.041 232.887
L134.274 227.389
L134.891 202.647
L135.507 232.887
L136.74 232.887
L137.357 224.64
L137.973 230.138
L138.591 230.138
L139.207 232.887
L139.823 227.389
L140.44 235.636
L141.057 232.887
L141.674 235.636
L142.289 205.396
L142.906 235.636
L143.523 230.138
L144.139 241.135
L144.756 210.895
L145.372 241.135
L145.989 238.385
L146.605 241.135
L147.222 202.647
L147.839 241.135
L148.455 235.636
L149.072 246.633
L149.688 213.644
L150.305 243.884
L150.921 243.884
L151.538 246.633
L152.155 241.135
L152.771 246.633
L153.388 232.887
L154.004 243.884
L154.621 208.145
L155.237 246.633
L156.471 246.633
L157.087 208.145
L157.704 243.884
L158.32 241.135
L158.937 246.633
L159.553 213.644
L160.17 246.633
L160.787 241.135
L161.403 243.884
L162.02 205.396
L162.636 243.884
L163.869 243.884
L164.486 210.895
L165.103 243.884
L166.336 243.884
L166.952 208.145
L167.569 241.135
L168.185 235.636
L168.802 241.135
L169.419 202.647
L170.035 241.135
L170.652 232.887
L171.268 241.135
L171.885 208.145
L172.502 241.135
L173.118 235.636
L173.735 243.884
L174.351 205.396
L174.968 241.135
L175.584 235.636
L176.201 246.633
L176.818 202.647
L177.435 243.884
L178.051 241.135
L178.667 243.884
L179.284 205.396
L179.901 241.135
L180.517 235.636
L181.134 246.633
L181.75 205.396
L182.367 241.135
L182.983 238.385
L183.6 243.884
L184.216 213.644
L184.833 243.884
L185.45 235.636
L186.066 246.633
L186.683 213.644
L187.299 241.135
L187.916 232.887
L188.532 241.135
L189.149 213.644
L189.766 241.135
L190.382 238.385
L190.999 238.385
L191.615 210.895
L192.232 238.385
L192.848 232.887
L193.465 241.135
L194.082 202.647
L194.698 238.385
L195.315 235.636
L195.931 238.385
L196.548 205.396
L197.164 241.135
L197.781 230.138
L198.398 241.135
L199.014 202.647
L199.631 241.135
L200.247 235.636
L200.864 241.135
L201.48 202.647
L202.097 241.135
L202.714 238.385
L203.33 238.385
L203.947 210.895
L204.563 238.385
L205.18 235.636
L205.796 238.385
L206.413 216.393
L207.03 243.884
L207.646 238.385
L208.263 246.633
L208.879 210.895
L209.496 249.382
L210.112 243.884
L210.729 243.884
L211.346 216.393
L211.962 246.633
L212.579 243.884
L213.195 252.131
L213.812 213.644
L214.429 249.382
L215.045 246.633
L215.662 249.382
L216.278 243.884
L216.895 246.633
L217.511 238.385
L218.128 246.633
L218.745 219.142
L219.361 243.884
L219.978 246.633
L220.594 246.633
L221.211 219.142
L221.827 246.633
L222.444 243.884
L223.061 249.382
L223.677 216.393
L224.294 249.382
L224.91 238.385
L225.527 246.633
L226.143 205.396
L226.76 246.633
L227.993 246.633
L228.61 221.891
L229.226 249.382
L230.459 249.382
L231.077 208.145
L231.693 246.633
L232.309 241.135
L232.926 246.633
L233.542 219.142
L234.159 246.633
L234.775 241.135
L235.392 246.633
L236.009 219.142
L236.625 246.633
L237.242 235.636
L237.858 246.633
L238.476 210.895
L239.091 243.884
L239.708 238.385
L240.325 243.884
L240.941 213.644
L241.558 241.135
L242.174 232.887
L242.791 241.135
L243.407 213.644
L244.024 243.884
L244.641 238.385
L245.257 246.633
L245.874 208.145
L246.49 243.884
L247.107 235.636
L247.723 241.135
L248.34 208.145
L248.957 241.135
L249.573 235.636
L250.19 241.135
L250.806 213.644
L251.423 243.884
L252.04 232.887
L252.656 241.135
L253.273 208.145
L253.889 241.135
L254.506 230.138
L255.122 241.135
L255.74 208.145
L256.356 238.385
L256.972 232.887
L257.589 241.135
L258.205 205.396
L258.822 235.636
L259.438 241.135
L260.055 241.135
L260.672 216.393
L261.288 241.135
L261.905 235.636
L262.521 238.385
L263.138 199.898
L263.754 241.135
L264.371 235.636
L264.988 238.385
L265.604 208.145
L266.221 246.633
L266.837 243.884
L267.454 246.633
L268.07 210.895
L268.687 249.382
L269.304 246.633
L269.92 246.633
L270.537 213.644
L271.153 246.633
L271.77 241.135
L272.386 249.382
L273.004 208.145
L273.62 249.382
L274.236 246.633
L274.853 252.131
L275.469 238.385
L276.086 246.633
L276.702 241.135
L277.319 249.382
L277.936 243.884
L278.552 246.633
L279.169 241.135
L279.785 252.131
L280.402 243.884
L281.018 246.633
L281.635 246.633
L282.868 241.135
L283.485 246.633
L284.101 243.884
L284.718 246.633
L285.334 243.884
L285.951 249.382
L286.568 238.385
L287.184 246.633
L287.801 213.644
L288.417 246.633
L289.034 243.884
L289.65 246.633
L290.267 213.644
L290.884 249.382
L291.5 241.135
L292.117 249.382
L292.733 210.895
L293.35 249.382
L293.967 241.135
L294.584 249.382
L295.2 216.393
L295.816 243.884
L296.433 246.633
L297.049 243.884
L297.666 205.396
L298.283 243.884
L298.899 238.385
L299.516 243.884
L300.132 213.644
L300.749 243.884
L301.365 241.135
L301.982 241.135
L302.599 199.898
L303.215 241.135
L304.448 241.135
L305.065 210.895
L305.681 230.138
L306.298 241.135
L306.915 243.884
L307.532 197.149
L308.148 241.135
L308.764 232.887
L309.381 238.385
L309.997 208.145
L310.614 241.135
L311.231 238.385
L311.847 241.135
L312.464 205.396
L313.08 238.385
L313.697 230.138
L314.313 241.135
L314.93 210.895
L315.547 241.135
L316.163 230.138
L316.78 241.135
L317.396 205.396
L318.013 241.135
L318.629 235.636
L319.246 238.385
L319.863 199.898
L320.479 238.385
L321.096 230.138
L321.712 241.135
L322.329 208.145
L322.945 238.385
L323.562 235.636
L324.179 238.385
L324.795 205.396
L325.412 243.884
L326.029 238.385
L326.645 246.633
L327.261 213.644
L327.878 243.884
L329.111 243.884
L329.728 210.895
L330.344 243.884
L330.961 241.135
L331.578 241.135
L332.194 205.396
L332.811 243.884
L333.427 241.135
L334.044 246.633
L334.661 208.145
L335.277 249.382
L335.894 241.135
L336.51 246.633
L337.127 210.895
L337.743 241.135
L338.36 235.636
L338.976 243.884
L339.593 205.396
L340.21 241.135
L340.826 246.633
L341.443 246.633
L342.059 210.895
L342.676 243.884
L343.292 241.135
L343.909 246.633
L344.526 205.396
L345.142 243.884
L345.759 238.385
L346.375 249.382
L346.992 210.895
L347.608 243.884
L348.842 249.382
L349.458 208.145
L350.075 246.633
L351.308 246.633
L351.924 210.895
L352.541 243.884
L353.158 238.385
L353.774 243.884
L354.391 216.393
L355.007 238.385
L355.624 235.636
L356.24 241.135
L356.858 202.647
L357.474 235.636
L358.09 232.887
L358.707 238.385
L359.323 194.4
L359.94 232.887
L360.556 230.138
L361.173 235.636
L361.79 205.396
L362.407 227.389
L363.639 232.887
L364.256 208.145
L364.872 235.636
L365.489 230.138
L366.106 238.385
L366.722 199.898
L367.339 232.887
L367.955 235.636
L368.572 227.389
L369.188 205.396
L369.805 232.887
L370.422 230.138
L371.038 235.636
L371.655 202.647
L372.271 232.887
L372.888 230.138
L373.505 230.138
L374.121 202.647
L374.738 232.887
L375.971 232.887
L376.587 197.149
L377.204 235.636
L377.821 227.389
L378.437 235.636
L379.054 208.145
L379.67 230.138
L380.287 224.64
L380.903 235.636
L381.52 208.145
L382.137 230.138
L382.753 230.138
L383.37 235.636
L383.987 202.647
L384.603 238.385
L385.219 235.636
L385.836 238.385
L386.453 208.145
L387.069 243.884
L387.686 235.636
L388.302 246.633
L388.919 208.145
L389.535 243.884
L390.152 241.135
L390.769 243.884
L391.385 208.145
L392.002 246.633
L393.235 246.633
L393.851 208.145
L394.468 243.884
L395.701 243.884
L396.318 210.895
L396.934 243.884
L397.551 235.636
L398.167 243.884
L398.784 216.393
L399.401 241.135
L400.017 243.884
L400.634 243.884
L401.25 208.145
L401.867 243.884
L402.483 238.385
L403.1 243.884
L403.717 210.895
L404.333 241.135
L404.95 238.385
L405.566 243.884
L406.183 208.145
L406.799 241.135
L407.416 238.385
L408.033 243.884
L408.649 216.393
L409.266 249.382
L409.882 243.884
L410.499 243.884
L411.116 210.895
L411.732 246.633
L412.349 232.887
L412.965 243.884
L413.582 210.895
L414.199 230.138
L414.815 235.636
L415.432 238.385
L416.048 205.396
L416.665 232.887
L417.281 232.887
L417.898 230.138
L418.514 213.644
L419.131 235.636
L419.748 230.138
L420.364 235.636
L420.981 227.389
L421.597 235.636
L422.214 232.887
L422.83 232.887
L423.447 205.396
L424.064 230.138
L424.68 227.389
L425.297 235.636
L425.913 197.149
L426.53 232.887
L427.146 224.64
L427.763 235.636
L428.38 194.4
L428.996 232.887
L429.613 227.389
L430.229 230.138
L430.846 208.145
L431.462 232.887
L432.079 230.138
L432.696 232.887
L433.312 199.898
L433.929 221.891
L434.545 224.64
L435.162 230.138
L435.778 191.651
L436.395 232.887
L437.012 230.138
L437.628 230.138
L438.245 197.149
L438.861 230.138
L439.478 224.64
L440.094 230.138
L440.712 188.902
L441.328 227.389
L441.944 230.138
L442.561 230.138
L443.177 199.898
L443.794 232.887
L444.41 224.64
L445.027 230.138
L445.644 205.396
L446.26 232.887
L446.877 232.887
L447.493 235.636
L448.11 208.145
L448.726 243.884
L449.343 241.135
L449.96 241.135
L450.576 208.145
L451.193 246.633
L451.809 241.135
L452.426 246.633
L453.043 208.145
L453.659 246.633
L454.276 238.385
L454.892 241.135
L455.509 208.145
L456.126 241.135
L456.742 243.884
L457.359 243.884
L457.975 213.644
L458.592 246.633
L459.208 241.135
L459.825 246.633
L460.441 213.644
L461.058 243.884
L461.675 243.884
L462.291 246.633
L462.908 216.393
L463.524 246.633
L464.141 210.895
L464.757 246.633
L465.375 205.396
L465.991 246.633
L466.607 238.385
L467.224 243.884
L467.84 208.145
L468.457 235.636
L469.69 235.636
L470.307 208.145
L470.923 232.887
L471.54 227.389
L472.156 232.887
L472.773 202.647
L473.389 232.887
L474.623 232.887
L475.239 194.4
L475.856 232.887
L476.472 230.138
L477.089 230.138
L477.706 205.396
L478.322 230.138
L478.939 230.138
L479.555 227.389
L480.172 202.647
L480.788 227.389
L481.405 224.64
L482.021 232.887
L482.638 202.647
L483.255 230.138
L483.871 227.389
L484.488 230.138
L485.104 199.898
L485.721 227.389
L486.337 227.389
L486.954 230.138
L487.571 202.647
L488.187 230.138
L488.804 227.389
L489.42 230.138
L490.037 197.149
L490.654 230.138
L491.27 227.389
L491.887 230.138
L492.503 199.898
L493.12 227.389
L493.736 224.64
L494.353 230.138
L494.97 199.898
L495.586 230.138
L496.203 227.389
L496.819 230.138
L497.436 191.651
L498.052 230.138
L498.67 224.64
L499.286 230.138
L499.902 191.651
L500.519 227.389
L501.135 227.389
L501.752 230.138
L502.368 194.4
L502.985 230.138
L503.602 227.389
L504.218 230.138
L504.835 205.396
L505.451 224.64
L506.068 224.64
L506.684 232.887
L507.301 191.651
L507.918 230.138
L508.534 227.389
L509.151 230.138
L509.767 202.647
L510.384 227.389
L511 221.891
L511.617 224.64
L512.234 202.647
L512.85 224.64
L513.467 219.142
L514.083 224.64
L514.7 191.651
L515.316 224.64
L515.933 219.142
L516.55 221.891
L517.166 194.4
L517.783 224.64
L518.4 213.644
L518.4 213.644" style="fill:none;stroke:#0000ff;stroke-linecap:square;"/>
   </g>
   <g id="line2d_2">
    <path clip-path="url(#pcb2bf987bf)" d="
M72 111.927
L518.4 111.927" style="fill:none;stroke:#ffa500;stroke-linecap:square;"/>
   </g>
   <g id="line2d_3">
    <path clip-path="url(#pcb2bf987bf)" d="
M72 84.4364
L518.4 84.4364" style="fill:none;stroke:#ff0000;stroke-linecap:square;stroke-width:2;"/>
   </g>
   <g id="patch_3">
    <path d="
M72 43.2
L518.4 43.2" style="fill:none;stroke:#000000;stroke-linecap:square;stroke-linejoin:miter;"/>
   </g>
   <g id="patch_4">
    <path d="
M518.4 345.6
L518.4 43.2" style="fill:none;stroke:#000000;stroke-linecap:square;stroke-linejoin:miter;"/>
   </g>
   <g id="patch_5">
    <path d="
M72 345.6
L518.4 345.6" style="fill:none;stroke:#000000;stroke-linecap:square;stroke-linejoin:miter;"/>
   </g>
   <g id="patch_6">
    <path d="
M72 345.6
L72 43.2" style="fill:none;stroke:#000000;stroke-linecap:square;stroke-linejoin:miter;"/>
   </g>
   <g id="matplotlib.axis_1">
    <g id="xtick_1">
     <g id="line2d_4">
      <path clip-path="url(#pcb2bf987bf)" d="
M131.19 345.6
L131.19 43.2" style="fill:none;stroke:#000000;stroke-dasharray:1.000000,3.000000;stroke-dashoffset:0.0;stroke-width:0.5;"/>
     </g>
     <g id="line2d_5">
      <defs>
       <path d="
M0 0
L0 -4" id="m93b0483c22" style="stroke:#000000;stroke-width:0.5;"/>
      </defs>
      <g>
       <use style="stroke:#000000;stroke-width:0.5;" x="131.190384299" xlink:href="#m93b0483c22" y="345.6"/>
      </g>
     </g>
     <g id="line2d_6">
      <defs>
       <path d="
M0 0
L0 4" id="m741efc42ff" style="stroke:#000000;stroke-width:0.5;"/>
      </defs>
      <g>
       <use style="stroke:#000000;stroke-width:0.5;" x="131.190384299" xlink:href="#m741efc42ff" y="43.2"/>
      </g>
     </g>
     <g id="text_1">
      <!-- Oct05 -->
      <defs>
       <path d="
M39.4062 66.2188
Q28.6562 66.2188 22.3281 58.2031
Q16.0156 50.2031 16.0156 36.375
Q16.0156 22.6094 22.3281 14.5938
Q28.6562 6.59375 39.4062 6.59375
Q50.1406 6.59375 56.4219 14.5938
Q62.7031 22.6094 62.7031 36.375
Q62.7031 50.2031 56.4219 58.2031
Q50.1406 66.2188 39.4062 66.2188
M39.4062 74.2188
Q54.7344 74.2188 63.9062 63.9375
Q73.0938 53.6562 73.0938 36.375
Q73.0938 19.1406 63.9062 8.85938
Q54.7344 -1.42188 39.4062 -1.42188
Q24.0312 -1.42188 14.8125 8.82812
Q5.60938 19.0938 5.60938 36.375
Q5.60938 53.6562 14.8125 63.9375
Q24.0312 74.2188 39.4062 74.2188" id="BitstreamVeraSans-Roman-4f"/>
       <path d="
M18.3125 70.2188
L18.3125 54.6875
L36.8125 54.6875
L36.8125 47.7031
L18.3125 47.7031
L18.3125 18.0156
Q18.3125 11.3281 20.1406 9.42188
Q21.9688 7.51562 27.5938 7.51562
L36.8125 7.51562
L36.8125 0
L27.5938 0
Q17.1875 0 13.2344 3.875
Q9.28125 7.76562 9.28125 18.0156
L9.28125 47.7031
L2.6875 47.7031
L2.6875 54.6875
L9.28125 54.6875
L9.28125 70.2188
z
" id="BitstreamVeraSans-Roman-74"/>
       <path d="
M31.7812 66.4062
Q24.1719 66.4062 20.3281 58.9062
Q16.5 51.4219 16.5 36.375
Q16.5 21.3906 20.3281 13.8906
Q24.1719 6.39062 31.7812 6.39062
Q39.4531 6.39062 43.2812 13.8906
Q47.125 21.3906 47.125 36.375
Q47.125 51.4219 43.2812 58.9062
Q39.4531 66.4062 31.7812 66.4062
M31.7812 74.2188
Q44.0469 74.2188 50.5156 64.5156
Q56.9844 54.8281 56.9844 36.375
Q56.9844 17.9688 50.5156 8.26562
Q44.0469 -1.42188 31.7812 -1.42188
Q19.5312 -1.42188 13.0625 8.26562
Q6.59375 17.9688 6.59375 36.375
Q6.59375 54.8281 13.0625 64.5156
Q19.5312 74.2188 31.7812 74.2188" id="BitstreamVeraSans-Roman-30"/>
       <path d="
M48.7812 52.5938
L48.7812 44.1875
Q44.9688 46.2969 41.1406 47.3438
Q37.3125 48.3906 33.4062 48.3906
Q24.6562 48.3906 19.8125 42.8438
Q14.9844 37.3125 14.9844 27.2969
Q14.9844 17.2812 19.8125 11.7344
Q24.6562 6.20312 33.4062 6.20312
Q37.3125 6.20312 41.1406 7.25
Q44.9688 8.29688 48.7812 10.4062
L48.7812 2.09375
Q45.0156 0.34375 40.9844 -0.53125
Q36.9688 -1.42188 32.4219 -1.42188
Q20.0625 -1.42188 12.7812 6.34375
Q5.51562 14.1094 5.51562 27.2969
Q5.51562 40.6719 12.8594 48.3281
Q20.2188 56 33.0156 56
Q37.1562 56 41.1094 55.1406
Q45.0625 54.2969 48.7812 52.5938" id="BitstreamVeraSans-Roman-63"/>
       <path d="
M10.7969 72.9062
L49.5156 72.9062
L49.5156 64.5938
L19.8281 64.5938
L19.8281 46.7344
Q21.9688 47.4688 24.1094 47.8281
Q26.2656 48.1875 28.4219 48.1875
Q40.625 48.1875 47.75 41.5
Q54.8906 34.8125 54.8906 23.3906
Q54.8906 11.625 47.5625 5.09375
Q40.2344 -1.42188 26.9062 -1.42188
Q22.3125 -1.42188 17.5469 -0.640625
Q12.7969 0.140625 7.71875 1.70312
L7.71875 11.625
Q12.1094 9.23438 16.7969 8.0625
Q21.4844 6.89062 26.7031 6.89062
Q35.1562 6.89062 40.0781 11.3281
Q45.0156 15.7656 45.0156 23.3906
Q45.0156 31 40.0781 35.4375
Q35.1562 39.8906 26.7031 39.8906
Q22.75 39.8906 18.8125 39.0156
Q14.8906 38.1406 10.7969 36.2812
z
" id="BitstreamVeraSans-Roman-35"/>
      </defs>
      <g transform="translate(100.240065512 374.645277885)rotate(-30.0)scale(0.12 -0.12)">
       <use xlink:href="#BitstreamVeraSans-Roman-4f"/>
       <use x="78.7109375" xlink:href="#BitstreamVeraSans-Roman-63"/>
       <use x="133.69140625" xlink:href="#BitstreamVeraSans-Roman-74"/>
       <use x="172.900390625" xlink:href="#BitstreamVeraSans-Roman-30"/>
       <use x="236.5234375" xlink:href="#BitstreamVeraSans-Roman-35"/>
      </g>
     </g>
    </g>
    <g id="xtick_2">
     <g id="line2d_7">
      <path clip-path="url(#pcb2bf987bf)" d="
M190.381 345.6
L190.381 43.2" style="fill:none;stroke:#000000;stroke-dasharray:1.000000,3.000000;stroke-dashoffset:0.0;stroke-width:0.5;"/>
     </g>
     <g id="line2d_8">
      <g>
       <use style="stroke:#000000;stroke-width:0.5;" x="190.381453685" xlink:href="#m93b0483c22" y="345.6"/>
      </g>
     </g>
     <g id="line2d_9">
      <g>
       <use style="stroke:#000000;stroke-width:0.5;" x="190.381453685" xlink:href="#m741efc42ff" y="43.2"/>
      </g>
     </g>
     <g id="text_2">
      <!-- Oct06 -->
      <defs>
       <path d="
M33.0156 40.375
Q26.375 40.375 22.4844 35.8281
Q18.6094 31.2969 18.6094 23.3906
Q18.6094 15.5312 22.4844 10.9531
Q26.375 6.39062 33.0156 6.39062
Q39.6562 6.39062 43.5312 10.9531
Q47.4062 15.5312 47.4062 23.3906
Q47.4062 31.2969 43.5312 35.8281
Q39.6562 40.375 33.0156 40.375
M52.5938 71.2969
L52.5938 62.3125
Q48.875 64.0625 45.0938 64.9844
Q41.3125 65.9219 37.5938 65.9219
Q27.8281 65.9219 22.6719 59.3281
Q17.5312 52.7344 16.7969 39.4062
Q19.6719 43.6562 24.0156 45.9219
Q28.375 48.1875 33.5938 48.1875
Q44.5781 48.1875 50.9531 41.5156
Q57.3281 34.8594 57.3281 23.3906
Q57.3281 12.1562 50.6875 5.35938
Q44.0469 -1.42188 33.0156 -1.42188
Q20.3594 -1.42188 13.6719 8.26562
Q6.98438 17.9688 6.98438 36.375
Q6.98438 53.6562 15.1875 63.9375
Q23.3906 74.2188 37.2031 74.2188
Q40.9219 74.2188 44.7031 73.4844
Q48.4844 72.75 52.5938 71.2969" id="BitstreamVeraSans-Roman-36"/>
      </defs>
      <g transform="translate(159.177822469 374.791527885)rotate(-30.0)scale(0.12 -0.12)">
       <use xlink:href="#BitstreamVeraSans-Roman-4f"/>
       <use x="78.7109375" xlink:href="#BitstreamVeraSans-Roman-63"/>
       <use x="133.69140625" xlink:href="#BitstreamVeraSans-Roman-74"/>
       <use x="172.900390625" xlink:href="#BitstreamVeraSans-Roman-30"/>
       <use x="236.5234375" xlink:href="#BitstreamVeraSans-Roman-36"/>
      </g>
     </g>
    </g>
    <g id="xtick_3">
     <g id="line2d_10">
      <path clip-path="url(#pcb2bf987bf)" d="
M249.573 345.6
L249.573 43.2" style="fill:none;stroke:#000000;stroke-dasharray:1.000000,3.000000;stroke-dashoffset:0.0;stroke-width:0.5;"/>
     </g>
     <g id="line2d_11">
      <g>
       <use style="stroke:#000000;stroke-width:0.5;" x="249.572523065" xlink:href="#m93b0483c22" y="345.6"/>
      </g>
     </g>
     <g id="line2d_12">
      <g>
       <use style="stroke:#000000;stroke-width:0.5;" x="249.572523065" xlink:href="#m741efc42ff" y="43.2"/>
      </g>
     </g>
     <g id="text_3">
      <!-- Oct07 -->
      <defs>
       <path d="
M8.20312 72.9062
L55.0781 72.9062
L55.0781 68.7031
L28.6094 0
L18.3125 0
L43.2188 64.5938
L8.20312 64.5938
z
" id="BitstreamVeraSans-Roman-37"/>
      </defs>
      <g transform="translate(218.602718707 374.656527885)rotate(-30.0)scale(0.12 -0.12)">
       <use xlink:href="#BitstreamVeraSans-Roman-4f"/>
       <use x="78.7109375" xlink:href="#BitstreamVeraSans-Roman-63"/>
       <use x="133.69140625" xlink:href="#BitstreamVeraSans-Roman-74"/>
       <use x="172.900390625" xlink:href="#BitstreamVeraSans-Roman-30"/>
       <use x="236.5234375" xlink:href="#BitstreamVeraSans-Roman-37"/>
      </g>
     </g>
    </g>
    <g id="xtick_4">
     <g id="line2d_13">
      <path clip-path="url(#pcb2bf987bf)" d="
M308.764 345.6
L308.764 43.2" style="fill:none;stroke:#000000;stroke-dasharray:1.000000,3.000000;stroke-dashoffset:0.0;stroke-width:0.5;"/>
     </g>
     <g id="line2d_14">
      <g>
       <use style="stroke:#000000;stroke-width:0.5;" x="308.763592444" xlink:href="#m93b0483c22" y="345.6"/>
      </g>
     </g>
     <g id="line2d_15">
      <g>
       <use style="stroke:#000000;stroke-width:0.5;" x="308.763592444" xlink:href="#m741efc42ff" y="43.2"/>
      </g>
     </g>
     <g id="text_4">
      <!-- Oct08 -->
      <defs>
       <path d="
M31.7812 34.625
Q24.75 34.625 20.7188 30.8594
Q16.7031 27.0938 16.7031 20.5156
Q16.7031 13.9219 20.7188 10.1562
Q24.75 6.39062 31.7812 6.39062
Q38.8125 6.39062 42.8594 10.1719
Q46.9219 13.9688 46.9219 20.5156
Q46.9219 27.0938 42.8906 30.8594
Q38.875 34.625 31.7812 34.625
M21.9219 38.8125
Q15.5781 40.375 12.0312 44.7188
Q8.5 49.0781 8.5 55.3281
Q8.5 64.0625 14.7188 69.1406
Q20.9531 74.2188 31.7812 74.2188
Q42.6719 74.2188 48.875 69.1406
Q55.0781 64.0625 55.0781 55.3281
Q55.0781 49.0781 51.5312 44.7188
Q48 40.375 41.7031 38.8125
Q48.8281 37.1562 52.7969 32.3125
Q56.7812 27.4844 56.7812 20.5156
Q56.7812 9.90625 50.3125 4.23438
Q43.8438 -1.42188 31.7812 -1.42188
Q19.7344 -1.42188 13.25 4.23438
Q6.78125 9.90625 6.78125 20.5156
Q6.78125 27.4844 10.7812 32.3125
Q14.7969 37.1562 21.9219 38.8125
M18.3125 54.3906
Q18.3125 48.7344 21.8438 45.5625
Q25.3906 42.3906 31.7812 42.3906
Q38.1406 42.3906 41.7188 45.5625
Q45.3125 48.7344 45.3125 54.3906
Q45.3125 60.0625 41.7188 63.2344
Q38.1406 66.4062 31.7812 66.4062
Q25.3906 66.4062 21.8438 63.2344
Q18.3125 60.0625 18.3125 54.3906" id="BitstreamVeraSans-Roman-38"/>
      </defs>
      <g transform="translate(277.616794145 374.758715385)rotate(-30.0)scale(0.12 -0.12)">
       <use xlink:href="#BitstreamVeraSans-Roman-4f"/>
       <use x="78.7109375" xlink:href="#BitstreamVeraSans-Roman-63"/>
       <use x="133.69140625" xlink:href="#BitstreamVeraSans-Roman-74"/>
       <use x="172.900390625" xlink:href="#BitstreamVeraSans-Roman-30"/>
       <use x="236.5234375" xlink:href="#BitstreamVeraSans-Roman-38"/>
      </g>
     </g>
    </g>
    <g id="xtick_5">
     <g id="line2d_16">
      <path clip-path="url(#pcb2bf987bf)" d="
M367.955 345.6
L367.955 43.2" style="fill:none;stroke:#000000;stroke-dasharray:1.000000,3.000000;stroke-dashoffset:0.0;stroke-width:0.5;"/>
     </g>
     <g id="line2d_17">
      <g>
       <use style="stroke:#000000;stroke-width:0.5;" x="367.954661831" xlink:href="#m93b0483c22" y="345.6"/>
      </g>
     </g>
     <g id="line2d_18">
      <g>
       <use style="stroke:#000000;stroke-width:0.5;" x="367.954661831" xlink:href="#m741efc42ff" y="43.2"/>
      </g>
     </g>
     <g id="text_5">
      <!-- Oct09 -->
      <defs>
       <path d="
M10.9844 1.51562
L10.9844 10.5
Q14.7031 8.73438 18.5 7.8125
Q22.3125 6.89062 25.9844 6.89062
Q35.75 6.89062 40.8906 13.4531
Q46.0469 20.0156 46.7812 33.4062
Q43.9531 29.2031 39.5938 26.9531
Q35.25 24.7031 29.9844 24.7031
Q19.0469 24.7031 12.6719 31.3125
Q6.29688 37.9375 6.29688 49.4219
Q6.29688 60.6406 12.9375 67.4219
Q19.5781 74.2188 30.6094 74.2188
Q43.2656 74.2188 49.9219 64.5156
Q56.5938 54.8281 56.5938 36.375
Q56.5938 19.1406 48.4062 8.85938
Q40.2344 -1.42188 26.4219 -1.42188
Q22.7031 -1.42188 18.8906 -0.6875
Q15.0938 0.046875 10.9844 1.51562
M30.6094 32.4219
Q37.25 32.4219 41.125 36.9531
Q45.0156 41.5 45.0156 49.4219
Q45.0156 57.2812 41.125 61.8438
Q37.25 66.4062 30.6094 66.4062
Q23.9688 66.4062 20.0938 61.8438
Q16.2188 57.2812 16.2188 49.4219
Q16.2188 41.5 20.0938 36.9531
Q23.9688 32.4219 30.6094 32.4219" id="BitstreamVeraSans-Roman-39"/>
      </defs>
      <g transform="translate(336.827349103 374.747465385)rotate(-30.0)scale(0.12 -0.12)">
       <use xlink:href="#BitstreamVeraSans-Roman-4f"/>
       <use x="78.7109375" xlink:href="#BitstreamVeraSans-Roman-63"/>
       <use x="133.69140625" xlink:href="#BitstreamVeraSans-Roman-74"/>
       <use x="172.900390625" xlink:href="#BitstreamVeraSans-Roman-30"/>
       <use x="236.5234375" xlink:href="#BitstreamVeraSans-Roman-39"/>
      </g>
     </g>
    </g>
    <g id="xtick_6">
     <g id="line2d_19">
      <path clip-path="url(#pcb2bf987bf)" d="
M427.146 345.6
L427.146 43.2" style="fill:none;stroke:#000000;stroke-dasharray:1.000000,3.000000;stroke-dashoffset:0.0;stroke-width:0.5;"/>
     </g>
     <g id="line2d_20">
      <g>
       <use style="stroke:#000000;stroke-width:0.5;" x="427.145731211" xlink:href="#m93b0483c22" y="345.6"/>
      </g>
     </g>
     <g id="line2d_21">
      <g>
       <use style="stroke:#000000;stroke-width:0.5;" x="427.145731211" xlink:href="#m741efc42ff" y="43.2"/>
      </g>
     </g>
     <g id="text_6">
      <!-- Oct10 -->
      <defs>
       <path d="
M12.4062 8.29688
L28.5156 8.29688
L28.5156 63.9219
L10.9844 60.4062
L10.9844 69.3906
L28.4219 72.9062
L38.2812 72.9062
L38.2812 8.29688
L54.3906 8.29688
L54.3906 0
L12.4062 0
z
" id="BitstreamVeraSans-Roman-31"/>
      </defs>
      <g transform="translate(395.977823542 374.770902885)rotate(-30.0)scale(0.12 -0.12)">
       <use xlink:href="#BitstreamVeraSans-Roman-4f"/>
       <use x="78.7109375" xlink:href="#BitstreamVeraSans-Roman-63"/>
       <use x="133.69140625" xlink:href="#BitstreamVeraSans-Roman-74"/>
       <use x="172.900390625" xlink:href="#BitstreamVeraSans-Roman-31"/>
       <use x="236.5234375" xlink:href="#BitstreamVeraSans-Roman-30"/>
      </g>
     </g>
    </g>
    <g id="xtick_7">
     <g id="line2d_22">
      <path clip-path="url(#pcb2bf987bf)" d="
M486.337 345.6
L486.337 43.2" style="fill:none;stroke:#000000;stroke-dasharray:1.000000,3.000000;stroke-dashoffset:0.0;stroke-width:0.5;"/>
     </g>
     <g id="line2d_23">
      <g>
       <use style="stroke:#000000;stroke-width:0.5;" x="486.33680059" xlink:href="#m93b0483c22" y="345.6"/>
      </g>
     </g>
     <g id="line2d_24">
      <g>
       <use style="stroke:#000000;stroke-width:0.5;" x="486.33680059" xlink:href="#m741efc42ff" y="43.2"/>
      </g>
     </g>
     <g id="text_7">
      <!-- Oct11 -->
      <g transform="translate(455.438443328 374.615277885)rotate(-30.0)scale(0.12 -0.12)">
       <use xlink:href="#BitstreamVeraSans-Roman-4f"/>
       <use x="78.7109375" xlink:href="#BitstreamVeraSans-Roman-63"/>
       <use x="133.69140625" xlink:href="#BitstreamVeraSans-Roman-74"/>
       <use x="172.900390625" xlink:href="#BitstreamVeraSans-Roman-31"/>
       <use x="236.5234375" xlink:href="#BitstreamVeraSans-Roman-31"/>
      </g>
     </g>
    </g>
   </g>
   <g id="matplotlib.axis_2">
    <g id="ytick_1">
     <g id="line2d_25">
      <path clip-path="url(#pcb2bf987bf)" d="
M72 345.6
L518.4 345.6" style="fill:none;stroke:#000000;stroke-dasharray:1.000000,3.000000;stroke-dashoffset:0.0;stroke-width:0.5;"/>
     </g>
     <g id="line2d_26">
      <defs>
       <path d="
M0 0
L4 0" id="m728421d6d4" style="stroke:#000000;stroke-width:0.5;"/>
      </defs>
      <g>
       <use style="stroke:#000000;stroke-width:0.5;" x="72.0" xlink:href="#m728421d6d4" y="345.6"/>
      </g>
     </g>
     <g id="line2d_27">
      <defs>
       <path d="
M0 0
L-4 0" id="mcb0005524f" style="stroke:#000000;stroke-width:0.5;"/>
      </defs>
      <g>
       <use style="stroke:#000000;stroke-width:0.5;" x="518.4" xlink:href="#mcb0005524f" y="345.6"/>
      </g>
     </g>
     <g id="text_8">
      <!-- 0 -->
      <g transform="translate(61.953125 348.91125)scale(0.12 -0.12)">
       <use xlink:href="#BitstreamVeraSans-Roman-30"/>
      </g>
     </g>
    </g>
    <g id="ytick_2">
     <g id="line2d_28">
      <path clip-path="url(#pcb2bf987bf)" d="
M72 290.618
L518.4 290.618" style="fill:none;stroke:#000000;stroke-dasharray:1.000000,3.000000;stroke-dashoffset:0.0;stroke-width:0.5;"/>
     </g>
     <g id="line2d_29">
      <g>
       <use style="stroke:#000000;stroke-width:0.5;" x="72.0" xlink:href="#m728421d6d4" y="290.618181818"/>
      </g>
     </g>
     <g id="line2d_30">
      <g>
       <use style="stroke:#000000;stroke-width:0.5;" x="518.4" xlink:href="#mcb0005524f" y="290.618181818"/>
      </g>
     </g>
     <g id="text_9">
      <!-- 20 -->
      <defs>
       <path d="
M19.1875 8.29688
L53.6094 8.29688
L53.6094 0
L7.32812 0
L7.32812 8.29688
Q12.9375 14.1094 22.625 23.8906
Q32.3281 33.6875 34.8125 36.5312
Q39.5469 41.8438 41.4219 45.5312
Q43.3125 49.2188 43.3125 52.7812
Q43.3125 58.5938 39.2344 62.25
Q35.1562 65.9219 28.6094 65.9219
Q23.9688 65.9219 18.8125 64.3125
Q13.6719 62.7031 7.8125 59.4219
L7.8125 69.3906
Q13.7656 71.7812 18.9375 73
Q24.125 74.2188 28.4219 74.2188
Q39.75 74.2188 46.4844 68.5469
Q53.2188 62.8906 53.2188 53.4219
Q53.2188 48.9219 51.5312 44.8906
Q49.8594 40.875 45.4062 35.4062
Q44.1875 33.9844 37.6406 27.2188
Q31.1094 20.4531 19.1875 8.29688" id="BitstreamVeraSans-Roman-32"/>
      </defs>
      <g transform="translate(54.40625 293.929431818)scale(0.12 -0.12)">
       <use xlink:href="#BitstreamVeraSans-Roman-32"/>
       <use x="63.623046875" xlink:href="#BitstreamVeraSans-Roman-30"/>
      </g>
     </g>
    </g>
    <g id="ytick_3">
     <g id="line2d_31">
      <path clip-path="url(#pcb2bf987bf)" d="
M72 235.636
L518.4 235.636" style="fill:none;stroke:#000000;stroke-dasharray:1.000000,3.000000;stroke-dashoffset:0.0;stroke-width:0.5;"/>
     </g>
     <g id="line2d_32">
      <g>
       <use style="stroke:#000000;stroke-width:0.5;" x="72.0" xlink:href="#m728421d6d4" y="235.636363636"/>
      </g>
     </g>
     <g id="line2d_33">
      <g>
       <use style="stroke:#000000;stroke-width:0.5;" x="518.4" xlink:href="#mcb0005524f" y="235.636363636"/>
      </g>
     </g>
     <g id="text_10">
      <!-- 40 -->
      <defs>
       <path d="
M37.7969 64.3125
L12.8906 25.3906
L37.7969 25.3906
z

M35.2031 72.9062
L47.6094 72.9062
L47.6094 25.3906
L58.0156 25.3906
L58.0156 17.1875
L47.6094 17.1875
L47.6094 0
L37.7969 0
L37.7969 17.1875
L4.89062 17.1875
L4.89062 26.7031
z
" id="BitstreamVeraSans-Roman-34"/>
      </defs>
      <g transform="translate(54.11375 238.947613636)scale(0.12 -0.12)">
       <use xlink:href="#BitstreamVeraSans-Roman-34"/>
       <use x="63.623046875" xlink:href="#BitstreamVeraSans-Roman-30"/>
      </g>
     </g>
    </g>
    <g id="ytick_4">
     <g id="line2d_34">
      <path clip-path="url(#pcb2bf987bf)" d="
M72 180.655
L518.4 180.655" style="fill:none;stroke:#000000;stroke-dasharray:1.000000,3.000000;stroke-dashoffset:0.0;stroke-width:0.5;"/>
     </g>
     <g id="line2d_35">
      <g>
       <use style="stroke:#000000;stroke-width:0.5;" x="72.0" xlink:href="#m728421d6d4" y="180.654545455"/>
      </g>
     </g>
     <g id="line2d_36">
      <g>
       <use style="stroke:#000000;stroke-width:0.5;" x="518.4" xlink:href="#mcb0005524f" y="180.654545455"/>
      </g>
     </g>
     <g id="text_11">
      <!-- 60 -->
      <g transform="translate(54.365 183.965795455)scale(0.12 -0.12)">
       <use xlink:href="#BitstreamVeraSans-Roman-36"/>
       <use x="63.623046875" xlink:href="#BitstreamVeraSans-Roman-30"/>
      </g>
     </g>
    </g>
    <g id="ytick_5">
     <g id="line2d_37">
      <path clip-path="url(#pcb2bf987bf)" d="
M72 125.673
L518.4 125.673" style="fill:none;stroke:#000000;stroke-dasharray:1.000000,3.000000;stroke-dashoffset:0.0;stroke-width:0.5;"/>
     </g>
     <g id="line2d_38">
      <g>
       <use style="stroke:#000000;stroke-width:0.5;" x="72.0" xlink:href="#m728421d6d4" y="125.672727273"/>
      </g>
     </g>
     <g id="line2d_39">
      <g>
       <use style="stroke:#000000;stroke-width:0.5;" x="518.4" xlink:href="#mcb0005524f" y="125.672727273"/>
      </g>
     </g>
     <g id="text_12">
      <!-- 80 -->
      <g transform="translate(54.340625 128.983977273)scale(0.12 -0.12)">
       <use xlink:href="#BitstreamVeraSans-Roman-38"/>
       <use x="63.623046875" xlink:href="#BitstreamVeraSans-Roman-30"/>
      </g>
     </g>
    </g>
    <g id="ytick_6">
     <g id="line2d_40">
      <path clip-path="url(#pcb2bf987bf)" d="
M72 70.6909
L518.4 70.6909" style="fill:none;stroke:#000000;stroke-dasharray:1.000000,3.000000;stroke-dashoffset:0.0;stroke-width:0.5;"/>
     </g>
     <g id="line2d_41">
      <g>
       <use style="stroke:#000000;stroke-width:0.5;" x="72.0" xlink:href="#m728421d6d4" y="70.6909090909"/>
      </g>
     </g>
     <g id="line2d_42">
      <g>
       <use style="stroke:#000000;stroke-width:0.5;" x="518.4" xlink:href="#mcb0005524f" y="70.6909090909"/>
      </g>
     </g>
     <g id="text_13">
      <!-- 100 -->
      <g transform="translate(47.21 74.0021590909)scale(0.12 -0.12)">
       <use xlink:href="#BitstreamVeraSans-Roman-31"/>
       <use x="63.623046875" xlink:href="#BitstreamVeraSans-Roman-30"/>
       <use x="127.24609375" xlink:href="#BitstreamVeraSans-Roman-30"/>
      </g>
     </g>
    </g>
    <g id="text_14">
     <!-- temperature (C) -->
     <defs>
      <path id="BitstreamVeraSans-Roman-20"/>
      <path d="
M41.1094 46.2969
Q39.5938 47.1719 37.8125 47.5781
Q36.0312 48 33.8906 48
Q26.2656 48 22.1875 43.0469
Q18.1094 38.0938 18.1094 28.8125
L18.1094 0
L9.07812 0
L9.07812 54.6875
L18.1094 54.6875
L18.1094 46.1875
Q20.9531 51.1719 25.4844 53.5781
Q30.0312 56 36.5312 56
Q37.4531 56 38.5781 55.875
Q39.7031 55.7656 41.0625 55.5156
z
" id="BitstreamVeraSans-Roman-72"/>
      <path d="
M52 44.1875
Q55.375 50.25 60.0625 53.125
Q64.75 56 71.0938 56
Q79.6406 56 84.2812 50.0156
Q88.9219 44.0469 88.9219 33.0156
L88.9219 0
L79.8906 0
L79.8906 32.7188
Q79.8906 40.5781 77.0938 44.375
Q74.3125 48.1875 68.6094 48.1875
Q61.625 48.1875 57.5625 43.5469
Q53.5156 38.9219 53.5156 30.9062
L53.5156 0
L44.4844 0
L44.4844 32.7188
Q44.4844 40.625 41.7031 44.4062
Q38.9219 48.1875 33.1094 48.1875
Q26.2188 48.1875 22.1562 43.5312
Q18.1094 38.875 18.1094 30.9062
L18.1094 0
L9.07812 0
L9.07812 54.6875
L18.1094 54.6875
L18.1094 46.1875
Q21.1875 51.2188 25.4844 53.6094
Q29.7812 56 35.6875 56
Q41.6562 56 45.8281 52.9688
Q50 49.9531 52 44.1875" id="BitstreamVeraSans-Roman-6d"/>
      <path d="
M8.01562 75.875
L15.8281 75.875
Q23.1406 64.3594 26.7812 53.3125
Q30.4219 42.2812 30.4219 31.3906
Q30.4219 20.4531 26.7812 9.375
Q23.1406 -1.70312 15.8281 -13.1875
L8.01562 -13.1875
Q14.5 -2 17.7031 9.0625
Q20.9062 20.125 20.9062 31.3906
Q20.9062 42.6719 17.7031 53.6562
Q14.5 64.6562 8.01562 75.875" id="BitstreamVeraSans-Roman-29"/>
      <path d="
M64.4062 67.2812
L64.4062 56.8906
Q59.4219 61.5312 53.7812 63.8125
Q48.1406 66.1094 41.7969 66.1094
Q29.2969 66.1094 22.6562 58.4688
Q16.0156 50.8281 16.0156 36.375
Q16.0156 21.9688 22.6562 14.3281
Q29.2969 6.6875 41.7969 6.6875
Q48.1406 6.6875 53.7812 8.98438
Q59.4219 11.2812 64.4062 15.9219
L64.4062 5.60938
Q59.2344 2.09375 53.4375 0.328125
Q47.6562 -1.42188 41.2188 -1.42188
Q24.6562 -1.42188 15.125 8.70312
Q5.60938 18.8438 5.60938 36.375
Q5.60938 53.9531 15.125 64.0781
Q24.6562 74.2188 41.2188 74.2188
Q47.75 74.2188 53.5312 72.4844
Q59.3281 70.75 64.4062 67.2812" id="BitstreamVeraSans-Roman-43"/>
      <path d="
M31 75.875
Q24.4688 64.6562 21.2812 53.6562
Q18.1094 42.6719 18.1094 31.3906
Q18.1094 20.125 21.3125 9.0625
Q24.5156 -2 31 -13.1875
L23.1875 -13.1875
Q15.875 -1.70312 12.2344 9.375
Q8.59375 20.4531 8.59375 31.3906
Q8.59375 42.2812 12.2031 53.3125
Q15.8281 64.3594 23.1875 75.875
z
" id="BitstreamVeraSans-Roman-28"/>
      <path d="
M56.2031 29.5938
L56.2031 25.2031
L14.8906 25.2031
Q15.4844 15.9219 20.4844 11.0625
Q25.4844 6.20312 34.4219 6.20312
Q39.5938 6.20312 44.4531 7.46875
Q49.3125 8.73438 54.1094 11.2812
L54.1094 2.78125
Q49.2656 0.734375 44.1875 -0.34375
Q39.1094 -1.42188 33.8906 -1.42188
Q20.7969 -1.42188 13.1562 6.1875
Q5.51562 13.8125 5.51562 26.8125
Q5.51562 40.2344 12.7656 48.1094
Q20.0156 56 32.3281 56
Q43.3594 56 49.7812 48.8906
Q56.2031 41.7969 56.2031 29.5938
M47.2188 32.2344
Q47.125 39.5938 43.0938 43.9844
Q39.0625 48.3906 32.4219 48.3906
Q24.9062 48.3906 20.3906 44.1406
Q15.875 39.8906 15.1875 32.1719
z
" id="BitstreamVeraSans-Roman-65"/>
      <path d="
M8.5 21.5781
L8.5 54.6875
L17.4844 54.6875
L17.4844 21.9219
Q17.4844 14.1562 20.5 10.2656
Q23.5312 6.39062 29.5938 6.39062
Q36.8594 6.39062 41.0781 11.0312
Q45.3125 15.6719 45.3125 23.6875
L45.3125 54.6875
L54.2969 54.6875
L54.2969 0
L45.3125 0
L45.3125 8.40625
Q42.0469 3.42188 37.7188 1
Q33.4062 -1.42188 27.6875 -1.42188
Q18.2656 -1.42188 13.375 4.4375
Q8.5 10.2969 8.5 21.5781" id="BitstreamVeraSans-Roman-75"/>
      <path d="
M34.2812 27.4844
Q23.3906 27.4844 19.1875 25
Q14.9844 22.5156 14.9844 16.5
Q14.9844 11.7188 18.1406 8.90625
Q21.2969 6.10938 26.7031 6.10938
Q34.1875 6.10938 38.7031 11.4062
Q43.2188 16.7031 43.2188 25.4844
L43.2188 27.4844
z

M52.2031 31.2031
L52.2031 0
L43.2188 0
L43.2188 8.29688
Q40.1406 3.32812 35.5469 0.953125
Q30.9531 -1.42188 24.3125 -1.42188
Q15.9219 -1.42188 10.9531 3.29688
Q6 8.01562 6 15.9219
Q6 25.1406 12.1719 29.8281
Q18.3594 34.5156 30.6094 34.5156
L43.2188 34.5156
L43.2188 35.4062
Q43.2188 41.6094 39.1406 45
Q35.0625 48.3906 27.6875 48.3906
Q23 48.3906 18.5469 47.2656
Q14.1094 46.1406 10.0156 43.8906
L10.0156 52.2031
Q14.9375 54.1094 19.5781 55.0469
Q24.2188 56 28.6094 56
Q40.4844 56 46.3438 49.8438
Q52.2031 43.7031 52.2031 31.2031" id="BitstreamVeraSans-Roman-61"/>
      <path d="
M18.1094 8.20312
L18.1094 -20.7969
L9.07812 -20.7969
L9.07812 54.6875
L18.1094 54.6875
L18.1094 46.3906
Q20.9531 51.2656 25.2656 53.625
Q29.5938 56 35.5938 56
Q45.5625 56 51.7812 48.0938
Q58.0156 40.1875 58.0156 27.2969
Q58.0156 14.4062 51.7812 6.48438
Q45.5625 -1.42188 35.5938 -1.42188
Q29.5938 -1.42188 25.2656 0.953125
Q20.9531 3.32812 18.1094 8.20312
M48.6875 27.2969
Q48.6875 37.2031 44.6094 42.8438
Q40.5312 48.4844 33.4062 48.4844
Q26.2656 48.4844 22.1875 42.8438
Q18.1094 37.2031 18.1094 27.2969
Q18.1094 17.3906 22.1875 11.75
Q26.2656 6.10938 33.4062 6.10938
Q40.5312 6.10938 44.6094 11.75
Q48.6875 17.3906 48.6875 27.2969" id="BitstreamVeraSans-Roman-70"/>
     </defs>
     <g transform="translate(39.714375 242.37375)rotate(-90.0)scale(0.12 -0.12)">
      <use xlink:href="#BitstreamVeraSans-Roman-74"/>
      <use x="39.208984375" xlink:href="#BitstreamVeraSans-Roman-65"/>
      <use x="100.732421875" xlink:href="#BitstreamVeraSans-Roman-6d"/>
      <use x="198.14453125" xlink:href="#BitstreamVeraSans-Roman-70"/>
      <use x="261.62109375" xlink:href="#BitstreamVeraSans-Roman-65"/>
      <use x="323.14453125" xlink:href="#BitstreamVeraSans-Roman-72"/>
      <use x="364.2578125" xlink:href="#BitstreamVeraSans-Roman-61"/>
      <use x="425.537109375" xlink:href="#BitstreamVeraSans-Roman-74"/>
      <use x="464.74609375" xlink:href="#BitstreamVeraSans-Roman-75"/>
      <use x="528.125" xlink:href="#BitstreamVeraSans-Roman-72"/>
      <use x="566.98828125" xlink:href="#BitstreamVeraSans-Roman-65"/>
      <use x="628.51171875" xlink:href="#BitstreamVeraSans-Roman-20"/>
      <use x="660.298828125" xlink:href="#BitstreamVeraSans-Roman-28"/>
      <use x="699.3125" xlink:href="#BitstreamVeraSans-Roman-43"/>
      <use x="769.13671875" xlink:href="#BitstreamVeraSans-Roman-29"/>
     </g>
    </g>
   </g>
   <g id="text_15">
    <!--  CPU high temperature -->
    <defs>
     <path d="
M19.6719 64.7969
L19.6719 37.4062
L32.0781 37.4062
Q38.9688 37.4062 42.7188 40.9688
Q46.4844 44.5312 46.4844 51.125
Q46.4844 57.6719 42.7188 61.2344
Q38.9688 64.7969 32.0781 64.7969
z

M9.8125 72.9062
L32.0781 72.9062
Q44.3438 72.9062 50.6094 67.3594
Q56.8906 61.8125 56.8906 51.125
Q56.8906 40.3281 50.6094 34.8125
Q44.3438 29.2969 32.0781 29.2969
L19.6719 29.2969
L19.6719 0
L9.8125 0
z
" id="BitstreamVeraSans-Roman-50"/>
     <path d="
M45.4062 27.9844
Q45.4062 37.75 41.375 43.1094
Q37.3594 48.4844 30.0781 48.4844
Q22.8594 48.4844 18.8281 43.1094
Q14.7969 37.75 14.7969 27.9844
Q14.7969 18.2656 18.8281 12.8906
Q22.8594 7.51562 30.0781 7.51562
Q37.3594 7.51562 41.375 12.8906
Q45.4062 18.2656 45.4062 27.9844
M54.3906 6.78125
Q54.3906 -7.17188 48.1875 -13.9844
Q42 -20.7969 29.2031 -20.7969
Q24.4688 -20.7969 20.2656 -20.0938
Q16.0625 -19.3906 12.1094 -17.9219
L12.1094 -9.1875
Q16.0625 -11.3281 19.9219 -12.3438
Q23.7812 -13.375 27.7812 -13.375
Q36.625 -13.375 41.0156 -8.76562
Q45.4062 -4.15625 45.4062 5.17188
L45.4062 9.625
Q42.625 4.78125 38.2812 2.39062
Q33.9375 0 27.875 0
Q17.8281 0 11.6719 7.65625
Q5.51562 15.3281 5.51562 27.9844
Q5.51562 40.6719 11.6719 48.3281
Q17.8281 56 27.875 56
Q33.9375 56 38.2812 53.6094
Q42.625 51.2188 45.4062 46.3906
L45.4062 54.6875
L54.3906 54.6875
z
" id="BitstreamVeraSans-Roman-67"/>
     <path d="
M9.42188 54.6875
L18.4062 54.6875
L18.4062 0
L9.42188 0
z

M9.42188 75.9844
L18.4062 75.9844
L18.4062 64.5938
L9.42188 64.5938
z
" id="BitstreamVeraSans-Roman-69"/>
     <path d="
M8.6875 72.9062
L18.6094 72.9062
L18.6094 28.6094
Q18.6094 16.8906 22.8438 11.7344
Q27.0938 6.59375 36.625 6.59375
Q46.0938 6.59375 50.3438 11.7344
Q54.5938 16.8906 54.5938 28.6094
L54.5938 72.9062
L64.5 72.9062
L64.5 27.3906
Q64.5 13.1406 57.4375 5.85938
Q50.3906 -1.42188 36.625 -1.42188
Q22.7969 -1.42188 15.7344 5.85938
Q8.6875 13.1406 8.6875 27.3906
z
" id="BitstreamVeraSans-Roman-55"/>
     <path d="
M54.8906 33.0156
L54.8906 0
L45.9062 0
L45.9062 32.7188
Q45.9062 40.4844 42.875 44.3281
Q39.8438 48.1875 33.7969 48.1875
Q26.5156 48.1875 22.3125 43.5469
Q18.1094 38.9219 18.1094 30.9062
L18.1094 0
L9.07812 0
L9.07812 75.9844
L18.1094 75.9844
L18.1094 46.1875
Q21.3438 51.125 25.7031 53.5625
Q30.0781 56 35.7969 56
Q45.2188 56 50.0469 50.1719
Q54.8906 44.3438 54.8906 33.0156" id="BitstreamVeraSans-Roman-68"/>
    </defs>
    <g style="fill:#ffa500;" transform="translate(72.0 109.178181818)scale(0.12 -0.12)">
     <use xlink:href="#BitstreamVeraSans-Roman-20"/>
     <use x="31.787109375" xlink:href="#BitstreamVeraSans-Roman-43"/>
     <use x="101.611328125" xlink:href="#BitstreamVeraSans-Roman-50"/>
     <use x="161.9140625" xlink:href="#BitstreamVeraSans-Roman-55"/>
     <use x="235.107421875" xlink:href="#BitstreamVeraSans-Roman-20"/>
     <use x="266.89453125" xlink:href="#BitstreamVeraSans-Roman-68"/>
     <use x="330.2734375" xlink:href="#BitstreamVeraSans-Roman-69"/>
     <use x="358.056640625" xlink:href="#BitstreamVeraSans-Roman-67"/>
     <use x="421.533203125" xlink:href="#BitstreamVeraSans-Roman-68"/>
     <use x="484.912109375" xlink:href="#BitstreamVeraSans-Roman-20"/>
     <use x="516.69921875" xlink:href="#BitstreamVeraSans-Roman-74"/>
     <use x="555.908203125" xlink:href="#BitstreamVeraSans-Roman-65"/>
     <use x="617.431640625" xlink:href="#BitstreamVeraSans-Roman-6d"/>
     <use x="714.84375" xlink:href="#BitstreamVeraSans-Roman-70"/>
     <use x="778.3203125" xlink:href="#BitstreamVeraSans-Roman-65"/>
     <use x="839.84375" xlink:href="#BitstreamVeraSans-Roman-72"/>
     <use x="880.95703125" xlink:href="#BitstreamVeraSans-Roman-61"/>
     <use x="942.236328125" xlink:href="#BitstreamVeraSans-Roman-74"/>
     <use x="981.4453125" xlink:href="#BitstreamVeraSans-Roman-75"/>
     <use x="1044.82421875" xlink:href="#BitstreamVeraSans-Roman-72"/>
     <use x="1083.6875" xlink:href="#BitstreamVeraSans-Roman-65"/>
    </g>
   </g>
   <g id="text_16">
    <!--  CPU critical temperature -->
    <defs>
     <path d="
M9.42188 75.9844
L18.4062 75.9844
L18.4062 0
L9.42188 0
z
" id="BitstreamVeraSans-Roman-6c"/>
    </defs>
    <g style="fill:#ff0000;" transform="translate(72.0 81.6872727273)scale(0.12 -0.12)">
     <use xlink:href="#BitstreamVeraSans-Roman-20"/>
     <use x="31.787109375" xlink:href="#BitstreamVeraSans-Roman-43"/>
     <use x="101.611328125" xlink:href="#BitstreamVeraSans-Roman-50"/>
     <use x="161.9140625" xlink:href="#BitstreamVeraSans-Roman-55"/>
     <use x="235.107421875" xlink:href="#BitstreamVeraSans-Roman-20"/>
     <use x="266.89453125" xlink:href="#BitstreamVeraSans-Roman-63"/>
     <use x="321.875" xlink:href="#BitstreamVeraSans-Roman-72"/>
     <use x="362.98828125" xlink:href="#BitstreamVeraSans-Roman-69"/>
     <use x="390.771484375" xlink:href="#BitstreamVeraSans-Roman-74"/>
     <use x="429.98046875" xlink:href="#BitstreamVeraSans-Roman-69"/>
     <use x="457.763671875" xlink:href="#BitstreamVeraSans-Roman-63"/>
     <use x="512.744140625" xlink:href="#BitstreamVeraSans-Roman-61"/>
     <use x="574.0234375" xlink:href="#BitstreamVeraSans-Roman-6c"/>
     <use x="601.806640625" xlink:href="#BitstreamVeraSans-Roman-20"/>
     <use x="633.59375" xlink:href="#BitstreamVeraSans-Roman-74"/>
     <use x="672.802734375" xlink:href="#BitstreamVeraSans-Roman-65"/>
     <use x="734.326171875" xlink:href="#BitstreamVeraSans-Roman-6d"/>
     <use x="831.73828125" xlink:href="#BitstreamVeraSans-Roman-70"/>
     <use x="895.21484375" xlink:href="#BitstreamVeraSans-Roman-65"/>
     <use x="956.73828125" xlink:href="#BitstreamVeraSans-Roman-72"/>
     <use x="997.8515625" xlink:href="#BitstreamVeraSans-Roman-61"/>
     <use x="1059.13085938" xlink:href="#BitstreamVeraSans-Roman-74"/>
     <use x="1098.33984375" xlink:href="#BitstreamVeraSans-Roman-75"/>
     <use x="1161.71875" xlink:href="#BitstreamVeraSans-Roman-72"/>
     <use x="1200.58203125" xlink:href="#BitstreamVeraSans-Roman-65"/>
    </g>
   </g>
   <g id="text_17">
    <!-- headnode -->
    <defs>
     <path d="
M54.8906 33.0156
L54.8906 0
L45.9062 0
L45.9062 32.7188
Q45.9062 40.4844 42.875 44.3281
Q39.8438 48.1875 33.7969 48.1875
Q26.5156 48.1875 22.3125 43.5469
Q18.1094 38.9219 18.1094 30.9062
L18.1094 0
L9.07812 0
L9.07812 54.6875
L18.1094 54.6875
L18.1094 46.1875
Q21.3438 51.125 25.7031 53.5625
Q30.0781 56 35.7969 56
Q45.2188 56 50.0469 50.1719
Q54.8906 44.3438 54.8906 33.0156" id="BitstreamVeraSans-Roman-6e"/>
     <path d="
M45.4062 46.3906
L45.4062 75.9844
L54.3906 75.9844
L54.3906 0
L45.4062 0
L45.4062 8.20312
Q42.5781 3.32812 38.25 0.953125
Q33.9375 -1.42188 27.875 -1.42188
Q17.9688 -1.42188 11.7344 6.48438
Q5.51562 14.4062 5.51562 27.2969
Q5.51562 40.1875 11.7344 48.0938
Q17.9688 56 27.875 56
Q33.9375 56 38.25 53.625
Q42.5781 51.2656 45.4062 46.3906
M14.7969 27.2969
Q14.7969 17.3906 18.875 11.75
Q22.9531 6.10938 30.0781 6.10938
Q37.2031 6.10938 41.2969 11.75
Q45.4062 17.3906 45.4062 27.2969
Q45.4062 37.2031 41.2969 42.8438
Q37.2031 48.4844 30.0781 48.4844
Q22.9531 48.4844 18.875 42.8438
Q14.7969 37.2031 14.7969 27.2969" id="BitstreamVeraSans-Roman-64"/>
     <path d="
M30.6094 48.3906
Q23.3906 48.3906 19.1875 42.75
Q14.9844 37.1094 14.9844 27.2969
Q14.9844 17.4844 19.1562 11.8438
Q23.3438 6.20312 30.6094 6.20312
Q37.7969 6.20312 41.9844 11.8594
Q46.1875 17.5312 46.1875 27.2969
Q46.1875 37.0156 41.9844 42.7031
Q37.7969 48.3906 30.6094 48.3906
M30.6094 56
Q42.3281 56 49.0156 48.375
Q55.7188 40.7656 55.7188 27.2969
Q55.7188 13.875 49.0156 6.21875
Q42.3281 -1.42188 30.6094 -1.42188
Q18.8438 -1.42188 12.1719 6.21875
Q5.51562 13.875 5.51562 27.2969
Q5.51562 40.7656 12.1719 48.375
Q18.8438 56 30.6094 56" id="BitstreamVeraSans-Roman-6f"/>
    </defs>
    <g transform="translate(260.29125 38.2)scale(0.144 -0.144)">
     <use xlink:href="#BitstreamVeraSans-Roman-68"/>
     <use x="63.37890625" xlink:href="#BitstreamVeraSans-Roman-65"/>
     <use x="124.90234375" xlink:href="#BitstreamVeraSans-Roman-61"/>
     <use x="186.181640625" xlink:href="#BitstreamVeraSans-Roman-64"/>
     <use x="249.658203125" xlink:href="#BitstreamVeraSans-Roman-6e"/>
     <use x="313.037109375" xlink:href="#BitstreamVeraSans-Roman-6f"/>
     <use x="374.21875" xlink:href="#BitstreamVeraSans-Roman-64"/>
     <use x="437.6953125" xlink:href="#BitstreamVeraSans-Roman-65"/>
    </g>
   </g>
  </g>
 </g>
 <defs>
  <clipPath id="pcb2bf987bf">
   <rect height="302.4" width="446.4" x="72.0" y="43.2"/>
  </clipPath>
 </defs>
</svg>
