<?xml version="1.0" encoding="utf-8" standalone="no"?>
<!DOCTYPE svg PUBLIC "-//W3C//DTD SVG 1.1//EN"
  "http://www.w3.org/Graphics/SVG/1.1/DTD/svg11.dtd">
<!-- Created with matplotlib (http://matplotlib.org/) -->
<svg height="432pt" version="1.1" viewBox="0 0 576 432" width="576pt" xmlns="http://www.w3.org/2000/svg" xmlns:xlink="http://www.w3.org/1999/xlink">
 <defs>
  <style type="text/css">
*{stroke-linecap:butt;stroke-linejoin:round;}
  </style>
 </defs>
 <g id="figure_1">
  <g id="patch_1">
   <path d="
M0 432
L576 432
L576 0
L0 0
z
" style="fill:#ffffff;"/>
  </g>
  <g id="axes_1">
   <g id="patch_2">
    <path d="
M72 345.6
L518.4 345.6
L518.4 43.2
L72 43.2
z
" style="fill:#ffffff;"/>
   </g>
   <g id="line2d_1">
    <path clip-path="url(#pcb2bf987bf)" d="
M72 230.688
L72.1525 230.688
L72.3049 227.664
L72.4574 230.688
L72.9148 230.688
L73.0672 227.664
L73.3721 233.712
L73.5246 230.688
L73.8295 230.688
L73.982 233.712
L74.1344 230.688
L74.7443 230.688
L74.8967 233.712
L75.0492 233.712
L75.2016 230.688
L75.659 230.688
L75.8115 233.712
L75.9639 227.664
L76.1164 230.688
L76.2689 230.688
L76.4213 227.664
L76.7262 233.712
L76.8787 233.712
L77.0311 236.736
L77.1836 230.688
L77.3361 233.712
L77.641 233.712
L77.7934 236.736
L77.9459 236.736
L78.0985 233.712
L78.2508 233.712
L78.4033 230.688
L78.7082 236.736
L78.8607 233.712
L79.0131 236.736
L79.1656 236.736
L79.3182 230.688
L79.623 236.736
L79.7754 233.712
L79.9279 233.712
L80.0803 230.688
L80.2328 233.712
L80.5377 233.712
L80.6902 230.688
L80.8426 236.736
L80.9951 233.712
L81.3 233.712
L81.4525 224.64
L81.6049 236.736
L81.7574 230.688
L81.9098 230.688
L82.2148 236.736
L82.3672 236.736
L82.5197 233.712
L82.977 233.712
L83.1295 236.736
L83.282 233.712
L83.5869 233.712
L83.7393 236.736
L83.8918 233.712
L84.0443 236.736
L84.1967 233.712
L84.3492 233.712
L84.5016 230.688
L84.6541 233.712
L85.2639 233.712
L85.4164 230.688
L85.8738 230.688
L86.0262 227.664
L86.1787 227.664
L86.3311 233.712
L86.4836 227.664
L86.6361 230.688
L86.7885 227.664
L86.941 227.664
L87.0934 230.688
L87.8557 230.688
L88.0082 227.664
L88.1607 227.664
L88.3131 230.688
L88.4656 227.664
L88.618 230.688
L88.7705 227.664
L88.923 230.688
L89.2279 230.688
L89.3803 227.664
L89.6852 227.664
L89.8377 233.712
L89.9902 230.688
L90.2951 230.688
L90.4475 233.712
L90.6 230.688
L90.7525 233.712
L91.0574 233.712
L91.2098 236.736
L91.3623 233.712
L91.5148 233.712
L91.6672 236.736
L91.8197 233.712
L91.9721 233.712
L92.1246 236.736
L92.4295 230.688
L92.582 236.736
L92.8869 236.736
L93.0393 239.76
L93.1918 230.688
L93.3443 236.736
L93.6492 236.736
L93.8016 233.712
L93.9541 236.736
L94.1066 230.688
L94.259 233.712
L94.4115 233.712
L94.5639 236.736
L94.7164 230.688
L94.8689 236.736
L95.0213 230.688
L95.1738 230.688
L95.3262 233.712
L95.7836 233.712
L95.9361 236.736
L96.0885 230.688
L96.241 230.688
L96.3934 233.712
L96.5459 233.712
L96.6984 236.736
L96.8508 236.736
L97.0033 230.688
L97.3082 230.688
L97.4607 236.736
L97.6131 230.688
L97.7656 233.712
L97.918 230.688
L98.0705 236.736
L98.223 230.688
L98.3754 233.712
L98.5279 230.688
L98.9852 230.688
L99.1377 227.664
L99.2902 233.712
L99.4426 230.688
L99.9 230.688
L100.052 233.712
L100.205 233.712
L100.357 230.688
L100.815 230.688
L100.967 227.664
L101.12 233.712
L101.272 230.688
L101.425 230.688
L101.577 227.664
L101.73 227.664
L101.882 233.712
L102.034 230.688
L102.339 230.688
L102.492 233.712
L102.797 227.664
L102.949 233.712
L103.102 233.712
L103.254 227.664
L103.559 233.712
L103.711 233.712
L103.864 230.688
L104.016 230.688
L104.169 233.712
L104.321 233.712
L104.474 230.688
L104.779 230.688
L104.931 227.664
L105.084 233.712
L105.389 227.664
L105.541 230.688
L105.693 230.688
L105.846 233.712
L105.998 233.712
L106.151 230.688
L106.303 236.736
L106.456 233.712
L106.761 233.712
L106.913 239.76
L107.218 233.712
L107.37 233.712
L107.523 236.736
L107.828 236.736
L107.98 239.76
L108.133 239.76
L108.285 233.712
L108.438 236.736
L108.59 233.712
L108.743 233.712
L108.895 236.736
L109.048 233.712
L109.2 236.736
L109.505 230.688
L109.657 236.736
L109.81 236.736
L109.962 233.712
L110.115 233.712
L110.267 236.736
L110.42 233.712
L110.725 233.712
L110.877 236.736
L111.03 233.712
L111.182 236.736
L111.334 233.712
L111.792 233.712
L111.944 236.736
L112.097 233.712
L112.249 236.736
L112.554 230.688
L112.707 230.688
L112.859 236.736
L113.316 227.664
L113.469 230.688
L113.621 230.688
L113.774 233.712
L113.926 230.688
L114.079 233.712
L114.231 230.688
L114.536 230.688
L114.689 227.664
L114.841 233.712
L115.146 227.664
L115.298 227.664
L115.451 230.688
L115.603 227.664
L115.756 227.664
L115.908 230.688
L116.213 230.688
L116.518 224.64
L116.823 230.688
L116.975 227.664
L117.128 230.688
L117.433 230.688
L117.585 233.712
L117.738 230.688
L117.89 233.712
L118.043 227.664
L118.195 230.688
L118.652 230.688
L118.805 233.712
L118.957 227.664
L119.11 230.688
L119.262 230.688
L119.415 233.712
L119.872 233.712
L120.025 230.688
L120.177 230.688
L120.482 224.64
L120.939 242.784
L121.092 230.688
L121.244 233.712
L121.397 230.688
L121.549 233.712
L122.007 233.712
L122.159 236.736
L122.311 233.712
L122.464 233.712
L122.616 236.736
L122.921 236.736
L123.074 233.712
L123.226 227.664
L123.379 233.712
L123.531 227.664
L123.836 236.736
L124.141 230.688
L124.446 236.736
L124.598 230.688
L124.751 233.712
L125.208 233.712
L125.361 230.688
L125.513 230.688
L125.666 227.664
L125.818 230.688
L125.97 230.688
L126.123 227.664
L126.275 227.664
L126.58 236.736
L126.733 233.712
L126.885 233.712
L127.038 236.736
L127.19 233.712
L127.495 233.712
L127.648 230.688
L127.952 230.688
L128.105 227.664
L128.41 227.664
L128.562 230.688
L128.715 224.64
L128.867 227.664
L129.02 224.64
L129.172 230.688
L129.477 230.688
L129.782 224.64
L129.934 224.64
L130.087 227.664
L130.239 224.64
L130.544 230.688
L130.697 230.688
L130.849 227.664
L131.002 230.688
L131.154 236.736
L131.307 227.664
L131.459 230.688
L131.611 230.688
L131.764 233.712
L131.916 227.664
L132.069 230.688
L132.221 230.688
L132.374 227.664
L132.526 227.664
L132.679 233.712
L132.831 227.664
L132.984 230.688
L133.136 230.688
L133.289 227.664
L133.441 227.664
L133.593 230.688
L134.203 230.688
L134.356 227.664
L134.508 230.688
L134.661 227.664
L134.813 227.664
L134.966 230.688
L135.118 227.664
L135.27 227.664
L135.423 230.688
L135.575 227.664
L135.88 233.712
L136.185 227.664
L136.338 230.688
L136.49 242.784
L136.643 230.688
L136.795 233.712
L136.948 230.688
L137.1 236.736
L137.252 230.688
L137.557 236.736
L137.71 233.712
L137.862 236.736
L138.015 236.736
L138.167 233.712
L138.472 233.712
L138.625 230.688
L138.777 236.736
L138.93 233.712
L139.082 236.736
L139.234 233.712
L139.387 233.712
L139.539 236.736
L139.692 236.736
L139.844 230.688
L139.997 233.712
L140.149 233.712
L140.302 230.688
L140.454 230.688
L140.607 233.712
L141.064 233.712
L141.369 227.664
L141.521 230.688
L141.674 230.688
L141.826 233.712
L141.979 227.664
L142.131 230.688
L142.284 227.664
L142.436 230.688
L142.741 230.688
L142.893 227.664
L143.046 227.664
L143.198 230.688
L143.351 227.664
L143.503 227.664
L143.808 233.712
L143.961 224.64
L144.113 227.664
L144.266 227.664
L144.418 230.688
L144.57 230.688
L144.723 233.712
L144.875 227.664
L145.18 233.712
L145.333 227.664
L145.485 233.712
L145.79 227.664
L145.943 230.688
L146.095 227.664
L146.705 227.664
L146.857 230.688
L147.01 224.64
L147.162 230.688
L147.772 230.688
L147.925 233.712
L148.23 227.664
L148.382 230.688
L148.839 230.688
L148.992 227.664
L149.144 230.688
L149.297 230.688
L149.449 224.64
L149.907 233.712
L150.211 233.712
L150.364 230.688
L150.516 230.688
L150.669 233.712
L150.821 227.664
L151.279 227.664
L151.431 230.688
L151.584 230.688
L151.736 224.64
L151.889 224.64
L152.041 227.664
L152.193 224.64
L152.346 227.664
L152.498 224.64
L153.413 224.64
L153.566 227.664
L153.718 224.64
L153.87 224.64
L154.023 221.616
L154.175 224.64
L154.328 221.616
L154.48 224.64
L154.633 224.64
L154.785 221.616
L155.09 227.664
L155.243 221.616
L155.395 221.616
L155.548 206.496
L155.7 224.64
L155.852 224.64
L156.005 227.664
L156.157 224.64
L156.767 224.64
L156.92 230.688
L157.072 224.64
L157.53 224.64
L157.682 221.616
L157.834 224.64
L157.987 224.64
L158.139 227.664
L158.292 227.664
L158.444 224.64
L158.597 224.64
L158.749 227.664
L158.902 224.64
L159.054 227.664
L159.207 227.664
L159.359 224.64
L159.816 224.64
L159.969 227.664
L160.274 227.664
L160.426 224.64
L160.579 230.688
L160.731 227.664
L160.884 230.688
L161.036 227.664
L161.341 227.664
L161.493 230.688
L161.646 224.64
L161.798 227.664
L162.713 227.664
L162.866 224.64
L163.323 224.64
L163.475 227.664
L163.628 227.664
L163.78 224.64
L163.933 224.64
L164.085 221.616
L164.238 227.664
L164.39 227.664
L164.543 233.712
L164.695 227.664
L165 227.664
L165.305 233.712
L165.457 233.712
L165.61 230.688
L165.762 233.712
L165.915 230.688
L166.067 236.736
L166.22 233.712
L166.677 233.712
L166.83 230.688
L166.982 233.712
L167.134 233.712
L167.287 230.688
L167.592 236.736
L167.897 230.688
L168.049 233.712
L168.202 230.688
L168.354 233.712
L168.507 233.712
L168.659 230.688
L168.811 233.712
L168.964 233.712
L169.116 230.688
L169.421 230.688
L169.726 236.736
L170.031 230.688
L170.184 233.712
L170.336 233.712
L170.489 230.688
L170.641 233.712
L170.946 233.712
L171.098 230.688
L171.251 233.712
L171.403 230.688
L171.556 233.712
L171.861 227.664
L172.013 227.664
L172.166 224.64
L172.318 230.688
L172.47 230.688
L172.623 227.664
L172.928 227.664
L173.08 233.712
L173.233 230.688
L173.385 230.688
L173.538 224.64
L173.69 227.664
L173.843 215.568
L173.995 230.688
L174.148 227.664
L174.3 230.688
L174.605 230.688
L174.757 227.664
L174.91 230.688
L175.062 227.664
L175.367 227.664
L175.52 224.64
L175.672 227.664
L176.282 227.664
L176.434 230.688
L176.587 230.688
L176.739 224.64
L176.892 230.688
L177.044 227.664
L177.197 230.688
L177.502 224.64
L177.654 230.688
L177.807 227.664
L177.959 230.688
L178.111 227.664
L178.874 227.664
L179.026 233.712
L179.179 230.688
L179.331 230.688
L179.484 233.712
L179.941 233.712
L180.093 236.736
L180.246 233.712
L180.398 233.712
L180.551 236.736
L180.703 236.736
L180.856 233.712
L181.008 236.736
L181.161 236.736
L181.313 233.712
L182.99 233.712
L183.143 230.688
L183.295 230.688
L183.448 233.712
L183.905 233.712
L184.057 230.688
L184.21 230.688
L184.362 233.712
L185.277 233.712
L185.43 230.688
L185.582 236.736
L185.734 233.712
L185.887 239.76
L186.192 233.712
L186.344 236.736
L186.497 233.712
L186.802 233.712
L187.107 227.664
L187.259 236.736
L187.564 227.664
L187.716 233.712
L187.869 230.688
L188.021 233.712
L188.174 230.688
L188.631 230.688
L188.784 233.712
L188.936 233.712
L189.089 230.688
L189.241 230.688
L189.393 224.64
L189.546 227.664
L189.698 233.712
L189.851 233.712
L190.003 230.688
L190.461 230.688
L190.613 227.664
L190.918 227.664
L191.07 230.688
L191.223 227.664
L191.528 227.664
L191.68 230.688
L191.833 224.64
L191.985 227.664
L192.29 227.664
L192.595 221.616
L192.748 227.664
L193.205 227.664
L193.357 230.688
L193.51 227.664
L193.662 233.712
L193.967 233.712
L194.12 236.736
L194.272 233.712
L194.425 233.712
L194.577 236.736
L194.73 230.688
L194.882 233.712
L195.339 233.712
L195.492 236.736
L195.644 230.688
L195.797 233.712
L195.949 233.712
L196.102 236.736
L196.254 233.712
L196.864 233.712
L197.016 236.736
L197.169 233.712
L197.931 233.712
L198.084 236.736
L198.236 233.712
L198.389 236.736
L198.541 230.688
L198.846 236.736
L199.151 230.688
L199.303 233.712
L199.456 233.712
L199.608 230.688
L199.913 236.736
L200.066 236.736
L200.218 233.712
L200.37 233.712
L200.523 230.688
L200.675 239.76
L200.98 230.688
L201.133 230.688
L201.285 233.712
L201.438 227.664
L201.59 233.712
L201.743 230.688
L201.895 224.64
L202.048 227.664
L202.352 227.664
L202.505 224.64
L202.657 230.688
L202.962 230.688
L203.115 227.664
L203.42 233.712
L203.725 227.664
L203.877 230.688
L204.03 227.664
L204.182 227.664
L204.334 230.688
L204.487 230.688
L204.639 224.64
L204.792 230.688
L206.011 230.688
L206.164 233.712
L206.316 233.712
L206.469 227.664
L206.774 227.664
L206.926 230.688
L207.079 224.64
L207.536 233.712
L207.689 230.688
L207.993 230.688
L208.146 233.712
L208.298 230.688
L208.451 230.688
L208.603 236.736
L208.908 230.688
L209.213 236.736
L209.366 236.736
L209.518 233.712
L209.823 239.76
L209.975 233.712
L210.128 233.712
L210.28 236.736
L210.585 236.736
L210.738 233.712
L210.89 236.736
L211.043 230.688
L211.195 236.736
L211.348 233.712
L211.5 236.736
L211.652 233.712
L211.805 236.736
L211.957 233.712
L212.262 233.712
L212.415 230.688
L212.567 233.712
L212.72 230.688
L212.872 233.712
L213.025 233.712
L213.177 230.688
L213.33 236.736
L213.787 236.736
L213.939 233.712
L214.092 236.736
L214.244 233.712
L214.397 233.712
L214.549 230.688
L214.702 233.712
L215.159 233.712
L215.311 236.736
L215.464 230.688
L215.616 230.688
L215.769 233.712
L215.921 230.688
L216.379 230.688
L216.531 233.712
L216.684 230.688
L216.836 233.712
L216.989 227.664
L217.141 230.688
L217.293 230.688
L217.446 224.64
L217.598 233.712
L217.751 230.688
L218.056 230.688
L218.361 236.736
L218.818 227.664
L218.97 230.688
L219.428 230.688
L219.58 233.712
L219.733 233.712
L220.038 227.664
L220.343 233.712
L220.648 233.712
L220.8 230.688
L221.41 230.688
L221.562 233.712
L221.867 227.664
L222.02 230.688
L222.63 230.688
L222.782 227.664
L223.087 236.736
L223.239 230.688
L223.392 233.712
L223.544 230.688
L223.697 236.736
L223.849 236.736
L224.002 233.712
L224.154 236.736
L224.459 236.736
L224.611 233.712
L224.764 233.712
L224.916 236.736
L225.069 233.712
L225.221 236.736
L225.374 233.712
L225.526 236.736
L225.679 233.712
L225.831 236.736
L225.984 233.712
L226.136 239.76
L226.289 236.736
L226.441 236.736
L226.593 233.712
L226.746 236.736
L227.661 236.736
L227.966 230.688
L228.27 236.736
L228.423 236.736
L228.575 233.712
L228.728 233.712
L228.88 236.736
L229.49 236.736
L229.643 233.712
L229.795 236.736
L229.948 236.736
L230.1 233.712
L230.405 233.712
L230.557 227.664
L230.71 230.688
L231.167 230.688
L231.32 227.664
L231.472 230.688
L231.625 227.664
L231.777 227.664
L231.93 224.64
L232.082 227.664
L232.692 227.664
L232.844 224.64
L232.997 224.64
L233.149 227.664
L233.302 227.664
L233.454 233.712
L233.607 227.664
L233.759 230.688
L233.911 227.664
L234.064 227.664
L234.216 230.688
L234.369 227.664
L234.521 227.664
L234.674 230.688
L234.826 230.688
L234.979 227.664
L235.131 233.712
L235.284 233.712
L235.589 227.664
L235.741 230.688
L235.893 230.688
L236.046 227.664
L236.198 230.688
L237.113 230.688
L237.266 224.64
L237.418 230.688
L237.57 227.664
L237.723 227.664
L237.875 224.64
L238.333 233.712
L238.485 230.688
L238.638 233.712
L238.79 230.688
L238.943 233.712
L239.095 233.712
L239.248 236.736
L239.4 230.688
L239.552 233.712
L239.705 230.688
L239.857 230.688
L240.01 233.712
L240.772 233.712
L240.925 230.688
L241.077 233.712
L241.23 230.688
L241.382 233.712
L241.534 230.688
L241.687 230.688
L241.839 236.736
L242.144 230.688
L242.449 230.688
L242.602 233.712
L242.754 233.712
L242.907 236.736
L243.059 233.712
L243.211 221.616
L243.516 230.688
L243.669 230.688
L243.821 227.664
L244.279 227.664
L244.431 230.688
L244.584 224.64
L244.736 230.688
L244.889 221.616
L245.041 227.664
L245.193 224.64
L245.346 230.688
L245.498 227.664
L245.651 227.664
L245.803 224.64
L245.956 230.688
L246.108 227.664
L247.175 227.664
L247.328 224.64
L247.48 233.712
L247.633 224.64
L247.785 227.664
L247.938 227.664
L248.09 230.688
L248.243 227.664
L248.7 227.664
L248.853 230.688
L249.157 224.64
L249.31 227.664
L249.615 227.664
L249.767 230.688
L250.072 230.688
L250.225 227.664
L250.377 227.664
L250.53 230.688
L250.834 230.688
L250.987 227.664
L251.139 230.688
L251.292 227.664
L251.597 227.664
L251.749 233.712
L251.902 230.688
L252.054 230.688
L252.207 227.664
L252.359 227.664
L252.511 224.64
L252.664 230.688
L252.816 224.64
L252.969 230.688
L253.121 230.688
L253.274 227.664
L253.426 227.664
L253.579 230.688
L253.731 230.688
L253.884 233.712
L254.036 230.688
L254.646 230.688
L254.798 227.664
L255.103 218.592
L255.408 224.64
L255.561 224.64
L255.713 227.664
L256.018 221.616
L256.323 227.664
L256.475 221.616
L256.628 224.64
L256.78 221.616
L256.933 224.64
L257.39 224.64
L257.543 227.664
L257.695 191.376
L257.848 224.64
L258 221.616
L258.152 197.424
L258.305 224.64
L259.067 224.64
L259.22 221.616
L259.372 221.616
L259.525 227.664
L259.677 224.64
L259.83 227.664
L259.982 227.664
L260.134 224.64
L260.287 227.664
L260.439 224.64
L260.744 224.64
L260.897 227.664
L261.049 224.64
L261.202 227.664
L261.354 224.64
L261.659 224.64
L261.811 230.688
L261.964 227.664
L262.116 221.616
L262.269 227.664
L262.421 224.64
L262.574 227.664
L262.726 224.64
L262.879 224.64
L263.031 227.664
L263.184 224.64
L263.336 227.664
L263.489 224.64
L263.793 224.64
L263.946 227.664
L264.098 227.664
L264.251 221.616
L264.708 230.688
L265.013 224.64
L265.166 227.664
L265.623 227.664
L265.775 224.64
L265.928 224.64
L266.08 227.664
L266.233 224.64
L266.538 224.64
L266.69 230.688
L266.843 227.664
L266.995 230.688
L267.148 227.664
L267.3 236.736
L267.605 230.688
L267.757 230.688
L268.062 236.736
L268.215 233.712
L268.367 236.736
L268.977 236.736
L269.13 230.688
L269.282 233.712
L269.434 233.712
L269.587 230.688
L269.739 236.736
L270.044 230.688
L270.349 236.736
L270.654 230.688
L270.959 236.736
L271.111 236.736
L271.416 251.856
L271.569 245.808
L271.721 245.808
L272.026 251.856
L272.179 251.856
L272.331 248.832
L272.484 251.856
L272.636 248.832
L272.941 248.832
L273.093 251.856
L273.398 251.856
L273.551 248.832
L273.703 251.856
L274.161 251.856
L274.313 248.832
L274.466 254.88
L274.77 245.808
L275.075 245.808
L275.228 242.784
L275.99 242.784
L276.295 236.736
L276.448 236.736
L276.6 242.784
L276.752 239.76
L276.905 239.76
L277.057 236.736
L277.667 236.736
L277.82 239.76
L277.972 236.736
L278.125 236.736
L278.277 239.76
L278.43 239.76
L278.734 233.712
L278.887 236.736
L279.497 236.736
L279.649 239.76
L280.107 239.76
L280.259 236.736
L280.411 236.736
L280.564 239.76
L280.716 239.76
L280.869 236.736
L281.021 236.736
L281.174 239.76
L281.326 239.76
L281.479 245.808
L281.936 245.808
L282.089 248.832
L282.241 245.808
L282.698 245.808
L282.851 248.832
L283.003 242.784
L283.156 248.832
L283.308 248.832
L283.461 251.856
L283.613 245.808
L283.766 248.832
L283.918 248.832
L284.07 251.856
L284.223 251.856
L284.375 248.832
L284.528 251.856
L285.138 251.856
L285.29 254.88
L285.443 251.856
L285.595 251.856
L285.748 254.88
L285.9 254.88
L286.052 251.856
L286.205 254.88
L286.357 251.856
L286.662 251.856
L286.815 254.88
L286.967 251.856
L287.272 251.856
L287.425 254.88
L287.577 251.856
L287.73 254.88
L287.882 254.88
L288.034 248.832
L288.187 254.88
L288.339 254.88
L288.492 251.856
L288.644 251.856
L288.797 245.808
L288.949 254.88
L289.102 248.832
L289.407 248.832
L289.711 242.784
L290.169 242.784
L290.321 245.808
L290.474 242.784
L290.626 242.784
L290.779 245.808
L290.931 242.784
L292.456 242.784
L292.608 239.76
L292.761 245.808
L292.913 239.76
L293.066 242.784
L293.37 236.736
L293.523 242.784
L293.675 236.736
L293.828 242.784
L293.98 242.784
L294.133 239.76
L294.285 239.76
L294.438 242.784
L294.59 239.76
L294.895 239.76
L295.048 242.784
L295.2 242.784
L295.352 239.76
L295.505 242.784
L295.657 239.76
L295.81 239.76
L295.962 245.808
L296.267 245.808
L296.572 251.856
L296.725 245.808
L297.03 251.856
L297.182 251.856
L297.334 254.88
L297.487 251.856
L298.707 251.856
L298.859 248.832
L299.011 251.856
L299.164 248.832
L299.317 248.832
L299.469 251.856
L299.621 248.832
L299.774 251.856
L299.926 251.856
L300.079 248.832
L300.384 248.832
L300.536 251.856
L300.689 251.856
L300.841 254.88
L301.146 245.808
L301.298 254.88
L301.451 248.832
L301.603 248.832
L301.756 254.88
L302.061 248.832
L302.213 251.856
L303.28 251.856
L303.433 248.832
L303.585 248.832
L303.738 245.808
L304.043 245.808
L304.195 242.784
L304.348 242.784
L304.5 245.808
L304.652 242.784
L304.957 242.784
L305.11 245.808
L305.262 242.784
L305.415 242.784
L305.567 236.736
L305.72 242.784
L305.872 239.76
L306.025 242.784
L306.33 242.784
L306.482 239.76
L306.634 239.76
L306.787 242.784
L306.939 239.76
L307.092 242.784
L307.244 239.76
L307.397 239.76
L307.549 242.784
L307.854 242.784
L308.007 239.76
L308.159 242.784
L308.616 242.784
L308.769 239.76
L308.921 239.76
L309.074 242.784
L309.226 242.784
L309.379 239.76
L309.531 239.76
L309.684 242.784
L309.836 239.76
L309.989 242.784
L310.141 239.76
L310.446 239.76
L310.598 242.784
L310.751 248.832
L310.903 248.832
L311.056 251.856
L311.208 248.832
L311.361 248.832
L311.666 254.88
L311.818 251.856
L312.275 251.856
L312.428 257.904
L312.733 257.904
L312.885 254.88
L313.038 254.88
L313.19 257.904
L313.343 254.88
L313.648 245.808
L313.8 251.856
L313.952 248.832
L314.105 254.88
L314.257 248.832
L314.562 254.88
L314.715 254.88
L314.867 248.832
L315.172 254.88
L315.325 251.856
L315.477 257.904
L315.63 251.856
L315.934 251.856
L316.087 254.88
L316.239 251.856
L316.544 257.904
L316.849 251.856
L317.002 257.904
L317.307 251.856
L317.459 254.88
L317.764 248.832
L317.916 251.856
L318.069 248.832
L318.221 248.832
L318.374 245.808
L318.526 245.808
L318.679 242.784
L318.831 245.808
L318.984 242.784
L319.136 242.784
L319.289 239.76
L319.441 242.784
L319.593 242.784
L319.746 239.76
L320.051 239.76
L320.203 242.784
L320.356 239.76
L320.661 239.76
L320.813 242.784
L320.966 239.76
L321.118 242.784
L321.27 242.784
L321.423 239.76
L321.728 245.808
L321.88 242.784
L322.185 242.784
L322.338 236.736
L322.49 245.808
L322.643 242.784
L322.795 242.784
L322.948 239.76
L323.252 239.76
L323.405 236.736
L323.557 242.784
L323.71 239.76
L323.862 239.76
L324.015 242.784
L324.167 239.76
L324.32 242.784
L325.234 242.784
L325.387 239.76
L325.539 245.808
L325.692 245.808
L325.844 251.856
L325.997 251.856
L326.149 248.832
L326.302 248.832
L326.607 254.88
L326.759 248.832
L326.911 251.856
L327.064 251.856
L327.216 254.88
L327.369 254.88
L327.521 251.856
L327.674 254.88
L327.826 251.856
L327.979 254.88
L328.131 254.88
L328.284 248.832
L328.589 254.88
L328.893 254.88
L329.046 251.856
L329.198 245.808
L329.351 245.808
L329.503 254.88
L329.656 251.856
L329.808 254.88
L329.961 254.88
L330.113 257.904
L330.266 251.856
L330.723 251.856
L330.875 248.832
L331.028 251.856
L331.485 251.856
L331.638 257.904
L331.943 248.832
L332.095 248.832
L332.248 251.856
L332.4 242.784
L332.552 248.832
L332.857 248.832
L333.162 242.784
L333.62 242.784
L333.772 245.808
L333.925 239.76
L334.077 239.76
L334.382 245.808
L334.534 242.784
L334.687 242.784
L334.992 236.736
L335.297 242.784
L335.449 236.736
L335.602 239.76
L336.516 239.76
L336.669 236.736
L336.821 242.784
L336.974 236.736
L337.126 239.76
L337.279 236.736
L337.431 242.784
L337.584 239.76
L337.736 242.784
L337.889 236.736
L338.041 242.784
L338.193 236.736
L338.346 242.784
L338.651 242.784
L338.803 236.736
L338.956 242.784
L339.261 242.784
L339.413 245.808
L339.566 242.784
L339.718 242.784
L339.87 239.76
L340.023 239.76
L340.175 236.736
L340.48 242.784
L340.633 239.76
L340.938 251.856
L341.09 254.88
L341.243 251.856
L342.157 251.856
L342.31 254.88
L342.462 248.832
L342.767 248.832
L342.92 251.856
L343.072 251.856
L343.225 248.832
L343.377 248.832
L343.53 251.856
L343.987 251.856
L344.139 248.832
L344.292 248.832
L344.444 254.88
L344.597 248.832
L345.054 248.832
L345.207 251.856
L345.511 251.856
L345.664 248.832
L345.816 248.832
L346.121 242.784
L346.426 242.784
L346.579 245.808
L346.884 245.808
L347.036 242.784
L347.341 242.784
L347.493 245.808
L347.646 239.76
L347.798 242.784
L347.951 239.76
L348.103 245.808
L348.256 239.76
L348.408 242.784
L348.713 236.736
L348.866 242.784
L349.018 236.736
L349.17 239.76
L349.323 239.76
L349.475 242.784
L349.628 239.76
L349.933 239.76
L350.085 236.736
L350.238 239.76
L350.695 239.76
L350.848 236.736
L351 236.736
L351.152 239.76
L351.305 236.736
L351.61 236.736
L351.762 239.76
L351.915 239.76
L352.067 233.712
L352.22 239.76
L352.372 233.712
L352.677 239.76
L352.982 239.76
L353.134 233.712
L353.287 236.736
L353.592 236.736
L353.744 233.712
L353.897 236.736
L354.049 236.736
L354.202 239.76
L354.354 233.712
L354.507 233.712
L354.659 236.736
L354.811 236.736
L354.964 239.76
L355.116 239.76
L355.269 233.712
L355.421 233.712
L355.574 239.76
L355.726 236.736
L355.879 236.736
L356.031 239.76
L356.336 233.712
L356.489 233.712
L356.641 236.736
L356.793 233.712
L356.946 236.736
L357.098 236.736
L357.251 233.712
L357.403 233.712
L357.556 236.736
L357.708 233.712
L357.861 236.736
L358.013 236.736
L358.166 233.712
L358.318 233.712
L358.47 230.688
L358.775 236.736
L358.928 230.688
L359.08 236.736
L359.385 230.688
L359.995 230.688
L360.148 233.712
L361.215 233.712
L361.367 230.688
L361.52 233.712
L361.977 233.712
L362.13 236.736
L362.282 233.712
L362.434 239.76
L362.587 230.688
L362.739 233.712
L363.044 233.712
L363.197 230.688
L363.349 233.712
L363.502 233.712
L363.654 230.688
L363.807 236.736
L363.959 233.712
L364.264 233.712
L364.416 230.688
L364.569 233.712
L365.026 233.712
L365.179 230.688
L365.484 230.688
L365.636 233.712
L365.789 230.688
L365.941 230.688
L366.093 233.712
L366.246 230.688
L366.398 233.712
L366.551 233.712
L366.703 227.664
L366.856 230.688
L367.161 230.688
L367.313 233.712
L367.466 230.688
L367.618 230.688
L367.77 233.712
L367.923 230.688
L368.685 230.688
L368.99 236.736
L369.143 236.736
L369.295 233.712
L369.752 254.88
L369.905 251.856
L370.057 251.856
L370.21 254.88
L370.362 248.832
L370.515 254.88
L370.667 251.856
L370.82 251.856
L370.972 254.88
L371.125 251.856
L371.43 251.856
L371.582 254.88
L371.887 254.88
L372.039 251.856
L372.649 251.856
L372.802 254.88
L373.107 248.832
L373.259 251.856
L373.411 245.808
L373.716 251.856
L373.869 251.856
L374.021 254.88
L374.174 188.352
L374.326 254.88
L374.479 251.856
L374.631 254.88
L374.784 251.856
L374.936 251.856
L375.089 254.88
L375.241 245.808
L375.546 254.88
L375.698 254.88
L375.851 251.856
L376.003 251.856
L376.156 248.832
L376.308 251.856
L376.461 248.832
L376.766 254.88
L376.918 254.88
L377.07 248.832
L377.223 251.856
L377.528 239.76
L377.68 242.784
L377.833 236.736
L377.985 236.736
L378.138 239.76
L378.29 236.736
L378.595 236.736
L378.748 239.76
L378.9 233.712
L379.052 236.736
L379.357 236.736
L379.51 230.688
L379.662 233.712
L379.815 230.688
L380.12 236.736
L380.272 233.712
L380.425 233.712
L380.577 230.688
L380.73 230.688
L380.882 236.736
L381.034 233.712
L381.339 233.712
L381.492 230.688
L381.644 233.712
L381.797 233.712
L381.949 230.688
L382.102 233.712
L382.407 233.712
L382.559 230.688
L382.711 236.736
L382.864 236.736
L383.016 230.688
L383.169 230.688
L383.321 233.712
L383.474 230.688
L383.626 230.688
L383.931 239.76
L384.389 248.832
L384.541 248.832
L384.693 251.856
L384.846 251.856
L384.998 254.88
L385.151 254.88
L385.303 248.832
L385.456 248.832
L385.608 245.808
L385.761 251.856
L385.913 248.832
L386.066 251.856
L386.218 248.832
L386.37 251.856
L386.675 251.856
L386.828 254.88
L387.133 248.832
L387.285 251.856
L387.743 251.856
L387.895 254.88
L388.048 245.808
L388.505 254.88
L388.657 251.856
L388.81 251.856
L388.962 254.88
L389.115 251.856
L389.267 251.856
L389.42 254.88
L389.725 212.544
L390.182 254.88
L390.334 248.832
L390.487 227.664
L390.64 248.832
L390.792 251.856
L390.944 251.856
L391.097 257.904
L391.249 254.88
L391.554 254.88
L391.859 248.832
L392.011 251.856
L392.164 245.808
L392.316 248.832
L393.079 248.832
L393.231 242.784
L393.384 242.784
L393.689 248.832
L394.146 248.832
L394.298 245.808
L394.451 248.832
L394.603 242.784
L395.061 251.856
L395.366 245.808
L395.823 245.808
L395.975 248.832
L396.128 248.832
L396.433 242.784
L396.585 245.808
L397.195 245.808
L397.348 242.784
L397.5 245.808
L397.652 245.808
L397.805 248.832
L398.11 248.832
L398.262 251.856
L399.482 251.856
L399.635 257.904
L399.787 248.832
L399.939 218.592
L400.092 245.808
L400.244 212.544
L400.397 212.544
L400.549 218.592
L400.702 251.856
L400.854 254.88
L401.007 251.856
L401.616 251.856
L401.769 248.832
L402.074 248.832
L402.226 245.808
L402.379 245.808
L402.531 248.832
L402.684 248.832
L402.836 251.856
L402.989 251.856
L403.141 248.832
L403.293 251.856
L403.446 251.856
L403.598 254.88
L403.903 254.88
L404.056 251.856
L404.208 257.904
L404.513 251.856
L404.666 254.88
L404.818 263.952
L404.97 251.856
L405.123 248.832
L405.275 251.856
L405.428 257.904
L405.58 248.832
L405.733 248.832
L406.038 254.88
L406.19 251.856
L406.648 251.856
L406.8 245.808
L406.952 248.832
L407.105 248.832
L407.257 251.856
L407.41 248.832
L407.562 251.856
L407.867 251.856
L408.02 248.832
L408.172 248.832
L408.325 245.808
L408.477 248.832
L408.63 248.832
L408.782 251.856
L409.087 251.856
L409.239 245.808
L409.544 245.808
L409.697 248.832
L409.849 245.808
L410.002 245.808
L410.154 248.832
L410.459 248.832
L410.611 251.856
L410.916 245.808
L411.069 245.808
L411.221 248.832
L411.374 245.808
L411.526 245.808
L411.679 242.784
L411.831 248.832
L411.984 248.832
L412.136 245.808
L412.289 248.832
L412.441 245.808
L412.593 248.832
L412.898 242.784
L413.203 251.856
L413.508 251.856
L413.661 260.928
L413.813 257.904
L413.966 257.904
L414.118 254.88
L414.27 260.928
L414.423 254.88
L414.728 260.928
L415.033 251.856
L415.185 254.88
L415.338 260.928
L415.49 254.88
L415.643 260.928
L415.948 251.856
L416.1 254.88
L416.252 254.88
L416.405 251.856
L416.557 251.856
L416.71 257.904
L416.862 251.856
L417.015 254.88
L417.167 251.856
L417.32 254.88
L417.625 254.88
L417.93 242.784
L418.082 236.736
L418.234 239.76
L418.387 233.712
L418.539 233.712
L418.692 236.736
L418.997 251.856
L419.149 248.832
L419.302 251.856
L419.454 248.832
L419.759 254.88
L419.911 251.856
L420.064 254.88
L420.216 254.88
L420.369 257.904
L420.674 248.832
L420.826 248.832
L420.979 209.52
L421.131 245.808
L421.741 245.808
L421.893 239.76
L422.046 242.784
L422.198 242.784
L422.351 245.808
L422.503 242.784
L422.656 242.784
L422.808 245.808
L422.961 245.808
L423.113 242.784
L423.266 242.784
L423.418 245.808
L423.57 245.808
L423.723 248.832
L423.875 242.784
L424.028 242.784
L424.18 245.808
L424.333 239.76
L424.638 239.76
L424.79 245.808
L424.943 239.76
L425.095 239.76
L425.248 242.784
L425.4 239.76
L425.552 245.808
L425.705 239.76
L425.857 242.784
L426.01 239.76
L426.162 242.784
L426.315 239.76
L426.467 242.784
L426.62 239.76
L426.772 242.784
L427.077 242.784
L427.23 245.808
L427.382 239.76
L427.839 239.76
L427.992 242.784
L428.144 248.832
L428.297 245.808
L428.449 248.832
L428.602 254.88
L428.754 251.856
L428.907 251.856
L429.059 248.832
L429.211 254.88
L429.364 248.832
L429.516 257.904
L429.669 251.856
L429.821 251.856
L429.974 248.832
L430.126 248.832
L430.279 242.784
L430.431 251.856
L430.584 251.856
L430.736 254.88
L431.041 254.88
L431.193 260.928
L431.346 257.904
L431.498 257.904
L431.651 254.88
L431.803 248.832
L431.956 251.856
L432.108 248.832
L432.261 257.904
L432.413 254.88
L432.718 254.88
L432.87 248.832
L433.175 260.928
L433.328 260.928
L433.48 254.88
L433.633 254.88
L433.785 251.856
L434.09 257.904
L434.395 257.904
L434.548 263.952
L434.852 263.952
L435.005 260.928
L435.157 260.928
L435.462 251.856
L435.615 254.88
L435.92 254.88
L436.072 257.904
L436.377 251.856
L436.834 251.856
L436.987 254.88
L437.139 254.88
L437.292 251.856
L437.444 251.856
L437.597 248.832
L437.902 248.832
L438.054 251.856
L438.207 248.832
L438.816 248.832
L438.969 251.856
L439.426 251.856
L439.579 248.832
L439.884 254.88
L440.036 245.808
L440.189 254.88
L440.341 251.856
L440.646 257.904
L440.798 251.856
L440.951 251.856
L441.103 254.88
L441.256 251.856
L441.408 251.856
L441.561 248.832
L441.713 254.88
L441.866 248.832
L442.018 254.88
L442.17 251.856
L443.085 251.856
L443.238 257.904
L443.39 254.88
L443.543 254.88
L443.848 260.928
L444 257.904
L444.152 263.952
L444.305 260.928
L444.457 260.928
L444.61 257.904
L444.762 257.904
L444.915 263.952
L445.067 263.952
L445.372 254.88
L445.677 254.88
L445.83 257.904
L445.982 254.88
L446.134 257.904
L446.287 263.952
L446.592 251.856
L446.744 254.88
L446.897 260.928
L447.049 254.88
L447.202 257.904
L447.354 254.88
L447.507 257.904
L447.659 254.88
L447.964 260.928
L448.116 251.856
L448.269 254.88
L448.574 248.832
L448.726 248.832
L449.031 254.88
L449.184 251.856
L449.336 245.808
L449.489 245.808
L449.641 248.832
L450.251 248.832
L450.403 251.856
L450.556 251.856
L450.708 254.88
L451.013 248.832
L451.166 251.856
L451.318 248.832
L451.47 251.856
L451.623 248.832
L451.775 251.856
L451.928 248.832
L452.08 248.832
L452.233 251.856
L452.385 251.856
L452.538 245.808
L452.69 245.808
L452.843 248.832
L452.995 245.808
L453.3 251.856
L453.452 248.832
L453.605 248.832
L453.757 245.808
L453.91 248.832
L454.062 245.808
L454.215 245.808
L454.367 248.832
L454.52 242.784
L454.825 248.832
L455.13 248.832
L455.282 251.856
L455.434 248.832
L455.587 251.856
L455.739 248.832
L456.654 248.832
L456.807 254.88
L456.959 254.88
L457.111 245.808
L457.264 251.856
L457.416 245.808
L457.569 248.832
L457.721 245.808
L457.874 248.832
L458.026 245.808
L458.179 245.808
L458.331 248.832
L458.484 248.832
L458.636 245.808
L458.789 251.856
L459.093 245.808
L459.398 251.856
L459.551 245.808
L459.703 245.808
L459.856 248.832
L460.008 245.808
L460.313 245.808
L460.466 251.856
L460.77 245.808
L460.923 245.808
L461.075 242.784
L461.38 242.784
L461.533 245.808
L461.685 245.808
L461.99 239.76
L462.143 239.76
L462.295 236.736
L462.448 242.784
L462.6 239.76
L462.752 239.76
L462.905 245.808
L463.057 230.688
L463.21 239.76
L463.82 239.76
L463.972 236.736
L464.277 242.784
L464.43 242.784
L464.582 245.808
L464.734 242.784
L464.887 242.784
L465.039 245.808
L465.192 242.784
L465.344 245.808
L465.497 242.784
L465.649 245.808
L465.802 242.784
L466.107 242.784
L466.411 248.832
L466.564 239.76
L466.716 245.808
L466.869 245.808
L467.174 239.76
L467.326 230.688
L467.479 242.784
L467.631 236.736
L467.784 239.76
L467.936 233.712
L468.089 239.76
L468.241 233.712
L468.394 233.712
L468.546 239.76
L468.698 239.76
L469.003 245.808
L469.308 239.76
L469.613 248.832
L469.766 245.808
L469.918 248.832
L470.07 245.808
L470.223 248.832
L470.528 248.832
L470.68 251.856
L470.833 245.808
L470.985 248.832
L471.29 242.784
L471.443 245.808
L471.595 251.856
L471.748 242.784
L471.9 257.904
L472.052 254.88
L472.357 254.88
L472.51 251.856
L472.662 251.856
L472.815 254.88
L472.967 233.712
L473.12 257.904
L473.272 251.856
L473.425 254.88
L473.882 254.88
L474.034 251.856
L474.339 251.856
L474.644 260.928
L474.797 254.88
L474.949 254.88
L475.102 257.904
L475.254 251.856
L475.407 251.856
L475.711 260.928
L476.016 254.88
L476.169 254.88
L476.321 251.856
L476.474 263.952
L476.626 254.88
L476.779 260.928
L476.931 257.904
L477.084 260.928
L477.236 257.904
L477.389 263.952
L477.541 260.928
L477.693 260.928
L477.846 257.904
L477.998 260.928
L478.151 257.904
L478.303 257.904
L478.456 254.88
L478.761 263.952
L479.066 257.904
L479.218 260.928
L479.37 251.856
L479.523 254.88
L479.675 254.88
L479.828 257.904
L479.98 251.856
L480.133 254.88
L480.285 254.88
L480.438 257.904
L480.59 251.856
L480.743 254.88
L480.895 248.832
L481.048 251.856
L481.2 248.832
L481.505 254.88
L481.81 248.832
L481.962 251.856
L482.572 251.856
L482.725 248.832
L482.877 251.856
L483.03 251.856
L483.334 245.808
L483.487 248.832
L483.639 245.808
L483.792 248.832
L483.944 248.832
L484.097 251.856
L484.249 242.784
L484.402 248.832
L484.707 248.832
L484.859 245.808
L485.011 251.856
L485.164 251.856
L485.316 248.832
L485.469 251.856
L485.621 245.808
L485.774 245.808
L486.079 251.856
L486.231 248.832
L486.384 251.856
L486.536 260.928
L486.689 254.88
L486.841 257.904
L486.993 251.856
L487.146 251.856
L487.298 254.88
L487.451 254.88
L487.603 251.856
L487.756 257.904
L488.061 251.856
L488.213 251.856
L488.366 254.88
L488.518 254.88
L488.67 257.904
L488.823 251.856
L488.975 251.856
L489.128 248.832
L489.28 251.856
L489.738 251.856
L489.89 254.88
L490.043 251.856
L490.195 251.856
L490.348 254.88
L490.652 254.88
L490.805 248.832
L490.957 251.856
L491.415 251.856
L491.567 248.832
L491.72 254.88
L492.025 248.832
L492.177 254.88
L492.33 254.88
L492.482 257.904
L492.634 257.904
L492.787 251.856
L492.939 251.856
L493.244 257.904
L493.397 251.856
L493.549 257.904
L493.702 254.88
L493.854 257.904
L494.007 251.856
L494.159 251.856
L494.311 248.832
L494.464 242.784
L494.616 248.832
L494.769 242.784
L494.921 248.832
L495.074 248.832
L495.226 242.784
L495.379 245.808
L495.531 239.76
L495.684 242.784
L495.989 242.784
L496.141 236.736
L496.293 239.76
L496.903 239.76
L497.056 233.712
L497.208 239.76
L497.666 239.76
L497.818 236.736
L498.275 236.736
L498.428 233.712
L498.58 236.736
L498.733 233.712
L498.885 233.712
L499.038 239.76
L499.19 236.736
L499.343 239.76
L499.495 233.712
L499.648 236.736
L499.8 236.736
L499.952 233.712
L500.105 236.736
L500.257 236.736
L500.41 233.712
L500.562 236.736
L500.715 236.736
L501.02 248.832
L501.63 248.832
L501.782 254.88
L501.934 248.832
L502.239 254.88
L502.392 251.856
L502.544 251.856
L502.697 257.904
L503.002 251.856
L503.307 251.856
L503.459 254.88
L503.611 251.856
L503.764 251.856
L503.916 254.88
L504.069 251.856
L504.221 254.88
L504.374 251.856
L504.526 254.88
L504.679 254.88
L504.831 248.832
L504.984 251.856
L505.136 251.856
L505.289 254.88
L505.746 254.88
L505.898 251.856
L506.051 254.88
L506.203 245.808
L506.508 254.88
L506.813 254.88
L506.966 251.856
L507.118 251.856
L507.27 257.904
L507.423 248.832
L507.575 254.88
L507.728 251.856
L507.88 251.856
L508.033 248.832
L508.185 248.832
L508.49 242.784
L508.643 206.496
L508.795 239.76
L508.948 239.76
L509.1 242.784
L509.252 239.76
L509.557 239.76
L509.71 242.784
L510.015 236.736
L510.167 230.688
L510.32 239.76
L510.472 239.76
L510.625 242.784
L511.082 242.784
L511.234 239.76
L511.387 239.76
L511.539 245.808
L511.844 239.76
L512.149 239.76
L512.302 236.736
L512.454 239.76
L512.607 236.736
L512.759 236.736
L513.064 242.784
L513.216 239.76
L513.369 239.76
L513.521 236.736
L513.674 239.76
L513.826 236.736
L514.131 236.736
L514.284 239.76
L514.436 236.736
L514.741 236.736
L514.893 239.76
L515.046 236.736
L515.198 239.76
L515.351 239.76
L515.656 245.808
L515.808 251.856
L516.113 251.856
L516.418 260.928
L516.57 254.88
L516.723 260.928
L516.875 254.88
L517.028 257.904
L517.18 254.88
L517.333 254.88
L517.638 260.928
L517.79 254.88
L517.943 254.88
L518.095 257.904
L518.248 257.904
L518.4 251.856
L518.4 251.856" style="fill:none;stroke:#0000ff;stroke-linecap:square;"/>
   </g>
   <g id="line2d_2">
    <path clip-path="url(#pcb2bf987bf)" d="
M72 88.56
L518.4 88.56" style="fill:none;stroke:#ff0000;stroke-linecap:square;"/>
   </g>
   <g id="matplotlib.axis_1">
    <g id="xtick_1">
     <g id="line2d_3">
      <path clip-path="url(#pcb2bf987bf)" d="
M115.908 345.6
L115.908 43.2" style="fill:none;stroke:#000000;stroke-dasharray:1.000000,3.000000;stroke-dashoffset:0.0;stroke-width:0.5;"/>
     </g>
     <g id="line2d_4">
      <defs>
       <path d="
M0 0
L0 -4" id="m93b0483c22" style="stroke:#000000;stroke-width:0.5;"/>
      </defs>
      <g>
       <use style="stroke:#000000;stroke-width:0.5;" x="115.908027321" xlink:href="#m93b0483c22" y="345.6"/>
      </g>
     </g>
     <g id="line2d_5">
      <defs>
       <path d="
M0 0
L0 4" id="m741efc42ff" style="stroke:#000000;stroke-width:0.5;"/>
      </defs>
      <g>
       <use style="stroke:#000000;stroke-width:0.5;" x="115.908027321" xlink:href="#m741efc42ff" y="43.2"/>
      </g>
     </g>
     <g id="text_1">
      <!-- Jun20 -->
      <defs>
       <path d="
M54.8906 33.0156
L54.8906 0
L45.9062 0
L45.9062 32.7188
Q45.9062 40.4844 42.875 44.3281
Q39.8438 48.1875 33.7969 48.1875
Q26.5156 48.1875 22.3125 43.5469
Q18.1094 38.9219 18.1094 30.9062
L18.1094 0
L9.07812 0
L9.07812 54.6875
L18.1094 54.6875
L18.1094 46.1875
Q21.3438 51.125 25.7031 53.5625
Q30.0781 56 35.7969 56
Q45.2188 56 50.0469 50.1719
Q54.8906 44.3438 54.8906 33.0156" id="BitstreamVeraSans-Roman-6e"/>
       <path d="
M19.1875 8.29688
L53.6094 8.29688
L53.6094 0
L7.32812 0
L7.32812 8.29688
Q12.9375 14.1094 22.625 23.8906
Q32.3281 33.6875 34.8125 36.5312
Q39.5469 41.8438 41.4219 45.5312
Q43.3125 49.2188 43.3125 52.7812
Q43.3125 58.5938 39.2344 62.25
Q35.1562 65.9219 28.6094 65.9219
Q23.9688 65.9219 18.8125 64.3125
Q13.6719 62.7031 7.8125 59.4219
L7.8125 69.3906
Q13.7656 71.7812 18.9375 73
Q24.125 74.2188 28.4219 74.2188
Q39.75 74.2188 46.4844 68.5469
Q53.2188 62.8906 53.2188 53.4219
Q53.2188 48.9219 51.5312 44.8906
Q49.8594 40.875 45.4062 35.4062
Q44.1875 33.9844 37.6406 27.2188
Q31.1094 20.4531 19.1875 8.29688" id="BitstreamVeraSans-Roman-32"/>
       <path d="
M31.7812 66.4062
Q24.1719 66.4062 20.3281 58.9062
Q16.5 51.4219 16.5 36.375
Q16.5 21.3906 20.3281 13.8906
Q24.1719 6.39062 31.7812 6.39062
Q39.4531 6.39062 43.2812 13.8906
Q47.125 21.3906 47.125 36.375
Q47.125 51.4219 43.2812 58.9062
Q39.4531 66.4062 31.7812 66.4062
M31.7812 74.2188
Q44.0469 74.2188 50.5156 64.5156
Q56.9844 54.8281 56.9844 36.375
Q56.9844 17.9688 50.5156 8.26562
Q44.0469 -1.42188 31.7812 -1.42188
Q19.5312 -1.42188 13.0625 8.26562
Q6.59375 17.9688 6.59375 36.375
Q6.59375 54.8281 13.0625 64.5156
Q19.5312 74.2188 31.7812 74.2188" id="BitstreamVeraSans-Roman-30"/>
       <path d="
M8.5 21.5781
L8.5 54.6875
L17.4844 54.6875
L17.4844 21.9219
Q17.4844 14.1562 20.5 10.2656
Q23.5312 6.39062 29.5938 6.39062
Q36.8594 6.39062 41.0781 11.0312
Q45.3125 15.6719 45.3125 23.6875
L45.3125 54.6875
L54.2969 54.6875
L54.2969 0
L45.3125 0
L45.3125 8.40625
Q42.0469 3.42188 37.7188 1
Q33.4062 -1.42188 27.6875 -1.42188
Q18.2656 -1.42188 13.375 4.4375
Q8.5 10.2969 8.5 21.5781" id="BitstreamVeraSans-Roman-75"/>
       <path d="
M9.8125 72.9062
L19.6719 72.9062
L19.6719 5.07812
Q19.6719 -8.10938 14.6719 -14.0625
Q9.67188 -20.0156 -1.42188 -20.0156
L-5.17188 -20.0156
L-5.17188 -11.7188
L-2.09375 -11.7188
Q4.4375 -11.7188 7.125 -8.04688
Q9.8125 -4.39062 9.8125 5.07812
z
" id="BitstreamVeraSans-Roman-4a"/>
      </defs>
      <g transform="translate(85.3506675618 374.418402885)rotate(-30.0)scale(0.12 -0.12)">
       <use xlink:href="#BitstreamVeraSans-Roman-4a"/>
       <use x="29.4921875" xlink:href="#BitstreamVeraSans-Roman-75"/>
       <use x="92.87109375" xlink:href="#BitstreamVeraSans-Roman-6e"/>
       <use x="156.25" xlink:href="#BitstreamVeraSans-Roman-32"/>
       <use x="219.873046875" xlink:href="#BitstreamVeraSans-Roman-30"/>
      </g>
     </g>
    </g>
    <g id="xtick_2">
     <g id="line2d_6">
      <path clip-path="url(#pcb2bf987bf)" d="
M218.36 345.6
L218.36 43.2" style="fill:none;stroke:#000000;stroke-dasharray:1.000000,3.000000;stroke-dashoffset:0.0;stroke-width:0.5;"/>
     </g>
     <g id="line2d_7">
      <g>
       <use style="stroke:#000000;stroke-width:0.5;" x="218.360486338" xlink:href="#m93b0483c22" y="345.6"/>
      </g>
     </g>
     <g id="line2d_8">
      <g>
       <use style="stroke:#000000;stroke-width:0.5;" x="218.360486338" xlink:href="#m741efc42ff" y="43.2"/>
      </g>
     </g>
     <g id="text_2">
      <!-- Jun27 -->
      <defs>
       <path d="
M8.20312 72.9062
L55.0781 72.9062
L55.0781 68.7031
L28.6094 0
L18.3125 0
L43.2188 64.5938
L8.20312 64.5938
z
" id="BitstreamVeraSans-Roman-37"/>
      </defs>
      <g transform="translate(188.00122989 374.304027885)rotate(-30.0)scale(0.12 -0.12)">
       <use xlink:href="#BitstreamVeraSans-Roman-4a"/>
       <use x="29.4921875" xlink:href="#BitstreamVeraSans-Roman-75"/>
       <use x="92.87109375" xlink:href="#BitstreamVeraSans-Roman-6e"/>
       <use x="156.25" xlink:href="#BitstreamVeraSans-Roman-32"/>
       <use x="219.873046875" xlink:href="#BitstreamVeraSans-Roman-37"/>
      </g>
     </g>
    </g>
    <g id="xtick_3">
     <g id="line2d_9">
      <path clip-path="url(#pcb2bf987bf)" d="
M320.813 345.6
L320.813 43.2" style="fill:none;stroke:#000000;stroke-dasharray:1.000000,3.000000;stroke-dashoffset:0.0;stroke-width:0.5;"/>
     </g>
     <g id="line2d_10">
      <g>
       <use style="stroke:#000000;stroke-width:0.5;" x="320.812945355" xlink:href="#m93b0483c22" y="345.6"/>
      </g>
     </g>
     <g id="line2d_11">
      <g>
       <use style="stroke:#000000;stroke-width:0.5;" x="320.812945355" xlink:href="#m741efc42ff" y="43.2"/>
      </g>
     </g>
     <g id="text_3">
      <!-- Jul04 -->
      <defs>
       <path d="
M37.7969 64.3125
L12.8906 25.3906
L37.7969 25.3906
z

M35.2031 72.9062
L47.6094 72.9062
L47.6094 25.3906
L58.0156 25.3906
L58.0156 17.1875
L47.6094 17.1875
L47.6094 0
L37.7969 0
L37.7969 17.1875
L4.89062 17.1875
L4.89062 26.7031
z
" id="BitstreamVeraSans-Roman-34"/>
       <path d="
M9.42188 75.9844
L18.4062 75.9844
L18.4062 0
L9.42188 0
z
" id="BitstreamVeraSans-Roman-6c"/>
      </defs>
      <g transform="translate(293.847425958 372.344652885)rotate(-30.0)scale(0.12 -0.12)">
       <use xlink:href="#BitstreamVeraSans-Roman-4a"/>
       <use x="29.4921875" xlink:href="#BitstreamVeraSans-Roman-75"/>
       <use x="92.87109375" xlink:href="#BitstreamVeraSans-Roman-6c"/>
       <use x="120.654296875" xlink:href="#BitstreamVeraSans-Roman-30"/>
       <use x="184.27734375" xlink:href="#BitstreamVeraSans-Roman-34"/>
      </g>
     </g>
    </g>
    <g id="xtick_4">
     <g id="line2d_12">
      <path clip-path="url(#pcb2bf987bf)" d="
M423.265 345.6
L423.265 43.2" style="fill:none;stroke:#000000;stroke-dasharray:1.000000,3.000000;stroke-dashoffset:0.0;stroke-width:0.5;"/>
     </g>
     <g id="line2d_13">
      <g>
       <use style="stroke:#000000;stroke-width:0.5;" x="423.26540437" xlink:href="#m93b0483c22" y="345.6"/>
      </g>
     </g>
     <g id="line2d_14">
      <g>
       <use style="stroke:#000000;stroke-width:0.5;" x="423.26540437" xlink:href="#m741efc42ff" y="43.2"/>
      </g>
     </g>
     <g id="text_4">
      <!-- Jul11 -->
      <defs>
       <path d="
M12.4062 8.29688
L28.5156 8.29688
L28.5156 63.9219
L10.9844 60.4062
L10.9844 69.3906
L28.4219 72.9062
L38.2812 72.9062
L38.2812 8.29688
L54.3906 8.29688
L54.3906 0
L12.4062 0
z
" id="BitstreamVeraSans-Roman-31"/>
      </defs>
      <g transform="translate(396.676606023 372.127152885)rotate(-30.0)scale(0.12 -0.12)">
       <use xlink:href="#BitstreamVeraSans-Roman-4a"/>
       <use x="29.4921875" xlink:href="#BitstreamVeraSans-Roman-75"/>
       <use x="92.87109375" xlink:href="#BitstreamVeraSans-Roman-6c"/>
       <use x="120.654296875" xlink:href="#BitstreamVeraSans-Roman-31"/>
       <use x="184.27734375" xlink:href="#BitstreamVeraSans-Roman-31"/>
      </g>
     </g>
    </g>
   </g>
   <g id="matplotlib.axis_2">
    <g id="ytick_1">
     <g id="line2d_15">
      <path clip-path="url(#pcb2bf987bf)" d="
M72 345.6
L518.4 345.6" style="fill:none;stroke:#000000;stroke-dasharray:1.000000,3.000000;stroke-dashoffset:0.0;stroke-width:0.5;"/>
     </g>
     <g id="line2d_16">
      <defs>
       <path d="
M0 0
L4 0" id="m728421d6d4" style="stroke:#000000;stroke-width:0.5;"/>
      </defs>
      <g>
       <use style="stroke:#000000;stroke-width:0.5;" x="72.0" xlink:href="#m728421d6d4" y="345.6"/>
      </g>
     </g>
     <g id="line2d_17">
      <defs>
       <path d="
M0 0
L-4 0" id="mcb0005524f" style="stroke:#000000;stroke-width:0.5;"/>
      </defs>
      <g>
       <use style="stroke:#000000;stroke-width:0.5;" x="518.4" xlink:href="#mcb0005524f" y="345.6"/>
      </g>
     </g>
     <g id="text_5">
      <!-- 0 -->
      <g transform="translate(61.953125 348.91125)scale(0.12 -0.12)">
       <use xlink:href="#BitstreamVeraSans-Roman-30"/>
      </g>
     </g>
    </g>
    <g id="ytick_2">
     <g id="line2d_18">
      <path clip-path="url(#pcb2bf987bf)" d="
M72 285.12
L518.4 285.12" style="fill:none;stroke:#000000;stroke-dasharray:1.000000,3.000000;stroke-dashoffset:0.0;stroke-width:0.5;"/>
     </g>
     <g id="line2d_19">
      <g>
       <use style="stroke:#000000;stroke-width:0.5;" x="72.0" xlink:href="#m728421d6d4" y="285.12"/>
      </g>
     </g>
     <g id="line2d_20">
      <g>
       <use style="stroke:#000000;stroke-width:0.5;" x="518.4" xlink:href="#mcb0005524f" y="285.12"/>
      </g>
     </g>
     <g id="text_6">
      <!-- 20 -->
      <g transform="translate(54.40625 288.43125)scale(0.12 -0.12)">
       <use xlink:href="#BitstreamVeraSans-Roman-32"/>
       <use x="63.623046875" xlink:href="#BitstreamVeraSans-Roman-30"/>
      </g>
     </g>
    </g>
    <g id="ytick_3">
     <g id="line2d_21">
      <path clip-path="url(#pcb2bf987bf)" d="
M72 224.64
L518.4 224.64" style="fill:none;stroke:#000000;stroke-dasharray:1.000000,3.000000;stroke-dashoffset:0.0;stroke-width:0.5;"/>
     </g>
     <g id="line2d_22">
      <g>
       <use style="stroke:#000000;stroke-width:0.5;" x="72.0" xlink:href="#m728421d6d4" y="224.64"/>
      </g>
     </g>
     <g id="line2d_23">
      <g>
       <use style="stroke:#000000;stroke-width:0.5;" x="518.4" xlink:href="#mcb0005524f" y="224.64"/>
      </g>
     </g>
     <g id="text_7">
      <!-- 40 -->
      <g transform="translate(54.11375 227.95125)scale(0.12 -0.12)">
       <use xlink:href="#BitstreamVeraSans-Roman-34"/>
       <use x="63.623046875" xlink:href="#BitstreamVeraSans-Roman-30"/>
      </g>
     </g>
    </g>
    <g id="ytick_4">
     <g id="line2d_24">
      <path clip-path="url(#pcb2bf987bf)" d="
M72 164.16
L518.4 164.16" style="fill:none;stroke:#000000;stroke-dasharray:1.000000,3.000000;stroke-dashoffset:0.0;stroke-width:0.5;"/>
     </g>
     <g id="line2d_25">
      <g>
       <use style="stroke:#000000;stroke-width:0.5;" x="72.0" xlink:href="#m728421d6d4" y="164.16"/>
      </g>
     </g>
     <g id="line2d_26">
      <g>
       <use style="stroke:#000000;stroke-width:0.5;" x="518.4" xlink:href="#mcb0005524f" y="164.16"/>
      </g>
     </g>
     <g id="text_8">
      <!-- 60 -->
      <defs>
       <path d="
M33.0156 40.375
Q26.375 40.375 22.4844 35.8281
Q18.6094 31.2969 18.6094 23.3906
Q18.6094 15.5312 22.4844 10.9531
Q26.375 6.39062 33.0156 6.39062
Q39.6562 6.39062 43.5312 10.9531
Q47.4062 15.5312 47.4062 23.3906
Q47.4062 31.2969 43.5312 35.8281
Q39.6562 40.375 33.0156 40.375
M52.5938 71.2969
L52.5938 62.3125
Q48.875 64.0625 45.0938 64.9844
Q41.3125 65.9219 37.5938 65.9219
Q27.8281 65.9219 22.6719 59.3281
Q17.5312 52.7344 16.7969 39.4062
Q19.6719 43.6562 24.0156 45.9219
Q28.375 48.1875 33.5938 48.1875
Q44.5781 48.1875 50.9531 41.5156
Q57.3281 34.8594 57.3281 23.3906
Q57.3281 12.1562 50.6875 5.35938
Q44.0469 -1.42188 33.0156 -1.42188
Q20.3594 -1.42188 13.6719 8.26562
Q6.98438 17.9688 6.98438 36.375
Q6.98438 53.6562 15.1875 63.9375
Q23.3906 74.2188 37.2031 74.2188
Q40.9219 74.2188 44.7031 73.4844
Q48.4844 72.75 52.5938 71.2969" id="BitstreamVeraSans-Roman-36"/>
      </defs>
      <g transform="translate(54.365 167.47125)scale(0.12 -0.12)">
       <use xlink:href="#BitstreamVeraSans-Roman-36"/>
       <use x="63.623046875" xlink:href="#BitstreamVeraSans-Roman-30"/>
      </g>
     </g>
    </g>
    <g id="ytick_5">
     <g id="line2d_27">
      <path clip-path="url(#pcb2bf987bf)" d="
M72 103.68
L518.4 103.68" style="fill:none;stroke:#000000;stroke-dasharray:1.000000,3.000000;stroke-dashoffset:0.0;stroke-width:0.5;"/>
     </g>
     <g id="line2d_28">
      <g>
       <use style="stroke:#000000;stroke-width:0.5;" x="72.0" xlink:href="#m728421d6d4" y="103.68"/>
      </g>
     </g>
     <g id="line2d_29">
      <g>
       <use style="stroke:#000000;stroke-width:0.5;" x="518.4" xlink:href="#mcb0005524f" y="103.68"/>
      </g>
     </g>
     <g id="text_9">
      <!-- 80 -->
      <defs>
       <path d="
M31.7812 34.625
Q24.75 34.625 20.7188 30.8594
Q16.7031 27.0938 16.7031 20.5156
Q16.7031 13.9219 20.7188 10.1562
Q24.75 6.39062 31.7812 6.39062
Q38.8125 6.39062 42.8594 10.1719
Q46.9219 13.9688 46.9219 20.5156
Q46.9219 27.0938 42.8906 30.8594
Q38.875 34.625 31.7812 34.625
M21.9219 38.8125
Q15.5781 40.375 12.0312 44.7188
Q8.5 49.0781 8.5 55.3281
Q8.5 64.0625 14.7188 69.1406
Q20.9531 74.2188 31.7812 74.2188
Q42.6719 74.2188 48.875 69.1406
Q55.0781 64.0625 55.0781 55.3281
Q55.0781 49.0781 51.5312 44.7188
Q48 40.375 41.7031 38.8125
Q48.8281 37.1562 52.7969 32.3125
Q56.7812 27.4844 56.7812 20.5156
Q56.7812 9.90625 50.3125 4.23438
Q43.8438 -1.42188 31.7812 -1.42188
Q19.7344 -1.42188 13.25 4.23438
Q6.78125 9.90625 6.78125 20.5156
Q6.78125 27.4844 10.7812 32.3125
Q14.7969 37.1562 21.9219 38.8125
M18.3125 54.3906
Q18.3125 48.7344 21.8438 45.5625
Q25.3906 42.3906 31.7812 42.3906
Q38.1406 42.3906 41.7188 45.5625
Q45.3125 48.7344 45.3125 54.3906
Q45.3125 60.0625 41.7188 63.2344
Q38.1406 66.4062 31.7812 66.4062
Q25.3906 66.4062 21.8438 63.2344
Q18.3125 60.0625 18.3125 54.3906" id="BitstreamVeraSans-Roman-38"/>
      </defs>
      <g transform="translate(54.340625 106.99125)scale(0.12 -0.12)">
       <use xlink:href="#BitstreamVeraSans-Roman-38"/>
       <use x="63.623046875" xlink:href="#BitstreamVeraSans-Roman-30"/>
      </g>
     </g>
    </g>
    <g id="ytick_6">
     <g id="line2d_30">
      <path clip-path="url(#pcb2bf987bf)" d="
M72 43.2
L518.4 43.2" style="fill:none;stroke:#000000;stroke-dasharray:1.000000,3.000000;stroke-dashoffset:0.0;stroke-width:0.5;"/>
     </g>
     <g id="line2d_31">
      <g>
       <use style="stroke:#000000;stroke-width:0.5;" x="72.0" xlink:href="#m728421d6d4" y="43.2"/>
      </g>
     </g>
     <g id="line2d_32">
      <g>
       <use style="stroke:#000000;stroke-width:0.5;" x="518.4" xlink:href="#mcb0005524f" y="43.2"/>
      </g>
     </g>
     <g id="text_10">
      <!-- 100 -->
      <g transform="translate(47.21 46.51125)scale(0.12 -0.12)">
       <use xlink:href="#BitstreamVeraSans-Roman-31"/>
       <use x="63.623046875" xlink:href="#BitstreamVeraSans-Roman-30"/>
       <use x="127.24609375" xlink:href="#BitstreamVeraSans-Roman-30"/>
      </g>
     </g>
    </g>
    <g id="text_11">
     <!-- temperature (C) -->
     <defs>
      <path d="
M34.2812 27.4844
Q23.3906 27.4844 19.1875 25
Q14.9844 22.5156 14.9844 16.5
Q14.9844 11.7188 18.1406 8.90625
Q21.2969 6.10938 26.7031 6.10938
Q34.1875 6.10938 38.7031 11.4062
Q43.2188 16.7031 43.2188 25.4844
L43.2188 27.4844
z

M52.2031 31.2031
L52.2031 0
L43.2188 0
L43.2188 8.29688
Q40.1406 3.32812 35.5469 0.953125
Q30.9531 -1.42188 24.3125 -1.42188
Q15.9219 -1.42188 10.9531 3.29688
Q6 8.01562 6 15.9219
Q6 25.1406 12.1719 29.8281
Q18.3594 34.5156 30.6094 34.5156
L43.2188 34.5156
L43.2188 35.4062
Q43.2188 41.6094 39.1406 45
Q35.0625 48.3906 27.6875 48.3906
Q23 48.3906 18.5469 47.2656
Q14.1094 46.1406 10.0156 43.8906
L10.0156 52.2031
Q14.9375 54.1094 19.5781 55.0469
Q24.2188 56 28.6094 56
Q40.4844 56 46.3438 49.8438
Q52.2031 43.7031 52.2031 31.2031" id="BitstreamVeraSans-Roman-61"/>
      <path id="BitstreamVeraSans-Roman-20"/>
      <path d="
M8.01562 75.875
L15.8281 75.875
Q23.1406 64.3594 26.7812 53.3125
Q30.4219 42.2812 30.4219 31.3906
Q30.4219 20.4531 26.7812 9.375
Q23.1406 -1.70312 15.8281 -13.1875
L8.01562 -13.1875
Q14.5 -2 17.7031 9.0625
Q20.9062 20.125 20.9062 31.3906
Q20.9062 42.6719 17.7031 53.6562
Q14.5 64.6562 8.01562 75.875" id="BitstreamVeraSans-Roman-29"/>
      <path d="
M52 44.1875
Q55.375 50.25 60.0625 53.125
Q64.75 56 71.0938 56
Q79.6406 56 84.2812 50.0156
Q88.9219 44.0469 88.9219 33.0156
L88.9219 0
L79.8906 0
L79.8906 32.7188
Q79.8906 40.5781 77.0938 44.375
Q74.3125 48.1875 68.6094 48.1875
Q61.625 48.1875 57.5625 43.5469
Q53.5156 38.9219 53.5156 30.9062
L53.5156 0
L44.4844 0
L44.4844 32.7188
Q44.4844 40.625 41.7031 44.4062
Q38.9219 48.1875 33.1094 48.1875
Q26.2188 48.1875 22.1562 43.5312
Q18.1094 38.875 18.1094 30.9062
L18.1094 0
L9.07812 0
L9.07812 54.6875
L18.1094 54.6875
L18.1094 46.1875
Q21.1875 51.2188 25.4844 53.6094
Q29.7812 56 35.6875 56
Q41.6562 56 45.8281 52.9688
Q50 49.9531 52 44.1875" id="BitstreamVeraSans-Roman-6d"/>
      <path d="
M64.4062 67.2812
L64.4062 56.8906
Q59.4219 61.5312 53.7812 63.8125
Q48.1406 66.1094 41.7969 66.1094
Q29.2969 66.1094 22.6562 58.4688
Q16.0156 50.8281 16.0156 36.375
Q16.0156 21.9688 22.6562 14.3281
Q29.2969 6.6875 41.7969 6.6875
Q48.1406 6.6875 53.7812 8.98438
Q59.4219 11.2812 64.4062 15.9219
L64.4062 5.60938
Q59.2344 2.09375 53.4375 0.328125
Q47.6562 -1.42188 41.2188 -1.42188
Q24.6562 -1.42188 15.125 8.70312
Q5.60938 18.8438 5.60938 36.375
Q5.60938 53.9531 15.125 64.0781
Q24.6562 74.2188 41.2188 74.2188
Q47.75 74.2188 53.5312 72.4844
Q59.3281 70.75 64.4062 67.2812" id="BitstreamVeraSans-Roman-43"/>
      <path d="
M31 75.875
Q24.4688 64.6562 21.2812 53.6562
Q18.1094 42.6719 18.1094 31.3906
Q18.1094 20.125 21.3125 9.0625
Q24.5156 -2 31 -13.1875
L23.1875 -13.1875
Q15.875 -1.70312 12.2344 9.375
Q8.59375 20.4531 8.59375 31.3906
Q8.59375 42.2812 12.2031 53.3125
Q15.8281 64.3594 23.1875 75.875
z
" id="BitstreamVeraSans-Roman-28"/>
      <path d="
M56.2031 29.5938
L56.2031 25.2031
L14.8906 25.2031
Q15.4844 15.9219 20.4844 11.0625
Q25.4844 6.20312 34.4219 6.20312
Q39.5938 6.20312 44.4531 7.46875
Q49.3125 8.73438 54.1094 11.2812
L54.1094 2.78125
Q49.2656 0.734375 44.1875 -0.34375
Q39.1094 -1.42188 33.8906 -1.42188
Q20.7969 -1.42188 13.1562 6.1875
Q5.51562 13.8125 5.51562 26.8125
Q5.51562 40.2344 12.7656 48.1094
Q20.0156 56 32.3281 56
Q43.3594 56 49.7812 48.8906
Q56.2031 41.7969 56.2031 29.5938
M47.2188 32.2344
Q47.125 39.5938 43.0938 43.9844
Q39.0625 48.3906 32.4219 48.3906
Q24.9062 48.3906 20.3906 44.1406
Q15.875 39.8906 15.1875 32.1719
z
" id="BitstreamVeraSans-Roman-65"/>
      <path d="
M18.3125 70.2188
L18.3125 54.6875
L36.8125 54.6875
L36.8125 47.7031
L18.3125 47.7031
L18.3125 18.0156
Q18.3125 11.3281 20.1406 9.42188
Q21.9688 7.51562 27.5938 7.51562
L36.8125 7.51562
L36.8125 0
L27.5938 0
Q17.1875 0 13.2344 3.875
Q9.28125 7.76562 9.28125 18.0156
L9.28125 47.7031
L2.6875 47.7031
L2.6875 54.6875
L9.28125 54.6875
L9.28125 70.2188
z
" id="BitstreamVeraSans-Roman-74"/>
      <path d="
M41.1094 46.2969
Q39.5938 47.1719 37.8125 47.5781
Q36.0312 48 33.8906 48
Q26.2656 48 22.1875 43.0469
Q18.1094 38.0938 18.1094 28.8125
L18.1094 0
L9.07812 0
L9.07812 54.6875
L18.1094 54.6875
L18.1094 46.1875
Q20.9531 51.1719 25.4844 53.5781
Q30.0312 56 36.5312 56
Q37.4531 56 38.5781 55.875
Q39.7031 55.7656 41.0625 55.5156
z
" id="BitstreamVeraSans-Roman-72"/>
      <path d="
M18.1094 8.20312
L18.1094 -20.7969
L9.07812 -20.7969
L9.07812 54.6875
L18.1094 54.6875
L18.1094 46.3906
Q20.9531 51.2656 25.2656 53.625
Q29.5938 56 35.5938 56
Q45.5625 56 51.7812 48.0938
Q58.0156 40.1875 58.0156 27.2969
Q58.0156 14.4062 51.7812 6.48438
Q45.5625 -1.42188 35.5938 -1.42188
Q29.5938 -1.42188 25.2656 0.953125
Q20.9531 3.32812 18.1094 8.20312
M48.6875 27.2969
Q48.6875 37.2031 44.6094 42.8438
Q40.5312 48.4844 33.4062 48.4844
Q26.2656 48.4844 22.1875 42.8438
Q18.1094 37.2031 18.1094 27.2969
Q18.1094 17.3906 22.1875 11.75
Q26.2656 6.10938 33.4062 6.10938
Q40.5312 6.10938 44.6094 11.75
Q48.6875 17.3906 48.6875 27.2969" id="BitstreamVeraSans-Roman-70"/>
     </defs>
     <g transform="translate(39.714375 242.37375)rotate(-90.0)scale(0.12 -0.12)">
      <use xlink:href="#BitstreamVeraSans-Roman-74"/>
      <use x="39.208984375" xlink:href="#BitstreamVeraSans-Roman-65"/>
      <use x="100.732421875" xlink:href="#BitstreamVeraSans-Roman-6d"/>
      <use x="198.14453125" xlink:href="#BitstreamVeraSans-Roman-70"/>
      <use x="261.62109375" xlink:href="#BitstreamVeraSans-Roman-65"/>
      <use x="323.14453125" xlink:href="#BitstreamVeraSans-Roman-72"/>
      <use x="364.2578125" xlink:href="#BitstreamVeraSans-Roman-61"/>
      <use x="425.537109375" xlink:href="#BitstreamVeraSans-Roman-74"/>
      <use x="464.74609375" xlink:href="#BitstreamVeraSans-Roman-75"/>
      <use x="528.125" xlink:href="#BitstreamVeraSans-Roman-72"/>
      <use x="566.98828125" xlink:href="#BitstreamVeraSans-Roman-65"/>
      <use x="628.51171875" xlink:href="#BitstreamVeraSans-Roman-20"/>
      <use x="660.298828125" xlink:href="#BitstreamVeraSans-Roman-28"/>
      <use x="699.3125" xlink:href="#BitstreamVeraSans-Roman-43"/>
      <use x="769.13671875" xlink:href="#BitstreamVeraSans-Roman-29"/>
     </g>
    </g>
   </g>
   <g id="patch_3">
    <path d="
M72 43.2
L518.4 43.2" style="fill:none;stroke:#000000;"/>
   </g>
   <g id="patch_4">
    <path d="
M518.4 345.6
L518.4 43.2" style="fill:none;stroke:#000000;"/>
   </g>
   <g id="patch_5">
    <path d="
M72 345.6
L518.4 345.6" style="fill:none;stroke:#000000;"/>
   </g>
   <g id="patch_6">
    <path d="
M72 345.6
L72 43.2" style="fill:none;stroke:#000000;"/>
   </g>
   <g id="text_12">
    <!-- CPU critical temperature -->
    <defs>
     <path d="
M19.6719 64.7969
L19.6719 37.4062
L32.0781 37.4062
Q38.9688 37.4062 42.7188 40.9688
Q46.4844 44.5312 46.4844 51.125
Q46.4844 57.6719 42.7188 61.2344
Q38.9688 64.7969 32.0781 64.7969
z

M9.8125 72.9062
L32.0781 72.9062
Q44.3438 72.9062 50.6094 67.3594
Q56.8906 61.8125 56.8906 51.125
Q56.8906 40.3281 50.6094 34.8125
Q44.3438 29.2969 32.0781 29.2969
L19.6719 29.2969
L19.6719 0
L9.8125 0
z
" id="BitstreamVeraSans-Roman-50"/>
     <path d="
M9.42188 54.6875
L18.4062 54.6875
L18.4062 0
L9.42188 0
z

M9.42188 75.9844
L18.4062 75.9844
L18.4062 64.5938
L9.42188 64.5938
z
" id="BitstreamVeraSans-Roman-69"/>
     <path d="
M8.6875 72.9062
L18.6094 72.9062
L18.6094 28.6094
Q18.6094 16.8906 22.8438 11.7344
Q27.0938 6.59375 36.625 6.59375
Q46.0938 6.59375 50.3438 11.7344
Q54.5938 16.8906 54.5938 28.6094
L54.5938 72.9062
L64.5 72.9062
L64.5 27.3906
Q64.5 13.1406 57.4375 5.85938
Q50.3906 -1.42188 36.625 -1.42188
Q22.7969 -1.42188 15.7344 5.85938
Q8.6875 13.1406 8.6875 27.3906
z
" id="BitstreamVeraSans-Roman-55"/>
     <path d="
M48.7812 52.5938
L48.7812 44.1875
Q44.9688 46.2969 41.1406 47.3438
Q37.3125 48.3906 33.4062 48.3906
Q24.6562 48.3906 19.8125 42.8438
Q14.9844 37.3125 14.9844 27.2969
Q14.9844 17.2812 19.8125 11.7344
Q24.6562 6.20312 33.4062 6.20312
Q37.3125 6.20312 41.1406 7.25
Q44.9688 8.29688 48.7812 10.4062
L48.7812 2.09375
Q45.0156 0.34375 40.9844 -0.53125
Q36.9688 -1.42188 32.4219 -1.42188
Q20.0625 -1.42188 12.7812 6.34375
Q5.51562 14.1094 5.51562 27.2969
Q5.51562 40.6719 12.8594 48.3281
Q20.2188 56 33.0156 56
Q37.1562 56 41.1094 55.1406
Q45.0625 54.2969 48.7812 52.5938" id="BitstreamVeraSans-Roman-63"/>
    </defs>
    <g style="fill:#ff0000;" transform="translate(72.0 85.536)scale(0.12 -0.12)">
     <use xlink:href="#BitstreamVeraSans-Roman-43"/>
     <use x="69.82421875" xlink:href="#BitstreamVeraSans-Roman-50"/>
     <use x="130.126953125" xlink:href="#BitstreamVeraSans-Roman-55"/>
     <use x="203.3203125" xlink:href="#BitstreamVeraSans-Roman-20"/>
     <use x="235.107421875" xlink:href="#BitstreamVeraSans-Roman-63"/>
     <use x="290.087890625" xlink:href="#BitstreamVeraSans-Roman-72"/>
     <use x="331.201171875" xlink:href="#BitstreamVeraSans-Roman-69"/>
     <use x="358.984375" xlink:href="#BitstreamVeraSans-Roman-74"/>
     <use x="398.193359375" xlink:href="#BitstreamVeraSans-Roman-69"/>
     <use x="425.9765625" xlink:href="#BitstreamVeraSans-Roman-63"/>
     <use x="480.95703125" xlink:href="#BitstreamVeraSans-Roman-61"/>
     <use x="542.236328125" xlink:href="#BitstreamVeraSans-Roman-6c"/>
     <use x="570.01953125" xlink:href="#BitstreamVeraSans-Roman-20"/>
     <use x="601.806640625" xlink:href="#BitstreamVeraSans-Roman-74"/>
     <use x="641.015625" xlink:href="#BitstreamVeraSans-Roman-65"/>
     <use x="702.5390625" xlink:href="#BitstreamVeraSans-Roman-6d"/>
     <use x="799.951171875" xlink:href="#BitstreamVeraSans-Roman-70"/>
     <use x="863.427734375" xlink:href="#BitstreamVeraSans-Roman-65"/>
     <use x="924.951171875" xlink:href="#BitstreamVeraSans-Roman-72"/>
     <use x="966.064453125" xlink:href="#BitstreamVeraSans-Roman-61"/>
     <use x="1027.34375" xlink:href="#BitstreamVeraSans-Roman-74"/>
     <use x="1066.55273438" xlink:href="#BitstreamVeraSans-Roman-75"/>
     <use x="1129.93164062" xlink:href="#BitstreamVeraSans-Roman-72"/>
     <use x="1168.79492188" xlink:href="#BitstreamVeraSans-Roman-65"/>
    </g>
   </g>
   <g id="text_13">
    <!-- headnode -->
    <defs>
     <path d="
M45.4062 46.3906
L45.4062 75.9844
L54.3906 75.9844
L54.3906 0
L45.4062 0
L45.4062 8.20312
Q42.5781 3.32812 38.25 0.953125
Q33.9375 -1.42188 27.875 -1.42188
Q17.9688 -1.42188 11.7344 6.48438
Q5.51562 14.4062 5.51562 27.2969
Q5.51562 40.1875 11.7344 48.0938
Q17.9688 56 27.875 56
Q33.9375 56 38.25 53.625
Q42.5781 51.2656 45.4062 46.3906
M14.7969 27.2969
Q14.7969 17.3906 18.875 11.75
Q22.9531 6.10938 30.0781 6.10938
Q37.2031 6.10938 41.2969 11.75
Q45.4062 17.3906 45.4062 27.2969
Q45.4062 37.2031 41.2969 42.8438
Q37.2031 48.4844 30.0781 48.4844
Q22.9531 48.4844 18.875 42.8438
Q14.7969 37.2031 14.7969 27.2969" id="BitstreamVeraSans-Roman-64"/>
     <path d="
M30.6094 48.3906
Q23.3906 48.3906 19.1875 42.75
Q14.9844 37.1094 14.9844 27.2969
Q14.9844 17.4844 19.1562 11.8438
Q23.3438 6.20312 30.6094 6.20312
Q37.7969 6.20312 41.9844 11.8594
Q46.1875 17.5312 46.1875 27.2969
Q46.1875 37.0156 41.9844 42.7031
Q37.7969 48.3906 30.6094 48.3906
M30.6094 56
Q42.3281 56 49.0156 48.375
Q55.7188 40.7656 55.7188 27.2969
Q55.7188 13.875 49.0156 6.21875
Q42.3281 -1.42188 30.6094 -1.42188
Q18.8438 -1.42188 12.1719 6.21875
Q5.51562 13.875 5.51562 27.2969
Q5.51562 40.7656 12.1719 48.375
Q18.8438 56 30.6094 56" id="BitstreamVeraSans-Roman-6f"/>
     <path d="
M54.8906 33.0156
L54.8906 0
L45.9062 0
L45.9062 32.7188
Q45.9062 40.4844 42.875 44.3281
Q39.8438 48.1875 33.7969 48.1875
Q26.5156 48.1875 22.3125 43.5469
Q18.1094 38.9219 18.1094 30.9062
L18.1094 0
L9.07812 0
L9.07812 75.9844
L18.1094 75.9844
L18.1094 46.1875
Q21.3438 51.125 25.7031 53.5625
Q30.0781 56 35.7969 56
Q45.2188 56 50.0469 50.1719
Q54.8906 44.3438 54.8906 33.0156" id="BitstreamVeraSans-Roman-68"/>
    </defs>
    <g transform="translate(260.29125 38.2)scale(0.144 -0.144)">
     <use xlink:href="#BitstreamVeraSans-Roman-68"/>
     <use x="63.37890625" xlink:href="#BitstreamVeraSans-Roman-65"/>
     <use x="124.90234375" xlink:href="#BitstreamVeraSans-Roman-61"/>
     <use x="186.181640625" xlink:href="#BitstreamVeraSans-Roman-64"/>
     <use x="249.658203125" xlink:href="#BitstreamVeraSans-Roman-6e"/>
     <use x="313.037109375" xlink:href="#BitstreamVeraSans-Roman-6f"/>
     <use x="374.21875" xlink:href="#BitstreamVeraSans-Roman-64"/>
     <use x="437.6953125" xlink:href="#BitstreamVeraSans-Roman-65"/>
    </g>
   </g>
  </g>
 </g>
 <defs>
  <clipPath id="pcb2bf987bf">
   <rect height="302.4" width="446.4" x="72.0" y="43.2"/>
  </clipPath>
 </defs>
</svg>
