<?xml version="1.0" encoding="utf-8" standalone="no"?>
<!DOCTYPE svg PUBLIC "-//W3C//DTD SVG 1.1//EN"
  "http://www.w3.org/Graphics/SVG/1.1/DTD/svg11.dtd">
<!-- Created with matplotlib (http://matplotlib.org/) -->
<svg height="432pt" version="1.1" viewBox="0 0 576 432" width="576pt" xmlns="http://www.w3.org/2000/svg" xmlns:xlink="http://www.w3.org/1999/xlink">
 <defs>
  <style type="text/css">
*{stroke-linecap:butt;stroke-linejoin:round;}
  </style>
 </defs>
 <g id="figure_1">
  <g id="patch_1">
   <path d="
M0 432
L576 432
L576 0
L0 0
z
" style="fill:#ffffff;"/>
  </g>
  <g id="axes_1">
   <g id="patch_2">
    <path d="
M72 345.6
L518.4 345.6
L518.4 43.2
L72 43.2
z
" style="fill:#ffffff;"/>
   </g>
   <g id="line2d_1">
    <path clip-path="url(#pcb2bf987bf)" d="
M72 230.688
L72.4505 230.688
L72.6006 233.712
L72.7508 227.664
L72.9009 227.664
L73.0511 230.688
L73.3514 224.64
L73.5015 227.664
L73.6517 224.64
L73.8018 227.664
L73.952 227.664
L74.1021 230.688
L74.2524 230.688
L74.4024 227.664
L74.5526 230.688
L74.7027 227.664
L74.8529 230.688
L75.003 230.688
L75.1532 233.712
L75.3033 230.688
L75.4535 233.712
L75.6036 230.688
L75.9039 230.688
L76.0541 227.664
L76.2042 227.664
L76.5045 233.712
L76.6547 230.688
L76.955 236.736
L77.1051 230.688
L77.4054 236.736
L77.5558 233.712
L77.7058 233.712
L77.8559 236.736
L78.0061 233.712
L78.1562 233.712
L78.3064 239.76
L78.4565 236.736
L78.7568 236.736
L78.907 233.712
L79.0571 233.712
L79.2073 236.736
L79.3574 230.688
L79.5076 236.736
L79.6577 230.688
L79.8079 236.736
L79.958 233.712
L80.4085 233.712
L80.5586 236.736
L80.7088 233.712
L80.8589 236.736
L81.0091 233.712
L81.1592 236.736
L81.3094 233.712
L81.4595 236.736
L81.91 236.736
L82.0601 230.688
L82.2103 233.712
L82.3604 233.712
L82.5106 239.76
L82.6607 230.688
L82.8109 194.4
L82.961 236.736
L83.1112 233.712
L83.2614 236.736
L83.5618 236.736
L83.7118 233.712
L84.1623 233.712
L84.3124 227.664
L84.4626 233.712
L85.0632 233.712
L85.2133 227.664
L85.5136 233.712
L85.6638 230.688
L85.8139 233.712
L85.9641 233.712
L86.2644 227.664
L86.4145 230.688
L86.5647 230.688
L86.7148 233.712
L86.865 230.688
L87.0151 230.688
L87.1653 233.712
L87.916 233.712
L88.0662 230.688
L88.2163 230.688
L88.3665 227.664
L88.6668 233.712
L88.817 230.688
L89.1173 230.688
L89.2674 236.736
L89.4176 230.688
L89.5677 233.712
L89.7179 230.688
L89.868 233.712
L90.0182 233.712
L90.1683 227.664
L90.3185 233.712
L90.4686 230.688
L90.7689 236.736
L90.9191 233.712
L91.0692 236.736
L91.2194 236.736
L91.3695 230.688
L91.5197 239.76
L91.6698 233.712
L91.82 236.736
L91.9701 236.736
L92.1203 233.712
L92.5707 233.712
L92.7209 230.688
L92.871 236.736
L93.0212 236.736
L93.1713 230.688
L93.3215 233.712
L93.4716 239.76
L93.6218 233.712
L94.823 233.712
L94.9732 236.736
L95.2735 236.736
L95.4236 233.712
L95.5738 233.712
L95.7239 236.736
L95.8741 230.688
L96.0242 233.712
L96.1744 230.688
L96.3245 236.736
L96.4747 233.712
L96.6248 233.712
L96.775 236.736
L96.9251 233.712
L97.0753 233.712
L97.2254 230.688
L97.3756 230.688
L97.5257 233.712
L97.6759 230.688
L97.826 233.712
L97.9762 233.712
L98.2765 227.664
L98.5768 227.664
L98.7269 230.688
L98.8771 230.688
L99.0272 227.664
L99.4777 227.664
L99.7782 233.712
L100.078 227.664
L100.228 230.688
L100.379 227.664
L100.529 233.712
L100.679 227.664
L100.829 227.664
L100.979 224.64
L101.13 230.688
L101.43 230.688
L101.58 224.64
L101.73 227.664
L101.88 227.664
L102.03 224.64
L102.331 230.688
L102.481 230.688
L102.631 227.664
L102.781 227.664
L102.931 230.688
L103.231 230.688
L103.382 227.664
L103.532 230.688
L103.682 227.664
L103.832 230.688
L104.433 230.688
L104.583 227.664
L104.733 230.688
L105.334 230.688
L105.484 227.664
L105.784 227.664
L105.934 230.688
L106.084 230.688
L106.235 227.664
L106.385 230.688
L106.535 230.688
L106.685 233.712
L107.135 233.712
L107.286 230.688
L107.436 236.736
L107.736 227.664
L107.886 230.688
L108.487 230.688
L108.637 233.712
L108.787 230.688
L108.937 233.712
L109.087 233.712
L109.238 230.688
L109.388 236.736
L109.538 233.712
L109.988 233.712
L110.289 227.664
L110.439 227.664
L110.589 233.712
L110.739 230.688
L111.039 230.688
L111.19 227.664
L111.34 227.664
L111.49 224.64
L111.64 227.664
L111.94 227.664
L112.09 230.688
L112.241 227.664
L112.691 227.664
L112.841 230.688
L112.991 224.64
L113.141 227.664
L113.442 227.664
L113.592 224.64
L113.742 230.688
L114.042 224.64
L114.343 224.64
L114.493 230.688
L114.643 230.688
L114.793 227.664
L115.093 227.664
L115.244 224.64
L115.394 230.688
L115.544 230.688
L115.694 227.664
L115.844 227.664
L115.994 230.688
L116.145 227.664
L116.445 233.712
L116.745 227.664
L116.895 230.688
L117.196 224.64
L117.346 227.664
L117.946 227.664
L118.096 230.688
L118.247 227.664
L118.397 230.688
L119.598 230.688
L119.748 227.664
L119.898 230.688
L120.048 227.664
L120.199 227.664
L120.349 230.688
L120.499 227.664
L120.799 227.664
L120.949 230.688
L121.099 230.688
L121.25 227.664
L121.55 227.664
L121.7 230.688
L121.85 227.664
L122 230.688
L122.451 221.616
L122.601 227.664
L122.751 224.64
L122.901 227.664
L123.051 224.64
L123.502 224.64
L123.652 227.664
L123.802 227.664
L124.103 221.616
L124.403 227.664
L124.553 221.616
L124.703 227.664
L124.853 224.64
L125.004 227.664
L125.154 224.64
L125.304 224.64
L125.454 227.664
L125.604 224.64
L125.754 227.664
L127.556 227.664
L127.706 230.688
L127.856 227.664
L128.006 227.664
L128.157 224.64
L128.307 227.664
L128.457 227.664
L128.607 230.688
L128.757 227.664
L128.907 230.688
L129.058 227.664
L129.208 230.688
L129.358 230.688
L129.508 233.712
L129.658 227.664
L129.808 230.688
L129.958 227.664
L130.109 227.664
L130.259 230.688
L130.559 230.688
L130.709 233.712
L130.859 227.664
L131.009 230.688
L131.16 230.688
L131.31 224.64
L131.46 230.688
L131.61 227.664
L131.76 227.664
L131.91 230.688
L132.061 227.664
L132.361 227.664
L132.511 230.688
L132.661 227.664
L132.811 227.664
L132.961 230.688
L133.112 230.688
L133.262 227.664
L134.163 227.664
L134.613 236.736
L134.763 230.688
L134.913 233.712
L135.064 233.712
L135.214 230.688
L135.364 233.712
L135.514 230.688
L135.664 230.688
L135.964 236.736
L136.115 236.736
L136.565 227.664
L136.715 233.712
L136.865 230.688
L137.016 233.712
L137.166 227.664
L137.316 233.712
L137.466 230.688
L138.067 230.688
L138.217 233.712
L138.367 233.712
L138.517 230.688
L138.667 230.688
L138.817 236.736
L138.968 233.712
L139.118 233.712
L139.268 230.688
L139.568 230.688
L139.718 233.712
L139.868 233.712
L140.019 230.688
L140.169 230.688
L140.319 233.712
L140.469 233.712
L140.619 230.688
L140.769 233.712
L141.37 233.712
L141.52 230.688
L141.82 230.688
L141.971 227.664
L142.121 233.712
L142.271 227.664
L142.421 230.688
L142.571 230.688
L142.721 227.664
L143.022 233.712
L143.172 230.688
L143.322 233.712
L143.472 230.688
L143.622 230.688
L143.772 227.664
L143.923 233.712
L144.073 230.688
L144.223 230.688
L144.373 227.664
L144.523 230.688
L144.974 230.688
L145.124 227.664
L145.424 233.712
L145.574 230.688
L145.874 230.688
L146.025 233.712
L146.175 230.688
L146.775 230.688
L146.926 233.712
L147.076 233.712
L147.226 230.688
L147.676 230.688
L147.826 233.712
L147.977 227.664
L148.127 230.688
L148.277 230.688
L148.427 227.664
L148.727 233.712
L148.877 233.712
L149.028 236.736
L149.178 230.688
L149.328 233.712
L149.628 233.712
L149.778 236.736
L149.929 236.736
L150.079 233.712
L150.229 233.712
L150.379 230.688
L150.679 236.736
L150.829 233.712
L150.98 236.736
L151.13 236.736
L151.28 230.688
L151.58 236.736
L151.73 233.712
L151.881 233.712
L152.031 230.688
L152.181 233.712
L152.481 233.712
L152.631 230.688
L152.781 236.736
L152.932 233.712
L153.232 233.712
L153.382 224.64
L153.532 236.736
L153.682 230.688
L153.832 230.688
L154.133 236.736
L154.283 236.736
L154.433 233.712
L154.884 233.712
L155.034 236.736
L155.184 233.712
L155.484 233.712
L155.634 236.736
L155.784 233.712
L155.935 236.736
L156.085 233.712
L156.235 233.712
L156.385 230.688
L156.535 233.712
L157.136 233.712
L157.286 230.688
L157.736 230.688
L157.887 227.664
L158.037 227.664
L158.187 233.712
L158.337 227.664
L158.487 230.688
L158.637 227.664
L158.787 227.664
L158.938 230.688
L159.688 230.688
L159.839 227.664
L159.989 227.664
L160.139 230.688
L160.289 227.664
L160.439 230.688
L160.589 227.664
L160.739 230.688
L161.04 230.688
L161.19 227.664
L161.49 227.664
L161.64 233.712
L161.791 230.688
L162.091 230.688
L162.241 233.712
L162.391 230.688
L162.541 233.712
L162.842 233.712
L162.992 236.736
L163.142 233.712
L163.292 233.712
L163.442 236.736
L163.592 233.712
L163.742 233.712
L163.893 236.736
L164.193 230.688
L164.343 236.736
L164.643 236.736
L164.794 239.76
L164.944 230.688
L165.094 236.736
L165.394 236.736
L165.544 233.712
L165.694 236.736
L165.845 230.688
L165.995 233.712
L166.145 233.712
L166.295 236.736
L166.445 230.688
L166.595 236.736
L166.746 230.688
L166.896 230.688
L167.046 233.712
L167.496 233.712
L167.646 236.736
L167.797 230.688
L167.947 230.688
L168.097 233.712
L168.247 233.712
L168.397 236.736
L168.547 236.736
L168.697 230.688
L168.998 230.688
L169.148 236.736
L169.298 230.688
L169.448 233.712
L169.598 230.688
L169.749 236.736
L169.899 230.688
L170.049 233.712
L170.199 230.688
L170.649 230.688
L170.8 227.664
L170.95 233.712
L171.1 230.688
L171.55 230.688
L171.701 233.712
L171.851 233.712
L172.001 230.688
L172.451 230.688
L172.601 227.664
L172.752 233.712
L172.902 230.688
L173.052 230.688
L173.202 227.664
L173.352 227.664
L173.502 233.712
L173.652 230.688
L173.953 230.688
L174.103 233.712
L174.403 227.664
L174.553 233.712
L174.704 233.712
L174.854 227.664
L175.154 233.712
L175.304 233.712
L175.454 230.688
L175.604 230.688
L175.755 233.712
L175.905 233.712
L176.055 230.688
L176.355 230.688
L176.505 227.664
L176.655 233.712
L176.956 227.664
L177.106 230.688
L177.256 230.688
L177.406 233.712
L177.556 233.712
L177.707 230.688
L177.857 236.736
L178.007 233.712
L178.307 233.712
L178.457 239.76
L178.758 233.712
L178.908 233.712
L179.058 236.736
L179.358 236.736
L179.508 239.76
L179.659 239.76
L179.809 233.712
L179.959 236.736
L180.109 233.712
L180.259 233.712
L180.409 236.736
L180.559 233.712
L180.71 236.736
L181.01 230.688
L181.16 236.736
L181.31 236.736
L181.46 233.712
L181.61 233.712
L181.761 236.736
L181.911 233.712
L182.211 233.712
L182.361 236.736
L182.511 233.712
L182.662 236.736
L182.812 233.712
L183.262 233.712
L183.412 236.736
L183.562 233.712
L183.713 236.736
L184.013 230.688
L184.163 230.688
L184.313 236.736
L184.764 227.664
L184.914 230.688
L185.064 230.688
L185.214 233.712
L185.364 230.688
L185.514 233.712
L185.665 230.688
L185.965 230.688
L186.115 227.664
L186.265 233.712
L186.565 227.664
L186.716 227.664
L186.866 230.688
L187.016 227.664
L187.166 227.664
L187.316 230.688
L187.617 230.688
L187.917 224.64
L188.217 230.688
L188.367 227.664
L188.517 230.688
L188.818 230.688
L188.968 233.712
L189.118 230.688
L189.268 233.712
L189.418 227.664
L189.569 230.688
L190.019 230.688
L190.169 233.712
L190.319 227.664
L190.469 230.688
L190.62 230.688
L190.77 233.712
L191.22 233.712
L191.37 230.688
L191.52 230.688
L191.821 224.64
L192.271 242.784
L192.421 230.688
L192.572 233.712
L192.722 230.688
L192.872 233.712
L193.322 233.712
L193.472 236.736
L193.623 233.712
L193.773 233.712
L193.923 236.736
L194.223 236.736
L194.373 233.712
L194.524 227.664
L194.674 233.712
L194.824 227.664
L195.124 236.736
L195.424 230.688
L195.725 236.736
L195.875 230.688
L196.025 233.712
L196.475 233.712
L196.626 230.688
L196.776 230.688
L196.926 227.664
L197.076 230.688
L197.226 230.688
L197.376 227.664
L197.527 227.664
L197.827 236.736
L197.977 233.712
L198.127 233.712
L198.277 236.736
L198.427 233.712
L198.728 233.712
L198.878 230.688
L199.178 230.688
L199.328 227.664
L199.629 227.664
L199.779 230.688
L199.929 224.64
L200.079 227.664
L200.229 224.64
L200.379 230.688
L200.68 230.688
L200.98 224.64
L201.13 224.64
L201.28 227.664
L201.43 224.64
L201.731 230.688
L201.881 230.688
L202.031 227.664
L202.181 230.688
L202.331 236.736
L202.482 227.664
L202.632 230.688
L202.782 230.688
L202.932 233.712
L203.082 227.664
L203.232 230.688
L203.382 230.688
L203.533 227.664
L203.683 227.664
L203.833 233.712
L203.983 227.664
L204.133 230.688
L204.283 230.688
L204.434 227.664
L204.584 227.664
L204.734 230.688
L205.335 230.688
L205.485 227.664
L205.635 230.688
L205.785 227.664
L205.935 227.664
L206.085 230.688
L206.235 227.664
L206.385 227.664
L206.536 230.688
L206.686 227.664
L206.986 233.712
L207.286 227.664
L207.437 230.688
L207.587 242.784
L207.737 230.688
L207.887 233.712
L208.037 230.688
L208.187 236.736
L208.337 230.688
L208.638 236.736
L208.788 233.712
L208.938 236.736
L209.088 236.736
L209.238 233.712
L209.539 233.712
L209.689 230.688
L209.839 236.736
L209.989 233.712
L210.139 236.736
L210.289 233.712
L210.44 233.712
L210.59 236.736
L210.74 236.736
L210.89 230.688
L211.04 233.712
L211.19 233.712
L211.34 230.688
L211.491 230.688
L211.641 233.712
L212.091 233.712
L212.392 227.664
L212.542 230.688
L212.692 230.688
L212.842 233.712
L212.992 227.664
L213.142 230.688
L213.292 227.664
L213.443 230.688
L213.743 230.688
L213.893 227.664
L214.043 227.664
L214.193 230.688
L214.343 227.664
L214.494 227.664
L214.794 233.712
L214.944 224.64
L215.094 227.664
L215.244 227.664
L215.395 230.688
L215.545 230.688
L215.695 233.712
L215.845 227.664
L216.145 233.712
L216.295 227.664
L216.446 233.712
L216.746 227.664
L216.896 230.688
L217.046 227.664
L217.647 227.664
L217.797 230.688
L217.947 224.64
L218.097 230.688
L218.698 230.688
L218.848 233.712
L219.148 227.664
L219.298 230.688
L219.749 230.688
L219.899 227.664
L220.049 230.688
L220.199 230.688
L220.35 224.64
L220.8 233.712
L221.1 233.712
L221.25 230.688
L221.401 230.688
L221.551 233.712
L221.701 227.664
L222.151 227.664
L222.302 230.688
L222.452 230.688
L222.602 224.64
L222.752 224.64
L222.902 227.664
L223.052 224.64
L223.202 227.664
L223.353 224.64
L224.253 224.64
L224.404 227.664
L224.554 224.64
L224.704 224.64
L224.854 221.616
L225.004 224.64
L225.154 221.616
L225.305 224.64
L225.455 224.64
L225.605 221.616
L225.905 227.664
L226.055 221.616
L226.205 221.616
L226.356 206.496
L226.506 224.64
L226.656 224.64
L226.806 227.664
L226.956 224.64
L227.557 224.64
L227.707 230.688
L227.857 224.64
L228.308 224.64
L228.458 221.616
L228.608 224.64
L228.758 224.64
L228.908 227.664
L229.058 227.664
L229.208 224.64
L229.359 224.64
L229.509 227.664
L229.659 224.64
L229.809 227.664
L229.959 227.664
L230.109 224.64
L230.56 224.64
L230.71 227.664
L231.01 227.664
L231.16 224.64
L231.311 230.688
L231.461 227.664
L231.611 230.688
L231.761 227.664
L232.061 227.664
L232.212 230.688
L232.362 224.64
L232.512 227.664
L233.413 227.664
L233.563 224.64
L234.013 224.64
L234.163 227.664
L234.314 227.664
L234.464 224.64
L234.614 224.64
L234.764 221.616
L234.914 227.664
L235.064 227.664
L235.215 233.712
L235.365 227.664
L235.665 227.664
L235.965 233.712
L236.115 233.712
L236.266 230.688
L236.416 233.712
L236.566 230.688
L236.716 236.736
L236.866 233.712
L237.317 233.712
L237.467 230.688
L237.617 233.712
L237.767 233.712
L237.917 230.688
L238.218 236.736
L238.518 230.688
L238.668 233.712
L238.818 230.688
L238.968 233.712
L239.118 233.712
L239.269 230.688
L239.419 233.712
L239.569 233.712
L239.719 230.688
L240.019 230.688
L240.32 236.736
L240.62 230.688
L240.77 233.712
L240.92 233.712
L241.07 230.688
L241.221 233.712
L241.521 233.712
L241.671 230.688
L241.821 233.712
L241.971 230.688
L242.121 233.712
L242.422 227.664
L242.572 227.664
L242.722 224.64
L242.872 230.688
L243.022 230.688
L243.173 227.664
L243.473 227.664
L243.623 233.712
L243.773 230.688
L243.923 230.688
L244.073 224.64
L244.224 227.664
L244.374 215.568
L244.524 230.688
L244.674 227.664
L244.824 230.688
L245.125 230.688
L245.275 227.664
L245.425 230.688
L245.575 227.664
L245.875 227.664
L246.025 224.64
L246.176 227.664
L246.776 227.664
L246.926 230.688
L247.076 230.688
L247.227 224.64
L247.377 230.688
L247.527 227.664
L247.677 230.688
L247.977 224.64
L248.128 230.688
L248.278 227.664
L248.428 230.688
L248.578 227.664
L249.329 227.664
L249.479 233.712
L249.629 230.688
L249.779 230.688
L249.929 233.712
L250.38 233.712
L250.53 236.736
L250.68 233.712
L250.83 233.712
L250.98 236.736
L251.131 236.736
L251.281 233.712
L251.431 236.736
L251.581 236.736
L251.731 233.712
L253.383 233.712
L253.533 230.688
L253.683 230.688
L253.833 233.712
L254.284 233.712
L254.434 230.688
L254.584 230.688
L254.734 233.712
L255.635 233.712
L255.785 230.688
L255.935 236.736
L256.086 233.712
L256.236 239.76
L256.536 233.712
L256.686 236.736
L256.836 233.712
L257.137 233.712
L257.437 227.664
L257.587 236.736
L257.887 227.664
L258.038 233.712
L258.188 230.688
L258.338 233.712
L258.488 230.688
L258.938 230.688
L259.089 233.712
L259.239 233.712
L259.389 230.688
L259.539 230.688
L259.689 224.64
L259.839 227.664
L259.99 233.712
L260.14 233.712
L260.29 230.688
L260.74 230.688
L260.89 227.664
L261.191 227.664
L261.341 230.688
L261.491 227.664
L261.791 227.664
L261.941 230.688
L262.092 224.64
L262.242 227.664
L262.542 227.664
L262.842 221.616
L262.993 227.664
L263.443 227.664
L263.593 230.688
L263.743 227.664
L263.893 233.712
L264.194 233.712
L264.344 236.736
L264.494 233.712
L264.644 233.712
L264.794 236.736
L264.945 230.688
L265.095 233.712
L265.545 233.712
L265.695 236.736
L265.845 230.688
L265.996 233.712
L266.146 233.712
L266.296 236.736
L266.446 233.712
L267.047 233.712
L267.197 236.736
L267.347 233.712
L268.098 233.712
L268.248 236.736
L268.398 233.712
L268.548 236.736
L268.698 230.688
L268.999 236.736
L269.299 230.688
L269.449 233.712
L269.599 233.712
L269.749 230.688
L270.05 236.736
L270.2 236.736
L270.35 233.712
L270.5 233.712
L270.65 230.688
L270.8 239.76
L271.101 230.688
L271.251 230.688
L271.401 233.712
L271.551 227.664
L271.701 233.712
L271.851 230.688
L272.002 224.64
L272.152 227.664
L272.452 227.664
L272.602 224.64
L272.752 230.688
L273.053 230.688
L273.203 227.664
L273.503 233.712
L273.803 227.664
L273.954 230.688
L274.104 227.664
L274.254 227.664
L274.404 230.688
L274.554 230.688
L274.704 224.64
L274.854 230.688
L276.056 230.688
L276.206 233.712
L276.356 233.712
L276.506 227.664
L276.806 227.664
L276.957 230.688
L277.107 224.64
L277.557 233.712
L277.707 230.688
L278.008 230.688
L278.158 233.712
L278.308 230.688
L278.458 230.688
L278.608 236.736
L278.909 230.688
L279.209 236.736
L279.359 236.736
L279.509 233.712
L279.809 239.76
L279.96 233.712
L280.11 233.712
L280.26 236.736
L280.56 236.736
L280.71 233.712
L280.861 236.736
L281.011 230.688
L281.161 236.736
L281.311 233.712
L281.461 236.736
L281.611 233.712
L281.761 236.736
L281.912 233.712
L282.212 233.712
L282.362 230.688
L282.512 233.712
L282.662 230.688
L282.813 233.712
L282.963 233.712
L283.113 230.688
L283.263 236.736
L283.713 236.736
L283.864 233.712
L284.014 236.736
L284.164 233.712
L284.314 233.712
L284.464 230.688
L284.614 233.712
L285.065 233.712
L285.215 236.736
L285.365 230.688
L285.515 230.688
L285.665 233.712
L285.816 230.688
L286.266 230.688
L286.416 233.712
L286.566 230.688
L286.716 233.712
L286.867 227.664
L287.017 230.688
L287.167 230.688
L287.317 224.64
L287.467 233.712
L287.617 230.688
L287.918 230.688
L288.218 236.736
L288.668 227.664
L288.819 230.688
L289.269 230.688
L289.419 233.712
L289.569 233.712
L289.87 227.664
L290.17 233.712
L290.47 233.712
L290.62 230.688
L291.221 230.688
L291.371 233.712
L291.671 227.664
L291.822 230.688
L292.422 230.688
L292.572 227.664
L292.873 236.736
L293.023 230.688
L293.173 233.712
L293.323 230.688
L293.473 236.736
L293.623 236.736
L293.774 233.712
L293.924 236.736
L294.224 236.736
L294.374 233.712
L294.524 233.712
L294.674 236.736
L294.825 233.712
L294.975 236.736
L295.125 233.712
L295.275 236.736
L295.425 233.712
L295.575 236.736
L295.726 233.712
L295.876 239.76
L296.026 236.736
L296.176 236.736
L296.326 233.712
L296.476 236.736
L297.377 236.736
L297.677 230.688
L297.978 236.736
L298.128 236.736
L298.278 233.712
L298.428 233.712
L298.578 236.736
L299.179 236.736
L299.329 233.712
L299.479 236.736
L299.629 236.736
L299.78 233.712
L300.08 233.712
L300.23 227.664
L300.38 230.688
L300.831 230.688
L300.981 227.664
L301.131 230.688
L301.281 227.664
L301.431 227.664
L301.581 224.64
L301.732 227.664
L302.332 227.664
L302.482 224.64
L302.632 224.64
L302.783 227.664
L302.933 227.664
L303.083 233.712
L303.233 227.664
L303.383 230.688
L303.533 227.664
L303.684 227.664
L303.834 230.688
L303.984 227.664
L304.134 227.664
L304.284 230.688
L304.434 230.688
L304.584 227.664
L304.735 233.712
L304.885 233.712
L305.185 227.664
L305.335 230.688
L305.485 230.688
L305.636 227.664
L305.786 230.688
L306.687 230.688
L306.837 224.64
L306.987 230.688
L307.137 227.664
L307.287 227.664
L307.437 224.64
L307.888 233.712
L308.038 230.688
L308.188 233.712
L308.338 230.688
L308.488 233.712
L308.639 233.712
L308.789 236.736
L308.939 230.688
L309.089 233.712
L309.239 230.688
L309.389 230.688
L309.539 233.712
L310.29 233.712
L310.44 230.688
L310.591 233.712
L310.741 230.688
L310.891 233.712
L311.041 230.688
L311.191 230.688
L311.341 236.736
L311.642 230.688
L311.942 230.688
L312.092 233.712
L312.242 233.712
L312.392 236.736
L312.542 233.712
L312.693 221.616
L312.993 230.688
L313.143 230.688
L313.293 227.664
L313.744 227.664
L313.894 230.688
L314.044 224.64
L314.194 230.688
L314.344 221.616
L314.494 227.664
L314.645 224.64
L314.795 230.688
L314.945 227.664
L315.095 227.664
L315.245 224.64
L315.395 230.688
L315.546 227.664
L316.597 227.664
L316.747 224.64
L316.897 233.712
L317.047 224.64
L317.197 227.664
L317.347 227.664
L317.497 230.688
L317.648 227.664
L318.098 227.664
L318.248 230.688
L318.549 224.64
L318.699 227.664
L318.999 227.664
L319.149 230.688
L319.449 230.688
L319.6 227.664
L319.75 227.664
L319.9 230.688
L320.2 230.688
L320.35 227.664
L320.501 230.688
L320.651 227.664
L320.951 227.664
L321.101 233.712
L321.251 230.688
L321.401 230.688
L321.552 227.664
L321.702 227.664
L321.852 224.64
L322.002 230.688
L322.152 224.64
L322.302 230.688
L322.452 230.688
L322.603 227.664
L322.753 227.664
L322.903 230.688
L323.053 230.688
L323.203 233.712
L323.353 230.688
L323.954 230.688
L324.104 227.664
L324.404 218.592
L324.705 224.64
L324.855 224.64
L325.005 227.664
L325.305 221.616
L325.606 227.664
L325.756 221.616
L325.906 224.64
L326.056 221.616
L326.206 224.64
L326.657 224.64
L326.807 227.664
L326.957 191.376
L327.107 224.64
L327.257 221.616
L327.407 197.424
L327.558 224.64
L328.308 224.64
L328.459 221.616
L328.609 221.616
L328.759 227.664
L328.909 224.64
L329.059 227.664
L329.209 227.664
L329.359 224.64
L329.51 227.664
L329.66 224.64
L329.96 224.64
L330.11 227.664
L330.26 224.64
L330.41 227.664
L330.561 224.64
L330.861 224.64
L331.011 230.688
L331.161 227.664
L331.311 221.616
L331.462 227.664
L331.612 224.64
L331.762 227.664
L331.912 224.64
L332.062 224.64
L332.212 227.664
L332.362 224.64
L332.513 227.664
L332.663 224.64
L332.963 224.64
L333.113 227.664
L333.263 227.664
L333.414 221.616
L333.864 230.688
L334.164 224.64
L334.314 227.664
L334.765 227.664
L334.915 224.64
L335.065 224.64
L335.215 227.664
L335.365 224.64
L335.666 224.64
L335.816 230.688
L335.966 227.664
L336.116 230.688
L336.266 227.664
L336.417 236.736
L336.717 230.688
L336.867 230.688
L337.167 236.736
L337.317 233.712
L337.468 236.736
L338.068 236.736
L338.218 230.688
L338.369 233.712
L338.519 233.712
L338.669 230.688
L338.819 236.736
L339.119 230.688
L339.42 236.736
L339.72 230.688
L340.02 236.736
L340.17 236.736
L340.471 251.856
L340.621 245.808
L340.771 245.808
L341.071 251.856
L341.221 251.856
L341.372 248.832
L341.522 251.856
L341.672 248.832
L341.972 248.832
L342.122 251.856
L342.423 251.856
L342.573 248.832
L342.723 251.856
L343.173 251.856
L343.324 248.832
L343.474 254.88
L343.774 245.808
L344.074 245.808
L344.224 242.784
L344.975 242.784
L345.275 236.736
L345.426 236.736
L345.576 242.784
L345.726 239.76
L345.876 239.76
L346.026 236.736
L346.627 236.736
L346.777 239.76
L346.927 236.736
L347.077 236.736
L347.227 239.76
L347.378 239.76
L347.678 233.712
L347.828 236.736
L348.429 236.736
L348.579 239.76
L349.029 239.76
L349.179 236.736
L349.33 236.736
L349.48 239.76
L349.63 239.76
L349.78 236.736
L349.93 236.736
L350.08 239.76
L350.23 239.76
L350.381 245.808
L350.831 245.808
L350.981 248.832
L351.131 245.808
L351.582 245.808
L351.732 248.832
L351.882 242.784
L352.032 248.832
L352.182 248.832
L352.333 251.856
L352.483 245.808
L352.633 248.832
L352.783 248.832
L352.933 251.856
L353.083 251.856
L353.234 248.832
L353.384 251.856
L353.984 251.856
L354.134 254.88
L354.285 251.856
L354.435 251.856
L354.585 254.88
L354.735 254.88
L354.885 251.856
L355.035 254.88
L355.185 251.856
L355.486 251.856
L355.636 254.88
L355.786 251.856
L356.086 251.856
L356.237 254.88
L356.387 251.856
L356.537 254.88
L356.687 254.88
L356.837 248.832
L356.987 254.88
L357.137 254.88
L357.288 251.856
L357.438 251.856
L357.588 245.808
L357.738 254.88
L357.888 248.832
L358.188 248.832
L358.489 242.784
L358.939 242.784
L359.089 245.808
L359.24 242.784
L359.39 242.784
L359.54 245.808
L359.69 242.784
L361.192 242.784
L361.342 239.76
L361.492 245.808
L361.642 239.76
L361.792 242.784
L362.092 236.736
L362.243 242.784
L362.393 236.736
L362.543 242.784
L362.693 242.784
L362.843 239.76
L362.994 239.76
L363.143 242.784
L363.294 239.76
L363.594 239.76
L363.744 242.784
L363.894 242.784
L364.044 239.76
L364.195 242.784
L364.345 239.76
L364.495 239.76
L364.645 245.808
L364.945 245.808
L365.246 251.856
L365.396 245.808
L365.696 251.856
L365.846 251.856
L365.996 254.88
L366.147 251.856
L367.348 251.856
L367.498 248.832
L367.648 251.856
L367.798 248.832
L367.949 248.832
L368.098 251.856
L368.249 248.832
L368.399 251.856
L368.549 251.856
L368.699 248.832
L368.999 248.832
L369.15 251.856
L369.3 251.856
L369.45 254.88
L369.75 245.808
L369.9 254.88
L370.05 248.832
L370.201 248.832
L370.351 254.88
L370.651 248.832
L370.801 251.856
L371.852 251.856
L372.002 248.832
L372.153 248.832
L372.303 245.808
L372.603 245.808
L372.753 242.784
L372.903 242.784
L373.053 245.808
L373.204 242.784
L373.504 242.784
L373.654 245.808
L373.804 242.784
L373.954 242.784
L374.105 236.736
L374.255 242.784
L374.405 239.76
L374.555 242.784
L374.855 242.784
L375.005 239.76
L375.156 239.76
L375.306 242.784
L375.456 239.76
L375.606 242.784
L375.756 239.76
L375.906 239.76
L376.057 242.784
L376.357 242.784
L376.507 239.76
L376.657 242.784
L377.108 242.784
L377.258 239.76
L377.408 239.76
L377.558 242.784
L377.708 242.784
L377.858 239.76
L378.008 239.76
L378.159 242.784
L378.309 239.76
L378.459 242.784
L378.609 239.76
L378.909 239.76
L379.06 242.784
L379.21 248.832
L379.36 248.832
L379.51 251.856
L379.66 248.832
L379.81 248.832
L380.111 254.88
L380.261 251.856
L380.711 251.856
L380.861 257.904
L381.162 257.904
L381.312 254.88
L381.462 254.88
L381.612 257.904
L381.762 254.88
L382.063 245.808
L382.213 251.856
L382.363 248.832
L382.513 254.88
L382.663 248.832
L382.963 254.88
L383.114 254.88
L383.264 248.832
L383.564 254.88
L383.714 251.856
L383.864 257.904
L384.015 251.856
L384.315 251.856
L384.465 254.88
L384.615 251.856
L384.915 257.904
L385.216 251.856
L385.366 257.904
L385.666 251.856
L385.816 254.88
L386.117 248.832
L386.267 251.856
L386.417 248.832
L386.567 248.832
L386.717 245.808
L386.867 245.808
L387.018 242.784
L387.168 245.808
L387.318 242.784
L387.468 242.784
L387.618 239.76
L387.768 242.784
L387.918 242.784
L388.069 239.76
L388.369 239.76
L388.519 242.784
L388.669 239.76
L388.97 239.76
L389.12 242.784
L389.27 239.76
L389.42 242.784
L389.57 242.784
L389.72 239.76
L390.021 245.808
L390.171 242.784
L390.471 242.784
L390.621 236.736
L390.771 245.808
L390.921 242.784
L391.072 242.784
L391.222 239.76
L391.522 239.76
L391.672 236.736
L391.822 242.784
L391.973 239.76
L392.123 239.76
L392.273 242.784
L392.423 239.76
L392.573 242.784
L393.474 242.784
L393.624 239.76
L393.774 245.808
L393.925 245.808
L394.075 251.856
L394.225 251.856
L394.375 248.832
L394.525 248.832
L394.825 254.88
L394.976 248.832
L395.126 251.856
L395.276 251.856
L395.426 254.88
L395.576 254.88
L395.726 251.856
L395.876 254.88
L396.027 251.856
L396.177 254.88
L396.327 254.88
L396.477 248.832
L396.777 254.88
L397.078 254.88
L397.228 251.856
L397.378 245.808
L397.528 245.808
L397.678 254.88
L397.828 251.856
L397.979 254.88
L398.129 254.88
L398.279 257.904
L398.429 251.856
L398.88 251.856
L399.03 248.832
L399.18 251.856
L399.63 251.856
L399.78 257.904
L400.081 248.832
L400.231 248.832
L400.381 251.856
L400.531 242.784
L400.681 248.832
L400.982 248.832
L401.282 242.784
L401.732 242.784
L401.883 245.808
L402.033 239.76
L402.183 239.76
L402.483 245.808
L402.633 242.784
L402.783 242.784
L403.084 236.736
L403.384 242.784
L403.534 236.736
L403.684 239.76
L404.585 239.76
L404.735 236.736
L404.886 242.784
L405.036 236.736
L405.186 239.76
L405.336 236.736
L405.486 242.784
L405.636 239.76
L405.786 242.784
L405.937 236.736
L406.087 242.784
L406.237 236.736
L406.387 242.784
L406.687 242.784
L406.838 236.736
L406.988 242.784
L407.288 242.784
L407.438 245.808
L407.588 242.784
L407.738 242.784
L407.889 239.76
L408.039 239.76
L408.189 236.736
L408.489 242.784
L408.639 239.76
L408.94 251.856
L409.09 254.88
L409.24 251.856
L410.141 251.856
L410.291 254.88
L410.441 248.832
L410.741 248.832
L410.892 251.856
L411.042 251.856
L411.192 248.832
L411.342 248.832
L411.492 251.856
L411.943 251.856
L412.093 248.832
L412.243 248.832
L412.393 254.88
L412.543 248.832
L412.994 248.832
L413.144 251.856
L413.444 251.856
L413.594 248.832
L413.745 248.832
L414.045 242.784
L414.345 242.784
L414.495 245.808
L414.796 245.808
L414.946 242.784
L415.246 242.784
L415.396 245.808
L415.546 239.76
L415.696 242.784
L415.847 239.76
L415.997 245.808
L416.147 239.76
L416.297 242.784
L416.597 236.736
L416.748 242.784
L416.898 236.736
L417.048 239.76
L417.198 239.76
L417.348 242.784
L417.498 239.76
L417.799 239.76
L417.949 236.736
L418.099 239.76
L418.549 239.76
L418.699 236.736
L418.85 236.736
L419 239.76
L419.15 236.736
L419.45 236.736
L419.6 239.76
L419.751 239.76
L419.901 233.712
L420.051 239.76
L420.201 233.712
L420.501 239.76
L420.802 239.76
L420.952 233.712
L421.102 236.736
L421.402 236.736
L421.552 233.712
L421.703 236.736
L421.853 236.736
L422.003 239.76
L422.153 233.712
L422.303 233.712
L422.453 236.736
L422.603 236.736
L422.754 239.76
L422.904 239.76
L423.054 233.712
L423.204 233.712
L423.354 239.76
L423.504 236.736
L423.655 236.736
L423.805 239.76
L424.105 233.712
L424.255 233.712
L424.405 236.736
L424.555 233.712
L424.706 236.736
L424.856 236.736
L425.006 233.712
L425.156 233.712
L425.306 236.736
L425.456 233.712
L425.606 236.736
L425.757 236.736
L425.907 233.712
L426.057 233.712
L426.207 230.688
L426.507 236.736
L426.658 230.688
L426.808 236.736
L427.108 230.688
L427.709 230.688
L427.859 233.712
L428.91 233.712
L429.06 230.688
L429.21 233.712
L429.661 233.712
L429.811 236.736
L429.961 233.712
L430.111 239.76
L430.261 230.688
L430.411 233.712
L430.712 233.712
L430.862 230.688
L431.012 233.712
L431.162 233.712
L431.312 230.688
L431.462 236.736
L431.613 233.712
L431.913 233.712
L432.063 230.688
L432.213 233.712
L432.664 233.712
L432.814 230.688
L433.114 230.688
L433.264 233.712
L433.414 230.688
L433.564 230.688
L433.715 233.712
L433.865 230.688
L434.015 233.712
L434.165 233.712
L434.315 227.664
L434.465 230.688
L434.766 230.688
L434.916 233.712
L435.066 230.688
L435.216 230.688
L435.366 233.712
L435.516 230.688
L436.267 230.688
L436.568 236.736
L436.718 236.736
L436.868 233.712
L437.318 254.88
L437.468 251.856
L437.619 251.856
L437.769 254.88
L437.919 248.832
L438.069 254.88
L438.219 251.856
L438.369 251.856
L438.519 254.88
L438.67 251.856
L438.97 251.856
L439.12 254.88
L439.42 254.88
L439.571 251.856
L440.171 251.856
L440.321 254.88
L440.622 248.832
L440.772 251.856
L440.922 245.808
L441.222 251.856
L441.372 251.856
L441.523 254.88
L441.673 188.352
L441.823 254.88
L441.973 251.856
L442.123 254.88
L442.273 251.856
L442.423 251.856
L442.574 254.88
L442.724 245.808
L443.024 254.88
L443.174 254.88
L443.324 251.856
L443.474 251.856
L443.625 248.832
L443.775 251.856
L443.925 248.832
L444.225 254.88
L444.375 254.88
L444.526 248.832
L444.676 251.856
L444.976 239.76
L445.126 242.784
L445.276 236.736
L445.426 236.736
L445.577 239.76
L445.727 236.736
L446.027 236.736
L446.177 239.76
L446.327 233.712
L446.477 236.736
L446.778 236.736
L446.928 230.688
L447.078 233.712
L447.228 230.688
L447.529 236.736
L447.679 233.712
L447.829 233.712
L447.979 230.688
L448.129 230.688
L448.279 236.736
L448.429 233.712
L448.73 233.712
L448.88 230.688
L449.03 233.712
L449.18 233.712
L449.33 230.688
L449.481 233.712
L449.781 233.712
L449.931 230.688
L450.081 236.736
L450.231 236.736
L450.381 230.688
L450.532 230.688
L450.682 233.712
L450.832 230.688
L450.982 230.688
L451.282 239.76
L451.733 248.832
L451.883 248.832
L452.033 251.856
L452.183 251.856
L452.333 254.88
L452.484 254.88
L452.634 248.832
L452.784 248.832
L452.934 245.808
L453.084 251.856
L453.234 248.832
L453.384 251.856
L453.535 248.832
L453.685 251.856
L453.985 251.856
L454.135 254.88
L454.436 248.832
L454.586 251.856
L455.036 251.856
L455.186 254.88
L455.336 245.808
L455.787 254.88
L455.937 251.856
L456.087 251.856
L456.237 254.88
L456.387 251.856
L456.538 251.856
L456.688 254.88
L456.988 212.544
L457.439 254.88
L457.589 248.832
L457.739 227.664
L457.89 248.832
L458.039 251.856
L458.189 251.856
L458.339 257.904
L458.49 254.88
L458.79 254.88
L459.09 248.832
L459.24 251.856
L459.391 245.808
L459.541 248.832
L460.291 248.832
L460.442 242.784
L460.592 242.784
L460.892 248.832
L461.342 248.832
L461.493 245.808
L461.643 248.832
L461.793 242.784
L462.243 251.856
L462.544 245.808
L462.994 245.808
L463.144 248.832
L463.294 248.832
L463.595 242.784
L463.745 245.808
L464.346 245.808
L464.496 242.784
L464.646 245.808
L464.796 245.808
L464.946 248.832
L465.246 248.832
L465.397 251.856
L466.598 251.856
L466.748 257.904
L466.898 248.832
L467.048 218.592
L467.198 245.808
L467.349 212.544
L467.499 212.544
L467.649 218.592
L467.799 251.856
L467.949 254.88
L468.099 251.856
L468.7 251.856
L468.85 248.832
L469.15 248.832
L469.301 245.808
L469.451 245.808
L469.601 248.832
L469.751 248.832
L469.901 251.856
L470.051 251.856
L470.201 248.832
L470.352 251.856
L470.502 251.856
L470.652 254.88
L470.952 254.88
L471.102 251.856
L471.252 257.904
L471.553 251.856
L471.703 254.88
L471.853 263.952
L472.003 251.856
L472.153 248.832
L472.304 251.856
L472.454 257.904
L472.604 248.832
L472.754 248.832
L473.054 254.88
L473.204 251.856
L473.655 251.856
L473.805 245.808
L473.955 248.832
L474.105 248.832
L474.255 251.856
L474.406 248.832
L474.556 251.856
L474.856 251.856
L475.006 248.832
L475.156 248.832
L475.307 245.808
L475.457 248.832
L475.607 248.832
L475.757 251.856
L476.057 251.856
L476.207 245.808
L476.508 245.808
L476.658 248.832
L476.808 245.808
L476.958 245.808
L477.108 248.832
L477.409 248.832
L477.559 251.856
L477.859 245.808
L478.009 245.808
L478.159 248.832
L478.31 245.808
L478.46 245.808
L478.61 242.784
L478.76 248.832
L478.91 248.832
L479.06 245.808
L479.21 248.832
L479.361 245.808
L479.511 248.832
L479.811 242.784
L480.111 251.856
L480.412 251.856
L480.562 260.928
L480.712 257.904
L480.862 257.904
L481.012 254.88
L481.162 260.928
L481.313 254.88
L481.613 260.928
L481.913 251.856
L482.063 254.88
L482.214 260.928
L482.364 254.88
L482.514 260.928
L482.814 251.856
L482.964 254.88
L483.114 254.88
L483.265 251.856
L483.415 251.856
L483.565 257.904
L483.715 251.856
L483.865 254.88
L484.015 251.856
L484.165 254.88
L484.466 254.88
L484.766 242.784
L484.916 236.736
L485.066 239.76
L485.217 233.712
L485.367 233.712
L485.517 236.736
L485.817 251.856
L485.967 248.832
L486.117 251.856
L486.268 248.832
L486.568 254.88
L486.718 251.856
L486.868 254.88
L487.018 254.88
L487.169 257.904
L487.469 248.832
L487.619 248.832
L487.769 209.52
L487.919 245.808
L488.52 245.808
L488.67 239.76
L488.82 242.784
L488.97 242.784
L489.12 245.808
L489.271 242.784
L489.421 242.784
L489.571 245.808
L489.721 245.808
L489.871 242.784
L490.021 242.784
L490.172 245.808
L490.322 245.808
L490.472 248.832
L490.622 242.784
L490.772 242.784
L490.922 245.808
L491.072 239.76
L491.373 239.76
L491.523 245.808
L491.673 239.76
L491.823 239.76
L491.973 242.784
L492.124 239.76
L492.274 245.808
L492.424 239.76
L492.574 242.784
L492.724 239.76
L492.874 242.784
L493.024 239.76
L493.175 242.784
L493.325 239.76
L493.475 242.784
L493.775 242.784
L493.925 245.808
L494.075 239.76
L494.526 239.76
L494.676 242.784
L494.826 248.832
L494.976 245.808
L495.127 248.832
L495.277 254.88
L495.427 251.856
L495.577 251.856
L495.727 248.832
L495.877 254.88
L496.027 248.832
L496.178 257.904
L496.328 251.856
L496.478 251.856
L496.628 248.832
L496.778 248.832
L496.928 242.784
L497.079 251.856
L497.229 251.856
L497.379 254.88
L497.679 254.88
L497.829 260.928
L497.979 257.904
L498.13 257.904
L498.28 254.88
L498.43 248.832
L498.58 251.856
L498.73 248.832
L498.88 257.904
L499.03 254.88
L499.331 254.88
L499.481 248.832
L499.781 260.928
L499.931 260.928
L500.082 254.88
L500.232 254.88
L500.382 251.856
L500.682 257.904
L500.982 257.904
L501.133 263.952
L501.433 263.952
L501.583 260.928
L501.733 260.928
L502.034 251.856
L502.184 254.88
L502.484 254.88
L502.634 257.904
L502.934 251.856
L503.385 251.856
L503.535 254.88
L503.685 254.88
L503.835 251.856
L503.985 251.856
L504.136 248.832
L504.436 248.832
L504.586 251.856
L504.736 248.832
L505.337 248.832
L505.487 251.856
L505.937 251.856
L506.088 248.832
L506.388 254.88
L506.538 245.808
L506.688 254.88
L506.838 251.856
L507.139 257.904
L507.289 251.856
L507.439 251.856
L507.589 254.88
L507.739 251.856
L507.889 251.856
L508.04 248.832
L508.19 254.88
L508.34 248.832
L508.49 254.88
L508.64 251.856
L509.541 251.856
L509.691 257.904
L509.841 254.88
L509.992 254.88
L510.292 260.928
L510.442 257.904
L510.592 263.952
L510.742 260.928
L510.892 260.928
L511.043 257.904
L511.193 257.904
L511.343 263.952
L511.493 263.952
L511.793 254.88
L512.094 254.88
L512.244 257.904
L512.394 254.88
L512.544 257.904
L512.694 263.952
L512.995 251.856
L513.145 254.88
L513.295 260.928
L513.445 254.88
L513.595 257.904
L513.745 254.88
L513.895 257.904
L514.046 254.88
L514.346 260.928
L514.496 251.856
L514.646 254.88
L514.947 248.832
L515.097 248.832
L515.397 254.88
L515.547 251.856
L515.697 245.808
L515.847 245.808
L515.998 248.832
L516.598 248.832
L516.748 251.856
L516.898 251.856
L517.049 254.88
L517.349 248.832
L517.499 251.856
L517.649 248.832
L517.799 251.856
L517.95 248.832
L518.1 251.856
L518.25 248.832
L518.4 248.832
L518.4 248.832" style="fill:none;stroke:#0000ff;stroke-linecap:square;"/>
   </g>
   <g id="line2d_2">
    <path clip-path="url(#pcb2bf987bf)" d="
M72 88.56
L518.4 88.56" style="fill:none;stroke:#ff0000;stroke-linecap:square;"/>
   </g>
   <g id="matplotlib.axis_1">
    <g id="xtick_1">
     <g id="line2d_3">
      <path clip-path="url(#pcb2bf987bf)" d="
M115.243 345.6
L115.243 43.2" style="fill:none;stroke:#000000;stroke-dasharray:1.000000,3.000000;stroke-dashoffset:0.0;stroke-width:0.5;"/>
     </g>
     <g id="line2d_4">
      <defs>
       <path d="
M0 0
L0 -4" id="m93b0483c22" style="stroke:#000000;stroke-width:0.5;"/>
      </defs>
      <g>
       <use style="stroke:#000000;stroke-width:0.5;" x="115.243425494" xlink:href="#m93b0483c22" y="345.6"/>
      </g>
     </g>
     <g id="line2d_5">
      <defs>
       <path d="
M0 0
L0 4" id="m741efc42ff" style="stroke:#000000;stroke-width:0.5;"/>
      </defs>
      <g>
       <use style="stroke:#000000;stroke-width:0.5;" x="115.243425494" xlink:href="#m741efc42ff" y="43.2"/>
      </g>
     </g>
     <g id="text_1">
      <!-- Jun15 -->
      <defs>
       <path d="
M54.8906 33.0156
L54.8906 0
L45.9062 0
L45.9062 32.7188
Q45.9062 40.4844 42.875 44.3281
Q39.8438 48.1875 33.7969 48.1875
Q26.5156 48.1875 22.3125 43.5469
Q18.1094 38.9219 18.1094 30.9062
L18.1094 0
L9.07812 0
L9.07812 54.6875
L18.1094 54.6875
L18.1094 46.1875
Q21.3438 51.125 25.7031 53.5625
Q30.0781 56 35.7969 56
Q45.2188 56 50.0469 50.1719
Q54.8906 44.3438 54.8906 33.0156" id="BitstreamVeraSans-Roman-6e"/>
       <path d="
M12.4062 8.29688
L28.5156 8.29688
L28.5156 63.9219
L10.9844 60.4062
L10.9844 69.3906
L28.4219 72.9062
L38.2812 72.9062
L38.2812 8.29688
L54.3906 8.29688
L54.3906 0
L12.4062 0
z
" id="BitstreamVeraSans-Roman-31"/>
       <path d="
M8.5 21.5781
L8.5 54.6875
L17.4844 54.6875
L17.4844 21.9219
Q17.4844 14.1562 20.5 10.2656
Q23.5312 6.39062 29.5938 6.39062
Q36.8594 6.39062 41.0781 11.0312
Q45.3125 15.6719 45.3125 23.6875
L45.3125 54.6875
L54.2969 54.6875
L54.2969 0
L45.3125 0
L45.3125 8.40625
Q42.0469 3.42188 37.7188 1
Q33.4062 -1.42188 27.6875 -1.42188
Q18.2656 -1.42188 13.375 4.4375
Q8.5 10.2969 8.5 21.5781" id="BitstreamVeraSans-Roman-75"/>
       <path d="
M9.8125 72.9062
L19.6719 72.9062
L19.6719 5.07812
Q19.6719 -8.10938 14.6719 -14.0625
Q9.67188 -20.0156 -1.42188 -20.0156
L-5.17188 -20.0156
L-5.17188 -11.7188
L-2.09375 -11.7188
Q4.4375 -11.7188 7.125 -8.04688
Q9.8125 -4.39062 9.8125 5.07812
z
" id="BitstreamVeraSans-Roman-4a"/>
       <path d="
M10.7969 72.9062
L49.5156 72.9062
L49.5156 64.5938
L19.8281 64.5938
L19.8281 46.7344
Q21.9688 47.4688 24.1094 47.8281
Q26.2656 48.1875 28.4219 48.1875
Q40.625 48.1875 47.75 41.5
Q54.8906 34.8125 54.8906 23.3906
Q54.8906 11.625 47.5625 5.09375
Q40.2344 -1.42188 26.9062 -1.42188
Q22.3125 -1.42188 17.5469 -0.640625
Q12.7969 0.140625 7.71875 1.70312
L7.71875 11.625
Q12.1094 9.23438 16.7969 8.0625
Q21.4844 6.89062 26.7031 6.89062
Q35.1562 6.89062 40.0781 11.3281
Q45.0156 15.7656 45.0156 23.3906
Q45.0156 31 40.0781 35.4375
Q35.1562 39.8906 26.7031 39.8906
Q22.75 39.8906 18.8125 39.0156
Q14.8906 38.1406 10.7969 36.2812
z
" id="BitstreamVeraSans-Roman-35"/>
      </defs>
      <g transform="translate(84.9036546174 374.292777885)rotate(-30.0)scale(0.12 -0.12)">
       <use xlink:href="#BitstreamVeraSans-Roman-4a"/>
       <use x="29.4921875" xlink:href="#BitstreamVeraSans-Roman-75"/>
       <use x="92.87109375" xlink:href="#BitstreamVeraSans-Roman-6e"/>
       <use x="156.25" xlink:href="#BitstreamVeraSans-Roman-31"/>
       <use x="219.873046875" xlink:href="#BitstreamVeraSans-Roman-35"/>
      </g>
     </g>
    </g>
    <g id="xtick_2">
     <g id="line2d_6">
      <path clip-path="url(#pcb2bf987bf)" d="
M216.145 345.6
L216.145 43.2" style="fill:none;stroke:#000000;stroke-dasharray:1.000000,3.000000;stroke-dashoffset:0.0;stroke-width:0.5;"/>
     </g>
     <g id="line2d_7">
      <g>
       <use style="stroke:#000000;stroke-width:0.5;" x="216.145140935" xlink:href="#m93b0483c22" y="345.6"/>
      </g>
     </g>
     <g id="line2d_8">
      <g>
       <use style="stroke:#000000;stroke-width:0.5;" x="216.145140935" xlink:href="#m741efc42ff" y="43.2"/>
      </g>
     </g>
     <g id="text_2">
      <!-- Jun22 -->
      <defs>
       <path d="
M19.1875 8.29688
L53.6094 8.29688
L53.6094 0
L7.32812 0
L7.32812 8.29688
Q12.9375 14.1094 22.625 23.8906
Q32.3281 33.6875 34.8125 36.5312
Q39.5469 41.8438 41.4219 45.5312
Q43.3125 49.2188 43.3125 52.7812
Q43.3125 58.5938 39.2344 62.25
Q35.1562 65.9219 28.6094 65.9219
Q23.9688 65.9219 18.8125 64.3125
Q13.6719 62.7031 7.8125 59.4219
L7.8125 69.3906
Q13.7656 71.7812 18.9375 73
Q24.125 74.2188 28.4219 74.2188
Q39.75 74.2188 46.4844 68.5469
Q53.2188 62.8906 53.2188 53.4219
Q53.2188 48.9219 51.5312 44.8906
Q49.8594 40.875 45.4062 35.4062
Q44.1875 33.9844 37.6406 27.2188
Q31.1094 20.4531 19.1875 8.29688" id="BitstreamVeraSans-Roman-32"/>
      </defs>
      <g transform="translate(185.938521464 374.215902885)rotate(-30.0)scale(0.12 -0.12)">
       <use xlink:href="#BitstreamVeraSans-Roman-4a"/>
       <use x="29.4921875" xlink:href="#BitstreamVeraSans-Roman-75"/>
       <use x="92.87109375" xlink:href="#BitstreamVeraSans-Roman-6e"/>
       <use x="156.25" xlink:href="#BitstreamVeraSans-Roman-32"/>
       <use x="219.873046875" xlink:href="#BitstreamVeraSans-Roman-32"/>
      </g>
     </g>
    </g>
    <g id="xtick_3">
     <g id="line2d_9">
      <path clip-path="url(#pcb2bf987bf)" d="
M317.047 345.6
L317.047 43.2" style="fill:none;stroke:#000000;stroke-dasharray:1.000000,3.000000;stroke-dashoffset:0.0;stroke-width:0.5;"/>
     </g>
     <g id="line2d_10">
      <g>
       <use style="stroke:#000000;stroke-width:0.5;" x="317.046856374" xlink:href="#m93b0483c22" y="345.6"/>
      </g>
     </g>
     <g id="line2d_11">
      <g>
       <use style="stroke:#000000;stroke-width:0.5;" x="317.046856374" xlink:href="#m741efc42ff" y="43.2"/>
      </g>
     </g>
     <g id="text_3">
      <!-- Jun29 -->
      <defs>
       <path d="
M10.9844 1.51562
L10.9844 10.5
Q14.7031 8.73438 18.5 7.8125
Q22.3125 6.89062 25.9844 6.89062
Q35.75 6.89062 40.8906 13.4531
Q46.0469 20.0156 46.7812 33.4062
Q43.9531 29.2031 39.5938 26.9531
Q35.25 24.7031 29.9844 24.7031
Q19.0469 24.7031 12.6719 31.3125
Q6.29688 37.9375 6.29688 49.4219
Q6.29688 60.6406 12.9375 67.4219
Q19.5781 74.2188 30.6094 74.2188
Q43.2656 74.2188 49.9219 64.5156
Q56.5938 54.8281 56.5938 36.375
Q56.5938 19.1406 48.4062 8.85938
Q40.2344 -1.42188 26.4219 -1.42188
Q22.7031 -1.42188 18.8906 -0.6875
Q15.0938 0.046875 10.9844 1.51562
M30.6094 32.4219
Q37.25 32.4219 41.125 36.9531
Q45.0156 41.5 45.0156 49.4219
Q45.0156 57.2812 41.125 61.8438
Q37.25 66.4062 30.6094 66.4062
Q23.9688 66.4062 20.0938 61.8438
Q16.2188 57.2812 16.2188 49.4219
Q16.2188 41.5 20.0938 36.9531
Q23.9688 32.4219 30.6094 32.4219" id="BitstreamVeraSans-Roman-39"/>
      </defs>
      <g transform="translate(286.530091555 374.394965385)rotate(-30.0)scale(0.12 -0.12)">
       <use xlink:href="#BitstreamVeraSans-Roman-4a"/>
       <use x="29.4921875" xlink:href="#BitstreamVeraSans-Roman-75"/>
       <use x="92.87109375" xlink:href="#BitstreamVeraSans-Roman-6e"/>
       <use x="156.25" xlink:href="#BitstreamVeraSans-Roman-32"/>
       <use x="219.873046875" xlink:href="#BitstreamVeraSans-Roman-39"/>
      </g>
     </g>
    </g>
    <g id="xtick_4">
     <g id="line2d_12">
      <path clip-path="url(#pcb2bf987bf)" d="
M417.949 345.6
L417.949 43.2" style="fill:none;stroke:#000000;stroke-dasharray:1.000000,3.000000;stroke-dashoffset:0.0;stroke-width:0.5;"/>
     </g>
     <g id="line2d_13">
      <g>
       <use style="stroke:#000000;stroke-width:0.5;" x="417.948571812" xlink:href="#m93b0483c22" y="345.6"/>
      </g>
     </g>
     <g id="line2d_14">
      <g>
       <use style="stroke:#000000;stroke-width:0.5;" x="417.948571812" xlink:href="#m741efc42ff" y="43.2"/>
      </g>
     </g>
     <g id="text_4">
      <!-- Jul06 -->
      <defs>
       <path d="
M31.7812 66.4062
Q24.1719 66.4062 20.3281 58.9062
Q16.5 51.4219 16.5 36.375
Q16.5 21.3906 20.3281 13.8906
Q24.1719 6.39062 31.7812 6.39062
Q39.4531 6.39062 43.2812 13.8906
Q47.125 21.3906 47.125 36.375
Q47.125 51.4219 43.2812 58.9062
Q39.4531 66.4062 31.7812 66.4062
M31.7812 74.2188
Q44.0469 74.2188 50.5156 64.5156
Q56.9844 54.8281 56.9844 36.375
Q56.9844 17.9688 50.5156 8.26562
Q44.0469 -1.42188 31.7812 -1.42188
Q19.5312 -1.42188 13.0625 8.26562
Q6.59375 17.9688 6.59375 36.375
Q6.59375 54.8281 13.0625 64.5156
Q19.5312 74.2188 31.7812 74.2188" id="BitstreamVeraSans-Roman-30"/>
       <path d="
M33.0156 40.375
Q26.375 40.375 22.4844 35.8281
Q18.6094 31.2969 18.6094 23.3906
Q18.6094 15.5312 22.4844 10.9531
Q26.375 6.39062 33.0156 6.39062
Q39.6562 6.39062 43.5312 10.9531
Q47.4062 15.5312 47.4062 23.3906
Q47.4062 31.2969 43.5312 35.8281
Q39.6562 40.375 33.0156 40.375
M52.5938 71.2969
L52.5938 62.3125
Q48.875 64.0625 45.0938 64.9844
Q41.3125 65.9219 37.5938 65.9219
Q27.8281 65.9219 22.6719 59.3281
Q17.5312 52.7344 16.7969 39.4062
Q19.6719 43.6562 24.0156 45.9219
Q28.375 48.1875 33.5938 48.1875
Q44.5781 48.1875 50.9531 41.5156
Q57.3281 34.8594 57.3281 23.3906
Q57.3281 12.1562 50.6875 5.35938
Q44.0469 -1.42188 33.0156 -1.42188
Q20.3594 -1.42188 13.6719 8.26562
Q6.98438 17.9688 6.98438 36.375
Q6.98438 53.6562 15.1875 63.9375
Q23.3906 74.2188 37.2031 74.2188
Q40.9219 74.2188 44.7031 73.4844
Q48.4844 72.75 52.5938 71.2969" id="BitstreamVeraSans-Roman-36"/>
       <path d="
M9.42188 75.9844
L18.4062 75.9844
L18.4062 0
L9.42188 0
z
" id="BitstreamVeraSans-Roman-6c"/>
      </defs>
      <g transform="translate(391.054499511 372.303402885)rotate(-30.0)scale(0.12 -0.12)">
       <use xlink:href="#BitstreamVeraSans-Roman-4a"/>
       <use x="29.4921875" xlink:href="#BitstreamVeraSans-Roman-75"/>
       <use x="92.87109375" xlink:href="#BitstreamVeraSans-Roman-6c"/>
       <use x="120.654296875" xlink:href="#BitstreamVeraSans-Roman-30"/>
       <use x="184.27734375" xlink:href="#BitstreamVeraSans-Roman-36"/>
      </g>
     </g>
    </g>
   </g>
   <g id="matplotlib.axis_2">
    <g id="ytick_1">
     <g id="line2d_15">
      <path clip-path="url(#pcb2bf987bf)" d="
M72 345.6
L518.4 345.6" style="fill:none;stroke:#000000;stroke-dasharray:1.000000,3.000000;stroke-dashoffset:0.0;stroke-width:0.5;"/>
     </g>
     <g id="line2d_16">
      <defs>
       <path d="
M0 0
L4 0" id="m728421d6d4" style="stroke:#000000;stroke-width:0.5;"/>
      </defs>
      <g>
       <use style="stroke:#000000;stroke-width:0.5;" x="72.0" xlink:href="#m728421d6d4" y="345.6"/>
      </g>
     </g>
     <g id="line2d_17">
      <defs>
       <path d="
M0 0
L-4 0" id="mcb0005524f" style="stroke:#000000;stroke-width:0.5;"/>
      </defs>
      <g>
       <use style="stroke:#000000;stroke-width:0.5;" x="518.4" xlink:href="#mcb0005524f" y="345.6"/>
      </g>
     </g>
     <g id="text_5">
      <!-- 0 -->
      <g transform="translate(61.953125 348.91125)scale(0.12 -0.12)">
       <use xlink:href="#BitstreamVeraSans-Roman-30"/>
      </g>
     </g>
    </g>
    <g id="ytick_2">
     <g id="line2d_18">
      <path clip-path="url(#pcb2bf987bf)" d="
M72 285.12
L518.4 285.12" style="fill:none;stroke:#000000;stroke-dasharray:1.000000,3.000000;stroke-dashoffset:0.0;stroke-width:0.5;"/>
     </g>
     <g id="line2d_19">
      <g>
       <use style="stroke:#000000;stroke-width:0.5;" x="72.0" xlink:href="#m728421d6d4" y="285.12"/>
      </g>
     </g>
     <g id="line2d_20">
      <g>
       <use style="stroke:#000000;stroke-width:0.5;" x="518.4" xlink:href="#mcb0005524f" y="285.12"/>
      </g>
     </g>
     <g id="text_6">
      <!-- 20 -->
      <g transform="translate(54.40625 288.43125)scale(0.12 -0.12)">
       <use xlink:href="#BitstreamVeraSans-Roman-32"/>
       <use x="63.623046875" xlink:href="#BitstreamVeraSans-Roman-30"/>
      </g>
     </g>
    </g>
    <g id="ytick_3">
     <g id="line2d_21">
      <path clip-path="url(#pcb2bf987bf)" d="
M72 224.64
L518.4 224.64" style="fill:none;stroke:#000000;stroke-dasharray:1.000000,3.000000;stroke-dashoffset:0.0;stroke-width:0.5;"/>
     </g>
     <g id="line2d_22">
      <g>
       <use style="stroke:#000000;stroke-width:0.5;" x="72.0" xlink:href="#m728421d6d4" y="224.64"/>
      </g>
     </g>
     <g id="line2d_23">
      <g>
       <use style="stroke:#000000;stroke-width:0.5;" x="518.4" xlink:href="#mcb0005524f" y="224.64"/>
      </g>
     </g>
     <g id="text_7">
      <!-- 40 -->
      <defs>
       <path d="
M37.7969 64.3125
L12.8906 25.3906
L37.7969 25.3906
z

M35.2031 72.9062
L47.6094 72.9062
L47.6094 25.3906
L58.0156 25.3906
L58.0156 17.1875
L47.6094 17.1875
L47.6094 0
L37.7969 0
L37.7969 17.1875
L4.89062 17.1875
L4.89062 26.7031
z
" id="BitstreamVeraSans-Roman-34"/>
      </defs>
      <g transform="translate(54.11375 227.95125)scale(0.12 -0.12)">
       <use xlink:href="#BitstreamVeraSans-Roman-34"/>
       <use x="63.623046875" xlink:href="#BitstreamVeraSans-Roman-30"/>
      </g>
     </g>
    </g>
    <g id="ytick_4">
     <g id="line2d_24">
      <path clip-path="url(#pcb2bf987bf)" d="
M72 164.16
L518.4 164.16" style="fill:none;stroke:#000000;stroke-dasharray:1.000000,3.000000;stroke-dashoffset:0.0;stroke-width:0.5;"/>
     </g>
     <g id="line2d_25">
      <g>
       <use style="stroke:#000000;stroke-width:0.5;" x="72.0" xlink:href="#m728421d6d4" y="164.16"/>
      </g>
     </g>
     <g id="line2d_26">
      <g>
       <use style="stroke:#000000;stroke-width:0.5;" x="518.4" xlink:href="#mcb0005524f" y="164.16"/>
      </g>
     </g>
     <g id="text_8">
      <!-- 60 -->
      <g transform="translate(54.365 167.47125)scale(0.12 -0.12)">
       <use xlink:href="#BitstreamVeraSans-Roman-36"/>
       <use x="63.623046875" xlink:href="#BitstreamVeraSans-Roman-30"/>
      </g>
     </g>
    </g>
    <g id="ytick_5">
     <g id="line2d_27">
      <path clip-path="url(#pcb2bf987bf)" d="
M72 103.68
L518.4 103.68" style="fill:none;stroke:#000000;stroke-dasharray:1.000000,3.000000;stroke-dashoffset:0.0;stroke-width:0.5;"/>
     </g>
     <g id="line2d_28">
      <g>
       <use style="stroke:#000000;stroke-width:0.5;" x="72.0" xlink:href="#m728421d6d4" y="103.68"/>
      </g>
     </g>
     <g id="line2d_29">
      <g>
       <use style="stroke:#000000;stroke-width:0.5;" x="518.4" xlink:href="#mcb0005524f" y="103.68"/>
      </g>
     </g>
     <g id="text_9">
      <!-- 80 -->
      <defs>
       <path d="
M31.7812 34.625
Q24.75 34.625 20.7188 30.8594
Q16.7031 27.0938 16.7031 20.5156
Q16.7031 13.9219 20.7188 10.1562
Q24.75 6.39062 31.7812 6.39062
Q38.8125 6.39062 42.8594 10.1719
Q46.9219 13.9688 46.9219 20.5156
Q46.9219 27.0938 42.8906 30.8594
Q38.875 34.625 31.7812 34.625
M21.9219 38.8125
Q15.5781 40.375 12.0312 44.7188
Q8.5 49.0781 8.5 55.3281
Q8.5 64.0625 14.7188 69.1406
Q20.9531 74.2188 31.7812 74.2188
Q42.6719 74.2188 48.875 69.1406
Q55.0781 64.0625 55.0781 55.3281
Q55.0781 49.0781 51.5312 44.7188
Q48 40.375 41.7031 38.8125
Q48.8281 37.1562 52.7969 32.3125
Q56.7812 27.4844 56.7812 20.5156
Q56.7812 9.90625 50.3125 4.23438
Q43.8438 -1.42188 31.7812 -1.42188
Q19.7344 -1.42188 13.25 4.23438
Q6.78125 9.90625 6.78125 20.5156
Q6.78125 27.4844 10.7812 32.3125
Q14.7969 37.1562 21.9219 38.8125
M18.3125 54.3906
Q18.3125 48.7344 21.8438 45.5625
Q25.3906 42.3906 31.7812 42.3906
Q38.1406 42.3906 41.7188 45.5625
Q45.3125 48.7344 45.3125 54.3906
Q45.3125 60.0625 41.7188 63.2344
Q38.1406 66.4062 31.7812 66.4062
Q25.3906 66.4062 21.8438 63.2344
Q18.3125 60.0625 18.3125 54.3906" id="BitstreamVeraSans-Roman-38"/>
      </defs>
      <g transform="translate(54.340625 106.99125)scale(0.12 -0.12)">
       <use xlink:href="#BitstreamVeraSans-Roman-38"/>
       <use x="63.623046875" xlink:href="#BitstreamVeraSans-Roman-30"/>
      </g>
     </g>
    </g>
    <g id="ytick_6">
     <g id="line2d_30">
      <path clip-path="url(#pcb2bf987bf)" d="
M72 43.2
L518.4 43.2" style="fill:none;stroke:#000000;stroke-dasharray:1.000000,3.000000;stroke-dashoffset:0.0;stroke-width:0.5;"/>
     </g>
     <g id="line2d_31">
      <g>
       <use style="stroke:#000000;stroke-width:0.5;" x="72.0" xlink:href="#m728421d6d4" y="43.2"/>
      </g>
     </g>
     <g id="line2d_32">
      <g>
       <use style="stroke:#000000;stroke-width:0.5;" x="518.4" xlink:href="#mcb0005524f" y="43.2"/>
      </g>
     </g>
     <g id="text_10">
      <!-- 100 -->
      <g transform="translate(47.21 46.51125)scale(0.12 -0.12)">
       <use xlink:href="#BitstreamVeraSans-Roman-31"/>
       <use x="63.623046875" xlink:href="#BitstreamVeraSans-Roman-30"/>
       <use x="127.24609375" xlink:href="#BitstreamVeraSans-Roman-30"/>
      </g>
     </g>
    </g>
    <g id="text_11">
     <!-- temperature (C) -->
     <defs>
      <path d="
M34.2812 27.4844
Q23.3906 27.4844 19.1875 25
Q14.9844 22.5156 14.9844 16.5
Q14.9844 11.7188 18.1406 8.90625
Q21.2969 6.10938 26.7031 6.10938
Q34.1875 6.10938 38.7031 11.4062
Q43.2188 16.7031 43.2188 25.4844
L43.2188 27.4844
z

M52.2031 31.2031
L52.2031 0
L43.2188 0
L43.2188 8.29688
Q40.1406 3.32812 35.5469 0.953125
Q30.9531 -1.42188 24.3125 -1.42188
Q15.9219 -1.42188 10.9531 3.29688
Q6 8.01562 6 15.9219
Q6 25.1406 12.1719 29.8281
Q18.3594 34.5156 30.6094 34.5156
L43.2188 34.5156
L43.2188 35.4062
Q43.2188 41.6094 39.1406 45
Q35.0625 48.3906 27.6875 48.3906
Q23 48.3906 18.5469 47.2656
Q14.1094 46.1406 10.0156 43.8906
L10.0156 52.2031
Q14.9375 54.1094 19.5781 55.0469
Q24.2188 56 28.6094 56
Q40.4844 56 46.3438 49.8438
Q52.2031 43.7031 52.2031 31.2031" id="BitstreamVeraSans-Roman-61"/>
      <path id="BitstreamVeraSans-Roman-20"/>
      <path d="
M8.01562 75.875
L15.8281 75.875
Q23.1406 64.3594 26.7812 53.3125
Q30.4219 42.2812 30.4219 31.3906
Q30.4219 20.4531 26.7812 9.375
Q23.1406 -1.70312 15.8281 -13.1875
L8.01562 -13.1875
Q14.5 -2 17.7031 9.0625
Q20.9062 20.125 20.9062 31.3906
Q20.9062 42.6719 17.7031 53.6562
Q14.5 64.6562 8.01562 75.875" id="BitstreamVeraSans-Roman-29"/>
      <path d="
M52 44.1875
Q55.375 50.25 60.0625 53.125
Q64.75 56 71.0938 56
Q79.6406 56 84.2812 50.0156
Q88.9219 44.0469 88.9219 33.0156
L88.9219 0
L79.8906 0
L79.8906 32.7188
Q79.8906 40.5781 77.0938 44.375
Q74.3125 48.1875 68.6094 48.1875
Q61.625 48.1875 57.5625 43.5469
Q53.5156 38.9219 53.5156 30.9062
L53.5156 0
L44.4844 0
L44.4844 32.7188
Q44.4844 40.625 41.7031 44.4062
Q38.9219 48.1875 33.1094 48.1875
Q26.2188 48.1875 22.1562 43.5312
Q18.1094 38.875 18.1094 30.9062
L18.1094 0
L9.07812 0
L9.07812 54.6875
L18.1094 54.6875
L18.1094 46.1875
Q21.1875 51.2188 25.4844 53.6094
Q29.7812 56 35.6875 56
Q41.6562 56 45.8281 52.9688
Q50 49.9531 52 44.1875" id="BitstreamVeraSans-Roman-6d"/>
      <path d="
M64.4062 67.2812
L64.4062 56.8906
Q59.4219 61.5312 53.7812 63.8125
Q48.1406 66.1094 41.7969 66.1094
Q29.2969 66.1094 22.6562 58.4688
Q16.0156 50.8281 16.0156 36.375
Q16.0156 21.9688 22.6562 14.3281
Q29.2969 6.6875 41.7969 6.6875
Q48.1406 6.6875 53.7812 8.98438
Q59.4219 11.2812 64.4062 15.9219
L64.4062 5.60938
Q59.2344 2.09375 53.4375 0.328125
Q47.6562 -1.42188 41.2188 -1.42188
Q24.6562 -1.42188 15.125 8.70312
Q5.60938 18.8438 5.60938 36.375
Q5.60938 53.9531 15.125 64.0781
Q24.6562 74.2188 41.2188 74.2188
Q47.75 74.2188 53.5312 72.4844
Q59.3281 70.75 64.4062 67.2812" id="BitstreamVeraSans-Roman-43"/>
      <path d="
M31 75.875
Q24.4688 64.6562 21.2812 53.6562
Q18.1094 42.6719 18.1094 31.3906
Q18.1094 20.125 21.3125 9.0625
Q24.5156 -2 31 -13.1875
L23.1875 -13.1875
Q15.875 -1.70312 12.2344 9.375
Q8.59375 20.4531 8.59375 31.3906
Q8.59375 42.2812 12.2031 53.3125
Q15.8281 64.3594 23.1875 75.875
z
" id="BitstreamVeraSans-Roman-28"/>
      <path d="
M56.2031 29.5938
L56.2031 25.2031
L14.8906 25.2031
Q15.4844 15.9219 20.4844 11.0625
Q25.4844 6.20312 34.4219 6.20312
Q39.5938 6.20312 44.4531 7.46875
Q49.3125 8.73438 54.1094 11.2812
L54.1094 2.78125
Q49.2656 0.734375 44.1875 -0.34375
Q39.1094 -1.42188 33.8906 -1.42188
Q20.7969 -1.42188 13.1562 6.1875
Q5.51562 13.8125 5.51562 26.8125
Q5.51562 40.2344 12.7656 48.1094
Q20.0156 56 32.3281 56
Q43.3594 56 49.7812 48.8906
Q56.2031 41.7969 56.2031 29.5938
M47.2188 32.2344
Q47.125 39.5938 43.0938 43.9844
Q39.0625 48.3906 32.4219 48.3906
Q24.9062 48.3906 20.3906 44.1406
Q15.875 39.8906 15.1875 32.1719
z
" id="BitstreamVeraSans-Roman-65"/>
      <path d="
M18.3125 70.2188
L18.3125 54.6875
L36.8125 54.6875
L36.8125 47.7031
L18.3125 47.7031
L18.3125 18.0156
Q18.3125 11.3281 20.1406 9.42188
Q21.9688 7.51562 27.5938 7.51562
L36.8125 7.51562
L36.8125 0
L27.5938 0
Q17.1875 0 13.2344 3.875
Q9.28125 7.76562 9.28125 18.0156
L9.28125 47.7031
L2.6875 47.7031
L2.6875 54.6875
L9.28125 54.6875
L9.28125 70.2188
z
" id="BitstreamVeraSans-Roman-74"/>
      <path d="
M41.1094 46.2969
Q39.5938 47.1719 37.8125 47.5781
Q36.0312 48 33.8906 48
Q26.2656 48 22.1875 43.0469
Q18.1094 38.0938 18.1094 28.8125
L18.1094 0
L9.07812 0
L9.07812 54.6875
L18.1094 54.6875
L18.1094 46.1875
Q20.9531 51.1719 25.4844 53.5781
Q30.0312 56 36.5312 56
Q37.4531 56 38.5781 55.875
Q39.7031 55.7656 41.0625 55.5156
z
" id="BitstreamVeraSans-Roman-72"/>
      <path d="
M18.1094 8.20312
L18.1094 -20.7969
L9.07812 -20.7969
L9.07812 54.6875
L18.1094 54.6875
L18.1094 46.3906
Q20.9531 51.2656 25.2656 53.625
Q29.5938 56 35.5938 56
Q45.5625 56 51.7812 48.0938
Q58.0156 40.1875 58.0156 27.2969
Q58.0156 14.4062 51.7812 6.48438
Q45.5625 -1.42188 35.5938 -1.42188
Q29.5938 -1.42188 25.2656 0.953125
Q20.9531 3.32812 18.1094 8.20312
M48.6875 27.2969
Q48.6875 37.2031 44.6094 42.8438
Q40.5312 48.4844 33.4062 48.4844
Q26.2656 48.4844 22.1875 42.8438
Q18.1094 37.2031 18.1094 27.2969
Q18.1094 17.3906 22.1875 11.75
Q26.2656 6.10938 33.4062 6.10938
Q40.5312 6.10938 44.6094 11.75
Q48.6875 17.3906 48.6875 27.2969" id="BitstreamVeraSans-Roman-70"/>
     </defs>
     <g transform="translate(39.714375 242.37375)rotate(-90.0)scale(0.12 -0.12)">
      <use xlink:href="#BitstreamVeraSans-Roman-74"/>
      <use x="39.208984375" xlink:href="#BitstreamVeraSans-Roman-65"/>
      <use x="100.732421875" xlink:href="#BitstreamVeraSans-Roman-6d"/>
      <use x="198.14453125" xlink:href="#BitstreamVeraSans-Roman-70"/>
      <use x="261.62109375" xlink:href="#BitstreamVeraSans-Roman-65"/>
      <use x="323.14453125" xlink:href="#BitstreamVeraSans-Roman-72"/>
      <use x="364.2578125" xlink:href="#BitstreamVeraSans-Roman-61"/>
      <use x="425.537109375" xlink:href="#BitstreamVeraSans-Roman-74"/>
      <use x="464.74609375" xlink:href="#BitstreamVeraSans-Roman-75"/>
      <use x="528.125" xlink:href="#BitstreamVeraSans-Roman-72"/>
      <use x="566.98828125" xlink:href="#BitstreamVeraSans-Roman-65"/>
      <use x="628.51171875" xlink:href="#BitstreamVeraSans-Roman-20"/>
      <use x="660.298828125" xlink:href="#BitstreamVeraSans-Roman-28"/>
      <use x="699.3125" xlink:href="#BitstreamVeraSans-Roman-43"/>
      <use x="769.13671875" xlink:href="#BitstreamVeraSans-Roman-29"/>
     </g>
    </g>
   </g>
   <g id="patch_3">
    <path d="
M72 43.2
L518.4 43.2" style="fill:none;stroke:#000000;"/>
   </g>
   <g id="patch_4">
    <path d="
M518.4 345.6
L518.4 43.2" style="fill:none;stroke:#000000;"/>
   </g>
   <g id="patch_5">
    <path d="
M72 345.6
L518.4 345.6" style="fill:none;stroke:#000000;"/>
   </g>
   <g id="patch_6">
    <path d="
M72 345.6
L72 43.2" style="fill:none;stroke:#000000;"/>
   </g>
   <g id="text_12">
    <!-- CPU critical temperature -->
    <defs>
     <path d="
M19.6719 64.7969
L19.6719 37.4062
L32.0781 37.4062
Q38.9688 37.4062 42.7188 40.9688
Q46.4844 44.5312 46.4844 51.125
Q46.4844 57.6719 42.7188 61.2344
Q38.9688 64.7969 32.0781 64.7969
z

M9.8125 72.9062
L32.0781 72.9062
Q44.3438 72.9062 50.6094 67.3594
Q56.8906 61.8125 56.8906 51.125
Q56.8906 40.3281 50.6094 34.8125
Q44.3438 29.2969 32.0781 29.2969
L19.6719 29.2969
L19.6719 0
L9.8125 0
z
" id="BitstreamVeraSans-Roman-50"/>
     <path d="
M9.42188 54.6875
L18.4062 54.6875
L18.4062 0
L9.42188 0
z

M9.42188 75.9844
L18.4062 75.9844
L18.4062 64.5938
L9.42188 64.5938
z
" id="BitstreamVeraSans-Roman-69"/>
     <path d="
M8.6875 72.9062
L18.6094 72.9062
L18.6094 28.6094
Q18.6094 16.8906 22.8438 11.7344
Q27.0938 6.59375 36.625 6.59375
Q46.0938 6.59375 50.3438 11.7344
Q54.5938 16.8906 54.5938 28.6094
L54.5938 72.9062
L64.5 72.9062
L64.5 27.3906
Q64.5 13.1406 57.4375 5.85938
Q50.3906 -1.42188 36.625 -1.42188
Q22.7969 -1.42188 15.7344 5.85938
Q8.6875 13.1406 8.6875 27.3906
z
" id="BitstreamVeraSans-Roman-55"/>
     <path d="
M48.7812 52.5938
L48.7812 44.1875
Q44.9688 46.2969 41.1406 47.3438
Q37.3125 48.3906 33.4062 48.3906
Q24.6562 48.3906 19.8125 42.8438
Q14.9844 37.3125 14.9844 27.2969
Q14.9844 17.2812 19.8125 11.7344
Q24.6562 6.20312 33.4062 6.20312
Q37.3125 6.20312 41.1406 7.25
Q44.9688 8.29688 48.7812 10.4062
L48.7812 2.09375
Q45.0156 0.34375 40.9844 -0.53125
Q36.9688 -1.42188 32.4219 -1.42188
Q20.0625 -1.42188 12.7812 6.34375
Q5.51562 14.1094 5.51562 27.2969
Q5.51562 40.6719 12.8594 48.3281
Q20.2188 56 33.0156 56
Q37.1562 56 41.1094 55.1406
Q45.0625 54.2969 48.7812 52.5938" id="BitstreamVeraSans-Roman-63"/>
    </defs>
    <g style="fill:#ff0000;" transform="translate(72.0 85.536)scale(0.12 -0.12)">
     <use xlink:href="#BitstreamVeraSans-Roman-43"/>
     <use x="69.82421875" xlink:href="#BitstreamVeraSans-Roman-50"/>
     <use x="130.126953125" xlink:href="#BitstreamVeraSans-Roman-55"/>
     <use x="203.3203125" xlink:href="#BitstreamVeraSans-Roman-20"/>
     <use x="235.107421875" xlink:href="#BitstreamVeraSans-Roman-63"/>
     <use x="290.087890625" xlink:href="#BitstreamVeraSans-Roman-72"/>
     <use x="331.201171875" xlink:href="#BitstreamVeraSans-Roman-69"/>
     <use x="358.984375" xlink:href="#BitstreamVeraSans-Roman-74"/>
     <use x="398.193359375" xlink:href="#BitstreamVeraSans-Roman-69"/>
     <use x="425.9765625" xlink:href="#BitstreamVeraSans-Roman-63"/>
     <use x="480.95703125" xlink:href="#BitstreamVeraSans-Roman-61"/>
     <use x="542.236328125" xlink:href="#BitstreamVeraSans-Roman-6c"/>
     <use x="570.01953125" xlink:href="#BitstreamVeraSans-Roman-20"/>
     <use x="601.806640625" xlink:href="#BitstreamVeraSans-Roman-74"/>
     <use x="641.015625" xlink:href="#BitstreamVeraSans-Roman-65"/>
     <use x="702.5390625" xlink:href="#BitstreamVeraSans-Roman-6d"/>
     <use x="799.951171875" xlink:href="#BitstreamVeraSans-Roman-70"/>
     <use x="863.427734375" xlink:href="#BitstreamVeraSans-Roman-65"/>
     <use x="924.951171875" xlink:href="#BitstreamVeraSans-Roman-72"/>
     <use x="966.064453125" xlink:href="#BitstreamVeraSans-Roman-61"/>
     <use x="1027.34375" xlink:href="#BitstreamVeraSans-Roman-74"/>
     <use x="1066.55273438" xlink:href="#BitstreamVeraSans-Roman-75"/>
     <use x="1129.93164062" xlink:href="#BitstreamVeraSans-Roman-72"/>
     <use x="1168.79492188" xlink:href="#BitstreamVeraSans-Roman-65"/>
    </g>
   </g>
   <g id="text_13">
    <!-- headnode -->
    <defs>
     <path d="
M45.4062 46.3906
L45.4062 75.9844
L54.3906 75.9844
L54.3906 0
L45.4062 0
L45.4062 8.20312
Q42.5781 3.32812 38.25 0.953125
Q33.9375 -1.42188 27.875 -1.42188
Q17.9688 -1.42188 11.7344 6.48438
Q5.51562 14.4062 5.51562 27.2969
Q5.51562 40.1875 11.7344 48.0938
Q17.9688 56 27.875 56
Q33.9375 56 38.25 53.625
Q42.5781 51.2656 45.4062 46.3906
M14.7969 27.2969
Q14.7969 17.3906 18.875 11.75
Q22.9531 6.10938 30.0781 6.10938
Q37.2031 6.10938 41.2969 11.75
Q45.4062 17.3906 45.4062 27.2969
Q45.4062 37.2031 41.2969 42.8438
Q37.2031 48.4844 30.0781 48.4844
Q22.9531 48.4844 18.875 42.8438
Q14.7969 37.2031 14.7969 27.2969" id="BitstreamVeraSans-Roman-64"/>
     <path d="
M30.6094 48.3906
Q23.3906 48.3906 19.1875 42.75
Q14.9844 37.1094 14.9844 27.2969
Q14.9844 17.4844 19.1562 11.8438
Q23.3438 6.20312 30.6094 6.20312
Q37.7969 6.20312 41.9844 11.8594
Q46.1875 17.5312 46.1875 27.2969
Q46.1875 37.0156 41.9844 42.7031
Q37.7969 48.3906 30.6094 48.3906
M30.6094 56
Q42.3281 56 49.0156 48.375
Q55.7188 40.7656 55.7188 27.2969
Q55.7188 13.875 49.0156 6.21875
Q42.3281 -1.42188 30.6094 -1.42188
Q18.8438 -1.42188 12.1719 6.21875
Q5.51562 13.875 5.51562 27.2969
Q5.51562 40.7656 12.1719 48.375
Q18.8438 56 30.6094 56" id="BitstreamVeraSans-Roman-6f"/>
     <path d="
M54.8906 33.0156
L54.8906 0
L45.9062 0
L45.9062 32.7188
Q45.9062 40.4844 42.875 44.3281
Q39.8438 48.1875 33.7969 48.1875
Q26.5156 48.1875 22.3125 43.5469
Q18.1094 38.9219 18.1094 30.9062
L18.1094 0
L9.07812 0
L9.07812 75.9844
L18.1094 75.9844
L18.1094 46.1875
Q21.3438 51.125 25.7031 53.5625
Q30.0781 56 35.7969 56
Q45.2188 56 50.0469 50.1719
Q54.8906 44.3438 54.8906 33.0156" id="BitstreamVeraSans-Roman-68"/>
    </defs>
    <g transform="translate(260.29125 38.2)scale(0.144 -0.144)">
     <use xlink:href="#BitstreamVeraSans-Roman-68"/>
     <use x="63.37890625" xlink:href="#BitstreamVeraSans-Roman-65"/>
     <use x="124.90234375" xlink:href="#BitstreamVeraSans-Roman-61"/>
     <use x="186.181640625" xlink:href="#BitstreamVeraSans-Roman-64"/>
     <use x="249.658203125" xlink:href="#BitstreamVeraSans-Roman-6e"/>
     <use x="313.037109375" xlink:href="#BitstreamVeraSans-Roman-6f"/>
     <use x="374.21875" xlink:href="#BitstreamVeraSans-Roman-64"/>
     <use x="437.6953125" xlink:href="#BitstreamVeraSans-Roman-65"/>
    </g>
   </g>
  </g>
 </g>
 <defs>
  <clipPath id="pcb2bf987bf">
   <rect height="302.4" width="446.4" x="72.0" y="43.2"/>
  </clipPath>
 </defs>
</svg>
