<?xml version="1.0" encoding="utf-8" standalone="no"?>
<!DOCTYPE svg PUBLIC "-//W3C//DTD SVG 1.1//EN"
  "http://www.w3.org/Graphics/SVG/1.1/DTD/svg11.dtd">
<!-- Created with matplotlib (http://matplotlib.org/) -->
<svg height="432pt" version="1.1" viewBox="0 0 576 432" width="576pt" xmlns="http://www.w3.org/2000/svg" xmlns:xlink="http://www.w3.org/1999/xlink">
 <defs>
  <style type="text/css">
*{stroke-linecap:butt;stroke-linejoin:round;}
  </style>
 </defs>
 <g id="figure_1">
  <g id="patch_1">
   <path d="
M0 432
L576 432
L576 0
L0 0
z
" style="fill:#ffffff;"/>
  </g>
  <g id="axes_1">
   <g id="patch_2">
    <path d="
M72 345.6
L518.4 345.6
L518.4 43.2
L72 43.2
z
" style="fill:#ffffff;"/>
   </g>
   <g id="line2d_1">
    <path clip-path="url(#pcb2bf987bf)" d="
M72 227.664
L72.3006 227.664
L72.451 230.688
L72.6015 230.688
L72.7519 227.664
L72.9023 230.688
L73.0527 227.664
L73.2031 230.688
L73.3535 230.688
L73.5039 227.664
L73.6543 230.688
L73.8047 227.664
L73.9551 227.664
L74.1055 230.688
L74.5567 230.688
L74.7071 227.664
L74.8575 227.664
L75.1583 233.712
L75.3087 227.664
L75.4591 230.688
L75.6095 227.664
L75.7599 230.688
L75.9103 224.64
L76.0608 230.688
L76.2112 227.664
L76.512 233.712
L77.1136 233.712
L77.264 230.688
L77.7152 230.688
L77.8656 233.712
L78.016 230.688
L78.1664 233.712
L78.3168 230.688
L78.4672 233.712
L78.6176 233.712
L78.768 236.736
L79.0688 230.688
L79.2192 233.712
L79.3696 233.712
L79.5201 230.688
L79.8209 236.736
L79.9713 230.688
L80.1217 230.688
L80.2721 233.712
L81.0241 233.712
L81.1745 230.688
L81.3249 233.712
L81.4753 230.688
L81.6257 233.712
L81.7761 230.688
L81.9267 233.712
L82.3777 233.712
L82.5281 230.688
L82.6785 230.688
L82.8289 233.712
L82.9794 230.688
L83.1298 230.688
L83.2802 233.712
L83.4306 227.664
L83.581 230.688
L83.7314 227.664
L83.8818 230.688
L84.333 230.688
L84.4834 227.664
L84.6338 227.664
L84.7844 230.688
L84.9346 227.664
L85.2354 227.664
L85.3858 224.64
L85.6866 224.64
L85.837 227.664
L85.9874 224.64
L86.1378 227.664
L86.5891 227.664
L86.7395 224.64
L86.8899 227.664
L87.3411 227.664
L87.4915 230.688
L87.6421 224.64
L87.7923 227.664
L88.0931 227.664
L88.2435 224.64
L88.3939 227.664
L88.5443 227.664
L88.6947 230.688
L88.9955 230.688
L89.1459 227.664
L89.2963 230.688
L89.7475 230.688
L89.898 227.664
L90.0484 227.664
L90.1988 230.688
L90.3492 227.664
L90.4996 230.688
L91.1012 230.688
L91.2516 227.664
L91.402 227.664
L91.5524 224.64
L91.7028 230.688
L91.8532 227.664
L92.0036 230.688
L92.154 230.688
L92.3044 233.712
L92.6052 233.712
L92.7556 230.688
L92.906 233.712
L93.0564 227.664
L93.2068 230.688
L93.5077 230.688
L93.6581 233.712
L93.8085 230.688
L94.5605 230.688
L94.7109 227.664
L94.8613 227.664
L95.0117 233.712
L95.1623 230.688
L95.3125 230.688
L95.4629 224.64
L95.6133 230.688
L95.7637 230.688
L95.9141 227.664
L96.0645 227.664
L96.3653 233.712
L96.8166 224.64
L97.1174 230.688
L97.2678 230.688
L97.5686 224.64
L97.719 224.64
L97.8694 227.664
L98.0198 224.64
L98.1702 227.664
L98.3206 224.64
L98.471 227.664
L98.6214 227.664
L98.7718 224.64
L98.9222 227.664
L99.223 227.664
L99.3734 230.688
L99.6742 224.64
L99.975 230.688
L100.126 227.664
L100.276 227.664
L100.426 224.64
L100.577 227.664
L100.727 224.64
L100.877 227.664
L101.028 227.664
L101.178 224.64
L101.479 224.64
L101.629 227.664
L102.081 227.664
L102.231 224.64
L102.382 224.64
L102.532 227.664
L103.134 227.664
L103.284 230.688
L103.735 230.688
L103.886 227.664
L104.186 227.664
L104.337 230.688
L104.638 230.688
L104.788 221.616
L105.089 233.712
L105.239 230.688
L105.39 230.688
L105.54 227.664
L106.442 227.664
L106.593 224.64
L106.743 227.664
L107.044 227.664
L107.194 224.64
L107.495 224.64
L107.646 227.664
L107.796 227.664
L107.946 224.64
L108.097 227.664
L108.398 221.616
L108.548 224.64
L108.999 224.64
L109.15 221.616
L109.3 224.64
L109.451 221.616
L109.601 227.664
L109.751 221.616
L109.902 224.64
L110.353 224.64
L110.503 221.616
L110.654 224.64
L110.804 221.616
L110.955 221.616
L111.105 224.64
L111.255 224.64
L111.406 221.616
L111.707 227.664
L112.459 227.664
L112.609 224.64
L112.759 227.664
L112.91 224.64
L113.06 227.664
L113.812 227.664
L114.113 218.592
L114.263 227.664
L114.414 227.664
L114.564 224.64
L114.865 224.64
L115.015 227.664
L115.166 224.64
L115.467 224.64
L115.617 227.664
L116.67 227.664
L116.82 224.64
L116.971 227.664
L117.422 227.664
L117.572 224.64
L117.723 224.64
L117.873 227.664
L118.174 227.664
L118.324 221.616
L118.475 227.664
L118.625 224.64
L118.776 227.664
L119.377 227.664
L119.528 224.64
L119.678 224.64
L119.828 230.688
L119.979 227.664
L120.129 227.664
L120.28 230.688
L120.881 230.688
L121.032 227.664
L121.182 233.712
L121.332 230.688
L121.633 230.688
L121.784 233.712
L121.934 230.688
L122.084 233.712
L122.385 233.712
L122.536 230.688
L123.137 230.688
L123.589 239.76
L123.739 236.736
L123.889 239.76
L124.04 236.736
L124.341 236.736
L124.491 233.712
L124.641 233.712
L124.792 239.76
L125.093 233.712
L125.243 236.736
L125.393 236.736
L125.544 239.76
L125.694 239.76
L125.845 236.736
L126.145 236.736
L126.296 233.712
L126.446 236.736
L126.597 230.688
L126.897 236.736
L127.048 236.736
L127.198 239.76
L127.349 233.712
L128.101 233.712
L128.251 230.688
L128.401 233.712
L128.552 230.688
L128.702 233.712
L128.853 230.688
L129.003 236.736
L129.153 227.664
L129.454 233.712
L129.755 233.712
L129.906 230.688
L130.056 233.712
L130.206 230.688
L130.357 230.688
L130.507 233.712
L130.658 233.712
L130.808 230.688
L130.958 233.712
L131.259 233.712
L131.41 230.688
L131.56 233.712
L131.71 230.688
L131.861 233.712
L132.613 233.712
L132.763 230.688
L132.914 233.712
L133.064 233.712
L133.214 230.688
L133.365 233.712
L134.267 233.712
L134.418 236.736
L134.568 236.736
L134.718 239.76
L134.869 236.736
L135.019 239.76
L135.17 236.736
L135.621 236.736
L135.771 239.76
L136.072 239.76
L136.222 236.736
L136.373 239.76
L136.523 236.736
L136.674 239.76
L136.824 236.736
L137.576 236.736
L137.727 233.712
L137.877 236.736
L138.178 236.736
L138.328 233.712
L138.479 236.736
L138.779 236.736
L138.93 233.712
L139.08 233.712
L139.231 236.736
L139.381 236.736
L139.531 239.76
L139.682 236.736
L139.832 239.76
L139.983 236.736
L140.133 239.76
L140.283 239.76
L140.584 230.688
L140.735 233.712
L141.035 233.712
L141.186 230.688
L141.336 233.712
L141.487 230.688
L141.637 233.712
L141.787 227.664
L141.938 230.688
L142.088 224.64
L142.389 230.688
L142.84 230.688
L142.991 227.664
L143.592 227.664
L143.743 224.64
L144.044 230.688
L144.645 230.688
L144.796 227.664
L144.946 230.688
L145.096 230.688
L145.397 224.64
L145.548 230.688
L145.848 230.688
L145.999 224.64
L146.149 230.688
L146.3 230.688
L146.45 227.664
L146.901 227.664
L147.052 230.688
L147.352 224.64
L147.653 230.688
L147.804 224.64
L148.104 230.688
L148.255 227.664
L148.556 233.712
L148.706 230.688
L148.856 230.688
L149.007 236.736
L149.157 236.736
L149.458 230.688
L149.608 233.712
L149.909 233.712
L150.06 230.688
L150.21 233.712
L150.361 233.712
L150.511 236.736
L150.661 230.688
L150.812 233.712
L150.962 233.712
L151.113 230.688
L151.263 233.712
L151.413 230.688
L152.165 230.688
L152.316 233.712
L152.466 230.688
L152.617 233.712
L152.767 230.688
L152.917 230.688
L153.068 233.712
L153.218 233.712
L153.519 227.664
L153.669 230.688
L153.82 230.688
L153.97 227.664
L154.121 227.664
L154.271 230.688
L154.572 230.688
L154.722 227.664
L154.873 230.688
L155.023 221.616
L155.324 230.688
L155.474 227.664
L155.625 233.712
L155.775 233.712
L155.925 227.664
L156.226 227.664
L156.377 230.688
L156.527 227.664
L156.677 230.688
L156.828 227.664
L156.978 227.664
L157.129 224.64
L157.279 230.688
L157.43 221.616
L157.58 227.664
L158.482 227.664
L158.633 224.64
L158.783 227.664
L159.084 227.664
L159.234 230.688
L159.385 227.664
L159.535 227.664
L159.836 233.712
L159.986 230.688
L160.287 230.688
L160.438 224.64
L160.588 230.688
L160.738 224.64
L160.889 233.712
L161.039 227.664
L161.34 227.664
L161.49 230.688
L161.942 230.688
L162.092 227.664
L162.242 233.712
L162.393 230.688
L162.844 230.688
L162.994 227.664
L163.295 233.712
L163.446 230.688
L163.596 236.736
L163.746 233.712
L163.897 236.736
L164.047 236.736
L164.198 233.712
L164.348 236.736
L164.499 233.712
L164.799 233.712
L164.95 230.688
L165.1 236.736
L165.251 233.712
L165.401 233.712
L165.551 236.736
L165.702 236.736
L165.852 230.688
L166.003 233.712
L166.303 233.712
L166.454 236.736
L166.755 236.736
L166.905 233.712
L167.055 233.712
L167.206 236.736
L167.507 230.688
L167.807 236.736
L167.958 230.688
L168.108 233.712
L169.011 233.712
L169.161 227.664
L169.311 233.712
L169.612 233.712
L169.763 230.688
L170.063 230.688
L170.214 227.664
L170.515 227.664
L170.665 230.688
L170.816 227.664
L172.62 227.664
L172.771 224.64
L173.072 224.64
L173.222 227.664
L173.523 227.664
L173.673 224.64
L173.824 224.64
L173.974 227.664
L174.124 227.664
L174.275 224.64
L174.876 224.64
L175.027 227.664
L175.177 224.64
L175.328 224.64
L175.478 227.664
L175.628 224.64
L175.779 227.664
L176.832 227.664
L176.982 224.64
L177.132 227.664
L177.283 227.664
L177.433 230.688
L177.584 230.688
L177.734 233.712
L177.885 230.688
L178.035 233.712
L178.185 233.712
L178.336 230.688
L178.486 233.712
L178.787 233.712
L178.937 230.688
L179.088 233.712
L179.238 230.688
L179.99 230.688
L180.141 233.712
L180.291 233.712
L180.441 230.688
L180.742 230.688
L180.893 233.712
L181.043 227.664
L181.193 233.712
L181.494 233.712
L181.645 230.688
L181.795 233.712
L182.096 233.712
L182.246 236.736
L182.397 227.664
L182.547 230.688
L182.848 230.688
L182.998 227.664
L183.299 233.712
L183.449 230.688
L183.6 230.688
L183.75 233.712
L183.901 230.688
L184.051 233.712
L184.352 233.712
L184.502 230.688
L184.653 230.688
L184.803 227.664
L184.954 230.688
L185.104 227.664
L185.706 227.664
L185.856 230.688
L186.006 227.664
L186.157 227.664
L186.307 224.64
L186.458 227.664
L186.608 224.64
L186.758 227.664
L186.909 224.64
L187.059 227.664
L187.21 224.64
L187.36 227.664
L187.51 227.664
L187.661 224.64
L187.811 227.664
L187.962 224.64
L188.262 224.64
L188.413 227.664
L188.563 224.64
L188.864 224.64
L189.014 227.664
L189.165 227.664
L189.315 224.64
L189.466 230.688
L189.616 227.664
L189.766 227.664
L189.917 230.688
L190.067 227.664
L190.97 227.664
L191.12 230.688
L191.27 227.664
L191.722 227.664
L191.872 224.64
L192.023 227.664
L192.173 227.664
L192.323 224.64
L192.474 227.664
L192.624 224.64
L192.775 227.664
L192.925 233.712
L193.075 230.688
L193.226 236.736
L193.527 230.688
L193.677 230.688
L193.827 224.64
L193.978 230.688
L194.128 227.664
L194.279 230.688
L194.429 230.688
L194.579 227.664
L194.73 227.664
L194.88 224.64
L195.031 230.688
L195.331 230.688
L195.482 227.664
L195.632 227.664
L195.783 224.64
L195.933 230.688
L197.287 230.688
L197.437 233.712
L197.587 227.664
L197.738 227.664
L197.888 224.64
L198.039 227.664
L198.189 224.64
L198.34 224.64
L198.49 230.688
L198.791 221.616
L199.092 221.616
L199.242 224.64
L199.392 221.616
L199.543 227.664
L199.693 224.64
L199.844 224.64
L199.994 221.616
L200.445 221.616
L200.596 224.64
L201.799 224.64
L201.949 227.664
L202.25 221.616
L202.4 221.616
L202.551 227.664
L202.852 221.616
L203.002 224.64
L203.152 221.616
L203.303 227.664
L203.453 224.64
L203.604 227.664
L204.205 227.664
L204.356 230.688
L204.656 224.64
L204.807 227.664
L205.108 227.664
L205.258 224.64
L205.409 227.664
L205.86 227.664
L206.01 224.64
L206.161 230.688
L206.461 224.64
L206.612 227.664
L206.913 227.664
L207.063 224.64
L207.213 227.664
L207.364 224.64
L207.514 227.664
L208.116 227.664
L208.266 224.64
L208.567 224.64
L208.717 227.664
L208.868 221.616
L209.018 224.64
L209.169 224.64
L209.319 221.616
L209.469 224.64
L209.62 221.616
L209.77 224.64
L209.921 218.592
L210.071 221.616
L210.221 218.592
L210.372 224.64
L210.673 218.592
L210.823 224.64
L210.973 221.616
L211.124 227.664
L211.274 224.64
L211.425 227.664
L211.575 221.616
L211.725 224.64
L211.876 221.616
L212.026 221.616
L212.177 215.568
L212.327 224.64
L212.628 218.592
L212.778 221.616
L212.929 221.616
L213.079 224.64
L213.23 221.616
L213.38 224.64
L213.681 224.64
L213.831 221.616
L213.982 224.64
L214.433 224.64
L214.583 227.664
L214.734 224.64
L215.034 224.64
L215.185 221.616
L215.335 221.616
L215.486 224.64
L215.636 221.616
L215.937 227.664
L216.238 227.664
L216.388 224.64
L216.538 227.664
L216.689 224.64
L216.839 227.664
L216.99 224.64
L218.193 224.64
L218.343 227.664
L218.644 227.664
L218.794 221.616
L219.095 227.664
L219.246 224.64
L219.396 227.664
L219.547 224.64
L219.847 224.64
L219.998 227.664
L220.148 227.664
L220.299 224.64
L220.449 227.664
L220.599 227.664
L220.75 224.64
L221.051 230.688
L221.201 227.664
L221.351 230.688
L221.652 230.688
L221.803 233.712
L222.404 233.712
L222.555 230.688
L222.705 233.712
L222.855 230.688
L223.006 233.712
L223.156 227.664
L223.307 233.712
L223.607 233.712
L223.758 230.688
L223.908 230.688
L224.059 233.712
L224.51 233.712
L224.66 230.688
L224.811 230.688
L224.961 227.664
L225.111 230.688
L225.412 230.688
L225.563 233.712
L225.713 233.712
L225.864 227.664
L226.014 233.712
L226.465 233.712
L226.616 230.688
L226.766 230.688
L226.916 227.664
L227.067 233.712
L227.217 230.688
L227.368 230.688
L227.518 233.712
L227.668 233.712
L227.819 230.688
L227.969 233.712
L228.12 230.688
L228.27 230.688
L228.42 233.712
L228.721 233.712
L228.872 230.688
L229.172 230.688
L229.323 227.664
L229.473 233.712
L229.624 224.64
L229.774 230.688
L229.924 224.64
L230.075 227.664
L230.376 227.664
L230.526 230.688
L230.676 227.664
L231.278 227.664
L231.428 224.64
L231.579 230.688
L231.88 224.64
L232.03 227.664
L232.632 227.664
L232.782 230.688
L232.933 227.664
L233.083 230.688
L233.233 227.664
L233.384 230.688
L233.534 227.664
L234.136 227.664
L234.286 224.64
L234.437 230.688
L234.587 227.664
L234.737 227.664
L234.888 230.688
L235.038 227.664
L235.189 227.664
L235.339 230.688
L235.489 230.688
L235.64 227.664
L235.941 233.712
L236.392 233.712
L236.542 230.688
L236.693 230.688
L236.843 236.736
L237.144 236.736
L237.294 233.712
L237.595 233.712
L237.745 236.736
L237.896 233.712
L238.046 233.712
L238.197 230.688
L238.648 230.688
L238.798 233.712
L238.949 233.712
L239.099 227.664
L239.249 233.712
L239.4 233.712
L239.55 230.688
L239.701 233.712
L239.851 233.712
L240.002 230.688
L240.152 230.688
L240.302 233.712
L240.453 230.688
L240.603 230.688
L240.754 233.712
L240.904 230.688
L241.054 233.712
L242.408 233.712
L242.558 230.688
L242.709 233.712
L242.859 227.664
L243.01 230.688
L243.31 224.64
L243.461 224.64
L243.611 227.664
L243.912 227.664
L244.062 224.64
L244.363 230.688
L244.514 230.688
L244.664 227.664
L244.814 230.688
L244.965 227.664
L245.115 230.688
L245.266 227.664
L246.92 227.664
L247.071 224.64
L247.221 227.664
L248.123 227.664
L248.274 224.64
L248.424 224.64
L248.575 227.664
L248.725 224.64
L249.026 230.688
L249.176 227.664
L249.627 227.664
L249.928 233.712
L250.229 227.664
L250.379 230.688
L250.53 230.688
L250.68 233.712
L250.831 230.688
L250.981 236.736
L251.282 230.688
L251.432 233.712
L251.733 233.712
L251.883 227.664
L252.184 233.712
L252.936 233.712
L253.087 230.688
L253.237 233.712
L253.538 233.712
L253.688 230.688
L253.989 230.688
L254.14 233.712
L254.29 233.712
L254.44 227.664
L254.591 230.688
L255.042 230.688
L255.192 224.64
L255.343 233.712
L255.493 233.712
L255.644 230.688
L255.794 233.712
L255.944 233.712
L256.095 230.688
L256.396 230.688
L256.546 227.664
L256.696 233.712
L256.997 227.664
L257.599 227.664
L257.749 224.64
L257.9 227.664
L258.05 224.64
L258.2 224.64
L258.351 221.616
L258.501 227.664
L258.652 227.664
L258.802 224.64
L258.952 227.664
L259.103 227.664
L259.253 224.64
L259.404 227.664
L260.306 227.664
L260.457 221.616
L260.757 227.664
L260.908 224.64
L261.058 227.664
L261.209 227.664
L261.359 224.64
L261.509 227.664
L262.111 227.664
L262.261 230.688
L262.412 227.664
L262.562 227.664
L262.713 224.64
L262.863 227.664
L263.013 227.664
L263.164 224.64
L263.314 230.688
L263.465 224.64
L263.765 230.688
L263.916 227.664
L264.066 230.688
L264.217 230.688
L264.367 227.664
L264.517 230.688
L265.42 230.688
L265.57 233.712
L265.721 230.688
L265.871 233.712
L266.021 233.712
L266.172 230.688
L266.322 230.688
L266.473 233.712
L266.623 230.688
L266.773 230.688
L266.924 233.712
L267.074 233.712
L267.225 230.688
L267.375 230.688
L267.526 233.712
L267.676 230.688
L267.826 233.712
L268.278 233.712
L268.428 227.664
L268.729 233.712
L268.879 230.688
L269.18 230.688
L269.33 227.664
L269.481 230.688
L269.631 230.688
L269.782 233.712
L269.932 233.712
L270.082 230.688
L270.534 230.688
L270.684 233.712
L270.834 230.688
L271.737 230.688
L271.887 224.64
L272.188 230.688
L272.489 230.688
L272.639 227.664
L272.79 230.688
L272.94 227.664
L273.09 230.688
L273.241 224.64
L273.542 224.64
L273.692 230.688
L273.842 227.664
L273.993 227.664
L274.143 224.64
L274.294 224.64
L274.444 227.664
L274.595 224.64
L274.745 227.664
L274.895 224.64
L275.046 227.664
L275.347 227.664
L275.497 224.64
L275.647 224.64
L275.798 230.688
L275.948 227.664
L276.099 227.664
L276.249 224.64
L276.851 224.64
L277.001 227.664
L277.151 224.64
L277.302 227.664
L278.505 227.664
L278.655 230.688
L278.806 230.688
L278.956 233.712
L279.107 230.688
L279.257 233.712
L279.558 233.712
L279.859 227.664
L280.159 233.712
L280.31 230.688
L280.46 230.688
L280.611 233.712
L280.761 230.688
L281.212 230.688
L281.363 227.664
L281.513 233.712
L281.814 233.712
L281.964 230.688
L282.115 230.688
L282.265 227.664
L282.416 233.712
L282.566 230.688
L283.168 230.688
L283.318 227.664
L283.619 233.712
L283.769 227.664
L283.92 227.664
L284.07 230.688
L284.371 230.688
L284.521 233.712
L284.672 227.664
L284.822 233.712
L284.972 230.688
L285.574 230.688
L285.724 227.664
L286.025 227.664
L286.176 230.688
L286.326 227.664
L286.476 227.664
L286.627 230.688
L286.777 224.64
L286.928 227.664
L287.83 227.664
L287.981 224.64
L288.281 224.64
L288.432 227.664
L288.582 224.64
L288.733 227.664
L288.883 227.664
L289.033 224.64
L289.184 224.64
L289.334 227.664
L289.485 224.64
L289.635 227.664
L289.936 227.664
L290.086 224.64
L290.838 224.64
L290.989 221.616
L291.29 227.664
L291.59 221.616
L291.741 224.64
L291.891 224.64
L292.041 227.664
L292.192 227.664
L292.342 224.64
L292.793 224.64
L292.944 227.664
L293.245 227.664
L293.395 224.64
L293.696 224.64
L293.846 230.688
L293.997 227.664
L294.147 230.688
L294.297 230.688
L294.448 227.664
L294.598 230.688
L295.05 230.688
L295.2 227.664
L295.35 230.688
L295.501 230.688
L295.651 227.664
L295.802 230.688
L295.952 230.688
L296.102 227.664
L296.253 227.664
L296.403 233.712
L296.554 227.664
L296.704 230.688
L296.854 227.664
L297.306 227.664
L297.456 230.688
L297.606 227.664
L297.757 227.664
L297.907 230.688
L298.058 230.688
L298.208 233.712
L298.358 230.688
L298.81 230.688
L298.96 227.664
L299.11 227.664
L299.261 224.64
L299.411 227.664
L299.712 227.664
L299.862 224.64
L300.013 227.664
L300.163 224.64
L300.614 224.64
L300.765 227.664
L300.915 224.64
L301.066 224.64
L301.216 221.616
L301.366 224.64
L301.667 224.64
L301.818 227.664
L301.968 224.64
L302.419 224.64
L302.57 227.664
L302.72 224.64
L302.871 227.664
L303.171 227.664
L303.322 224.64
L303.472 224.64
L303.623 227.664
L303.773 224.64
L303.923 224.64
L304.074 227.664
L304.224 224.64
L304.675 224.64
L304.826 227.664
L304.976 224.64
L305.277 224.64
L305.427 227.664
L305.578 227.664
L305.728 224.64
L305.879 227.664
L306.33 227.664
L306.48 224.64
L306.631 203.472
L306.781 224.64
L306.932 224.64
L307.082 227.664
L307.232 224.64
L307.984 224.64
L308.135 227.664
L308.436 221.616
L308.586 224.64
L308.736 224.64
L308.887 221.616
L309.037 221.616
L309.188 227.664
L309.338 227.664
L309.639 221.616
L309.94 227.664
L310.09 224.64
L310.24 227.664
L310.541 221.616
L310.692 221.616
L310.842 218.592
L310.992 221.616
L311.143 221.616
L311.293 218.592
L311.744 218.592
L311.895 221.616
L312.346 221.616
L312.496 218.592
L312.647 221.616
L312.797 221.616
L312.948 218.592
L313.098 221.616
L313.399 221.616
L313.549 215.568
L313.7 224.64
L313.85 218.592
L314 221.616
L314.452 221.616
L314.602 224.64
L314.752 221.616
L315.354 221.616
L315.505 224.64
L315.655 224.64
L315.805 221.616
L315.956 224.64
L316.257 224.64
L316.407 221.616
L316.557 221.616
L316.708 224.64
L316.858 221.616
L317.009 224.64
L317.159 221.616
L317.309 224.64
L317.46 224.64
L317.61 221.616
L317.761 221.616
L317.911 224.64
L318.061 224.64
L318.212 221.616
L318.513 221.616
L318.663 224.64
L318.813 221.616
L318.964 224.64
L319.114 224.64
L319.265 221.616
L319.415 224.64
L319.565 224.64
L319.716 221.616
L320.017 221.616
L320.167 224.64
L320.317 221.616
L320.468 224.64
L321.37 224.64
L321.521 221.616
L321.671 221.616
L321.972 227.664
L322.273 227.664
L322.423 230.688
L322.574 230.688
L322.724 233.712
L322.874 230.688
L323.025 230.688
L323.175 227.664
L323.326 230.688
L323.476 230.688
L323.626 233.712
L323.777 230.688
L324.529 230.688
L324.679 233.712
L324.83 233.712
L324.98 230.688
L325.13 230.688
L325.281 233.712
L325.431 230.688
L325.582 233.712
L325.732 230.688
L325.882 230.688
L326.033 236.736
L326.183 236.736
L326.634 245.808
L326.785 239.76
L326.935 239.76
L327.086 242.784
L327.236 242.784
L327.386 239.76
L327.537 245.808
L327.988 245.808
L328.138 242.784
L328.289 245.808
L328.439 245.808
L328.59 248.832
L328.74 245.808
L328.89 248.832
L329.041 248.832
L329.191 242.784
L329.342 245.808
L329.492 242.784
L329.643 245.808
L329.793 242.784
L329.943 245.808
L330.094 239.76
L330.395 239.76
L330.545 242.784
L330.695 236.736
L330.846 239.76
L330.996 236.736
L331.147 239.76
L331.297 236.736
L331.447 239.76
L331.598 236.736
L331.748 236.736
L331.899 233.712
L332.049 236.736
L332.199 233.712
L332.35 236.736
L332.5 236.736
L332.651 233.712
L333.403 233.712
L333.553 236.736
L333.703 236.736
L333.854 233.712
L334.004 233.712
L334.155 236.736
L334.606 236.736
L334.756 230.688
L334.907 236.736
L335.057 233.712
L335.358 233.712
L335.508 230.688
L335.659 233.712
L335.809 233.712
L335.96 230.688
L336.11 233.712
L336.26 227.664
L336.561 239.76
L336.712 239.76
L336.862 242.784
L337.012 242.784
L337.163 239.76
L337.313 245.808
L337.464 242.784
L337.614 245.808
L338.516 245.808
L338.667 248.832
L338.817 245.808
L338.968 245.808
L339.118 248.832
L339.268 245.808
L339.419 248.832
L339.72 248.832
L339.87 245.808
L340.02 245.808
L340.171 248.832
L340.321 248.832
L340.472 239.76
L340.622 248.832
L340.772 245.808
L340.923 248.832
L341.374 248.832
L341.524 245.808
L341.675 248.832
L341.825 248.832
L341.976 245.808
L342.126 248.832
L342.276 248.832
L342.427 245.808
L342.577 251.856
L342.728 245.808
L342.878 245.808
L343.029 251.856
L343.179 248.832
L343.329 248.832
L343.48 245.808
L343.63 248.832
L343.931 248.832
L344.081 245.808
L344.232 239.76
L344.382 242.784
L345.134 242.784
L345.285 239.76
L345.435 242.784
L345.585 242.784
L345.736 239.76
L345.886 239.76
L346.037 236.736
L346.187 239.76
L346.488 239.76
L346.638 236.736
L346.789 239.76
L347.24 239.76
L347.39 236.736
L347.541 239.76
L347.841 239.76
L347.992 236.736
L348.142 239.76
L348.293 236.736
L348.443 236.736
L348.593 239.76
L348.744 239.76
L348.894 236.736
L349.045 236.736
L349.195 233.712
L349.345 236.736
L349.496 236.736
L349.646 239.76
L350.248 239.76
L350.398 236.736
L350.549 236.736
L350.699 209.52
L350.85 242.784
L351 245.808
L351.451 245.808
L351.602 248.832
L352.354 248.832
L352.504 245.808
L352.654 248.832
L353.106 248.832
L353.256 245.808
L353.858 245.808
L354.008 248.832
L354.309 248.832
L354.459 245.808
L354.61 245.808
L354.76 248.832
L355.512 248.832
L355.662 245.808
L355.813 245.808
L355.963 248.832
L356.114 245.808
L356.415 245.808
L356.565 242.784
L356.715 245.808
L356.866 245.808
L357.016 242.784
L357.467 242.784
L357.618 245.808
L357.768 242.784
L357.919 245.808
L358.069 239.76
L358.219 242.784
L358.37 239.76
L358.821 239.76
L358.971 236.736
L359.122 239.76
L359.272 236.736
L360.776 236.736
L360.927 233.712
L361.077 233.712
L361.227 236.736
L361.378 233.712
L361.528 236.736
L361.679 236.736
L361.829 233.712
L362.13 233.712
L362.28 230.688
L362.431 233.712
L362.581 227.664
L362.731 233.712
L363.333 233.712
L363.483 230.688
L363.634 233.712
L364.386 233.712
L364.536 230.688
L364.687 230.688
L364.837 233.712
L365.138 233.712
L365.288 236.736
L365.439 236.736
L365.589 239.76
L365.74 239.76
L365.89 242.784
L366.191 236.736
L366.341 242.784
L366.492 239.76
L366.642 242.784
L367.544 242.784
L367.695 239.76
L368.146 239.76
L368.296 242.784
L368.748 242.784
L368.898 236.736
L369.048 245.808
L369.199 245.808
L369.349 242.784
L369.5 245.808
L369.8 245.808
L369.951 242.784
L370.101 242.784
L370.252 239.76
L370.402 242.784
L370.553 242.784
L370.703 239.76
L370.853 239.76
L371.154 245.808
L371.305 239.76
L371.605 245.808
L371.756 239.76
L371.906 245.808
L372.207 245.808
L372.357 242.784
L372.508 242.784
L372.658 239.76
L372.959 239.76
L373.109 236.736
L373.26 239.76
L373.41 233.712
L373.561 236.736
L373.861 236.736
L374.012 233.712
L374.162 236.736
L374.313 233.712
L374.463 236.736
L374.914 236.736
L375.065 233.712
L375.666 233.712
L375.817 230.688
L375.967 230.688
L376.117 233.712
L376.719 233.712
L376.869 236.736
L377.02 230.688
L377.17 233.712
L377.321 230.688
L377.772 230.688
L377.922 236.736
L378.073 233.712
L378.524 233.712
L378.674 230.688
L378.825 233.712
L379.727 233.712
L379.878 239.76
L380.028 239.76
L380.178 242.784
L380.329 239.76
L380.479 245.808
L380.63 239.76
L380.78 245.808
L380.93 239.76
L381.081 242.784
L381.231 239.76
L381.382 239.76
L381.532 245.808
L381.682 239.76
L381.833 242.784
L381.983 242.784
L382.134 239.76
L382.284 239.76
L382.434 242.784
L382.585 239.76
L382.735 242.784
L382.886 242.784
L383.036 245.808
L383.186 245.808
L383.337 242.784
L383.487 242.784
L383.638 239.76
L383.938 245.808
L384.239 245.808
L384.39 242.784
L384.54 242.784
L384.691 239.76
L384.841 245.808
L384.991 239.76
L385.292 245.808
L385.443 242.784
L385.593 242.784
L385.743 236.736
L385.894 245.808
L386.044 239.76
L386.195 242.784
L386.345 242.784
L386.495 245.808
L386.796 239.76
L386.947 242.784
L387.097 242.784
L387.247 239.76
L387.699 239.76
L387.849 233.712
L387.999 236.736
L388.601 236.736
L388.751 233.712
L388.902 236.736
L389.052 236.736
L389.203 233.712
L389.503 233.712
L389.654 230.688
L389.804 230.688
L389.955 233.712
L390.105 230.688
L390.255 230.688
L390.406 233.712
L390.857 233.712
L391.007 230.688
L391.158 233.712
L391.76 233.712
L391.91 230.688
L392.06 233.712
L392.211 233.712
L392.361 230.688
L392.512 233.712
L392.662 233.712
L392.812 230.688
L392.963 233.712
L394.166 233.712
L394.316 230.688
L394.467 230.688
L394.617 233.712
L394.768 233.712
L395.219 242.784
L395.369 242.784
L395.52 245.808
L395.67 242.784
L396.121 242.784
L396.272 245.808
L396.422 245.808
L396.572 239.76
L396.723 248.832
L396.873 242.784
L397.324 242.784
L397.475 245.808
L397.926 245.808
L398.077 242.784
L399.129 242.784
L399.28 239.76
L399.43 242.784
L399.881 242.784
L400.182 236.736
L400.333 239.76
L400.483 233.712
L400.633 236.736
L400.784 236.736
L400.934 233.712
L401.085 233.712
L401.235 236.736
L401.536 236.736
L401.686 233.712
L402.137 233.712
L402.288 227.664
L402.438 236.736
L402.589 233.712
L402.739 233.712
L402.889 230.688
L403.04 230.688
L403.19 233.712
L403.341 233.712
L403.491 230.688
L403.792 230.688
L403.942 233.712
L404.093 224.64
L404.393 233.712
L404.544 233.712
L404.694 230.688
L404.995 230.688
L405.146 233.712
L405.597 233.712
L405.747 230.688
L405.898 233.712
L406.198 227.664
L406.349 230.688
L406.499 230.688
L406.65 233.712
L406.8 230.688
L407.251 230.688
L407.402 227.664
L407.552 230.688
L407.702 230.688
L407.853 227.664
L408.304 227.664
L408.454 230.688
L408.605 230.688
L408.906 224.64
L409.056 230.688
L409.206 227.664
L409.357 227.664
L409.507 230.688
L409.658 227.664
L409.808 227.664
L409.958 233.712
L410.109 227.664
L410.259 230.688
L410.41 230.688
L410.56 224.64
L410.861 230.688
L411.011 224.64
L411.312 230.688
L411.462 230.688
L411.613 227.664
L411.763 230.688
L411.914 224.64
L412.064 230.688
L412.215 227.664
L412.365 230.688
L412.515 227.664
L412.666 230.688
L412.816 227.664
L412.967 230.688
L413.117 230.688
L413.267 227.664
L413.869 227.664
L414.019 224.64
L414.17 227.664
L414.32 227.664
L414.471 230.688
L414.771 230.688
L414.922 227.664
L415.072 227.664
L415.223 230.688
L415.373 224.64
L415.523 227.664
L415.674 227.664
L415.824 224.64
L415.975 227.664
L416.125 227.664
L416.275 230.688
L416.426 227.664
L416.576 230.688
L416.727 224.64
L417.027 230.688
L417.178 227.664
L417.328 227.664
L417.629 221.616
L417.779 227.664
L418.381 227.664
L418.531 224.64
L418.682 230.688
L418.983 224.64
L419.133 227.664
L420.186 227.664
L420.336 224.64
L420.487 227.664
L420.637 224.64
L420.788 227.664
L421.54 227.664
L421.69 224.64
L421.84 227.664
L422.442 227.664
L422.592 224.64
L422.743 227.664
L422.893 227.664
L423.344 251.856
L423.645 251.856
L423.796 254.88
L424.096 254.88
L424.247 257.904
L424.397 257.904
L424.548 254.88
L424.999 254.88
L425.149 257.904
L425.3 254.88
L425.45 248.832
L425.751 257.904
L426.052 251.856
L426.202 254.88
L426.353 248.832
L426.503 251.856
L427.105 251.856
L427.255 248.832
L427.405 251.856
L427.706 251.856
L427.857 254.88
L428.007 254.88
L428.157 251.856
L428.308 254.88
L428.458 248.832
L428.609 254.88
L429.06 245.808
L429.21 254.88
L429.511 248.832
L429.812 254.88
L430.113 248.832
L430.413 254.88
L430.714 248.832
L430.865 242.784
L431.015 245.808
L431.165 245.808
L431.466 239.76
L431.917 239.76
L432.068 233.712
L432.218 236.736
L432.519 236.736
L432.67 233.712
L432.82 236.736
L433.572 236.736
L433.873 230.688
L434.023 233.712
L434.174 230.688
L434.324 236.736
L434.474 233.712
L434.775 233.712
L434.926 230.688
L435.076 236.736
L435.226 233.712
L435.377 233.712
L435.527 236.736
L435.678 203.472
L435.828 233.712
L436.43 233.712
L436.58 230.688
L436.73 233.712
L436.881 230.688
L437.031 236.736
L437.182 236.736
L437.332 233.712
L437.633 242.784
L437.934 248.832
L438.084 248.832
L438.234 251.856
L438.385 251.856
L438.535 254.88
L438.686 251.856
L438.836 251.856
L438.986 248.832
L439.287 248.832
L439.438 251.856
L439.588 248.832
L439.739 251.856
L440.039 251.856
L440.19 254.88
L440.34 254.88
L440.491 251.856
L440.641 251.856
L440.791 248.832
L442.145 248.832
L442.295 251.856
L442.747 251.856
L442.897 254.88
L443.348 254.88
L443.499 257.904
L443.649 254.88
L443.95 254.88
L444.1 257.904
L444.251 254.88
L444.401 257.904
L444.551 257.904
L444.702 254.88
L445.003 254.88
L445.153 260.928
L445.303 254.88
L445.454 257.904
L445.905 257.904
L446.206 251.856
L446.356 257.904
L446.507 254.88
L446.657 248.832
L446.808 251.856
L446.958 251.856
L447.108 248.832
L447.409 248.832
L447.56 245.808
L447.71 248.832
L447.86 248.832
L448.011 242.784
L448.161 245.808
L448.612 245.808
L448.763 248.832
L449.064 242.784
L449.214 242.784
L449.364 248.832
L450.116 248.832
L450.267 245.808
L450.568 245.808
L450.718 248.832
L450.868 245.808
L451.62 245.808
L451.771 242.784
L451.921 245.808
L452.222 245.808
L452.372 248.832
L452.523 248.832
L452.673 242.784
L452.824 242.784
L453.125 254.88
L453.275 251.856
L453.425 254.88
L454.027 254.88
L454.177 257.904
L454.328 254.88
L454.478 254.88
L454.629 257.904
L454.779 254.88
L455.08 254.88
L455.23 257.904
L455.381 254.88
L455.832 254.88
L455.982 251.856
L456.133 257.904
L456.283 254.88
L456.433 254.88
L456.584 251.856
L456.734 254.88
L457.035 254.88
L457.185 257.904
L457.336 254.88
L457.486 254.88
L457.637 257.904
L457.787 254.88
L457.937 254.88
L458.088 260.928
L458.238 257.904
L458.689 257.904
L458.84 251.856
L459.141 257.904
L459.291 254.88
L459.592 254.88
L459.742 257.904
L459.893 254.88
L460.194 254.88
L460.344 251.856
L460.494 251.856
L460.645 254.88
L460.795 251.856
L460.946 254.88
L461.096 248.832
L461.246 248.832
L461.397 245.808
L461.547 248.832
L461.698 248.832
L461.848 245.808
L461.998 248.832
L462.149 245.808
L462.299 248.832
L462.45 248.832
L462.6 245.808
L462.75 245.808
L462.901 242.784
L463.051 248.832
L463.352 242.784
L463.502 245.808
L464.405 245.808
L464.555 242.784
L464.706 245.808
L464.856 242.784
L465.006 248.832
L465.458 239.76
L465.608 245.808
L466.059 245.808
L466.21 242.784
L466.36 248.832
L466.51 248.832
L466.661 245.808
L466.811 245.808
L466.962 242.784
L467.112 245.808
L467.263 245.808
L467.413 251.856
L467.563 251.856
L467.864 257.904
L468.015 257.904
L468.165 251.856
L468.315 257.904
L468.616 251.856
L468.917 257.904
L469.218 251.856
L469.519 251.856
L469.669 257.904
L469.97 251.856
L470.12 254.88
L470.421 254.88
L470.571 251.856
L470.722 257.904
L470.872 251.856
L471.023 254.88
L471.173 251.856
L471.323 254.88
L471.474 254.88
L471.624 251.856
L471.775 257.904
L472.226 242.784
L472.376 239.76
L472.527 233.712
L472.978 233.712
L473.279 248.832
L473.429 248.832
L473.579 251.856
L473.73 248.832
L473.88 248.832
L474.031 251.856
L474.181 248.832
L474.332 251.856
L474.482 257.904
L474.783 245.808
L475.084 245.808
L475.234 242.784
L475.384 242.784
L475.535 239.76
L475.685 242.784
L475.836 236.736
L475.986 239.76
L476.136 236.736
L476.287 242.784
L476.588 236.736
L477.189 236.736
L477.34 239.76
L477.49 233.712
L477.64 236.736
L477.791 233.712
L478.242 233.712
L478.392 236.736
L478.543 233.712
L478.693 236.736
L478.844 236.736
L478.994 233.712
L479.144 236.736
L479.295 236.736
L479.445 233.712
L479.596 236.736
L479.746 233.712
L479.896 233.712
L480.047 236.736
L480.197 233.712
L480.348 233.712
L480.498 236.736
L480.649 233.712
L480.799 236.736
L480.949 236.736
L481.1 233.712
L481.25 233.712
L481.401 236.736
L481.551 233.712
L481.852 233.712
L482.153 242.784
L482.453 248.832
L482.604 245.808
L482.754 248.832
L483.205 248.832
L483.356 254.88
L483.506 248.832
L483.657 251.856
L483.807 248.832
L483.957 248.832
L484.108 242.784
L484.258 248.832
L484.409 239.76
L484.559 248.832
L484.86 248.832
L485.01 245.808
L485.311 251.856
L485.461 251.856
L485.612 254.88
L485.913 248.832
L486.063 251.856
L486.213 251.856
L486.364 248.832
L486.514 248.832
L486.665 245.808
L486.815 248.832
L487.417 248.832
L487.567 251.856
L487.718 248.832
L487.868 248.832
L488.018 251.856
L488.169 251.856
L488.319 248.832
L488.62 254.88
L488.77 251.856
L488.921 254.88
L489.071 251.856
L489.222 251.856
L489.372 248.832
L489.522 251.856
L489.673 251.856
L489.823 248.832
L489.974 251.856
L490.124 245.808
L490.274 245.808
L490.425 242.784
L490.726 248.832
L491.026 248.832
L491.177 245.808
L491.327 248.832
L491.478 248.832
L491.628 245.808
L491.778 248.832
L491.929 245.808
L492.079 245.808
L492.23 248.832
L492.38 248.832
L492.53 245.808
L492.681 248.832
L492.831 245.808
L492.982 245.808
L493.132 248.832
L493.282 245.808
L493.884 245.808
L494.034 248.832
L494.486 248.832
L494.636 245.808
L494.787 248.832
L494.937 245.808
L495.087 248.832
L495.238 245.808
L495.388 245.808
L495.539 248.832
L495.689 248.832
L495.839 242.784
L496.14 248.832
L496.291 245.808
L497.043 245.808
L497.193 248.832
L497.494 248.832
L497.644 251.856
L497.795 251.856
L497.945 248.832
L498.095 248.832
L498.396 254.88
L498.847 254.88
L498.998 248.832
L499.148 254.88
L499.299 254.88
L499.449 251.856
L499.599 254.88
L499.9 254.88
L500.051 251.856
L500.351 251.856
L500.502 248.832
L500.652 251.856
L500.953 251.856
L501.103 248.832
L501.254 251.856
L501.404 248.832
L501.555 251.856
L501.705 251.856
L501.856 254.88
L502.156 248.832
L502.307 251.856
L502.457 248.832
L502.608 248.832
L502.758 251.856
L502.908 251.856
L503.059 248.832
L503.209 248.832
L503.36 245.808
L503.51 248.832
L503.66 245.808
L503.811 248.832
L504.112 248.832
L504.262 242.784
L504.412 248.832
L504.563 245.808
L504.864 245.808
L505.014 248.832
L505.164 248.832
L505.315 245.808
L505.465 245.808
L505.616 248.832
L505.766 248.832
L505.916 245.808
L504.864 245.808
L505.017 245.808
L505.164 248.832
L505.315 245.808
L505.465 245.808
L505.616 242.784
L505.766 245.808
L506.217 245.808
L506.368 248.832
L506.668 242.784
L506.819 245.808
L506.969 242.784
L507.27 248.832
L507.571 242.784
L507.721 248.832
L507.872 245.808
L508.173 245.808
L508.323 242.784
L508.624 248.832
L508.774 242.784
L509.075 242.784
L509.225 245.808
L509.376 245.808
L509.526 242.784
L509.677 245.808
L509.827 242.784
L509.977 245.808
L511.03 245.808
L511.181 239.76
L511.481 245.808
L511.632 242.784
L511.782 242.784
L511.933 245.808
L512.083 245.808
L512.233 239.76
L512.384 245.808
L512.534 245.808
L512.685 239.76
L512.835 242.784
L513.437 242.784
L513.587 239.76
L513.737 242.784
L513.888 239.76
L515.242 239.76
L515.392 242.784
L515.542 239.76
L515.693 239.76
L515.843 242.784
L515.994 239.76
L516.294 239.76
L516.445 242.784
L516.595 242.784
L516.746 239.76
L516.896 242.784
L517.046 239.76
L517.197 242.784
L517.347 239.76
L517.498 242.784
L517.648 239.76
L517.798 242.784
L518.4 242.784
L518.4 242.784" style="fill:none;stroke:#0000ff;stroke-linecap:square;"/>
   </g>
   <g id="line2d_2">
    <path clip-path="url(#pcb2bf987bf)" d="
M72 88.56
L518.4 88.56" style="fill:none;stroke:#ff0000;stroke-linecap:square;"/>
   </g>
   <g id="matplotlib.axis_1">
    <g id="xtick_1">
     <g id="line2d_3">
      <path clip-path="url(#pcb2bf987bf)" d="
M115.316 345.6
L115.316 43.2" style="fill:none;stroke:#000000;stroke-dasharray:1.000000,3.000000;stroke-dashoffset:0.0;stroke-width:0.5;"/>
     </g>
     <g id="line2d_4">
      <defs>
       <path d="
M0 0
L0 -4" id="m93b0483c22" style="stroke:#000000;stroke-width:0.5;"/>
      </defs>
      <g>
       <use style="stroke:#000000;stroke-width:0.5;" x="115.316124035" xlink:href="#m93b0483c22" y="345.6"/>
      </g>
     </g>
     <g id="line2d_5">
      <defs>
       <path d="
M0 0
L0 4" id="m741efc42ff" style="stroke:#000000;stroke-width:0.5;"/>
      </defs>
      <g>
       <use style="stroke:#000000;stroke-width:0.5;" x="115.316124035" xlink:href="#m741efc42ff" y="43.2"/>
      </g>
     </g>
     <g id="text_1">
      <!-- Jun16 -->
      <defs>
       <path d="
M54.8906 33.0156
L54.8906 0
L45.9062 0
L45.9062 32.7188
Q45.9062 40.4844 42.875 44.3281
Q39.8438 48.1875 33.7969 48.1875
Q26.5156 48.1875 22.3125 43.5469
Q18.1094 38.9219 18.1094 30.9062
L18.1094 0
L9.07812 0
L9.07812 54.6875
L18.1094 54.6875
L18.1094 46.1875
Q21.3438 51.125 25.7031 53.5625
Q30.0781 56 35.7969 56
Q45.2188 56 50.0469 50.1719
Q54.8906 44.3438 54.8906 33.0156" id="BitstreamVeraSans-Roman-6e"/>
       <path d="
M12.4062 8.29688
L28.5156 8.29688
L28.5156 63.9219
L10.9844 60.4062
L10.9844 69.3906
L28.4219 72.9062
L38.2812 72.9062
L38.2812 8.29688
L54.3906 8.29688
L54.3906 0
L12.4062 0
z
" id="BitstreamVeraSans-Roman-31"/>
       <path d="
M8.5 21.5781
L8.5 54.6875
L17.4844 54.6875
L17.4844 21.9219
Q17.4844 14.1562 20.5 10.2656
Q23.5312 6.39062 29.5938 6.39062
Q36.8594 6.39062 41.0781 11.0312
Q45.3125 15.6719 45.3125 23.6875
L45.3125 54.6875
L54.2969 54.6875
L54.2969 0
L45.3125 0
L45.3125 8.40625
Q42.0469 3.42188 37.7188 1
Q33.4062 -1.42188 27.6875 -1.42188
Q18.2656 -1.42188 13.375 4.4375
Q8.5 10.2969 8.5 21.5781" id="BitstreamVeraSans-Roman-75"/>
       <path d="
M33.0156 40.375
Q26.375 40.375 22.4844 35.8281
Q18.6094 31.2969 18.6094 23.3906
Q18.6094 15.5312 22.4844 10.9531
Q26.375 6.39062 33.0156 6.39062
Q39.6562 6.39062 43.5312 10.9531
Q47.4062 15.5312 47.4062 23.3906
Q47.4062 31.2969 43.5312 35.8281
Q39.6562 40.375 33.0156 40.375
M52.5938 71.2969
L52.5938 62.3125
Q48.875 64.0625 45.0938 64.9844
Q41.3125 65.9219 37.5938 65.9219
Q27.8281 65.9219 22.6719 59.3281
Q17.5312 52.7344 16.7969 39.4062
Q19.6719 43.6562 24.0156 45.9219
Q28.375 48.1875 33.5938 48.1875
Q44.5781 48.1875 50.9531 41.5156
Q57.3281 34.8594 57.3281 23.3906
Q57.3281 12.1562 50.6875 5.35938
Q44.0469 -1.42188 33.0156 -1.42188
Q20.3594 -1.42188 13.6719 8.26562
Q6.98438 17.9688 6.98438 36.375
Q6.98438 53.6562 15.1875 63.9375
Q23.3906 74.2188 37.2031 74.2188
Q40.9219 74.2188 44.7031 73.4844
Q48.4844 72.75 52.5938 71.2969" id="BitstreamVeraSans-Roman-36"/>
       <path d="
M9.8125 72.9062
L19.6719 72.9062
L19.6719 5.07812
Q19.6719 -8.10938 14.6719 -14.0625
Q9.67188 -20.0156 -1.42188 -20.0156
L-5.17188 -20.0156
L-5.17188 -11.7188
L-2.09375 -11.7188
Q4.4375 -11.7188 7.125 -8.04688
Q9.8125 -4.39062 9.8125 5.07812
z
" id="BitstreamVeraSans-Roman-4a"/>
      </defs>
      <g transform="translate(84.7230407278 374.439027885)rotate(-30.0)scale(0.12 -0.12)">
       <use xlink:href="#BitstreamVeraSans-Roman-4a"/>
       <use x="29.4921875" xlink:href="#BitstreamVeraSans-Roman-75"/>
       <use x="92.87109375" xlink:href="#BitstreamVeraSans-Roman-6e"/>
       <use x="156.25" xlink:href="#BitstreamVeraSans-Roman-31"/>
       <use x="219.873046875" xlink:href="#BitstreamVeraSans-Roman-36"/>
      </g>
     </g>
    </g>
    <g id="xtick_2">
     <g id="line2d_6">
      <path clip-path="url(#pcb2bf987bf)" d="
M216.388 345.6
L216.388 43.2" style="fill:none;stroke:#000000;stroke-dasharray:1.000000,3.000000;stroke-dashoffset:0.0;stroke-width:0.5;"/>
     </g>
     <g id="line2d_7">
      <g>
       <use style="stroke:#000000;stroke-width:0.5;" x="216.387859985" xlink:href="#m93b0483c22" y="345.6"/>
      </g>
     </g>
     <g id="line2d_8">
      <g>
       <use style="stroke:#000000;stroke-width:0.5;" x="216.387859985" xlink:href="#m741efc42ff" y="43.2"/>
      </g>
     </g>
     <g id="text_2">
      <!-- Jun23 -->
      <defs>
       <path d="
M19.1875 8.29688
L53.6094 8.29688
L53.6094 0
L7.32812 0
L7.32812 8.29688
Q12.9375 14.1094 22.625 23.8906
Q32.3281 33.6875 34.8125 36.5312
Q39.5469 41.8438 41.4219 45.5312
Q43.3125 49.2188 43.3125 52.7812
Q43.3125 58.5938 39.2344 62.25
Q35.1562 65.9219 28.6094 65.9219
Q23.9688 65.9219 18.8125 64.3125
Q13.6719 62.7031 7.8125 59.4219
L7.8125 69.3906
Q13.7656 71.7812 18.9375 73
Q24.125 74.2188 28.4219 74.2188
Q39.75 74.2188 46.4844 68.5469
Q53.2188 62.8906 53.2188 53.4219
Q53.2188 48.9219 51.5312 44.8906
Q49.8594 40.875 45.4062 35.4062
Q44.1875 33.9844 37.6406 27.2188
Q31.1094 20.4531 19.1875 8.29688" id="BitstreamVeraSans-Roman-32"/>
       <path d="
M40.5781 39.3125
Q47.6562 37.7969 51.625 33
Q55.6094 28.2188 55.6094 21.1875
Q55.6094 10.4062 48.1875 4.48438
Q40.7656 -1.42188 27.0938 -1.42188
Q22.5156 -1.42188 17.6562 -0.515625
Q12.7969 0.390625 7.625 2.20312
L7.625 11.7188
Q11.7188 9.32812 16.5938 8.10938
Q21.4844 6.89062 26.8125 6.89062
Q36.0781 6.89062 40.9375 10.5469
Q45.7969 14.2031 45.7969 21.1875
Q45.7969 27.6406 41.2812 31.2656
Q36.7656 34.9062 28.7188 34.9062
L20.2188 34.9062
L20.2188 43.0156
L29.1094 43.0156
Q36.375 43.0156 40.2344 45.9219
Q44.0938 48.8281 44.0938 54.2969
Q44.0938 59.9062 40.1094 62.9062
Q36.1406 65.9219 28.7188 65.9219
Q24.6562 65.9219 20.0156 65.0312
Q15.375 64.1562 9.8125 62.3125
L9.8125 71.0938
Q15.4375 72.6562 20.3438 73.4375
Q25.25 74.2188 29.5938 74.2188
Q40.8281 74.2188 47.3594 69.1094
Q53.9062 64.0156 53.9062 55.3281
Q53.9062 49.2656 50.4375 45.0938
Q46.9688 40.9219 40.5781 39.3125" id="BitstreamVeraSans-Roman-33"/>
      </defs>
      <g transform="translate(185.973394418 374.335902885)rotate(-30.0)scale(0.12 -0.12)">
       <use xlink:href="#BitstreamVeraSans-Roman-4a"/>
       <use x="29.4921875" xlink:href="#BitstreamVeraSans-Roman-75"/>
       <use x="92.87109375" xlink:href="#BitstreamVeraSans-Roman-6e"/>
       <use x="156.25" xlink:href="#BitstreamVeraSans-Roman-32"/>
       <use x="219.873046875" xlink:href="#BitstreamVeraSans-Roman-33"/>
      </g>
     </g>
    </g>
    <g id="xtick_3">
     <g id="line2d_9">
      <path clip-path="url(#pcb2bf987bf)" d="
M317.46 345.6
L317.46 43.2" style="fill:none;stroke:#000000;stroke-dasharray:1.000000,3.000000;stroke-dashoffset:0.0;stroke-width:0.5;"/>
     </g>
     <g id="line2d_10">
      <g>
       <use style="stroke:#000000;stroke-width:0.5;" x="317.459595935" xlink:href="#m93b0483c22" y="345.6"/>
      </g>
     </g>
     <g id="line2d_11">
      <g>
       <use style="stroke:#000000;stroke-width:0.5;" x="317.459595935" xlink:href="#m741efc42ff" y="43.2"/>
      </g>
     </g>
     <g id="text_3">
      <!-- Jun30 -->
      <defs>
       <path d="
M31.7812 66.4062
Q24.1719 66.4062 20.3281 58.9062
Q16.5 51.4219 16.5 36.375
Q16.5 21.3906 20.3281 13.8906
Q24.1719 6.39062 31.7812 6.39062
Q39.4531 6.39062 43.2812 13.8906
Q47.125 21.3906 47.125 36.375
Q47.125 51.4219 43.2812 58.9062
Q39.4531 66.4062 31.7812 66.4062
M31.7812 74.2188
Q44.0469 74.2188 50.5156 64.5156
Q56.9844 54.8281 56.9844 36.375
Q56.9844 17.9688 50.5156 8.26562
Q44.0469 -1.42188 31.7812 -1.42188
Q19.5312 -1.42188 13.0625 8.26562
Q6.59375 17.9688 6.59375 36.375
Q6.59375 54.8281 13.0625 64.5156
Q19.5312 74.2188 31.7812 74.2188" id="BitstreamVeraSans-Roman-30"/>
      </defs>
      <g transform="translate(286.902236176 374.418402885)rotate(-30.0)scale(0.12 -0.12)">
       <use xlink:href="#BitstreamVeraSans-Roman-4a"/>
       <use x="29.4921875" xlink:href="#BitstreamVeraSans-Roman-75"/>
       <use x="92.87109375" xlink:href="#BitstreamVeraSans-Roman-6e"/>
       <use x="156.25" xlink:href="#BitstreamVeraSans-Roman-33"/>
       <use x="219.873046875" xlink:href="#BitstreamVeraSans-Roman-30"/>
      </g>
     </g>
    </g>
    <g id="xtick_4">
     <g id="line2d_12">
      <path clip-path="url(#pcb2bf987bf)" d="
M418.531 345.6
L418.531 43.2" style="fill:none;stroke:#000000;stroke-dasharray:1.000000,3.000000;stroke-dashoffset:0.0;stroke-width:0.5;"/>
     </g>
     <g id="line2d_13">
      <g>
       <use style="stroke:#000000;stroke-width:0.5;" x="418.531331887" xlink:href="#m93b0483c22" y="345.6"/>
      </g>
     </g>
     <g id="line2d_14">
      <g>
       <use style="stroke:#000000;stroke-width:0.5;" x="418.531331887" xlink:href="#m741efc42ff" y="43.2"/>
      </g>
     </g>
     <g id="text_4">
      <!-- Jul07 -->
      <defs>
       <path d="
M8.20312 72.9062
L55.0781 72.9062
L55.0781 68.7031
L28.6094 0
L18.3125 0
L43.2188 64.5938
L8.20312 64.5938
z
" id="BitstreamVeraSans-Roman-37"/>
       <path d="
M9.42188 75.9844
L18.4062 75.9844
L18.4062 0
L9.42188 0
z
" id="BitstreamVeraSans-Roman-6c"/>
      </defs>
      <g transform="translate(391.871086445 372.168402885)rotate(-30.0)scale(0.12 -0.12)">
       <use xlink:href="#BitstreamVeraSans-Roman-4a"/>
       <use x="29.4921875" xlink:href="#BitstreamVeraSans-Roman-75"/>
       <use x="92.87109375" xlink:href="#BitstreamVeraSans-Roman-6c"/>
       <use x="120.654296875" xlink:href="#BitstreamVeraSans-Roman-30"/>
       <use x="184.27734375" xlink:href="#BitstreamVeraSans-Roman-37"/>
      </g>
     </g>
    </g>
   </g>
   <g id="matplotlib.axis_2">
    <g id="ytick_1">
     <g id="line2d_15">
      <path clip-path="url(#pcb2bf987bf)" d="
M72 345.6
L518.4 345.6" style="fill:none;stroke:#000000;stroke-dasharray:1.000000,3.000000;stroke-dashoffset:0.0;stroke-width:0.5;"/>
     </g>
     <g id="line2d_16">
      <defs>
       <path d="
M0 0
L4 0" id="m728421d6d4" style="stroke:#000000;stroke-width:0.5;"/>
      </defs>
      <g>
       <use style="stroke:#000000;stroke-width:0.5;" x="72.0" xlink:href="#m728421d6d4" y="345.6"/>
      </g>
     </g>
     <g id="line2d_17">
      <defs>
       <path d="
M0 0
L-4 0" id="mcb0005524f" style="stroke:#000000;stroke-width:0.5;"/>
      </defs>
      <g>
       <use style="stroke:#000000;stroke-width:0.5;" x="518.4" xlink:href="#mcb0005524f" y="345.6"/>
      </g>
     </g>
     <g id="text_5">
      <!-- 0 -->
      <g transform="translate(61.953125 348.91125)scale(0.12 -0.12)">
       <use xlink:href="#BitstreamVeraSans-Roman-30"/>
      </g>
     </g>
    </g>
    <g id="ytick_2">
     <g id="line2d_18">
      <path clip-path="url(#pcb2bf987bf)" d="
M72 285.12
L518.4 285.12" style="fill:none;stroke:#000000;stroke-dasharray:1.000000,3.000000;stroke-dashoffset:0.0;stroke-width:0.5;"/>
     </g>
     <g id="line2d_19">
      <g>
       <use style="stroke:#000000;stroke-width:0.5;" x="72.0" xlink:href="#m728421d6d4" y="285.12"/>
      </g>
     </g>
     <g id="line2d_20">
      <g>
       <use style="stroke:#000000;stroke-width:0.5;" x="518.4" xlink:href="#mcb0005524f" y="285.12"/>
      </g>
     </g>
     <g id="text_6">
      <!-- 20 -->
      <g transform="translate(54.40625 288.43125)scale(0.12 -0.12)">
       <use xlink:href="#BitstreamVeraSans-Roman-32"/>
       <use x="63.623046875" xlink:href="#BitstreamVeraSans-Roman-30"/>
      </g>
     </g>
    </g>
    <g id="ytick_3">
     <g id="line2d_21">
      <path clip-path="url(#pcb2bf987bf)" d="
M72 224.64
L518.4 224.64" style="fill:none;stroke:#000000;stroke-dasharray:1.000000,3.000000;stroke-dashoffset:0.0;stroke-width:0.5;"/>
     </g>
     <g id="line2d_22">
      <g>
       <use style="stroke:#000000;stroke-width:0.5;" x="72.0" xlink:href="#m728421d6d4" y="224.64"/>
      </g>
     </g>
     <g id="line2d_23">
      <g>
       <use style="stroke:#000000;stroke-width:0.5;" x="518.4" xlink:href="#mcb0005524f" y="224.64"/>
      </g>
     </g>
     <g id="text_7">
      <!-- 40 -->
      <defs>
       <path d="
M37.7969 64.3125
L12.8906 25.3906
L37.7969 25.3906
z

M35.2031 72.9062
L47.6094 72.9062
L47.6094 25.3906
L58.0156 25.3906
L58.0156 17.1875
L47.6094 17.1875
L47.6094 0
L37.7969 0
L37.7969 17.1875
L4.89062 17.1875
L4.89062 26.7031
z
" id="BitstreamVeraSans-Roman-34"/>
      </defs>
      <g transform="translate(54.11375 227.95125)scale(0.12 -0.12)">
       <use xlink:href="#BitstreamVeraSans-Roman-34"/>
       <use x="63.623046875" xlink:href="#BitstreamVeraSans-Roman-30"/>
      </g>
     </g>
    </g>
    <g id="ytick_4">
     <g id="line2d_24">
      <path clip-path="url(#pcb2bf987bf)" d="
M72 164.16
L518.4 164.16" style="fill:none;stroke:#000000;stroke-dasharray:1.000000,3.000000;stroke-dashoffset:0.0;stroke-width:0.5;"/>
     </g>
     <g id="line2d_25">
      <g>
       <use style="stroke:#000000;stroke-width:0.5;" x="72.0" xlink:href="#m728421d6d4" y="164.16"/>
      </g>
     </g>
     <g id="line2d_26">
      <g>
       <use style="stroke:#000000;stroke-width:0.5;" x="518.4" xlink:href="#mcb0005524f" y="164.16"/>
      </g>
     </g>
     <g id="text_8">
      <!-- 60 -->
      <g transform="translate(54.365 167.47125)scale(0.12 -0.12)">
       <use xlink:href="#BitstreamVeraSans-Roman-36"/>
       <use x="63.623046875" xlink:href="#BitstreamVeraSans-Roman-30"/>
      </g>
     </g>
    </g>
    <g id="ytick_5">
     <g id="line2d_27">
      <path clip-path="url(#pcb2bf987bf)" d="
M72 103.68
L518.4 103.68" style="fill:none;stroke:#000000;stroke-dasharray:1.000000,3.000000;stroke-dashoffset:0.0;stroke-width:0.5;"/>
     </g>
     <g id="line2d_28">
      <g>
       <use style="stroke:#000000;stroke-width:0.5;" x="72.0" xlink:href="#m728421d6d4" y="103.68"/>
      </g>
     </g>
     <g id="line2d_29">
      <g>
       <use style="stroke:#000000;stroke-width:0.5;" x="518.4" xlink:href="#mcb0005524f" y="103.68"/>
      </g>
     </g>
     <g id="text_9">
      <!-- 80 -->
      <defs>
       <path d="
M31.7812 34.625
Q24.75 34.625 20.7188 30.8594
Q16.7031 27.0938 16.7031 20.5156
Q16.7031 13.9219 20.7188 10.1562
Q24.75 6.39062 31.7812 6.39062
Q38.8125 6.39062 42.8594 10.1719
Q46.9219 13.9688 46.9219 20.5156
Q46.9219 27.0938 42.8906 30.8594
Q38.875 34.625 31.7812 34.625
M21.9219 38.8125
Q15.5781 40.375 12.0312 44.7188
Q8.5 49.0781 8.5 55.3281
Q8.5 64.0625 14.7188 69.1406
Q20.9531 74.2188 31.7812 74.2188
Q42.6719 74.2188 48.875 69.1406
Q55.0781 64.0625 55.0781 55.3281
Q55.0781 49.0781 51.5312 44.7188
Q48 40.375 41.7031 38.8125
Q48.8281 37.1562 52.7969 32.3125
Q56.7812 27.4844 56.7812 20.5156
Q56.7812 9.90625 50.3125 4.23438
Q43.8438 -1.42188 31.7812 -1.42188
Q19.7344 -1.42188 13.25 4.23438
Q6.78125 9.90625 6.78125 20.5156
Q6.78125 27.4844 10.7812 32.3125
Q14.7969 37.1562 21.9219 38.8125
M18.3125 54.3906
Q18.3125 48.7344 21.8438 45.5625
Q25.3906 42.3906 31.7812 42.3906
Q38.1406 42.3906 41.7188 45.5625
Q45.3125 48.7344 45.3125 54.3906
Q45.3125 60.0625 41.7188 63.2344
Q38.1406 66.4062 31.7812 66.4062
Q25.3906 66.4062 21.8438 63.2344
Q18.3125 60.0625 18.3125 54.3906" id="BitstreamVeraSans-Roman-38"/>
      </defs>
      <g transform="translate(54.340625 106.99125)scale(0.12 -0.12)">
       <use xlink:href="#BitstreamVeraSans-Roman-38"/>
       <use x="63.623046875" xlink:href="#BitstreamVeraSans-Roman-30"/>
      </g>
     </g>
    </g>
    <g id="ytick_6">
     <g id="line2d_30">
      <path clip-path="url(#pcb2bf987bf)" d="
M72 43.2
L518.4 43.2" style="fill:none;stroke:#000000;stroke-dasharray:1.000000,3.000000;stroke-dashoffset:0.0;stroke-width:0.5;"/>
     </g>
     <g id="line2d_31">
      <g>
       <use style="stroke:#000000;stroke-width:0.5;" x="72.0" xlink:href="#m728421d6d4" y="43.2"/>
      </g>
     </g>
     <g id="line2d_32">
      <g>
       <use style="stroke:#000000;stroke-width:0.5;" x="518.4" xlink:href="#mcb0005524f" y="43.2"/>
      </g>
     </g>
     <g id="text_10">
      <!-- 100 -->
      <g transform="translate(47.21 46.51125)scale(0.12 -0.12)">
       <use xlink:href="#BitstreamVeraSans-Roman-31"/>
       <use x="63.623046875" xlink:href="#BitstreamVeraSans-Roman-30"/>
       <use x="127.24609375" xlink:href="#BitstreamVeraSans-Roman-30"/>
      </g>
     </g>
    </g>
    <g id="text_11">
     <!-- temperature (C) -->
     <defs>
      <path d="
M34.2812 27.4844
Q23.3906 27.4844 19.1875 25
Q14.9844 22.5156 14.9844 16.5
Q14.9844 11.7188 18.1406 8.90625
Q21.2969 6.10938 26.7031 6.10938
Q34.1875 6.10938 38.7031 11.4062
Q43.2188 16.7031 43.2188 25.4844
L43.2188 27.4844
z

M52.2031 31.2031
L52.2031 0
L43.2188 0
L43.2188 8.29688
Q40.1406 3.32812 35.5469 0.953125
Q30.9531 -1.42188 24.3125 -1.42188
Q15.9219 -1.42188 10.9531 3.29688
Q6 8.01562 6 15.9219
Q6 25.1406 12.1719 29.8281
Q18.3594 34.5156 30.6094 34.5156
L43.2188 34.5156
L43.2188 35.4062
Q43.2188 41.6094 39.1406 45
Q35.0625 48.3906 27.6875 48.3906
Q23 48.3906 18.5469 47.2656
Q14.1094 46.1406 10.0156 43.8906
L10.0156 52.2031
Q14.9375 54.1094 19.5781 55.0469
Q24.2188 56 28.6094 56
Q40.4844 56 46.3438 49.8438
Q52.2031 43.7031 52.2031 31.2031" id="BitstreamVeraSans-Roman-61"/>
      <path id="BitstreamVeraSans-Roman-20"/>
      <path d="
M8.01562 75.875
L15.8281 75.875
Q23.1406 64.3594 26.7812 53.3125
Q30.4219 42.2812 30.4219 31.3906
Q30.4219 20.4531 26.7812 9.375
Q23.1406 -1.70312 15.8281 -13.1875
L8.01562 -13.1875
Q14.5 -2 17.7031 9.0625
Q20.9062 20.125 20.9062 31.3906
Q20.9062 42.6719 17.7031 53.6562
Q14.5 64.6562 8.01562 75.875" id="BitstreamVeraSans-Roman-29"/>
      <path d="
M52 44.1875
Q55.375 50.25 60.0625 53.125
Q64.75 56 71.0938 56
Q79.6406 56 84.2812 50.0156
Q88.9219 44.0469 88.9219 33.0156
L88.9219 0
L79.8906 0
L79.8906 32.7188
Q79.8906 40.5781 77.0938 44.375
Q74.3125 48.1875 68.6094 48.1875
Q61.625 48.1875 57.5625 43.5469
Q53.5156 38.9219 53.5156 30.9062
L53.5156 0
L44.4844 0
L44.4844 32.7188
Q44.4844 40.625 41.7031 44.4062
Q38.9219 48.1875 33.1094 48.1875
Q26.2188 48.1875 22.1562 43.5312
Q18.1094 38.875 18.1094 30.9062
L18.1094 0
L9.07812 0
L9.07812 54.6875
L18.1094 54.6875
L18.1094 46.1875
Q21.1875 51.2188 25.4844 53.6094
Q29.7812 56 35.6875 56
Q41.6562 56 45.8281 52.9688
Q50 49.9531 52 44.1875" id="BitstreamVeraSans-Roman-6d"/>
      <path d="
M64.4062 67.2812
L64.4062 56.8906
Q59.4219 61.5312 53.7812 63.8125
Q48.1406 66.1094 41.7969 66.1094
Q29.2969 66.1094 22.6562 58.4688
Q16.0156 50.8281 16.0156 36.375
Q16.0156 21.9688 22.6562 14.3281
Q29.2969 6.6875 41.7969 6.6875
Q48.1406 6.6875 53.7812 8.98438
Q59.4219 11.2812 64.4062 15.9219
L64.4062 5.60938
Q59.2344 2.09375 53.4375 0.328125
Q47.6562 -1.42188 41.2188 -1.42188
Q24.6562 -1.42188 15.125 8.70312
Q5.60938 18.8438 5.60938 36.375
Q5.60938 53.9531 15.125 64.0781
Q24.6562 74.2188 41.2188 74.2188
Q47.75 74.2188 53.5312 72.4844
Q59.3281 70.75 64.4062 67.2812" id="BitstreamVeraSans-Roman-43"/>
      <path d="
M31 75.875
Q24.4688 64.6562 21.2812 53.6562
Q18.1094 42.6719 18.1094 31.3906
Q18.1094 20.125 21.3125 9.0625
Q24.5156 -2 31 -13.1875
L23.1875 -13.1875
Q15.875 -1.70312 12.2344 9.375
Q8.59375 20.4531 8.59375 31.3906
Q8.59375 42.2812 12.2031 53.3125
Q15.8281 64.3594 23.1875 75.875
z
" id="BitstreamVeraSans-Roman-28"/>
      <path d="
M56.2031 29.5938
L56.2031 25.2031
L14.8906 25.2031
Q15.4844 15.9219 20.4844 11.0625
Q25.4844 6.20312 34.4219 6.20312
Q39.5938 6.20312 44.4531 7.46875
Q49.3125 8.73438 54.1094 11.2812
L54.1094 2.78125
Q49.2656 0.734375 44.1875 -0.34375
Q39.1094 -1.42188 33.8906 -1.42188
Q20.7969 -1.42188 13.1562 6.1875
Q5.51562 13.8125 5.51562 26.8125
Q5.51562 40.2344 12.7656 48.1094
Q20.0156 56 32.3281 56
Q43.3594 56 49.7812 48.8906
Q56.2031 41.7969 56.2031 29.5938
M47.2188 32.2344
Q47.125 39.5938 43.0938 43.9844
Q39.0625 48.3906 32.4219 48.3906
Q24.9062 48.3906 20.3906 44.1406
Q15.875 39.8906 15.1875 32.1719
z
" id="BitstreamVeraSans-Roman-65"/>
      <path d="
M18.3125 70.2188
L18.3125 54.6875
L36.8125 54.6875
L36.8125 47.7031
L18.3125 47.7031
L18.3125 18.0156
Q18.3125 11.3281 20.1406 9.42188
Q21.9688 7.51562 27.5938 7.51562
L36.8125 7.51562
L36.8125 0
L27.5938 0
Q17.1875 0 13.2344 3.875
Q9.28125 7.76562 9.28125 18.0156
L9.28125 47.7031
L2.6875 47.7031
L2.6875 54.6875
L9.28125 54.6875
L9.28125 70.2188
z
" id="BitstreamVeraSans-Roman-74"/>
      <path d="
M41.1094 46.2969
Q39.5938 47.1719 37.8125 47.5781
Q36.0312 48 33.8906 48
Q26.2656 48 22.1875 43.0469
Q18.1094 38.0938 18.1094 28.8125
L18.1094 0
L9.07812 0
L9.07812 54.6875
L18.1094 54.6875
L18.1094 46.1875
Q20.9531 51.1719 25.4844 53.5781
Q30.0312 56 36.5312 56
Q37.4531 56 38.5781 55.875
Q39.7031 55.7656 41.0625 55.5156
z
" id="BitstreamVeraSans-Roman-72"/>
      <path d="
M18.1094 8.20312
L18.1094 -20.7969
L9.07812 -20.7969
L9.07812 54.6875
L18.1094 54.6875
L18.1094 46.3906
Q20.9531 51.2656 25.2656 53.625
Q29.5938 56 35.5938 56
Q45.5625 56 51.7812 48.0938
Q58.0156 40.1875 58.0156 27.2969
Q58.0156 14.4062 51.7812 6.48438
Q45.5625 -1.42188 35.5938 -1.42188
Q29.5938 -1.42188 25.2656 0.953125
Q20.9531 3.32812 18.1094 8.20312
M48.6875 27.2969
Q48.6875 37.2031 44.6094 42.8438
Q40.5312 48.4844 33.4062 48.4844
Q26.2656 48.4844 22.1875 42.8438
Q18.1094 37.2031 18.1094 27.2969
Q18.1094 17.3906 22.1875 11.75
Q26.2656 6.10938 33.4062 6.10938
Q40.5312 6.10938 44.6094 11.75
Q48.6875 17.3906 48.6875 27.2969" id="BitstreamVeraSans-Roman-70"/>
     </defs>
     <g transform="translate(39.714375 242.37375)rotate(-90.0)scale(0.12 -0.12)">
      <use xlink:href="#BitstreamVeraSans-Roman-74"/>
      <use x="39.208984375" xlink:href="#BitstreamVeraSans-Roman-65"/>
      <use x="100.732421875" xlink:href="#BitstreamVeraSans-Roman-6d"/>
      <use x="198.14453125" xlink:href="#BitstreamVeraSans-Roman-70"/>
      <use x="261.62109375" xlink:href="#BitstreamVeraSans-Roman-65"/>
      <use x="323.14453125" xlink:href="#BitstreamVeraSans-Roman-72"/>
      <use x="364.2578125" xlink:href="#BitstreamVeraSans-Roman-61"/>
      <use x="425.537109375" xlink:href="#BitstreamVeraSans-Roman-74"/>
      <use x="464.74609375" xlink:href="#BitstreamVeraSans-Roman-75"/>
      <use x="528.125" xlink:href="#BitstreamVeraSans-Roman-72"/>
      <use x="566.98828125" xlink:href="#BitstreamVeraSans-Roman-65"/>
      <use x="628.51171875" xlink:href="#BitstreamVeraSans-Roman-20"/>
      <use x="660.298828125" xlink:href="#BitstreamVeraSans-Roman-28"/>
      <use x="699.3125" xlink:href="#BitstreamVeraSans-Roman-43"/>
      <use x="769.13671875" xlink:href="#BitstreamVeraSans-Roman-29"/>
     </g>
    </g>
   </g>
   <g id="patch_3">
    <path d="
M72 43.2
L518.4 43.2" style="fill:none;stroke:#000000;"/>
   </g>
   <g id="patch_4">
    <path d="
M518.4 345.6
L518.4 43.2" style="fill:none;stroke:#000000;"/>
   </g>
   <g id="patch_5">
    <path d="
M72 345.6
L518.4 345.6" style="fill:none;stroke:#000000;"/>
   </g>
   <g id="patch_6">
    <path d="
M72 345.6
L72 43.2" style="fill:none;stroke:#000000;"/>
   </g>
   <g id="text_12">
    <!-- CPU critical temperature -->
    <defs>
     <path d="
M19.6719 64.7969
L19.6719 37.4062
L32.0781 37.4062
Q38.9688 37.4062 42.7188 40.9688
Q46.4844 44.5312 46.4844 51.125
Q46.4844 57.6719 42.7188 61.2344
Q38.9688 64.7969 32.0781 64.7969
z

M9.8125 72.9062
L32.0781 72.9062
Q44.3438 72.9062 50.6094 67.3594
Q56.8906 61.8125 56.8906 51.125
Q56.8906 40.3281 50.6094 34.8125
Q44.3438 29.2969 32.0781 29.2969
L19.6719 29.2969
L19.6719 0
L9.8125 0
z
" id="BitstreamVeraSans-Roman-50"/>
     <path d="
M9.42188 54.6875
L18.4062 54.6875
L18.4062 0
L9.42188 0
z

M9.42188 75.9844
L18.4062 75.9844
L18.4062 64.5938
L9.42188 64.5938
z
" id="BitstreamVeraSans-Roman-69"/>
     <path d="
M8.6875 72.9062
L18.6094 72.9062
L18.6094 28.6094
Q18.6094 16.8906 22.8438 11.7344
Q27.0938 6.59375 36.625 6.59375
Q46.0938 6.59375 50.3438 11.7344
Q54.5938 16.8906 54.5938 28.6094
L54.5938 72.9062
L64.5 72.9062
L64.5 27.3906
Q64.5 13.1406 57.4375 5.85938
Q50.3906 -1.42188 36.625 -1.42188
Q22.7969 -1.42188 15.7344 5.85938
Q8.6875 13.1406 8.6875 27.3906
z
" id="BitstreamVeraSans-Roman-55"/>
     <path d="
M48.7812 52.5938
L48.7812 44.1875
Q44.9688 46.2969 41.1406 47.3438
Q37.3125 48.3906 33.4062 48.3906
Q24.6562 48.3906 19.8125 42.8438
Q14.9844 37.3125 14.9844 27.2969
Q14.9844 17.2812 19.8125 11.7344
Q24.6562 6.20312 33.4062 6.20312
Q37.3125 6.20312 41.1406 7.25
Q44.9688 8.29688 48.7812 10.4062
L48.7812 2.09375
Q45.0156 0.34375 40.9844 -0.53125
Q36.9688 -1.42188 32.4219 -1.42188
Q20.0625 -1.42188 12.7812 6.34375
Q5.51562 14.1094 5.51562 27.2969
Q5.51562 40.6719 12.8594 48.3281
Q20.2188 56 33.0156 56
Q37.1562 56 41.1094 55.1406
Q45.0625 54.2969 48.7812 52.5938" id="BitstreamVeraSans-Roman-63"/>
    </defs>
    <g style="fill:#ff0000;" transform="translate(72.0000000019 85.536)scale(0.12 -0.12)">
     <use xlink:href="#BitstreamVeraSans-Roman-43"/>
     <use x="69.82421875" xlink:href="#BitstreamVeraSans-Roman-50"/>
     <use x="130.126953125" xlink:href="#BitstreamVeraSans-Roman-55"/>
     <use x="203.3203125" xlink:href="#BitstreamVeraSans-Roman-20"/>
     <use x="235.107421875" xlink:href="#BitstreamVeraSans-Roman-63"/>
     <use x="290.087890625" xlink:href="#BitstreamVeraSans-Roman-72"/>
     <use x="331.201171875" xlink:href="#BitstreamVeraSans-Roman-69"/>
     <use x="358.984375" xlink:href="#BitstreamVeraSans-Roman-74"/>
     <use x="398.193359375" xlink:href="#BitstreamVeraSans-Roman-69"/>
     <use x="425.9765625" xlink:href="#BitstreamVeraSans-Roman-63"/>
     <use x="480.95703125" xlink:href="#BitstreamVeraSans-Roman-61"/>
     <use x="542.236328125" xlink:href="#BitstreamVeraSans-Roman-6c"/>
     <use x="570.01953125" xlink:href="#BitstreamVeraSans-Roman-20"/>
     <use x="601.806640625" xlink:href="#BitstreamVeraSans-Roman-74"/>
     <use x="641.015625" xlink:href="#BitstreamVeraSans-Roman-65"/>
     <use x="702.5390625" xlink:href="#BitstreamVeraSans-Roman-6d"/>
     <use x="799.951171875" xlink:href="#BitstreamVeraSans-Roman-70"/>
     <use x="863.427734375" xlink:href="#BitstreamVeraSans-Roman-65"/>
     <use x="924.951171875" xlink:href="#BitstreamVeraSans-Roman-72"/>
     <use x="966.064453125" xlink:href="#BitstreamVeraSans-Roman-61"/>
     <use x="1027.34375" xlink:href="#BitstreamVeraSans-Roman-74"/>
     <use x="1066.55273438" xlink:href="#BitstreamVeraSans-Roman-75"/>
     <use x="1129.93164062" xlink:href="#BitstreamVeraSans-Roman-72"/>
     <use x="1168.79492188" xlink:href="#BitstreamVeraSans-Roman-65"/>
    </g>
   </g>
   <g id="text_13">
    <!-- node03 -->
    <defs>
     <path d="
M45.4062 46.3906
L45.4062 75.9844
L54.3906 75.9844
L54.3906 0
L45.4062 0
L45.4062 8.20312
Q42.5781 3.32812 38.25 0.953125
Q33.9375 -1.42188 27.875 -1.42188
Q17.9688 -1.42188 11.7344 6.48438
Q5.51562 14.4062 5.51562 27.2969
Q5.51562 40.1875 11.7344 48.0938
Q17.9688 56 27.875 56
Q33.9375 56 38.25 53.625
Q42.5781 51.2656 45.4062 46.3906
M14.7969 27.2969
Q14.7969 17.3906 18.875 11.75
Q22.9531 6.10938 30.0781 6.10938
Q37.2031 6.10938 41.2969 11.75
Q45.4062 17.3906 45.4062 27.2969
Q45.4062 37.2031 41.2969 42.8438
Q37.2031 48.4844 30.0781 48.4844
Q22.9531 48.4844 18.875 42.8438
Q14.7969 37.2031 14.7969 27.2969" id="BitstreamVeraSans-Roman-64"/>
     <path d="
M30.6094 48.3906
Q23.3906 48.3906 19.1875 42.75
Q14.9844 37.1094 14.9844 27.2969
Q14.9844 17.4844 19.1562 11.8438
Q23.3438 6.20312 30.6094 6.20312
Q37.7969 6.20312 41.9844 11.8594
Q46.1875 17.5312 46.1875 27.2969
Q46.1875 37.0156 41.9844 42.7031
Q37.7969 48.3906 30.6094 48.3906
M30.6094 56
Q42.3281 56 49.0156 48.375
Q55.7188 40.7656 55.7188 27.2969
Q55.7188 13.875 49.0156 6.21875
Q42.3281 -1.42188 30.6094 -1.42188
Q18.8438 -1.42188 12.1719 6.21875
Q5.51562 13.875 5.51562 27.2969
Q5.51562 40.7656 12.1719 48.375
Q18.8438 56 30.6094 56" id="BitstreamVeraSans-Roman-6f"/>
    </defs>
    <g transform="translate(269.299125 38.2)scale(0.144 -0.144)">
     <use xlink:href="#BitstreamVeraSans-Roman-6e"/>
     <use x="63.37890625" xlink:href="#BitstreamVeraSans-Roman-6f"/>
     <use x="124.560546875" xlink:href="#BitstreamVeraSans-Roman-64"/>
     <use x="188.037109375" xlink:href="#BitstreamVeraSans-Roman-65"/>
     <use x="249.560546875" xlink:href="#BitstreamVeraSans-Roman-30"/>
     <use x="313.18359375" xlink:href="#BitstreamVeraSans-Roman-33"/>
    </g>
   </g>
  </g>
 </g>
 <defs>
  <clipPath id="pcb2bf987bf">
   <rect height="302.4" width="446.4" x="72.0" y="43.2"/>
  </clipPath>
 </defs>
</svg>
