<?xml version="1.0" encoding="utf-8" standalone="no"?>
<!DOCTYPE svg PUBLIC "-//W3C//DTD SVG 1.1//EN"
  "http://www.w3.org/Graphics/SVG/1.1/DTD/svg11.dtd">
<!-- Created with matplotlib (http://matplotlib.org/) -->
<svg height="432pt" version="1.1" viewBox="0 0 576 432" width="576pt" xmlns="http://www.w3.org/2000/svg" xmlns:xlink="http://www.w3.org/1999/xlink">
 <defs>
  <style type="text/css">
*{stroke-linecap:butt;stroke-linejoin:round;}
  </style>
 </defs>
 <g id="figure_1">
  <g id="patch_1">
   <path d="
M0 432
L576 432
L576 0
L0 0
z
" style="fill:#ffffff;"/>
  </g>
  <g id="axes_1">
   <g id="patch_2">
    <path d="
M72 345.6
L518.4 345.6
L518.4 43.2
L72 43.2
z
" style="fill:#ffffff;"/>
   </g>
   <g id="line2d_1">
    <path clip-path="url(#pcb2bf987bf)" d="
M72 227.664
L72.6098 227.664
L72.7623 230.688
L73.3721 230.688
L73.5246 233.712
L73.8295 227.664
L73.982 230.688
L74.1344 230.688
L74.2869 227.664
L74.4393 230.688
L74.5918 230.688
L74.7443 233.712
L75.0492 227.664
L75.2016 233.712
L75.3541 230.688
L75.5066 230.688
L75.659 227.664
L75.8115 230.688
L75.9639 227.664
L76.1164 227.664
L76.2689 230.688
L76.5738 230.688
L76.7262 224.64
L77.0311 224.64
L77.1836 227.664
L77.4885 227.664
L77.641 230.688
L77.7934 227.664
L77.9459 227.664
L78.0984 230.688
L78.2508 227.664
L78.4033 230.688
L78.5557 227.664
L78.7082 227.664
L78.8607 230.688
L79.0131 224.64
L79.1656 230.688
L79.318 227.664
L79.623 227.664
L79.7754 230.688
L79.9279 227.664
L80.3852 227.664
L80.5377 230.688
L80.6902 227.664
L81.3 227.664
L81.4525 224.64
L81.6049 227.664
L81.7574 227.664
L81.9098 224.64
L82.0623 227.664
L82.2148 224.64
L82.3672 227.664
L82.5197 227.664
L82.6721 224.64
L82.8246 230.688
L82.977 224.64
L83.1295 230.688
L83.282 227.664
L83.8918 227.664
L84.3492 218.592
L84.5016 224.64
L84.959 224.64
L85.1115 221.616
L85.2639 224.64
L85.5689 215.568
L85.7213 224.64
L86.4836 224.64
L86.6361 221.616
L86.7885 221.616
L86.941 224.64
L87.0934 221.616
L87.2459 224.64
L87.5508 224.64
L87.7033 227.664
L87.8557 224.64
L88.0082 224.64
L88.1607 221.616
L88.3131 224.64
L88.7705 224.64
L88.923 221.616
L89.0754 224.64
L89.8377 224.64
L89.9902 221.616
L90.1426 221.616
L90.2951 224.64
L90.4475 221.616
L90.6 221.616
L90.7525 224.64
L90.9049 221.616
L91.0574 227.664
L91.5148 227.664
L91.6672 230.688
L91.8197 227.664
L91.9721 227.664
L92.1246 230.688
L92.4295 224.64
L92.582 230.688
L92.8869 224.64
L93.0393 224.64
L93.1918 227.664
L93.3443 224.64
L93.4967 230.688
L93.6492 224.64
L93.9541 230.688
L94.1066 227.664
L94.259 230.688
L94.4115 230.688
L94.7164 224.64
L94.8689 230.688
L95.0213 227.664
L95.1738 230.688
L95.3262 227.664
L96.241 227.664
L96.3934 230.688
L96.5459 224.64
L96.6984 227.664
L96.8508 224.64
L97.0033 224.64
L97.1557 227.664
L97.3082 224.64
L97.4607 227.664
L97.7656 227.664
L97.918 224.64
L98.223 224.64
L98.3754 221.616
L98.5279 224.64
L98.6803 221.616
L98.9852 227.664
L99.1377 224.64
L99.9 224.64
L100.052 221.616
L100.205 224.64
L100.357 224.64
L100.51 221.616
L100.815 227.664
L100.967 224.64
L101.12 224.64
L101.272 221.616
L101.425 221.616
L101.577 224.64
L101.73 221.616
L101.882 221.616
L102.034 224.64
L102.187 221.616
L102.339 221.616
L102.492 224.64
L102.644 224.64
L102.797 221.616
L103.254 221.616
L103.559 227.664
L103.864 221.616
L104.016 224.64
L104.321 224.64
L104.474 221.616
L104.626 221.616
L104.779 224.64
L104.931 218.592
L105.084 224.64
L105.236 224.64
L105.389 221.616
L105.541 221.616
L105.693 227.664
L105.998 227.664
L106.151 224.64
L106.303 230.688
L106.456 227.664
L106.608 227.664
L106.761 233.712
L107.066 233.712
L107.218 230.688
L107.523 230.688
L107.675 227.664
L107.828 230.688
L107.98 227.664
L108.743 227.664
L108.895 230.688
L109.048 230.688
L109.2 227.664
L109.657 227.664
L109.81 230.688
L109.962 230.688
L110.115 227.664
L110.267 233.712
L110.572 227.664
L110.725 230.688
L110.877 227.664
L111.03 227.664
L111.182 209.52
L111.487 230.688
L111.639 227.664
L111.792 233.712
L111.944 230.688
L112.097 230.688
L112.402 224.64
L112.554 227.664
L112.707 224.64
L112.859 230.688
L113.011 227.664
L113.164 221.616
L113.316 224.64
L113.469 221.616
L114.079 221.616
L114.231 218.592
L114.384 221.616
L114.993 221.616
L115.146 218.592
L115.298 224.64
L115.451 221.616
L115.603 224.64
L115.756 224.64
L115.908 221.616
L116.061 221.616
L116.213 218.592
L116.366 218.592
L116.518 224.64
L117.433 224.64
L117.585 221.616
L117.738 221.616
L117.89 224.64
L118.043 224.64
L118.195 221.616
L118.348 221.616
L118.5 224.64
L118.652 224.64
L118.805 221.616
L119.262 221.616
L119.415 224.64
L119.567 221.616
L119.72 224.64
L119.872 224.64
L120.025 221.616
L120.33 227.664
L120.482 227.664
L120.787 233.712
L120.939 233.712
L121.092 230.688
L121.244 230.688
L121.397 233.712
L121.549 224.64
L121.702 230.688
L121.854 230.688
L122.007 227.664
L122.159 227.664
L122.311 230.688
L122.464 224.64
L122.769 230.688
L122.921 230.688
L123.074 224.64
L123.226 230.688
L123.379 230.688
L123.531 227.664
L123.684 230.688
L123.989 230.688
L124.141 224.64
L124.293 230.688
L124.446 230.688
L124.598 233.712
L124.751 227.664
L124.903 227.664
L125.056 230.688
L125.208 230.688
L125.361 227.664
L125.513 230.688
L125.666 227.664
L125.818 233.712
L125.97 227.664
L126.123 230.688
L126.275 227.664
L126.428 230.688
L126.58 224.64
L126.733 227.664
L127.038 227.664
L127.19 224.64
L127.343 227.664
L127.648 221.616
L127.8 221.616
L127.952 224.64
L128.105 221.616
L128.257 224.64
L128.41 221.616
L129.477 221.616
L129.63 218.592
L129.782 221.616
L129.934 218.592
L130.087 221.616
L130.239 221.616
L130.392 218.592
L130.697 224.64
L130.849 221.616
L131.307 221.616
L131.459 218.592
L131.611 221.616
L131.764 221.616
L131.916 218.592
L132.221 224.64
L132.374 221.616
L132.831 221.616
L133.136 215.568
L133.289 221.616
L133.593 221.616
L133.746 218.592
L133.898 221.616
L134.051 218.592
L134.203 218.592
L134.356 221.616
L134.508 218.592
L134.661 197.424
L134.813 200.448
L134.966 221.616
L135.118 218.592
L135.27 200.448
L135.423 218.592
L135.575 218.592
L135.88 224.64
L136.185 224.64
L136.338 227.664
L136.643 221.616
L136.795 221.616
L136.948 227.664
L137.1 224.64
L137.252 224.64
L137.405 227.664
L137.557 227.664
L137.71 224.64
L137.862 224.64
L138.015 227.664
L138.32 227.664
L138.472 224.64
L138.625 224.64
L138.777 227.664
L138.93 224.64
L139.082 224.64
L139.234 227.664
L139.539 221.616
L139.692 221.616
L139.844 224.64
L139.997 221.616
L140.149 230.688
L140.454 224.64
L140.607 227.664
L140.759 224.64
L140.911 218.592
L141.064 221.616
L141.216 218.592
L141.369 218.592
L141.521 203.472
L141.674 218.592
L141.979 218.592
L142.131 221.616
L142.284 218.592
L142.436 221.616
L142.589 221.616
L142.741 218.592
L143.046 218.592
L143.198 221.616
L143.503 215.568
L143.808 221.616
L143.961 218.592
L144.266 218.592
L144.418 215.568
L144.57 221.616
L144.723 218.592
L144.875 221.616
L145.028 218.592
L145.333 218.592
L145.485 221.616
L145.638 221.616
L145.79 215.568
L145.943 218.592
L146.552 218.592
L146.705 221.616
L146.857 221.616
L147.01 215.568
L147.315 221.616
L147.467 218.592
L147.62 218.592
L147.772 215.568
L147.925 221.616
L148.077 221.616
L148.23 218.592
L148.382 218.592
L148.534 221.616
L148.687 221.616
L148.839 218.592
L149.297 218.592
L149.449 221.616
L149.754 221.616
L150.059 215.568
L150.364 221.616
L150.516 215.568
L150.669 218.592
L150.821 218.592
L150.974 221.616
L151.126 215.568
L151.431 221.616
L151.584 218.592
L152.041 218.592
L152.193 221.616
L152.346 218.592
L152.498 218.592
L152.651 221.616
L152.956 215.568
L153.108 218.592
L153.261 215.568
L153.413 218.592
L153.718 218.592
L153.87 215.568
L154.48 215.568
L154.633 218.592
L154.785 215.568
L154.938 215.568
L155.09 218.592
L155.243 215.568
L155.395 218.592
L155.548 212.544
L155.7 215.568
L155.852 215.568
L156.005 212.544
L156.157 212.544
L156.31 209.52
L156.462 212.544
L156.615 212.544
L156.767 215.568
L156.92 212.544
L157.072 215.568
L157.225 215.568
L157.377 218.592
L157.53 215.568
L157.682 215.568
L157.834 218.592
L157.987 215.568
L158.139 221.616
L158.292 215.568
L158.597 221.616
L158.749 218.592
L158.902 218.592
L159.054 221.616
L159.207 218.592
L159.511 218.592
L159.664 215.568
L159.816 218.592
L160.121 218.592
L160.274 215.568
L160.426 218.592
L160.884 218.592
L161.036 221.616
L161.189 218.592
L161.493 218.592
L161.646 221.616
L161.798 221.616
L161.951 218.592
L162.103 221.616
L162.256 221.616
L162.408 218.592
L162.713 218.592
L162.866 221.616
L163.323 221.616
L163.475 215.568
L163.628 221.616
L163.78 218.592
L164.238 218.592
L164.39 224.64
L164.543 221.616
L164.848 227.664
L165 227.664
L165.152 224.64
L165.305 230.688
L165.457 230.688
L165.61 227.664
L165.762 227.664
L165.915 233.712
L166.372 224.64
L166.525 230.688
L166.677 230.688
L166.83 224.64
L166.982 224.64
L167.134 230.688
L167.439 224.64
L167.592 227.664
L167.744 227.664
L167.897 230.688
L168.049 227.664
L168.659 227.664
L168.811 224.64
L168.964 230.688
L169.269 230.688
L169.421 227.664
L170.031 227.664
L170.184 224.64
L170.336 224.64
L170.489 221.616
L170.641 227.664
L170.794 227.664
L170.946 221.616
L171.098 227.664
L171.251 227.664
L171.403 221.616
L171.708 227.664
L171.861 224.64
L172.166 224.64
L172.318 218.592
L172.47 221.616
L172.775 221.616
L172.928 218.592
L173.233 224.64
L173.385 218.592
L173.538 221.616
L173.69 221.616
L173.843 218.592
L173.995 218.592
L174.148 221.616
L174.3 221.616
L174.452 218.592
L174.605 218.592
L174.757 215.568
L174.91 221.616
L175.062 218.592
L175.215 221.616
L175.672 221.616
L175.825 218.592
L175.977 224.64
L176.13 221.616
L176.282 221.616
L176.434 224.64
L176.587 221.616
L176.739 221.616
L176.892 224.64
L177.197 218.592
L177.349 221.616
L177.502 221.616
L177.654 218.592
L177.807 218.592
L177.959 221.616
L178.264 221.616
L178.416 218.592
L178.569 218.592
L178.721 224.64
L178.874 218.592
L179.026 224.64
L179.179 224.64
L179.331 227.664
L179.941 227.664
L180.093 230.688
L180.398 230.688
L180.551 227.664
L181.008 227.664
L181.161 230.688
L181.313 227.664
L181.466 227.664
L181.618 224.64
L181.77 227.664
L182.075 227.664
L182.228 224.64
L182.38 224.64
L182.533 230.688
L182.838 224.64
L182.99 224.64
L183.143 227.664
L183.295 227.664
L183.448 224.64
L183.6 227.664
L183.752 227.664
L184.057 221.616
L184.21 224.64
L184.362 224.64
L184.515 227.664
L184.667 224.64
L184.972 230.688
L185.125 227.664
L185.277 227.664
L185.43 224.64
L185.734 230.688
L186.039 224.64
L186.192 224.64
L186.344 230.688
L186.649 224.64
L186.802 224.64
L186.954 221.616
L187.107 224.64
L187.259 221.616
L187.411 224.64
L187.564 221.616
L187.716 221.616
L187.869 218.592
L188.631 218.592
L188.784 221.616
L189.089 221.616
L189.241 218.592
L189.393 221.616
L189.546 221.616
L189.698 218.592
L189.851 221.616
L190.003 218.592
L190.156 221.616
L190.308 218.592
L190.613 224.64
L190.766 224.64
L190.918 221.616
L191.528 221.616
L191.68 218.592
L191.833 221.616
L191.985 218.592
L192.138 221.616
L192.29 218.592
L192.443 221.616
L192.595 221.616
L192.748 218.592
L193.052 224.64
L193.357 218.592
L193.51 224.64
L193.662 221.616
L193.815 221.616
L193.967 224.64
L194.272 224.64
L194.425 230.688
L194.577 230.688
L194.73 227.664
L195.339 227.664
L195.492 224.64
L195.644 224.64
L195.797 227.664
L196.102 227.664
L196.254 224.64
L196.407 230.688
L196.711 224.64
L196.864 224.64
L197.016 227.664
L197.169 224.64
L197.321 227.664
L197.779 227.664
L197.931 209.52
L198.084 206.496
L198.236 209.52
L198.389 227.664
L198.693 227.664
L198.846 224.64
L198.998 224.64
L199.151 227.664
L199.303 227.664
L199.456 224.64
L199.608 230.688
L199.761 224.64
L199.913 227.664
L200.066 227.664
L200.218 224.64
L200.37 224.64
L200.523 221.616
L200.676 224.64
L200.828 221.616
L200.98 221.616
L201.133 224.64
L201.285 221.616
L201.438 224.64
L201.743 218.592
L201.895 221.616
L202.048 221.616
L202.2 218.592
L202.352 221.616
L202.505 221.616
L202.657 218.592
L202.962 218.592
L203.115 221.616
L203.267 218.592
L203.42 221.616
L203.572 218.592
L203.725 221.616
L203.877 218.592
L204.334 218.592
L204.487 221.616
L204.639 218.592
L204.792 221.616
L205.097 221.616
L205.249 218.592
L205.402 221.616
L205.554 218.592
L205.707 221.616
L205.859 218.592
L206.011 221.616
L206.316 221.616
L206.469 218.592
L206.621 221.616
L206.926 221.616
L207.079 224.64
L207.231 224.64
L207.384 218.592
L207.841 218.592
L208.146 224.64
L208.298 221.616
L208.451 227.664
L208.603 224.64
L208.756 224.64
L208.908 227.664
L209.061 224.64
L209.213 227.664
L209.366 227.664
L209.518 230.688
L209.67 224.64
L209.823 227.664
L210.28 227.664
L210.433 224.64
L210.585 230.688
L210.89 224.64
L211.043 227.664
L211.195 224.64
L211.348 227.664
L211.5 227.664
L211.652 230.688
L211.805 227.664
L212.415 227.664
L212.567 230.688
L212.72 230.688
L213.025 224.64
L213.177 224.64
L213.33 227.664
L213.482 227.664
L213.634 224.64
L213.787 227.664
L214.092 227.664
L214.244 224.64
L214.397 227.664
L214.549 224.64
L214.702 224.64
L214.854 227.664
L215.159 227.664
L215.311 230.688
L215.464 224.64
L215.769 224.64
L215.921 221.616
L216.074 221.616
L216.226 215.568
L216.379 218.592
L216.531 224.64
L216.836 218.592
L217.293 218.592
L217.446 221.616
L217.598 221.616
L217.751 218.592
L218.208 218.592
L218.513 224.64
L218.666 218.592
L218.818 218.592
L218.97 221.616
L219.123 218.592
L219.275 221.616
L219.428 221.616
L219.58 224.64
L219.733 221.616
L220.343 221.616
L220.495 218.592
L220.648 218.592
L220.8 221.616
L221.105 221.616
L221.257 218.592
L221.41 218.592
L221.562 221.616
L222.02 221.616
L222.172 224.64
L222.325 218.592
L222.477 218.592
L222.63 224.64
L222.782 218.592
L223.087 224.64
L223.239 230.688
L223.392 224.64
L223.544 224.64
L223.697 227.664
L223.849 224.64
L224.002 227.664
L224.307 227.664
L224.459 221.616
L224.611 227.664
L224.764 224.64
L224.916 230.688
L225.069 224.64
L225.221 224.64
L225.526 230.688
L225.679 221.616
L225.831 230.688
L226.136 224.64
L226.289 230.688
L226.593 224.64
L227.051 224.64
L227.203 227.664
L227.813 227.664
L227.966 224.64
L228.118 224.64
L228.27 227.664
L228.423 224.64
L228.575 227.664
L228.728 224.64
L229.033 224.64
L229.185 227.664
L229.338 227.664
L229.49 230.688
L229.643 227.664
L229.795 227.664
L230.1 221.616
L230.405 221.616
L230.557 218.592
L230.71 221.616
L230.862 218.592
L231.015 221.616
L231.167 218.592
L231.32 221.616
L231.472 218.592
L231.625 221.616
L231.777 218.592
L231.93 218.592
L232.082 221.616
L232.234 215.568
L232.387 221.616
L232.997 221.616
L233.149 218.592
L233.454 218.592
L233.607 221.616
L233.759 221.616
L233.911 218.592
L234.216 218.592
L234.369 221.616
L234.521 215.568
L234.674 221.616
L234.826 218.592
L234.979 218.592
L235.131 221.616
L235.893 221.616
L236.046 218.592
L236.198 218.592
L236.351 221.616
L236.503 218.592
L236.656 218.592
L236.808 203.472
L236.961 218.592
L238.028 218.592
L238.18 221.616
L238.485 221.616
L238.638 227.664
L238.79 224.64
L238.943 227.664
L239.095 224.64
L239.248 227.664
L239.4 224.64
L239.552 227.664
L239.705 224.64
L239.857 224.64
L240.01 227.664
L240.315 227.664
L240.467 224.64
L240.62 230.688
L240.772 227.664
L240.925 230.688
L241.077 230.688
L241.23 224.64
L241.382 230.688
L241.687 224.64
L241.839 227.664
L241.992 227.664
L242.144 224.64
L242.297 227.664
L242.449 224.64
L242.602 227.664
L242.754 224.64
L243.364 224.64
L243.516 221.616
L243.669 221.616
L243.821 218.592
L244.431 218.592
L244.584 221.616
L244.736 218.592
L246.108 218.592
L246.261 215.568
L246.413 218.592
L246.566 215.568
L246.718 215.568
L246.87 221.616
L247.023 218.592
L247.175 218.592
L247.328 215.568
L247.785 215.568
L247.938 221.616
L248.09 218.592
L248.243 218.592
L248.395 215.568
L248.548 218.592
L248.7 215.568
L248.852 215.568
L249.005 218.592
L249.157 215.568
L249.31 218.592
L249.767 218.592
L249.92 215.568
L250.072 218.592
L250.377 218.592
L250.53 221.616
L250.682 212.544
L250.987 218.592
L251.139 218.592
L251.292 221.616
L251.444 218.592
L251.902 218.592
L252.054 215.568
L252.207 218.592
L252.664 218.592
L252.816 215.568
L252.969 218.592
L253.121 215.568
L253.274 218.592
L254.036 218.592
L254.341 212.544
L254.646 221.616
L255.103 212.544
L255.256 212.544
L255.408 215.568
L255.713 215.568
L255.866 209.52
L256.018 215.568
L256.17 212.544
L256.323 212.544
L256.475 209.52
L256.933 209.52
L257.085 215.568
L257.238 212.544
L257.39 212.544
L257.543 209.52
L257.695 212.544
L257.848 209.52
L258 215.568
L258.152 212.544
L259.22 212.544
L259.372 215.568
L259.525 212.544
L259.677 215.568
L259.83 212.544
L259.982 215.568
L260.134 215.568
L260.287 218.592
L260.439 215.568
L261.202 215.568
L261.354 218.592
L261.507 215.568
L261.659 218.592
L261.811 212.544
L262.116 218.592
L262.269 218.592
L262.421 215.568
L262.879 215.568
L263.031 218.592
L263.184 215.568
L263.641 215.568
L263.794 218.592
L263.946 212.544
L264.098 218.592
L264.251 215.568
L264.403 215.568
L264.556 212.544
L264.708 212.544
L264.861 215.568
L265.166 215.568
L265.318 212.544
L265.47 215.568
L266.08 215.568
L266.233 218.592
L266.69 218.592
L266.843 221.616
L267.148 221.616
L267.452 227.664
L267.605 224.64
L267.757 227.664
L268.062 227.664
L268.215 224.64
L268.367 224.64
L268.52 227.664
L268.672 224.64
L268.825 227.664
L268.977 224.64
L269.13 227.664
L269.282 227.664
L269.434 224.64
L269.587 227.664
L269.739 227.664
L269.892 224.64
L270.044 227.664
L270.197 224.64
L270.349 230.688
L270.502 227.664
L270.959 227.664
L271.111 236.736
L271.416 230.688
L271.569 233.712
L271.721 233.712
L271.874 236.736
L272.026 233.712
L272.179 233.712
L272.331 212.544
L272.484 233.712
L272.636 236.736
L273.093 236.736
L273.246 239.76
L273.398 233.712
L273.551 239.76
L273.703 236.736
L273.856 239.76
L274.008 239.76
L274.313 233.712
L274.466 239.76
L274.923 230.688
L275.228 230.688
L275.38 227.664
L275.533 230.688
L275.685 227.664
L275.838 230.688
L275.99 230.688
L276.295 224.64
L276.448 227.664
L276.6 227.664
L276.752 230.688
L277.057 230.688
L277.21 227.664
L277.82 227.664
L277.972 224.64
L278.125 227.664
L278.277 224.64
L278.582 230.688
L278.734 227.664
L279.039 227.664
L279.192 224.64
L279.344 227.664
L279.649 227.664
L279.802 221.616
L279.954 224.64
L280.107 203.472
L280.259 227.664
L280.411 224.64
L280.564 224.64
L280.716 203.472
L281.021 227.664
L281.174 227.664
L281.326 224.64
L281.631 230.688
L281.784 230.688
L281.936 233.712
L282.089 233.712
L282.241 230.688
L282.393 233.712
L282.546 233.712
L282.698 230.688
L283.003 230.688
L283.156 233.712
L283.308 230.688
L283.461 236.736
L283.613 233.712
L283.766 236.736
L283.918 233.712
L284.07 233.712
L284.223 236.736
L284.528 236.736
L284.68 239.76
L284.985 233.712
L285.138 239.76
L285.29 239.76
L285.443 236.736
L285.595 239.76
L285.748 236.736
L286.205 236.736
L286.357 239.76
L286.51 236.736
L286.662 236.736
L286.815 239.76
L286.967 236.736
L287.425 236.736
L287.577 233.712
L287.73 236.736
L287.882 236.736
L288.034 239.76
L288.187 239.76
L288.339 236.736
L288.949 236.736
L289.102 233.712
L289.254 236.736
L289.559 230.688
L289.711 233.712
L289.864 230.688
L290.474 230.688
L290.626 224.64
L290.779 227.664
L291.084 227.664
L291.236 233.712
L291.389 230.688
L291.693 230.688
L291.846 227.664
L291.998 230.688
L292.151 227.664
L292.303 230.688
L292.456 227.664
L292.761 227.664
L292.913 224.64
L293.066 227.664
L293.218 227.664
L293.37 224.64
L293.523 230.688
L293.675 227.664
L293.828 230.688
L293.98 227.664
L294.133 230.688
L294.285 227.664
L294.438 227.664
L294.59 224.64
L294.743 224.64
L295.048 230.688
L295.352 230.688
L295.657 224.64
L295.81 224.64
L295.962 227.664
L296.115 233.712
L296.267 233.712
L296.42 236.736
L297.03 236.736
L297.182 239.76
L297.334 233.712
L297.639 239.76
L298.249 239.76
L298.554 233.712
L298.707 236.736
L299.011 236.736
L299.164 233.712
L299.316 239.76
L299.469 239.76
L299.621 236.736
L299.774 236.736
L299.926 239.76
L300.079 236.736
L300.231 236.736
L300.384 233.712
L300.536 236.736
L300.993 236.736
L301.146 233.712
L301.298 239.76
L301.451 236.736
L301.756 236.736
L301.908 233.712
L302.213 239.76
L302.366 233.712
L302.823 233.712
L302.975 236.736
L303.128 236.736
L303.28 239.76
L303.433 233.712
L303.585 233.712
L303.89 227.664
L304.043 230.688
L304.348 230.688
L304.652 224.64
L304.805 227.664
L305.11 227.664
L305.262 224.64
L305.415 224.64
L305.567 227.664
L305.72 224.64
L306.177 224.64
L306.33 227.664
L306.482 221.616
L306.634 221.616
L306.787 224.64
L306.939 224.64
L307.092 221.616
L307.244 224.64
L307.854 224.64
L308.007 221.616
L308.159 224.64
L308.311 224.64
L308.464 227.664
L308.616 224.64
L308.921 224.64
L309.074 227.664
L309.226 221.616
L309.379 224.64
L309.531 221.616
L309.836 221.616
L309.989 224.64
L310.141 221.616
L310.293 224.64
L310.446 224.64
L310.598 227.664
L310.903 227.664
L311.056 236.736
L311.208 230.688
L311.361 230.688
L311.513 236.736
L311.666 233.712
L311.818 233.712
L311.97 236.736
L312.58 236.736
L312.733 242.784
L313.038 236.736
L313.648 236.736
L313.8 239.76
L313.952 236.736
L314.105 242.784
L314.41 233.712
L314.715 239.76
L314.867 236.736
L315.172 236.736
L315.325 239.76
L315.477 239.76
L315.63 236.736
L315.782 239.76
L315.934 236.736
L316.087 239.76
L316.239 236.736
L317.459 236.736
L317.611 233.712
L317.764 236.736
L317.916 233.712
L318.069 233.712
L318.374 227.664
L318.526 230.688
L318.831 230.688
L318.984 227.664
L319.136 227.664
L319.289 224.64
L319.441 227.664
L319.593 227.664
L319.746 221.616
L319.898 227.664
L320.051 224.64
L320.203 224.64
L320.356 227.664
L320.508 227.664
L320.661 224.64
L321.118 224.64
L321.27 221.616
L321.423 224.64
L321.575 224.64
L321.728 221.616
L321.88 224.64
L322.338 224.64
L322.49 227.664
L322.795 221.616
L322.948 224.64
L323.1 221.616
L323.252 224.64
L323.405 221.616
L323.557 224.64
L324.472 224.64
L324.625 218.592
L324.93 218.592
L325.082 224.64
L325.234 224.64
L325.539 230.688
L325.692 227.664
L325.844 233.712
L326.454 233.712
L326.607 236.736
L326.759 236.736
L326.911 233.712
L327.064 236.736
L327.521 236.736
L327.674 233.712
L327.826 233.712
L327.979 239.76
L328.131 236.736
L328.741 236.736
L328.893 239.76
L329.046 236.736
L329.503 236.736
L329.656 239.76
L329.808 236.736
L330.266 236.736
L330.418 233.712
L330.723 233.712
L330.875 236.736
L331.638 236.736
L331.79 239.76
L331.943 233.712
L332.095 236.736
L332.4 236.736
L332.552 233.712
L332.705 233.712
L332.857 230.688
L333.315 230.688
L333.467 227.664
L333.62 230.688
L333.925 230.688
L334.077 227.664
L334.23 227.664
L334.382 224.64
L334.534 224.64
L334.687 227.664
L334.839 221.616
L334.992 203.472
L335.144 224.64
L335.297 227.664
L335.754 227.664
L335.907 203.472
L336.059 224.64
L336.211 206.496
L336.364 224.64
L336.516 224.64
L336.669 221.616
L336.821 224.64
L337.126 224.64
L337.279 227.664
L337.431 224.64
L337.584 224.64
L337.736 227.664
L337.889 224.64
L338.041 227.664
L338.193 224.64
L338.346 227.664
L338.498 224.64
L338.651 224.64
L338.803 227.664
L338.956 224.64
L339.261 224.64
L339.413 227.664
L339.718 227.664
L339.87 224.64
L340.328 224.64
L340.48 227.664
L340.633 227.664
L341.09 236.736
L341.243 236.736
L341.395 233.712
L341.548 239.76
L341.7 233.712
L341.852 236.736
L342.005 236.736
L342.157 239.76
L342.31 230.688
L342.462 233.712
L342.615 233.712
L342.767 236.736
L342.92 236.736
L343.072 233.712
L343.225 236.736
L343.377 236.736
L343.53 230.688
L343.682 233.712
L343.834 239.76
L343.987 236.736
L344.292 236.736
L344.444 233.712
L345.207 233.712
L345.359 236.736
L345.511 236.736
L345.664 230.688
L345.816 233.712
L345.969 230.688
L346.121 230.688
L346.274 227.664
L347.189 227.664
L347.341 230.688
L347.493 227.664
L347.646 227.664
L347.798 224.64
L348.256 224.64
L348.408 227.664
L348.561 227.664
L348.713 221.616
L348.866 227.664
L349.018 227.664
L349.17 224.64
L349.323 227.664
L349.475 224.64
L349.628 227.664
L349.78 224.64
L350.085 224.64
L350.238 221.616
L350.39 224.64
L350.543 224.64
L350.695 221.616
L350.848 224.64
L351 224.64
L351.152 227.664
L351.305 221.616
L351.762 221.616
L351.915 224.64
L352.067 224.64
L352.22 221.616
L352.372 224.64
L352.525 221.616
L352.83 221.616
L352.982 224.64
L353.134 224.64
L353.287 221.616
L353.439 221.616
L353.592 224.64
L353.744 221.616
L353.897 221.616
L354.049 224.64
L354.202 221.616
L354.354 221.616
L354.507 224.64
L354.659 221.616
L355.116 221.616
L355.269 224.64
L355.421 221.616
L355.574 224.64
L355.726 221.616
L355.879 221.616
L356.031 224.64
L356.336 218.592
L356.489 218.592
L356.793 224.64
L356.946 221.616
L357.708 221.616
L357.861 224.64
L358.013 221.616
L358.47 221.616
L358.623 218.592
L358.928 218.592
L359.08 221.616
L359.69 221.616
L359.843 224.64
L359.995 224.64
L360.3 218.592
L360.605 224.64
L360.757 197.424
L360.91 221.616
L361.062 218.592
L361.215 221.616
L361.367 221.616
L361.52 218.592
L361.672 221.616
L361.825 215.568
L362.13 215.568
L362.282 221.616
L362.587 221.616
L362.739 218.592
L362.892 221.616
L363.044 215.568
L363.197 221.616
L363.349 218.592
L363.502 221.616
L363.807 221.616
L363.959 218.592
L364.111 218.592
L364.264 221.616
L364.416 218.592
L364.569 221.616
L364.721 218.592
L364.874 221.616
L365.026 218.592
L365.179 218.592
L365.331 221.616
L365.484 221.616
L365.636 218.592
L365.789 221.616
L366.246 221.616
L366.398 218.592
L366.856 218.592
L367.008 221.616
L367.161 218.592
L367.313 200.448
L367.466 218.592
L367.618 215.568
L367.77 215.568
L368.075 221.616
L368.228 218.592
L368.38 221.616
L368.533 218.592
L368.838 218.592
L368.99 194.4
L369.143 218.592
L369.295 218.592
L369.905 251.856
L370.057 254.88
L370.362 254.88
L370.515 251.856
L370.667 251.856
L370.82 254.88
L370.972 251.856
L371.277 260.928
L371.43 251.856
L371.582 254.88
L371.734 251.856
L372.039 263.952
L372.192 251.856
L372.344 260.928
L372.802 260.928
L372.954 263.952
L373.107 257.904
L373.259 263.952
L373.564 251.856
L373.716 260.928
L373.869 260.928
L374.174 254.88
L374.326 260.928
L374.479 245.808
L374.631 251.856
L374.784 248.832
L374.936 251.856
L375.089 248.832
L375.241 248.832
L375.393 251.856
L375.546 248.832
L376.308 248.832
L376.461 251.856
L376.613 251.856
L376.766 248.832
L376.918 254.88
L377.07 245.808
L377.223 245.808
L377.68 236.736
L377.833 239.76
L378.138 239.76
L378.29 236.736
L378.443 236.736
L378.595 233.712
L378.748 236.736
L378.9 233.712
L379.052 233.712
L379.205 236.736
L379.357 233.712
L379.51 236.736
L379.815 230.688
L379.967 230.688
L380.12 233.712
L380.272 233.712
L380.425 230.688
L380.577 233.712
L380.73 230.688
L380.882 230.688
L381.034 233.712
L381.339 227.664
L381.492 233.712
L381.644 233.712
L381.797 230.688
L381.949 233.712
L382.102 233.712
L382.254 230.688
L382.407 233.712
L382.559 230.688
L382.711 230.688
L382.864 233.712
L383.016 230.688
L383.169 233.712
L383.474 227.664
L383.626 227.664
L384.084 245.808
L384.389 245.808
L384.541 248.832
L384.693 245.808
L384.846 245.808
L384.998 248.832
L385.151 248.832
L385.303 239.76
L385.456 251.856
L385.608 245.808
L385.913 254.88
L386.218 248.832
L386.37 248.832
L386.523 245.808
L386.675 248.832
L386.828 248.832
L386.98 251.856
L387.133 242.784
L387.285 248.832
L387.438 245.808
L387.59 248.832
L387.743 242.784
L387.895 245.808
L388.048 245.808
L388.2 242.784
L388.352 242.784
L388.657 248.832
L388.81 245.808
L389.115 245.808
L389.267 248.832
L389.725 248.832
L389.877 245.808
L390.182 251.856
L390.334 245.808
L390.487 245.808
L390.639 239.76
L390.792 242.784
L390.944 242.784
L391.097 248.832
L391.249 245.808
L391.402 248.832
L391.554 242.784
L391.707 245.808
L391.859 242.784
L392.011 248.832
L392.164 245.808
L392.316 248.832
L392.469 245.808
L393.079 245.808
L393.231 242.784
L393.384 245.808
L393.536 242.784
L393.689 242.784
L393.841 245.808
L393.993 245.808
L394.146 239.76
L394.298 245.808
L394.451 242.784
L395.213 242.784
L395.366 245.808
L395.518 245.808
L395.67 239.76
L395.823 248.832
L395.975 245.808
L396.28 245.808
L396.433 248.832
L396.585 245.808
L396.89 245.808
L397.195 239.76
L397.348 245.808
L397.5 239.76
L397.652 245.808
L397.957 245.808
L398.11 242.784
L398.262 245.808
L398.72 245.808
L398.872 242.784
L399.025 245.808
L399.177 245.808
L399.33 248.832
L399.482 245.808
L399.634 245.808
L399.787 248.832
L399.939 245.808
L400.092 248.832
L400.397 248.832
L400.549 251.856
L400.702 251.856
L400.854 248.832
L401.007 248.832
L401.159 245.808
L401.311 251.856
L401.617 245.808
L401.921 245.808
L402.074 242.784
L402.226 242.784
L402.379 248.832
L402.531 248.832
L402.684 251.856
L402.836 242.784
L402.989 245.808
L403.141 245.808
L403.293 251.856
L403.446 248.832
L403.598 248.832
L403.751 245.808
L403.903 248.832
L404.208 242.784
L404.361 242.784
L404.513 248.832
L404.666 245.808
L404.97 245.808
L405.123 242.784
L405.275 242.784
L405.428 239.76
L405.733 248.832
L405.885 242.784
L406.038 242.784
L406.19 248.832
L406.343 242.784
L406.495 245.808
L406.8 245.808
L406.952 248.832
L407.105 242.784
L407.257 245.808
L407.562 245.808
L407.715 242.784
L407.867 245.808
L408.02 239.76
L408.172 245.808
L408.325 245.808
L408.477 242.784
L408.63 245.808
L408.782 242.784
L408.934 242.784
L409.087 245.808
L409.239 242.784
L409.392 245.808
L409.697 245.808
L409.849 242.784
L410.154 242.784
L410.307 239.76
L410.459 242.784
L410.611 239.76
L410.764 245.808
L410.916 242.784
L411.069 242.784
L411.221 245.808
L411.526 239.76
L411.679 242.784
L411.984 242.784
L412.136 239.76
L412.289 242.784
L412.441 242.784
L412.593 245.808
L412.746 239.76
L413.051 245.808
L413.203 239.76
L413.661 248.832
L413.966 233.712
L414.118 245.808
L414.27 239.76
L414.423 245.808
L414.728 245.808
L414.88 239.76
L415.033 245.808
L415.49 245.808
L415.643 242.784
L415.795 245.808
L415.948 239.76
L416.252 245.808
L416.405 242.784
L416.71 242.784
L416.862 245.808
L417.015 245.808
L417.167 242.784
L417.32 242.784
L417.625 236.736
L417.777 239.76
L418.082 224.64
L418.234 221.616
L418.387 227.664
L418.539 221.616
L418.997 239.76
L419.149 236.736
L419.302 239.76
L419.454 233.712
L419.607 239.76
L419.911 239.76
L420.064 236.736
L420.216 239.76
L420.369 239.76
L420.521 236.736
L420.674 236.736
L420.826 233.712
L420.979 236.736
L421.131 233.712
L421.284 233.712
L421.436 230.688
L422.046 230.688
L422.198 227.664
L422.351 227.664
L422.503 230.688
L422.808 230.688
L423.113 224.64
L423.266 227.664
L423.57 227.664
L423.723 230.688
L423.875 230.688
L424.028 224.64
L424.18 227.664
L424.333 227.664
L424.485 224.64
L424.638 227.664
L424.79 224.64
L424.943 224.64
L425.095 227.664
L425.705 227.664
L425.857 230.688
L426.162 224.64
L426.315 227.664
L426.467 224.64
L426.62 227.664
L426.772 227.664
L426.925 221.616
L427.077 224.64
L427.382 224.64
L427.534 227.664
L427.687 224.64
L427.839 227.664
L427.992 233.712
L428.144 233.712
L428.297 239.76
L428.449 233.712
L428.602 239.76
L428.754 239.76
L428.907 236.736
L429.059 239.76
L429.364 239.76
L429.516 236.736
L429.669 242.784
L429.974 233.712
L430.431 233.712
L430.584 242.784
L430.736 236.736
L430.889 239.76
L431.651 239.76
L431.803 236.736
L431.956 239.76
L432.108 236.736
L432.261 239.76
L432.413 236.736
L432.566 239.76
L432.718 236.736
L432.87 236.736
L433.023 242.784
L433.175 236.736
L433.328 242.784
L433.48 239.76
L433.633 239.76
L433.785 245.808
L433.938 242.784
L434.09 242.784
L434.243 239.76
L434.395 245.808
L434.548 242.784
L434.7 242.784
L434.852 239.76
L435.005 242.784
L435.157 239.76
L435.31 242.784
L435.462 242.784
L435.615 239.76
L435.767 239.76
L435.92 242.784
L436.072 239.76
L436.225 245.808
L436.682 236.736
L436.834 242.784
L437.139 236.736
L437.292 239.76
L437.444 236.736
L437.597 242.784
L437.749 239.76
L438.511 239.76
L438.664 236.736
L438.816 242.784
L439.121 236.736
L439.274 239.76
L439.426 239.76
L439.579 236.736
L439.884 236.736
L440.036 239.76
L440.189 233.712
L440.493 233.712
L440.646 236.736
L441.561 236.736
L441.713 233.712
L441.866 233.712
L442.018 239.76
L442.17 239.76
L442.323 236.736
L442.475 239.76
L442.78 239.76
L442.933 236.736
L443.085 239.76
L443.39 239.76
L443.543 242.784
L443.695 239.76
L443.848 242.784
L444 242.784
L444.152 245.808
L444.305 242.784
L444.457 245.808
L444.915 245.808
L445.067 242.784
L445.22 245.808
L445.525 245.808
L445.677 242.784
L445.83 242.784
L445.982 245.808
L446.134 242.784
L446.287 245.808
L446.439 239.76
L446.592 242.784
L446.744 242.784
L446.897 245.808
L447.049 239.76
L447.354 245.808
L447.507 242.784
L447.659 242.784
L447.811 245.808
L447.964 242.784
L448.116 242.784
L448.269 239.76
L448.421 242.784
L448.574 242.784
L448.726 239.76
L449.031 239.76
L449.184 233.712
L449.336 239.76
L449.489 236.736
L449.641 236.736
L449.793 239.76
L449.946 236.736
L450.861 236.736
L451.013 239.76
L451.166 239.76
L451.318 236.736
L451.928 236.736
L452.08 233.712
L452.233 239.76
L452.538 236.736
L452.69 242.784
L452.995 242.784
L453.148 239.76
L453.452 239.76
L453.605 236.736
L453.757 236.736
L453.91 233.712
L454.062 233.712
L454.215 236.736
L454.825 236.736
L454.977 239.76
L455.739 239.76
L455.892 236.736
L456.502 236.736
L456.654 233.712
L456.807 236.736
L456.959 233.712
L457.111 233.712
L457.264 239.76
L457.416 236.736
L457.569 236.736
L457.721 233.712
L458.026 239.76
L458.179 233.712
L458.331 239.76
L458.484 233.712
L458.789 239.76
L458.941 233.712
L459.093 233.712
L459.398 239.76
L459.551 233.712
L459.703 236.736
L460.161 236.736
L460.313 233.712
L460.466 236.736
L460.618 233.712
L460.77 236.736
L460.923 233.712
L461.38 233.712
L461.533 236.736
L461.838 230.688
L462.143 236.736
L462.295 230.688
L462.6 236.736
L462.752 233.712
L463.21 233.712
L463.362 209.52
L463.515 233.712
L463.667 236.736
L463.82 236.736
L463.972 233.712
L464.125 233.712
L464.277 236.736
L464.43 233.712
L464.582 215.568
L464.887 236.736
L465.192 236.736
L465.344 233.712
L465.497 233.712
L465.649 236.736
L465.802 236.736
L465.954 233.712
L466.107 233.712
L466.259 236.736
L466.411 233.712
L466.564 233.712
L466.716 236.736
L466.869 233.712
L467.021 236.736
L467.631 236.736
L467.784 233.712
L468.089 233.712
L468.241 236.736
L468.393 236.736
L468.546 233.712
L468.698 236.736
L468.851 230.688
L469.003 236.736
L469.156 230.688
L469.308 236.736
L469.461 233.712
L469.918 233.712
L470.07 230.688
L470.223 233.712
L470.528 233.712
L470.68 236.736
L470.833 236.736
L470.985 233.712
L471.29 239.76
L471.443 236.736
L471.595 236.736
L471.748 239.76
L472.052 239.76
L472.205 242.784
L472.51 242.784
L472.662 236.736
L472.967 242.784
L473.272 236.736
L473.425 242.784
L473.577 242.784
L473.73 239.76
L473.882 239.76
L474.034 242.784
L474.187 242.784
L474.339 239.76
L474.492 245.808
L474.644 239.76
L474.797 245.808
L474.949 239.76
L475.254 245.808
L475.407 245.808
L475.559 242.784
L475.711 245.808
L476.016 245.808
L476.321 239.76
L476.626 245.808
L476.779 245.808
L476.931 242.784
L477.236 242.784
L477.541 248.832
L477.693 242.784
L477.846 245.808
L477.998 242.784
L478.151 245.808
L478.303 242.784
L478.456 245.808
L478.913 245.808
L479.066 239.76
L479.218 245.808
L479.523 245.808
L479.675 242.784
L479.828 242.784
L479.98 239.76
L480.133 239.76
L480.285 236.736
L480.59 242.784
L480.743 236.736
L480.895 239.76
L481.2 239.76
L481.352 236.736
L481.505 236.736
L481.657 239.76
L481.81 236.736
L481.962 239.76
L482.42 239.76
L482.572 233.712
L482.877 239.76
L483.03 239.76
L483.334 233.712
L483.487 236.736
L484.097 236.736
L484.249 239.76
L484.554 239.76
L484.707 236.736
L484.859 239.76
L485.011 236.736
L485.164 239.76
L485.316 236.736
L485.469 242.784
L485.621 239.76
L485.774 239.76
L485.926 236.736
L486.231 236.736
L486.536 242.784
L486.689 242.784
L486.841 239.76
L486.993 242.784
L487.451 242.784
L487.603 245.808
L487.756 242.784
L487.908 242.784
L488.061 239.76
L488.213 242.784
L488.366 239.76
L488.67 239.76
L488.823 242.784
L489.433 242.784
L489.585 245.808
L489.89 239.76
L490.043 242.784
L490.195 239.76
L490.348 245.808
L490.652 239.76
L490.805 242.784
L490.957 239.76
L491.11 239.76
L491.262 242.784
L491.415 242.784
L491.567 239.76
L491.72 242.784
L491.872 239.76
L492.025 242.784
L492.482 242.784
L492.787 236.736
L492.939 239.76
L493.092 239.76
L493.244 242.784
L493.397 239.76
L493.549 239.76
L493.702 242.784
L494.007 236.736
L494.159 236.736
L494.311 230.688
L494.464 239.76
L494.616 233.712
L495.226 233.712
L495.379 230.688
L495.531 233.712
L495.836 227.664
L495.989 233.712
L496.141 230.688
L496.293 230.688
L496.446 227.664
L496.598 233.712
L496.751 227.664
L496.903 233.712
L497.056 227.664
L497.361 227.664
L497.513 230.688
L497.666 230.688
L497.97 224.64
L498.123 230.688
L498.275 227.664
L498.58 227.664
L498.733 230.688
L498.885 230.688
L499.038 233.712
L499.19 230.688
L499.343 233.712
L499.648 227.664
L499.8 230.688
L499.952 230.688
L500.105 227.664
L500.867 227.664
L501.02 233.712
L501.477 233.712
L501.63 239.76
L501.934 239.76
L502.087 236.736
L502.544 236.736
L502.849 242.784
L503.002 239.76
L503.154 239.76
L503.307 242.784
L503.916 242.784
L504.069 239.76
L504.374 239.76
L504.526 245.808
L504.679 239.76
L504.984 239.76
L505.136 236.736
L505.441 236.736
L505.593 239.76
L505.746 245.808
L505.898 239.76
L506.051 242.784
L506.203 242.784
L506.356 239.76
L506.508 239.76
L506.661 236.736
L506.813 242.784
L506.966 236.736
L507.118 242.784
L507.27 236.736
L507.423 242.784
L507.88 233.712
L508.033 233.712
L508.185 239.76
L508.338 236.736
L508.49 230.688
L508.643 233.712
L508.795 176.256
L508.948 230.688
L509.1 230.688
L509.252 233.712
L509.405 227.664
L509.71 227.664
L509.862 230.688
L510.015 230.688
L510.167 227.664
L510.32 230.688
L510.472 227.664
L510.625 230.688
L510.777 224.64
L510.93 227.664
L511.082 224.64
L511.234 224.64
L511.539 230.688
L511.692 227.664
L511.844 230.688
L511.997 224.64
L512.149 227.664
L512.302 224.64
L512.607 224.64
L512.759 227.664
L512.911 224.64
L513.369 224.64
L513.521 227.664
L513.674 224.64
L513.826 224.64
L513.979 227.664
L514.284 227.664
L514.436 224.64
L514.589 227.664
L514.741 224.64
L514.893 224.64
L515.046 227.664
L515.198 224.64
L515.351 227.664
L515.503 233.712
L515.808 233.712
L515.961 236.736
L516.113 236.736
L516.266 242.784
L516.57 242.784
L516.723 239.76
L517.028 239.76
L517.18 236.736
L517.333 236.736
L517.638 245.808
L517.79 236.736
L517.943 242.784
L518.095 239.76
L518.248 239.76
L518.4 236.736
L518.4 236.736" style="fill:none;stroke:#0000ff;stroke-linecap:square;"/>
   </g>
   <g id="line2d_2">
    <path clip-path="url(#pcb2bf987bf)" d="
M72 88.56
L518.4 88.56" style="fill:none;stroke:#ff0000;stroke-linecap:square;"/>
   </g>
   <g id="matplotlib.axis_1">
    <g id="xtick_1">
     <g id="line2d_3">
      <path clip-path="url(#pcb2bf987bf)" d="
M115.908 345.6
L115.908 43.2" style="fill:none;stroke:#000000;stroke-dasharray:1.000000,3.000000;stroke-dashoffset:0.0;stroke-width:0.5;"/>
     </g>
     <g id="line2d_4">
      <defs>
       <path d="
M0 0
L0 -4" id="m93b0483c22" style="stroke:#000000;stroke-width:0.5;"/>
      </defs>
      <g>
       <use style="stroke:#000000;stroke-width:0.5;" x="115.908027321" xlink:href="#m93b0483c22" y="345.6"/>
      </g>
     </g>
     <g id="line2d_5">
      <defs>
       <path d="
M0 0
L0 4" id="m741efc42ff" style="stroke:#000000;stroke-width:0.5;"/>
      </defs>
      <g>
       <use style="stroke:#000000;stroke-width:0.5;" x="115.908027321" xlink:href="#m741efc42ff" y="43.2"/>
      </g>
     </g>
     <g id="text_1">
      <!-- Jun20 -->
      <defs>
       <path d="
M54.8906 33.0156
L54.8906 0
L45.9062 0
L45.9062 32.7188
Q45.9062 40.4844 42.875 44.3281
Q39.8438 48.1875 33.7969 48.1875
Q26.5156 48.1875 22.3125 43.5469
Q18.1094 38.9219 18.1094 30.9062
L18.1094 0
L9.07812 0
L9.07812 54.6875
L18.1094 54.6875
L18.1094 46.1875
Q21.3438 51.125 25.7031 53.5625
Q30.0781 56 35.7969 56
Q45.2188 56 50.0469 50.1719
Q54.8906 44.3438 54.8906 33.0156" id="BitstreamVeraSans-Roman-6e"/>
       <path d="
M19.1875 8.29688
L53.6094 8.29688
L53.6094 0
L7.32812 0
L7.32812 8.29688
Q12.9375 14.1094 22.625 23.8906
Q32.3281 33.6875 34.8125 36.5312
Q39.5469 41.8438 41.4219 45.5312
Q43.3125 49.2188 43.3125 52.7812
Q43.3125 58.5938 39.2344 62.25
Q35.1562 65.9219 28.6094 65.9219
Q23.9688 65.9219 18.8125 64.3125
Q13.6719 62.7031 7.8125 59.4219
L7.8125 69.3906
Q13.7656 71.7812 18.9375 73
Q24.125 74.2188 28.4219 74.2188
Q39.75 74.2188 46.4844 68.5469
Q53.2188 62.8906 53.2188 53.4219
Q53.2188 48.9219 51.5312 44.8906
Q49.8594 40.875 45.4062 35.4062
Q44.1875 33.9844 37.6406 27.2188
Q31.1094 20.4531 19.1875 8.29688" id="BitstreamVeraSans-Roman-32"/>
       <path d="
M31.7812 66.4062
Q24.1719 66.4062 20.3281 58.9062
Q16.5 51.4219 16.5 36.375
Q16.5 21.3906 20.3281 13.8906
Q24.1719 6.39062 31.7812 6.39062
Q39.4531 6.39062 43.2812 13.8906
Q47.125 21.3906 47.125 36.375
Q47.125 51.4219 43.2812 58.9062
Q39.4531 66.4062 31.7812 66.4062
M31.7812 74.2188
Q44.0469 74.2188 50.5156 64.5156
Q56.9844 54.8281 56.9844 36.375
Q56.9844 17.9688 50.5156 8.26562
Q44.0469 -1.42188 31.7812 -1.42188
Q19.5312 -1.42188 13.0625 8.26562
Q6.59375 17.9688 6.59375 36.375
Q6.59375 54.8281 13.0625 64.5156
Q19.5312 74.2188 31.7812 74.2188" id="BitstreamVeraSans-Roman-30"/>
       <path d="
M8.5 21.5781
L8.5 54.6875
L17.4844 54.6875
L17.4844 21.9219
Q17.4844 14.1562 20.5 10.2656
Q23.5312 6.39062 29.5938 6.39062
Q36.8594 6.39062 41.0781 11.0312
Q45.3125 15.6719 45.3125 23.6875
L45.3125 54.6875
L54.2969 54.6875
L54.2969 0
L45.3125 0
L45.3125 8.40625
Q42.0469 3.42188 37.7188 1
Q33.4062 -1.42188 27.6875 -1.42188
Q18.2656 -1.42188 13.375 4.4375
Q8.5 10.2969 8.5 21.5781" id="BitstreamVeraSans-Roman-75"/>
       <path d="
M9.8125 72.9062
L19.6719 72.9062
L19.6719 5.07812
Q19.6719 -8.10938 14.6719 -14.0625
Q9.67188 -20.0156 -1.42188 -20.0156
L-5.17188 -20.0156
L-5.17188 -11.7188
L-2.09375 -11.7188
Q4.4375 -11.7188 7.125 -8.04688
Q9.8125 -4.39062 9.8125 5.07812
z
" id="BitstreamVeraSans-Roman-4a"/>
      </defs>
      <g transform="translate(85.3506675618 374.418402885)rotate(-30.0)scale(0.12 -0.12)">
       <use xlink:href="#BitstreamVeraSans-Roman-4a"/>
       <use x="29.4921875" xlink:href="#BitstreamVeraSans-Roman-75"/>
       <use x="92.87109375" xlink:href="#BitstreamVeraSans-Roman-6e"/>
       <use x="156.25" xlink:href="#BitstreamVeraSans-Roman-32"/>
       <use x="219.873046875" xlink:href="#BitstreamVeraSans-Roman-30"/>
      </g>
     </g>
    </g>
    <g id="xtick_2">
     <g id="line2d_6">
      <path clip-path="url(#pcb2bf987bf)" d="
M218.36 345.6
L218.36 43.2" style="fill:none;stroke:#000000;stroke-dasharray:1.000000,3.000000;stroke-dashoffset:0.0;stroke-width:0.5;"/>
     </g>
     <g id="line2d_7">
      <g>
       <use style="stroke:#000000;stroke-width:0.5;" x="218.360486338" xlink:href="#m93b0483c22" y="345.6"/>
      </g>
     </g>
     <g id="line2d_8">
      <g>
       <use style="stroke:#000000;stroke-width:0.5;" x="218.360486338" xlink:href="#m741efc42ff" y="43.2"/>
      </g>
     </g>
     <g id="text_2">
      <!-- Jun27 -->
      <defs>
       <path d="
M8.20312 72.9062
L55.0781 72.9062
L55.0781 68.7031
L28.6094 0
L18.3125 0
L43.2188 64.5938
L8.20312 64.5938
z
" id="BitstreamVeraSans-Roman-37"/>
      </defs>
      <g transform="translate(188.00122989 374.304027885)rotate(-30.0)scale(0.12 -0.12)">
       <use xlink:href="#BitstreamVeraSans-Roman-4a"/>
       <use x="29.4921875" xlink:href="#BitstreamVeraSans-Roman-75"/>
       <use x="92.87109375" xlink:href="#BitstreamVeraSans-Roman-6e"/>
       <use x="156.25" xlink:href="#BitstreamVeraSans-Roman-32"/>
       <use x="219.873046875" xlink:href="#BitstreamVeraSans-Roman-37"/>
      </g>
     </g>
    </g>
    <g id="xtick_3">
     <g id="line2d_9">
      <path clip-path="url(#pcb2bf987bf)" d="
M320.813 345.6
L320.813 43.2" style="fill:none;stroke:#000000;stroke-dasharray:1.000000,3.000000;stroke-dashoffset:0.0;stroke-width:0.5;"/>
     </g>
     <g id="line2d_10">
      <g>
       <use style="stroke:#000000;stroke-width:0.5;" x="320.812945355" xlink:href="#m93b0483c22" y="345.6"/>
      </g>
     </g>
     <g id="line2d_11">
      <g>
       <use style="stroke:#000000;stroke-width:0.5;" x="320.812945355" xlink:href="#m741efc42ff" y="43.2"/>
      </g>
     </g>
     <g id="text_3">
      <!-- Jul04 -->
      <defs>
       <path d="
M37.7969 64.3125
L12.8906 25.3906
L37.7969 25.3906
z

M35.2031 72.9062
L47.6094 72.9062
L47.6094 25.3906
L58.0156 25.3906
L58.0156 17.1875
L47.6094 17.1875
L47.6094 0
L37.7969 0
L37.7969 17.1875
L4.89062 17.1875
L4.89062 26.7031
z
" id="BitstreamVeraSans-Roman-34"/>
       <path d="
M9.42188 75.9844
L18.4062 75.9844
L18.4062 0
L9.42188 0
z
" id="BitstreamVeraSans-Roman-6c"/>
      </defs>
      <g transform="translate(293.847425958 372.344652885)rotate(-30.0)scale(0.12 -0.12)">
       <use xlink:href="#BitstreamVeraSans-Roman-4a"/>
       <use x="29.4921875" xlink:href="#BitstreamVeraSans-Roman-75"/>
       <use x="92.87109375" xlink:href="#BitstreamVeraSans-Roman-6c"/>
       <use x="120.654296875" xlink:href="#BitstreamVeraSans-Roman-30"/>
       <use x="184.27734375" xlink:href="#BitstreamVeraSans-Roman-34"/>
      </g>
     </g>
    </g>
    <g id="xtick_4">
     <g id="line2d_12">
      <path clip-path="url(#pcb2bf987bf)" d="
M423.265 345.6
L423.265 43.2" style="fill:none;stroke:#000000;stroke-dasharray:1.000000,3.000000;stroke-dashoffset:0.0;stroke-width:0.5;"/>
     </g>
     <g id="line2d_13">
      <g>
       <use style="stroke:#000000;stroke-width:0.5;" x="423.26540437" xlink:href="#m93b0483c22" y="345.6"/>
      </g>
     </g>
     <g id="line2d_14">
      <g>
       <use style="stroke:#000000;stroke-width:0.5;" x="423.26540437" xlink:href="#m741efc42ff" y="43.2"/>
      </g>
     </g>
     <g id="text_4">
      <!-- Jul11 -->
      <defs>
       <path d="
M12.4062 8.29688
L28.5156 8.29688
L28.5156 63.9219
L10.9844 60.4062
L10.9844 69.3906
L28.4219 72.9062
L38.2812 72.9062
L38.2812 8.29688
L54.3906 8.29688
L54.3906 0
L12.4062 0
z
" id="BitstreamVeraSans-Roman-31"/>
      </defs>
      <g transform="translate(396.676606023 372.127152885)rotate(-30.0)scale(0.12 -0.12)">
       <use xlink:href="#BitstreamVeraSans-Roman-4a"/>
       <use x="29.4921875" xlink:href="#BitstreamVeraSans-Roman-75"/>
       <use x="92.87109375" xlink:href="#BitstreamVeraSans-Roman-6c"/>
       <use x="120.654296875" xlink:href="#BitstreamVeraSans-Roman-31"/>
       <use x="184.27734375" xlink:href="#BitstreamVeraSans-Roman-31"/>
      </g>
     </g>
    </g>
   </g>
   <g id="matplotlib.axis_2">
    <g id="ytick_1">
     <g id="line2d_15">
      <path clip-path="url(#pcb2bf987bf)" d="
M72 345.6
L518.4 345.6" style="fill:none;stroke:#000000;stroke-dasharray:1.000000,3.000000;stroke-dashoffset:0.0;stroke-width:0.5;"/>
     </g>
     <g id="line2d_16">
      <defs>
       <path d="
M0 0
L4 0" id="m728421d6d4" style="stroke:#000000;stroke-width:0.5;"/>
      </defs>
      <g>
       <use style="stroke:#000000;stroke-width:0.5;" x="72.0" xlink:href="#m728421d6d4" y="345.6"/>
      </g>
     </g>
     <g id="line2d_17">
      <defs>
       <path d="
M0 0
L-4 0" id="mcb0005524f" style="stroke:#000000;stroke-width:0.5;"/>
      </defs>
      <g>
       <use style="stroke:#000000;stroke-width:0.5;" x="518.4" xlink:href="#mcb0005524f" y="345.6"/>
      </g>
     </g>
     <g id="text_5">
      <!-- 0 -->
      <g transform="translate(61.953125 348.91125)scale(0.12 -0.12)">
       <use xlink:href="#BitstreamVeraSans-Roman-30"/>
      </g>
     </g>
    </g>
    <g id="ytick_2">
     <g id="line2d_18">
      <path clip-path="url(#pcb2bf987bf)" d="
M72 285.12
L518.4 285.12" style="fill:none;stroke:#000000;stroke-dasharray:1.000000,3.000000;stroke-dashoffset:0.0;stroke-width:0.5;"/>
     </g>
     <g id="line2d_19">
      <g>
       <use style="stroke:#000000;stroke-width:0.5;" x="72.0" xlink:href="#m728421d6d4" y="285.12"/>
      </g>
     </g>
     <g id="line2d_20">
      <g>
       <use style="stroke:#000000;stroke-width:0.5;" x="518.4" xlink:href="#mcb0005524f" y="285.12"/>
      </g>
     </g>
     <g id="text_6">
      <!-- 20 -->
      <g transform="translate(54.40625 288.43125)scale(0.12 -0.12)">
       <use xlink:href="#BitstreamVeraSans-Roman-32"/>
       <use x="63.623046875" xlink:href="#BitstreamVeraSans-Roman-30"/>
      </g>
     </g>
    </g>
    <g id="ytick_3">
     <g id="line2d_21">
      <path clip-path="url(#pcb2bf987bf)" d="
M72 224.64
L518.4 224.64" style="fill:none;stroke:#000000;stroke-dasharray:1.000000,3.000000;stroke-dashoffset:0.0;stroke-width:0.5;"/>
     </g>
     <g id="line2d_22">
      <g>
       <use style="stroke:#000000;stroke-width:0.5;" x="72.0" xlink:href="#m728421d6d4" y="224.64"/>
      </g>
     </g>
     <g id="line2d_23">
      <g>
       <use style="stroke:#000000;stroke-width:0.5;" x="518.4" xlink:href="#mcb0005524f" y="224.64"/>
      </g>
     </g>
     <g id="text_7">
      <!-- 40 -->
      <g transform="translate(54.11375 227.95125)scale(0.12 -0.12)">
       <use xlink:href="#BitstreamVeraSans-Roman-34"/>
       <use x="63.623046875" xlink:href="#BitstreamVeraSans-Roman-30"/>
      </g>
     </g>
    </g>
    <g id="ytick_4">
     <g id="line2d_24">
      <path clip-path="url(#pcb2bf987bf)" d="
M72 164.16
L518.4 164.16" style="fill:none;stroke:#000000;stroke-dasharray:1.000000,3.000000;stroke-dashoffset:0.0;stroke-width:0.5;"/>
     </g>
     <g id="line2d_25">
      <g>
       <use style="stroke:#000000;stroke-width:0.5;" x="72.0" xlink:href="#m728421d6d4" y="164.16"/>
      </g>
     </g>
     <g id="line2d_26">
      <g>
       <use style="stroke:#000000;stroke-width:0.5;" x="518.4" xlink:href="#mcb0005524f" y="164.16"/>
      </g>
     </g>
     <g id="text_8">
      <!-- 60 -->
      <defs>
       <path d="
M33.0156 40.375
Q26.375 40.375 22.4844 35.8281
Q18.6094 31.2969 18.6094 23.3906
Q18.6094 15.5312 22.4844 10.9531
Q26.375 6.39062 33.0156 6.39062
Q39.6562 6.39062 43.5312 10.9531
Q47.4062 15.5312 47.4062 23.3906
Q47.4062 31.2969 43.5312 35.8281
Q39.6562 40.375 33.0156 40.375
M52.5938 71.2969
L52.5938 62.3125
Q48.875 64.0625 45.0938 64.9844
Q41.3125 65.9219 37.5938 65.9219
Q27.8281 65.9219 22.6719 59.3281
Q17.5312 52.7344 16.7969 39.4062
Q19.6719 43.6562 24.0156 45.9219
Q28.375 48.1875 33.5938 48.1875
Q44.5781 48.1875 50.9531 41.5156
Q57.3281 34.8594 57.3281 23.3906
Q57.3281 12.1562 50.6875 5.35938
Q44.0469 -1.42188 33.0156 -1.42188
Q20.3594 -1.42188 13.6719 8.26562
Q6.98438 17.9688 6.98438 36.375
Q6.98438 53.6562 15.1875 63.9375
Q23.3906 74.2188 37.2031 74.2188
Q40.9219 74.2188 44.7031 73.4844
Q48.4844 72.75 52.5938 71.2969" id="BitstreamVeraSans-Roman-36"/>
      </defs>
      <g transform="translate(54.365 167.47125)scale(0.12 -0.12)">
       <use xlink:href="#BitstreamVeraSans-Roman-36"/>
       <use x="63.623046875" xlink:href="#BitstreamVeraSans-Roman-30"/>
      </g>
     </g>
    </g>
    <g id="ytick_5">
     <g id="line2d_27">
      <path clip-path="url(#pcb2bf987bf)" d="
M72 103.68
L518.4 103.68" style="fill:none;stroke:#000000;stroke-dasharray:1.000000,3.000000;stroke-dashoffset:0.0;stroke-width:0.5;"/>
     </g>
     <g id="line2d_28">
      <g>
       <use style="stroke:#000000;stroke-width:0.5;" x="72.0" xlink:href="#m728421d6d4" y="103.68"/>
      </g>
     </g>
     <g id="line2d_29">
      <g>
       <use style="stroke:#000000;stroke-width:0.5;" x="518.4" xlink:href="#mcb0005524f" y="103.68"/>
      </g>
     </g>
     <g id="text_9">
      <!-- 80 -->
      <defs>
       <path d="
M31.7812 34.625
Q24.75 34.625 20.7188 30.8594
Q16.7031 27.0938 16.7031 20.5156
Q16.7031 13.9219 20.7188 10.1562
Q24.75 6.39062 31.7812 6.39062
Q38.8125 6.39062 42.8594 10.1719
Q46.9219 13.9688 46.9219 20.5156
Q46.9219 27.0938 42.8906 30.8594
Q38.875 34.625 31.7812 34.625
M21.9219 38.8125
Q15.5781 40.375 12.0312 44.7188
Q8.5 49.0781 8.5 55.3281
Q8.5 64.0625 14.7188 69.1406
Q20.9531 74.2188 31.7812 74.2188
Q42.6719 74.2188 48.875 69.1406
Q55.0781 64.0625 55.0781 55.3281
Q55.0781 49.0781 51.5312 44.7188
Q48 40.375 41.7031 38.8125
Q48.8281 37.1562 52.7969 32.3125
Q56.7812 27.4844 56.7812 20.5156
Q56.7812 9.90625 50.3125 4.23438
Q43.8438 -1.42188 31.7812 -1.42188
Q19.7344 -1.42188 13.25 4.23438
Q6.78125 9.90625 6.78125 20.5156
Q6.78125 27.4844 10.7812 32.3125
Q14.7969 37.1562 21.9219 38.8125
M18.3125 54.3906
Q18.3125 48.7344 21.8438 45.5625
Q25.3906 42.3906 31.7812 42.3906
Q38.1406 42.3906 41.7188 45.5625
Q45.3125 48.7344 45.3125 54.3906
Q45.3125 60.0625 41.7188 63.2344
Q38.1406 66.4062 31.7812 66.4062
Q25.3906 66.4062 21.8438 63.2344
Q18.3125 60.0625 18.3125 54.3906" id="BitstreamVeraSans-Roman-38"/>
      </defs>
      <g transform="translate(54.340625 106.99125)scale(0.12 -0.12)">
       <use xlink:href="#BitstreamVeraSans-Roman-38"/>
       <use x="63.623046875" xlink:href="#BitstreamVeraSans-Roman-30"/>
      </g>
     </g>
    </g>
    <g id="ytick_6">
     <g id="line2d_30">
      <path clip-path="url(#pcb2bf987bf)" d="
M72 43.2
L518.4 43.2" style="fill:none;stroke:#000000;stroke-dasharray:1.000000,3.000000;stroke-dashoffset:0.0;stroke-width:0.5;"/>
     </g>
     <g id="line2d_31">
      <g>
       <use style="stroke:#000000;stroke-width:0.5;" x="72.0" xlink:href="#m728421d6d4" y="43.2"/>
      </g>
     </g>
     <g id="line2d_32">
      <g>
       <use style="stroke:#000000;stroke-width:0.5;" x="518.4" xlink:href="#mcb0005524f" y="43.2"/>
      </g>
     </g>
     <g id="text_10">
      <!-- 100 -->
      <g transform="translate(47.21 46.51125)scale(0.12 -0.12)">
       <use xlink:href="#BitstreamVeraSans-Roman-31"/>
       <use x="63.623046875" xlink:href="#BitstreamVeraSans-Roman-30"/>
       <use x="127.24609375" xlink:href="#BitstreamVeraSans-Roman-30"/>
      </g>
     </g>
    </g>
    <g id="text_11">
     <!-- temperature (C) -->
     <defs>
      <path d="
M34.2812 27.4844
Q23.3906 27.4844 19.1875 25
Q14.9844 22.5156 14.9844 16.5
Q14.9844 11.7188 18.1406 8.90625
Q21.2969 6.10938 26.7031 6.10938
Q34.1875 6.10938 38.7031 11.4062
Q43.2188 16.7031 43.2188 25.4844
L43.2188 27.4844
z

M52.2031 31.2031
L52.2031 0
L43.2188 0
L43.2188 8.29688
Q40.1406 3.32812 35.5469 0.953125
Q30.9531 -1.42188 24.3125 -1.42188
Q15.9219 -1.42188 10.9531 3.29688
Q6 8.01562 6 15.9219
Q6 25.1406 12.1719 29.8281
Q18.3594 34.5156 30.6094 34.5156
L43.2188 34.5156
L43.2188 35.4062
Q43.2188 41.6094 39.1406 45
Q35.0625 48.3906 27.6875 48.3906
Q23 48.3906 18.5469 47.2656
Q14.1094 46.1406 10.0156 43.8906
L10.0156 52.2031
Q14.9375 54.1094 19.5781 55.0469
Q24.2188 56 28.6094 56
Q40.4844 56 46.3438 49.8438
Q52.2031 43.7031 52.2031 31.2031" id="BitstreamVeraSans-Roman-61"/>
      <path id="BitstreamVeraSans-Roman-20"/>
      <path d="
M8.01562 75.875
L15.8281 75.875
Q23.1406 64.3594 26.7812 53.3125
Q30.4219 42.2812 30.4219 31.3906
Q30.4219 20.4531 26.7812 9.375
Q23.1406 -1.70312 15.8281 -13.1875
L8.01562 -13.1875
Q14.5 -2 17.7031 9.0625
Q20.9062 20.125 20.9062 31.3906
Q20.9062 42.6719 17.7031 53.6562
Q14.5 64.6562 8.01562 75.875" id="BitstreamVeraSans-Roman-29"/>
      <path d="
M52 44.1875
Q55.375 50.25 60.0625 53.125
Q64.75 56 71.0938 56
Q79.6406 56 84.2812 50.0156
Q88.9219 44.0469 88.9219 33.0156
L88.9219 0
L79.8906 0
L79.8906 32.7188
Q79.8906 40.5781 77.0938 44.375
Q74.3125 48.1875 68.6094 48.1875
Q61.625 48.1875 57.5625 43.5469
Q53.5156 38.9219 53.5156 30.9062
L53.5156 0
L44.4844 0
L44.4844 32.7188
Q44.4844 40.625 41.7031 44.4062
Q38.9219 48.1875 33.1094 48.1875
Q26.2188 48.1875 22.1562 43.5312
Q18.1094 38.875 18.1094 30.9062
L18.1094 0
L9.07812 0
L9.07812 54.6875
L18.1094 54.6875
L18.1094 46.1875
Q21.1875 51.2188 25.4844 53.6094
Q29.7812 56 35.6875 56
Q41.6562 56 45.8281 52.9688
Q50 49.9531 52 44.1875" id="BitstreamVeraSans-Roman-6d"/>
      <path d="
M64.4062 67.2812
L64.4062 56.8906
Q59.4219 61.5312 53.7812 63.8125
Q48.1406 66.1094 41.7969 66.1094
Q29.2969 66.1094 22.6562 58.4688
Q16.0156 50.8281 16.0156 36.375
Q16.0156 21.9688 22.6562 14.3281
Q29.2969 6.6875 41.7969 6.6875
Q48.1406 6.6875 53.7812 8.98438
Q59.4219 11.2812 64.4062 15.9219
L64.4062 5.60938
Q59.2344 2.09375 53.4375 0.328125
Q47.6562 -1.42188 41.2188 -1.42188
Q24.6562 -1.42188 15.125 8.70312
Q5.60938 18.8438 5.60938 36.375
Q5.60938 53.9531 15.125 64.0781
Q24.6562 74.2188 41.2188 74.2188
Q47.75 74.2188 53.5312 72.4844
Q59.3281 70.75 64.4062 67.2812" id="BitstreamVeraSans-Roman-43"/>
      <path d="
M31 75.875
Q24.4688 64.6562 21.2812 53.6562
Q18.1094 42.6719 18.1094 31.3906
Q18.1094 20.125 21.3125 9.0625
Q24.5156 -2 31 -13.1875
L23.1875 -13.1875
Q15.875 -1.70312 12.2344 9.375
Q8.59375 20.4531 8.59375 31.3906
Q8.59375 42.2812 12.2031 53.3125
Q15.8281 64.3594 23.1875 75.875
z
" id="BitstreamVeraSans-Roman-28"/>
      <path d="
M56.2031 29.5938
L56.2031 25.2031
L14.8906 25.2031
Q15.4844 15.9219 20.4844 11.0625
Q25.4844 6.20312 34.4219 6.20312
Q39.5938 6.20312 44.4531 7.46875
Q49.3125 8.73438 54.1094 11.2812
L54.1094 2.78125
Q49.2656 0.734375 44.1875 -0.34375
Q39.1094 -1.42188 33.8906 -1.42188
Q20.7969 -1.42188 13.1562 6.1875
Q5.51562 13.8125 5.51562 26.8125
Q5.51562 40.2344 12.7656 48.1094
Q20.0156 56 32.3281 56
Q43.3594 56 49.7812 48.8906
Q56.2031 41.7969 56.2031 29.5938
M47.2188 32.2344
Q47.125 39.5938 43.0938 43.9844
Q39.0625 48.3906 32.4219 48.3906
Q24.9062 48.3906 20.3906 44.1406
Q15.875 39.8906 15.1875 32.1719
z
" id="BitstreamVeraSans-Roman-65"/>
      <path d="
M18.3125 70.2188
L18.3125 54.6875
L36.8125 54.6875
L36.8125 47.7031
L18.3125 47.7031
L18.3125 18.0156
Q18.3125 11.3281 20.1406 9.42188
Q21.9688 7.51562 27.5938 7.51562
L36.8125 7.51562
L36.8125 0
L27.5938 0
Q17.1875 0 13.2344 3.875
Q9.28125 7.76562 9.28125 18.0156
L9.28125 47.7031
L2.6875 47.7031
L2.6875 54.6875
L9.28125 54.6875
L9.28125 70.2188
z
" id="BitstreamVeraSans-Roman-74"/>
      <path d="
M41.1094 46.2969
Q39.5938 47.1719 37.8125 47.5781
Q36.0312 48 33.8906 48
Q26.2656 48 22.1875 43.0469
Q18.1094 38.0938 18.1094 28.8125
L18.1094 0
L9.07812 0
L9.07812 54.6875
L18.1094 54.6875
L18.1094 46.1875
Q20.9531 51.1719 25.4844 53.5781
Q30.0312 56 36.5312 56
Q37.4531 56 38.5781 55.875
Q39.7031 55.7656 41.0625 55.5156
z
" id="BitstreamVeraSans-Roman-72"/>
      <path d="
M18.1094 8.20312
L18.1094 -20.7969
L9.07812 -20.7969
L9.07812 54.6875
L18.1094 54.6875
L18.1094 46.3906
Q20.9531 51.2656 25.2656 53.625
Q29.5938 56 35.5938 56
Q45.5625 56 51.7812 48.0938
Q58.0156 40.1875 58.0156 27.2969
Q58.0156 14.4062 51.7812 6.48438
Q45.5625 -1.42188 35.5938 -1.42188
Q29.5938 -1.42188 25.2656 0.953125
Q20.9531 3.32812 18.1094 8.20312
M48.6875 27.2969
Q48.6875 37.2031 44.6094 42.8438
Q40.5312 48.4844 33.4062 48.4844
Q26.2656 48.4844 22.1875 42.8438
Q18.1094 37.2031 18.1094 27.2969
Q18.1094 17.3906 22.1875 11.75
Q26.2656 6.10938 33.4062 6.10938
Q40.5312 6.10938 44.6094 11.75
Q48.6875 17.3906 48.6875 27.2969" id="BitstreamVeraSans-Roman-70"/>
     </defs>
     <g transform="translate(39.714375 242.37375)rotate(-90.0)scale(0.12 -0.12)">
      <use xlink:href="#BitstreamVeraSans-Roman-74"/>
      <use x="39.208984375" xlink:href="#BitstreamVeraSans-Roman-65"/>
      <use x="100.732421875" xlink:href="#BitstreamVeraSans-Roman-6d"/>
      <use x="198.14453125" xlink:href="#BitstreamVeraSans-Roman-70"/>
      <use x="261.62109375" xlink:href="#BitstreamVeraSans-Roman-65"/>
      <use x="323.14453125" xlink:href="#BitstreamVeraSans-Roman-72"/>
      <use x="364.2578125" xlink:href="#BitstreamVeraSans-Roman-61"/>
      <use x="425.537109375" xlink:href="#BitstreamVeraSans-Roman-74"/>
      <use x="464.74609375" xlink:href="#BitstreamVeraSans-Roman-75"/>
      <use x="528.125" xlink:href="#BitstreamVeraSans-Roman-72"/>
      <use x="566.98828125" xlink:href="#BitstreamVeraSans-Roman-65"/>
      <use x="628.51171875" xlink:href="#BitstreamVeraSans-Roman-20"/>
      <use x="660.298828125" xlink:href="#BitstreamVeraSans-Roman-28"/>
      <use x="699.3125" xlink:href="#BitstreamVeraSans-Roman-43"/>
      <use x="769.13671875" xlink:href="#BitstreamVeraSans-Roman-29"/>
     </g>
    </g>
   </g>
   <g id="patch_3">
    <path d="
M72 43.2
L518.4 43.2" style="fill:none;stroke:#000000;"/>
   </g>
   <g id="patch_4">
    <path d="
M518.4 345.6
L518.4 43.2" style="fill:none;stroke:#000000;"/>
   </g>
   <g id="patch_5">
    <path d="
M72 345.6
L518.4 345.6" style="fill:none;stroke:#000000;"/>
   </g>
   <g id="patch_6">
    <path d="
M72 345.6
L72 43.2" style="fill:none;stroke:#000000;"/>
   </g>
   <g id="text_12">
    <!-- CPU critical temperature -->
    <defs>
     <path d="
M19.6719 64.7969
L19.6719 37.4062
L32.0781 37.4062
Q38.9688 37.4062 42.7188 40.9688
Q46.4844 44.5312 46.4844 51.125
Q46.4844 57.6719 42.7188 61.2344
Q38.9688 64.7969 32.0781 64.7969
z

M9.8125 72.9062
L32.0781 72.9062
Q44.3438 72.9062 50.6094 67.3594
Q56.8906 61.8125 56.8906 51.125
Q56.8906 40.3281 50.6094 34.8125
Q44.3438 29.2969 32.0781 29.2969
L19.6719 29.2969
L19.6719 0
L9.8125 0
z
" id="BitstreamVeraSans-Roman-50"/>
     <path d="
M9.42188 54.6875
L18.4062 54.6875
L18.4062 0
L9.42188 0
z

M9.42188 75.9844
L18.4062 75.9844
L18.4062 64.5938
L9.42188 64.5938
z
" id="BitstreamVeraSans-Roman-69"/>
     <path d="
M8.6875 72.9062
L18.6094 72.9062
L18.6094 28.6094
Q18.6094 16.8906 22.8438 11.7344
Q27.0938 6.59375 36.625 6.59375
Q46.0938 6.59375 50.3438 11.7344
Q54.5938 16.8906 54.5938 28.6094
L54.5938 72.9062
L64.5 72.9062
L64.5 27.3906
Q64.5 13.1406 57.4375 5.85938
Q50.3906 -1.42188 36.625 -1.42188
Q22.7969 -1.42188 15.7344 5.85938
Q8.6875 13.1406 8.6875 27.3906
z
" id="BitstreamVeraSans-Roman-55"/>
     <path d="
M48.7812 52.5938
L48.7812 44.1875
Q44.9688 46.2969 41.1406 47.3438
Q37.3125 48.3906 33.4062 48.3906
Q24.6562 48.3906 19.8125 42.8438
Q14.9844 37.3125 14.9844 27.2969
Q14.9844 17.2812 19.8125 11.7344
Q24.6562 6.20312 33.4062 6.20312
Q37.3125 6.20312 41.1406 7.25
Q44.9688 8.29688 48.7812 10.4062
L48.7812 2.09375
Q45.0156 0.34375 40.9844 -0.53125
Q36.9688 -1.42188 32.4219 -1.42188
Q20.0625 -1.42188 12.7812 6.34375
Q5.51562 14.1094 5.51562 27.2969
Q5.51562 40.6719 12.8594 48.3281
Q20.2188 56 33.0156 56
Q37.1562 56 41.1094 55.1406
Q45.0625 54.2969 48.7812 52.5938" id="BitstreamVeraSans-Roman-63"/>
    </defs>
    <g style="fill:#ff0000;" transform="translate(72.0 85.536)scale(0.12 -0.12)">
     <use xlink:href="#BitstreamVeraSans-Roman-43"/>
     <use x="69.82421875" xlink:href="#BitstreamVeraSans-Roman-50"/>
     <use x="130.126953125" xlink:href="#BitstreamVeraSans-Roman-55"/>
     <use x="203.3203125" xlink:href="#BitstreamVeraSans-Roman-20"/>
     <use x="235.107421875" xlink:href="#BitstreamVeraSans-Roman-63"/>
     <use x="290.087890625" xlink:href="#BitstreamVeraSans-Roman-72"/>
     <use x="331.201171875" xlink:href="#BitstreamVeraSans-Roman-69"/>
     <use x="358.984375" xlink:href="#BitstreamVeraSans-Roman-74"/>
     <use x="398.193359375" xlink:href="#BitstreamVeraSans-Roman-69"/>
     <use x="425.9765625" xlink:href="#BitstreamVeraSans-Roman-63"/>
     <use x="480.95703125" xlink:href="#BitstreamVeraSans-Roman-61"/>
     <use x="542.236328125" xlink:href="#BitstreamVeraSans-Roman-6c"/>
     <use x="570.01953125" xlink:href="#BitstreamVeraSans-Roman-20"/>
     <use x="601.806640625" xlink:href="#BitstreamVeraSans-Roman-74"/>
     <use x="641.015625" xlink:href="#BitstreamVeraSans-Roman-65"/>
     <use x="702.5390625" xlink:href="#BitstreamVeraSans-Roman-6d"/>
     <use x="799.951171875" xlink:href="#BitstreamVeraSans-Roman-70"/>
     <use x="863.427734375" xlink:href="#BitstreamVeraSans-Roman-65"/>
     <use x="924.951171875" xlink:href="#BitstreamVeraSans-Roman-72"/>
     <use x="966.064453125" xlink:href="#BitstreamVeraSans-Roman-61"/>
     <use x="1027.34375" xlink:href="#BitstreamVeraSans-Roman-74"/>
     <use x="1066.55273438" xlink:href="#BitstreamVeraSans-Roman-75"/>
     <use x="1129.93164062" xlink:href="#BitstreamVeraSans-Roman-72"/>
     <use x="1168.79492188" xlink:href="#BitstreamVeraSans-Roman-65"/>
    </g>
   </g>
   <g id="text_13">
    <!-- node01 -->
    <defs>
     <path d="
M45.4062 46.3906
L45.4062 75.9844
L54.3906 75.9844
L54.3906 0
L45.4062 0
L45.4062 8.20312
Q42.5781 3.32812 38.25 0.953125
Q33.9375 -1.42188 27.875 -1.42188
Q17.9688 -1.42188 11.7344 6.48438
Q5.51562 14.4062 5.51562 27.2969
Q5.51562 40.1875 11.7344 48.0938
Q17.9688 56 27.875 56
Q33.9375 56 38.25 53.625
Q42.5781 51.2656 45.4062 46.3906
M14.7969 27.2969
Q14.7969 17.3906 18.875 11.75
Q22.9531 6.10938 30.0781 6.10938
Q37.2031 6.10938 41.2969 11.75
Q45.4062 17.3906 45.4062 27.2969
Q45.4062 37.2031 41.2969 42.8438
Q37.2031 48.4844 30.0781 48.4844
Q22.9531 48.4844 18.875 42.8438
Q14.7969 37.2031 14.7969 27.2969" id="BitstreamVeraSans-Roman-64"/>
     <path d="
M30.6094 48.3906
Q23.3906 48.3906 19.1875 42.75
Q14.9844 37.1094 14.9844 27.2969
Q14.9844 17.4844 19.1562 11.8438
Q23.3438 6.20312 30.6094 6.20312
Q37.7969 6.20312 41.9844 11.8594
Q46.1875 17.5312 46.1875 27.2969
Q46.1875 37.0156 41.9844 42.7031
Q37.7969 48.3906 30.6094 48.3906
M30.6094 56
Q42.3281 56 49.0156 48.375
Q55.7188 40.7656 55.7188 27.2969
Q55.7188 13.875 49.0156 6.21875
Q42.3281 -1.42188 30.6094 -1.42188
Q18.8438 -1.42188 12.1719 6.21875
Q5.51562 13.875 5.51562 27.2969
Q5.51562 40.7656 12.1719 48.375
Q18.8438 56 30.6094 56" id="BitstreamVeraSans-Roman-6f"/>
    </defs>
    <g transform="translate(269.386875 38.2)scale(0.144 -0.144)">
     <use xlink:href="#BitstreamVeraSans-Roman-6e"/>
     <use x="63.37890625" xlink:href="#BitstreamVeraSans-Roman-6f"/>
     <use x="124.560546875" xlink:href="#BitstreamVeraSans-Roman-64"/>
     <use x="188.037109375" xlink:href="#BitstreamVeraSans-Roman-65"/>
     <use x="249.560546875" xlink:href="#BitstreamVeraSans-Roman-30"/>
     <use x="313.18359375" xlink:href="#BitstreamVeraSans-Roman-31"/>
    </g>
   </g>
  </g>
 </g>
 <defs>
  <clipPath id="pcb2bf987bf">
   <rect height="302.4" width="446.4" x="72.0" y="43.2"/>
  </clipPath>
 </defs>
</svg>
