<?xml version="1.0" encoding="utf-8" standalone="no"?>
<!DOCTYPE svg PUBLIC "-//W3C//DTD SVG 1.1//EN"
  "http://www.w3.org/Graphics/SVG/1.1/DTD/svg11.dtd">
<!-- Created with matplotlib (http://matplotlib.org/) -->
<svg height="432pt" version="1.1" viewBox="0 0 576 432" width="576pt" xmlns="http://www.w3.org/2000/svg" xmlns:xlink="http://www.w3.org/1999/xlink">
 <defs>
  <style type="text/css">
*{stroke-linecap:butt;stroke-linejoin:round;}
  </style>
 </defs>
 <g id="figure_1">
  <g id="patch_1">
   <path d="
M0 432
L576 432
L576 0
L0 0
z
" style="fill:#ffffff;"/>
  </g>
  <g id="axes_1">
   <g id="patch_2">
    <path d="
M72 345.6
L518.4 345.6
L518.4 43.2
L72 43.2
z
" style="fill:#ffffff;"/>
   </g>
   <g id="line2d_1">
    <path clip-path="url(#pcb2bf987bf)" d="
M72 224.64
L72.1504 224.64
L72.3008 227.664
L73.3536 227.664
L73.504 224.64
L73.6544 227.664
L74.1057 227.664
L74.2561 224.64
L74.4065 224.64
L74.5569 227.664
L74.8577 227.664
L75.0081 221.616
L75.1585 227.664
L75.3091 224.64
L75.4593 227.664
L76.0609 227.664
L76.2113 224.64
L76.3617 224.64
L76.5121 230.688
L76.6625 227.664
L76.8129 227.664
L76.9633 230.688
L77.565 230.688
L77.7154 227.664
L77.8658 233.712
L78.0162 230.688
L78.317 230.688
L78.4674 233.712
L78.6178 230.688
L78.7682 233.712
L79.069 233.712
L79.2194 230.688
L79.821 230.688
L80.2722 239.76
L80.4226 236.736
L80.573 239.76
L80.7235 236.736
L81.0243 236.736
L81.1747 233.712
L81.3251 233.712
L81.4755 239.76
L81.7763 233.712
L81.9267 236.736
L82.0771 236.736
L82.2275 239.76
L82.3779 239.76
L82.5283 236.736
L82.8291 236.736
L82.9795 233.712
L83.1299 236.736
L83.2803 230.688
L83.5811 236.736
L83.7315 236.736
L83.8819 239.76
L84.0323 233.712
L84.7844 233.712
L84.9348 230.688
L85.0852 233.712
L85.2356 230.688
L85.386 233.712
L85.5364 230.688
L85.6868 236.736
L85.8372 227.664
L86.138 233.712
L86.4388 233.712
L86.5892 230.688
L86.7396 233.712
L86.89 230.688
L87.0404 230.688
L87.1908 233.712
L87.3412 233.712
L87.4916 230.688
L87.642 233.712
L87.9429 233.712
L88.0933 230.688
L88.2437 233.712
L88.3941 230.688
L88.5445 233.712
L89.2965 233.712
L89.4469 230.688
L89.5973 233.712
L89.7477 233.712
L89.8981 230.688
L90.0485 233.712
L90.9509 233.712
L91.1013 236.736
L91.2518 236.736
L91.4022 239.76
L91.5526 236.736
L91.703 239.76
L91.8534 236.736
L92.3046 236.736
L92.455 239.76
L92.7558 239.76
L92.9062 236.736
L93.0566 239.76
L93.207 236.736
L93.3574 239.76
L93.5078 236.736
L94.2598 236.736
L94.4102 233.712
L94.5606 236.736
L94.8615 236.736
L95.0119 233.712
L95.1623 236.736
L95.4631 236.736
L95.6135 233.712
L95.7639 233.712
L95.9143 236.736
L96.0647 236.736
L96.2151 239.76
L96.3655 236.736
L96.5159 239.76
L96.6663 236.736
L96.8167 239.76
L96.9671 239.76
L97.2679 230.688
L97.4183 233.712
L97.7191 233.712
L97.8695 230.688
L98.0199 233.712
L98.1704 230.688
L98.3208 233.712
L98.4712 227.664
L98.6216 230.688
L98.772 224.64
L99.0728 230.688
L99.524 230.688
L99.6744 227.664
L100.276 227.664
L100.426 224.64
L100.727 230.688
L101.329 230.688
L101.479 227.664
L101.63 230.688
L101.78 230.688
L102.081 224.64
L102.231 230.688
L102.532 230.688
L102.682 224.64
L102.833 230.688
L102.983 230.688
L103.134 227.664
L103.585 227.664
L103.735 230.688
L104.036 224.64
L104.337 230.688
L104.487 224.64
L104.788 230.688
L104.939 227.664
L105.239 233.712
L105.39 230.688
L105.54 230.688
L105.691 236.736
L105.841 236.736
L106.142 230.688
L106.292 233.712
L106.593 233.712
L106.743 230.688
L106.894 233.712
L107.044 233.712
L107.195 236.736
L107.345 230.688
L107.495 233.712
L107.646 233.712
L107.796 230.688
L107.947 233.712
L108.097 230.688
L108.849 230.688
L108.999 233.712
L109.15 230.688
L109.3 233.712
L109.451 230.688
L109.601 230.688
L109.752 233.712
L109.902 233.712
L110.203 227.664
L110.353 230.688
L110.504 230.688
L110.654 227.664
L110.804 227.664
L110.955 230.688
L111.256 230.688
L111.406 227.664
L111.556 230.688
L111.707 221.616
L112.008 230.688
L112.158 227.664
L112.308 233.712
L112.459 233.712
L112.609 227.664
L112.91 227.664
L113.06 230.688
L113.211 227.664
L113.361 230.688
L113.512 227.664
L113.662 227.664
L113.812 224.64
L113.963 230.688
L114.113 221.616
L114.264 227.664
L115.166 227.664
L115.316 224.64
L115.467 227.664
L115.768 227.664
L115.918 230.688
L116.068 227.664
L116.219 227.664
L116.52 233.712
L116.67 230.688
L116.971 230.688
L117.121 224.64
L117.272 230.688
L117.422 224.64
L117.573 233.712
L117.723 227.664
L118.024 227.664
L118.174 230.688
L118.625 230.688
L118.776 227.664
L118.926 233.712
L119.077 230.688
L119.528 230.688
L119.678 227.664
L119.979 233.712
L120.129 230.688
L120.28 236.736
L120.43 233.712
L120.581 236.736
L120.731 236.736
L120.881 233.712
L121.032 236.736
L121.182 233.712
L121.483 233.712
L121.633 230.688
L121.784 236.736
L121.934 233.712
L122.085 233.712
L122.235 236.736
L122.385 236.736
L122.536 230.688
L122.686 233.712
L122.987 233.712
L123.137 236.736
L123.438 236.736
L123.589 233.712
L123.739 233.712
L123.889 236.736
L124.19 230.688
L124.491 236.736
L124.642 230.688
L124.792 233.712
L125.694 233.712
L125.845 227.664
L125.995 233.712
L126.296 233.712
L126.446 230.688
L126.747 230.688
L126.898 227.664
L127.198 227.664
L127.349 230.688
L127.499 227.664
L129.304 227.664
L129.454 224.64
L129.755 224.64
L129.906 227.664
L130.206 227.664
L130.357 224.64
L130.507 224.64
L130.658 227.664
L130.808 227.664
L130.958 224.64
L131.56 224.64
L131.711 227.664
L131.861 224.64
L132.011 224.64
L132.162 227.664
L132.312 224.64
L132.463 227.664
L133.515 227.664
L133.666 224.64
L133.816 227.664
L133.967 227.664
L134.117 230.688
L134.267 230.688
L134.418 233.712
L134.568 230.688
L134.719 233.712
L134.869 233.712
L135.019 230.688
L135.17 233.712
L135.471 233.712
L135.621 230.688
L135.771 233.712
L135.922 230.688
L136.674 230.688
L136.824 233.712
L136.975 233.712
L137.125 230.688
L137.426 230.688
L137.576 233.712
L137.727 227.664
L137.877 233.712
L138.178 233.712
L138.328 230.688
L138.479 233.712
L138.78 233.712
L138.93 236.736
L139.08 227.664
L139.231 230.688
L139.532 230.688
L139.682 227.664
L139.983 233.712
L140.133 230.688
L140.284 230.688
L140.434 233.712
L140.584 230.688
L140.735 233.712
L141.036 233.712
L141.186 230.688
L141.337 230.688
L141.487 227.664
L141.637 230.688
L141.788 227.664
L142.389 227.664
L142.54 230.688
L142.69 227.664
L142.84 227.664
L142.991 224.64
L143.141 227.664
L143.292 224.64
L143.442 227.664
L143.592 224.64
L143.743 227.664
L143.893 224.64
L144.044 227.664
L144.194 227.664
L144.344 224.64
L144.495 227.664
L144.645 224.64
L144.946 224.64
L145.096 227.664
L145.247 224.64
L145.548 224.64
L145.698 227.664
L145.849 227.664
L145.999 224.64
L146.149 230.688
L146.3 227.664
L146.45 227.664
L146.601 230.688
L146.751 227.664
L147.653 227.664
L147.804 230.688
L147.954 227.664
L148.405 227.664
L148.556 224.64
L148.706 227.664
L148.857 227.664
L149.007 224.64
L149.157 227.664
L149.308 224.64
L149.458 227.664
L149.609 233.712
L149.759 230.688
L149.909 236.736
L150.21 230.688
L150.361 230.688
L150.511 224.64
L150.661 230.688
L150.812 227.664
L150.962 230.688
L151.113 230.688
L151.263 227.664
L151.413 227.664
L151.564 224.64
L151.714 230.688
L152.015 230.688
L152.165 227.664
L152.316 227.664
L152.466 224.64
L152.617 230.688
L153.97 230.688
L154.121 233.712
L154.271 227.664
L154.422 227.664
L154.572 224.64
L154.722 227.664
L154.873 224.64
L155.023 224.64
L155.174 230.688
L155.474 221.616
L155.775 221.616
L155.926 224.64
L156.076 221.616
L156.227 227.664
L156.377 224.64
L156.527 224.64
L156.678 221.616
L157.129 221.616
L157.279 224.64
L158.482 224.64
L158.633 227.664
L158.934 221.616
L159.084 221.616
L159.235 227.664
L159.535 221.616
L159.686 224.64
L159.836 221.616
L159.987 227.664
L160.137 224.64
L160.287 227.664
L160.889 227.664
L161.039 230.688
L161.34 224.64
L161.491 227.664
L161.791 227.664
L161.942 224.64
L162.092 227.664
L162.543 227.664
L162.694 224.64
L162.844 230.688
L163.145 224.64
L163.295 227.664
L163.596 227.664
L163.747 224.64
L163.897 227.664
L164.047 224.64
L164.198 227.664
L164.799 227.664
L164.95 224.64
L165.251 224.64
L165.401 227.664
L165.551 221.616
L165.702 224.64
L165.852 224.64
L166.003 221.616
L166.153 224.64
L166.304 221.616
L166.454 224.64
L166.604 218.592
L166.755 221.616
L166.905 218.592
L167.056 224.64
L167.356 218.592
L167.507 224.64
L167.657 221.616
L167.808 227.664
L167.958 224.64
L168.108 227.664
L168.259 221.616
L168.409 224.64
L168.56 221.616
L168.71 221.616
L168.86 215.568
L169.011 224.64
L169.312 218.592
L169.462 221.616
L169.612 221.616
L169.763 224.64
L169.913 221.616
L170.064 224.64
L170.365 224.64
L170.515 221.616
L170.665 224.64
L171.116 224.64
L171.267 227.664
L171.417 224.64
L171.718 224.64
L171.868 221.616
L172.019 221.616
L172.169 224.64
L172.32 221.616
L172.62 227.664
L172.921 227.664
L173.072 224.64
L173.222 227.664
L173.373 224.64
L173.523 227.664
L173.673 224.64
L174.877 224.64
L175.027 227.664
L175.328 227.664
L175.478 221.616
L175.779 227.664
L175.929 224.64
L176.08 227.664
L176.23 224.64
L176.531 224.64
L176.681 227.664
L176.832 227.664
L176.982 224.64
L177.133 227.664
L177.283 227.664
L177.433 224.64
L177.734 230.688
L177.885 227.664
L178.035 230.688
L178.336 230.688
L178.486 233.712
L179.088 233.712
L179.238 230.688
L179.389 233.712
L179.539 230.688
L179.689 233.712
L179.84 227.664
L179.99 233.712
L180.291 233.712
L180.442 230.688
L180.592 230.688
L180.742 233.712
L181.194 233.712
L181.344 230.688
L181.494 230.688
L181.645 227.664
L181.795 230.688
L182.096 230.688
L182.246 233.712
L182.397 233.712
L182.547 227.664
L182.698 233.712
L183.149 233.712
L183.299 230.688
L183.45 230.688
L183.6 227.664
L183.75 233.712
L183.901 230.688
L184.051 230.688
L184.202 233.712
L184.352 233.712
L184.502 230.688
L184.653 233.712
L184.803 230.688
L184.954 230.688
L185.104 233.712
L185.405 233.712
L185.555 230.688
L185.856 230.688
L186.006 227.664
L186.157 233.712
L186.307 224.64
L186.458 230.688
L186.608 224.64
L186.758 227.664
L187.059 227.664
L187.21 230.688
L187.36 227.664
L187.962 227.664
L188.112 224.64
L188.263 230.688
L188.563 224.64
L188.714 227.664
L189.315 227.664
L189.466 230.688
L189.616 227.664
L189.767 230.688
L189.917 227.664
L190.067 230.688
L190.218 227.664
L190.819 227.664
L190.97 224.64
L191.12 230.688
L191.271 227.664
L191.421 227.664
L191.571 230.688
L191.722 227.664
L191.872 227.664
L192.023 230.688
L192.173 230.688
L192.323 227.664
L192.624 233.712
L193.075 233.712
L193.226 230.688
L193.376 230.688
L193.527 236.736
L193.827 236.736
L193.978 233.712
L194.279 233.712
L194.429 236.736
L194.58 233.712
L194.73 233.712
L194.88 230.688
L195.332 230.688
L195.482 233.712
L195.632 233.712
L195.783 227.664
L195.933 233.712
L196.084 233.712
L196.234 230.688
L196.384 233.712
L196.535 233.712
L196.685 230.688
L196.836 230.688
L196.986 233.712
L197.136 230.688
L197.287 230.688
L197.437 233.712
L197.588 230.688
L197.738 233.712
L199.092 233.712
L199.242 230.688
L199.392 233.712
L199.543 227.664
L199.693 230.688
L199.994 224.64
L200.144 224.64
L200.295 227.664
L200.596 227.664
L200.746 224.64
L201.047 230.688
L201.197 230.688
L201.348 227.664
L201.498 230.688
L201.649 227.664
L201.799 230.688
L201.949 227.664
L203.604 227.664
L203.754 224.64
L203.905 227.664
L204.807 227.664
L204.957 224.64
L205.108 224.64
L205.258 227.664
L205.409 224.64
L205.709 230.688
L205.86 227.664
L206.311 227.664
L206.612 233.712
L206.913 227.664
L207.063 230.688
L207.213 230.688
L207.364 233.712
L207.514 230.688
L207.665 236.736
L207.965 230.688
L208.116 233.712
L208.417 233.712
L208.567 227.664
L208.868 233.712
L209.62 233.712
L209.77 230.688
L209.921 233.712
L210.222 233.712
L210.372 230.688
L210.673 230.688
L210.823 233.712
L210.974 233.712
L211.124 227.664
L211.274 230.688
L211.726 230.688
L211.876 224.64
L212.026 233.712
L212.177 233.712
L212.327 230.688
L212.478 233.712
L212.628 233.712
L212.778 230.688
L213.079 230.688
L213.23 227.664
L213.38 233.712
L213.681 227.664
L214.282 227.664
L214.433 224.64
L214.583 227.664
L214.734 224.64
L214.884 224.64
L215.035 221.616
L215.185 227.664
L215.335 227.664
L215.486 224.64
L215.636 227.664
L215.787 227.664
L215.937 224.64
L216.087 227.664
L216.99 227.664
L217.14 221.616
L217.441 227.664
L217.591 224.64
L217.742 227.664
L217.892 227.664
L218.043 224.64
L218.193 227.664
L218.795 227.664
L218.945 230.688
L219.095 227.664
L219.246 227.664
L219.396 224.64
L219.547 227.664
L219.697 227.664
L219.847 224.64
L219.998 230.688
L220.148 224.64
L220.449 230.688
L220.599 227.664
L220.75 230.688
L220.9 230.688
L221.051 227.664
L221.201 230.688
L222.104 230.688
L222.254 233.712
L222.404 230.688
L222.555 233.712
L222.705 233.712
L222.856 230.688
L223.006 230.688
L223.156 233.712
L223.307 230.688
L223.457 230.688
L223.608 233.712
L223.758 233.712
L223.908 230.688
L224.059 230.688
L224.209 233.712
L224.36 230.688
L224.51 233.712
L224.961 233.712
L225.112 227.664
L225.412 233.712
L225.563 230.688
L225.864 230.688
L226.014 227.664
L226.164 230.688
L226.315 230.688
L226.465 233.712
L226.616 233.712
L226.766 230.688
L227.217 230.688
L227.368 233.712
L227.518 230.688
L228.42 230.688
L228.571 224.64
L228.872 230.688
L229.173 230.688
L229.323 227.664
L229.473 230.688
L229.624 227.664
L229.774 230.688
L229.925 224.64
L230.225 224.64
L230.376 230.688
L230.526 227.664
L230.677 227.664
L230.827 224.64
L230.978 224.64
L231.128 227.664
L231.278 224.64
L231.429 227.664
L231.579 224.64
L231.729 227.664
L232.03 227.664
L232.181 224.64
L232.331 224.64
L232.481 230.688
L232.632 227.664
L232.782 227.664
L232.933 224.64
L233.534 224.64
L233.685 227.664
L233.835 224.64
L233.985 227.664
L235.189 227.664
L235.339 230.688
L235.489 230.688
L235.64 233.712
L235.79 230.688
L235.941 233.712
L236.242 233.712
L236.542 227.664
L236.843 233.712
L236.994 230.688
L237.144 230.688
L237.294 233.712
L237.445 230.688
L237.896 230.688
L238.046 227.664
L238.197 233.712
L238.498 233.712
L238.648 230.688
L238.798 230.688
L238.949 227.664
L239.099 233.712
L239.25 230.688
L239.851 230.688
L240.002 227.664
L240.302 233.712
L240.453 227.664
L240.603 227.664
L240.754 230.688
L241.054 230.688
L241.205 233.712
L241.355 227.664
L241.506 233.712
L241.656 230.688
L242.258 230.688
L242.408 227.664
L242.709 227.664
L242.859 230.688
L243.01 227.664
L243.16 227.664
L243.311 230.688
L243.461 224.64
L243.611 227.664
L244.514 227.664
L244.664 224.64
L244.965 224.64
L245.115 227.664
L245.266 224.64
L245.416 227.664
L245.567 227.664
L245.717 224.64
L245.867 224.64
L246.018 227.664
L246.168 224.64
L246.319 227.664
L246.619 227.664
L246.77 224.64
L247.522 224.64
L247.672 221.616
L247.973 227.664
L248.274 221.616
L248.424 224.64
L248.575 224.64
L248.725 227.664
L248.875 227.664
L249.026 224.64
L249.477 224.64
L249.627 227.664
L249.928 227.664
L250.079 224.64
L250.38 224.64
L250.53 230.688
L250.68 227.664
L250.831 230.688
L250.981 230.688
L251.132 227.664
L251.282 230.688
L251.733 230.688
L251.884 227.664
L252.034 230.688
L252.184 230.688
L252.335 227.664
L252.485 230.688
L252.636 230.688
L252.786 227.664
L252.936 227.664
L253.087 233.712
L253.237 227.664
L253.388 230.688
L253.538 227.664
L253.989 227.664
L254.14 230.688
L254.29 227.664
L254.44 227.664
L254.591 230.688
L254.741 230.688
L254.892 233.712
L255.042 230.688
L255.493 230.688
L255.644 227.664
L255.794 227.664
L255.944 224.64
L256.095 227.664
L256.396 227.664
L256.546 224.64
L256.696 227.664
L256.847 224.64
L257.298 224.64
L257.449 227.664
L257.599 224.64
L257.749 224.64
L257.9 221.616
L258.05 224.64
L258.351 224.64
L258.501 227.664
L258.652 224.64
L259.103 224.64
L259.253 227.664
L259.404 224.64
L259.554 227.664
L259.855 227.664
L260.005 224.64
L260.156 224.64
L260.306 227.664
L260.457 224.64
L260.607 224.64
L260.757 227.664
L260.908 224.64
L261.359 224.64
L261.509 227.664
L261.66 224.64
L261.961 224.64
L262.111 227.664
L262.261 227.664
L262.412 224.64
L262.562 227.664
L263.013 227.664
L263.164 224.64
L263.314 203.472
L263.465 224.64
L263.615 224.64
L263.765 227.664
L263.916 224.64
L264.668 224.64
L264.818 227.664
L265.119 221.616
L265.27 224.64
L265.42 224.64
L265.57 221.616
L265.721 221.616
L265.871 227.664
L266.022 227.664
L266.322 221.616
L266.623 227.664
L266.774 224.64
L266.924 227.664
L267.225 221.616
L267.375 221.616
L267.526 218.592
L267.676 221.616
L267.826 221.616
L267.977 218.592
L268.428 218.592
L268.578 221.616
L269.03 221.616
L269.18 218.592
L269.33 221.616
L269.481 221.616
L269.631 218.592
L269.782 221.616
L270.082 221.616
L270.233 215.568
L270.383 224.64
L270.534 218.592
L270.684 221.616
L271.135 221.616
L271.286 224.64
L271.436 221.616
L272.038 221.616
L272.188 224.64
L272.339 224.64
L272.489 221.616
L272.639 224.64
L272.94 224.64
L273.091 221.616
L273.241 221.616
L273.391 224.64
L273.542 221.616
L273.692 224.64
L273.843 221.616
L273.993 224.64
L274.143 224.64
L274.294 221.616
L274.444 221.616
L274.595 224.64
L274.745 224.64
L274.895 221.616
L275.196 221.616
L275.347 224.64
L275.497 221.616
L275.647 224.64
L275.798 224.64
L275.948 221.616
L276.099 224.64
L276.249 224.64
L276.399 221.616
L276.7 221.616
L276.851 224.64
L277.001 221.616
L277.151 224.64
L278.054 224.64
L278.204 221.616
L278.355 221.616
L278.656 227.664
L278.956 227.664
L279.107 230.688
L279.257 230.688
L279.408 233.712
L279.558 230.688
L279.708 230.688
L279.859 227.664
L280.009 230.688
L280.16 230.688
L280.31 233.712
L280.46 230.688
L281.212 230.688
L281.363 233.712
L281.513 233.712
L281.664 230.688
L281.814 230.688
L281.964 233.712
L282.115 230.688
L282.265 233.712
L282.416 230.688
L282.566 230.688
L282.716 236.736
L282.867 236.736
L283.318 245.808
L283.468 239.76
L283.619 239.76
L283.769 242.784
L283.92 242.784
L284.07 239.76
L284.22 245.808
L284.672 245.808
L284.822 242.784
L284.973 245.808
L285.123 245.808
L285.273 248.832
L285.424 245.808
L285.574 248.832
L285.725 248.832
L285.875 242.784
L286.025 245.808
L286.176 242.784
L286.326 245.808
L286.477 242.784
L286.627 245.808
L286.777 239.76
L287.078 239.76
L287.229 242.784
L287.379 236.736
L287.529 239.76
L287.68 236.736
L287.83 239.76
L287.981 236.736
L288.131 239.76
L288.281 236.736
L288.432 236.736
L288.582 233.712
L288.733 236.736
L288.883 233.712
L289.033 236.736
L289.184 236.736
L289.334 233.712
L290.086 233.712
L290.237 236.736
L290.387 236.736
L290.537 233.712
L290.688 233.712
L290.838 236.736
L291.289 236.736
L291.44 230.688
L291.59 236.736
L291.741 233.712
L292.042 233.712
L292.192 230.688
L292.342 233.712
L292.493 233.712
L292.643 230.688
L292.794 233.712
L292.944 227.664
L293.245 239.76
L293.395 239.76
L293.546 242.784
L293.696 242.784
L293.846 239.76
L293.997 245.808
L294.147 242.784
L294.298 245.808
L295.2 245.808
L295.35 248.832
L295.501 245.808
L295.651 245.808
L295.802 248.832
L295.952 245.808
L296.102 248.832
L296.403 248.832
L296.554 245.808
L296.704 245.808
L296.854 248.832
L297.005 248.832
L297.155 239.76
L297.306 248.832
L297.456 245.808
L297.606 248.832
L298.058 248.832
L298.208 245.808
L298.358 248.832
L298.509 248.832
L298.659 245.808
L298.81 248.832
L298.96 248.832
L299.111 245.808
L299.261 251.856
L299.411 245.808
L299.562 245.808
L299.712 251.856
L299.863 248.832
L300.013 248.832
L300.163 245.808
L300.314 248.832
L300.615 248.832
L300.765 245.808
L300.915 239.76
L301.066 242.784
L301.818 242.784
L301.968 239.76
L302.119 242.784
L302.269 242.784
L302.419 239.76
L302.57 239.76
L302.72 236.736
L302.871 239.76
L303.171 239.76
L303.322 236.736
L303.472 239.76
L303.923 239.76
L304.074 236.736
L304.224 239.76
L304.525 239.76
L304.675 236.736
L304.826 239.76
L304.976 236.736
L305.127 236.736
L305.277 239.76
L305.427 239.76
L305.578 236.736
L305.728 236.736
L305.879 233.712
L306.029 236.736
L306.18 236.736
L306.33 239.76
L306.932 239.76
L307.082 236.736
L307.232 236.736
L307.383 209.52
L307.533 242.784
L307.684 245.808
L308.135 245.808
L308.285 248.832
L309.037 248.832
L309.188 245.808
L309.338 248.832
L309.789 248.832
L309.94 245.808
L310.541 245.808
L310.692 248.832
L310.992 248.832
L311.143 245.808
L311.293 245.808
L311.444 248.832
L312.196 248.832
L312.346 245.808
L312.496 245.808
L312.647 248.832
L312.797 245.808
L313.098 245.808
L313.249 242.784
L313.399 245.808
L313.549 245.808
L313.7 242.784
L314.151 242.784
L314.301 245.808
L314.452 242.784
L314.602 245.808
L314.753 239.76
L314.903 242.784
L315.053 239.76
L315.505 239.76
L315.655 236.736
L315.805 239.76
L315.956 236.736
L317.46 236.736
L317.61 233.712
L317.761 233.712
L317.911 236.736
L318.061 233.712
L318.212 236.736
L318.362 236.736
L318.513 233.712
L318.813 233.712
L318.964 230.688
L319.114 233.712
L319.265 227.664
L319.415 233.712
L320.017 233.712
L320.167 230.688
L320.318 233.712
L321.07 233.712
L321.22 230.688
L321.37 230.688
L321.521 233.712
L321.822 233.712
L321.972 236.736
L322.122 236.736
L322.273 239.76
L322.423 239.76
L322.574 242.784
L322.874 236.736
L323.025 242.784
L323.175 239.76
L323.326 242.784
L324.228 242.784
L324.378 239.76
L324.83 239.76
L324.98 242.784
L325.431 242.784
L325.582 236.736
L325.732 245.808
L325.882 245.808
L326.033 242.784
L326.183 245.808
L326.484 245.808
L326.635 242.784
L326.785 242.784
L326.935 239.76
L327.086 242.784
L327.236 242.784
L327.387 239.76
L327.537 239.76
L327.838 245.808
L327.988 239.76
L328.289 245.808
L328.439 239.76
L328.59 245.808
L328.891 245.808
L329.041 242.784
L329.191 242.784
L329.342 239.76
L329.643 239.76
L329.793 236.736
L329.943 239.76
L330.094 233.712
L330.244 236.736
L330.545 236.736
L330.695 233.712
L330.846 236.736
L330.996 233.712
L331.147 236.736
L331.598 236.736
L331.748 233.712
L332.35 233.712
L332.5 230.688
L332.651 230.688
L332.801 233.712
L333.403 233.712
L333.553 236.736
L333.704 230.688
L333.854 233.712
L334.004 230.688
L334.456 230.688
L334.606 236.736
L334.756 233.712
L335.208 233.712
L335.358 230.688
L335.508 233.712
L336.411 233.712
L336.561 239.76
L336.712 239.76
L336.862 242.784
L337.012 239.76
L337.163 245.808
L337.313 239.76
L337.464 245.808
L337.614 239.76
L337.764 242.784
L337.915 239.76
L338.065 239.76
L338.216 245.808
L338.366 239.76
L338.516 242.784
L338.667 242.784
L338.817 239.76
L338.968 239.76
L339.118 242.784
L339.268 239.76
L339.419 242.784
L339.569 242.784
L339.72 245.808
L339.87 245.808
L340.02 242.784
L340.171 242.784
L340.321 239.76
L340.622 245.808
L340.923 245.808
L341.073 242.784
L341.224 242.784
L341.374 239.76
L341.525 245.808
L341.675 239.76
L341.976 245.808
L342.126 242.784
L342.277 242.784
L342.427 236.736
L342.577 245.808
L342.728 239.76
L342.878 242.784
L343.029 242.784
L343.179 245.808
L343.48 239.76
L343.63 242.784
L343.781 242.784
L343.931 239.76
L344.382 239.76
L344.533 233.712
L344.683 236.736
L345.285 236.736
L345.435 233.712
L345.585 236.736
L345.736 236.736
L345.886 233.712
L346.187 233.712
L346.337 230.688
L346.488 230.688
L346.638 233.712
L346.789 230.688
L346.939 230.688
L347.089 233.712
L347.541 233.712
L347.691 230.688
L347.842 233.712
L348.443 233.712
L348.594 230.688
L348.744 233.712
L348.894 233.712
L349.045 230.688
L349.195 233.712
L349.346 233.712
L349.496 230.688
L349.646 233.712
L350.85 233.712
L351 230.688
L351.15 230.688
L351.301 233.712
L351.451 233.712
L351.902 242.784
L352.053 242.784
L352.203 245.808
L352.354 242.784
L352.805 242.784
L352.955 245.808
L353.106 245.808
L353.256 239.76
L353.406 248.832
L353.557 242.784
L354.008 242.784
L354.158 245.808
L354.61 245.808
L354.76 242.784
L355.813 242.784
L355.963 239.76
L356.114 242.784
L356.565 242.784
L356.866 236.736
L357.016 239.76
L357.167 233.712
L357.317 236.736
L357.467 236.736
L357.618 233.712
L357.768 233.712
L357.919 236.736
L358.219 236.736
L358.37 233.712
L358.821 233.712
L358.971 227.664
L359.122 236.736
L359.272 233.712
L359.423 233.712
L359.573 230.688
L359.723 230.688
L359.874 233.712
L360.024 233.712
L360.175 230.688
L360.475 230.688
L360.626 233.712
L360.776 224.64
L361.077 233.712
L361.227 233.712
L361.378 230.688
L361.679 230.688
L361.829 233.712
L362.28 233.712
L362.431 230.688
L362.581 233.712
L362.882 227.664
L363.032 230.688
L363.183 230.688
L363.333 233.712
L363.484 230.688
L363.935 230.688
L364.085 227.664
L364.236 230.688
L364.386 230.688
L364.536 227.664
L364.988 227.664
L365.138 230.688
L365.288 230.688
L365.589 224.64
L365.74 230.688
L365.89 227.664
L366.04 227.664
L366.191 230.688
L366.341 227.664
L366.492 227.664
L366.642 233.712
L366.792 227.664
L366.943 230.688
L367.093 230.688
L367.244 224.64
L367.544 230.688
L367.695 224.64
L367.996 230.688
L368.146 230.688
L368.296 227.664
L368.447 230.688
L368.597 224.64
L368.748 230.688
L368.898 227.664
L369.049 230.688
L369.199 227.664
L369.349 230.688
L369.5 227.664
L369.65 230.688
L369.801 230.688
L369.951 227.664
L370.553 227.664
L370.703 224.64
L370.853 227.664
L371.004 227.664
L371.154 230.688
L371.455 230.688
L371.606 227.664
L371.756 227.664
L371.906 230.688
L372.057 224.64
L372.207 227.664
L372.357 227.664
L372.508 224.64
L372.658 227.664
L372.809 227.664
L372.959 230.688
L373.109 227.664
L373.26 230.688
L373.41 224.64
L373.711 230.688
L373.861 227.664
L374.012 227.664
L374.313 221.616
L374.463 227.664
L375.065 227.664
L375.215 224.64
L375.365 230.688
L375.666 224.64
L375.817 227.664
L376.87 227.664
L377.02 224.64
L377.17 227.664
L377.321 224.64
L377.471 227.664
L378.223 227.664
L378.374 224.64
L378.524 227.664
L379.126 227.664
L379.276 224.64
L379.426 227.664
L379.577 227.664
L380.028 251.856
L380.329 251.856
L380.479 254.88
L380.78 254.88
L380.93 257.904
L381.081 257.904
L381.231 254.88
L381.682 254.88
L381.833 257.904
L381.983 254.88
L382.134 248.832
L382.435 257.904
L382.735 251.856
L382.886 254.88
L383.036 248.832
L383.187 251.856
L383.788 251.856
L383.939 248.832
L384.089 251.856
L384.39 251.856
L384.54 254.88
L384.691 254.88
L384.841 251.856
L384.991 254.88
L385.142 248.832
L385.292 254.88
L385.743 245.808
L385.894 254.88
L386.195 248.832
L386.495 254.88
L386.796 248.832
L387.097 254.88
L387.398 248.832
L387.548 242.784
L387.699 245.808
L387.849 245.808
L388.15 239.76
L388.601 239.76
L388.751 233.712
L388.902 236.736
L389.203 236.736
L389.353 233.712
L389.504 236.736
L390.256 236.736
L390.556 230.688
L390.707 233.712
L390.857 230.688
L391.008 236.736
L391.158 233.712
L391.459 233.712
L391.609 230.688
L391.76 236.736
L391.91 233.712
L392.06 233.712
L392.211 236.736
L392.361 203.472
L392.512 233.712
L393.113 233.712
L393.264 230.688
L393.414 233.712
L393.564 230.688
L393.715 236.736
L393.865 236.736
L394.016 233.712
L394.316 242.784
L394.617 248.832
L394.768 248.832
L394.918 251.856
L395.068 251.856
L395.219 254.88
L395.369 251.856
L395.52 251.856
L395.67 248.832
L395.971 248.832
L396.121 251.856
L396.272 248.832
L396.422 251.856
L396.723 251.856
L396.873 254.88
L397.024 254.88
L397.174 251.856
L397.325 251.856
L397.475 248.832
L398.829 248.832
L398.979 251.856
L399.43 251.856
L399.581 254.88
L400.032 254.88
L400.182 257.904
L400.333 254.88
L400.633 254.88
L400.784 257.904
L400.934 254.88
L401.085 257.904
L401.235 257.904
L401.385 254.88
L401.686 254.88
L401.837 260.928
L401.987 254.88
L402.137 257.904
L402.589 257.904
L402.889 251.856
L403.04 257.904
L403.19 254.88
L403.341 248.832
L403.491 251.856
L403.642 251.856
L403.792 248.832
L404.093 248.832
L404.243 245.808
L404.394 248.832
L404.544 248.832
L404.694 242.784
L404.845 245.808
L405.296 245.808
L405.446 248.832
L405.747 242.784
L405.898 242.784
L406.048 248.832
L406.8 248.832
L406.95 245.808
L407.251 245.808
L407.402 248.832
L407.552 245.808
L408.304 245.808
L408.454 242.784
L408.605 245.808
L408.906 245.808
L409.056 248.832
L409.206 248.832
L409.357 242.784
L409.507 242.784
L409.808 254.88
L409.958 251.856
L410.109 254.88
L410.711 254.88
L410.861 257.904
L411.011 254.88
L411.162 254.88
L411.312 257.904
L411.463 254.88
L411.763 254.88
L411.914 257.904
L412.064 254.88
L412.515 254.88
L412.666 251.856
L412.816 257.904
L412.967 254.88
L413.117 254.88
L413.267 251.856
L413.418 254.88
L413.719 254.88
L413.869 257.904
L414.019 254.88
L414.17 254.88
L414.32 257.904
L414.471 254.88
L414.621 254.88
L414.771 260.928
L414.922 257.904
L415.373 257.904
L415.523 251.856
L415.824 257.904
L415.975 254.88
L416.275 254.88
L416.426 257.904
L416.576 254.88
L416.877 254.88
L417.027 251.856
L417.178 251.856
L417.328 254.88
L417.479 251.856
L417.629 254.88
L417.78 248.832
L417.93 248.832
L418.08 245.808
L418.231 248.832
L418.381 248.832
L418.532 245.808
L418.682 248.832
L418.832 245.808
L418.983 248.832
L419.133 248.832
L419.284 245.808
L419.434 245.808
L419.584 242.784
L419.735 248.832
L420.036 242.784
L420.186 245.808
L421.088 245.808
L421.239 242.784
L421.389 245.808
L421.54 242.784
L421.69 248.832
L422.141 239.76
L422.292 245.808
L422.743 245.808
L422.893 242.784
L423.044 248.832
L423.194 248.832
L423.344 245.808
L423.495 245.808
L423.645 242.784
L423.796 245.808
L423.946 245.808
L424.097 251.856
L424.247 251.856
L424.548 257.904
L424.698 257.904
L424.849 251.856
L424.999 257.904
L425.3 251.856
L425.601 257.904
L425.901 251.856
L426.202 251.856
L426.353 257.904
L426.653 251.856
L426.804 254.88
L427.105 254.88
L427.255 251.856
L427.405 257.904
L427.556 251.856
L427.706 254.88
L427.857 251.856
L428.007 254.88
L428.157 254.88
L428.308 251.856
L428.458 257.904
L428.909 242.784
L429.06 239.76
L429.21 233.712
L429.661 233.712
L429.962 248.832
L430.113 248.832
L430.263 251.856
L430.413 248.832
L430.564 248.832
L430.714 251.856
L430.865 248.832
L431.015 251.856
L431.165 257.904
L431.466 245.808
L431.767 245.808
L431.918 242.784
L432.068 242.784
L432.218 239.76
L432.369 242.784
L432.519 236.736
L432.67 239.76
L432.82 236.736
L432.97 242.784
L433.271 236.736
L433.873 236.736
L434.023 239.76
L434.174 233.712
L434.324 236.736
L434.474 233.712
L434.926 233.712
L435.076 236.736
L435.226 233.712
L435.377 236.736
L435.527 236.736
L435.678 233.712
L435.828 236.736
L435.978 236.736
L436.129 233.712
L436.279 236.736
L436.43 233.712
L436.58 233.712
L436.73 236.736
L436.881 233.712
L437.031 233.712
L437.182 236.736
L437.332 233.712
L437.482 236.736
L437.633 236.736
L437.783 233.712
L437.934 233.712
L438.084 236.736
L438.235 233.712
L438.535 233.712
L438.836 242.784
L439.137 248.832
L439.287 245.808
L439.438 248.832
L439.889 248.832
L440.039 254.88
L440.19 248.832
L440.34 251.856
L440.491 248.832
L440.641 248.832
L440.791 242.784
L440.942 248.832
L441.092 239.76
L441.243 248.832
L441.543 248.832
L441.694 245.808
L441.995 251.856
L442.145 251.856
L442.295 254.88
L442.596 248.832
L442.747 251.856
L442.897 251.856
L443.047 248.832
L443.198 248.832
L443.348 245.808
L443.499 248.832
L444.1 248.832
L444.251 251.856
L444.401 248.832
L444.551 248.832
L444.702 251.856
L444.852 251.856
L445.003 248.832
L445.304 254.88
L445.454 251.856
L445.604 254.88
L445.755 251.856
L445.905 251.856
L446.056 248.832
L446.206 251.856
L446.356 251.856
L446.507 248.832
L446.657 251.856
L446.808 245.808
L446.958 245.808
L447.108 242.784
L447.409 248.832
L447.71 248.832
L447.86 245.808
L448.011 248.832
L448.161 248.832
L448.312 245.808
L448.462 248.832
L448.612 245.808
L448.763 245.808
L448.913 248.832
L449.064 248.832
L449.214 245.808
L449.364 248.832
L449.515 245.808
L449.665 245.808
L449.816 248.832
L449.966 245.808
L450.568 245.808
L450.718 248.832
L451.169 248.832
L451.32 245.808
L451.47 248.832
L451.62 245.808
L451.771 248.832
L451.921 245.808
L452.072 245.808
L452.222 248.832
L452.373 248.832
L452.523 242.784
L452.824 248.832
L452.974 245.808
L453.726 245.808
L453.877 248.832
L454.177 248.832
L454.328 251.856
L454.478 251.856
L454.629 248.832
L454.779 248.832
L455.08 254.88
L455.531 254.88
L455.681 248.832
L455.832 254.88
L455.982 254.88
L456.133 251.856
L456.283 254.88
L456.584 254.88
L456.734 251.856
L457.035 251.856
L457.185 248.832
L457.336 251.856
L457.637 251.856
L457.787 248.832
L457.937 251.856
L458.088 248.832
L458.238 251.856
L458.389 251.856
L458.539 254.88
L458.84 248.832
L458.99 251.856
L459.141 248.832
L459.291 248.832
L459.442 251.856
L459.592 251.856
L459.742 248.832
L459.893 248.832
L460.043 245.808
L460.194 248.832
L460.344 245.808
L460.494 248.832
L460.795 248.832
L460.946 242.784
L461.096 248.832
L461.246 245.808
L461.547 245.808
L461.698 248.832
L461.848 248.832
L461.998 245.808
L462.149 245.808
L462.299 248.832
L462.45 248.832
L462.6 245.808
L461.547 245.808
L461.701 245.808
L461.848 248.832
L461.998 245.808
L462.149 245.808
L462.299 242.784
L462.45 245.808
L462.901 245.808
L463.051 248.832
L463.352 242.784
L463.502 245.808
L463.653 242.784
L463.954 248.832
L464.254 242.784
L464.405 248.832
L464.555 245.808
L464.856 245.808
L465.006 242.784
L465.307 248.832
L465.458 242.784
L465.758 242.784
L465.909 245.808
L466.059 245.808
L466.21 242.784
L466.36 245.808
L466.511 242.784
L466.661 245.808
L467.714 245.808
L467.864 239.76
L468.165 245.808
L468.315 242.784
L468.466 242.784
L468.616 245.808
L468.767 245.808
L468.917 239.76
L469.067 245.808
L469.218 245.808
L469.368 239.76
L469.519 242.784
L470.12 242.784
L470.271 239.76
L470.421 242.784
L470.571 239.76
L471.925 239.76
L472.075 242.784
L472.226 239.76
L472.376 239.76
L472.527 242.784
L472.677 239.76
L472.978 239.76
L473.128 242.784
L473.279 242.784
L473.429 239.76
L473.58 242.784
L473.73 239.76
L473.88 242.784
L474.031 239.76
L474.181 242.784
L474.332 239.76
L474.482 242.784
L475.084 242.784
L475.234 239.76
L475.384 242.784
L475.685 242.784
L475.836 239.76
L475.986 239.76
L476.136 242.784
L476.287 242.784
L476.437 245.808
L476.588 242.784
L476.888 242.784
L477.039 239.76
L477.189 242.784
L477.34 242.784
L477.49 245.808
L477.64 239.76
L477.791 245.808
L477.941 245.808
L478.092 242.784
L478.392 242.784
L478.543 245.808
L478.844 239.76
L478.994 245.808
L479.144 245.808
L479.295 242.784
L479.896 242.784
L480.047 245.808
L480.197 242.784
L480.348 245.808
L480.799 245.808
L481.1 251.856
L481.401 251.856
L481.551 257.904
L481.852 251.856
L482.002 254.88
L482.153 251.856
L482.453 257.904
L482.754 251.856
L482.905 251.856
L483.205 257.904
L483.506 251.856
L483.657 254.88
L483.957 254.88
L484.108 251.856
L484.409 251.856
L484.559 254.88
L484.709 254.88
L484.86 257.904
L485.01 251.856
L485.161 254.88
L485.612 254.88
L485.762 251.856
L485.913 254.88
L486.063 254.88
L486.213 257.904
L486.364 257.904
L486.514 251.856
L486.815 257.904
L486.965 254.88
L487.116 254.88
L487.266 251.856
L487.567 257.904
L487.718 257.904
L487.868 254.88
L488.018 257.904
L488.169 254.88
L488.319 257.904
L488.47 257.904
L488.62 254.88
L488.77 254.88
L488.921 251.856
L489.071 251.856
L489.222 248.832
L489.372 248.832
L489.522 251.856
L489.974 251.856
L490.124 248.832
L490.274 248.832
L490.425 251.856
L490.575 248.832
L490.876 248.832
L491.026 251.856
L491.177 248.832
L491.327 251.856
L491.478 248.832
L491.628 251.856
L491.929 245.808
L492.079 248.832
L492.23 245.808
L492.38 245.808
L492.53 248.832
L492.681 248.832
L492.831 242.784
L492.982 242.784
L493.282 248.832
L493.433 248.832
L493.583 245.808
L493.734 251.856
L493.884 248.832
L494.185 248.832
L494.335 245.808
L494.486 245.808
L494.636 248.832
L494.937 248.832
L495.087 245.808
L495.238 251.856
L495.388 251.856
L495.539 254.88
L495.689 251.856
L495.839 251.856
L495.99 248.832
L496.14 251.856
L496.291 251.856
L496.441 254.88
L496.591 251.856
L496.892 251.856
L497.043 254.88
L497.343 248.832
L497.494 251.856
L498.396 251.856
L498.547 254.88
L498.697 251.856
L499.148 251.856
L499.299 248.832
L499.449 251.856
L499.599 248.832
L499.75 248.832
L499.9 251.856
L500.051 251.856
L500.201 248.832
L500.351 254.88
L500.502 251.856
L500.803 251.856
L500.953 248.832
L501.104 248.832
L501.254 251.856
L501.404 248.832
L501.705 248.832
L501.856 251.856
L502.156 251.856
L502.307 245.808
L502.457 251.856
L502.608 248.832
L502.758 248.832
L502.908 239.76
L503.059 242.784
L503.209 239.76
L503.36 245.808
L503.66 239.76
L503.961 239.76
L504.112 236.736
L504.713 236.736
L504.864 239.76
L505.014 236.736
L505.164 236.736
L505.315 233.712
L505.465 236.736
L505.766 236.736
L505.916 230.688
L506.067 233.712
L506.217 233.712
L506.368 236.736
L506.518 233.712
L506.969 233.712
L507.12 236.736
L507.27 233.712
L507.42 233.712
L507.571 236.736
L507.721 233.712
L508.022 233.712
L508.173 236.736
L508.323 230.688
L508.473 233.712
L508.624 230.688
L508.925 230.688
L509.075 233.712
L509.376 233.712
L509.526 239.76
L509.827 239.76
L509.977 242.784
L510.128 248.832
L510.579 248.832
L510.729 251.856
L510.88 248.832
L511.03 248.832
L511.181 251.856
L511.331 251.856
L511.481 248.832
L511.632 251.856
L511.782 248.832
L511.933 251.856
L512.233 251.856
L512.384 248.832
L512.534 248.832
L512.685 251.856
L512.835 251.856
L512.985 248.832
L513.136 251.856
L513.286 251.856
L513.437 248.832
L513.587 251.856
L513.737 248.832
L513.888 251.856
L514.038 248.832
L514.189 251.856
L514.339 251.856
L514.489 254.88
L514.64 251.856
L514.79 251.856
L514.941 248.832
L515.091 251.856
L515.542 251.856
L515.693 254.88
L515.843 251.856
L515.994 251.856
L516.144 254.88
L516.294 251.856
L516.445 251.856
L516.595 239.76
L516.746 251.856
L516.896 248.832
L517.046 236.736
L517.197 242.784
L517.347 182.304
L517.498 236.736
L517.648 236.736
L517.798 239.76
L517.949 239.76
L518.099 236.736
L518.25 236.736
L518.4 239.76
L518.4 239.76" style="fill:none;stroke:#0000ff;stroke-linecap:square;"/>
   </g>
   <g id="line2d_2">
    <path clip-path="url(#pcb2bf987bf)" d="
M72 88.56
L518.4 88.56" style="fill:none;stroke:#ff0000;stroke-linecap:square;"/>
   </g>
   <g id="matplotlib.axis_1">
    <g id="xtick_1">
     <g id="line2d_3">
      <path clip-path="url(#pcb2bf987bf)" d="
M115.316 345.6
L115.316 43.2" style="fill:none;stroke:#000000;stroke-dasharray:1.000000,3.000000;stroke-dashoffset:0.0;stroke-width:0.5;"/>
     </g>
     <g id="line2d_4">
      <defs>
       <path d="
M0 0
L0 -4" id="m93b0483c22" style="stroke:#000000;stroke-width:0.5;"/>
      </defs>
      <g>
       <use style="stroke:#000000;stroke-width:0.5;" x="115.316274932" xlink:href="#m93b0483c22" y="345.6"/>
      </g>
     </g>
     <g id="line2d_5">
      <defs>
       <path d="
M0 0
L0 4" id="m741efc42ff" style="stroke:#000000;stroke-width:0.5;"/>
      </defs>
      <g>
       <use style="stroke:#000000;stroke-width:0.5;" x="115.316274932" xlink:href="#m741efc42ff" y="43.2"/>
      </g>
     </g>
     <g id="text_1">
      <!-- Jun19 -->
      <defs>
       <path d="
M54.8906 33.0156
L54.8906 0
L45.9062 0
L45.9062 32.7188
Q45.9062 40.4844 42.875 44.3281
Q39.8438 48.1875 33.7969 48.1875
Q26.5156 48.1875 22.3125 43.5469
Q18.1094 38.9219 18.1094 30.9062
L18.1094 0
L9.07812 0
L9.07812 54.6875
L18.1094 54.6875
L18.1094 46.1875
Q21.3438 51.125 25.7031 53.5625
Q30.0781 56 35.7969 56
Q45.2188 56 50.0469 50.1719
Q54.8906 44.3438 54.8906 33.0156" id="BitstreamVeraSans-Roman-6e"/>
       <path d="
M12.4062 8.29688
L28.5156 8.29688
L28.5156 63.9219
L10.9844 60.4062
L10.9844 69.3906
L28.4219 72.9062
L38.2812 72.9062
L38.2812 8.29688
L54.3906 8.29688
L54.3906 0
L12.4062 0
z
" id="BitstreamVeraSans-Roman-31"/>
       <path d="
M8.5 21.5781
L8.5 54.6875
L17.4844 54.6875
L17.4844 21.9219
Q17.4844 14.1562 20.5 10.2656
Q23.5312 6.39062 29.5938 6.39062
Q36.8594 6.39062 41.0781 11.0312
Q45.3125 15.6719 45.3125 23.6875
L45.3125 54.6875
L54.2969 54.6875
L54.2969 0
L45.3125 0
L45.3125 8.40625
Q42.0469 3.42188 37.7188 1
Q33.4062 -1.42188 27.6875 -1.42188
Q18.2656 -1.42188 13.375 4.4375
Q8.5 10.2969 8.5 21.5781" id="BitstreamVeraSans-Roman-75"/>
       <path d="
M9.8125 72.9062
L19.6719 72.9062
L19.6719 5.07812
Q19.6719 -8.10938 14.6719 -14.0625
Q9.67188 -20.0156 -1.42188 -20.0156
L-5.17188 -20.0156
L-5.17188 -11.7188
L-2.09375 -11.7188
Q4.4375 -11.7188 7.125 -8.04688
Q9.8125 -4.39062 9.8125 5.07812
z
" id="BitstreamVeraSans-Roman-4a"/>
       <path d="
M10.9844 1.51562
L10.9844 10.5
Q14.7031 8.73438 18.5 7.8125
Q22.3125 6.89062 25.9844 6.89062
Q35.75 6.89062 40.8906 13.4531
Q46.0469 20.0156 46.7812 33.4062
Q43.9531 29.2031 39.5938 26.9531
Q35.25 24.7031 29.9844 24.7031
Q19.0469 24.7031 12.6719 31.3125
Q6.29688 37.9375 6.29688 49.4219
Q6.29688 60.6406 12.9375 67.4219
Q19.5781 74.2188 30.6094 74.2188
Q43.2656 74.2188 49.9219 64.5156
Q56.5938 54.8281 56.5938 36.375
Q56.5938 19.1406 48.4062 8.85938
Q40.2344 -1.42188 26.4219 -1.42188
Q22.7031 -1.42188 18.8906 -0.6875
Q15.0938 0.046875 10.9844 1.51562
M30.6094 32.4219
Q37.25 32.4219 41.125 36.9531
Q45.0156 41.5 45.0156 49.4219
Q45.0156 57.2812 41.125 61.8438
Q37.25 66.4062 30.6094 66.4062
Q23.9688 66.4062 20.0938 61.8438
Q16.2188 57.2812 16.2188 49.4219
Q16.2188 41.5 20.0938 36.9531
Q23.9688 32.4219 30.6094 32.4219" id="BitstreamVeraSans-Roman-39"/>
      </defs>
      <g transform="translate(84.7995101131 374.394965385)rotate(-30.0)scale(0.12 -0.12)">
       <use xlink:href="#BitstreamVeraSans-Roman-4a"/>
       <use x="29.4921875" xlink:href="#BitstreamVeraSans-Roman-75"/>
       <use x="92.87109375" xlink:href="#BitstreamVeraSans-Roman-6e"/>
       <use x="156.25" xlink:href="#BitstreamVeraSans-Roman-31"/>
       <use x="219.873046875" xlink:href="#BitstreamVeraSans-Roman-39"/>
      </g>
     </g>
    </g>
    <g id="xtick_2">
     <g id="line2d_6">
      <path clip-path="url(#pcb2bf987bf)" d="
M216.388 345.6
L216.388 43.2" style="fill:none;stroke:#000000;stroke-dasharray:1.000000,3.000000;stroke-dashoffset:0.0;stroke-width:0.5;"/>
     </g>
     <g id="line2d_7">
      <g>
       <use style="stroke:#000000;stroke-width:0.5;" x="216.387973046" xlink:href="#m93b0483c22" y="345.6"/>
      </g>
     </g>
     <g id="line2d_8">
      <g>
       <use style="stroke:#000000;stroke-width:0.5;" x="216.387973046" xlink:href="#m741efc42ff" y="43.2"/>
      </g>
     </g>
     <g id="text_2">
      <!-- Jun26 -->
      <defs>
       <path d="
M19.1875 8.29688
L53.6094 8.29688
L53.6094 0
L7.32812 0
L7.32812 8.29688
Q12.9375 14.1094 22.625 23.8906
Q32.3281 33.6875 34.8125 36.5312
Q39.5469 41.8438 41.4219 45.5312
Q43.3125 49.2188 43.3125 52.7812
Q43.3125 58.5938 39.2344 62.25
Q35.1562 65.9219 28.6094 65.9219
Q23.9688 65.9219 18.8125 64.3125
Q13.6719 62.7031 7.8125 59.4219
L7.8125 69.3906
Q13.7656 71.7812 18.9375 73
Q24.125 74.2188 28.4219 74.2188
Q39.75 74.2188 46.4844 68.5469
Q53.2188 62.8906 53.2188 53.4219
Q53.2188 48.9219 51.5312 44.8906
Q49.8594 40.875 45.4062 35.4062
Q44.1875 33.9844 37.6406 27.2188
Q31.1094 20.4531 19.1875 8.29688" id="BitstreamVeraSans-Roman-32"/>
       <path d="
M33.0156 40.375
Q26.375 40.375 22.4844 35.8281
Q18.6094 31.2969 18.6094 23.3906
Q18.6094 15.5312 22.4844 10.9531
Q26.375 6.39062 33.0156 6.39062
Q39.6562 6.39062 43.5312 10.9531
Q47.4062 15.5312 47.4062 23.3906
Q47.4062 31.2969 43.5312 35.8281
Q39.6562 40.375 33.0156 40.375
M52.5938 71.2969
L52.5938 62.3125
Q48.875 64.0625 45.0938 64.9844
Q41.3125 65.9219 37.5938 65.9219
Q27.8281 65.9219 22.6719 59.3281
Q17.5312 52.7344 16.7969 39.4062
Q19.6719 43.6562 24.0156 45.9219
Q28.375 48.1875 33.5938 48.1875
Q44.5781 48.1875 50.9531 41.5156
Q57.3281 34.8594 57.3281 23.3906
Q57.3281 12.1562 50.6875 5.35938
Q44.0469 -1.42188 33.0156 -1.42188
Q20.3594 -1.42188 13.6719 8.26562
Q6.98438 17.9688 6.98438 36.375
Q6.98438 53.6562 15.1875 63.9375
Q23.3906 74.2188 37.2031 74.2188
Q40.9219 74.2188 44.7031 73.4844
Q48.4844 72.75 52.5938 71.2969" id="BitstreamVeraSans-Roman-36"/>
      </defs>
      <g transform="translate(185.794889739 374.439027885)rotate(-30.0)scale(0.12 -0.12)">
       <use xlink:href="#BitstreamVeraSans-Roman-4a"/>
       <use x="29.4921875" xlink:href="#BitstreamVeraSans-Roman-75"/>
       <use x="92.87109375" xlink:href="#BitstreamVeraSans-Roman-6e"/>
       <use x="156.25" xlink:href="#BitstreamVeraSans-Roman-32"/>
       <use x="219.873046875" xlink:href="#BitstreamVeraSans-Roman-36"/>
      </g>
     </g>
    </g>
    <g id="xtick_3">
     <g id="line2d_9">
      <path clip-path="url(#pcb2bf987bf)" d="
M317.46 345.6
L317.46 43.2" style="fill:none;stroke:#000000;stroke-dasharray:1.000000,3.000000;stroke-dashoffset:0.0;stroke-width:0.5;"/>
     </g>
     <g id="line2d_10">
      <g>
       <use style="stroke:#000000;stroke-width:0.5;" x="317.459671158" xlink:href="#m93b0483c22" y="345.6"/>
      </g>
     </g>
     <g id="line2d_11">
      <g>
       <use style="stroke:#000000;stroke-width:0.5;" x="317.459671158" xlink:href="#m741efc42ff" y="43.2"/>
      </g>
     </g>
     <g id="text_3">
      <!-- Jul03 -->
      <defs>
       <path d="
M40.5781 39.3125
Q47.6562 37.7969 51.625 33
Q55.6094 28.2188 55.6094 21.1875
Q55.6094 10.4062 48.1875 4.48438
Q40.7656 -1.42188 27.0938 -1.42188
Q22.5156 -1.42188 17.6562 -0.515625
Q12.7969 0.390625 7.625 2.20312
L7.625 11.7188
Q11.7188 9.32812 16.5938 8.10938
Q21.4844 6.89062 26.8125 6.89062
Q36.0781 6.89062 40.9375 10.5469
Q45.7969 14.2031 45.7969 21.1875
Q45.7969 27.6406 41.2812 31.2656
Q36.7656 34.9062 28.7188 34.9062
L20.2188 34.9062
L20.2188 43.0156
L29.1094 43.0156
Q36.375 43.0156 40.2344 45.9219
Q44.0938 48.8281 44.0938 54.2969
Q44.0938 59.9062 40.1094 62.9062
Q36.1406 65.9219 28.7188 65.9219
Q24.6562 65.9219 20.0156 65.0312
Q15.375 64.1562 9.8125 62.3125
L9.8125 71.0938
Q15.4375 72.6562 20.3438 73.4375
Q25.25 74.2188 29.5938 74.2188
Q40.8281 74.2188 47.3594 69.1094
Q53.9062 64.0156 53.9062 55.3281
Q53.9062 49.2656 50.4375 45.0938
Q46.9688 40.9219 40.5781 39.3125" id="BitstreamVeraSans-Roman-33"/>
       <path d="
M31.7812 66.4062
Q24.1719 66.4062 20.3281 58.9062
Q16.5 51.4219 16.5 36.375
Q16.5 21.3906 20.3281 13.8906
Q24.1719 6.39062 31.7812 6.39062
Q39.4531 6.39062 43.2812 13.8906
Q47.125 21.3906 47.125 36.375
Q47.125 51.4219 43.2812 58.9062
Q39.4531 66.4062 31.7812 66.4062
M31.7812 74.2188
Q44.0469 74.2188 50.5156 64.5156
Q56.9844 54.8281 56.9844 36.375
Q56.9844 17.9688 50.5156 8.26562
Q44.0469 -1.42188 31.7812 -1.42188
Q19.5312 -1.42188 13.0625 8.26562
Q6.59375 17.9688 6.59375 36.375
Q6.59375 54.8281 13.0625 64.5156
Q19.5312 74.2188 31.7812 74.2188" id="BitstreamVeraSans-Roman-30"/>
       <path d="
M9.42188 75.9844
L18.4062 75.9844
L18.4062 0
L9.42188 0
z
" id="BitstreamVeraSans-Roman-6c"/>
      </defs>
      <g transform="translate(290.744216597 372.200277885)rotate(-30.0)scale(0.12 -0.12)">
       <use xlink:href="#BitstreamVeraSans-Roman-4a"/>
       <use x="29.4921875" xlink:href="#BitstreamVeraSans-Roman-75"/>
       <use x="92.87109375" xlink:href="#BitstreamVeraSans-Roman-6c"/>
       <use x="120.654296875" xlink:href="#BitstreamVeraSans-Roman-30"/>
       <use x="184.27734375" xlink:href="#BitstreamVeraSans-Roman-33"/>
      </g>
     </g>
    </g>
    <g id="xtick_4">
     <g id="line2d_12">
      <path clip-path="url(#pcb2bf987bf)" d="
M418.531 345.6
L418.531 43.2" style="fill:none;stroke:#000000;stroke-dasharray:1.000000,3.000000;stroke-dashoffset:0.0;stroke-width:0.5;"/>
     </g>
     <g id="line2d_13">
      <g>
       <use style="stroke:#000000;stroke-width:0.5;" x="418.531369273" xlink:href="#m93b0483c22" y="345.6"/>
      </g>
     </g>
     <g id="line2d_14">
      <g>
       <use style="stroke:#000000;stroke-width:0.5;" x="418.531369273" xlink:href="#m741efc42ff" y="43.2"/>
      </g>
     </g>
     <g id="text_4">
      <!-- Jul10 -->
      <g transform="translate(391.673020519 372.282777885)rotate(-30.0)scale(0.12 -0.12)">
       <use xlink:href="#BitstreamVeraSans-Roman-4a"/>
       <use x="29.4921875" xlink:href="#BitstreamVeraSans-Roman-75"/>
       <use x="92.87109375" xlink:href="#BitstreamVeraSans-Roman-6c"/>
       <use x="120.654296875" xlink:href="#BitstreamVeraSans-Roman-31"/>
       <use x="184.27734375" xlink:href="#BitstreamVeraSans-Roman-30"/>
      </g>
     </g>
    </g>
   </g>
   <g id="matplotlib.axis_2">
    <g id="ytick_1">
     <g id="line2d_15">
      <path clip-path="url(#pcb2bf987bf)" d="
M72 345.6
L518.4 345.6" style="fill:none;stroke:#000000;stroke-dasharray:1.000000,3.000000;stroke-dashoffset:0.0;stroke-width:0.5;"/>
     </g>
     <g id="line2d_16">
      <defs>
       <path d="
M0 0
L4 0" id="m728421d6d4" style="stroke:#000000;stroke-width:0.5;"/>
      </defs>
      <g>
       <use style="stroke:#000000;stroke-width:0.5;" x="72.0" xlink:href="#m728421d6d4" y="345.6"/>
      </g>
     </g>
     <g id="line2d_17">
      <defs>
       <path d="
M0 0
L-4 0" id="mcb0005524f" style="stroke:#000000;stroke-width:0.5;"/>
      </defs>
      <g>
       <use style="stroke:#000000;stroke-width:0.5;" x="518.4" xlink:href="#mcb0005524f" y="345.6"/>
      </g>
     </g>
     <g id="text_5">
      <!-- 0 -->
      <g transform="translate(61.953125 348.91125)scale(0.12 -0.12)">
       <use xlink:href="#BitstreamVeraSans-Roman-30"/>
      </g>
     </g>
    </g>
    <g id="ytick_2">
     <g id="line2d_18">
      <path clip-path="url(#pcb2bf987bf)" d="
M72 285.12
L518.4 285.12" style="fill:none;stroke:#000000;stroke-dasharray:1.000000,3.000000;stroke-dashoffset:0.0;stroke-width:0.5;"/>
     </g>
     <g id="line2d_19">
      <g>
       <use style="stroke:#000000;stroke-width:0.5;" x="72.0" xlink:href="#m728421d6d4" y="285.12"/>
      </g>
     </g>
     <g id="line2d_20">
      <g>
       <use style="stroke:#000000;stroke-width:0.5;" x="518.4" xlink:href="#mcb0005524f" y="285.12"/>
      </g>
     </g>
     <g id="text_6">
      <!-- 20 -->
      <g transform="translate(54.40625 288.43125)scale(0.12 -0.12)">
       <use xlink:href="#BitstreamVeraSans-Roman-32"/>
       <use x="63.623046875" xlink:href="#BitstreamVeraSans-Roman-30"/>
      </g>
     </g>
    </g>
    <g id="ytick_3">
     <g id="line2d_21">
      <path clip-path="url(#pcb2bf987bf)" d="
M72 224.64
L518.4 224.64" style="fill:none;stroke:#000000;stroke-dasharray:1.000000,3.000000;stroke-dashoffset:0.0;stroke-width:0.5;"/>
     </g>
     <g id="line2d_22">
      <g>
       <use style="stroke:#000000;stroke-width:0.5;" x="72.0" xlink:href="#m728421d6d4" y="224.64"/>
      </g>
     </g>
     <g id="line2d_23">
      <g>
       <use style="stroke:#000000;stroke-width:0.5;" x="518.4" xlink:href="#mcb0005524f" y="224.64"/>
      </g>
     </g>
     <g id="text_7">
      <!-- 40 -->
      <defs>
       <path d="
M37.7969 64.3125
L12.8906 25.3906
L37.7969 25.3906
z

M35.2031 72.9062
L47.6094 72.9062
L47.6094 25.3906
L58.0156 25.3906
L58.0156 17.1875
L47.6094 17.1875
L47.6094 0
L37.7969 0
L37.7969 17.1875
L4.89062 17.1875
L4.89062 26.7031
z
" id="BitstreamVeraSans-Roman-34"/>
      </defs>
      <g transform="translate(54.11375 227.95125)scale(0.12 -0.12)">
       <use xlink:href="#BitstreamVeraSans-Roman-34"/>
       <use x="63.623046875" xlink:href="#BitstreamVeraSans-Roman-30"/>
      </g>
     </g>
    </g>
    <g id="ytick_4">
     <g id="line2d_24">
      <path clip-path="url(#pcb2bf987bf)" d="
M72 164.16
L518.4 164.16" style="fill:none;stroke:#000000;stroke-dasharray:1.000000,3.000000;stroke-dashoffset:0.0;stroke-width:0.5;"/>
     </g>
     <g id="line2d_25">
      <g>
       <use style="stroke:#000000;stroke-width:0.5;" x="72.0" xlink:href="#m728421d6d4" y="164.16"/>
      </g>
     </g>
     <g id="line2d_26">
      <g>
       <use style="stroke:#000000;stroke-width:0.5;" x="518.4" xlink:href="#mcb0005524f" y="164.16"/>
      </g>
     </g>
     <g id="text_8">
      <!-- 60 -->
      <g transform="translate(54.365 167.47125)scale(0.12 -0.12)">
       <use xlink:href="#BitstreamVeraSans-Roman-36"/>
       <use x="63.623046875" xlink:href="#BitstreamVeraSans-Roman-30"/>
      </g>
     </g>
    </g>
    <g id="ytick_5">
     <g id="line2d_27">
      <path clip-path="url(#pcb2bf987bf)" d="
M72 103.68
L518.4 103.68" style="fill:none;stroke:#000000;stroke-dasharray:1.000000,3.000000;stroke-dashoffset:0.0;stroke-width:0.5;"/>
     </g>
     <g id="line2d_28">
      <g>
       <use style="stroke:#000000;stroke-width:0.5;" x="72.0" xlink:href="#m728421d6d4" y="103.68"/>
      </g>
     </g>
     <g id="line2d_29">
      <g>
       <use style="stroke:#000000;stroke-width:0.5;" x="518.4" xlink:href="#mcb0005524f" y="103.68"/>
      </g>
     </g>
     <g id="text_9">
      <!-- 80 -->
      <defs>
       <path d="
M31.7812 34.625
Q24.75 34.625 20.7188 30.8594
Q16.7031 27.0938 16.7031 20.5156
Q16.7031 13.9219 20.7188 10.1562
Q24.75 6.39062 31.7812 6.39062
Q38.8125 6.39062 42.8594 10.1719
Q46.9219 13.9688 46.9219 20.5156
Q46.9219 27.0938 42.8906 30.8594
Q38.875 34.625 31.7812 34.625
M21.9219 38.8125
Q15.5781 40.375 12.0312 44.7188
Q8.5 49.0781 8.5 55.3281
Q8.5 64.0625 14.7188 69.1406
Q20.9531 74.2188 31.7812 74.2188
Q42.6719 74.2188 48.875 69.1406
Q55.0781 64.0625 55.0781 55.3281
Q55.0781 49.0781 51.5312 44.7188
Q48 40.375 41.7031 38.8125
Q48.8281 37.1562 52.7969 32.3125
Q56.7812 27.4844 56.7812 20.5156
Q56.7812 9.90625 50.3125 4.23438
Q43.8438 -1.42188 31.7812 -1.42188
Q19.7344 -1.42188 13.25 4.23438
Q6.78125 9.90625 6.78125 20.5156
Q6.78125 27.4844 10.7812 32.3125
Q14.7969 37.1562 21.9219 38.8125
M18.3125 54.3906
Q18.3125 48.7344 21.8438 45.5625
Q25.3906 42.3906 31.7812 42.3906
Q38.1406 42.3906 41.7188 45.5625
Q45.3125 48.7344 45.3125 54.3906
Q45.3125 60.0625 41.7188 63.2344
Q38.1406 66.4062 31.7812 66.4062
Q25.3906 66.4062 21.8438 63.2344
Q18.3125 60.0625 18.3125 54.3906" id="BitstreamVeraSans-Roman-38"/>
      </defs>
      <g transform="translate(54.340625 106.99125)scale(0.12 -0.12)">
       <use xlink:href="#BitstreamVeraSans-Roman-38"/>
       <use x="63.623046875" xlink:href="#BitstreamVeraSans-Roman-30"/>
      </g>
     </g>
    </g>
    <g id="ytick_6">
     <g id="line2d_30">
      <path clip-path="url(#pcb2bf987bf)" d="
M72 43.2
L518.4 43.2" style="fill:none;stroke:#000000;stroke-dasharray:1.000000,3.000000;stroke-dashoffset:0.0;stroke-width:0.5;"/>
     </g>
     <g id="line2d_31">
      <g>
       <use style="stroke:#000000;stroke-width:0.5;" x="72.0" xlink:href="#m728421d6d4" y="43.2"/>
      </g>
     </g>
     <g id="line2d_32">
      <g>
       <use style="stroke:#000000;stroke-width:0.5;" x="518.4" xlink:href="#mcb0005524f" y="43.2"/>
      </g>
     </g>
     <g id="text_10">
      <!-- 100 -->
      <g transform="translate(47.21 46.51125)scale(0.12 -0.12)">
       <use xlink:href="#BitstreamVeraSans-Roman-31"/>
       <use x="63.623046875" xlink:href="#BitstreamVeraSans-Roman-30"/>
       <use x="127.24609375" xlink:href="#BitstreamVeraSans-Roman-30"/>
      </g>
     </g>
    </g>
    <g id="text_11">
     <!-- temperature (C) -->
     <defs>
      <path d="
M34.2812 27.4844
Q23.3906 27.4844 19.1875 25
Q14.9844 22.5156 14.9844 16.5
Q14.9844 11.7188 18.1406 8.90625
Q21.2969 6.10938 26.7031 6.10938
Q34.1875 6.10938 38.7031 11.4062
Q43.2188 16.7031 43.2188 25.4844
L43.2188 27.4844
z

M52.2031 31.2031
L52.2031 0
L43.2188 0
L43.2188 8.29688
Q40.1406 3.32812 35.5469 0.953125
Q30.9531 -1.42188 24.3125 -1.42188
Q15.9219 -1.42188 10.9531 3.29688
Q6 8.01562 6 15.9219
Q6 25.1406 12.1719 29.8281
Q18.3594 34.5156 30.6094 34.5156
L43.2188 34.5156
L43.2188 35.4062
Q43.2188 41.6094 39.1406 45
Q35.0625 48.3906 27.6875 48.3906
Q23 48.3906 18.5469 47.2656
Q14.1094 46.1406 10.0156 43.8906
L10.0156 52.2031
Q14.9375 54.1094 19.5781 55.0469
Q24.2188 56 28.6094 56
Q40.4844 56 46.3438 49.8438
Q52.2031 43.7031 52.2031 31.2031" id="BitstreamVeraSans-Roman-61"/>
      <path id="BitstreamVeraSans-Roman-20"/>
      <path d="
M8.01562 75.875
L15.8281 75.875
Q23.1406 64.3594 26.7812 53.3125
Q30.4219 42.2812 30.4219 31.3906
Q30.4219 20.4531 26.7812 9.375
Q23.1406 -1.70312 15.8281 -13.1875
L8.01562 -13.1875
Q14.5 -2 17.7031 9.0625
Q20.9062 20.125 20.9062 31.3906
Q20.9062 42.6719 17.7031 53.6562
Q14.5 64.6562 8.01562 75.875" id="BitstreamVeraSans-Roman-29"/>
      <path d="
M52 44.1875
Q55.375 50.25 60.0625 53.125
Q64.75 56 71.0938 56
Q79.6406 56 84.2812 50.0156
Q88.9219 44.0469 88.9219 33.0156
L88.9219 0
L79.8906 0
L79.8906 32.7188
Q79.8906 40.5781 77.0938 44.375
Q74.3125 48.1875 68.6094 48.1875
Q61.625 48.1875 57.5625 43.5469
Q53.5156 38.9219 53.5156 30.9062
L53.5156 0
L44.4844 0
L44.4844 32.7188
Q44.4844 40.625 41.7031 44.4062
Q38.9219 48.1875 33.1094 48.1875
Q26.2188 48.1875 22.1562 43.5312
Q18.1094 38.875 18.1094 30.9062
L18.1094 0
L9.07812 0
L9.07812 54.6875
L18.1094 54.6875
L18.1094 46.1875
Q21.1875 51.2188 25.4844 53.6094
Q29.7812 56 35.6875 56
Q41.6562 56 45.8281 52.9688
Q50 49.9531 52 44.1875" id="BitstreamVeraSans-Roman-6d"/>
      <path d="
M64.4062 67.2812
L64.4062 56.8906
Q59.4219 61.5312 53.7812 63.8125
Q48.1406 66.1094 41.7969 66.1094
Q29.2969 66.1094 22.6562 58.4688
Q16.0156 50.8281 16.0156 36.375
Q16.0156 21.9688 22.6562 14.3281
Q29.2969 6.6875 41.7969 6.6875
Q48.1406 6.6875 53.7812 8.98438
Q59.4219 11.2812 64.4062 15.9219
L64.4062 5.60938
Q59.2344 2.09375 53.4375 0.328125
Q47.6562 -1.42188 41.2188 -1.42188
Q24.6562 -1.42188 15.125 8.70312
Q5.60938 18.8438 5.60938 36.375
Q5.60938 53.9531 15.125 64.0781
Q24.6562 74.2188 41.2188 74.2188
Q47.75 74.2188 53.5312 72.4844
Q59.3281 70.75 64.4062 67.2812" id="BitstreamVeraSans-Roman-43"/>
      <path d="
M31 75.875
Q24.4688 64.6562 21.2812 53.6562
Q18.1094 42.6719 18.1094 31.3906
Q18.1094 20.125 21.3125 9.0625
Q24.5156 -2 31 -13.1875
L23.1875 -13.1875
Q15.875 -1.70312 12.2344 9.375
Q8.59375 20.4531 8.59375 31.3906
Q8.59375 42.2812 12.2031 53.3125
Q15.8281 64.3594 23.1875 75.875
z
" id="BitstreamVeraSans-Roman-28"/>
      <path d="
M56.2031 29.5938
L56.2031 25.2031
L14.8906 25.2031
Q15.4844 15.9219 20.4844 11.0625
Q25.4844 6.20312 34.4219 6.20312
Q39.5938 6.20312 44.4531 7.46875
Q49.3125 8.73438 54.1094 11.2812
L54.1094 2.78125
Q49.2656 0.734375 44.1875 -0.34375
Q39.1094 -1.42188 33.8906 -1.42188
Q20.7969 -1.42188 13.1562 6.1875
Q5.51562 13.8125 5.51562 26.8125
Q5.51562 40.2344 12.7656 48.1094
Q20.0156 56 32.3281 56
Q43.3594 56 49.7812 48.8906
Q56.2031 41.7969 56.2031 29.5938
M47.2188 32.2344
Q47.125 39.5938 43.0938 43.9844
Q39.0625 48.3906 32.4219 48.3906
Q24.9062 48.3906 20.3906 44.1406
Q15.875 39.8906 15.1875 32.1719
z
" id="BitstreamVeraSans-Roman-65"/>
      <path d="
M18.3125 70.2188
L18.3125 54.6875
L36.8125 54.6875
L36.8125 47.7031
L18.3125 47.7031
L18.3125 18.0156
Q18.3125 11.3281 20.1406 9.42188
Q21.9688 7.51562 27.5938 7.51562
L36.8125 7.51562
L36.8125 0
L27.5938 0
Q17.1875 0 13.2344 3.875
Q9.28125 7.76562 9.28125 18.0156
L9.28125 47.7031
L2.6875 47.7031
L2.6875 54.6875
L9.28125 54.6875
L9.28125 70.2188
z
" id="BitstreamVeraSans-Roman-74"/>
      <path d="
M41.1094 46.2969
Q39.5938 47.1719 37.8125 47.5781
Q36.0312 48 33.8906 48
Q26.2656 48 22.1875 43.0469
Q18.1094 38.0938 18.1094 28.8125
L18.1094 0
L9.07812 0
L9.07812 54.6875
L18.1094 54.6875
L18.1094 46.1875
Q20.9531 51.1719 25.4844 53.5781
Q30.0312 56 36.5312 56
Q37.4531 56 38.5781 55.875
Q39.7031 55.7656 41.0625 55.5156
z
" id="BitstreamVeraSans-Roman-72"/>
      <path d="
M18.1094 8.20312
L18.1094 -20.7969
L9.07812 -20.7969
L9.07812 54.6875
L18.1094 54.6875
L18.1094 46.3906
Q20.9531 51.2656 25.2656 53.625
Q29.5938 56 35.5938 56
Q45.5625 56 51.7812 48.0938
Q58.0156 40.1875 58.0156 27.2969
Q58.0156 14.4062 51.7812 6.48438
Q45.5625 -1.42188 35.5938 -1.42188
Q29.5938 -1.42188 25.2656 0.953125
Q20.9531 3.32812 18.1094 8.20312
M48.6875 27.2969
Q48.6875 37.2031 44.6094 42.8438
Q40.5312 48.4844 33.4062 48.4844
Q26.2656 48.4844 22.1875 42.8438
Q18.1094 37.2031 18.1094 27.2969
Q18.1094 17.3906 22.1875 11.75
Q26.2656 6.10938 33.4062 6.10938
Q40.5312 6.10938 44.6094 11.75
Q48.6875 17.3906 48.6875 27.2969" id="BitstreamVeraSans-Roman-70"/>
     </defs>
     <g transform="translate(39.714375 242.37375)rotate(-90.0)scale(0.12 -0.12)">
      <use xlink:href="#BitstreamVeraSans-Roman-74"/>
      <use x="39.208984375" xlink:href="#BitstreamVeraSans-Roman-65"/>
      <use x="100.732421875" xlink:href="#BitstreamVeraSans-Roman-6d"/>
      <use x="198.14453125" xlink:href="#BitstreamVeraSans-Roman-70"/>
      <use x="261.62109375" xlink:href="#BitstreamVeraSans-Roman-65"/>
      <use x="323.14453125" xlink:href="#BitstreamVeraSans-Roman-72"/>
      <use x="364.2578125" xlink:href="#BitstreamVeraSans-Roman-61"/>
      <use x="425.537109375" xlink:href="#BitstreamVeraSans-Roman-74"/>
      <use x="464.74609375" xlink:href="#BitstreamVeraSans-Roman-75"/>
      <use x="528.125" xlink:href="#BitstreamVeraSans-Roman-72"/>
      <use x="566.98828125" xlink:href="#BitstreamVeraSans-Roman-65"/>
      <use x="628.51171875" xlink:href="#BitstreamVeraSans-Roman-20"/>
      <use x="660.298828125" xlink:href="#BitstreamVeraSans-Roman-28"/>
      <use x="699.3125" xlink:href="#BitstreamVeraSans-Roman-43"/>
      <use x="769.13671875" xlink:href="#BitstreamVeraSans-Roman-29"/>
     </g>
    </g>
   </g>
   <g id="patch_3">
    <path d="
M72 43.2
L518.4 43.2" style="fill:none;stroke:#000000;"/>
   </g>
   <g id="patch_4">
    <path d="
M518.4 345.6
L518.4 43.2" style="fill:none;stroke:#000000;"/>
   </g>
   <g id="patch_5">
    <path d="
M72 345.6
L518.4 345.6" style="fill:none;stroke:#000000;"/>
   </g>
   <g id="patch_6">
    <path d="
M72 345.6
L72 43.2" style="fill:none;stroke:#000000;"/>
   </g>
   <g id="text_12">
    <!-- CPU critical temperature -->
    <defs>
     <path d="
M19.6719 64.7969
L19.6719 37.4062
L32.0781 37.4062
Q38.9688 37.4062 42.7188 40.9688
Q46.4844 44.5312 46.4844 51.125
Q46.4844 57.6719 42.7188 61.2344
Q38.9688 64.7969 32.0781 64.7969
z

M9.8125 72.9062
L32.0781 72.9062
Q44.3438 72.9062 50.6094 67.3594
Q56.8906 61.8125 56.8906 51.125
Q56.8906 40.3281 50.6094 34.8125
Q44.3438 29.2969 32.0781 29.2969
L19.6719 29.2969
L19.6719 0
L9.8125 0
z
" id="BitstreamVeraSans-Roman-50"/>
     <path d="
M9.42188 54.6875
L18.4062 54.6875
L18.4062 0
L9.42188 0
z

M9.42188 75.9844
L18.4062 75.9844
L18.4062 64.5938
L9.42188 64.5938
z
" id="BitstreamVeraSans-Roman-69"/>
     <path d="
M8.6875 72.9062
L18.6094 72.9062
L18.6094 28.6094
Q18.6094 16.8906 22.8438 11.7344
Q27.0938 6.59375 36.625 6.59375
Q46.0938 6.59375 50.3438 11.7344
Q54.5938 16.8906 54.5938 28.6094
L54.5938 72.9062
L64.5 72.9062
L64.5 27.3906
Q64.5 13.1406 57.4375 5.85938
Q50.3906 -1.42188 36.625 -1.42188
Q22.7969 -1.42188 15.7344 5.85938
Q8.6875 13.1406 8.6875 27.3906
z
" id="BitstreamVeraSans-Roman-55"/>
     <path d="
M48.7812 52.5938
L48.7812 44.1875
Q44.9688 46.2969 41.1406 47.3438
Q37.3125 48.3906 33.4062 48.3906
Q24.6562 48.3906 19.8125 42.8438
Q14.9844 37.3125 14.9844 27.2969
Q14.9844 17.2812 19.8125 11.7344
Q24.6562 6.20312 33.4062 6.20312
Q37.3125 6.20312 41.1406 7.25
Q44.9688 8.29688 48.7812 10.4062
L48.7812 2.09375
Q45.0156 0.34375 40.9844 -0.53125
Q36.9688 -1.42188 32.4219 -1.42188
Q20.0625 -1.42188 12.7812 6.34375
Q5.51562 14.1094 5.51562 27.2969
Q5.51562 40.6719 12.8594 48.3281
Q20.2188 56 33.0156 56
Q37.1562 56 41.1094 55.1406
Q45.0625 54.2969 48.7812 52.5938" id="BitstreamVeraSans-Roman-63"/>
    </defs>
    <g style="fill:#ff0000;" transform="translate(72.0 85.536)scale(0.12 -0.12)">
     <use xlink:href="#BitstreamVeraSans-Roman-43"/>
     <use x="69.82421875" xlink:href="#BitstreamVeraSans-Roman-50"/>
     <use x="130.126953125" xlink:href="#BitstreamVeraSans-Roman-55"/>
     <use x="203.3203125" xlink:href="#BitstreamVeraSans-Roman-20"/>
     <use x="235.107421875" xlink:href="#BitstreamVeraSans-Roman-63"/>
     <use x="290.087890625" xlink:href="#BitstreamVeraSans-Roman-72"/>
     <use x="331.201171875" xlink:href="#BitstreamVeraSans-Roman-69"/>
     <use x="358.984375" xlink:href="#BitstreamVeraSans-Roman-74"/>
     <use x="398.193359375" xlink:href="#BitstreamVeraSans-Roman-69"/>
     <use x="425.9765625" xlink:href="#BitstreamVeraSans-Roman-63"/>
     <use x="480.95703125" xlink:href="#BitstreamVeraSans-Roman-61"/>
     <use x="542.236328125" xlink:href="#BitstreamVeraSans-Roman-6c"/>
     <use x="570.01953125" xlink:href="#BitstreamVeraSans-Roman-20"/>
     <use x="601.806640625" xlink:href="#BitstreamVeraSans-Roman-74"/>
     <use x="641.015625" xlink:href="#BitstreamVeraSans-Roman-65"/>
     <use x="702.5390625" xlink:href="#BitstreamVeraSans-Roman-6d"/>
     <use x="799.951171875" xlink:href="#BitstreamVeraSans-Roman-70"/>
     <use x="863.427734375" xlink:href="#BitstreamVeraSans-Roman-65"/>
     <use x="924.951171875" xlink:href="#BitstreamVeraSans-Roman-72"/>
     <use x="966.064453125" xlink:href="#BitstreamVeraSans-Roman-61"/>
     <use x="1027.34375" xlink:href="#BitstreamVeraSans-Roman-74"/>
     <use x="1066.55273438" xlink:href="#BitstreamVeraSans-Roman-75"/>
     <use x="1129.93164062" xlink:href="#BitstreamVeraSans-Roman-72"/>
     <use x="1168.79492188" xlink:href="#BitstreamVeraSans-Roman-65"/>
    </g>
   </g>
   <g id="text_13">
    <!-- node03 -->
    <defs>
     <path d="
M45.4062 46.3906
L45.4062 75.9844
L54.3906 75.9844
L54.3906 0
L45.4062 0
L45.4062 8.20312
Q42.5781 3.32812 38.25 0.953125
Q33.9375 -1.42188 27.875 -1.42188
Q17.9688 -1.42188 11.7344 6.48438
Q5.51562 14.4062 5.51562 27.2969
Q5.51562 40.1875 11.7344 48.0938
Q17.9688 56 27.875 56
Q33.9375 56 38.25 53.625
Q42.5781 51.2656 45.4062 46.3906
M14.7969 27.2969
Q14.7969 17.3906 18.875 11.75
Q22.9531 6.10938 30.0781 6.10938
Q37.2031 6.10938 41.2969 11.75
Q45.4062 17.3906 45.4062 27.2969
Q45.4062 37.2031 41.2969 42.8438
Q37.2031 48.4844 30.0781 48.4844
Q22.9531 48.4844 18.875 42.8438
Q14.7969 37.2031 14.7969 27.2969" id="BitstreamVeraSans-Roman-64"/>
     <path d="
M30.6094 48.3906
Q23.3906 48.3906 19.1875 42.75
Q14.9844 37.1094 14.9844 27.2969
Q14.9844 17.4844 19.1562 11.8438
Q23.3438 6.20312 30.6094 6.20312
Q37.7969 6.20312 41.9844 11.8594
Q46.1875 17.5312 46.1875 27.2969
Q46.1875 37.0156 41.9844 42.7031
Q37.7969 48.3906 30.6094 48.3906
M30.6094 56
Q42.3281 56 49.0156 48.375
Q55.7188 40.7656 55.7188 27.2969
Q55.7188 13.875 49.0156 6.21875
Q42.3281 -1.42188 30.6094 -1.42188
Q18.8438 -1.42188 12.1719 6.21875
Q5.51562 13.875 5.51562 27.2969
Q5.51562 40.7656 12.1719 48.375
Q18.8438 56 30.6094 56" id="BitstreamVeraSans-Roman-6f"/>
    </defs>
    <g transform="translate(269.299125 38.2)scale(0.144 -0.144)">
     <use xlink:href="#BitstreamVeraSans-Roman-6e"/>
     <use x="63.37890625" xlink:href="#BitstreamVeraSans-Roman-6f"/>
     <use x="124.560546875" xlink:href="#BitstreamVeraSans-Roman-64"/>
     <use x="188.037109375" xlink:href="#BitstreamVeraSans-Roman-65"/>
     <use x="249.560546875" xlink:href="#BitstreamVeraSans-Roman-30"/>
     <use x="313.18359375" xlink:href="#BitstreamVeraSans-Roman-33"/>
    </g>
   </g>
  </g>
 </g>
 <defs>
  <clipPath id="pcb2bf987bf">
   <rect height="302.4" width="446.4" x="72.0" y="43.2"/>
  </clipPath>
 </defs>
</svg>
