<?xml version="1.0" encoding="utf-8" standalone="no"?>
<!DOCTYPE svg PUBLIC "-//W3C//DTD SVG 1.1//EN"
  "http://www.w3.org/Graphics/SVG/1.1/DTD/svg11.dtd">
<!-- Created with matplotlib (http://matplotlib.org/) -->
<svg height="432pt" version="1.1" viewBox="0 0 576 432" width="576pt" xmlns="http://www.w3.org/2000/svg" xmlns:xlink="http://www.w3.org/1999/xlink">
 <defs>
  <style type="text/css">
*{stroke-linecap:butt;stroke-linejoin:round;}
  </style>
 </defs>
 <g id="figure_1">
  <g id="patch_1">
   <path d="
M0 432
L576 432
L576 0
L0 0
z
" style="fill:#ffffff;"/>
  </g>
  <g id="axes_1">
   <g id="patch_2">
    <path d="
M72 345.6
L518.4 345.6
L518.4 43.2
L72 43.2
z
" style="fill:#ffffff;"/>
   </g>
   <g id="line2d_1">
    <path clip-path="url(#pcb2bf987bf)" d="
M72 221.616
L72.1658 221.616
L72.3316 218.592
L72.4975 218.592
L72.6633 224.64
L73.6582 224.64
L73.8241 221.616
L73.9899 221.616
L74.1557 224.64
L74.3215 224.64
L74.4874 221.616
L74.6532 221.616
L74.819 224.64
L74.9848 224.64
L75.1507 221.616
L75.6481 221.616
L75.814 224.64
L75.9798 221.616
L76.1456 224.64
L76.3114 224.64
L76.4773 221.616
L76.8089 227.664
L76.9747 227.664
L77.3064 233.712
L77.4722 233.712
L77.638 230.688
L77.8039 230.688
L77.9697 233.712
L78.1355 224.64
L78.3013 230.688
L78.4672 230.688
L78.633 227.664
L78.7988 227.664
L78.9646 230.688
L79.1305 224.64
L79.4621 230.688
L79.6279 230.688
L79.7938 224.64
L79.9596 230.688
L80.1254 230.688
L80.2912 227.664
L80.4571 230.688
L80.7887 230.688
L80.9545 224.64
L81.1204 230.688
L81.2862 230.688
L81.452 233.712
L81.6178 227.664
L81.7837 227.664
L81.9495 230.688
L82.1153 230.688
L82.2811 227.664
L82.447 230.688
L82.6128 227.664
L82.7786 233.712
L82.9444 227.664
L83.1104 230.688
L83.2761 227.664
L83.4419 230.688
L83.6077 224.64
L83.7736 227.664
L84.1052 227.664
L84.2712 224.64
L84.4368 227.664
L84.7685 221.616
L84.9343 221.616
L85.1001 224.64
L85.266 221.616
L85.4318 224.64
L85.5976 221.616
L86.7584 221.616
L86.9242 218.592
L87.09 221.616
L87.2559 218.592
L87.4217 221.616
L87.5875 221.616
L87.7533 218.592
L88.085 224.64
L88.2508 221.616
L88.7483 221.616
L88.9141 218.592
L89.0799 221.616
L89.2458 221.616
L89.4116 218.592
L89.7432 224.64
L89.9091 221.616
L90.4065 221.616
L90.7382 215.568
L90.904 221.616
L91.2357 221.616
L91.4015 218.592
L91.5673 221.616
L91.7331 218.592
L91.899 218.592
L92.0648 221.616
L92.2306 218.592
L92.3964 197.424
L92.5623 200.448
L92.7281 221.616
L92.8939 218.592
L93.0597 200.448
L93.2256 218.592
L93.3914 218.592
L93.723 224.64
L94.0547 224.64
L94.2205 227.664
L94.5522 221.616
L94.718 221.616
L94.8838 227.664
L95.0496 224.64
L95.2155 224.64
L95.3813 227.664
L95.5471 227.664
L95.7129 224.64
L95.8788 224.64
L96.0446 227.664
L96.3762 227.664
L96.5421 224.64
L96.7079 224.64
L96.8737 227.664
L97.0395 224.64
L97.2053 224.64
L97.3712 227.664
L97.7028 221.616
L97.8688 221.616
L98.0345 224.64
L98.2003 221.616
L98.3661 230.688
L98.6978 224.64
L98.8636 227.664
L99.0294 224.64
L99.1952 218.592
L99.3611 221.616
L99.5269 218.592
L99.6927 218.592
L99.8585 203.472
L100.024 218.592
L100.356 218.592
L100.522 221.616
L100.688 218.592
L100.853 221.616
L101.019 221.616
L101.185 218.592
L101.517 218.592
L101.683 221.616
L102.014 215.568
L102.346 221.616
L102.512 218.592
L102.843 218.592
L103.009 215.568
L103.175 221.616
L103.341 218.592
L103.507 221.616
L103.673 218.592
L104.004 218.592
L104.17 221.616
L104.336 221.616
L104.502 215.568
L104.667 218.592
L105.331 218.592
L105.497 221.616
L105.662 221.616
L105.828 215.568
L106.16 221.616
L106.326 218.592
L106.492 218.592
L106.657 215.568
L106.823 221.616
L106.989 221.616
L107.155 218.592
L107.321 218.592
L107.486 221.616
L107.652 221.616
L107.818 218.592
L108.316 218.592
L108.481 221.616
L108.813 221.616
L109.145 215.568
L109.476 221.616
L109.642 215.568
L109.808 218.592
L109.974 218.592
L110.14 221.616
L110.305 215.568
L110.637 221.616
L110.803 218.592
L111.3 218.592
L111.466 221.616
L111.632 218.592
L111.798 218.592
L111.964 221.616
L112.295 215.568
L112.461 218.592
L112.627 215.568
L112.793 218.592
L113.125 218.592
L113.29 215.568
L113.954 215.568
L114.119 218.592
L114.285 215.568
L114.451 215.568
L114.617 218.592
L114.783 215.568
L114.949 218.592
L115.115 212.544
L115.28 215.568
L115.446 215.568
L115.612 212.544
L115.778 212.544
L115.944 209.52
L116.109 212.544
L116.275 212.544
L116.441 215.568
L116.607 212.544
L116.773 215.568
L116.938 215.568
L117.104 218.592
L117.27 215.568
L117.436 215.568
L117.602 218.592
L117.768 215.568
L117.933 221.616
L118.099 215.568
L118.431 221.616
L118.597 218.592
L118.763 218.592
L118.928 221.616
L119.094 218.592
L119.426 218.592
L119.592 215.568
L119.758 218.592
L120.089 218.592
L120.255 215.568
L120.421 218.592
L120.918 218.592
L121.084 221.616
L121.25 218.592
L121.582 218.592
L121.747 221.616
L121.913 221.616
L122.079 218.592
L122.245 221.616
L122.411 221.616
L122.577 218.592
L122.908 218.592
L123.074 221.616
L123.571 221.616
L123.737 215.568
L123.903 221.616
L124.069 218.592
L124.566 218.592
L124.732 224.64
L124.898 221.616
L125.23 227.664
L125.396 227.664
L125.561 224.64
L125.727 230.688
L125.893 230.688
L126.059 227.664
L126.225 227.664
L126.39 233.712
L126.888 224.64
L127.054 230.688
L127.22 230.688
L127.385 224.64
L127.551 224.64
L127.717 230.688
L128.049 224.64
L128.215 227.664
L128.38 227.664
L128.546 230.688
L128.712 227.664
L129.376 227.664
L129.541 224.64
L129.707 230.688
L130.039 230.688
L130.204 227.664
L130.868 227.664
L131.034 224.64
L131.199 224.64
L131.365 221.616
L131.531 227.664
L131.697 227.664
L131.863 221.616
L132.029 227.664
L132.194 227.664
L132.36 221.616
L132.692 227.664
L132.858 224.64
L133.189 224.64
L133.355 218.592
L133.521 221.616
L133.853 221.616
L134.018 218.592
L134.35 224.64
L134.516 218.592
L134.682 221.616
L134.848 221.616
L135.013 218.592
L135.179 218.592
L135.345 221.616
L135.511 221.616
L135.677 218.592
L135.842 218.592
L136.008 215.568
L136.174 221.616
L136.34 218.592
L136.506 221.616
L137.003 221.616
L137.169 218.592
L137.335 224.64
L137.501 221.616
L137.667 221.616
L137.832 224.64
L137.998 221.616
L138.164 221.616
L138.33 224.64
L138.662 218.592
L138.827 221.616
L138.993 221.616
L139.159 218.592
L139.325 218.592
L139.491 221.616
L139.822 221.616
L139.988 218.592
L140.154 218.592
L140.32 224.64
L140.486 218.592
L140.651 224.64
L140.817 224.64
L140.983 227.664
L141.646 227.664
L141.812 230.688
L142.144 230.688
L142.31 227.664
L142.807 227.664
L142.973 230.688
L143.139 227.664
L143.305 227.664
L143.47 224.64
L143.636 227.664
L143.968 227.664
L144.134 224.64
L144.3 224.64
L144.465 230.688
L144.797 224.64
L144.963 224.64
L145.129 227.664
L145.295 227.664
L145.46 224.64
L145.626 227.664
L145.792 227.664
L146.124 221.616
L146.289 224.64
L146.455 224.64
L146.621 227.664
L146.787 224.64
L147.119 230.688
L147.284 227.664
L147.45 227.664
L147.616 224.64
L147.948 230.688
L148.279 224.64
L148.445 224.64
L148.611 230.688
L148.943 224.64
L149.108 224.64
L149.274 221.616
L149.44 224.64
L149.606 221.616
L149.772 224.64
L149.938 221.616
L150.103 221.616
L150.269 218.592
L151.098 218.592
L151.264 221.616
L151.596 221.616
L151.762 218.592
L151.927 221.616
L152.093 221.616
L152.259 218.592
L152.425 221.616
L152.591 218.592
L152.757 221.616
L152.922 218.592
L153.254 224.64
L153.42 224.64
L153.586 221.616
L154.249 221.616
L154.415 218.592
L154.581 221.616
L154.747 218.592
L154.912 221.616
L155.078 218.592
L155.244 221.616
L155.41 221.616
L155.576 218.592
L155.907 224.64
L156.239 218.592
L156.405 224.64
L156.571 221.616
L156.736 221.616
L156.902 224.64
L157.234 224.64
L157.4 230.688
L157.566 230.688
L157.731 227.664
L158.395 227.664
L158.56 224.64
L158.726 224.64
L158.892 227.664
L159.224 227.664
L159.39 224.64
L159.555 230.688
L159.887 224.64
L160.053 224.64
L160.219 227.664
L160.385 224.64
L160.55 227.664
L161.048 227.664
L161.214 209.52
L161.379 206.496
L161.545 209.52
L161.711 227.664
L162.043 227.664
L162.209 224.64
L162.374 224.64
L162.54 227.664
L162.706 227.664
L162.872 224.64
L163.038 230.688
L163.204 224.64
L163.369 227.664
L163.535 227.664
L163.701 224.64
L163.867 224.64
L164.033 221.616
L164.199 224.64
L164.364 221.616
L164.53 221.616
L164.696 224.64
L164.862 221.616
L165.028 224.64
L165.359 218.592
L165.525 221.616
L165.691 221.616
L165.857 218.592
L166.023 221.616
L166.188 221.616
L166.354 218.592
L166.686 218.592
L166.852 221.616
L167.018 218.592
L167.183 221.616
L167.349 218.592
L167.515 221.616
L167.681 218.592
L168.178 218.592
L168.344 221.616
L168.51 218.592
L168.676 221.616
L169.007 221.616
L169.173 218.592
L169.339 221.616
L169.505 218.592
L169.671 221.616
L169.837 218.592
L170.002 221.616
L170.334 221.616
L170.5 218.592
L170.666 221.616
L170.997 221.616
L171.163 224.64
L171.329 224.64
L171.495 218.592
L171.992 218.592
L172.324 224.64
L172.49 221.616
L172.656 227.664
L172.821 224.64
L172.987 224.64
L173.153 227.664
L173.319 224.64
L173.485 227.664
L173.651 227.664
L173.816 230.688
L173.982 224.64
L174.148 227.664
L174.645 227.664
L174.811 224.64
L174.977 230.688
L175.309 224.64
L175.475 227.664
L175.64 224.64
L175.806 227.664
L175.972 227.664
L176.138 230.688
L176.304 227.664
L176.967 227.664
L177.133 230.688
L177.299 230.688
L177.63 224.64
L177.796 224.64
L177.962 227.664
L178.128 227.664
L178.294 224.64
L178.459 227.664
L178.791 227.664
L178.957 224.64
L179.123 227.664
L179.289 224.64
L179.454 224.64
L179.62 227.664
L179.952 227.664
L180.118 230.688
L180.284 224.64
L180.615 224.64
L180.781 221.616
L180.947 221.616
L181.113 215.568
L181.278 218.592
L181.444 224.64
L181.776 218.592
L182.273 218.592
L182.439 221.616
L182.605 221.616
L182.771 218.592
L183.268 218.592
L183.6 224.64
L183.766 218.592
L183.932 218.592
L184.097 221.616
L184.263 218.592
L184.429 221.616
L184.595 221.616
L184.761 224.64
L184.927 221.616
L185.59 221.616
L185.756 218.592
L185.922 218.592
L186.087 221.616
L186.419 221.616
L186.585 218.592
L186.751 218.592
L186.916 221.616
L187.414 221.616
L187.58 224.64
L187.746 218.592
L187.911 218.592
L188.077 224.64
L188.243 218.592
L188.575 224.64
L188.741 230.688
L188.906 224.64
L189.072 224.64
L189.238 227.664
L189.404 224.64
L189.57 227.664
L189.901 227.664
L190.067 221.616
L190.233 227.664
L190.399 224.64
L190.565 230.688
L190.73 224.64
L190.896 224.64
L191.228 230.688
L191.394 221.616
L191.56 230.688
L191.891 224.64
L192.057 230.688
L192.389 224.64
L192.886 224.64
L193.052 227.664
L193.715 227.664
L193.881 224.64
L194.047 224.64
L194.213 227.664
L194.379 224.64
L194.544 227.664
L194.71 224.64
L195.042 224.64
L195.208 227.664
L195.374 227.664
L195.539 230.688
L195.705 227.664
L195.871 227.664
L196.203 221.616
L196.534 221.616
L196.7 218.592
L196.866 221.616
L197.032 218.592
L197.198 221.616
L197.363 218.592
L197.529 221.616
L197.695 218.592
L197.861 221.616
L198.027 218.592
L198.193 218.592
L198.358 221.616
L198.524 215.568
L198.69 221.616
L199.353 221.616
L199.519 218.592
L199.851 218.592
L200.017 221.616
L200.182 221.616
L200.348 218.592
L200.68 218.592
L200.846 221.616
L201.012 215.568
L201.177 221.616
L201.343 218.592
L201.509 218.592
L201.675 221.616
L202.504 221.616
L202.67 218.592
L202.836 218.592
L203.001 221.616
L203.167 218.592
L203.333 218.592
L203.499 203.472
L203.665 218.592
L204.826 218.592
L204.991 221.616
L205.323 221.616
L205.489 227.664
L205.655 224.64
L205.821 227.664
L205.986 224.64
L206.152 227.664
L206.318 224.64
L206.484 227.664
L206.65 224.64
L206.815 224.64
L206.981 227.664
L207.313 227.664
L207.479 224.64
L207.645 230.688
L207.81 227.664
L207.976 230.688
L208.142 230.688
L208.308 224.64
L208.474 230.688
L208.805 224.64
L208.971 227.664
L209.137 227.664
L209.303 224.64
L209.469 227.664
L209.634 224.64
L209.8 227.664
L209.966 224.64
L210.629 224.64
L210.795 221.616
L210.961 221.616
L211.127 218.592
L211.79 218.592
L211.956 221.616
L212.122 218.592
L213.614 218.592
L213.78 215.568
L213.946 218.592
L214.112 215.568
L214.278 215.568
L214.443 221.616
L214.609 218.592
L214.775 218.592
L214.941 215.568
L215.438 215.568
L215.604 221.616
L215.77 218.592
L215.936 218.592
L216.102 215.568
L216.267 218.592
L216.433 215.568
L216.599 215.568
L216.765 218.592
L216.931 215.568
L217.097 218.592
L217.594 218.592
L217.76 215.568
L217.926 218.592
L218.257 218.592
L218.423 221.616
L218.589 212.544
L218.921 218.592
L219.086 218.592
L219.252 221.616
L219.418 218.592
L219.916 218.592
L220.081 215.568
L220.247 218.592
L220.745 218.592
L220.911 215.568
L221.076 218.592
L221.242 215.568
L221.408 218.592
L222.237 218.592
L222.569 212.544
L222.9 221.616
L223.398 212.544
L223.564 212.544
L223.73 215.568
L224.061 215.568
L224.227 209.52
L224.393 215.568
L224.559 212.544
L224.725 212.544
L224.89 209.52
L225.388 209.52
L225.554 215.568
L225.719 212.544
L225.885 212.544
L226.051 209.52
L226.217 212.544
L226.383 209.52
L226.549 215.568
L226.714 212.544
L227.875 212.544
L228.041 215.568
L228.207 212.544
L228.373 215.568
L228.538 212.544
L228.704 215.568
L228.87 215.568
L229.036 218.592
L229.202 215.568
L230.031 215.568
L230.197 218.592
L230.363 215.568
L230.528 218.592
L230.694 212.544
L231.026 218.592
L231.192 218.592
L231.358 215.568
L231.855 215.568
L232.021 218.592
L232.187 215.568
L232.684 215.568
L232.85 218.592
L233.016 212.544
L233.182 218.592
L233.347 215.568
L233.513 215.568
L233.679 212.544
L233.845 212.544
L234.011 215.568
L234.342 215.568
L234.508 212.544
L234.674 215.568
L235.337 215.568
L235.503 218.592
L236.001 218.592
L236.166 221.616
L236.498 221.616
L236.83 227.664
L236.996 224.64
L237.161 227.664
L237.493 227.664
L237.659 224.64
L237.825 224.64
L237.99 227.664
L238.156 224.64
L238.322 227.664
L238.488 224.64
L238.654 227.664
L238.82 227.664
L238.985 224.64
L239.151 227.664
L239.317 227.664
L239.483 224.64
L239.649 227.664
L239.815 224.64
L239.98 230.688
L240.146 227.664
L240.644 227.664
L240.81 236.736
L241.141 230.688
L241.307 233.712
L241.473 233.712
L241.639 236.736
L241.804 233.712
L241.97 233.712
L242.136 212.544
L242.302 233.712
L242.468 236.736
L242.965 236.736
L243.131 239.76
L243.297 233.712
L243.463 239.76
L243.629 236.736
L243.794 239.76
L243.96 239.76
L244.292 233.712
L244.458 239.76
L244.955 230.688
L245.287 230.688
L245.453 227.664
L245.618 230.688
L245.784 227.664
L245.95 230.688
L246.116 230.688
L246.448 224.64
L246.613 227.664
L246.779 227.664
L246.945 230.688
L247.277 230.688
L247.442 227.664
L248.106 227.664
L248.272 224.64
L248.437 227.664
L248.603 224.64
L248.935 230.688
L249.101 227.664
L249.432 227.664
L249.598 224.64
L249.764 227.664
L250.096 227.664
L250.262 221.616
L250.427 224.64
L250.593 203.472
L250.759 227.664
L250.925 224.64
L251.091 224.64
L251.256 203.472
L251.588 227.664
L251.754 227.664
L251.92 224.64
L252.251 230.688
L252.417 230.688
L252.583 233.712
L252.749 233.712
L252.915 230.688
L253.081 233.712
L253.246 233.712
L253.412 230.688
L253.744 230.688
L253.91 233.712
L254.075 230.688
L254.241 236.736
L254.407 233.712
L254.573 236.736
L254.739 233.712
L254.905 233.712
L255.07 236.736
L255.402 236.736
L255.568 239.76
L255.9 233.712
L256.065 239.76
L256.231 239.76
L256.397 236.736
L256.563 239.76
L256.729 236.736
L257.226 236.736
L257.392 239.76
L257.558 236.736
L257.724 236.736
L257.889 239.76
L258.055 236.736
L258.553 236.736
L258.719 233.712
L258.884 236.736
L259.05 236.736
L259.216 239.76
L259.382 239.76
L259.548 236.736
L260.211 236.736
L260.377 233.712
L260.543 236.736
L260.874 230.688
L261.04 233.712
L261.206 230.688
L261.869 230.688
L262.035 224.64
L262.201 227.664
L262.533 227.664
L262.698 233.712
L262.864 230.688
L263.196 230.688
L263.362 227.664
L263.527 230.688
L263.693 227.664
L263.859 230.688
L264.025 227.664
L264.357 227.664
L264.522 224.64
L264.688 227.664
L264.854 227.664
L265.02 224.64
L265.186 230.688
L265.352 227.664
L265.517 230.688
L265.683 227.664
L265.849 230.688
L266.015 227.664
L266.181 227.664
L266.347 224.64
L266.512 224.64
L266.844 230.688
L267.176 230.688
L267.507 224.64
L267.673 224.64
L267.839 227.664
L268.005 233.712
L268.171 233.712
L268.336 236.736
L269 236.736
L269.166 239.76
L269.331 233.712
L269.663 239.76
L270.326 239.76
L270.658 233.712
L270.824 236.736
L271.155 236.736
L271.321 233.712
L271.487 239.76
L271.653 239.76
L271.819 236.736
L271.985 236.736
L272.15 239.76
L272.316 236.736
L272.482 236.736
L272.648 233.712
L272.814 236.736
L273.311 236.736
L273.477 233.712
L273.643 239.76
L273.809 236.736
L274.14 236.736
L274.306 233.712
L274.638 239.76
L274.804 233.712
L275.301 233.712
L275.467 236.736
L275.633 236.736
L275.799 239.76
L275.964 233.712
L276.13 233.712
L276.462 227.664
L276.628 230.688
L276.959 230.688
L277.291 224.64
L277.457 227.664
L277.788 227.664
L277.954 224.64
L278.12 224.64
L278.286 227.664
L278.452 224.64
L278.949 224.64
L279.115 227.664
L279.281 221.616
L279.447 221.616
L279.612 224.64
L279.778 224.64
L279.944 221.616
L280.11 224.64
L280.773 224.64
L280.939 221.616
L281.105 224.64
L281.271 224.64
L281.437 227.664
L281.602 224.64
L281.934 224.64
L282.1 227.664
L282.266 221.616
L282.432 224.64
L282.597 221.616
L282.929 221.616
L283.095 224.64
L283.261 221.616
L283.426 224.64
L283.592 224.64
L283.758 227.664
L284.09 227.664
L284.256 236.736
L284.421 230.688
L284.587 230.688
L284.753 236.736
L284.919 233.712
L285.085 233.712
L285.251 236.736
L285.914 236.736
L286.08 242.784
L286.411 236.736
L287.075 236.736
L287.24 239.76
L287.406 236.736
L287.572 242.784
L287.904 233.712
L288.235 239.76
L288.401 236.736
L288.733 236.736
L288.899 239.76
L289.064 239.76
L289.23 236.736
L289.396 239.76
L289.562 236.736
L289.728 239.76
L289.894 236.736
L291.22 236.736
L291.386 233.712
L291.552 236.736
L291.718 233.712
L291.884 233.712
L292.215 227.664
L292.381 230.688
L292.713 230.688
L292.878 227.664
L293.044 227.664
L293.21 224.64
L293.376 227.664
L293.542 227.664
L293.708 221.616
L293.873 227.664
L294.039 224.64
L294.205 224.64
L294.371 227.664
L294.537 227.664
L294.703 224.64
L295.2 224.64
L295.366 221.616
L295.532 224.64
L295.697 224.64
L295.863 221.616
L296.029 224.64
L296.527 224.64
L296.692 227.664
L297.024 221.616
L297.19 224.64
L297.356 221.616
L297.522 224.64
L297.687 221.616
L297.853 224.64
L298.848 224.64
L299.014 218.592
L299.346 218.592
L299.511 224.64
L299.677 224.64
L300.009 230.688
L300.175 227.664
L300.341 233.712
L301.004 233.712
L301.17 236.736
L301.336 236.736
L301.501 233.712
L301.667 236.736
L302.165 236.736
L302.33 233.712
L302.496 233.712
L302.662 239.76
L302.828 236.736
L303.491 236.736
L303.657 239.76
L303.823 236.736
L304.32 236.736
L304.486 239.76
L304.652 236.736
L305.149 236.736
L305.315 233.712
L305.647 233.712
L305.813 236.736
L306.642 236.736
L306.808 239.76
L306.974 233.712
L307.139 236.736
L307.471 236.736
L307.637 233.712
L307.803 233.712
L307.968 230.688
L308.466 230.688
L308.632 227.664
L308.798 230.688
L309.129 230.688
L309.295 227.664
L309.461 227.664
L309.627 224.64
L309.793 224.64
L309.958 227.664
L310.124 221.616
L310.29 203.472
L310.456 224.64
L310.622 227.664
L311.119 227.664
L311.285 203.472
L311.451 224.64
L311.617 206.496
L311.782 224.64
L311.948 224.64
L312.114 221.616
L312.28 224.64
L312.612 224.64
L312.777 227.664
L312.943 224.64
L313.109 224.64
L313.275 227.664
L313.441 224.64
L313.607 227.664
L313.772 224.64
L313.938 227.664
L314.104 224.64
L314.27 224.64
L314.436 227.664
L314.601 224.64
L314.933 224.64
L315.099 227.664
L315.431 227.664
L315.596 224.64
L316.094 224.64
L316.26 227.664
L316.426 227.664
L316.923 236.736
L317.089 236.736
L317.255 233.712
L317.421 239.76
L317.586 233.712
L317.752 236.736
L317.918 236.736
L318.084 239.76
L318.25 230.688
L318.415 233.712
L318.581 233.712
L318.747 236.736
L318.913 236.736
L319.079 233.712
L319.245 236.736
L319.41 236.736
L319.576 230.688
L319.742 233.712
L319.908 239.76
L320.074 236.736
L320.405 236.736
L320.571 233.712
L321.4 233.712
L321.566 236.736
L321.732 236.736
L321.898 230.688
L322.064 233.712
L322.229 230.688
L322.395 230.688
L322.561 227.664
L323.556 227.664
L323.722 230.688
L323.888 227.664
L324.053 227.664
L324.219 224.64
L324.717 224.64
L324.883 227.664
L325.048 227.664
L325.214 221.616
L325.38 227.664
L325.546 227.664
L325.712 224.64
L325.878 227.664
L326.043 224.64
L326.209 227.664
L326.375 224.64
L326.707 224.64
L326.873 221.616
L327.038 224.64
L327.204 224.64
L327.37 221.616
L327.536 224.64
L327.702 224.64
L327.867 227.664
L328.033 221.616
L328.531 221.616
L328.697 224.64
L328.862 224.64
L329.028 221.616
L329.194 224.64
L329.36 221.616
L329.692 221.616
L329.857 224.64
L330.023 224.64
L330.189 221.616
L330.355 221.616
L330.521 224.64
L330.686 221.616
L330.852 221.616
L331.018 224.64
L331.184 221.616
L331.35 221.616
L331.516 224.64
L331.681 221.616
L332.179 221.616
L332.345 224.64
L332.511 221.616
L332.676 224.64
L332.842 221.616
L333.008 221.616
L333.174 224.64
L333.505 218.592
L333.671 218.592
L334.003 224.64
L334.169 221.616
L334.998 221.616
L335.164 224.64
L335.33 221.616
L335.827 221.616
L335.993 218.592
L336.325 218.592
L336.49 221.616
L337.154 221.616
L337.319 224.64
L337.485 224.64
L337.817 218.592
L338.149 224.64
L338.314 197.424
L338.48 221.616
L338.646 218.592
L338.812 221.616
L338.978 221.616
L339.144 218.592
L339.309 221.616
L339.475 215.568
L339.807 215.568
L339.973 221.616
L340.304 221.616
L340.47 218.592
L340.636 221.616
L340.802 215.568
L340.968 221.616
L341.133 218.592
L341.299 221.616
L341.631 221.616
L341.797 218.592
L341.963 218.592
L342.128 221.616
L342.294 218.592
L342.46 221.616
L342.626 218.592
L342.792 221.616
L342.958 218.592
L343.123 218.592
L343.289 221.616
L343.455 221.616
L343.621 218.592
L343.787 221.616
L344.284 221.616
L344.45 218.592
L344.947 218.592
L345.113 221.616
L345.279 218.592
L345.445 200.448
L345.611 218.592
L345.777 215.568
L345.942 215.568
L346.274 221.616
L346.44 218.592
L346.606 221.616
L346.771 218.592
L347.103 218.592
L347.269 194.4
L347.435 218.592
L347.601 218.592
L348.264 251.856
L348.43 254.88
L348.761 254.88
L348.927 251.856
L349.093 251.856
L349.259 254.88
L349.425 251.856
L349.756 260.928
L349.922 251.856
L350.088 254.88
L350.254 251.856
L350.585 263.952
L350.751 251.856
L350.917 260.928
L351.415 260.928
L351.58 263.952
L351.746 257.904
L351.912 263.952
L352.244 251.856
L352.41 260.928
L352.575 260.928
L352.907 254.88
L353.073 260.928
L353.239 245.808
L353.404 251.856
L353.57 248.832
L353.736 251.856
L353.902 248.832
L354.068 248.832
L354.234 251.856
L354.399 248.832
L355.229 248.832
L355.394 251.856
L355.56 251.856
L355.726 248.832
L355.892 254.88
L356.058 245.808
L356.223 245.808
L356.721 236.736
L356.887 239.76
L357.219 239.76
L357.384 236.736
L357.55 236.736
L357.716 233.712
L357.882 236.736
L358.048 233.712
L358.213 233.712
L358.379 236.736
L358.545 233.712
L358.711 236.736
L359.042 230.688
L359.208 230.688
L359.374 233.712
L359.54 233.712
L359.706 230.688
L359.872 233.712
L360.037 230.688
L360.203 230.688
L360.369 233.712
L360.701 227.664
L360.867 233.712
L361.032 233.712
L361.198 230.688
L361.364 233.712
L361.53 233.712
L361.696 230.688
L361.862 233.712
L362.027 230.688
L362.193 230.688
L362.359 233.712
L362.525 230.688
L362.691 233.712
L363.022 227.664
L363.188 227.664
L363.686 245.808
L364.017 245.808
L364.183 248.832
L364.349 245.808
L364.515 245.808
L364.681 248.832
L364.846 248.832
L365.012 239.76
L365.178 251.856
L365.344 245.808
L365.675 254.88
L366.007 248.832
L366.173 248.832
L366.339 245.808
L366.505 248.832
L366.67 248.832
L366.836 251.856
L367.002 242.784
L367.168 248.832
L367.334 245.808
L367.5 248.832
L367.665 242.784
L367.831 245.808
L367.997 245.808
L368.163 242.784
L368.329 242.784
L368.66 248.832
L368.826 245.808
L369.158 245.808
L369.324 248.832
L369.821 248.832
L369.987 245.808
L370.319 251.856
L370.484 245.808
L370.65 245.808
L370.816 239.76
L370.982 242.784
L371.148 242.784
L371.314 248.832
L371.479 245.808
L371.645 248.832
L371.811 242.784
L371.977 245.808
L372.143 242.784
L372.308 248.832
L372.474 245.808
L372.64 248.832
L372.806 245.808
L373.469 245.808
L373.635 242.784
L373.801 245.808
L373.967 242.784
L374.133 242.784
L374.298 245.808
L374.464 245.808
L374.63 239.76
L374.796 245.808
L374.962 242.784
L375.791 242.784
L375.957 245.808
L376.122 245.808
L376.288 239.76
L376.454 248.832
L376.62 245.808
L376.952 245.808
L377.117 248.832
L377.283 245.808
L377.615 245.808
L377.947 239.76
L378.112 245.808
L378.278 239.76
L378.444 245.808
L378.776 245.808
L378.941 242.784
L379.107 245.808
L379.605 245.808
L379.771 242.784
L379.936 245.808
L380.102 245.808
L380.268 248.832
L380.434 245.808
L380.6 245.808
L380.766 248.832
L380.931 245.808
L381.097 248.832
L381.429 248.832
L381.595 251.856
L381.76 251.856
L381.926 248.832
L382.092 248.832
L382.258 245.808
L382.424 251.856
L382.756 245.808
L383.087 245.808
L383.253 242.784
L383.419 242.784
L383.585 248.832
L383.75 248.832
L383.916 251.856
L384.082 242.784
L384.248 245.808
L384.414 245.808
L384.579 251.856
L384.745 248.832
L384.911 248.832
L385.077 245.808
L385.243 248.832
L385.574 242.784
L385.74 242.784
L385.906 248.832
L386.072 245.808
L386.404 245.808
L386.569 242.784
L386.735 242.784
L386.901 239.76
L387.233 248.832
L387.399 242.784
L387.564 242.784
L387.73 248.832
L387.896 242.784
L388.062 245.808
L388.393 245.808
L388.559 248.832
L388.725 242.784
L388.891 245.808
L389.223 245.808
L389.388 242.784
L389.554 245.808
L389.72 239.76
L389.886 245.808
L390.052 245.808
L390.218 242.784
L390.383 245.808
L390.549 242.784
L390.715 242.784
L390.881 245.808
L391.047 242.784
L391.212 245.808
L391.544 245.808
L391.71 242.784
L392.042 242.784
L392.207 239.76
L392.373 242.784
L392.539 239.76
L392.705 245.808
L392.871 242.784
L393.037 242.784
L393.202 245.808
L393.534 239.76
L393.7 242.784
L394.032 242.784
L394.197 239.76
L394.363 242.784
L394.529 242.784
L394.695 245.808
L394.861 239.76
L395.192 245.808
L395.358 239.76
L395.856 248.832
L396.187 233.712
L396.353 245.808
L396.519 239.76
L396.685 245.808
L397.016 245.808
L397.182 239.76
L397.348 245.808
L397.845 245.808
L398.011 242.784
L398.177 245.808
L398.343 239.76
L398.675 245.808
L398.84 242.784
L399.172 242.784
L399.338 245.808
L399.504 245.808
L399.67 242.784
L399.835 242.784
L400.167 236.736
L400.333 239.76
L400.664 224.64
L400.83 221.616
L400.996 227.664
L401.162 221.616
L401.659 239.76
L401.825 236.736
L401.991 239.76
L402.157 233.712
L402.323 239.76
L402.654 239.76
L402.82 236.736
L402.986 239.76
L403.152 239.76
L403.318 236.736
L403.484 236.736
L403.649 233.712
L403.815 236.736
L403.981 233.712
L404.147 233.712
L404.313 230.688
L404.976 230.688
L405.142 227.664
L405.308 227.664
L405.473 230.688
L405.805 230.688
L406.137 224.64
L406.303 227.664
L406.634 227.664
L406.8 230.688
L406.966 230.688
L407.132 224.64
L407.297 227.664
L407.463 227.664
L407.629 224.64
L407.795 227.664
L407.961 224.64
L408.127 224.64
L408.292 227.664
L408.956 227.664
L409.122 230.688
L409.453 224.64
L409.619 227.664
L409.785 224.64
L409.951 227.664
L410.116 227.664
L410.282 221.616
L410.448 224.64
L410.78 224.64
L410.946 227.664
L411.111 224.64
L411.277 227.664
L411.443 233.712
L411.609 233.712
L411.775 239.76
L411.941 233.712
L412.106 239.76
L412.272 239.76
L412.438 236.736
L412.604 239.76
L412.936 239.76
L413.101 236.736
L413.267 242.784
L413.599 233.712
L414.096 233.712
L414.262 242.784
L414.428 236.736
L414.594 239.76
L415.423 239.76
L415.589 236.736
L415.755 239.76
L415.92 236.736
L416.086 239.76
L416.252 236.736
L416.418 239.76
L416.584 236.736
L416.749 236.736
L416.915 242.784
L417.081 236.736
L417.247 242.784
L417.413 239.76
L417.579 239.76
L417.744 245.808
L417.91 242.784
L418.076 242.784
L418.242 239.76
L418.408 245.808
L418.574 242.784
L418.739 242.784
L418.905 239.76
L419.071 242.784
L419.237 239.76
L419.403 242.784
L419.568 242.784
L419.734 239.76
L419.9 239.76
L420.066 242.784
L420.232 239.76
L420.398 245.808
L420.895 236.736
L421.061 242.784
L421.393 236.736
L421.558 239.76
L421.724 236.736
L421.89 242.784
L422.056 239.76
L422.885 239.76
L423.051 236.736
L423.217 242.784
L423.548 236.736
L423.714 239.76
L423.88 239.76
L424.046 236.736
L424.377 236.736
L424.543 239.76
L424.709 233.712
L425.041 233.712
L425.207 236.736
L426.201 236.736
L426.367 233.712
L426.533 233.712
L426.699 239.76
L426.865 239.76
L427.031 236.736
L427.196 239.76
L427.528 239.76
L427.694 236.736
L427.86 239.76
L428.191 239.76
L428.357 242.784
L428.523 239.76
L428.689 242.784
L428.855 242.784
L429.021 245.808
L429.186 242.784
L429.352 245.808
L429.85 245.808
L430.015 242.784
L430.181 245.808
L430.513 245.808
L430.679 242.784
L430.845 242.784
L431.01 245.808
L431.176 242.784
L431.342 245.808
L431.508 239.76
L431.674 242.784
L431.84 242.784
L432.005 245.808
L432.171 239.76
L432.503 245.808
L432.669 242.784
L432.834 242.784
L433 245.808
L433.166 242.784
L433.332 242.784
L433.498 239.76
L433.664 242.784
L433.829 242.784
L433.995 239.76
L434.327 239.76
L434.493 233.712
L434.659 239.76
L434.824 236.736
L434.99 236.736
L435.156 239.76
L435.322 236.736
L436.317 236.736
L436.483 239.76
L436.648 239.76
L436.814 236.736
L437.478 236.736
L437.643 233.712
L437.809 239.76
L438.141 236.736
L438.307 242.784
L438.638 242.784
L438.804 239.76
L439.136 239.76
L439.302 236.736
L439.467 236.736
L439.633 233.712
L439.799 233.712
L439.965 236.736
L440.628 236.736
L440.794 239.76
L441.623 239.76
L441.789 236.736
L442.452 236.736
L442.618 233.712
L442.784 236.736
L442.95 233.712
L443.116 233.712
L443.281 239.76
L443.447 236.736
L443.613 236.736
L443.779 233.712
L444.111 239.76
L444.276 233.712
L444.442 239.76
L444.608 233.712
L444.94 239.76
L445.105 233.712
L445.271 233.712
L445.603 239.76
L445.769 233.712
L445.935 236.736
L446.432 236.736
L446.598 233.712
L446.764 236.736
L446.93 233.712
L447.095 236.736
L447.261 233.712
L447.759 233.712
L447.925 236.736
L448.256 230.688
L448.588 236.736
L448.754 230.688
L449.085 236.736
L449.251 233.712
L449.749 233.712
L449.914 209.52
L450.08 233.712
L450.246 236.736
L450.412 236.736
L450.578 233.712
L450.744 233.712
L450.909 236.736
L451.075 233.712
L451.241 215.568
L451.573 236.736
L451.904 236.736
L452.07 233.712
L452.236 233.712
L452.402 236.736
L452.568 236.736
L452.733 233.712
L452.899 233.712
L453.065 236.736
L453.231 233.712
L453.397 233.712
L453.563 236.736
L453.728 233.712
L453.894 236.736
L454.558 236.736
L454.723 233.712
L455.055 233.712
L455.221 236.736
L455.387 236.736
L455.552 233.712
L455.718 236.736
L455.884 230.688
L456.05 236.736
L456.216 230.688
L456.382 236.736
L456.547 233.712
L457.045 233.712
L457.211 230.688
L457.377 233.712
L457.708 233.712
L457.874 236.736
L458.04 236.736
L458.206 233.712
L458.537 239.76
L458.703 236.736
L458.869 236.736
L459.035 239.76
L459.366 239.76
L459.532 242.784
L459.864 242.784
L460.03 236.736
L460.361 242.784
L460.693 236.736
L460.859 242.784
L461.025 242.784
L461.19 239.76
L461.356 239.76
L461.522 242.784
L461.688 242.784
L461.854 239.76
L462.02 245.808
L462.185 239.76
L462.351 245.808
L462.517 239.76
L462.849 245.808
L463.015 245.808
L463.18 242.784
L463.346 245.808
L463.678 245.808
L464.01 239.76
L464.341 245.808
L464.507 245.808
L464.673 242.784
L465.004 242.784
L465.336 248.832
L465.502 242.784
L465.668 245.808
L465.834 242.784
L465.999 245.808
L466.165 242.784
L466.331 245.808
L466.829 245.808
L466.994 239.76
L467.16 245.808
L467.492 245.808
L467.658 242.784
L467.823 242.784
L467.989 239.76
L468.155 239.76
L468.321 236.736
L468.653 242.784
L468.818 236.736
L468.984 239.76
L469.316 239.76
L469.482 236.736
L469.648 236.736
L469.813 239.76
L469.979 236.736
L470.145 239.76
L470.642 239.76
L470.808 233.712
L471.14 239.76
L471.306 239.76
L471.637 233.712
L471.803 236.736
L472.467 236.736
L472.632 239.76
L472.964 239.76
L473.13 236.736
L473.296 239.76
L473.462 236.736
L473.627 239.76
L473.793 236.736
L473.959 242.784
L474.125 239.76
L474.291 239.76
L474.456 236.736
L474.788 236.736
L475.12 242.784
L475.286 242.784
L475.451 239.76
L475.617 242.784
L476.115 242.784
L476.281 245.808
L476.446 242.784
L476.612 242.784
L476.778 239.76
L476.944 242.784
L477.11 239.76
L477.441 239.76
L477.607 242.784
L478.27 242.784
L478.436 245.808
L478.768 239.76
L478.934 242.784
L479.1 239.76
L479.265 245.808
L479.597 239.76
L479.763 242.784
L479.929 239.76
L480.095 239.76
L480.26 242.784
L480.426 242.784
L480.592 239.76
L480.758 242.784
L480.924 239.76
L481.089 242.784
L481.587 242.784
L481.919 236.736
L482.084 239.76
L482.25 239.76
L482.416 242.784
L482.582 239.76
L482.748 239.76
L482.914 242.784
L483.245 236.736
L483.411 236.736
L483.577 230.688
L483.743 239.76
L483.908 233.712
L484.572 233.712
L484.738 230.688
L484.903 233.712
L485.235 227.664
L485.401 233.712
L485.567 230.688
L485.733 230.688
L485.898 227.664
L486.064 233.712
L486.23 227.664
L486.396 233.712
L486.562 227.664
L486.893 227.664
L487.059 230.688
L487.225 230.688
L487.557 224.64
L487.722 230.688
L487.888 227.664
L488.22 227.664
L488.386 230.688
L488.552 230.688
L488.717 233.712
L488.883 230.688
L489.049 233.712
L489.381 227.664
L489.547 230.688
L489.712 230.688
L489.878 227.664
L490.707 227.664
L490.873 233.712
L491.371 233.712
L491.536 239.76
L491.868 239.76
L492.034 236.736
L492.531 236.736
L492.863 242.784
L493.029 239.76
L493.195 239.76
L493.36 242.784
L494.024 242.784
L494.19 239.76
L494.521 239.76
L494.687 245.808
L494.853 239.76
L495.185 239.76
L495.35 236.736
L495.682 236.736
L495.848 239.76
L496.014 245.808
L496.179 239.76
L496.345 242.784
L496.511 242.784
L496.677 239.76
L496.843 239.76
L497.009 236.736
L497.174 242.784
L497.34 236.736
L497.506 242.784
L497.672 236.736
L497.838 242.784
L498.335 233.712
L498.501 233.712
L498.667 239.76
L498.833 236.736
L498.999 230.688
L499.164 233.712
L499.33 176.256
L499.496 230.688
L499.662 230.688
L499.828 233.712
L499.993 227.664
L500.325 227.664
L500.491 230.688
L500.657 230.688
L500.823 227.664
L500.988 230.688
L501.154 227.664
L501.32 230.688
L501.486 224.64
L501.652 227.664
L501.818 224.64
L501.983 224.64
L502.315 230.688
L502.481 227.664
L502.647 230.688
L502.812 224.64
L502.978 227.664
L503.144 224.64
L503.476 224.64
L503.642 227.664
L503.807 224.64
L504.305 224.64
L504.471 227.664
L504.637 224.64
L504.802 224.64
L504.968 227.664
L505.3 227.664
L505.466 224.64
L505.632 227.664
L505.797 224.64
L505.963 224.64
L506.129 227.664
L506.295 224.64
L506.461 227.664
L506.626 233.712
L506.958 233.712
L507.124 236.736
L507.29 236.736
L507.456 242.784
L507.787 242.784
L507.953 239.76
L508.285 239.76
L508.451 236.736
L508.616 236.736
L508.948 245.808
L509.114 236.736
L509.28 242.784
L509.445 239.76
L509.611 239.76
L509.777 236.736
L509.943 245.808
L510.109 239.76
L510.275 242.784
L510.44 239.76
L510.606 242.784
L510.772 239.76
L510.938 239.76
L511.104 242.784
L511.27 239.76
L511.435 242.784
L511.601 239.76
L512.099 239.76
L512.264 236.736
L512.43 242.784
L512.596 236.736
L512.762 242.784
L512.928 239.76
L513.094 239.76
L513.259 236.736
L513.425 239.76
L513.757 239.76
L513.923 236.736
L514.089 239.76
L514.586 239.76
L514.752 173.232
L514.918 176.256
L515.084 176.256
L515.249 227.664
L515.415 170.208
L515.581 167.184
L515.747 167.184
L515.913 164.16
L516.244 170.208
L516.41 167.184
L516.576 167.184
L516.742 164.16
L516.908 167.184
L517.073 164.16
L517.239 167.184
L517.405 164.16
L518.068 164.16
L518.234 167.184
L518.4 167.184
L518.4 167.184" style="fill:none;stroke:#0000ff;stroke-linecap:square;"/>
   </g>
   <g id="line2d_2">
    <path clip-path="url(#pcb2bf987bf)" d="
M72 88.56
L518.4 88.56" style="fill:none;stroke:#ff0000;stroke-linecap:square;"/>
   </g>
   <g id="matplotlib.axis_1">
    <g id="xtick_1">
     <g id="line2d_3">
      <path clip-path="url(#pcb2bf987bf)" d="
M87.919 345.6
L87.919 43.2" style="fill:none;stroke:#000000;stroke-dasharray:1.000000,3.000000;stroke-dashoffset:0.0;stroke-width:0.5;"/>
     </g>
     <g id="line2d_4">
      <defs>
       <path d="
M0 0
L0 -4" id="m93b0483c22" style="stroke:#000000;stroke-width:0.5;"/>
      </defs>
      <g>
       <use style="stroke:#000000;stroke-width:0.5;" x="87.9189836532" xlink:href="#m93b0483c22" y="345.6"/>
      </g>
     </g>
     <g id="line2d_5">
      <defs>
       <path d="
M0 0
L0 4" id="m741efc42ff" style="stroke:#000000;stroke-width:0.5;"/>
      </defs>
      <g>
       <use style="stroke:#000000;stroke-width:0.5;" x="87.9189836532" xlink:href="#m741efc42ff" y="43.2"/>
      </g>
     </g>
     <g id="text_1">
      <!-- Jun21 -->
      <defs>
       <path d="
M54.8906 33.0156
L54.8906 0
L45.9062 0
L45.9062 32.7188
Q45.9062 40.4844 42.875 44.3281
Q39.8438 48.1875 33.7969 48.1875
Q26.5156 48.1875 22.3125 43.5469
Q18.1094 38.9219 18.1094 30.9062
L18.1094 0
L9.07812 0
L9.07812 54.6875
L18.1094 54.6875
L18.1094 46.1875
Q21.3438 51.125 25.7031 53.5625
Q30.0781 56 35.7969 56
Q45.2188 56 50.0469 50.1719
Q54.8906 44.3438 54.8906 33.0156" id="BitstreamVeraSans-Roman-6e"/>
       <path d="
M19.1875 8.29688
L53.6094 8.29688
L53.6094 0
L7.32812 0
L7.32812 8.29688
Q12.9375 14.1094 22.625 23.8906
Q32.3281 33.6875 34.8125 36.5312
Q39.5469 41.8438 41.4219 45.5312
Q43.3125 49.2188 43.3125 52.7812
Q43.3125 58.5938 39.2344 62.25
Q35.1562 65.9219 28.6094 65.9219
Q23.9688 65.9219 18.8125 64.3125
Q13.6719 62.7031 7.8125 59.4219
L7.8125 69.3906
Q13.7656 71.7812 18.9375 73
Q24.125 74.2188 28.4219 74.2188
Q39.75 74.2188 46.4844 68.5469
Q53.2188 62.8906 53.2188 53.4219
Q53.2188 48.9219 51.5312 44.8906
Q49.8594 40.875 45.4062 35.4062
Q44.1875 33.9844 37.6406 27.2188
Q31.1094 20.4531 19.1875 8.29688" id="BitstreamVeraSans-Roman-32"/>
       <path d="
M12.4062 8.29688
L28.5156 8.29688
L28.5156 63.9219
L10.9844 60.4062
L10.9844 69.3906
L28.4219 72.9062
L38.2812 72.9062
L38.2812 8.29688
L54.3906 8.29688
L54.3906 0
L12.4062 0
z
" id="BitstreamVeraSans-Roman-31"/>
       <path d="
M8.5 21.5781
L8.5 54.6875
L17.4844 54.6875
L17.4844 21.9219
Q17.4844 14.1562 20.5 10.2656
Q23.5312 6.39062 29.5938 6.39062
Q36.8594 6.39062 41.0781 11.0312
Q45.3125 15.6719 45.3125 23.6875
L45.3125 54.6875
L54.2969 54.6875
L54.2969 0
L45.3125 0
L45.3125 8.40625
Q42.0469 3.42188 37.7188 1
Q33.4062 -1.42188 27.6875 -1.42188
Q18.2656 -1.42188 13.375 4.4375
Q8.5 10.2969 8.5 21.5781" id="BitstreamVeraSans-Roman-75"/>
       <path d="
M9.8125 72.9062
L19.6719 72.9062
L19.6719 5.07812
Q19.6719 -8.10938 14.6719 -14.0625
Q9.67188 -20.0156 -1.42188 -20.0156
L-5.17188 -20.0156
L-5.17188 -11.7188
L-2.09375 -11.7188
Q4.4375 -11.7188 7.125 -8.04688
Q9.8125 -4.39062 9.8125 5.07812
z
" id="BitstreamVeraSans-Roman-4a"/>
      </defs>
      <g transform="translate(57.6311743008 374.262777885)rotate(-30.0)scale(0.12 -0.12)">
       <use xlink:href="#BitstreamVeraSans-Roman-4a"/>
       <use x="29.4921875" xlink:href="#BitstreamVeraSans-Roman-75"/>
       <use x="92.87109375" xlink:href="#BitstreamVeraSans-Roman-6e"/>
       <use x="156.25" xlink:href="#BitstreamVeraSans-Roman-32"/>
       <use x="219.873046875" xlink:href="#BitstreamVeraSans-Roman-31"/>
      </g>
     </g>
    </g>
    <g id="xtick_2">
     <g id="line2d_6">
      <path clip-path="url(#pcb2bf987bf)" d="
M135.676 345.6
L135.676 43.2" style="fill:none;stroke:#000000;stroke-dasharray:1.000000,3.000000;stroke-dashoffset:0.0;stroke-width:0.5;"/>
     </g>
     <g id="line2d_7">
      <g>
       <use style="stroke:#000000;stroke-width:0.5;" x="135.676487368" xlink:href="#m93b0483c22" y="345.6"/>
      </g>
     </g>
     <g id="line2d_8">
      <g>
       <use style="stroke:#000000;stroke-width:0.5;" x="135.676487368" xlink:href="#m741efc42ff" y="43.2"/>
      </g>
     </g>
     <g id="text_2">
      <!-- Jun24 -->
      <defs>
       <path d="
M37.7969 64.3125
L12.8906 25.3906
L37.7969 25.3906
z

M35.2031 72.9062
L47.6094 72.9062
L47.6094 25.3906
L58.0156 25.3906
L58.0156 17.1875
L47.6094 17.1875
L47.6094 0
L37.7969 0
L37.7969 17.1875
L4.89062 17.1875
L4.89062 26.7031
z
" id="BitstreamVeraSans-Roman-34"/>
      </defs>
      <g transform="translate(105.011956965 374.480277885)rotate(-30.0)scale(0.12 -0.12)">
       <use xlink:href="#BitstreamVeraSans-Roman-4a"/>
       <use x="29.4921875" xlink:href="#BitstreamVeraSans-Roman-75"/>
       <use x="92.87109375" xlink:href="#BitstreamVeraSans-Roman-6e"/>
       <use x="156.25" xlink:href="#BitstreamVeraSans-Roman-32"/>
       <use x="219.873046875" xlink:href="#BitstreamVeraSans-Roman-34"/>
      </g>
     </g>
    </g>
    <g id="xtick_3">
     <g id="line2d_9">
      <path clip-path="url(#pcb2bf987bf)" d="
M183.434 345.6
L183.434 43.2" style="fill:none;stroke:#000000;stroke-dasharray:1.000000,3.000000;stroke-dashoffset:0.0;stroke-width:0.5;"/>
     </g>
     <g id="line2d_10">
      <g>
       <use style="stroke:#000000;stroke-width:0.5;" x="183.433991084" xlink:href="#m93b0483c22" y="345.6"/>
      </g>
     </g>
     <g id="line2d_11">
      <g>
       <use style="stroke:#000000;stroke-width:0.5;" x="183.433991084" xlink:href="#m741efc42ff" y="43.2"/>
      </g>
     </g>
     <g id="text_3">
      <!-- Jun27 -->
      <defs>
       <path d="
M8.20312 72.9062
L55.0781 72.9062
L55.0781 68.7031
L28.6094 0
L18.3125 0
L43.2188 64.5938
L8.20312 64.5938
z
" id="BitstreamVeraSans-Roman-37"/>
      </defs>
      <g transform="translate(153.074734636 374.304027885)rotate(-30.0)scale(0.12 -0.12)">
       <use xlink:href="#BitstreamVeraSans-Roman-4a"/>
       <use x="29.4921875" xlink:href="#BitstreamVeraSans-Roman-75"/>
       <use x="92.87109375" xlink:href="#BitstreamVeraSans-Roman-6e"/>
       <use x="156.25" xlink:href="#BitstreamVeraSans-Roman-32"/>
       <use x="219.873046875" xlink:href="#BitstreamVeraSans-Roman-37"/>
      </g>
     </g>
    </g>
    <g id="xtick_4">
     <g id="line2d_12">
      <path clip-path="url(#pcb2bf987bf)" d="
M231.191 345.6
L231.191 43.2" style="fill:none;stroke:#000000;stroke-dasharray:1.000000,3.000000;stroke-dashoffset:0.0;stroke-width:0.5;"/>
     </g>
     <g id="line2d_13">
      <g>
       <use style="stroke:#000000;stroke-width:0.5;" x="231.191494798" xlink:href="#m93b0483c22" y="345.6"/>
      </g>
     </g>
     <g id="line2d_14">
      <g>
       <use style="stroke:#000000;stroke-width:0.5;" x="231.191494798" xlink:href="#m741efc42ff" y="43.2"/>
      </g>
     </g>
     <g id="text_4">
      <!-- Jun30 -->
      <defs>
       <path d="
M40.5781 39.3125
Q47.6562 37.7969 51.625 33
Q55.6094 28.2188 55.6094 21.1875
Q55.6094 10.4062 48.1875 4.48438
Q40.7656 -1.42188 27.0938 -1.42188
Q22.5156 -1.42188 17.6562 -0.515625
Q12.7969 0.390625 7.625 2.20312
L7.625 11.7188
Q11.7188 9.32812 16.5938 8.10938
Q21.4844 6.89062 26.8125 6.89062
Q36.0781 6.89062 40.9375 10.5469
Q45.7969 14.2031 45.7969 21.1875
Q45.7969 27.6406 41.2812 31.2656
Q36.7656 34.9062 28.7188 34.9062
L20.2188 34.9062
L20.2188 43.0156
L29.1094 43.0156
Q36.375 43.0156 40.2344 45.9219
Q44.0938 48.8281 44.0938 54.2969
Q44.0938 59.9062 40.1094 62.9062
Q36.1406 65.9219 28.7188 65.9219
Q24.6562 65.9219 20.0156 65.0312
Q15.375 64.1562 9.8125 62.3125
L9.8125 71.0938
Q15.4375 72.6562 20.3438 73.4375
Q25.25 74.2188 29.5938 74.2188
Q40.8281 74.2188 47.3594 69.1094
Q53.9062 64.0156 53.9062 55.3281
Q53.9062 49.2656 50.4375 45.0938
Q46.9688 40.9219 40.5781 39.3125" id="BitstreamVeraSans-Roman-33"/>
       <path d="
M31.7812 66.4062
Q24.1719 66.4062 20.3281 58.9062
Q16.5 51.4219 16.5 36.375
Q16.5 21.3906 20.3281 13.8906
Q24.1719 6.39062 31.7812 6.39062
Q39.4531 6.39062 43.2812 13.8906
Q47.125 21.3906 47.125 36.375
Q47.125 51.4219 43.2812 58.9062
Q39.4531 66.4062 31.7812 66.4062
M31.7812 74.2188
Q44.0469 74.2188 50.5156 64.5156
Q56.9844 54.8281 56.9844 36.375
Q56.9844 17.9688 50.5156 8.26562
Q44.0469 -1.42188 31.7812 -1.42188
Q19.5312 -1.42188 13.0625 8.26562
Q6.59375 17.9688 6.59375 36.375
Q6.59375 54.8281 13.0625 64.5156
Q19.5312 74.2188 31.7812 74.2188" id="BitstreamVeraSans-Roman-30"/>
      </defs>
      <g transform="translate(200.634135039 374.418402885)rotate(-30.0)scale(0.12 -0.12)">
       <use xlink:href="#BitstreamVeraSans-Roman-4a"/>
       <use x="29.4921875" xlink:href="#BitstreamVeraSans-Roman-75"/>
       <use x="92.87109375" xlink:href="#BitstreamVeraSans-Roman-6e"/>
       <use x="156.25" xlink:href="#BitstreamVeraSans-Roman-33"/>
       <use x="219.873046875" xlink:href="#BitstreamVeraSans-Roman-30"/>
      </g>
     </g>
    </g>
    <g id="xtick_5">
     <g id="line2d_15">
      <path clip-path="url(#pcb2bf987bf)" d="
M278.949 345.6
L278.949 43.2" style="fill:none;stroke:#000000;stroke-dasharray:1.000000,3.000000;stroke-dashoffset:0.0;stroke-width:0.5;"/>
     </g>
     <g id="line2d_16">
      <g>
       <use style="stroke:#000000;stroke-width:0.5;" x="278.948998513" xlink:href="#m93b0483c22" y="345.6"/>
      </g>
     </g>
     <g id="line2d_17">
      <g>
       <use style="stroke:#000000;stroke-width:0.5;" x="278.948998513" xlink:href="#m741efc42ff" y="43.2"/>
      </g>
     </g>
     <g id="text_5">
      <!-- Jul03 -->
      <defs>
       <path d="
M9.42188 75.9844
L18.4062 75.9844
L18.4062 0
L9.42188 0
z
" id="BitstreamVeraSans-Roman-6c"/>
      </defs>
      <g transform="translate(252.233543951 372.200277885)rotate(-30.0)scale(0.12 -0.12)">
       <use xlink:href="#BitstreamVeraSans-Roman-4a"/>
       <use x="29.4921875" xlink:href="#BitstreamVeraSans-Roman-75"/>
       <use x="92.87109375" xlink:href="#BitstreamVeraSans-Roman-6c"/>
       <use x="120.654296875" xlink:href="#BitstreamVeraSans-Roman-30"/>
       <use x="184.27734375" xlink:href="#BitstreamVeraSans-Roman-33"/>
      </g>
     </g>
    </g>
    <g id="xtick_6">
     <g id="line2d_18">
      <path clip-path="url(#pcb2bf987bf)" d="
M326.707 345.6
L326.707 43.2" style="fill:none;stroke:#000000;stroke-dasharray:1.000000,3.000000;stroke-dashoffset:0.0;stroke-width:0.5;"/>
     </g>
     <g id="line2d_19">
      <g>
       <use style="stroke:#000000;stroke-width:0.5;" x="326.706502227" xlink:href="#m93b0483c22" y="345.6"/>
      </g>
     </g>
     <g id="line2d_20">
      <g>
       <use style="stroke:#000000;stroke-width:0.5;" x="326.706502227" xlink:href="#m741efc42ff" y="43.2"/>
      </g>
     </g>
     <g id="text_6">
      <!-- Jul06 -->
      <defs>
       <path d="
M33.0156 40.375
Q26.375 40.375 22.4844 35.8281
Q18.6094 31.2969 18.6094 23.3906
Q18.6094 15.5312 22.4844 10.9531
Q26.375 6.39062 33.0156 6.39062
Q39.6562 6.39062 43.5312 10.9531
Q47.4062 15.5312 47.4062 23.3906
Q47.4062 31.2969 43.5312 35.8281
Q39.6562 40.375 33.0156 40.375
M52.5938 71.2969
L52.5938 62.3125
Q48.875 64.0625 45.0938 64.9844
Q41.3125 65.9219 37.5938 65.9219
Q27.8281 65.9219 22.6719 59.3281
Q17.5312 52.7344 16.7969 39.4062
Q19.6719 43.6562 24.0156 45.9219
Q28.375 48.1875 33.5938 48.1875
Q44.5781 48.1875 50.9531 41.5156
Q57.3281 34.8594 57.3281 23.3906
Q57.3281 12.1562 50.6875 5.35938
Q44.0469 -1.42188 33.0156 -1.42188
Q20.3594 -1.42188 13.6719 8.26562
Q6.98438 17.9688 6.98438 36.375
Q6.98438 53.6562 15.1875 63.9375
Q23.3906 74.2188 37.2031 74.2188
Q40.9219 74.2188 44.7031 73.4844
Q48.4844 72.75 52.5938 71.2969" id="BitstreamVeraSans-Roman-36"/>
      </defs>
      <g transform="translate(299.812429926 372.303402885)rotate(-30.0)scale(0.12 -0.12)">
       <use xlink:href="#BitstreamVeraSans-Roman-4a"/>
       <use x="29.4921875" xlink:href="#BitstreamVeraSans-Roman-75"/>
       <use x="92.87109375" xlink:href="#BitstreamVeraSans-Roman-6c"/>
       <use x="120.654296875" xlink:href="#BitstreamVeraSans-Roman-30"/>
       <use x="184.27734375" xlink:href="#BitstreamVeraSans-Roman-36"/>
      </g>
     </g>
    </g>
    <g id="xtick_7">
     <g id="line2d_21">
      <path clip-path="url(#pcb2bf987bf)" d="
M374.464 345.6
L374.464 43.2" style="fill:none;stroke:#000000;stroke-dasharray:1.000000,3.000000;stroke-dashoffset:0.0;stroke-width:0.5;"/>
     </g>
     <g id="line2d_22">
      <g>
       <use style="stroke:#000000;stroke-width:0.5;" x="374.464005942" xlink:href="#m93b0483c22" y="345.6"/>
      </g>
     </g>
     <g id="line2d_23">
      <g>
       <use style="stroke:#000000;stroke-width:0.5;" x="374.464005942" xlink:href="#m741efc42ff" y="43.2"/>
      </g>
     </g>
     <g id="text_7">
      <!-- Jul09 -->
      <defs>
       <path d="
M10.9844 1.51562
L10.9844 10.5
Q14.7031 8.73438 18.5 7.8125
Q22.3125 6.89062 25.9844 6.89062
Q35.75 6.89062 40.8906 13.4531
Q46.0469 20.0156 46.7812 33.4062
Q43.9531 29.2031 39.5938 26.9531
Q35.25 24.7031 29.9844 24.7031
Q19.0469 24.7031 12.6719 31.3125
Q6.29688 37.9375 6.29688 49.4219
Q6.29688 60.6406 12.9375 67.4219
Q19.5781 74.2188 30.6094 74.2188
Q43.2656 74.2188 49.9219 64.5156
Q56.5938 54.8281 56.5938 36.375
Q56.5938 19.1406 48.4062 8.85938
Q40.2344 -1.42188 26.4219 -1.42188
Q22.7031 -1.42188 18.8906 -0.6875
Q15.0938 0.046875 10.9844 1.51562
M30.6094 32.4219
Q37.25 32.4219 41.125 36.9531
Q45.0156 41.5 45.0156 49.4219
Q45.0156 57.2812 41.125 61.8438
Q37.25 66.4062 30.6094 66.4062
Q23.9688 66.4062 20.0938 61.8438
Q16.2188 57.2812 16.2188 49.4219
Q16.2188 41.5 20.0938 36.9531
Q23.9688 32.4219 30.6094 32.4219" id="BitstreamVeraSans-Roman-39"/>
      </defs>
      <g transform="translate(347.646252129 372.259340385)rotate(-30.0)scale(0.12 -0.12)">
       <use xlink:href="#BitstreamVeraSans-Roman-4a"/>
       <use x="29.4921875" xlink:href="#BitstreamVeraSans-Roman-75"/>
       <use x="92.87109375" xlink:href="#BitstreamVeraSans-Roman-6c"/>
       <use x="120.654296875" xlink:href="#BitstreamVeraSans-Roman-30"/>
       <use x="184.27734375" xlink:href="#BitstreamVeraSans-Roman-39"/>
      </g>
     </g>
    </g>
    <g id="xtick_8">
     <g id="line2d_24">
      <path clip-path="url(#pcb2bf987bf)" d="
M422.222 345.6
L422.222 43.2" style="fill:none;stroke:#000000;stroke-dasharray:1.000000,3.000000;stroke-dashoffset:0.0;stroke-width:0.5;"/>
     </g>
     <g id="line2d_25">
      <g>
       <use style="stroke:#000000;stroke-width:0.5;" x="422.221509658" xlink:href="#m93b0483c22" y="345.6"/>
      </g>
     </g>
     <g id="line2d_26">
      <g>
       <use style="stroke:#000000;stroke-width:0.5;" x="422.221509658" xlink:href="#m741efc42ff" y="43.2"/>
      </g>
     </g>
     <g id="text_8">
      <!-- Jul12 -->
      <g transform="translate(395.713901193 372.080277885)rotate(-30.0)scale(0.12 -0.12)">
       <use xlink:href="#BitstreamVeraSans-Roman-4a"/>
       <use x="29.4921875" xlink:href="#BitstreamVeraSans-Roman-75"/>
       <use x="92.87109375" xlink:href="#BitstreamVeraSans-Roman-6c"/>
       <use x="120.654296875" xlink:href="#BitstreamVeraSans-Roman-31"/>
       <use x="184.27734375" xlink:href="#BitstreamVeraSans-Roman-32"/>
      </g>
     </g>
    </g>
    <g id="xtick_9">
     <g id="line2d_27">
      <path clip-path="url(#pcb2bf987bf)" d="
M469.979 345.6
L469.979 43.2" style="fill:none;stroke:#000000;stroke-dasharray:1.000000,3.000000;stroke-dashoffset:0.0;stroke-width:0.5;"/>
     </g>
     <g id="line2d_28">
      <g>
       <use style="stroke:#000000;stroke-width:0.5;" x="469.979013372" xlink:href="#m93b0483c22" y="345.6"/>
      </g>
     </g>
     <g id="line2d_29">
      <g>
       <use style="stroke:#000000;stroke-width:0.5;" x="469.979013372" xlink:href="#m741efc42ff" y="43.2"/>
      </g>
     </g>
     <g id="text_9">
      <!-- Jul15 -->
      <defs>
       <path d="
M10.7969 72.9062
L49.5156 72.9062
L49.5156 64.5938
L19.8281 64.5938
L19.8281 46.7344
Q21.9688 47.4688 24.1094 47.8281
Q26.2656 48.1875 28.4219 48.1875
Q40.625 48.1875 47.75 41.5
Q54.8906 34.8125 54.8906 23.3906
Q54.8906 11.625 47.5625 5.09375
Q40.2344 -1.42188 26.9062 -1.42188
Q22.3125 -1.42188 17.5469 -0.640625
Q12.7969 0.140625 7.71875 1.70312
L7.71875 11.625
Q12.1094 9.23438 16.7969 8.0625
Q21.4844 6.89062 26.7031 6.89062
Q35.1562 6.89062 40.0781 11.3281
Q45.0156 15.7656 45.0156 23.3906
Q45.0156 31 40.0781 35.4375
Q35.1562 39.8906 26.7031 39.8906
Q22.75 39.8906 18.8125 39.0156
Q14.8906 38.1406 10.7969 36.2812
z
" id="BitstreamVeraSans-Roman-35"/>
      </defs>
      <g transform="translate(443.338253501 372.157152885)rotate(-30.0)scale(0.12 -0.12)">
       <use xlink:href="#BitstreamVeraSans-Roman-4a"/>
       <use x="29.4921875" xlink:href="#BitstreamVeraSans-Roman-75"/>
       <use x="92.87109375" xlink:href="#BitstreamVeraSans-Roman-6c"/>
       <use x="120.654296875" xlink:href="#BitstreamVeraSans-Roman-31"/>
       <use x="184.27734375" xlink:href="#BitstreamVeraSans-Roman-35"/>
      </g>
     </g>
    </g>
    <g id="xtick_10">
     <g id="line2d_30">
      <path clip-path="url(#pcb2bf987bf)" d="
M517.737 345.6
L517.737 43.2" style="fill:none;stroke:#000000;stroke-dasharray:1.000000,3.000000;stroke-dashoffset:0.0;stroke-width:0.5;"/>
     </g>
     <g id="line2d_31">
      <g>
       <use style="stroke:#000000;stroke-width:0.5;" x="517.736517087" xlink:href="#m93b0483c22" y="345.6"/>
      </g>
     </g>
     <g id="line2d_32">
      <g>
       <use style="stroke:#000000;stroke-width:0.5;" x="517.736517087" xlink:href="#m741efc42ff" y="43.2"/>
      </g>
     </g>
     <g id="text_10">
      <!-- Jul18 -->
      <defs>
       <path d="
M31.7812 34.625
Q24.75 34.625 20.7188 30.8594
Q16.7031 27.0938 16.7031 20.5156
Q16.7031 13.9219 20.7188 10.1562
Q24.75 6.39062 31.7812 6.39062
Q38.8125 6.39062 42.8594 10.1719
Q46.9219 13.9688 46.9219 20.5156
Q46.9219 27.0938 42.8906 30.8594
Q38.875 34.625 31.7812 34.625
M21.9219 38.8125
Q15.5781 40.375 12.0312 44.7188
Q8.5 49.0781 8.5 55.3281
Q8.5 64.0625 14.7188 69.1406
Q20.9531 74.2188 31.7812 74.2188
Q42.6719 74.2188 48.875 69.1406
Q55.0781 64.0625 55.0781 55.3281
Q55.0781 49.0781 51.5312 44.7188
Q48 40.375 41.7031 38.8125
Q48.8281 37.1562 52.7969 32.3125
Q56.7812 27.4844 56.7812 20.5156
Q56.7812 9.90625 50.3125 4.23438
Q43.8438 -1.42188 31.7812 -1.42188
Q19.7344 -1.42188 13.25 4.23438
Q6.78125 9.90625 6.78125 20.5156
Q6.78125 27.4844 10.7812 32.3125
Q14.7969 37.1562 21.9219 38.8125
M18.3125 54.3906
Q18.3125 48.7344 21.8438 45.5625
Q25.3906 42.3906 31.7812 42.3906
Q38.1406 42.3906 41.7188 45.5625
Q45.3125 48.7344 45.3125 54.3906
Q45.3125 60.0625 41.7188 63.2344
Q38.1406 66.4062 31.7812 66.4062
Q25.3906 66.4062 21.8438 63.2344
Q18.3125 60.0625 18.3125 54.3906" id="BitstreamVeraSans-Roman-38"/>
      </defs>
      <g transform="translate(490.899277702 372.270590385)rotate(-30.0)scale(0.12 -0.12)">
       <use xlink:href="#BitstreamVeraSans-Roman-4a"/>
       <use x="29.4921875" xlink:href="#BitstreamVeraSans-Roman-75"/>
       <use x="92.87109375" xlink:href="#BitstreamVeraSans-Roman-6c"/>
       <use x="120.654296875" xlink:href="#BitstreamVeraSans-Roman-31"/>
       <use x="184.27734375" xlink:href="#BitstreamVeraSans-Roman-38"/>
      </g>
     </g>
    </g>
   </g>
   <g id="matplotlib.axis_2">
    <g id="ytick_1">
     <g id="line2d_33">
      <path clip-path="url(#pcb2bf987bf)" d="
M72 345.6
L518.4 345.6" style="fill:none;stroke:#000000;stroke-dasharray:1.000000,3.000000;stroke-dashoffset:0.0;stroke-width:0.5;"/>
     </g>
     <g id="line2d_34">
      <defs>
       <path d="
M0 0
L4 0" id="m728421d6d4" style="stroke:#000000;stroke-width:0.5;"/>
      </defs>
      <g>
       <use style="stroke:#000000;stroke-width:0.5;" x="72.0" xlink:href="#m728421d6d4" y="345.6"/>
      </g>
     </g>
     <g id="line2d_35">
      <defs>
       <path d="
M0 0
L-4 0" id="mcb0005524f" style="stroke:#000000;stroke-width:0.5;"/>
      </defs>
      <g>
       <use style="stroke:#000000;stroke-width:0.5;" x="518.4" xlink:href="#mcb0005524f" y="345.6"/>
      </g>
     </g>
     <g id="text_11">
      <!-- 0 -->
      <g transform="translate(61.953125 348.91125)scale(0.12 -0.12)">
       <use xlink:href="#BitstreamVeraSans-Roman-30"/>
      </g>
     </g>
    </g>
    <g id="ytick_2">
     <g id="line2d_36">
      <path clip-path="url(#pcb2bf987bf)" d="
M72 285.12
L518.4 285.12" style="fill:none;stroke:#000000;stroke-dasharray:1.000000,3.000000;stroke-dashoffset:0.0;stroke-width:0.5;"/>
     </g>
     <g id="line2d_37">
      <g>
       <use style="stroke:#000000;stroke-width:0.5;" x="72.0" xlink:href="#m728421d6d4" y="285.12"/>
      </g>
     </g>
     <g id="line2d_38">
      <g>
       <use style="stroke:#000000;stroke-width:0.5;" x="518.4" xlink:href="#mcb0005524f" y="285.12"/>
      </g>
     </g>
     <g id="text_12">
      <!-- 20 -->
      <g transform="translate(54.40625 288.43125)scale(0.12 -0.12)">
       <use xlink:href="#BitstreamVeraSans-Roman-32"/>
       <use x="63.623046875" xlink:href="#BitstreamVeraSans-Roman-30"/>
      </g>
     </g>
    </g>
    <g id="ytick_3">
     <g id="line2d_39">
      <path clip-path="url(#pcb2bf987bf)" d="
M72 224.64
L518.4 224.64" style="fill:none;stroke:#000000;stroke-dasharray:1.000000,3.000000;stroke-dashoffset:0.0;stroke-width:0.5;"/>
     </g>
     <g id="line2d_40">
      <g>
       <use style="stroke:#000000;stroke-width:0.5;" x="72.0" xlink:href="#m728421d6d4" y="224.64"/>
      </g>
     </g>
     <g id="line2d_41">
      <g>
       <use style="stroke:#000000;stroke-width:0.5;" x="518.4" xlink:href="#mcb0005524f" y="224.64"/>
      </g>
     </g>
     <g id="text_13">
      <!-- 40 -->
      <g transform="translate(54.11375 227.95125)scale(0.12 -0.12)">
       <use xlink:href="#BitstreamVeraSans-Roman-34"/>
       <use x="63.623046875" xlink:href="#BitstreamVeraSans-Roman-30"/>
      </g>
     </g>
    </g>
    <g id="ytick_4">
     <g id="line2d_42">
      <path clip-path="url(#pcb2bf987bf)" d="
M72 164.16
L518.4 164.16" style="fill:none;stroke:#000000;stroke-dasharray:1.000000,3.000000;stroke-dashoffset:0.0;stroke-width:0.5;"/>
     </g>
     <g id="line2d_43">
      <g>
       <use style="stroke:#000000;stroke-width:0.5;" x="72.0" xlink:href="#m728421d6d4" y="164.16"/>
      </g>
     </g>
     <g id="line2d_44">
      <g>
       <use style="stroke:#000000;stroke-width:0.5;" x="518.4" xlink:href="#mcb0005524f" y="164.16"/>
      </g>
     </g>
     <g id="text_14">
      <!-- 60 -->
      <g transform="translate(54.365 167.47125)scale(0.12 -0.12)">
       <use xlink:href="#BitstreamVeraSans-Roman-36"/>
       <use x="63.623046875" xlink:href="#BitstreamVeraSans-Roman-30"/>
      </g>
     </g>
    </g>
    <g id="ytick_5">
     <g id="line2d_45">
      <path clip-path="url(#pcb2bf987bf)" d="
M72 103.68
L518.4 103.68" style="fill:none;stroke:#000000;stroke-dasharray:1.000000,3.000000;stroke-dashoffset:0.0;stroke-width:0.5;"/>
     </g>
     <g id="line2d_46">
      <g>
       <use style="stroke:#000000;stroke-width:0.5;" x="72.0" xlink:href="#m728421d6d4" y="103.68"/>
      </g>
     </g>
     <g id="line2d_47">
      <g>
       <use style="stroke:#000000;stroke-width:0.5;" x="518.4" xlink:href="#mcb0005524f" y="103.68"/>
      </g>
     </g>
     <g id="text_15">
      <!-- 80 -->
      <g transform="translate(54.340625 106.99125)scale(0.12 -0.12)">
       <use xlink:href="#BitstreamVeraSans-Roman-38"/>
       <use x="63.623046875" xlink:href="#BitstreamVeraSans-Roman-30"/>
      </g>
     </g>
    </g>
    <g id="ytick_6">
     <g id="line2d_48">
      <path clip-path="url(#pcb2bf987bf)" d="
M72 43.2
L518.4 43.2" style="fill:none;stroke:#000000;stroke-dasharray:1.000000,3.000000;stroke-dashoffset:0.0;stroke-width:0.5;"/>
     </g>
     <g id="line2d_49">
      <g>
       <use style="stroke:#000000;stroke-width:0.5;" x="72.0" xlink:href="#m728421d6d4" y="43.2"/>
      </g>
     </g>
     <g id="line2d_50">
      <g>
       <use style="stroke:#000000;stroke-width:0.5;" x="518.4" xlink:href="#mcb0005524f" y="43.2"/>
      </g>
     </g>
     <g id="text_16">
      <!-- 100 -->
      <g transform="translate(47.21 46.51125)scale(0.12 -0.12)">
       <use xlink:href="#BitstreamVeraSans-Roman-31"/>
       <use x="63.623046875" xlink:href="#BitstreamVeraSans-Roman-30"/>
       <use x="127.24609375" xlink:href="#BitstreamVeraSans-Roman-30"/>
      </g>
     </g>
    </g>
    <g id="text_17">
     <!-- temperature (C) -->
     <defs>
      <path d="
M34.2812 27.4844
Q23.3906 27.4844 19.1875 25
Q14.9844 22.5156 14.9844 16.5
Q14.9844 11.7188 18.1406 8.90625
Q21.2969 6.10938 26.7031 6.10938
Q34.1875 6.10938 38.7031 11.4062
Q43.2188 16.7031 43.2188 25.4844
L43.2188 27.4844
z

M52.2031 31.2031
L52.2031 0
L43.2188 0
L43.2188 8.29688
Q40.1406 3.32812 35.5469 0.953125
Q30.9531 -1.42188 24.3125 -1.42188
Q15.9219 -1.42188 10.9531 3.29688
Q6 8.01562 6 15.9219
Q6 25.1406 12.1719 29.8281
Q18.3594 34.5156 30.6094 34.5156
L43.2188 34.5156
L43.2188 35.4062
Q43.2188 41.6094 39.1406 45
Q35.0625 48.3906 27.6875 48.3906
Q23 48.3906 18.5469 47.2656
Q14.1094 46.1406 10.0156 43.8906
L10.0156 52.2031
Q14.9375 54.1094 19.5781 55.0469
Q24.2188 56 28.6094 56
Q40.4844 56 46.3438 49.8438
Q52.2031 43.7031 52.2031 31.2031" id="BitstreamVeraSans-Roman-61"/>
      <path id="BitstreamVeraSans-Roman-20"/>
      <path d="
M8.01562 75.875
L15.8281 75.875
Q23.1406 64.3594 26.7812 53.3125
Q30.4219 42.2812 30.4219 31.3906
Q30.4219 20.4531 26.7812 9.375
Q23.1406 -1.70312 15.8281 -13.1875
L8.01562 -13.1875
Q14.5 -2 17.7031 9.0625
Q20.9062 20.125 20.9062 31.3906
Q20.9062 42.6719 17.7031 53.6562
Q14.5 64.6562 8.01562 75.875" id="BitstreamVeraSans-Roman-29"/>
      <path d="
M52 44.1875
Q55.375 50.25 60.0625 53.125
Q64.75 56 71.0938 56
Q79.6406 56 84.2812 50.0156
Q88.9219 44.0469 88.9219 33.0156
L88.9219 0
L79.8906 0
L79.8906 32.7188
Q79.8906 40.5781 77.0938 44.375
Q74.3125 48.1875 68.6094 48.1875
Q61.625 48.1875 57.5625 43.5469
Q53.5156 38.9219 53.5156 30.9062
L53.5156 0
L44.4844 0
L44.4844 32.7188
Q44.4844 40.625 41.7031 44.4062
Q38.9219 48.1875 33.1094 48.1875
Q26.2188 48.1875 22.1562 43.5312
Q18.1094 38.875 18.1094 30.9062
L18.1094 0
L9.07812 0
L9.07812 54.6875
L18.1094 54.6875
L18.1094 46.1875
Q21.1875 51.2188 25.4844 53.6094
Q29.7812 56 35.6875 56
Q41.6562 56 45.8281 52.9688
Q50 49.9531 52 44.1875" id="BitstreamVeraSans-Roman-6d"/>
      <path d="
M64.4062 67.2812
L64.4062 56.8906
Q59.4219 61.5312 53.7812 63.8125
Q48.1406 66.1094 41.7969 66.1094
Q29.2969 66.1094 22.6562 58.4688
Q16.0156 50.8281 16.0156 36.375
Q16.0156 21.9688 22.6562 14.3281
Q29.2969 6.6875 41.7969 6.6875
Q48.1406 6.6875 53.7812 8.98438
Q59.4219 11.2812 64.4062 15.9219
L64.4062 5.60938
Q59.2344 2.09375 53.4375 0.328125
Q47.6562 -1.42188 41.2188 -1.42188
Q24.6562 -1.42188 15.125 8.70312
Q5.60938 18.8438 5.60938 36.375
Q5.60938 53.9531 15.125 64.0781
Q24.6562 74.2188 41.2188 74.2188
Q47.75 74.2188 53.5312 72.4844
Q59.3281 70.75 64.4062 67.2812" id="BitstreamVeraSans-Roman-43"/>
      <path d="
M31 75.875
Q24.4688 64.6562 21.2812 53.6562
Q18.1094 42.6719 18.1094 31.3906
Q18.1094 20.125 21.3125 9.0625
Q24.5156 -2 31 -13.1875
L23.1875 -13.1875
Q15.875 -1.70312 12.2344 9.375
Q8.59375 20.4531 8.59375 31.3906
Q8.59375 42.2812 12.2031 53.3125
Q15.8281 64.3594 23.1875 75.875
z
" id="BitstreamVeraSans-Roman-28"/>
      <path d="
M56.2031 29.5938
L56.2031 25.2031
L14.8906 25.2031
Q15.4844 15.9219 20.4844 11.0625
Q25.4844 6.20312 34.4219 6.20312
Q39.5938 6.20312 44.4531 7.46875
Q49.3125 8.73438 54.1094 11.2812
L54.1094 2.78125
Q49.2656 0.734375 44.1875 -0.34375
Q39.1094 -1.42188 33.8906 -1.42188
Q20.7969 -1.42188 13.1562 6.1875
Q5.51562 13.8125 5.51562 26.8125
Q5.51562 40.2344 12.7656 48.1094
Q20.0156 56 32.3281 56
Q43.3594 56 49.7812 48.8906
Q56.2031 41.7969 56.2031 29.5938
M47.2188 32.2344
Q47.125 39.5938 43.0938 43.9844
Q39.0625 48.3906 32.4219 48.3906
Q24.9062 48.3906 20.3906 44.1406
Q15.875 39.8906 15.1875 32.1719
z
" id="BitstreamVeraSans-Roman-65"/>
      <path d="
M18.3125 70.2188
L18.3125 54.6875
L36.8125 54.6875
L36.8125 47.7031
L18.3125 47.7031
L18.3125 18.0156
Q18.3125 11.3281 20.1406 9.42188
Q21.9688 7.51562 27.5938 7.51562
L36.8125 7.51562
L36.8125 0
L27.5938 0
Q17.1875 0 13.2344 3.875
Q9.28125 7.76562 9.28125 18.0156
L9.28125 47.7031
L2.6875 47.7031
L2.6875 54.6875
L9.28125 54.6875
L9.28125 70.2188
z
" id="BitstreamVeraSans-Roman-74"/>
      <path d="
M41.1094 46.2969
Q39.5938 47.1719 37.8125 47.5781
Q36.0312 48 33.8906 48
Q26.2656 48 22.1875 43.0469
Q18.1094 38.0938 18.1094 28.8125
L18.1094 0
L9.07812 0
L9.07812 54.6875
L18.1094 54.6875
L18.1094 46.1875
Q20.9531 51.1719 25.4844 53.5781
Q30.0312 56 36.5312 56
Q37.4531 56 38.5781 55.875
Q39.7031 55.7656 41.0625 55.5156
z
" id="BitstreamVeraSans-Roman-72"/>
      <path d="
M18.1094 8.20312
L18.1094 -20.7969
L9.07812 -20.7969
L9.07812 54.6875
L18.1094 54.6875
L18.1094 46.3906
Q20.9531 51.2656 25.2656 53.625
Q29.5938 56 35.5938 56
Q45.5625 56 51.7812 48.0938
Q58.0156 40.1875 58.0156 27.2969
Q58.0156 14.4062 51.7812 6.48438
Q45.5625 -1.42188 35.5938 -1.42188
Q29.5938 -1.42188 25.2656 0.953125
Q20.9531 3.32812 18.1094 8.20312
M48.6875 27.2969
Q48.6875 37.2031 44.6094 42.8438
Q40.5312 48.4844 33.4062 48.4844
Q26.2656 48.4844 22.1875 42.8438
Q18.1094 37.2031 18.1094 27.2969
Q18.1094 17.3906 22.1875 11.75
Q26.2656 6.10938 33.4062 6.10938
Q40.5312 6.10938 44.6094 11.75
Q48.6875 17.3906 48.6875 27.2969" id="BitstreamVeraSans-Roman-70"/>
     </defs>
     <g transform="translate(39.714375 242.37375)rotate(-90.0)scale(0.12 -0.12)">
      <use xlink:href="#BitstreamVeraSans-Roman-74"/>
      <use x="39.208984375" xlink:href="#BitstreamVeraSans-Roman-65"/>
      <use x="100.732421875" xlink:href="#BitstreamVeraSans-Roman-6d"/>
      <use x="198.14453125" xlink:href="#BitstreamVeraSans-Roman-70"/>
      <use x="261.62109375" xlink:href="#BitstreamVeraSans-Roman-65"/>
      <use x="323.14453125" xlink:href="#BitstreamVeraSans-Roman-72"/>
      <use x="364.2578125" xlink:href="#BitstreamVeraSans-Roman-61"/>
      <use x="425.537109375" xlink:href="#BitstreamVeraSans-Roman-74"/>
      <use x="464.74609375" xlink:href="#BitstreamVeraSans-Roman-75"/>
      <use x="528.125" xlink:href="#BitstreamVeraSans-Roman-72"/>
      <use x="566.98828125" xlink:href="#BitstreamVeraSans-Roman-65"/>
      <use x="628.51171875" xlink:href="#BitstreamVeraSans-Roman-20"/>
      <use x="660.298828125" xlink:href="#BitstreamVeraSans-Roman-28"/>
      <use x="699.3125" xlink:href="#BitstreamVeraSans-Roman-43"/>
      <use x="769.13671875" xlink:href="#BitstreamVeraSans-Roman-29"/>
     </g>
    </g>
   </g>
   <g id="patch_3">
    <path d="
M72 43.2
L518.4 43.2" style="fill:none;stroke:#000000;"/>
   </g>
   <g id="patch_4">
    <path d="
M518.4 345.6
L518.4 43.2" style="fill:none;stroke:#000000;"/>
   </g>
   <g id="patch_5">
    <path d="
M72 345.6
L518.4 345.6" style="fill:none;stroke:#000000;"/>
   </g>
   <g id="patch_6">
    <path d="
M72 345.6
L72 43.2" style="fill:none;stroke:#000000;"/>
   </g>
   <g id="text_18">
    <!-- CPU critical temperature -->
    <defs>
     <path d="
M19.6719 64.7969
L19.6719 37.4062
L32.0781 37.4062
Q38.9688 37.4062 42.7188 40.9688
Q46.4844 44.5312 46.4844 51.125
Q46.4844 57.6719 42.7188 61.2344
Q38.9688 64.7969 32.0781 64.7969
z

M9.8125 72.9062
L32.0781 72.9062
Q44.3438 72.9062 50.6094 67.3594
Q56.8906 61.8125 56.8906 51.125
Q56.8906 40.3281 50.6094 34.8125
Q44.3438 29.2969 32.0781 29.2969
L19.6719 29.2969
L19.6719 0
L9.8125 0
z
" id="BitstreamVeraSans-Roman-50"/>
     <path d="
M9.42188 54.6875
L18.4062 54.6875
L18.4062 0
L9.42188 0
z

M9.42188 75.9844
L18.4062 75.9844
L18.4062 64.5938
L9.42188 64.5938
z
" id="BitstreamVeraSans-Roman-69"/>
     <path d="
M8.6875 72.9062
L18.6094 72.9062
L18.6094 28.6094
Q18.6094 16.8906 22.8438 11.7344
Q27.0938 6.59375 36.625 6.59375
Q46.0938 6.59375 50.3438 11.7344
Q54.5938 16.8906 54.5938 28.6094
L54.5938 72.9062
L64.5 72.9062
L64.5 27.3906
Q64.5 13.1406 57.4375 5.85938
Q50.3906 -1.42188 36.625 -1.42188
Q22.7969 -1.42188 15.7344 5.85938
Q8.6875 13.1406 8.6875 27.3906
z
" id="BitstreamVeraSans-Roman-55"/>
     <path d="
M48.7812 52.5938
L48.7812 44.1875
Q44.9688 46.2969 41.1406 47.3438
Q37.3125 48.3906 33.4062 48.3906
Q24.6562 48.3906 19.8125 42.8438
Q14.9844 37.3125 14.9844 27.2969
Q14.9844 17.2812 19.8125 11.7344
Q24.6562 6.20312 33.4062 6.20312
Q37.3125 6.20312 41.1406 7.25
Q44.9688 8.29688 48.7812 10.4062
L48.7812 2.09375
Q45.0156 0.34375 40.9844 -0.53125
Q36.9688 -1.42188 32.4219 -1.42188
Q20.0625 -1.42188 12.7812 6.34375
Q5.51562 14.1094 5.51562 27.2969
Q5.51562 40.6719 12.8594 48.3281
Q20.2188 56 33.0156 56
Q37.1562 56 41.1094 55.1406
Q45.0625 54.2969 48.7812 52.5938" id="BitstreamVeraSans-Roman-63"/>
    </defs>
    <g style="fill:#ff0000;" transform="translate(71.9999999981 85.536)scale(0.12 -0.12)">
     <use xlink:href="#BitstreamVeraSans-Roman-43"/>
     <use x="69.82421875" xlink:href="#BitstreamVeraSans-Roman-50"/>
     <use x="130.126953125" xlink:href="#BitstreamVeraSans-Roman-55"/>
     <use x="203.3203125" xlink:href="#BitstreamVeraSans-Roman-20"/>
     <use x="235.107421875" xlink:href="#BitstreamVeraSans-Roman-63"/>
     <use x="290.087890625" xlink:href="#BitstreamVeraSans-Roman-72"/>
     <use x="331.201171875" xlink:href="#BitstreamVeraSans-Roman-69"/>
     <use x="358.984375" xlink:href="#BitstreamVeraSans-Roman-74"/>
     <use x="398.193359375" xlink:href="#BitstreamVeraSans-Roman-69"/>
     <use x="425.9765625" xlink:href="#BitstreamVeraSans-Roman-63"/>
     <use x="480.95703125" xlink:href="#BitstreamVeraSans-Roman-61"/>
     <use x="542.236328125" xlink:href="#BitstreamVeraSans-Roman-6c"/>
     <use x="570.01953125" xlink:href="#BitstreamVeraSans-Roman-20"/>
     <use x="601.806640625" xlink:href="#BitstreamVeraSans-Roman-74"/>
     <use x="641.015625" xlink:href="#BitstreamVeraSans-Roman-65"/>
     <use x="702.5390625" xlink:href="#BitstreamVeraSans-Roman-6d"/>
     <use x="799.951171875" xlink:href="#BitstreamVeraSans-Roman-70"/>
     <use x="863.427734375" xlink:href="#BitstreamVeraSans-Roman-65"/>
     <use x="924.951171875" xlink:href="#BitstreamVeraSans-Roman-72"/>
     <use x="966.064453125" xlink:href="#BitstreamVeraSans-Roman-61"/>
     <use x="1027.34375" xlink:href="#BitstreamVeraSans-Roman-74"/>
     <use x="1066.55273438" xlink:href="#BitstreamVeraSans-Roman-75"/>
     <use x="1129.93164062" xlink:href="#BitstreamVeraSans-Roman-72"/>
     <use x="1168.79492188" xlink:href="#BitstreamVeraSans-Roman-65"/>
    </g>
   </g>
   <g id="text_19">
    <!-- node01 -->
    <defs>
     <path d="
M45.4062 46.3906
L45.4062 75.9844
L54.3906 75.9844
L54.3906 0
L45.4062 0
L45.4062 8.20312
Q42.5781 3.32812 38.25 0.953125
Q33.9375 -1.42188 27.875 -1.42188
Q17.9688 -1.42188 11.7344 6.48438
Q5.51562 14.4062 5.51562 27.2969
Q5.51562 40.1875 11.7344 48.0938
Q17.9688 56 27.875 56
Q33.9375 56 38.25 53.625
Q42.5781 51.2656 45.4062 46.3906
M14.7969 27.2969
Q14.7969 17.3906 18.875 11.75
Q22.9531 6.10938 30.0781 6.10938
Q37.2031 6.10938 41.2969 11.75
Q45.4062 17.3906 45.4062 27.2969
Q45.4062 37.2031 41.2969 42.8438
Q37.2031 48.4844 30.0781 48.4844
Q22.9531 48.4844 18.875 42.8438
Q14.7969 37.2031 14.7969 27.2969" id="BitstreamVeraSans-Roman-64"/>
     <path d="
M30.6094 48.3906
Q23.3906 48.3906 19.1875 42.75
Q14.9844 37.1094 14.9844 27.2969
Q14.9844 17.4844 19.1562 11.8438
Q23.3438 6.20312 30.6094 6.20312
Q37.7969 6.20312 41.9844 11.8594
Q46.1875 17.5312 46.1875 27.2969
Q46.1875 37.0156 41.9844 42.7031
Q37.7969 48.3906 30.6094 48.3906
M30.6094 56
Q42.3281 56 49.0156 48.375
Q55.7188 40.7656 55.7188 27.2969
Q55.7188 13.875 49.0156 6.21875
Q42.3281 -1.42188 30.6094 -1.42188
Q18.8438 -1.42188 12.1719 6.21875
Q5.51562 13.875 5.51562 27.2969
Q5.51562 40.7656 12.1719 48.375
Q18.8438 56 30.6094 56" id="BitstreamVeraSans-Roman-6f"/>
    </defs>
    <g transform="translate(269.386875 38.2)scale(0.144 -0.144)">
     <use xlink:href="#BitstreamVeraSans-Roman-6e"/>
     <use x="63.37890625" xlink:href="#BitstreamVeraSans-Roman-6f"/>
     <use x="124.560546875" xlink:href="#BitstreamVeraSans-Roman-64"/>
     <use x="188.037109375" xlink:href="#BitstreamVeraSans-Roman-65"/>
     <use x="249.560546875" xlink:href="#BitstreamVeraSans-Roman-30"/>
     <use x="313.18359375" xlink:href="#BitstreamVeraSans-Roman-31"/>
    </g>
   </g>
  </g>
 </g>
 <defs>
  <clipPath id="pcb2bf987bf">
   <rect height="302.4" width="446.4" x="72.0" y="43.2"/>
  </clipPath>
 </defs>
</svg>
