<?xml version="1.0" encoding="utf-8" standalone="no"?>
<!DOCTYPE svg PUBLIC "-//W3C//DTD SVG 1.1//EN"
  "http://www.w3.org/Graphics/SVG/1.1/DTD/svg11.dtd">
<!-- Created with matplotlib (http://matplotlib.org/) -->
<svg height="432pt" version="1.1" viewBox="0 0 576 432" width="576pt" xmlns="http://www.w3.org/2000/svg" xmlns:xlink="http://www.w3.org/1999/xlink">
 <defs>
  <style type="text/css">
*{stroke-linecap:butt;stroke-linejoin:round;}
  </style>
 </defs>
 <g id="figure_1">
  <g id="patch_1">
   <path d="
M0 432
L576 432
L576 0
L0 0
z
" style="fill:#ffffff;"/>
  </g>
  <g id="axes_1">
   <g id="patch_2">
    <path d="
M72 345.6
L518.4 345.6
L518.4 43.2
L72 43.2
z
" style="fill:#ffffff;"/>
   </g>
   <g id="line2d_1">
    <path clip-path="url(#pcb2bf987bf)" d="
M72 224.64
L72.32 230.688
L72.64 233.712
L72.96 233.712
L73.28 230.688
L73.9204 230.688
L74.24 233.712
L75.2 233.712
L75.52 230.688
L75.84 233.712
L76.48 227.664
L76.8 230.688
L77.12 230.688
L77.44 233.712
L77.76 230.688
L78.72 230.688
L79.04 227.664
L79.36 230.688
L79.68 230.688
L80 227.664
L80.96 227.664
L81.28 230.688
L81.6 230.688
L82.2404 224.64
L82.56 230.688
L82.88 227.664
L83.2 227.664
L83.52 230.688
L83.84 227.664
L84.16 227.664
L84.48 233.712
L84.8 227.664
L85.12 230.688
L85.44 230.688
L85.76 224.64
L86.4 230.688
L86.72 224.64
L87.36 230.688
L87.68 230.688
L88 227.664
L88.32 230.688
L88.64 224.64
L88.96 230.688
L89.28 227.664
L89.6 230.688
L89.92 227.664
L90.24 230.688
L90.56 227.664
L90.88 230.688
L91.2 230.688
L91.52 227.664
L92.8 227.664
L93.12 224.64
L93.44 227.664
L93.76 227.664
L94.08 230.688
L94.72 230.688
L95.0404 227.664
L95.36 227.664
L95.68 230.688
L96 224.64
L96.32 227.664
L96.64 227.664
L96.96 224.64
L97.28 227.664
L97.6 227.664
L97.92 230.688
L98.24 227.664
L98.56 230.688
L98.88 224.64
L99.52 230.688
L99.84 227.664
L100.16 227.664
L100.8 221.616
L101.12 227.664
L102.4 227.664
L102.72 224.64
L103.04 230.688
L103.68 224.64
L104 227.664
L106.24 227.664
L106.56 224.64
L106.88 227.664
L107.2 224.64
L107.52 227.664
L109.12 227.664
L109.44 224.64
L109.76 227.664
L111.04 227.664
L111.36 224.64
L111.68 227.664
L112 227.664
L112.96 251.856
L113.6 251.856
L113.92 254.88
L114.56 254.88
L114.88 257.904
L115.2 257.904
L115.52 254.88
L116.48 254.88
L116.8 257.904
L117.12 254.88
L117.44 248.832
L117.76 254.88
L118.08 257.904
L118.72 251.856
L119.04 254.88
L119.36 248.832
L119.68 251.856
L120.96 251.856
L121.28 248.832
L121.6 251.856
L122.24 251.856
L122.56 254.88
L122.88 254.88
L123.2 251.856
L123.52 254.88
L123.84 248.832
L124.16 254.88
L125.12 245.808
L125.44 254.88
L126.08 248.832
L126.72 254.88
L127.36 248.832
L128 254.88
L128.64 248.832
L128.96 242.784
L129.28 245.808
L129.6 245.808
L130.24 239.76
L131.2 239.76
L131.52 233.712
L131.84 236.736
L132.48 236.736
L132.8 233.712
L133.12 236.736
L134.72 236.736
L135.36 230.688
L135.68 233.712
L136 230.688
L136.32 236.736
L136.64 233.712
L137.28 233.712
L137.6 230.688
L137.92 236.736
L138.24 233.712
L138.56 233.712
L138.88 236.736
L139.2 203.472
L139.52 233.712
L140.8 233.712
L141.12 230.688
L141.44 233.712
L141.76 230.688
L142.08 236.736
L142.4 236.736
L142.72 233.712
L143.04 239.76
L144 248.832
L144.32 248.832
L144.64 251.856
L144.96 251.856
L145.28 254.88
L145.6 251.856
L145.92 251.856
L146.24 248.832
L146.88 248.832
L147.2 251.856
L147.52 248.832
L147.84 251.856
L148.48 251.856
L148.8 254.88
L149.12 254.88
L149.44 251.856
L149.76 251.856
L150.08 248.832
L152.96 248.832
L153.28 251.856
L154.24 251.856
L154.56 254.88
L155.52 254.88
L155.84 257.904
L156.16 254.88
L156.8 254.88
L157.12 257.904
L157.44 254.88
L157.76 257.904
L158.08 257.904
L158.4 254.88
L159.04 254.88
L159.36 260.928
L159.68 254.88
L160 257.904
L160.96 257.904
L161.6 251.856
L161.92 257.904
L162.24 254.88
L162.56 248.832
L162.88 251.856
L163.2 251.856
L163.52 248.832
L164.16 248.832
L164.48 245.808
L164.8 248.832
L165.12 248.832
L165.44 242.784
L165.76 245.808
L166.72 245.808
L167.04 248.832
L167.68 242.784
L168 242.784
L168.32 248.832
L169.92 248.832
L170.24 245.808
L170.88 245.808
L171.2 248.832
L171.52 245.808
L173.12 245.808
L173.44 242.784
L173.76 245.808
L174.4 245.808
L174.72 248.832
L175.04 248.832
L175.36 242.784
L175.68 242.784
L176 251.856
L176.32 254.88
L176.64 251.856
L176.96 254.88
L178.24 254.88
L178.56 257.904
L178.88 254.88
L179.2 254.88
L179.52 257.904
L179.84 254.88
L180.48 254.88
L180.8 257.904
L181.12 254.88
L182.08 254.88
L182.4 251.856
L182.72 257.904
L183.04 254.88
L183.36 254.88
L183.68 251.856
L184 254.88
L184.64 254.88
L184.96 257.904
L185.28 254.88
L185.6 254.88
L185.92 257.904
L186.24 254.88
L186.56 254.88
L186.88 260.928
L187.2 257.904
L188.16 257.904
L188.48 251.856
L189.12 257.904
L189.44 254.88
L190.08 254.88
L190.4 257.904
L190.72 254.88
L191.36 254.88
L191.68 251.856
L192 251.856
L192.32 254.88
L192.64 251.856
L192.96 254.88
L193.28 248.832
L193.6 248.832
L193.92 245.808
L194.24 248.832
L194.56 248.832
L194.88 245.808
L195.2 248.832
L195.52 245.808
L195.84 248.832
L196.16 248.832
L196.48 245.808
L196.8 245.808
L197.12 242.784
L197.44 248.832
L198.08 242.784
L198.4 245.808
L200.32 245.808
L200.64 242.784
L200.96 245.808
L201.28 242.784
L201.6 248.832
L202.56 239.76
L202.88 245.808
L203.84 245.808
L204.16 242.784
L204.48 248.832
L204.8 248.832
L205.12 245.808
L205.44 245.808
L205.76 242.784
L206.08 245.808
L206.4 245.808
L206.72 251.856
L207.04 251.856
L207.68 257.904
L208 257.904
L208.32 251.856
L208.64 257.904
L209.28 251.856
L209.92 257.904
L210.56 251.856
L211.2 251.856
L211.52 257.904
L212.16 251.856
L212.48 254.88
L213.12 254.88
L213.44 251.856
L213.76 257.904
L214.08 251.856
L214.4 254.88
L214.72 251.856
L215.04 254.88
L215.36 254.88
L215.68 251.856
L216 257.904
L216.32 251.856
L216.64 248.832
L216.96 242.784
L217.28 239.76
L217.6 233.712
L218.56 233.712
L219.2 248.832
L219.52 248.832
L219.84 251.856
L220.16 248.832
L220.48 248.832
L220.8 251.856
L221.12 248.832
L221.44 251.856
L221.76 257.904
L222.4 245.808
L223.04 245.808
L223.36 242.784
L223.68 242.784
L224 239.76
L224.32 242.784
L224.64 236.736
L224.96 239.76
L225.28 236.736
L225.6 242.784
L226.24 236.736
L227.52 236.736
L227.84 239.76
L228.16 233.712
L228.48 236.736
L228.8 233.712
L229.76 233.712
L230.08 236.736
L230.4 233.712
L230.72 236.736
L231.04 236.736
L231.36 233.712
L231.68 236.736
L232 236.736
L232.32 233.712
L232.64 236.736
L232.96 233.712
L233.28 233.712
L233.6 236.736
L233.92 233.712
L234.24 233.712
L234.56 236.736
L234.88 233.712
L235.2 236.736
L235.52 236.736
L235.84 233.712
L236.16 233.712
L236.48 236.736
L236.8 233.712
L237.44 233.712
L237.76 239.76
L238.72 248.832
L239.04 245.808
L239.36 248.832
L240.32 248.832
L240.64 254.88
L240.96 248.832
L241.28 251.856
L241.6 248.832
L241.92 248.832
L242.24 242.784
L242.56 248.832
L242.88 239.76
L243.2 248.832
L243.84 248.832
L244.16 245.808
L244.8 251.856
L245.12 251.856
L245.44 254.88
L246.08 248.832
L246.4 251.856
L246.72 251.856
L247.04 248.832
L247.36 248.832
L247.68 245.808
L248 248.832
L249.28 248.832
L249.6 251.856
L249.92 248.832
L250.24 248.832
L250.56 251.856
L250.88 251.856
L251.2 248.832
L251.84 254.88
L252.16 251.856
L252.48 254.88
L252.8 251.856
L253.12 251.856
L253.44 248.832
L253.76 251.856
L254.08 251.856
L254.4 248.832
L254.72 251.856
L255.04 245.808
L255.36 245.808
L255.68 242.784
L256.32 248.832
L256.96 248.832
L257.28 245.808
L257.6 248.832
L257.92 248.832
L258.24 245.808
L258.56 248.832
L258.88 245.808
L259.2 245.808
L259.52 248.832
L259.84 248.832
L260.16 245.808
L260.48 248.832
L260.8 245.808
L261.12 245.808
L261.44 248.832
L261.76 245.808
L263.04 245.808
L263.36 248.832
L264.32 248.832
L264.64 245.808
L264.96 248.832
L265.28 245.808
L265.6 248.832
L265.92 245.808
L266.24 245.808
L266.56 248.832
L266.88 248.832
L267.2 242.784
L267.84 248.832
L268.16 245.808
L269.76 245.808
L270.08 248.832
L270.72 248.832
L271.04 251.856
L271.36 251.856
L271.68 248.832
L272 248.832
L272.64 254.88
L273.6 254.88
L273.92 248.832
L274.24 254.88
L274.56 254.88
L274.88 251.856
L275.2 254.88
L275.84 254.88
L276.16 251.856
L276.8 251.856
L277.12 248.832
L277.44 251.856
L278.08 251.856
L278.4 248.832
L278.72 251.856
L279.04 248.832
L279.36 251.856
L279.68 251.856
L280 254.88
L280.64 248.832
L280.96 251.856
L281.28 248.832
L281.6 248.832
L281.92 251.856
L282.24 251.856
L282.56 248.832
L282.88 248.832
L283.2 245.808
L283.52 248.832
L283.84 245.808
L284.16 248.832
L284.8 248.832
L285.12 242.784
L285.44 248.832
L285.76 245.808
L286.4 245.808
L286.72 248.832
L287.04 248.832
L287.36 245.808
L287.68 245.808
L288 248.832
L288.32 248.832
L288.64 245.808
L286.4 245.808
L286.726 245.808
L287.04 248.832
L287.36 245.808
L287.68 245.808
L288 242.784
L288.32 245.808
L289.28 245.808
L289.6 248.832
L290.24 242.784
L290.56 245.808
L290.88 242.784
L291.52 248.832
L292.16 242.784
L292.48 248.832
L292.8 245.808
L293.44 245.808
L293.76 242.784
L294.4 248.832
L294.72 242.784
L295.36 242.784
L295.68 245.808
L296 245.808
L296.32 242.784
L296.64 245.808
L296.96 242.784
L297.28 245.808
L299.52 245.808
L299.84 239.76
L300.48 245.808
L300.8 242.784
L301.12 242.784
L301.44 245.808
L301.76 245.808
L302.08 239.76
L302.4 245.808
L302.72 245.808
L303.04 239.76
L303.36 242.784
L304.64 242.784
L304.96 239.76
L305.28 242.784
L305.6 239.76
L308.48 239.76
L308.8 242.784
L309.12 239.76
L309.44 239.76
L309.76 242.784
L310.08 239.76
L310.72 239.76
L311.04 242.784
L311.36 242.784
L311.68 239.76
L312 242.784
L312.32 239.76
L312.64 242.784
L312.96 239.76
L313.28 242.784
L313.6 239.76
L313.92 242.784
L315.2 242.784
L315.52 239.76
L315.84 242.784
L316.48 242.784
L316.8 239.76
L317.12 239.76
L317.44 242.784
L317.76 242.784
L318.08 245.808
L318.4 242.784
L319.04 242.784
L319.36 239.76
L319.68 242.784
L320 242.784
L320.32 245.808
L320.64 239.76
L320.96 245.808
L321.28 245.808
L321.6 242.784
L322.24 242.784
L322.56 245.808
L323.2 239.76
L323.52 245.808
L323.84 245.808
L324.16 242.784
L325.44 242.784
L325.76 245.808
L326.08 242.784
L326.4 245.808
L327.36 245.808
L328 251.856
L328.64 251.856
L328.96 257.904
L329.6 251.856
L329.92 254.88
L330.24 251.856
L330.88 257.904
L331.52 251.856
L331.84 251.856
L332.48 257.904
L333.12 251.856
L333.44 254.88
L334.08 254.88
L334.4 251.856
L335.04 251.856
L335.36 254.88
L335.68 254.88
L336 257.904
L336.32 251.856
L336.64 254.88
L337.6 254.88
L337.92 251.856
L338.24 254.88
L338.56 254.88
L338.88 257.904
L339.2 257.904
L339.52 251.856
L340.16 257.904
L340.48 254.88
L340.8 254.88
L341.12 251.856
L341.76 257.904
L342.08 257.904
L342.4 254.88
L342.72 257.904
L343.04 254.88
L343.36 257.904
L343.68 257.904
L344 254.88
L344.32 254.88
L344.64 251.856
L344.96 251.856
L345.28 248.832
L345.6 248.832
L345.92 251.856
L346.88 251.856
L347.2 248.832
L347.52 248.832
L347.84 251.856
L348.16 248.832
L348.8 248.832
L349.12 251.856
L349.44 248.832
L349.76 251.856
L350.08 248.832
L350.4 251.856
L351.04 245.808
L351.36 248.832
L351.68 245.808
L352 245.808
L352.32 248.832
L352.64 248.832
L352.96 242.784
L353.28 242.784
L353.92 248.832
L354.24 248.832
L354.56 245.808
L354.88 251.856
L355.2 248.832
L355.84 248.832
L356.16 245.808
L356.48 245.808
L356.8 248.832
L357.44 248.832
L357.76 245.808
L358.08 251.856
L358.4 251.856
L358.72 254.88
L359.04 251.856
L359.36 251.856
L359.68 248.832
L360 251.856
L360.32 251.856
L360.64 254.88
L360.96 251.856
L361.6 251.856
L361.92 254.88
L362.56 248.832
L362.88 251.856
L364.8 251.856
L365.12 254.88
L365.44 251.856
L366.4 251.856
L366.72 248.832
L367.04 251.856
L367.36 248.832
L367.68 248.832
L368 251.856
L368.32 251.856
L368.64 248.832
L368.96 254.88
L369.28 251.856
L369.92 251.856
L370.24 248.832
L370.56 248.832
L370.88 251.856
L371.2 248.832
L371.84 248.832
L372.16 251.856
L372.8 251.856
L373.12 245.808
L373.44 251.856
L373.76 248.832
L374.08 248.832
L374.4 239.76
L374.72 242.784
L375.04 239.76
L375.36 245.808
L376 239.76
L376.64 239.76
L376.96 236.736
L378.24 236.736
L378.56 239.76
L378.88 236.736
L379.2 236.736
L379.52 233.712
L379.84 236.736
L380.48 236.736
L380.8 230.688
L381.12 233.712
L381.44 233.712
L381.76 236.736
L382.08 233.712
L383.04 233.712
L383.36 236.736
L383.68 233.712
L384 233.712
L384.32 236.736
L384.64 233.712
L385.28 233.712
L385.6 236.736
L385.92 230.688
L386.24 233.712
L386.56 230.688
L387.2 230.688
L387.52 233.712
L388.16 233.712
L388.48 239.76
L389.12 239.76
L389.44 242.784
L389.76 248.832
L390.72 248.832
L391.04 251.856
L391.36 248.832
L391.68 248.832
L392 251.856
L392.32 251.856
L392.64 248.832
L392.96 251.856
L393.28 248.832
L393.6 251.856
L394.24 251.856
L394.56 248.832
L394.88 248.832
L395.2 251.856
L395.52 251.856
L395.84 248.832
L396.16 251.856
L396.48 251.856
L396.8 248.832
L397.12 251.856
L397.44 248.832
L397.76 251.856
L398.08 248.832
L398.4 251.856
L398.72 251.856
L399.04 254.88
L399.36 251.856
L399.68 251.856
L400 248.832
L400.32 251.856
L401.28 251.856
L401.6 254.88
L401.92 251.856
L402.24 251.856
L402.56 254.88
L402.88 251.856
L403.2 251.856
L403.52 239.76
L403.84 251.856
L404.16 248.832
L404.48 236.736
L404.8 242.784
L405.12 182.304
L405.44 236.736
L405.76 236.736
L406.08 239.76
L406.4 239.76
L406.72 236.736
L407.04 236.736
L407.36 239.76
L407.68 236.736
L408 239.76
L408.32 236.736
L408.64 239.76
L408.96 236.736
L409.28 239.76
L409.6 236.736
L409.92 236.736
L410.24 230.688
L410.56 239.76
L410.88 236.736
L411.52 236.736
L411.84 233.712
L412.16 236.736
L412.8 230.688
L413.12 236.736
L413.44 230.688
L414.08 236.736
L414.4 236.736
L414.72 233.712
L415.04 233.712
L415.36 236.736
L415.68 236.736
L416 233.712
L416.32 236.736
L416.64 233.712
L416.96 233.712
L417.28 236.736
L417.6 233.712
L419.2 233.712
L419.52 242.784
L419.84 242.784
L420.48 248.832
L421.12 248.832
L421.44 254.88
L421.76 251.856
L423.04 251.856
L423.36 248.832
L423.68 254.88
L424 251.856
L424.64 251.856
L424.96 248.832
L425.28 251.856
L426.24 251.856
L426.56 248.832
L426.88 251.856
L428.16 251.856
L428.48 254.88
L428.8 251.856
L429.76 251.856
L430.08 254.88
L430.4 251.856
L430.72 251.856
L431.04 254.88
L431.36 251.856
L432.32 251.856
L432.64 254.88
L432.96 254.88
L433.28 248.832
L433.92 248.832
L434.24 251.856
L434.56 245.808
L434.88 191.376
L435.2 185.328
L435.52 185.328
L435.84 233.712
L436.16 179.28
L436.8 173.232
L438.4 173.232
L438.72 170.208
L439.04 170.208
L439.36 167.184
L440 173.232
L440.32 170.208
L440.64 170.208
L440.96 167.184
L441.6 167.184
L441.92 164.16
L517.12 230.688
L517.44 227.664
L518.08 215.568
L518.4 215.568
L518.4 215.568" style="fill:none;stroke:#0000ff;stroke-linecap:square;"/>
   </g>
   <g id="line2d_2">
    <path clip-path="url(#pcb2bf987bf)" d="
M72 88.56
L518.4 88.56" style="fill:none;stroke:#ff0000;stroke-linecap:square;"/>
   </g>
   <g id="matplotlib.axis_1">
    <g id="xtick_1">
     <g id="line2d_3">
      <path clip-path="url(#pcb2bf987bf)" d="
M102.72 345.6
L102.72 43.2" style="fill:none;stroke:#000000;stroke-dasharray:1.000000,3.000000;stroke-dashoffset:0.0;stroke-width:0.5;"/>
     </g>
     <g id="line2d_4">
      <defs>
       <path d="
M0 0
L0 -4" id="m93b0483c22" style="stroke:#000000;stroke-width:0.5;"/>
      </defs>
      <g>
       <use style="stroke:#000000;stroke-width:0.5;" x="102.719644442" xlink:href="#m93b0483c22" y="345.6"/>
      </g>
     </g>
     <g id="line2d_5">
      <defs>
       <path d="
M0 0
L0 4" id="m741efc42ff" style="stroke:#000000;stroke-width:0.5;"/>
      </defs>
      <g>
       <use style="stroke:#000000;stroke-width:0.5;" x="102.719644442" xlink:href="#m741efc42ff" y="43.2"/>
      </g>
     </g>
     <g id="text_1">
      <!-- Jul07 -->
      <defs>
       <path d="
M31.7812 66.4062
Q24.1719 66.4062 20.3281 58.9062
Q16.5 51.4219 16.5 36.375
Q16.5 21.3906 20.3281 13.8906
Q24.1719 6.39062 31.7812 6.39062
Q39.4531 6.39062 43.2812 13.8906
Q47.125 21.3906 47.125 36.375
Q47.125 51.4219 43.2812 58.9062
Q39.4531 66.4062 31.7812 66.4062
M31.7812 74.2188
Q44.0469 74.2188 50.5156 64.5156
Q56.9844 54.8281 56.9844 36.375
Q56.9844 17.9688 50.5156 8.26562
Q44.0469 -1.42188 31.7812 -1.42188
Q19.5312 -1.42188 13.0625 8.26562
Q6.59375 17.9688 6.59375 36.375
Q6.59375 54.8281 13.0625 64.5156
Q19.5312 74.2188 31.7812 74.2188" id="BitstreamVeraSans-Roman-30"/>
       <path d="
M8.5 21.5781
L8.5 54.6875
L17.4844 54.6875
L17.4844 21.9219
Q17.4844 14.1562 20.5 10.2656
Q23.5312 6.39062 29.5938 6.39062
Q36.8594 6.39062 41.0781 11.0312
Q45.3125 15.6719 45.3125 23.6875
L45.3125 54.6875
L54.2969 54.6875
L54.2969 0
L45.3125 0
L45.3125 8.40625
Q42.0469 3.42188 37.7188 1
Q33.4062 -1.42188 27.6875 -1.42188
Q18.2656 -1.42188 13.375 4.4375
Q8.5 10.2969 8.5 21.5781" id="BitstreamVeraSans-Roman-75"/>
       <path d="
M9.42188 75.9844
L18.4062 75.9844
L18.4062 0
L9.42188 0
z
" id="BitstreamVeraSans-Roman-6c"/>
       <path d="
M9.8125 72.9062
L19.6719 72.9062
L19.6719 5.07812
Q19.6719 -8.10938 14.6719 -14.0625
Q9.67188 -20.0156 -1.42188 -20.0156
L-5.17188 -20.0156
L-5.17188 -11.7188
L-2.09375 -11.7188
Q4.4375 -11.7188 7.125 -8.04688
Q9.8125 -4.39062 9.8125 5.07812
z
" id="BitstreamVeraSans-Roman-4a"/>
       <path d="
M8.20312 72.9062
L55.0781 72.9062
L55.0781 68.7031
L28.6094 0
L18.3125 0
L43.2188 64.5938
L8.20312 64.5938
z
" id="BitstreamVeraSans-Roman-37"/>
      </defs>
      <g transform="translate(76.0593989999 372.168402885)rotate(-30.0)scale(0.12 -0.12)">
       <use xlink:href="#BitstreamVeraSans-Roman-4a"/>
       <use x="29.4921875" xlink:href="#BitstreamVeraSans-Roman-75"/>
       <use x="92.87109375" xlink:href="#BitstreamVeraSans-Roman-6c"/>
       <use x="120.654296875" xlink:href="#BitstreamVeraSans-Roman-30"/>
       <use x="184.27734375" xlink:href="#BitstreamVeraSans-Roman-37"/>
      </g>
     </g>
    </g>
    <g id="xtick_2">
     <g id="line2d_6">
      <path clip-path="url(#pcb2bf987bf)" d="
M164.16 345.6
L164.16 43.2" style="fill:none;stroke:#000000;stroke-dasharray:1.000000,3.000000;stroke-dashoffset:0.0;stroke-width:0.5;"/>
     </g>
     <g id="line2d_7">
      <g>
       <use style="stroke:#000000;stroke-width:0.5;" x="164.159644444" xlink:href="#m93b0483c22" y="345.6"/>
      </g>
     </g>
     <g id="line2d_8">
      <g>
       <use style="stroke:#000000;stroke-width:0.5;" x="164.159644444" xlink:href="#m741efc42ff" y="43.2"/>
      </g>
     </g>
     <g id="text_2">
      <!-- Jul09 -->
      <defs>
       <path d="
M10.9844 1.51562
L10.9844 10.5
Q14.7031 8.73438 18.5 7.8125
Q22.3125 6.89062 25.9844 6.89062
Q35.75 6.89062 40.8906 13.4531
Q46.0469 20.0156 46.7812 33.4062
Q43.9531 29.2031 39.5938 26.9531
Q35.25 24.7031 29.9844 24.7031
Q19.0469 24.7031 12.6719 31.3125
Q6.29688 37.9375 6.29688 49.4219
Q6.29688 60.6406 12.9375 67.4219
Q19.5781 74.2188 30.6094 74.2188
Q43.2656 74.2188 49.9219 64.5156
Q56.5938 54.8281 56.5938 36.375
Q56.5938 19.1406 48.4062 8.85938
Q40.2344 -1.42188 26.4219 -1.42188
Q22.7031 -1.42188 18.8906 -0.6875
Q15.0938 0.046875 10.9844 1.51562
M30.6094 32.4219
Q37.25 32.4219 41.125 36.9531
Q45.0156 41.5 45.0156 49.4219
Q45.0156 57.2812 41.125 61.8438
Q37.25 66.4062 30.6094 66.4062
Q23.9688 66.4062 20.0938 61.8438
Q16.2188 57.2812 16.2188 49.4219
Q16.2188 41.5 20.0938 36.9531
Q23.9688 32.4219 30.6094 32.4219" id="BitstreamVeraSans-Roman-39"/>
      </defs>
      <g transform="translate(137.341890631 372.259340385)rotate(-30.0)scale(0.12 -0.12)">
       <use xlink:href="#BitstreamVeraSans-Roman-4a"/>
       <use x="29.4921875" xlink:href="#BitstreamVeraSans-Roman-75"/>
       <use x="92.87109375" xlink:href="#BitstreamVeraSans-Roman-6c"/>
       <use x="120.654296875" xlink:href="#BitstreamVeraSans-Roman-30"/>
       <use x="184.27734375" xlink:href="#BitstreamVeraSans-Roman-39"/>
      </g>
     </g>
    </g>
    <g id="xtick_3">
     <g id="line2d_9">
      <path clip-path="url(#pcb2bf987bf)" d="
M225.6 345.6
L225.6 43.2" style="fill:none;stroke:#000000;stroke-dasharray:1.000000,3.000000;stroke-dashoffset:0.0;stroke-width:0.5;"/>
     </g>
     <g id="line2d_10">
      <g>
       <use style="stroke:#000000;stroke-width:0.5;" x="225.599644445" xlink:href="#m93b0483c22" y="345.6"/>
      </g>
     </g>
     <g id="line2d_11">
      <g>
       <use style="stroke:#000000;stroke-width:0.5;" x="225.599644445" xlink:href="#m741efc42ff" y="43.2"/>
      </g>
     </g>
     <g id="text_3">
      <!-- Jul11 -->
      <defs>
       <path d="
M12.4062 8.29688
L28.5156 8.29688
L28.5156 63.9219
L10.9844 60.4062
L10.9844 69.3906
L28.4219 72.9062
L38.2812 72.9062
L38.2812 8.29688
L54.3906 8.29688
L54.3906 0
L12.4062 0
z
" id="BitstreamVeraSans-Roman-31"/>
      </defs>
      <g transform="translate(199.010846098 372.127152885)rotate(-30.0)scale(0.12 -0.12)">
       <use xlink:href="#BitstreamVeraSans-Roman-4a"/>
       <use x="29.4921875" xlink:href="#BitstreamVeraSans-Roman-75"/>
       <use x="92.87109375" xlink:href="#BitstreamVeraSans-Roman-6c"/>
       <use x="120.654296875" xlink:href="#BitstreamVeraSans-Roman-31"/>
       <use x="184.27734375" xlink:href="#BitstreamVeraSans-Roman-31"/>
      </g>
     </g>
    </g>
    <g id="xtick_4">
     <g id="line2d_12">
      <path clip-path="url(#pcb2bf987bf)" d="
M287.04 345.6
L287.04 43.2" style="fill:none;stroke:#000000;stroke-dasharray:1.000000,3.000000;stroke-dashoffset:0.0;stroke-width:0.5;"/>
     </g>
     <g id="line2d_13">
      <g>
       <use style="stroke:#000000;stroke-width:0.5;" x="287.039644442" xlink:href="#m93b0483c22" y="345.6"/>
      </g>
     </g>
     <g id="line2d_14">
      <g>
       <use style="stroke:#000000;stroke-width:0.5;" x="287.039644442" xlink:href="#m741efc42ff" y="43.2"/>
      </g>
     </g>
     <g id="text_4">
      <!-- Jul13 -->
      <defs>
       <path d="
M40.5781 39.3125
Q47.6562 37.7969 51.625 33
Q55.6094 28.2188 55.6094 21.1875
Q55.6094 10.4062 48.1875 4.48438
Q40.7656 -1.42188 27.0938 -1.42188
Q22.5156 -1.42188 17.6562 -0.515625
Q12.7969 0.390625 7.625 2.20312
L7.625 11.7188
Q11.7188 9.32812 16.5938 8.10938
Q21.4844 6.89062 26.8125 6.89062
Q36.0781 6.89062 40.9375 10.5469
Q45.7969 14.2031 45.7969 21.1875
Q45.7969 27.6406 41.2812 31.2656
Q36.7656 34.9062 28.7188 34.9062
L20.2188 34.9062
L20.2188 43.0156
L29.1094 43.0156
Q36.375 43.0156 40.2344 45.9219
Q44.0938 48.8281 44.0938 54.2969
Q44.0938 59.9062 40.1094 62.9062
Q36.1406 65.9219 28.7188 65.9219
Q24.6562 65.9219 20.0156 65.0312
Q15.375 64.1562 9.8125 62.3125
L9.8125 71.0938
Q15.4375 72.6562 20.3438 73.4375
Q25.25 74.2188 29.5938 74.2188
Q40.8281 74.2188 47.3594 69.1094
Q53.9062 64.0156 53.9062 55.3281
Q53.9062 49.2656 50.4375 45.0938
Q46.9688 40.9219 40.5781 39.3125" id="BitstreamVeraSans-Roman-33"/>
      </defs>
      <g transform="translate(260.324189881 372.200277885)rotate(-30.0)scale(0.12 -0.12)">
       <use xlink:href="#BitstreamVeraSans-Roman-4a"/>
       <use x="29.4921875" xlink:href="#BitstreamVeraSans-Roman-75"/>
       <use x="92.87109375" xlink:href="#BitstreamVeraSans-Roman-6c"/>
       <use x="120.654296875" xlink:href="#BitstreamVeraSans-Roman-31"/>
       <use x="184.27734375" xlink:href="#BitstreamVeraSans-Roman-33"/>
      </g>
     </g>
    </g>
    <g id="xtick_5">
     <g id="line2d_15">
      <path clip-path="url(#pcb2bf987bf)" d="
M348.48 345.6
L348.48 43.2" style="fill:none;stroke:#000000;stroke-dasharray:1.000000,3.000000;stroke-dashoffset:0.0;stroke-width:0.5;"/>
     </g>
     <g id="line2d_16">
      <g>
       <use style="stroke:#000000;stroke-width:0.5;" x="348.479644444" xlink:href="#m93b0483c22" y="345.6"/>
      </g>
     </g>
     <g id="line2d_17">
      <g>
       <use style="stroke:#000000;stroke-width:0.5;" x="348.479644444" xlink:href="#m741efc42ff" y="43.2"/>
      </g>
     </g>
     <g id="text_5">
      <!-- Jul15 -->
      <defs>
       <path d="
M10.7969 72.9062
L49.5156 72.9062
L49.5156 64.5938
L19.8281 64.5938
L19.8281 46.7344
Q21.9688 47.4688 24.1094 47.8281
Q26.2656 48.1875 28.4219 48.1875
Q40.625 48.1875 47.75 41.5
Q54.8906 34.8125 54.8906 23.3906
Q54.8906 11.625 47.5625 5.09375
Q40.2344 -1.42188 26.9062 -1.42188
Q22.3125 -1.42188 17.5469 -0.640625
Q12.7969 0.140625 7.71875 1.70312
L7.71875 11.625
Q12.1094 9.23438 16.7969 8.0625
Q21.4844 6.89062 26.7031 6.89062
Q35.1562 6.89062 40.0781 11.3281
Q45.0156 15.7656 45.0156 23.3906
Q45.0156 31 40.0781 35.4375
Q35.1562 39.8906 26.7031 39.8906
Q22.75 39.8906 18.8125 39.0156
Q14.8906 38.1406 10.7969 36.2812
z
" id="BitstreamVeraSans-Roman-35"/>
      </defs>
      <g transform="translate(321.838884573 372.157152885)rotate(-30.0)scale(0.12 -0.12)">
       <use xlink:href="#BitstreamVeraSans-Roman-4a"/>
       <use x="29.4921875" xlink:href="#BitstreamVeraSans-Roman-75"/>
       <use x="92.87109375" xlink:href="#BitstreamVeraSans-Roman-6c"/>
       <use x="120.654296875" xlink:href="#BitstreamVeraSans-Roman-31"/>
       <use x="184.27734375" xlink:href="#BitstreamVeraSans-Roman-35"/>
      </g>
     </g>
    </g>
    <g id="xtick_6">
     <g id="line2d_18">
      <path clip-path="url(#pcb2bf987bf)" d="
M409.92 345.6
L409.92 43.2" style="fill:none;stroke:#000000;stroke-dasharray:1.000000,3.000000;stroke-dashoffset:0.0;stroke-width:0.5;"/>
     </g>
     <g id="line2d_19">
      <g>
       <use style="stroke:#000000;stroke-width:0.5;" x="409.919644445" xlink:href="#m93b0483c22" y="345.6"/>
      </g>
     </g>
     <g id="line2d_20">
      <g>
       <use style="stroke:#000000;stroke-width:0.5;" x="409.919644445" xlink:href="#m741efc42ff" y="43.2"/>
      </g>
     </g>
     <g id="text_6">
      <!-- Jul17 -->
      <g transform="translate(383.259399003 372.168402885)rotate(-30.0)scale(0.12 -0.12)">
       <use xlink:href="#BitstreamVeraSans-Roman-4a"/>
       <use x="29.4921875" xlink:href="#BitstreamVeraSans-Roman-75"/>
       <use x="92.87109375" xlink:href="#BitstreamVeraSans-Roman-6c"/>
       <use x="120.654296875" xlink:href="#BitstreamVeraSans-Roman-31"/>
       <use x="184.27734375" xlink:href="#BitstreamVeraSans-Roman-37"/>
      </g>
     </g>
    </g>
    <g id="xtick_7">
     <g id="line2d_21">
      <path clip-path="url(#pcb2bf987bf)" d="
M471.36 345.6
L471.36 43.2" style="fill:none;stroke:#000000;stroke-dasharray:1.000000,3.000000;stroke-dashoffset:0.0;stroke-width:0.5;"/>
     </g>
     <g id="line2d_22">
      <g>
       <use style="stroke:#000000;stroke-width:0.5;" x="471.359644443" xlink:href="#m93b0483c22" y="345.6"/>
      </g>
     </g>
     <g id="line2d_23">
      <g>
       <use style="stroke:#000000;stroke-width:0.5;" x="471.359644443" xlink:href="#m741efc42ff" y="43.2"/>
      </g>
     </g>
     <g id="text_7">
      <!-- Jul19 -->
      <g transform="translate(444.54189063 372.259340385)rotate(-30.0)scale(0.12 -0.12)">
       <use xlink:href="#BitstreamVeraSans-Roman-4a"/>
       <use x="29.4921875" xlink:href="#BitstreamVeraSans-Roman-75"/>
       <use x="92.87109375" xlink:href="#BitstreamVeraSans-Roman-6c"/>
       <use x="120.654296875" xlink:href="#BitstreamVeraSans-Roman-31"/>
       <use x="184.27734375" xlink:href="#BitstreamVeraSans-Roman-39"/>
      </g>
     </g>
    </g>
   </g>
   <g id="matplotlib.axis_2">
    <g id="ytick_1">
     <g id="line2d_24">
      <path clip-path="url(#pcb2bf987bf)" d="
M72 345.6
L518.4 345.6" style="fill:none;stroke:#000000;stroke-dasharray:1.000000,3.000000;stroke-dashoffset:0.0;stroke-width:0.5;"/>
     </g>
     <g id="line2d_25">
      <defs>
       <path d="
M0 0
L4 0" id="m728421d6d4" style="stroke:#000000;stroke-width:0.5;"/>
      </defs>
      <g>
       <use style="stroke:#000000;stroke-width:0.5;" x="72.0" xlink:href="#m728421d6d4" y="345.6"/>
      </g>
     </g>
     <g id="line2d_26">
      <defs>
       <path d="
M0 0
L-4 0" id="mcb0005524f" style="stroke:#000000;stroke-width:0.5;"/>
      </defs>
      <g>
       <use style="stroke:#000000;stroke-width:0.5;" x="518.4" xlink:href="#mcb0005524f" y="345.6"/>
      </g>
     </g>
     <g id="text_8">
      <!-- 0 -->
      <g transform="translate(61.953125 348.91125)scale(0.12 -0.12)">
       <use xlink:href="#BitstreamVeraSans-Roman-30"/>
      </g>
     </g>
    </g>
    <g id="ytick_2">
     <g id="line2d_27">
      <path clip-path="url(#pcb2bf987bf)" d="
M72 285.12
L518.4 285.12" style="fill:none;stroke:#000000;stroke-dasharray:1.000000,3.000000;stroke-dashoffset:0.0;stroke-width:0.5;"/>
     </g>
     <g id="line2d_28">
      <g>
       <use style="stroke:#000000;stroke-width:0.5;" x="72.0" xlink:href="#m728421d6d4" y="285.12"/>
      </g>
     </g>
     <g id="line2d_29">
      <g>
       <use style="stroke:#000000;stroke-width:0.5;" x="518.4" xlink:href="#mcb0005524f" y="285.12"/>
      </g>
     </g>
     <g id="text_9">
      <!-- 20 -->
      <defs>
       <path d="
M19.1875 8.29688
L53.6094 8.29688
L53.6094 0
L7.32812 0
L7.32812 8.29688
Q12.9375 14.1094 22.625 23.8906
Q32.3281 33.6875 34.8125 36.5312
Q39.5469 41.8438 41.4219 45.5312
Q43.3125 49.2188 43.3125 52.7812
Q43.3125 58.5938 39.2344 62.25
Q35.1562 65.9219 28.6094 65.9219
Q23.9688 65.9219 18.8125 64.3125
Q13.6719 62.7031 7.8125 59.4219
L7.8125 69.3906
Q13.7656 71.7812 18.9375 73
Q24.125 74.2188 28.4219 74.2188
Q39.75 74.2188 46.4844 68.5469
Q53.2188 62.8906 53.2188 53.4219
Q53.2188 48.9219 51.5312 44.8906
Q49.8594 40.875 45.4062 35.4062
Q44.1875 33.9844 37.6406 27.2188
Q31.1094 20.4531 19.1875 8.29688" id="BitstreamVeraSans-Roman-32"/>
      </defs>
      <g transform="translate(54.40625 288.43125)scale(0.12 -0.12)">
       <use xlink:href="#BitstreamVeraSans-Roman-32"/>
       <use x="63.623046875" xlink:href="#BitstreamVeraSans-Roman-30"/>
      </g>
     </g>
    </g>
    <g id="ytick_3">
     <g id="line2d_30">
      <path clip-path="url(#pcb2bf987bf)" d="
M72 224.64
L518.4 224.64" style="fill:none;stroke:#000000;stroke-dasharray:1.000000,3.000000;stroke-dashoffset:0.0;stroke-width:0.5;"/>
     </g>
     <g id="line2d_31">
      <g>
       <use style="stroke:#000000;stroke-width:0.5;" x="72.0" xlink:href="#m728421d6d4" y="224.64"/>
      </g>
     </g>
     <g id="line2d_32">
      <g>
       <use style="stroke:#000000;stroke-width:0.5;" x="518.4" xlink:href="#mcb0005524f" y="224.64"/>
      </g>
     </g>
     <g id="text_10">
      <!-- 40 -->
      <defs>
       <path d="
M37.7969 64.3125
L12.8906 25.3906
L37.7969 25.3906
z

M35.2031 72.9062
L47.6094 72.9062
L47.6094 25.3906
L58.0156 25.3906
L58.0156 17.1875
L47.6094 17.1875
L47.6094 0
L37.7969 0
L37.7969 17.1875
L4.89062 17.1875
L4.89062 26.7031
z
" id="BitstreamVeraSans-Roman-34"/>
      </defs>
      <g transform="translate(54.11375 227.95125)scale(0.12 -0.12)">
       <use xlink:href="#BitstreamVeraSans-Roman-34"/>
       <use x="63.623046875" xlink:href="#BitstreamVeraSans-Roman-30"/>
      </g>
     </g>
    </g>
    <g id="ytick_4">
     <g id="line2d_33">
      <path clip-path="url(#pcb2bf987bf)" d="
M72 164.16
L518.4 164.16" style="fill:none;stroke:#000000;stroke-dasharray:1.000000,3.000000;stroke-dashoffset:0.0;stroke-width:0.5;"/>
     </g>
     <g id="line2d_34">
      <g>
       <use style="stroke:#000000;stroke-width:0.5;" x="72.0" xlink:href="#m728421d6d4" y="164.16"/>
      </g>
     </g>
     <g id="line2d_35">
      <g>
       <use style="stroke:#000000;stroke-width:0.5;" x="518.4" xlink:href="#mcb0005524f" y="164.16"/>
      </g>
     </g>
     <g id="text_11">
      <!-- 60 -->
      <defs>
       <path d="
M33.0156 40.375
Q26.375 40.375 22.4844 35.8281
Q18.6094 31.2969 18.6094 23.3906
Q18.6094 15.5312 22.4844 10.9531
Q26.375 6.39062 33.0156 6.39062
Q39.6562 6.39062 43.5312 10.9531
Q47.4062 15.5312 47.4062 23.3906
Q47.4062 31.2969 43.5312 35.8281
Q39.6562 40.375 33.0156 40.375
M52.5938 71.2969
L52.5938 62.3125
Q48.875 64.0625 45.0938 64.9844
Q41.3125 65.9219 37.5938 65.9219
Q27.8281 65.9219 22.6719 59.3281
Q17.5312 52.7344 16.7969 39.4062
Q19.6719 43.6562 24.0156 45.9219
Q28.375 48.1875 33.5938 48.1875
Q44.5781 48.1875 50.9531 41.5156
Q57.3281 34.8594 57.3281 23.3906
Q57.3281 12.1562 50.6875 5.35938
Q44.0469 -1.42188 33.0156 -1.42188
Q20.3594 -1.42188 13.6719 8.26562
Q6.98438 17.9688 6.98438 36.375
Q6.98438 53.6562 15.1875 63.9375
Q23.3906 74.2188 37.2031 74.2188
Q40.9219 74.2188 44.7031 73.4844
Q48.4844 72.75 52.5938 71.2969" id="BitstreamVeraSans-Roman-36"/>
      </defs>
      <g transform="translate(54.365 167.47125)scale(0.12 -0.12)">
       <use xlink:href="#BitstreamVeraSans-Roman-36"/>
       <use x="63.623046875" xlink:href="#BitstreamVeraSans-Roman-30"/>
      </g>
     </g>
    </g>
    <g id="ytick_5">
     <g id="line2d_36">
      <path clip-path="url(#pcb2bf987bf)" d="
M72 103.68
L518.4 103.68" style="fill:none;stroke:#000000;stroke-dasharray:1.000000,3.000000;stroke-dashoffset:0.0;stroke-width:0.5;"/>
     </g>
     <g id="line2d_37">
      <g>
       <use style="stroke:#000000;stroke-width:0.5;" x="72.0" xlink:href="#m728421d6d4" y="103.68"/>
      </g>
     </g>
     <g id="line2d_38">
      <g>
       <use style="stroke:#000000;stroke-width:0.5;" x="518.4" xlink:href="#mcb0005524f" y="103.68"/>
      </g>
     </g>
     <g id="text_12">
      <!-- 80 -->
      <defs>
       <path d="
M31.7812 34.625
Q24.75 34.625 20.7188 30.8594
Q16.7031 27.0938 16.7031 20.5156
Q16.7031 13.9219 20.7188 10.1562
Q24.75 6.39062 31.7812 6.39062
Q38.8125 6.39062 42.8594 10.1719
Q46.9219 13.9688 46.9219 20.5156
Q46.9219 27.0938 42.8906 30.8594
Q38.875 34.625 31.7812 34.625
M21.9219 38.8125
Q15.5781 40.375 12.0312 44.7188
Q8.5 49.0781 8.5 55.3281
Q8.5 64.0625 14.7188 69.1406
Q20.9531 74.2188 31.7812 74.2188
Q42.6719 74.2188 48.875 69.1406
Q55.0781 64.0625 55.0781 55.3281
Q55.0781 49.0781 51.5312 44.7188
Q48 40.375 41.7031 38.8125
Q48.8281 37.1562 52.7969 32.3125
Q56.7812 27.4844 56.7812 20.5156
Q56.7812 9.90625 50.3125 4.23438
Q43.8438 -1.42188 31.7812 -1.42188
Q19.7344 -1.42188 13.25 4.23438
Q6.78125 9.90625 6.78125 20.5156
Q6.78125 27.4844 10.7812 32.3125
Q14.7969 37.1562 21.9219 38.8125
M18.3125 54.3906
Q18.3125 48.7344 21.8438 45.5625
Q25.3906 42.3906 31.7812 42.3906
Q38.1406 42.3906 41.7188 45.5625
Q45.3125 48.7344 45.3125 54.3906
Q45.3125 60.0625 41.7188 63.2344
Q38.1406 66.4062 31.7812 66.4062
Q25.3906 66.4062 21.8438 63.2344
Q18.3125 60.0625 18.3125 54.3906" id="BitstreamVeraSans-Roman-38"/>
      </defs>
      <g transform="translate(54.340625 106.99125)scale(0.12 -0.12)">
       <use xlink:href="#BitstreamVeraSans-Roman-38"/>
       <use x="63.623046875" xlink:href="#BitstreamVeraSans-Roman-30"/>
      </g>
     </g>
    </g>
    <g id="ytick_6">
     <g id="line2d_39">
      <path clip-path="url(#pcb2bf987bf)" d="
M72 43.2
L518.4 43.2" style="fill:none;stroke:#000000;stroke-dasharray:1.000000,3.000000;stroke-dashoffset:0.0;stroke-width:0.5;"/>
     </g>
     <g id="line2d_40">
      <g>
       <use style="stroke:#000000;stroke-width:0.5;" x="72.0" xlink:href="#m728421d6d4" y="43.2"/>
      </g>
     </g>
     <g id="line2d_41">
      <g>
       <use style="stroke:#000000;stroke-width:0.5;" x="518.4" xlink:href="#mcb0005524f" y="43.2"/>
      </g>
     </g>
     <g id="text_13">
      <!-- 100 -->
      <g transform="translate(47.21 46.51125)scale(0.12 -0.12)">
       <use xlink:href="#BitstreamVeraSans-Roman-31"/>
       <use x="63.623046875" xlink:href="#BitstreamVeraSans-Roman-30"/>
       <use x="127.24609375" xlink:href="#BitstreamVeraSans-Roman-30"/>
      </g>
     </g>
    </g>
    <g id="text_14">
     <!-- temperature (C) -->
     <defs>
      <path d="
M34.2812 27.4844
Q23.3906 27.4844 19.1875 25
Q14.9844 22.5156 14.9844 16.5
Q14.9844 11.7188 18.1406 8.90625
Q21.2969 6.10938 26.7031 6.10938
Q34.1875 6.10938 38.7031 11.4062
Q43.2188 16.7031 43.2188 25.4844
L43.2188 27.4844
z

M52.2031 31.2031
L52.2031 0
L43.2188 0
L43.2188 8.29688
Q40.1406 3.32812 35.5469 0.953125
Q30.9531 -1.42188 24.3125 -1.42188
Q15.9219 -1.42188 10.9531 3.29688
Q6 8.01562 6 15.9219
Q6 25.1406 12.1719 29.8281
Q18.3594 34.5156 30.6094 34.5156
L43.2188 34.5156
L43.2188 35.4062
Q43.2188 41.6094 39.1406 45
Q35.0625 48.3906 27.6875 48.3906
Q23 48.3906 18.5469 47.2656
Q14.1094 46.1406 10.0156 43.8906
L10.0156 52.2031
Q14.9375 54.1094 19.5781 55.0469
Q24.2188 56 28.6094 56
Q40.4844 56 46.3438 49.8438
Q52.2031 43.7031 52.2031 31.2031" id="BitstreamVeraSans-Roman-61"/>
      <path id="BitstreamVeraSans-Roman-20"/>
      <path d="
M8.01562 75.875
L15.8281 75.875
Q23.1406 64.3594 26.7812 53.3125
Q30.4219 42.2812 30.4219 31.3906
Q30.4219 20.4531 26.7812 9.375
Q23.1406 -1.70312 15.8281 -13.1875
L8.01562 -13.1875
Q14.5 -2 17.7031 9.0625
Q20.9062 20.125 20.9062 31.3906
Q20.9062 42.6719 17.7031 53.6562
Q14.5 64.6562 8.01562 75.875" id="BitstreamVeraSans-Roman-29"/>
      <path d="
M52 44.1875
Q55.375 50.25 60.0625 53.125
Q64.75 56 71.0938 56
Q79.6406 56 84.2812 50.0156
Q88.9219 44.0469 88.9219 33.0156
L88.9219 0
L79.8906 0
L79.8906 32.7188
Q79.8906 40.5781 77.0938 44.375
Q74.3125 48.1875 68.6094 48.1875
Q61.625 48.1875 57.5625 43.5469
Q53.5156 38.9219 53.5156 30.9062
L53.5156 0
L44.4844 0
L44.4844 32.7188
Q44.4844 40.625 41.7031 44.4062
Q38.9219 48.1875 33.1094 48.1875
Q26.2188 48.1875 22.1562 43.5312
Q18.1094 38.875 18.1094 30.9062
L18.1094 0
L9.07812 0
L9.07812 54.6875
L18.1094 54.6875
L18.1094 46.1875
Q21.1875 51.2188 25.4844 53.6094
Q29.7812 56 35.6875 56
Q41.6562 56 45.8281 52.9688
Q50 49.9531 52 44.1875" id="BitstreamVeraSans-Roman-6d"/>
      <path d="
M64.4062 67.2812
L64.4062 56.8906
Q59.4219 61.5312 53.7812 63.8125
Q48.1406 66.1094 41.7969 66.1094
Q29.2969 66.1094 22.6562 58.4688
Q16.0156 50.8281 16.0156 36.375
Q16.0156 21.9688 22.6562 14.3281
Q29.2969 6.6875 41.7969 6.6875
Q48.1406 6.6875 53.7812 8.98438
Q59.4219 11.2812 64.4062 15.9219
L64.4062 5.60938
Q59.2344 2.09375 53.4375 0.328125
Q47.6562 -1.42188 41.2188 -1.42188
Q24.6562 -1.42188 15.125 8.70312
Q5.60938 18.8438 5.60938 36.375
Q5.60938 53.9531 15.125 64.0781
Q24.6562 74.2188 41.2188 74.2188
Q47.75 74.2188 53.5312 72.4844
Q59.3281 70.75 64.4062 67.2812" id="BitstreamVeraSans-Roman-43"/>
      <path d="
M31 75.875
Q24.4688 64.6562 21.2812 53.6562
Q18.1094 42.6719 18.1094 31.3906
Q18.1094 20.125 21.3125 9.0625
Q24.5156 -2 31 -13.1875
L23.1875 -13.1875
Q15.875 -1.70312 12.2344 9.375
Q8.59375 20.4531 8.59375 31.3906
Q8.59375 42.2812 12.2031 53.3125
Q15.8281 64.3594 23.1875 75.875
z
" id="BitstreamVeraSans-Roman-28"/>
      <path d="
M56.2031 29.5938
L56.2031 25.2031
L14.8906 25.2031
Q15.4844 15.9219 20.4844 11.0625
Q25.4844 6.20312 34.4219 6.20312
Q39.5938 6.20312 44.4531 7.46875
Q49.3125 8.73438 54.1094 11.2812
L54.1094 2.78125
Q49.2656 0.734375 44.1875 -0.34375
Q39.1094 -1.42188 33.8906 -1.42188
Q20.7969 -1.42188 13.1562 6.1875
Q5.51562 13.8125 5.51562 26.8125
Q5.51562 40.2344 12.7656 48.1094
Q20.0156 56 32.3281 56
Q43.3594 56 49.7812 48.8906
Q56.2031 41.7969 56.2031 29.5938
M47.2188 32.2344
Q47.125 39.5938 43.0938 43.9844
Q39.0625 48.3906 32.4219 48.3906
Q24.9062 48.3906 20.3906 44.1406
Q15.875 39.8906 15.1875 32.1719
z
" id="BitstreamVeraSans-Roman-65"/>
      <path d="
M18.3125 70.2188
L18.3125 54.6875
L36.8125 54.6875
L36.8125 47.7031
L18.3125 47.7031
L18.3125 18.0156
Q18.3125 11.3281 20.1406 9.42188
Q21.9688 7.51562 27.5938 7.51562
L36.8125 7.51562
L36.8125 0
L27.5938 0
Q17.1875 0 13.2344 3.875
Q9.28125 7.76562 9.28125 18.0156
L9.28125 47.7031
L2.6875 47.7031
L2.6875 54.6875
L9.28125 54.6875
L9.28125 70.2188
z
" id="BitstreamVeraSans-Roman-74"/>
      <path d="
M41.1094 46.2969
Q39.5938 47.1719 37.8125 47.5781
Q36.0312 48 33.8906 48
Q26.2656 48 22.1875 43.0469
Q18.1094 38.0938 18.1094 28.8125
L18.1094 0
L9.07812 0
L9.07812 54.6875
L18.1094 54.6875
L18.1094 46.1875
Q20.9531 51.1719 25.4844 53.5781
Q30.0312 56 36.5312 56
Q37.4531 56 38.5781 55.875
Q39.7031 55.7656 41.0625 55.5156
z
" id="BitstreamVeraSans-Roman-72"/>
      <path d="
M18.1094 8.20312
L18.1094 -20.7969
L9.07812 -20.7969
L9.07812 54.6875
L18.1094 54.6875
L18.1094 46.3906
Q20.9531 51.2656 25.2656 53.625
Q29.5938 56 35.5938 56
Q45.5625 56 51.7812 48.0938
Q58.0156 40.1875 58.0156 27.2969
Q58.0156 14.4062 51.7812 6.48438
Q45.5625 -1.42188 35.5938 -1.42188
Q29.5938 -1.42188 25.2656 0.953125
Q20.9531 3.32812 18.1094 8.20312
M48.6875 27.2969
Q48.6875 37.2031 44.6094 42.8438
Q40.5312 48.4844 33.4062 48.4844
Q26.2656 48.4844 22.1875 42.8438
Q18.1094 37.2031 18.1094 27.2969
Q18.1094 17.3906 22.1875 11.75
Q26.2656 6.10938 33.4062 6.10938
Q40.5312 6.10938 44.6094 11.75
Q48.6875 17.3906 48.6875 27.2969" id="BitstreamVeraSans-Roman-70"/>
     </defs>
     <g transform="translate(39.714375 242.37375)rotate(-90.0)scale(0.12 -0.12)">
      <use xlink:href="#BitstreamVeraSans-Roman-74"/>
      <use x="39.208984375" xlink:href="#BitstreamVeraSans-Roman-65"/>
      <use x="100.732421875" xlink:href="#BitstreamVeraSans-Roman-6d"/>
      <use x="198.14453125" xlink:href="#BitstreamVeraSans-Roman-70"/>
      <use x="261.62109375" xlink:href="#BitstreamVeraSans-Roman-65"/>
      <use x="323.14453125" xlink:href="#BitstreamVeraSans-Roman-72"/>
      <use x="364.2578125" xlink:href="#BitstreamVeraSans-Roman-61"/>
      <use x="425.537109375" xlink:href="#BitstreamVeraSans-Roman-74"/>
      <use x="464.74609375" xlink:href="#BitstreamVeraSans-Roman-75"/>
      <use x="528.125" xlink:href="#BitstreamVeraSans-Roman-72"/>
      <use x="566.98828125" xlink:href="#BitstreamVeraSans-Roman-65"/>
      <use x="628.51171875" xlink:href="#BitstreamVeraSans-Roman-20"/>
      <use x="660.298828125" xlink:href="#BitstreamVeraSans-Roman-28"/>
      <use x="699.3125" xlink:href="#BitstreamVeraSans-Roman-43"/>
      <use x="769.13671875" xlink:href="#BitstreamVeraSans-Roman-29"/>
     </g>
    </g>
   </g>
   <g id="patch_3">
    <path d="
M72 43.2
L518.4 43.2" style="fill:none;stroke:#000000;"/>
   </g>
   <g id="patch_4">
    <path d="
M518.4 345.6
L518.4 43.2" style="fill:none;stroke:#000000;"/>
   </g>
   <g id="patch_5">
    <path d="
M72 345.6
L518.4 345.6" style="fill:none;stroke:#000000;"/>
   </g>
   <g id="patch_6">
    <path d="
M72 345.6
L72 43.2" style="fill:none;stroke:#000000;"/>
   </g>
   <g id="text_15">
    <!-- CPU critical temperature -->
    <defs>
     <path d="
M19.6719 64.7969
L19.6719 37.4062
L32.0781 37.4062
Q38.9688 37.4062 42.7188 40.9688
Q46.4844 44.5312 46.4844 51.125
Q46.4844 57.6719 42.7188 61.2344
Q38.9688 64.7969 32.0781 64.7969
z

M9.8125 72.9062
L32.0781 72.9062
Q44.3438 72.9062 50.6094 67.3594
Q56.8906 61.8125 56.8906 51.125
Q56.8906 40.3281 50.6094 34.8125
Q44.3438 29.2969 32.0781 29.2969
L19.6719 29.2969
L19.6719 0
L9.8125 0
z
" id="BitstreamVeraSans-Roman-50"/>
     <path d="
M9.42188 54.6875
L18.4062 54.6875
L18.4062 0
L9.42188 0
z

M9.42188 75.9844
L18.4062 75.9844
L18.4062 64.5938
L9.42188 64.5938
z
" id="BitstreamVeraSans-Roman-69"/>
     <path d="
M8.6875 72.9062
L18.6094 72.9062
L18.6094 28.6094
Q18.6094 16.8906 22.8438 11.7344
Q27.0938 6.59375 36.625 6.59375
Q46.0938 6.59375 50.3438 11.7344
Q54.5938 16.8906 54.5938 28.6094
L54.5938 72.9062
L64.5 72.9062
L64.5 27.3906
Q64.5 13.1406 57.4375 5.85938
Q50.3906 -1.42188 36.625 -1.42188
Q22.7969 -1.42188 15.7344 5.85938
Q8.6875 13.1406 8.6875 27.3906
z
" id="BitstreamVeraSans-Roman-55"/>
     <path d="
M48.7812 52.5938
L48.7812 44.1875
Q44.9688 46.2969 41.1406 47.3438
Q37.3125 48.3906 33.4062 48.3906
Q24.6562 48.3906 19.8125 42.8438
Q14.9844 37.3125 14.9844 27.2969
Q14.9844 17.2812 19.8125 11.7344
Q24.6562 6.20312 33.4062 6.20312
Q37.3125 6.20312 41.1406 7.25
Q44.9688 8.29688 48.7812 10.4062
L48.7812 2.09375
Q45.0156 0.34375 40.9844 -0.53125
Q36.9688 -1.42188 32.4219 -1.42188
Q20.0625 -1.42188 12.7812 6.34375
Q5.51562 14.1094 5.51562 27.2969
Q5.51562 40.6719 12.8594 48.3281
Q20.2188 56 33.0156 56
Q37.1562 56 41.1094 55.1406
Q45.0625 54.2969 48.7812 52.5938" id="BitstreamVeraSans-Roman-63"/>
    </defs>
    <g style="fill:#ff0000;" transform="translate(72.0 85.536)scale(0.12 -0.12)">
     <use xlink:href="#BitstreamVeraSans-Roman-43"/>
     <use x="69.82421875" xlink:href="#BitstreamVeraSans-Roman-50"/>
     <use x="130.126953125" xlink:href="#BitstreamVeraSans-Roman-55"/>
     <use x="203.3203125" xlink:href="#BitstreamVeraSans-Roman-20"/>
     <use x="235.107421875" xlink:href="#BitstreamVeraSans-Roman-63"/>
     <use x="290.087890625" xlink:href="#BitstreamVeraSans-Roman-72"/>
     <use x="331.201171875" xlink:href="#BitstreamVeraSans-Roman-69"/>
     <use x="358.984375" xlink:href="#BitstreamVeraSans-Roman-74"/>
     <use x="398.193359375" xlink:href="#BitstreamVeraSans-Roman-69"/>
     <use x="425.9765625" xlink:href="#BitstreamVeraSans-Roman-63"/>
     <use x="480.95703125" xlink:href="#BitstreamVeraSans-Roman-61"/>
     <use x="542.236328125" xlink:href="#BitstreamVeraSans-Roman-6c"/>
     <use x="570.01953125" xlink:href="#BitstreamVeraSans-Roman-20"/>
     <use x="601.806640625" xlink:href="#BitstreamVeraSans-Roman-74"/>
     <use x="641.015625" xlink:href="#BitstreamVeraSans-Roman-65"/>
     <use x="702.5390625" xlink:href="#BitstreamVeraSans-Roman-6d"/>
     <use x="799.951171875" xlink:href="#BitstreamVeraSans-Roman-70"/>
     <use x="863.427734375" xlink:href="#BitstreamVeraSans-Roman-65"/>
     <use x="924.951171875" xlink:href="#BitstreamVeraSans-Roman-72"/>
     <use x="966.064453125" xlink:href="#BitstreamVeraSans-Roman-61"/>
     <use x="1027.34375" xlink:href="#BitstreamVeraSans-Roman-74"/>
     <use x="1066.55273438" xlink:href="#BitstreamVeraSans-Roman-75"/>
     <use x="1129.93164062" xlink:href="#BitstreamVeraSans-Roman-72"/>
     <use x="1168.79492188" xlink:href="#BitstreamVeraSans-Roman-65"/>
    </g>
   </g>
   <g id="text_16">
    <!-- node03 -->
    <defs>
     <path d="
M54.8906 33.0156
L54.8906 0
L45.9062 0
L45.9062 32.7188
Q45.9062 40.4844 42.875 44.3281
Q39.8438 48.1875 33.7969 48.1875
Q26.5156 48.1875 22.3125 43.5469
Q18.1094 38.9219 18.1094 30.9062
L18.1094 0
L9.07812 0
L9.07812 54.6875
L18.1094 54.6875
L18.1094 46.1875
Q21.3438 51.125 25.7031 53.5625
Q30.0781 56 35.7969 56
Q45.2188 56 50.0469 50.1719
Q54.8906 44.3438 54.8906 33.0156" id="BitstreamVeraSans-Roman-6e"/>
     <path d="
M45.4062 46.3906
L45.4062 75.9844
L54.3906 75.9844
L54.3906 0
L45.4062 0
L45.4062 8.20312
Q42.5781 3.32812 38.25 0.953125
Q33.9375 -1.42188 27.875 -1.42188
Q17.9688 -1.42188 11.7344 6.48438
Q5.51562 14.4062 5.51562 27.2969
Q5.51562 40.1875 11.7344 48.0938
Q17.9688 56 27.875 56
Q33.9375 56 38.25 53.625
Q42.5781 51.2656 45.4062 46.3906
M14.7969 27.2969
Q14.7969 17.3906 18.875 11.75
Q22.9531 6.10938 30.0781 6.10938
Q37.2031 6.10938 41.2969 11.75
Q45.4062 17.3906 45.4062 27.2969
Q45.4062 37.2031 41.2969 42.8438
Q37.2031 48.4844 30.0781 48.4844
Q22.9531 48.4844 18.875 42.8438
Q14.7969 37.2031 14.7969 27.2969" id="BitstreamVeraSans-Roman-64"/>
     <path d="
M30.6094 48.3906
Q23.3906 48.3906 19.1875 42.75
Q14.9844 37.1094 14.9844 27.2969
Q14.9844 17.4844 19.1562 11.8438
Q23.3438 6.20312 30.6094 6.20312
Q37.7969 6.20312 41.9844 11.8594
Q46.1875 17.5312 46.1875 27.2969
Q46.1875 37.0156 41.9844 42.7031
Q37.7969 48.3906 30.6094 48.3906
M30.6094 56
Q42.3281 56 49.0156 48.375
Q55.7188 40.7656 55.7188 27.2969
Q55.7188 13.875 49.0156 6.21875
Q42.3281 -1.42188 30.6094 -1.42188
Q18.8438 -1.42188 12.1719 6.21875
Q5.51562 13.875 5.51562 27.2969
Q5.51562 40.7656 12.1719 48.375
Q18.8438 56 30.6094 56" id="BitstreamVeraSans-Roman-6f"/>
    </defs>
    <g transform="translate(269.299125 38.2)scale(0.144 -0.144)">
     <use xlink:href="#BitstreamVeraSans-Roman-6e"/>
     <use x="63.37890625" xlink:href="#BitstreamVeraSans-Roman-6f"/>
     <use x="124.560546875" xlink:href="#BitstreamVeraSans-Roman-64"/>
     <use x="188.037109375" xlink:href="#BitstreamVeraSans-Roman-65"/>
     <use x="249.560546875" xlink:href="#BitstreamVeraSans-Roman-30"/>
     <use x="313.18359375" xlink:href="#BitstreamVeraSans-Roman-33"/>
    </g>
   </g>
  </g>
 </g>
 <defs>
  <clipPath id="pcb2bf987bf">
   <rect height="302.4" width="446.4" x="72.0" y="43.2"/>
  </clipPath>
 </defs>
</svg>
