<?xml version="1.0" encoding="utf-8" standalone="no"?>
<!DOCTYPE svg PUBLIC "-//W3C//DTD SVG 1.1//EN"
  "http://www.w3.org/Graphics/SVG/1.1/DTD/svg11.dtd">
<!-- Created with matplotlib (http://matplotlib.org/) -->
<svg height="432pt" version="1.1" viewBox="0 0 576 432" width="576pt" xmlns="http://www.w3.org/2000/svg" xmlns:xlink="http://www.w3.org/1999/xlink">
 <defs>
  <style type="text/css">
*{stroke-linecap:butt;stroke-linejoin:round;}
  </style>
 </defs>
 <g id="figure_1">
  <g id="patch_1">
   <path d="
M0 432
L576 432
L576 0
L0 0
z
" style="fill:#ffffff;"/>
  </g>
  <g id="axes_1">
   <g id="patch_2">
    <path d="
M72 345.6
L518.4 345.6
L518.4 43.2
L72 43.2
z
" style="fill:#ffffff;"/>
   </g>
   <g id="line2d_1">
    <path clip-path="url(#pcb2bf987bf)" d="
M72 254.88
L72.6065 249.382
L73.213 254.88
L73.8196 252.131
L74.4261 254.88
L75.0326 252.131
L75.6391 254.88
L78.6717 254.88
L79.2783 249.382
L79.8848 254.88
L81.0978 249.382
L81.7043 249.382
L82.3109 252.131
L84.1304 252.131
L84.737 249.382
L85.3435 254.88
L85.95 252.131
L86.5565 254.88
L87.163 254.88
L87.7696 252.131
L88.3761 252.131
L88.9826 254.88
L89.5891 252.131
L90.8022 252.131
L91.4087 254.88
L93.2283 254.88
L93.8348 252.131
L94.4413 254.88
L98.687 254.88
L99.2935 257.629
L100.507 252.131
L101.113 254.88
L102.326 254.88
L102.933 249.382
L103.539 254.88
L104.146 249.382
L104.752 252.131
L105.359 246.633
L105.965 249.382
L106.572 249.382
L107.178 252.131
L107.785 246.633
L108.998 252.131
L109.604 246.633
L110.211 249.382
L110.817 246.633
L111.424 246.633
L112.03 249.382
L112.637 249.382
L113.243 246.633
L113.85 246.633
L114.457 249.382
L115.063 246.633
L115.67 252.131
L116.276 249.382
L117.489 249.382
L118.096 252.131
L118.702 249.382
L119.915 249.382
L120.522 252.131
L121.128 249.382
L122.341 249.382
L122.948 254.88
L123.554 254.88
L124.161 246.633
L124.767 252.131
L125.374 249.382
L125.98 252.131
L127.8 252.131
L128.407 254.88
L129.013 252.131
L130.226 252.131
L130.833 246.633
L131.439 252.131
L132.046 252.131
L132.652 254.88
L133.259 252.131
L133.865 254.88
L134.472 249.382
L135.078 249.382
L136.291 254.88
L136.898 252.131
L140.537 252.131
L141.143 249.382
L141.75 254.88
L142.357 252.131
L143.57 252.131
L144.176 254.88
L144.783 249.382
L145.389 249.382
L145.996 254.88
L146.602 252.131
L147.209 252.131
L147.815 254.88
L148.422 252.131
L149.028 254.88
L149.635 252.131
L150.241 254.88
L150.848 252.131
L152.061 252.131
L152.667 257.629
L153.274 254.88
L157.52 254.88
L158.126 252.131
L161.159 252.131
L161.765 249.382
L162.372 249.382
L162.978 252.131
L163.585 249.382
L164.191 252.131
L164.798 252.131
L165.404 246.633
L166.617 252.131
L167.224 246.633
L167.83 252.131
L168.437 252.131
L169.043 249.382
L169.65 249.382
L170.257 252.131
L170.863 252.131
L171.47 249.382
L174.502 249.382
L175.109 246.633
L175.715 246.633
L176.928 252.131
L177.535 249.382
L178.141 249.382
L178.748 252.131
L180.567 252.131
L181.174 249.382
L181.78 249.382
L182.387 254.88
L182.993 252.131
L183.6 254.88
L184.207 252.131
L184.813 252.131
L185.42 254.88
L186.026 254.88
L186.633 252.131
L187.239 254.88
L187.846 252.131
L189.665 252.131
L190.272 249.382
L190.878 249.382
L191.485 252.131
L193.911 252.131
L194.517 254.88
L195.124 252.131
L195.73 252.131
L196.943 246.633
L197.55 252.131
L198.763 252.131
L199.37 249.382
L200.583 254.88
L201.189 252.131
L201.796 252.131
L202.402 249.382
L203.009 252.131
L203.615 252.131
L204.222 249.382
L204.828 252.131
L206.041 252.131
L206.648 249.382
L207.254 252.131
L208.467 252.131
L209.074 249.382
L209.68 252.131
L210.287 252.131
L210.893 249.382
L211.5 252.131
L212.107 249.382
L212.713 252.131
L213.32 246.633
L213.926 252.131
L214.533 249.382
L215.139 252.131
L215.746 249.382
L219.385 249.382
L219.991 243.884
L221.204 249.382
L223.024 249.382
L223.63 246.633
L225.45 246.633
L226.057 243.884
L227.27 243.884
L227.876 246.633
L229.089 246.633
L229.696 243.884
L232.122 243.884
L232.728 249.382
L233.335 243.884
L234.548 249.382
L235.154 246.633
L235.761 246.633
L236.367 243.884
L237.58 249.382
L238.187 246.633
L238.793 249.382
L239.4 249.382
L240.007 246.633
L241.22 246.633
L241.826 249.382
L242.433 246.633
L243.646 252.131
L244.252 249.382
L244.859 252.131
L245.465 249.382
L246.072 249.382
L246.678 243.884
L247.285 249.382
L247.891 249.382
L248.498 246.633
L249.104 249.382
L249.711 249.382
L250.317 252.131
L250.924 249.382
L251.53 252.131
L252.137 249.382
L252.743 249.382
L253.35 246.633
L253.957 246.633
L255.17 252.131
L256.989 252.131
L257.596 249.382
L258.202 252.131
L258.809 249.382
L259.415 249.382
L260.022 252.131
L260.628 249.382
L261.235 249.382
L261.841 252.131
L262.448 249.382
L263.054 252.131
L264.267 252.131
L264.874 254.88
L265.48 252.131
L266.087 254.88
L266.693 252.131
L267.907 252.131
L268.513 249.382
L269.12 252.131
L269.726 249.382
L270.333 252.131
L271.546 252.131
L272.152 254.88
L272.759 254.88
L273.365 252.131
L273.972 252.131
L274.578 249.382
L275.185 254.88
L275.791 252.131
L276.398 254.88
L277.004 252.131
L278.217 252.131
L278.824 249.382
L279.43 252.131
L280.037 249.382
L280.643 249.382
L281.25 252.131
L281.857 252.131
L283.07 246.633
L283.676 246.633
L284.283 252.131
L285.496 246.633
L286.102 249.382
L291.561 249.382
L292.167 252.131
L292.774 249.382
L293.38 252.131
L295.2 252.131
L295.807 249.382
L296.413 252.131
L297.02 249.382
L298.839 249.382
L299.446 252.131
L300.052 252.131
L300.659 246.633
L301.872 252.131
L302.478 246.633
L303.085 252.131
L303.691 249.382
L304.904 249.382
L305.511 252.131
L306.117 249.382
L306.724 252.131
L307.33 249.382
L307.937 249.382
L308.543 252.131
L310.363 252.131
L310.97 249.382
L311.576 252.131
L312.183 252.131
L312.789 249.382
L313.396 249.382
L314.002 252.131
L314.609 249.382
L315.215 252.131
L315.822 252.131
L316.428 249.382
L317.035 252.131
L319.461 252.131
L320.067 249.382
L320.674 252.131
L323.1 252.131
L323.707 249.382
L324.313 252.131
L325.526 252.131
L326.133 249.382
L326.739 249.382
L327.952 254.88
L329.165 249.382
L329.772 252.131
L330.985 252.131
L331.591 249.382
L332.198 252.131
L332.804 252.131
L333.411 254.88
L334.017 252.131
L334.624 252.131
L335.23 249.382
L335.837 252.131
L337.657 252.131
L338.263 249.382
L338.87 249.382
L339.476 252.131
L340.083 249.382
L342.509 249.382
L343.115 246.633
L343.722 246.633
L344.328 249.382
L345.541 249.382
L346.148 246.633
L346.754 249.382
L347.361 249.382
L347.967 246.633
L348.574 249.382
L351 249.382
L351.607 246.633
L352.213 246.633
L352.82 249.382
L354.033 249.382
L354.639 246.633
L355.246 246.633
L356.459 252.131
L357.065 246.633
L357.672 252.131
L358.278 252.131
L358.885 249.382
L360.704 249.382
L361.311 246.633
L362.524 252.131
L363.13 246.633
L363.737 249.382
L364.95 249.382
L365.557 252.131
L366.163 252.131
L366.77 249.382
L367.376 249.382
L367.983 252.131
L370.409 252.131
L371.015 246.633
L371.622 252.131
L372.228 252.131
L372.835 249.382
L374.048 249.382
L374.654 252.131
L375.867 252.131
L376.474 249.382
L377.08 252.131
L377.687 252.131
L378.293 254.88
L378.9 249.382
L379.507 252.131
L380.113 252.131
L381.326 246.633
L381.933 252.131
L382.539 252.131
L383.146 246.633
L383.752 252.131
L384.359 249.382
L385.572 249.382
L386.178 243.884
L386.785 249.382
L388.604 249.382
L389.211 252.131
L391.637 252.131
L392.243 249.382
L392.85 254.88
L394.063 249.382
L394.67 249.382
L395.276 246.633
L395.883 249.382
L396.489 249.382
L397.096 254.88
L397.702 246.633
L398.309 249.382
L400.735 249.382
L401.341 252.131
L401.948 252.131
L402.554 246.633
L403.161 246.633
L403.767 243.884
L404.374 243.884
L404.98 246.633
L405.587 243.884
L406.193 246.633
L408.013 246.633
L408.62 243.884
L409.226 246.633
L409.833 246.633
L410.439 243.884
L411.046 249.382
L411.652 243.884
L412.259 246.633
L412.865 246.633
L413.472 243.884
L414.078 249.382
L414.685 243.884
L415.291 249.382
L415.898 246.633
L416.504 249.382
L417.111 249.382
L417.717 246.633
L418.324 249.382
L418.93 246.633
L419.537 246.633
L420.75 252.131
L421.357 252.131
L421.963 246.633
L422.57 246.633
L423.783 252.131
L424.389 249.382
L424.996 249.382
L425.602 252.131
L426.209 249.382
L426.815 252.131
L427.422 249.382
L428.028 252.131
L428.635 249.382
L429.241 249.382
L429.848 252.131
L430.454 249.382
L431.061 252.131
L431.667 252.131
L432.274 249.382
L432.88 252.131
L433.487 252.131
L434.093 249.382
L434.7 252.131
L435.307 249.382
L435.913 249.382
L436.52 252.131
L437.126 249.382
L437.733 252.131
L438.339 249.382
L438.946 252.131
L439.552 252.131
L440.159 249.382
L440.765 252.131
L442.585 252.131
L443.191 249.382
L443.798 252.131
L444.404 252.131
L445.011 249.382
L445.617 252.131
L446.224 252.131
L446.83 249.382
L448.043 254.88
L448.65 249.382
L449.257 249.382
L449.863 252.131
L450.47 252.131
L451.076 246.633
L451.683 249.382
L457.141 249.382
L457.748 246.633
L458.354 249.382
L458.961 249.382
L459.567 243.884
L460.78 243.884
L461.387 246.633
L461.993 243.884
L462.6 246.633
L463.207 241.135
L463.813 246.633
L464.42 246.633
L465.026 249.382
L465.633 246.633
L466.846 252.131
L468.059 246.633
L468.665 249.382
L469.272 246.633
L469.878 249.382
L470.485 249.382
L471.091 246.633
L473.517 246.633
L474.124 249.382
L474.73 249.382
L475.943 243.884
L476.55 249.382
L477.157 252.131
L477.763 249.382
L478.976 249.382
L479.583 246.633
L480.796 252.131
L481.402 246.633
L482.615 252.131
L483.222 249.382
L484.435 249.382
L485.041 252.131
L486.254 252.131
L486.861 249.382
L487.467 252.131
L488.074 246.633
L488.68 252.131
L489.287 252.131
L489.893 249.382
L490.5 252.131
L491.107 252.131
L491.713 249.382
L492.32 252.131
L492.926 249.382
L493.533 252.131
L494.139 249.382
L494.746 252.131
L498.385 252.131
L498.991 254.88
L500.204 249.382
L500.811 252.131
L501.417 252.131
L502.024 254.88
L502.63 252.131
L503.843 252.131
L504.45 254.88
L505.057 252.131
L505.663 254.88
L506.27 246.633
L506.876 246.633
L507.483 252.131
L508.089 252.131
L508.696 246.633
L509.302 243.884
L509.909 246.633
L510.515 246.633
L511.122 243.884
L511.728 246.633
L512.335 243.884
L512.941 246.633
L513.548 246.633
L514.154 243.884
L514.761 246.633
L515.367 246.633
L515.974 249.382
L516.58 246.633
L517.187 246.633
L517.793 243.884
L518.4 249.382
L518.4 249.382" style="fill:none;stroke:#0000ff;stroke-linecap:square;"/>
   </g>
   <g id="line2d_2">
    <path clip-path="url(#pcb2bf987bf)" d="
M72 111.927
L518.4 111.927" style="fill:none;stroke:#ffa500;stroke-linecap:square;"/>
   </g>
   <g id="line2d_3">
    <path clip-path="url(#pcb2bf987bf)" d="
M72 84.4364
L518.4 84.4364" style="fill:none;stroke:#ff0000;stroke-linecap:square;stroke-width:2;"/>
   </g>
   <g id="patch_3">
    <path d="
M72 43.2
L518.4 43.2" style="fill:none;stroke:#000000;stroke-linecap:square;stroke-linejoin:miter;"/>
   </g>
   <g id="patch_4">
    <path d="
M518.4 345.6
L518.4 43.2" style="fill:none;stroke:#000000;stroke-linecap:square;stroke-linejoin:miter;"/>
   </g>
   <g id="patch_5">
    <path d="
M72 345.6
L518.4 345.6" style="fill:none;stroke:#000000;stroke-linecap:square;stroke-linejoin:miter;"/>
   </g>
   <g id="patch_6">
    <path d="
M72 345.6
L72 43.2" style="fill:none;stroke:#000000;stroke-linecap:square;stroke-linejoin:miter;"/>
   </g>
   <g id="matplotlib.axis_1">
    <g id="xtick_1">
     <g id="line2d_4">
      <path clip-path="url(#pcb2bf987bf)" d="
M130.225 345.6
L130.225 43.2" style="fill:none;stroke:#000000;stroke-dasharray:1.000000,3.000000;stroke-dashoffset:0.0;stroke-width:0.5;"/>
     </g>
     <g id="line2d_5">
      <defs>
       <path d="
M0 0
L0 -4" id="m93b0483c22" style="stroke:#000000;stroke-width:0.5;"/>
      </defs>
      <g>
       <use style="stroke:#000000;stroke-width:0.5;" x="130.225413039" xlink:href="#m93b0483c22" y="345.6"/>
      </g>
     </g>
     <g id="line2d_6">
      <defs>
       <path d="
M0 0
L0 4" id="m741efc42ff" style="stroke:#000000;stroke-width:0.5;"/>
      </defs>
      <g>
       <use style="stroke:#000000;stroke-width:0.5;" x="130.225413039" xlink:href="#m741efc42ff" y="43.2"/>
      </g>
     </g>
     <g id="text_1">
      <!-- May12 -->
      <defs>
       <path d="
M19.1875 8.29688
L53.6094 8.29688
L53.6094 0
L7.32812 0
L7.32812 8.29688
Q12.9375 14.1094 22.625 23.8906
Q32.3281 33.6875 34.8125 36.5312
Q39.5469 41.8438 41.4219 45.5312
Q43.3125 49.2188 43.3125 52.7812
Q43.3125 58.5938 39.2344 62.25
Q35.1562 65.9219 28.6094 65.9219
Q23.9688 65.9219 18.8125 64.3125
Q13.6719 62.7031 7.8125 59.4219
L7.8125 69.3906
Q13.7656 71.7812 18.9375 73
Q24.125 74.2188 28.4219 74.2188
Q39.75 74.2188 46.4844 68.5469
Q53.2188 62.8906 53.2188 53.4219
Q53.2188 48.9219 51.5312 44.8906
Q49.8594 40.875 45.4062 35.4062
Q44.1875 33.9844 37.6406 27.2188
Q31.1094 20.4531 19.1875 8.29688" id="BitstreamVeraSans-Roman-32"/>
       <path d="
M12.4062 8.29688
L28.5156 8.29688
L28.5156 63.9219
L10.9844 60.4062
L10.9844 69.3906
L28.4219 72.9062
L38.2812 72.9062
L38.2812 8.29688
L54.3906 8.29688
L54.3906 0
L12.4062 0
z
" id="BitstreamVeraSans-Roman-31"/>
       <path d="
M9.8125 72.9062
L24.5156 72.9062
L43.1094 23.2969
L61.8125 72.9062
L76.5156 72.9062
L76.5156 0
L66.8906 0
L66.8906 64.0156
L48.0938 14.0156
L38.1875 14.0156
L19.3906 64.0156
L19.3906 0
L9.8125 0
z
" id="BitstreamVeraSans-Roman-4d"/>
       <path d="
M34.2812 27.4844
Q23.3906 27.4844 19.1875 25
Q14.9844 22.5156 14.9844 16.5
Q14.9844 11.7188 18.1406 8.90625
Q21.2969 6.10938 26.7031 6.10938
Q34.1875 6.10938 38.7031 11.4062
Q43.2188 16.7031 43.2188 25.4844
L43.2188 27.4844
z

M52.2031 31.2031
L52.2031 0
L43.2188 0
L43.2188 8.29688
Q40.1406 3.32812 35.5469 0.953125
Q30.9531 -1.42188 24.3125 -1.42188
Q15.9219 -1.42188 10.9531 3.29688
Q6 8.01562 6 15.9219
Q6 25.1406 12.1719 29.8281
Q18.3594 34.5156 30.6094 34.5156
L43.2188 34.5156
L43.2188 35.4062
Q43.2188 41.6094 39.1406 45
Q35.0625 48.3906 27.6875 48.3906
Q23 48.3906 18.5469 47.2656
Q14.1094 46.1406 10.0156 43.8906
L10.0156 52.2031
Q14.9375 54.1094 19.5781 55.0469
Q24.2188 56 28.6094 56
Q40.4844 56 46.3438 49.8438
Q52.2031 43.7031 52.2031 31.2031" id="BitstreamVeraSans-Roman-61"/>
       <path d="
M32.1719 -5.07812
Q28.375 -14.8438 24.75 -17.8125
Q21.1406 -20.7969 15.0938 -20.7969
L7.90625 -20.7969
L7.90625 -13.2812
L13.1875 -13.2812
Q16.8906 -13.2812 18.9375 -11.5156
Q21 -9.76562 23.4844 -3.21875
L25.0938 0.875
L2.98438 54.6875
L12.5 54.6875
L29.5938 11.9219
L46.6875 54.6875
L56.2031 54.6875
z
" id="BitstreamVeraSans-Roman-79"/>
      </defs>
      <g transform="translate(96.3279015508 376.346840385)rotate(-30.0)scale(0.12 -0.12)">
       <use xlink:href="#BitstreamVeraSans-Roman-4d"/>
       <use x="86.279296875" xlink:href="#BitstreamVeraSans-Roman-61"/>
       <use x="147.55859375" xlink:href="#BitstreamVeraSans-Roman-79"/>
       <use x="206.73828125" xlink:href="#BitstreamVeraSans-Roman-31"/>
       <use x="270.361328125" xlink:href="#BitstreamVeraSans-Roman-32"/>
      </g>
     </g>
    </g>
    <g id="xtick_2">
     <g id="line2d_7">
      <path clip-path="url(#pcb2bf987bf)" d="
M188.451 345.6
L188.451 43.2" style="fill:none;stroke:#000000;stroke-dasharray:1.000000,3.000000;stroke-dashoffset:0.0;stroke-width:0.5;"/>
     </g>
     <g id="line2d_8">
      <g>
       <use style="stroke:#000000;stroke-width:0.5;" x="188.451499999" xlink:href="#m93b0483c22" y="345.6"/>
      </g>
     </g>
     <g id="line2d_9">
      <g>
       <use style="stroke:#000000;stroke-width:0.5;" x="188.451499999" xlink:href="#m741efc42ff" y="43.2"/>
      </g>
     </g>
     <g id="text_2">
      <!-- May13 -->
      <defs>
       <path d="
M40.5781 39.3125
Q47.6562 37.7969 51.625 33
Q55.6094 28.2188 55.6094 21.1875
Q55.6094 10.4062 48.1875 4.48438
Q40.7656 -1.42188 27.0938 -1.42188
Q22.5156 -1.42188 17.6562 -0.515625
Q12.7969 0.390625 7.625 2.20312
L7.625 11.7188
Q11.7188 9.32812 16.5938 8.10938
Q21.4844 6.89062 26.8125 6.89062
Q36.0781 6.89062 40.9375 10.5469
Q45.7969 14.2031 45.7969 21.1875
Q45.7969 27.6406 41.2812 31.2656
Q36.7656 34.9062 28.7188 34.9062
L20.2188 34.9062
L20.2188 43.0156
L29.1094 43.0156
Q36.375 43.0156 40.2344 45.9219
Q44.0938 48.8281 44.0938 54.2969
Q44.0938 59.9062 40.1094 62.9062
Q36.1406 65.9219 28.7188 65.9219
Q24.6562 65.9219 20.0156 65.0312
Q15.375 64.1562 9.8125 62.3125
L9.8125 71.0938
Q15.4375 72.6562 20.3438 73.4375
Q25.25 74.2188 29.5938 74.2188
Q40.8281 74.2188 47.3594 69.1094
Q53.9062 64.0156 53.9062 55.3281
Q53.9062 49.2656 50.4375 45.0938
Q46.9688 40.9219 40.5781 39.3125" id="BitstreamVeraSans-Roman-33"/>
      </defs>
      <g transform="translate(154.346142413 376.466840385)rotate(-30.0)scale(0.12 -0.12)">
       <use xlink:href="#BitstreamVeraSans-Roman-4d"/>
       <use x="86.279296875" xlink:href="#BitstreamVeraSans-Roman-61"/>
       <use x="147.55859375" xlink:href="#BitstreamVeraSans-Roman-79"/>
       <use x="206.73828125" xlink:href="#BitstreamVeraSans-Roman-31"/>
       <use x="270.361328125" xlink:href="#BitstreamVeraSans-Roman-33"/>
      </g>
     </g>
    </g>
    <g id="xtick_3">
     <g id="line2d_10">
      <path clip-path="url(#pcb2bf987bf)" d="
M246.678 345.6
L246.678 43.2" style="fill:none;stroke:#000000;stroke-dasharray:1.000000,3.000000;stroke-dashoffset:0.0;stroke-width:0.5;"/>
     </g>
     <g id="line2d_11">
      <g>
       <use style="stroke:#000000;stroke-width:0.5;" x="246.67758695" xlink:href="#m93b0483c22" y="345.6"/>
      </g>
     </g>
     <g id="line2d_12">
      <g>
       <use style="stroke:#000000;stroke-width:0.5;" x="246.67758695" xlink:href="#m741efc42ff" y="43.2"/>
      </g>
     </g>
     <g id="text_3">
      <!-- May14 -->
      <defs>
       <path d="
M37.7969 64.3125
L12.8906 25.3906
L37.7969 25.3906
z

M35.2031 72.9062
L47.6094 72.9062
L47.6094 25.3906
L58.0156 25.3906
L58.0156 17.1875
L47.6094 17.1875
L47.6094 0
L37.7969 0
L37.7969 17.1875
L4.89062 17.1875
L4.89062 26.7031
z
" id="BitstreamVeraSans-Roman-34"/>
      </defs>
      <g transform="translate(212.32216453 376.611215385)rotate(-30.0)scale(0.12 -0.12)">
       <use xlink:href="#BitstreamVeraSans-Roman-4d"/>
       <use x="86.279296875" xlink:href="#BitstreamVeraSans-Roman-61"/>
       <use x="147.55859375" xlink:href="#BitstreamVeraSans-Roman-79"/>
       <use x="206.73828125" xlink:href="#BitstreamVeraSans-Roman-31"/>
       <use x="270.361328125" xlink:href="#BitstreamVeraSans-Roman-34"/>
      </g>
     </g>
    </g>
    <g id="xtick_4">
     <g id="line2d_13">
      <path clip-path="url(#pcb2bf987bf)" d="
M304.904 345.6
L304.904 43.2" style="fill:none;stroke:#000000;stroke-dasharray:1.000000,3.000000;stroke-dashoffset:0.0;stroke-width:0.5;"/>
     </g>
     <g id="line2d_14">
      <g>
       <use style="stroke:#000000;stroke-width:0.5;" x="304.90367391" xlink:href="#m93b0483c22" y="345.6"/>
      </g>
     </g>
     <g id="line2d_15">
      <g>
       <use style="stroke:#000000;stroke-width:0.5;" x="304.90367391" xlink:href="#m741efc42ff" y="43.2"/>
      </g>
     </g>
     <g id="text_4">
      <!-- May15 -->
      <defs>
       <path d="
M10.7969 72.9062
L49.5156 72.9062
L49.5156 64.5938
L19.8281 64.5938
L19.8281 46.7344
Q21.9688 47.4688 24.1094 47.8281
Q26.2656 48.1875 28.4219 48.1875
Q40.625 48.1875 47.75 41.5
Q54.8906 34.8125 54.8906 23.3906
Q54.8906 11.625 47.5625 5.09375
Q40.2344 -1.42188 26.9062 -1.42188
Q22.3125 -1.42188 17.5469 -0.640625
Q12.7969 0.140625 7.71875 1.70312
L7.71875 11.625
Q12.1094 9.23438 16.7969 8.0625
Q21.4844 6.89062 26.7031 6.89062
Q35.1562 6.89062 40.0781 11.3281
Q45.0156 15.7656 45.0156 23.3906
Q45.0156 31 40.0781 35.4375
Q35.1562 39.8906 26.7031 39.8906
Q22.75 39.8906 18.8125 39.0156
Q14.8906 38.1406 10.7969 36.2812
z
" id="BitstreamVeraSans-Roman-35"/>
      </defs>
      <g transform="translate(270.873011015 376.423715385)rotate(-30.0)scale(0.12 -0.12)">
       <use xlink:href="#BitstreamVeraSans-Roman-4d"/>
       <use x="86.279296875" xlink:href="#BitstreamVeraSans-Roman-61"/>
       <use x="147.55859375" xlink:href="#BitstreamVeraSans-Roman-79"/>
       <use x="206.73828125" xlink:href="#BitstreamVeraSans-Roman-31"/>
       <use x="270.361328125" xlink:href="#BitstreamVeraSans-Roman-35"/>
      </g>
     </g>
    </g>
    <g id="xtick_5">
     <g id="line2d_16">
      <path clip-path="url(#pcb2bf987bf)" d="
M363.13 345.6
L363.13 43.2" style="fill:none;stroke:#000000;stroke-dasharray:1.000000,3.000000;stroke-dashoffset:0.0;stroke-width:0.5;"/>
     </g>
     <g id="line2d_17">
      <g>
       <use style="stroke:#000000;stroke-width:0.5;" x="363.129760869" xlink:href="#m93b0483c22" y="345.6"/>
      </g>
     </g>
     <g id="line2d_18">
      <g>
       <use style="stroke:#000000;stroke-width:0.5;" x="363.129760869" xlink:href="#m741efc42ff" y="43.2"/>
      </g>
     </g>
     <g id="text_5">
      <!-- May16 -->
      <defs>
       <path d="
M33.0156 40.375
Q26.375 40.375 22.4844 35.8281
Q18.6094 31.2969 18.6094 23.3906
Q18.6094 15.5312 22.4844 10.9531
Q26.375 6.39062 33.0156 6.39062
Q39.6562 6.39062 43.5312 10.9531
Q47.4062 15.5312 47.4062 23.3906
Q47.4062 31.2969 43.5312 35.8281
Q39.6562 40.375 33.0156 40.375
M52.5938 71.2969
L52.5938 62.3125
Q48.875 64.0625 45.0938 64.9844
Q41.3125 65.9219 37.5938 65.9219
Q27.8281 65.9219 22.6719 59.3281
Q17.5312 52.7344 16.7969 39.4062
Q19.6719 43.6562 24.0156 45.9219
Q28.375 48.1875 33.5938 48.1875
Q44.5781 48.1875 50.9531 41.5156
Q57.3281 34.8594 57.3281 23.3906
Q57.3281 12.1562 50.6875 5.35938
Q44.0469 -1.42188 33.0156 -1.42188
Q20.3594 -1.42188 13.6719 8.26562
Q6.98438 17.9688 6.98438 36.375
Q6.98438 53.6562 15.1875 63.9375
Q23.3906 74.2188 37.2031 74.2188
Q40.9219 74.2188 44.7031 73.4844
Q48.4844 72.75 52.5938 71.2969" id="BitstreamVeraSans-Roman-36"/>
      </defs>
      <g transform="translate(328.845785544 376.569965385)rotate(-30.0)scale(0.12 -0.12)">
       <use xlink:href="#BitstreamVeraSans-Roman-4d"/>
       <use x="86.279296875" xlink:href="#BitstreamVeraSans-Roman-61"/>
       <use x="147.55859375" xlink:href="#BitstreamVeraSans-Roman-79"/>
       <use x="206.73828125" xlink:href="#BitstreamVeraSans-Roman-31"/>
       <use x="270.361328125" xlink:href="#BitstreamVeraSans-Roman-36"/>
      </g>
     </g>
    </g>
    <g id="xtick_6">
     <g id="line2d_19">
      <path clip-path="url(#pcb2bf987bf)" d="
M421.356 345.6
L421.356 43.2" style="fill:none;stroke:#000000;stroke-dasharray:1.000000,3.000000;stroke-dashoffset:0.0;stroke-width:0.5;"/>
     </g>
     <g id="line2d_20">
      <g>
       <use style="stroke:#000000;stroke-width:0.5;" x="421.355847821" xlink:href="#m93b0483c22" y="345.6"/>
      </g>
     </g>
     <g id="line2d_21">
      <g>
       <use style="stroke:#000000;stroke-width:0.5;" x="421.355847821" xlink:href="#m741efc42ff" y="43.2"/>
      </g>
     </g>
     <g id="text_6">
      <!-- May17 -->
      <defs>
       <path d="
M8.20312 72.9062
L55.0781 72.9062
L55.0781 68.7031
L28.6094 0
L18.3125 0
L43.2188 64.5938
L8.20312 64.5938
z
" id="BitstreamVeraSans-Roman-37"/>
      </defs>
      <g transform="translate(387.305699355 376.434965385)rotate(-30.0)scale(0.12 -0.12)">
       <use xlink:href="#BitstreamVeraSans-Roman-4d"/>
       <use x="86.279296875" xlink:href="#BitstreamVeraSans-Roman-61"/>
       <use x="147.55859375" xlink:href="#BitstreamVeraSans-Roman-79"/>
       <use x="206.73828125" xlink:href="#BitstreamVeraSans-Roman-31"/>
       <use x="270.361328125" xlink:href="#BitstreamVeraSans-Roman-37"/>
      </g>
     </g>
    </g>
    <g id="xtick_7">
     <g id="line2d_22">
      <path clip-path="url(#pcb2bf987bf)" d="
M479.582 345.6
L479.582 43.2" style="fill:none;stroke:#000000;stroke-dasharray:1.000000,3.000000;stroke-dashoffset:0.0;stroke-width:0.5;"/>
     </g>
     <g id="line2d_23">
      <g>
       <use style="stroke:#000000;stroke-width:0.5;" x="479.58193478" xlink:href="#m93b0483c22" y="345.6"/>
      </g>
     </g>
     <g id="line2d_24">
      <g>
       <use style="stroke:#000000;stroke-width:0.5;" x="479.58193478" xlink:href="#m741efc42ff" y="43.2"/>
      </g>
     </g>
     <g id="text_7">
      <!-- May18 -->
      <defs>
       <path d="
M31.7812 34.625
Q24.75 34.625 20.7188 30.8594
Q16.7031 27.0938 16.7031 20.5156
Q16.7031 13.9219 20.7188 10.1562
Q24.75 6.39062 31.7812 6.39062
Q38.8125 6.39062 42.8594 10.1719
Q46.9219 13.9688 46.9219 20.5156
Q46.9219 27.0938 42.8906 30.8594
Q38.875 34.625 31.7812 34.625
M21.9219 38.8125
Q15.5781 40.375 12.0312 44.7188
Q8.5 49.0781 8.5 55.3281
Q8.5 64.0625 14.7188 69.1406
Q20.9531 74.2188 31.7812 74.2188
Q42.6719 74.2188 48.875 69.1406
Q55.0781 64.0625 55.0781 55.3281
Q55.0781 49.0781 51.5312 44.7188
Q48 40.375 41.7031 38.8125
Q48.8281 37.1562 52.7969 32.3125
Q56.7812 27.4844 56.7812 20.5156
Q56.7812 9.90625 50.3125 4.23438
Q43.8438 -1.42188 31.7812 -1.42188
Q19.7344 -1.42188 13.25 4.23438
Q6.78125 9.90625 6.78125 20.5156
Q6.78125 27.4844 10.7812 32.3125
Q14.7969 37.1562 21.9219 38.8125
M18.3125 54.3906
Q18.3125 48.7344 21.8438 45.5625
Q25.3906 42.3906 31.7812 42.3906
Q38.1406 42.3906 41.7188 45.5625
Q45.3125 48.7344 45.3125 54.3906
Q45.3125 60.0625 41.7188 63.2344
Q38.1406 66.4062 31.7812 66.4062
Q25.3906 66.4062 21.8438 63.2344
Q18.3125 60.0625 18.3125 54.3906" id="BitstreamVeraSans-Roman-38"/>
      </defs>
      <g transform="translate(445.354792372 376.537152885)rotate(-30.0)scale(0.12 -0.12)">
       <use xlink:href="#BitstreamVeraSans-Roman-4d"/>
       <use x="86.279296875" xlink:href="#BitstreamVeraSans-Roman-61"/>
       <use x="147.55859375" xlink:href="#BitstreamVeraSans-Roman-79"/>
       <use x="206.73828125" xlink:href="#BitstreamVeraSans-Roman-31"/>
       <use x="270.361328125" xlink:href="#BitstreamVeraSans-Roman-38"/>
      </g>
     </g>
    </g>
   </g>
   <g id="matplotlib.axis_2">
    <g id="ytick_1">
     <g id="line2d_25">
      <path clip-path="url(#pcb2bf987bf)" d="
M72 345.6
L518.4 345.6" style="fill:none;stroke:#000000;stroke-dasharray:1.000000,3.000000;stroke-dashoffset:0.0;stroke-width:0.5;"/>
     </g>
     <g id="line2d_26">
      <defs>
       <path d="
M0 0
L4 0" id="m728421d6d4" style="stroke:#000000;stroke-width:0.5;"/>
      </defs>
      <g>
       <use style="stroke:#000000;stroke-width:0.5;" x="72.0" xlink:href="#m728421d6d4" y="345.6"/>
      </g>
     </g>
     <g id="line2d_27">
      <defs>
       <path d="
M0 0
L-4 0" id="mcb0005524f" style="stroke:#000000;stroke-width:0.5;"/>
      </defs>
      <g>
       <use style="stroke:#000000;stroke-width:0.5;" x="518.4" xlink:href="#mcb0005524f" y="345.6"/>
      </g>
     </g>
     <g id="text_8">
      <!-- 0 -->
      <defs>
       <path d="
M31.7812 66.4062
Q24.1719 66.4062 20.3281 58.9062
Q16.5 51.4219 16.5 36.375
Q16.5 21.3906 20.3281 13.8906
Q24.1719 6.39062 31.7812 6.39062
Q39.4531 6.39062 43.2812 13.8906
Q47.125 21.3906 47.125 36.375
Q47.125 51.4219 43.2812 58.9062
Q39.4531 66.4062 31.7812 66.4062
M31.7812 74.2188
Q44.0469 74.2188 50.5156 64.5156
Q56.9844 54.8281 56.9844 36.375
Q56.9844 17.9688 50.5156 8.26562
Q44.0469 -1.42188 31.7812 -1.42188
Q19.5312 -1.42188 13.0625 8.26562
Q6.59375 17.9688 6.59375 36.375
Q6.59375 54.8281 13.0625 64.5156
Q19.5312 74.2188 31.7812 74.2188" id="BitstreamVeraSans-Roman-30"/>
      </defs>
      <g transform="translate(61.953125 348.91125)scale(0.12 -0.12)">
       <use xlink:href="#BitstreamVeraSans-Roman-30"/>
      </g>
     </g>
    </g>
    <g id="ytick_2">
     <g id="line2d_28">
      <path clip-path="url(#pcb2bf987bf)" d="
M72 290.618
L518.4 290.618" style="fill:none;stroke:#000000;stroke-dasharray:1.000000,3.000000;stroke-dashoffset:0.0;stroke-width:0.5;"/>
     </g>
     <g id="line2d_29">
      <g>
       <use style="stroke:#000000;stroke-width:0.5;" x="72.0" xlink:href="#m728421d6d4" y="290.618181818"/>
      </g>
     </g>
     <g id="line2d_30">
      <g>
       <use style="stroke:#000000;stroke-width:0.5;" x="518.4" xlink:href="#mcb0005524f" y="290.618181818"/>
      </g>
     </g>
     <g id="text_9">
      <!-- 20 -->
      <g transform="translate(54.40625 293.929431818)scale(0.12 -0.12)">
       <use xlink:href="#BitstreamVeraSans-Roman-32"/>
       <use x="63.623046875" xlink:href="#BitstreamVeraSans-Roman-30"/>
      </g>
     </g>
    </g>
    <g id="ytick_3">
     <g id="line2d_31">
      <path clip-path="url(#pcb2bf987bf)" d="
M72 235.636
L518.4 235.636" style="fill:none;stroke:#000000;stroke-dasharray:1.000000,3.000000;stroke-dashoffset:0.0;stroke-width:0.5;"/>
     </g>
     <g id="line2d_32">
      <g>
       <use style="stroke:#000000;stroke-width:0.5;" x="72.0" xlink:href="#m728421d6d4" y="235.636363636"/>
      </g>
     </g>
     <g id="line2d_33">
      <g>
       <use style="stroke:#000000;stroke-width:0.5;" x="518.4" xlink:href="#mcb0005524f" y="235.636363636"/>
      </g>
     </g>
     <g id="text_10">
      <!-- 40 -->
      <g transform="translate(54.11375 238.947613636)scale(0.12 -0.12)">
       <use xlink:href="#BitstreamVeraSans-Roman-34"/>
       <use x="63.623046875" xlink:href="#BitstreamVeraSans-Roman-30"/>
      </g>
     </g>
    </g>
    <g id="ytick_4">
     <g id="line2d_34">
      <path clip-path="url(#pcb2bf987bf)" d="
M72 180.655
L518.4 180.655" style="fill:none;stroke:#000000;stroke-dasharray:1.000000,3.000000;stroke-dashoffset:0.0;stroke-width:0.5;"/>
     </g>
     <g id="line2d_35">
      <g>
       <use style="stroke:#000000;stroke-width:0.5;" x="72.0" xlink:href="#m728421d6d4" y="180.654545455"/>
      </g>
     </g>
     <g id="line2d_36">
      <g>
       <use style="stroke:#000000;stroke-width:0.5;" x="518.4" xlink:href="#mcb0005524f" y="180.654545455"/>
      </g>
     </g>
     <g id="text_11">
      <!-- 60 -->
      <g transform="translate(54.365 183.965795455)scale(0.12 -0.12)">
       <use xlink:href="#BitstreamVeraSans-Roman-36"/>
       <use x="63.623046875" xlink:href="#BitstreamVeraSans-Roman-30"/>
      </g>
     </g>
    </g>
    <g id="ytick_5">
     <g id="line2d_37">
      <path clip-path="url(#pcb2bf987bf)" d="
M72 125.673
L518.4 125.673" style="fill:none;stroke:#000000;stroke-dasharray:1.000000,3.000000;stroke-dashoffset:0.0;stroke-width:0.5;"/>
     </g>
     <g id="line2d_38">
      <g>
       <use style="stroke:#000000;stroke-width:0.5;" x="72.0" xlink:href="#m728421d6d4" y="125.672727273"/>
      </g>
     </g>
     <g id="line2d_39">
      <g>
       <use style="stroke:#000000;stroke-width:0.5;" x="518.4" xlink:href="#mcb0005524f" y="125.672727273"/>
      </g>
     </g>
     <g id="text_12">
      <!-- 80 -->
      <g transform="translate(54.340625 128.983977273)scale(0.12 -0.12)">
       <use xlink:href="#BitstreamVeraSans-Roman-38"/>
       <use x="63.623046875" xlink:href="#BitstreamVeraSans-Roman-30"/>
      </g>
     </g>
    </g>
    <g id="ytick_6">
     <g id="line2d_40">
      <path clip-path="url(#pcb2bf987bf)" d="
M72 70.6909
L518.4 70.6909" style="fill:none;stroke:#000000;stroke-dasharray:1.000000,3.000000;stroke-dashoffset:0.0;stroke-width:0.5;"/>
     </g>
     <g id="line2d_41">
      <g>
       <use style="stroke:#000000;stroke-width:0.5;" x="72.0" xlink:href="#m728421d6d4" y="70.6909090909"/>
      </g>
     </g>
     <g id="line2d_42">
      <g>
       <use style="stroke:#000000;stroke-width:0.5;" x="518.4" xlink:href="#mcb0005524f" y="70.6909090909"/>
      </g>
     </g>
     <g id="text_13">
      <!-- 100 -->
      <g transform="translate(47.21 74.0021590909)scale(0.12 -0.12)">
       <use xlink:href="#BitstreamVeraSans-Roman-31"/>
       <use x="63.623046875" xlink:href="#BitstreamVeraSans-Roman-30"/>
       <use x="127.24609375" xlink:href="#BitstreamVeraSans-Roman-30"/>
      </g>
     </g>
    </g>
    <g id="text_14">
     <!-- temperature (C) -->
     <defs>
      <path id="BitstreamVeraSans-Roman-20"/>
      <path d="
M8.01562 75.875
L15.8281 75.875
Q23.1406 64.3594 26.7812 53.3125
Q30.4219 42.2812 30.4219 31.3906
Q30.4219 20.4531 26.7812 9.375
Q23.1406 -1.70312 15.8281 -13.1875
L8.01562 -13.1875
Q14.5 -2 17.7031 9.0625
Q20.9062 20.125 20.9062 31.3906
Q20.9062 42.6719 17.7031 53.6562
Q14.5 64.6562 8.01562 75.875" id="BitstreamVeraSans-Roman-29"/>
      <path d="
M52 44.1875
Q55.375 50.25 60.0625 53.125
Q64.75 56 71.0938 56
Q79.6406 56 84.2812 50.0156
Q88.9219 44.0469 88.9219 33.0156
L88.9219 0
L79.8906 0
L79.8906 32.7188
Q79.8906 40.5781 77.0938 44.375
Q74.3125 48.1875 68.6094 48.1875
Q61.625 48.1875 57.5625 43.5469
Q53.5156 38.9219 53.5156 30.9062
L53.5156 0
L44.4844 0
L44.4844 32.7188
Q44.4844 40.625 41.7031 44.4062
Q38.9219 48.1875 33.1094 48.1875
Q26.2188 48.1875 22.1562 43.5312
Q18.1094 38.875 18.1094 30.9062
L18.1094 0
L9.07812 0
L9.07812 54.6875
L18.1094 54.6875
L18.1094 46.1875
Q21.1875 51.2188 25.4844 53.6094
Q29.7812 56 35.6875 56
Q41.6562 56 45.8281 52.9688
Q50 49.9531 52 44.1875" id="BitstreamVeraSans-Roman-6d"/>
      <path d="
M64.4062 67.2812
L64.4062 56.8906
Q59.4219 61.5312 53.7812 63.8125
Q48.1406 66.1094 41.7969 66.1094
Q29.2969 66.1094 22.6562 58.4688
Q16.0156 50.8281 16.0156 36.375
Q16.0156 21.9688 22.6562 14.3281
Q29.2969 6.6875 41.7969 6.6875
Q48.1406 6.6875 53.7812 8.98438
Q59.4219 11.2812 64.4062 15.9219
L64.4062 5.60938
Q59.2344 2.09375 53.4375 0.328125
Q47.6562 -1.42188 41.2188 -1.42188
Q24.6562 -1.42188 15.125 8.70312
Q5.60938 18.8438 5.60938 36.375
Q5.60938 53.9531 15.125 64.0781
Q24.6562 74.2188 41.2188 74.2188
Q47.75 74.2188 53.5312 72.4844
Q59.3281 70.75 64.4062 67.2812" id="BitstreamVeraSans-Roman-43"/>
      <path d="
M31 75.875
Q24.4688 64.6562 21.2812 53.6562
Q18.1094 42.6719 18.1094 31.3906
Q18.1094 20.125 21.3125 9.0625
Q24.5156 -2 31 -13.1875
L23.1875 -13.1875
Q15.875 -1.70312 12.2344 9.375
Q8.59375 20.4531 8.59375 31.3906
Q8.59375 42.2812 12.2031 53.3125
Q15.8281 64.3594 23.1875 75.875
z
" id="BitstreamVeraSans-Roman-28"/>
      <path d="
M56.2031 29.5938
L56.2031 25.2031
L14.8906 25.2031
Q15.4844 15.9219 20.4844 11.0625
Q25.4844 6.20312 34.4219 6.20312
Q39.5938 6.20312 44.4531 7.46875
Q49.3125 8.73438 54.1094 11.2812
L54.1094 2.78125
Q49.2656 0.734375 44.1875 -0.34375
Q39.1094 -1.42188 33.8906 -1.42188
Q20.7969 -1.42188 13.1562 6.1875
Q5.51562 13.8125 5.51562 26.8125
Q5.51562 40.2344 12.7656 48.1094
Q20.0156 56 32.3281 56
Q43.3594 56 49.7812 48.8906
Q56.2031 41.7969 56.2031 29.5938
M47.2188 32.2344
Q47.125 39.5938 43.0938 43.9844
Q39.0625 48.3906 32.4219 48.3906
Q24.9062 48.3906 20.3906 44.1406
Q15.875 39.8906 15.1875 32.1719
z
" id="BitstreamVeraSans-Roman-65"/>
      <path d="
M18.3125 70.2188
L18.3125 54.6875
L36.8125 54.6875
L36.8125 47.7031
L18.3125 47.7031
L18.3125 18.0156
Q18.3125 11.3281 20.1406 9.42188
Q21.9688 7.51562 27.5938 7.51562
L36.8125 7.51562
L36.8125 0
L27.5938 0
Q17.1875 0 13.2344 3.875
Q9.28125 7.76562 9.28125 18.0156
L9.28125 47.7031
L2.6875 47.7031
L2.6875 54.6875
L9.28125 54.6875
L9.28125 70.2188
z
" id="BitstreamVeraSans-Roman-74"/>
      <path d="
M8.5 21.5781
L8.5 54.6875
L17.4844 54.6875
L17.4844 21.9219
Q17.4844 14.1562 20.5 10.2656
Q23.5312 6.39062 29.5938 6.39062
Q36.8594 6.39062 41.0781 11.0312
Q45.3125 15.6719 45.3125 23.6875
L45.3125 54.6875
L54.2969 54.6875
L54.2969 0
L45.3125 0
L45.3125 8.40625
Q42.0469 3.42188 37.7188 1
Q33.4062 -1.42188 27.6875 -1.42188
Q18.2656 -1.42188 13.375 4.4375
Q8.5 10.2969 8.5 21.5781" id="BitstreamVeraSans-Roman-75"/>
      <path d="
M41.1094 46.2969
Q39.5938 47.1719 37.8125 47.5781
Q36.0312 48 33.8906 48
Q26.2656 48 22.1875 43.0469
Q18.1094 38.0938 18.1094 28.8125
L18.1094 0
L9.07812 0
L9.07812 54.6875
L18.1094 54.6875
L18.1094 46.1875
Q20.9531 51.1719 25.4844 53.5781
Q30.0312 56 36.5312 56
Q37.4531 56 38.5781 55.875
Q39.7031 55.7656 41.0625 55.5156
z
" id="BitstreamVeraSans-Roman-72"/>
      <path d="
M18.1094 8.20312
L18.1094 -20.7969
L9.07812 -20.7969
L9.07812 54.6875
L18.1094 54.6875
L18.1094 46.3906
Q20.9531 51.2656 25.2656 53.625
Q29.5938 56 35.5938 56
Q45.5625 56 51.7812 48.0938
Q58.0156 40.1875 58.0156 27.2969
Q58.0156 14.4062 51.7812 6.48438
Q45.5625 -1.42188 35.5938 -1.42188
Q29.5938 -1.42188 25.2656 0.953125
Q20.9531 3.32812 18.1094 8.20312
M48.6875 27.2969
Q48.6875 37.2031 44.6094 42.8438
Q40.5312 48.4844 33.4062 48.4844
Q26.2656 48.4844 22.1875 42.8438
Q18.1094 37.2031 18.1094 27.2969
Q18.1094 17.3906 22.1875 11.75
Q26.2656 6.10938 33.4062 6.10938
Q40.5312 6.10938 44.6094 11.75
Q48.6875 17.3906 48.6875 27.2969" id="BitstreamVeraSans-Roman-70"/>
     </defs>
     <g transform="translate(39.714375 242.37375)rotate(-90.0)scale(0.12 -0.12)">
      <use xlink:href="#BitstreamVeraSans-Roman-74"/>
      <use x="39.208984375" xlink:href="#BitstreamVeraSans-Roman-65"/>
      <use x="100.732421875" xlink:href="#BitstreamVeraSans-Roman-6d"/>
      <use x="198.14453125" xlink:href="#BitstreamVeraSans-Roman-70"/>
      <use x="261.62109375" xlink:href="#BitstreamVeraSans-Roman-65"/>
      <use x="323.14453125" xlink:href="#BitstreamVeraSans-Roman-72"/>
      <use x="364.2578125" xlink:href="#BitstreamVeraSans-Roman-61"/>
      <use x="425.537109375" xlink:href="#BitstreamVeraSans-Roman-74"/>
      <use x="464.74609375" xlink:href="#BitstreamVeraSans-Roman-75"/>
      <use x="528.125" xlink:href="#BitstreamVeraSans-Roman-72"/>
      <use x="566.98828125" xlink:href="#BitstreamVeraSans-Roman-65"/>
      <use x="628.51171875" xlink:href="#BitstreamVeraSans-Roman-20"/>
      <use x="660.298828125" xlink:href="#BitstreamVeraSans-Roman-28"/>
      <use x="699.3125" xlink:href="#BitstreamVeraSans-Roman-43"/>
      <use x="769.13671875" xlink:href="#BitstreamVeraSans-Roman-29"/>
     </g>
    </g>
   </g>
   <g id="text_15">
    <!--  CPU high temperature -->
    <defs>
     <path d="
M19.6719 64.7969
L19.6719 37.4062
L32.0781 37.4062
Q38.9688 37.4062 42.7188 40.9688
Q46.4844 44.5312 46.4844 51.125
Q46.4844 57.6719 42.7188 61.2344
Q38.9688 64.7969 32.0781 64.7969
z

M9.8125 72.9062
L32.0781 72.9062
Q44.3438 72.9062 50.6094 67.3594
Q56.8906 61.8125 56.8906 51.125
Q56.8906 40.3281 50.6094 34.8125
Q44.3438 29.2969 32.0781 29.2969
L19.6719 29.2969
L19.6719 0
L9.8125 0
z
" id="BitstreamVeraSans-Roman-50"/>
     <path d="
M45.4062 27.9844
Q45.4062 37.75 41.375 43.1094
Q37.3594 48.4844 30.0781 48.4844
Q22.8594 48.4844 18.8281 43.1094
Q14.7969 37.75 14.7969 27.9844
Q14.7969 18.2656 18.8281 12.8906
Q22.8594 7.51562 30.0781 7.51562
Q37.3594 7.51562 41.375 12.8906
Q45.4062 18.2656 45.4062 27.9844
M54.3906 6.78125
Q54.3906 -7.17188 48.1875 -13.9844
Q42 -20.7969 29.2031 -20.7969
Q24.4688 -20.7969 20.2656 -20.0938
Q16.0625 -19.3906 12.1094 -17.9219
L12.1094 -9.1875
Q16.0625 -11.3281 19.9219 -12.3438
Q23.7812 -13.375 27.7812 -13.375
Q36.625 -13.375 41.0156 -8.76562
Q45.4062 -4.15625 45.4062 5.17188
L45.4062 9.625
Q42.625 4.78125 38.2812 2.39062
Q33.9375 0 27.875 0
Q17.8281 0 11.6719 7.65625
Q5.51562 15.3281 5.51562 27.9844
Q5.51562 40.6719 11.6719 48.3281
Q17.8281 56 27.875 56
Q33.9375 56 38.2812 53.6094
Q42.625 51.2188 45.4062 46.3906
L45.4062 54.6875
L54.3906 54.6875
z
" id="BitstreamVeraSans-Roman-67"/>
     <path d="
M9.42188 54.6875
L18.4062 54.6875
L18.4062 0
L9.42188 0
z

M9.42188 75.9844
L18.4062 75.9844
L18.4062 64.5938
L9.42188 64.5938
z
" id="BitstreamVeraSans-Roman-69"/>
     <path d="
M8.6875 72.9062
L18.6094 72.9062
L18.6094 28.6094
Q18.6094 16.8906 22.8438 11.7344
Q27.0938 6.59375 36.625 6.59375
Q46.0938 6.59375 50.3438 11.7344
Q54.5938 16.8906 54.5938 28.6094
L54.5938 72.9062
L64.5 72.9062
L64.5 27.3906
Q64.5 13.1406 57.4375 5.85938
Q50.3906 -1.42188 36.625 -1.42188
Q22.7969 -1.42188 15.7344 5.85938
Q8.6875 13.1406 8.6875 27.3906
z
" id="BitstreamVeraSans-Roman-55"/>
     <path d="
M54.8906 33.0156
L54.8906 0
L45.9062 0
L45.9062 32.7188
Q45.9062 40.4844 42.875 44.3281
Q39.8438 48.1875 33.7969 48.1875
Q26.5156 48.1875 22.3125 43.5469
Q18.1094 38.9219 18.1094 30.9062
L18.1094 0
L9.07812 0
L9.07812 75.9844
L18.1094 75.9844
L18.1094 46.1875
Q21.3438 51.125 25.7031 53.5625
Q30.0781 56 35.7969 56
Q45.2188 56 50.0469 50.1719
Q54.8906 44.3438 54.8906 33.0156" id="BitstreamVeraSans-Roman-68"/>
    </defs>
    <g style="fill:#ffa500;" transform="translate(72.0 109.178181818)scale(0.12 -0.12)">
     <use xlink:href="#BitstreamVeraSans-Roman-20"/>
     <use x="31.787109375" xlink:href="#BitstreamVeraSans-Roman-43"/>
     <use x="101.611328125" xlink:href="#BitstreamVeraSans-Roman-50"/>
     <use x="161.9140625" xlink:href="#BitstreamVeraSans-Roman-55"/>
     <use x="235.107421875" xlink:href="#BitstreamVeraSans-Roman-20"/>
     <use x="266.89453125" xlink:href="#BitstreamVeraSans-Roman-68"/>
     <use x="330.2734375" xlink:href="#BitstreamVeraSans-Roman-69"/>
     <use x="358.056640625" xlink:href="#BitstreamVeraSans-Roman-67"/>
     <use x="421.533203125" xlink:href="#BitstreamVeraSans-Roman-68"/>
     <use x="484.912109375" xlink:href="#BitstreamVeraSans-Roman-20"/>
     <use x="516.69921875" xlink:href="#BitstreamVeraSans-Roman-74"/>
     <use x="555.908203125" xlink:href="#BitstreamVeraSans-Roman-65"/>
     <use x="617.431640625" xlink:href="#BitstreamVeraSans-Roman-6d"/>
     <use x="714.84375" xlink:href="#BitstreamVeraSans-Roman-70"/>
     <use x="778.3203125" xlink:href="#BitstreamVeraSans-Roman-65"/>
     <use x="839.84375" xlink:href="#BitstreamVeraSans-Roman-72"/>
     <use x="880.95703125" xlink:href="#BitstreamVeraSans-Roman-61"/>
     <use x="942.236328125" xlink:href="#BitstreamVeraSans-Roman-74"/>
     <use x="981.4453125" xlink:href="#BitstreamVeraSans-Roman-75"/>
     <use x="1044.82421875" xlink:href="#BitstreamVeraSans-Roman-72"/>
     <use x="1083.6875" xlink:href="#BitstreamVeraSans-Roman-65"/>
    </g>
   </g>
   <g id="text_16">
    <!--  CPU critical temperature -->
    <defs>
     <path d="
M9.42188 75.9844
L18.4062 75.9844
L18.4062 0
L9.42188 0
z
" id="BitstreamVeraSans-Roman-6c"/>
     <path d="
M48.7812 52.5938
L48.7812 44.1875
Q44.9688 46.2969 41.1406 47.3438
Q37.3125 48.3906 33.4062 48.3906
Q24.6562 48.3906 19.8125 42.8438
Q14.9844 37.3125 14.9844 27.2969
Q14.9844 17.2812 19.8125 11.7344
Q24.6562 6.20312 33.4062 6.20312
Q37.3125 6.20312 41.1406 7.25
Q44.9688 8.29688 48.7812 10.4062
L48.7812 2.09375
Q45.0156 0.34375 40.9844 -0.53125
Q36.9688 -1.42188 32.4219 -1.42188
Q20.0625 -1.42188 12.7812 6.34375
Q5.51562 14.1094 5.51562 27.2969
Q5.51562 40.6719 12.8594 48.3281
Q20.2188 56 33.0156 56
Q37.1562 56 41.1094 55.1406
Q45.0625 54.2969 48.7812 52.5938" id="BitstreamVeraSans-Roman-63"/>
    </defs>
    <g style="fill:#ff0000;" transform="translate(72.0 81.6872727273)scale(0.12 -0.12)">
     <use xlink:href="#BitstreamVeraSans-Roman-20"/>
     <use x="31.787109375" xlink:href="#BitstreamVeraSans-Roman-43"/>
     <use x="101.611328125" xlink:href="#BitstreamVeraSans-Roman-50"/>
     <use x="161.9140625" xlink:href="#BitstreamVeraSans-Roman-55"/>
     <use x="235.107421875" xlink:href="#BitstreamVeraSans-Roman-20"/>
     <use x="266.89453125" xlink:href="#BitstreamVeraSans-Roman-63"/>
     <use x="321.875" xlink:href="#BitstreamVeraSans-Roman-72"/>
     <use x="362.98828125" xlink:href="#BitstreamVeraSans-Roman-69"/>
     <use x="390.771484375" xlink:href="#BitstreamVeraSans-Roman-74"/>
     <use x="429.98046875" xlink:href="#BitstreamVeraSans-Roman-69"/>
     <use x="457.763671875" xlink:href="#BitstreamVeraSans-Roman-63"/>
     <use x="512.744140625" xlink:href="#BitstreamVeraSans-Roman-61"/>
     <use x="574.0234375" xlink:href="#BitstreamVeraSans-Roman-6c"/>
     <use x="601.806640625" xlink:href="#BitstreamVeraSans-Roman-20"/>
     <use x="633.59375" xlink:href="#BitstreamVeraSans-Roman-74"/>
     <use x="672.802734375" xlink:href="#BitstreamVeraSans-Roman-65"/>
     <use x="734.326171875" xlink:href="#BitstreamVeraSans-Roman-6d"/>
     <use x="831.73828125" xlink:href="#BitstreamVeraSans-Roman-70"/>
     <use x="895.21484375" xlink:href="#BitstreamVeraSans-Roman-65"/>
     <use x="956.73828125" xlink:href="#BitstreamVeraSans-Roman-72"/>
     <use x="997.8515625" xlink:href="#BitstreamVeraSans-Roman-61"/>
     <use x="1059.13085938" xlink:href="#BitstreamVeraSans-Roman-74"/>
     <use x="1098.33984375" xlink:href="#BitstreamVeraSans-Roman-75"/>
     <use x="1161.71875" xlink:href="#BitstreamVeraSans-Roman-72"/>
     <use x="1200.58203125" xlink:href="#BitstreamVeraSans-Roman-65"/>
    </g>
   </g>
   <g id="text_17">
    <!-- node03 -->
    <defs>
     <path d="
M54.8906 33.0156
L54.8906 0
L45.9062 0
L45.9062 32.7188
Q45.9062 40.4844 42.875 44.3281
Q39.8438 48.1875 33.7969 48.1875
Q26.5156 48.1875 22.3125 43.5469
Q18.1094 38.9219 18.1094 30.9062
L18.1094 0
L9.07812 0
L9.07812 54.6875
L18.1094 54.6875
L18.1094 46.1875
Q21.3438 51.125 25.7031 53.5625
Q30.0781 56 35.7969 56
Q45.2188 56 50.0469 50.1719
Q54.8906 44.3438 54.8906 33.0156" id="BitstreamVeraSans-Roman-6e"/>
     <path d="
M45.4062 46.3906
L45.4062 75.9844
L54.3906 75.9844
L54.3906 0
L45.4062 0
L45.4062 8.20312
Q42.5781 3.32812 38.25 0.953125
Q33.9375 -1.42188 27.875 -1.42188
Q17.9688 -1.42188 11.7344 6.48438
Q5.51562 14.4062 5.51562 27.2969
Q5.51562 40.1875 11.7344 48.0938
Q17.9688 56 27.875 56
Q33.9375 56 38.25 53.625
Q42.5781 51.2656 45.4062 46.3906
M14.7969 27.2969
Q14.7969 17.3906 18.875 11.75
Q22.9531 6.10938 30.0781 6.10938
Q37.2031 6.10938 41.2969 11.75
Q45.4062 17.3906 45.4062 27.2969
Q45.4062 37.2031 41.2969 42.8438
Q37.2031 48.4844 30.0781 48.4844
Q22.9531 48.4844 18.875 42.8438
Q14.7969 37.2031 14.7969 27.2969" id="BitstreamVeraSans-Roman-64"/>
     <path d="
M30.6094 48.3906
Q23.3906 48.3906 19.1875 42.75
Q14.9844 37.1094 14.9844 27.2969
Q14.9844 17.4844 19.1562 11.8438
Q23.3438 6.20312 30.6094 6.20312
Q37.7969 6.20312 41.9844 11.8594
Q46.1875 17.5312 46.1875 27.2969
Q46.1875 37.0156 41.9844 42.7031
Q37.7969 48.3906 30.6094 48.3906
M30.6094 56
Q42.3281 56 49.0156 48.375
Q55.7188 40.7656 55.7188 27.2969
Q55.7188 13.875 49.0156 6.21875
Q42.3281 -1.42188 30.6094 -1.42188
Q18.8438 -1.42188 12.1719 6.21875
Q5.51562 13.875 5.51562 27.2969
Q5.51562 40.7656 12.1719 48.375
Q18.8438 56 30.6094 56" id="BitstreamVeraSans-Roman-6f"/>
    </defs>
    <g transform="translate(269.299125 38.2)scale(0.144 -0.144)">
     <use xlink:href="#BitstreamVeraSans-Roman-6e"/>
     <use x="63.37890625" xlink:href="#BitstreamVeraSans-Roman-6f"/>
     <use x="124.560546875" xlink:href="#BitstreamVeraSans-Roman-64"/>
     <use x="188.037109375" xlink:href="#BitstreamVeraSans-Roman-65"/>
     <use x="249.560546875" xlink:href="#BitstreamVeraSans-Roman-30"/>
     <use x="313.18359375" xlink:href="#BitstreamVeraSans-Roman-33"/>
    </g>
   </g>
  </g>
 </g>
 <defs>
  <clipPath id="pcb2bf987bf">
   <rect height="302.4" width="446.4" x="72.0" y="43.2"/>
  </clipPath>
 </defs>
</svg>
