<?xml version="1.0" encoding="utf-8" standalone="no"?>
<!DOCTYPE svg PUBLIC "-//W3C//DTD SVG 1.1//EN"
  "http://www.w3.org/Graphics/SVG/1.1/DTD/svg11.dtd">
<!-- Created with matplotlib (http://matplotlib.org/) -->
<svg height="432pt" version="1.1" viewBox="0 0 576 432" width="576pt" xmlns="http://www.w3.org/2000/svg" xmlns:xlink="http://www.w3.org/1999/xlink">
 <defs>
  <style type="text/css">
*{stroke-linecap:butt;stroke-linejoin:round;}
  </style>
 </defs>
 <g id="figure_1">
  <g id="patch_1">
   <path d="
M0 432
L576 432
L576 0
L0 0
z
" style="fill:#ffffff;"/>
  </g>
  <g id="axes_1">
   <g id="patch_2">
    <path d="
M72 345.6
L518.4 345.6
L518.4 43.2
L72 43.2
z
" style="fill:#ffffff;"/>
   </g>
   <g id="line2d_1">
    <path clip-path="url(#pcb2bf987bf)" d="
M72 227.664
L72.1504 227.664
L72.3008 224.64
L72.4512 227.664
L72.9024 227.664
L73.0528 230.688
L73.2034 224.64
L73.3536 227.664
L73.6544 227.664
L73.8049 224.64
L73.9553 227.664
L74.1057 227.664
L74.2561 230.688
L74.5569 230.688
L74.7073 227.664
L74.8577 230.688
L75.3089 230.688
L75.4593 227.664
L75.6097 227.664
L75.7601 230.688
L75.9105 227.664
L76.0609 230.688
L76.6625 230.688
L76.8129 227.664
L76.9633 227.664
L77.1137 224.64
L77.2642 230.688
L77.4146 227.664
L77.565 230.688
L77.7154 230.688
L77.8658 233.712
L78.1666 233.712
L78.317 230.688
L78.4674 233.712
L78.6178 227.664
L78.7682 230.688
L79.069 230.688
L79.2194 233.712
L79.3698 230.688
L80.1218 230.688
L80.2722 227.664
L80.4226 227.664
L80.573 233.712
L80.7236 230.688
L80.8739 230.688
L81.0243 224.64
L81.1747 230.688
L81.3251 230.688
L81.4755 227.664
L81.6259 227.664
L81.9267 233.712
L82.3779 224.64
L82.6787 230.688
L82.8291 230.688
L83.1299 224.64
L83.2803 224.64
L83.4307 227.664
L83.5811 224.64
L83.7315 227.664
L83.8819 224.64
L84.0323 227.664
L84.1827 227.664
L84.3332 224.64
L84.4836 227.664
L84.7844 227.664
L84.9348 230.688
L85.2356 224.64
L85.5364 230.688
L85.687 227.664
L85.8372 227.664
L85.9876 224.64
L86.138 227.664
L86.2884 224.64
L86.4388 227.664
L86.5892 227.664
L86.7396 224.64
L87.0404 224.64
L87.1908 227.664
L87.642 227.664
L87.7925 224.64
L87.9429 224.64
L88.0933 227.664
L88.6949 227.664
L88.8453 230.688
L89.2965 230.688
L89.4469 227.664
L89.7477 227.664
L89.8981 230.688
L90.1989 230.688
L90.3493 221.616
L90.6501 233.712
L90.8005 230.688
L90.9509 230.688
L91.1013 227.664
L92.0038 227.664
L92.1542 224.64
L92.3046 227.664
L92.6054 227.664
L92.7558 224.64
L93.0566 224.64
L93.207 227.664
L93.3574 227.664
L93.5078 224.64
L93.6582 227.664
L93.959 221.616
L94.1094 224.64
L94.5606 224.64
L94.7111 221.616
L94.8615 224.64
L95.0119 221.616
L95.1623 227.664
L95.3127 221.616
L95.4631 224.64
L95.9143 224.64
L96.0647 221.616
L96.2151 224.64
L96.3655 221.616
L96.5159 221.616
L96.6663 224.64
L96.8167 224.64
L96.9671 221.616
L97.2679 227.664
L98.0199 227.664
L98.1704 224.64
L98.3208 227.664
L98.4712 224.64
L98.6216 227.664
L99.3736 227.664
L99.6744 218.592
L99.8248 227.664
L99.9752 227.664
L100.126 224.64
L100.426 224.64
L100.577 227.664
L100.727 224.64
L101.028 224.64
L101.178 227.664
L102.231 227.664
L102.382 224.64
L102.532 227.664
L102.983 227.664
L103.134 224.64
L103.284 224.64
L103.435 227.664
L103.735 227.664
L103.886 221.616
L104.036 227.664
L104.187 224.64
L104.337 227.664
L104.939 227.664
L105.089 224.64
L105.239 224.64
L105.39 230.688
L105.54 227.664
L105.691 227.664
L105.841 230.688
L106.443 230.688
L106.593 227.664
L106.743 233.712
L106.894 230.688
L107.195 230.688
L107.345 233.712
L107.495 230.688
L107.646 233.712
L107.947 233.712
L108.097 230.688
L108.699 230.688
L109.15 239.76
L109.3 236.736
L109.451 239.76
L109.601 236.736
L109.902 236.736
L110.052 233.712
L110.203 233.712
L110.353 239.76
L110.654 233.712
L110.804 236.736
L110.955 236.736
L111.105 239.76
L111.256 239.76
L111.406 236.736
L111.707 236.736
L111.857 233.712
L112.008 236.736
L112.158 230.688
L112.459 236.736
L112.609 236.736
L112.76 239.76
L112.91 233.712
L113.662 233.712
L113.812 230.688
L113.963 233.712
L114.113 230.688
L114.264 233.712
L114.414 230.688
L114.564 236.736
L114.715 227.664
L115.016 233.712
L115.316 233.712
L115.467 230.688
L115.617 233.712
L115.768 230.688
L115.918 230.688
L116.068 233.712
L116.219 233.712
L116.369 230.688
L116.52 233.712
L116.82 233.712
L116.971 230.688
L117.121 233.712
L117.272 230.688
L117.422 233.712
L118.174 233.712
L118.325 230.688
L118.475 233.712
L118.625 233.712
L118.776 230.688
L118.926 233.712
L119.829 233.712
L119.979 236.736
L120.129 236.736
L120.28 239.76
L120.43 236.736
L120.581 239.76
L120.731 236.736
L121.182 236.736
L121.333 239.76
L121.633 239.76
L121.784 236.736
L121.934 239.76
L122.085 236.736
L122.235 239.76
L122.385 236.736
L123.137 236.736
L123.288 233.712
L123.438 236.736
L123.739 236.736
L123.889 233.712
L124.04 236.736
L124.341 236.736
L124.491 233.712
L124.642 233.712
L124.792 236.736
L124.942 236.736
L125.093 239.76
L125.243 236.736
L125.394 239.76
L125.544 236.736
L125.694 239.76
L125.845 239.76
L126.146 230.688
L126.296 233.712
L126.597 233.712
L126.747 230.688
L126.898 233.712
L127.048 230.688
L127.198 233.712
L127.349 227.664
L127.499 230.688
L127.65 224.64
L127.95 230.688
L128.402 230.688
L128.552 227.664
L129.154 227.664
L129.304 224.64
L129.605 230.688
L130.206 230.688
L130.357 227.664
L130.507 230.688
L130.658 230.688
L130.958 224.64
L131.109 230.688
L131.41 230.688
L131.56 224.64
L131.711 230.688
L131.861 230.688
L132.011 227.664
L132.463 227.664
L132.613 230.688
L132.914 224.64
L133.215 230.688
L133.365 224.64
L133.666 230.688
L133.816 227.664
L134.117 233.712
L134.267 230.688
L134.418 230.688
L134.568 236.736
L134.719 236.736
L135.019 230.688
L135.17 233.712
L135.471 233.712
L135.621 230.688
L135.771 233.712
L135.922 233.712
L136.072 236.736
L136.223 230.688
L136.373 233.712
L136.523 233.712
L136.674 230.688
L136.824 233.712
L136.975 230.688
L137.727 230.688
L137.877 233.712
L138.027 230.688
L138.178 233.712
L138.328 230.688
L138.479 230.688
L138.629 233.712
L138.78 233.712
L139.08 227.664
L139.231 230.688
L139.381 230.688
L139.532 227.664
L139.682 227.664
L139.832 230.688
L140.133 230.688
L140.284 227.664
L140.434 230.688
L140.584 221.616
L140.885 230.688
L141.036 227.664
L141.186 233.712
L141.336 233.712
L141.487 227.664
L141.788 227.664
L141.938 230.688
L142.088 227.664
L142.239 230.688
L142.389 227.664
L142.54 227.664
L142.69 224.64
L142.84 230.688
L142.991 221.616
L143.141 227.664
L144.044 227.664
L144.194 224.64
L144.344 227.664
L144.645 227.664
L144.796 230.688
L144.946 227.664
L145.096 227.664
L145.397 233.712
L145.548 230.688
L145.849 230.688
L145.999 224.64
L146.149 230.688
L146.3 224.64
L146.45 233.712
L146.601 227.664
L146.901 227.664
L147.052 230.688
L147.503 230.688
L147.653 227.664
L147.804 233.712
L147.954 230.688
L148.405 230.688
L148.556 227.664
L148.857 233.712
L149.007 230.688
L149.157 236.736
L149.308 233.712
L149.458 236.736
L149.609 236.736
L149.759 233.712
L149.909 236.736
L150.06 233.712
L150.361 233.712
L150.511 230.688
L150.661 236.736
L150.812 233.712
L150.962 233.712
L151.113 236.736
L151.263 236.736
L151.413 230.688
L151.564 233.712
L151.865 233.712
L152.015 236.736
L152.316 236.736
L152.466 233.712
L152.617 233.712
L152.767 236.736
L153.068 230.688
L153.369 236.736
L153.519 230.688
L153.67 233.712
L154.572 233.712
L154.722 227.664
L154.873 233.712
L155.174 233.712
L155.324 230.688
L155.625 230.688
L155.775 227.664
L156.076 227.664
L156.226 230.688
L156.377 227.664
L158.182 227.664
L158.332 224.64
L158.633 224.64
L158.783 227.664
L159.084 227.664
L159.235 224.64
L159.385 224.64
L159.535 227.664
L159.686 227.664
L159.836 224.64
L160.438 224.64
L160.588 227.664
L160.739 224.64
L160.889 224.64
L161.039 227.664
L161.19 224.64
L161.34 227.664
L162.393 227.664
L162.543 224.64
L162.694 227.664
L162.844 227.664
L162.995 230.688
L163.145 230.688
L163.295 233.712
L163.446 230.688
L163.596 233.712
L163.747 233.712
L163.897 230.688
L164.047 233.712
L164.348 233.712
L164.499 230.688
L164.649 233.712
L164.799 230.688
L165.551 230.688
L165.702 233.712
L165.852 233.712
L166.003 230.688
L166.304 230.688
L166.454 233.712
L166.604 227.664
L166.755 233.712
L167.056 233.712
L167.206 230.688
L167.356 233.712
L167.657 233.712
L167.808 236.736
L167.958 227.664
L168.108 230.688
L168.409 230.688
L168.56 227.664
L168.86 233.712
L169.011 230.688
L169.161 230.688
L169.312 233.712
L169.462 230.688
L169.612 233.712
L169.913 233.712
L170.064 230.688
L170.214 230.688
L170.364 227.664
L170.515 230.688
L170.665 227.664
L171.267 227.664
L171.417 230.688
L171.568 227.664
L171.718 227.664
L171.868 224.64
L172.019 227.664
L172.169 224.64
L172.32 227.664
L172.47 224.64
L172.62 227.664
L172.771 224.64
L172.921 227.664
L173.072 227.664
L173.222 224.64
L173.373 227.664
L173.523 224.64
L173.824 224.64
L173.974 227.664
L174.125 224.64
L174.425 224.64
L174.576 227.664
L174.726 227.664
L174.877 224.64
L175.027 230.688
L175.177 227.664
L175.328 227.664
L175.478 230.688
L175.629 227.664
L176.531 227.664
L176.681 230.688
L176.832 227.664
L177.283 227.664
L177.433 224.64
L177.584 227.664
L177.734 227.664
L177.885 224.64
L178.035 227.664
L178.185 224.64
L178.336 227.664
L178.486 233.712
L178.637 230.688
L178.787 236.736
L179.088 230.688
L179.238 230.688
L179.389 224.64
L179.539 230.688
L179.689 227.664
L179.84 230.688
L179.99 230.688
L180.141 227.664
L180.291 227.664
L180.442 224.64
L180.592 230.688
L180.893 230.688
L181.043 227.664
L181.194 227.664
L181.344 224.64
L181.494 230.688
L182.848 230.688
L182.998 233.712
L183.149 227.664
L183.299 227.664
L183.45 224.64
L183.6 227.664
L183.75 224.64
L183.901 224.64
L184.051 230.688
L184.352 221.616
L184.653 221.616
L184.803 224.64
L184.954 221.616
L185.104 227.664
L185.254 224.64
L185.405 224.64
L185.555 221.616
L186.006 221.616
L186.157 224.64
L187.36 224.64
L187.511 227.664
L187.811 221.616
L187.962 221.616
L188.112 227.664
L188.413 221.616
L188.563 224.64
L188.714 221.616
L188.864 227.664
L189.015 224.64
L189.165 227.664
L189.767 227.664
L189.917 230.688
L190.218 224.64
L190.368 227.664
L190.669 227.664
L190.819 224.64
L190.97 227.664
L191.421 227.664
L191.571 224.64
L191.722 230.688
L192.023 224.64
L192.173 227.664
L192.474 227.664
L192.624 224.64
L192.775 227.664
L192.925 224.64
L193.075 227.664
L193.677 227.664
L193.827 224.64
L194.128 224.64
L194.279 227.664
L194.429 221.616
L194.58 224.64
L194.73 224.64
L194.88 221.616
L195.031 224.64
L195.181 221.616
L195.332 224.64
L195.482 218.592
L195.632 221.616
L195.783 218.592
L195.933 224.64
L196.234 218.592
L196.384 224.64
L196.535 221.616
L196.685 227.664
L196.836 224.64
L196.986 227.664
L197.136 221.616
L197.287 224.64
L197.437 221.616
L197.588 221.616
L197.738 215.568
L197.888 224.64
L198.189 218.592
L198.34 221.616
L198.49 221.616
L198.64 224.64
L198.791 221.616
L198.941 224.64
L199.242 224.64
L199.392 221.616
L199.543 224.64
L199.994 224.64
L200.144 227.664
L200.295 224.64
L200.596 224.64
L200.746 221.616
L200.896 221.616
L201.047 224.64
L201.197 221.616
L201.498 227.664
L201.799 227.664
L201.949 224.64
L202.1 227.664
L202.25 224.64
L202.401 227.664
L202.551 224.64
L203.754 224.64
L203.905 227.664
L204.205 227.664
L204.356 221.616
L204.657 227.664
L204.807 224.64
L204.957 227.664
L205.108 224.64
L205.409 224.64
L205.559 227.664
L205.709 227.664
L205.86 224.64
L206.01 227.664
L206.161 227.664
L206.311 224.64
L206.612 230.688
L206.762 227.664
L206.913 230.688
L207.213 230.688
L207.364 233.712
L207.965 233.712
L208.116 230.688
L208.266 233.712
L208.417 230.688
L208.567 233.712
L208.718 227.664
L208.868 233.712
L209.169 233.712
L209.319 230.688
L209.47 230.688
L209.62 233.712
L210.071 233.712
L210.222 230.688
L210.372 230.688
L210.522 227.664
L210.673 230.688
L210.974 230.688
L211.124 233.712
L211.274 233.712
L211.425 227.664
L211.575 233.712
L212.026 233.712
L212.177 230.688
L212.327 230.688
L212.478 227.664
L212.628 233.712
L212.778 230.688
L212.929 230.688
L213.079 233.712
L213.23 233.712
L213.38 230.688
L213.53 233.712
L213.681 230.688
L213.831 230.688
L213.982 233.712
L214.282 233.712
L214.433 230.688
L214.734 230.688
L214.884 227.664
L215.035 233.712
L215.185 224.64
L215.335 230.688
L215.486 224.64
L215.636 227.664
L215.937 227.664
L216.087 230.688
L216.238 227.664
L216.839 227.664
L216.99 224.64
L217.14 230.688
L217.441 224.64
L217.591 227.664
L218.193 227.664
L218.343 230.688
L218.494 227.664
L218.644 230.688
L218.795 227.664
L218.945 230.688
L219.095 227.664
L219.697 227.664
L219.847 224.64
L219.998 230.688
L220.148 227.664
L220.299 227.664
L220.449 230.688
L220.599 227.664
L220.75 227.664
L220.9 230.688
L221.051 230.688
L221.201 227.664
L221.502 233.712
L221.953 233.712
L222.104 230.688
L222.254 230.688
L222.404 236.736
L222.705 236.736
L222.856 233.712
L223.156 233.712
L223.307 236.736
L223.457 233.712
L223.608 233.712
L223.758 230.688
L224.209 230.688
L224.36 233.712
L224.51 233.712
L224.66 227.664
L224.811 233.712
L224.961 233.712
L225.112 230.688
L225.262 233.712
L225.412 233.712
L225.563 230.688
L225.713 230.688
L225.864 233.712
L226.014 230.688
L226.164 230.688
L226.315 233.712
L226.465 230.688
L226.616 233.712
L227.969 233.712
L228.12 230.688
L228.27 233.712
L228.42 227.664
L228.571 230.688
L228.872 224.64
L229.022 224.64
L229.173 227.664
L229.473 227.664
L229.624 224.64
L229.925 230.688
L230.075 230.688
L230.225 227.664
L230.376 230.688
L230.526 227.664
L230.677 230.688
L230.827 227.664
L232.481 227.664
L232.632 224.64
L232.782 227.664
L233.685 227.664
L233.835 224.64
L233.985 224.64
L234.136 227.664
L234.286 224.64
L234.587 230.688
L234.737 227.664
L235.189 227.664
L235.489 233.712
L235.79 227.664
L235.941 230.688
L236.091 230.688
L236.242 233.712
L236.392 230.688
L236.542 236.736
L236.843 230.688
L236.994 233.712
L237.294 233.712
L237.445 227.664
L237.746 233.712
L238.498 233.712
L238.648 230.688
L238.798 233.712
L239.099 233.712
L239.25 230.688
L239.55 230.688
L239.701 233.712
L239.851 233.712
L240.002 227.664
L240.152 230.688
L240.603 230.688
L240.754 224.64
L240.904 233.712
L241.054 233.712
L241.205 230.688
L241.355 233.712
L241.506 233.712
L241.656 230.688
L241.957 230.688
L242.107 227.664
L242.258 233.712
L242.558 227.664
L243.16 227.664
L243.311 224.64
L243.461 227.664
L243.611 224.64
L243.762 224.64
L243.912 221.616
L244.063 227.664
L244.213 227.664
L244.363 224.64
L244.514 227.664
L244.664 227.664
L244.815 224.64
L244.965 227.664
L245.867 227.664
L246.018 221.616
L246.319 227.664
L246.469 224.64
L246.619 227.664
L246.77 227.664
L246.92 224.64
L247.071 227.664
L247.672 227.664
L247.823 230.688
L247.973 227.664
L248.123 227.664
L248.274 224.64
L248.424 227.664
L248.575 227.664
L248.725 224.64
L248.875 230.688
L249.026 224.64
L249.327 230.688
L249.477 227.664
L249.627 230.688
L249.778 230.688
L249.928 227.664
L250.079 230.688
L250.981 230.688
L251.132 233.712
L251.282 230.688
L251.432 233.712
L251.583 233.712
L251.733 230.688
L251.884 230.688
L252.034 233.712
L252.184 230.688
L252.335 230.688
L252.485 233.712
L252.636 233.712
L252.786 230.688
L252.936 230.688
L253.087 233.712
L253.237 230.688
L253.388 233.712
L253.839 233.712
L253.989 227.664
L254.29 233.712
L254.44 230.688
L254.741 230.688
L254.892 227.664
L255.042 230.688
L255.192 230.688
L255.343 233.712
L255.493 233.712
L255.644 230.688
L256.095 230.688
L256.245 233.712
L256.396 230.688
L257.298 230.688
L257.449 224.64
L257.749 230.688
L258.05 230.688
L258.201 227.664
L258.351 230.688
L258.501 227.664
L258.652 230.688
L258.802 224.64
L259.103 224.64
L259.253 230.688
L259.404 227.664
L259.554 227.664
L259.705 224.64
L259.855 224.64
L260.005 227.664
L260.156 224.64
L260.306 227.664
L260.457 224.64
L260.607 227.664
L260.908 227.664
L261.058 224.64
L261.209 224.64
L261.359 230.688
L261.509 227.664
L261.66 227.664
L261.81 224.64
L262.412 224.64
L262.562 227.664
L262.713 224.64
L262.863 227.664
L264.066 227.664
L264.217 230.688
L264.367 230.688
L264.518 233.712
L264.668 230.688
L264.818 233.712
L265.119 233.712
L265.42 227.664
L265.721 233.712
L265.871 230.688
L266.022 230.688
L266.172 233.712
L266.322 230.688
L266.774 230.688
L266.924 227.664
L267.074 233.712
L267.375 233.712
L267.526 230.688
L267.676 230.688
L267.826 227.664
L267.977 233.712
L268.127 230.688
L268.729 230.688
L268.879 227.664
L269.18 233.712
L269.33 227.664
L269.481 227.664
L269.631 230.688
L269.932 230.688
L270.082 233.712
L270.233 227.664
L270.383 233.712
L270.534 230.688
L271.135 230.688
L271.286 227.664
L271.587 227.664
L271.737 230.688
L271.887 227.664
L272.038 227.664
L272.188 230.688
L272.339 224.64
L272.489 227.664
L273.391 227.664
L273.542 224.64
L273.843 224.64
L273.993 227.664
L274.143 224.64
L274.294 227.664
L274.444 227.664
L274.595 224.64
L274.745 224.64
L274.895 227.664
L275.046 224.64
L275.196 227.664
L275.497 227.664
L275.647 224.64
L276.399 224.64
L276.55 221.616
L276.851 227.664
L277.151 221.616
L277.302 224.64
L277.452 224.64
L277.603 227.664
L277.753 227.664
L277.904 224.64
L278.355 224.64
L278.505 227.664
L278.806 227.664
L278.956 224.64
L279.257 224.64
L279.408 230.688
L279.558 227.664
L279.708 230.688
L279.859 230.688
L280.009 227.664
L280.16 230.688
L280.611 230.688
L280.761 227.664
L280.912 230.688
L281.062 230.688
L281.212 227.664
L281.363 230.688
L281.513 230.688
L281.664 227.664
L281.814 227.664
L281.964 233.712
L282.115 227.664
L282.265 230.688
L282.416 227.664
L282.867 227.664
L283.017 230.688
L283.168 227.664
L283.318 227.664
L283.468 230.688
L283.619 230.688
L283.769 233.712
L283.92 230.688
L284.371 230.688
L284.521 227.664
L284.672 227.664
L284.822 224.64
L284.973 227.664
L285.273 227.664
L285.424 224.64
L285.574 227.664
L285.725 224.64
L286.176 224.64
L286.326 227.664
L286.477 224.64
L286.627 224.64
L286.777 221.616
L286.928 224.64
L287.229 224.64
L287.379 227.664
L287.529 224.64
L287.981 224.64
L288.131 227.664
L288.281 224.64
L288.432 227.664
L288.733 227.664
L288.883 224.64
L289.033 224.64
L289.184 227.664
L289.334 224.64
L289.485 224.64
L289.635 227.664
L289.785 224.64
L290.237 224.64
L290.387 227.664
L290.537 224.64
L290.838 224.64
L290.989 227.664
L291.139 227.664
L291.289 224.64
L291.44 227.664
L291.891 227.664
L292.042 224.64
L292.192 203.472
L292.342 224.64
L292.493 224.64
L292.643 227.664
L292.794 224.64
L293.546 224.64
L293.696 227.664
L293.997 221.616
L294.147 224.64
L294.298 224.64
L294.448 221.616
L294.598 221.616
L294.749 227.664
L294.899 227.664
L295.2 221.616
L295.501 227.664
L295.651 224.64
L295.802 227.664
L296.102 221.616
L296.253 221.616
L296.403 218.592
L296.554 221.616
L296.704 221.616
L296.854 218.592
L297.306 218.592
L297.456 221.616
L297.907 221.616
L298.058 218.592
L298.208 221.616
L298.358 221.616
L298.509 218.592
L298.659 221.616
L298.96 221.616
L299.111 215.568
L299.261 224.64
L299.411 218.592
L299.562 221.616
L300.013 221.616
L300.163 224.64
L300.314 221.616
L300.915 221.616
L301.066 224.64
L301.216 224.64
L301.367 221.616
L301.517 224.64
L301.818 224.64
L301.968 221.616
L302.119 221.616
L302.269 224.64
L302.419 221.616
L302.57 224.64
L302.72 221.616
L302.871 224.64
L303.021 224.64
L303.171 221.616
L303.322 221.616
L303.472 224.64
L303.623 224.64
L303.773 221.616
L304.074 221.616
L304.224 224.64
L304.375 221.616
L304.525 224.64
L304.675 224.64
L304.826 221.616
L304.976 224.64
L305.127 224.64
L305.277 221.616
L305.578 221.616
L305.728 224.64
L305.879 221.616
L306.029 224.64
L306.932 224.64
L307.082 221.616
L307.232 221.616
L307.533 227.664
L307.834 227.664
L307.984 230.688
L308.135 230.688
L308.285 233.712
L308.436 230.688
L308.586 230.688
L308.736 227.664
L308.887 230.688
L309.037 230.688
L309.188 233.712
L309.338 230.688
L310.09 230.688
L310.24 233.712
L310.391 233.712
L310.541 230.688
L310.692 230.688
L310.842 233.712
L310.992 230.688
L311.143 233.712
L311.293 230.688
L311.444 230.688
L311.594 236.736
L311.744 236.736
L312.196 245.808
L312.346 239.76
L312.496 239.76
L312.647 242.784
L312.797 242.784
L312.948 239.76
L313.098 245.808
L313.549 245.808
L313.7 242.784
L313.85 245.808
L314.001 245.808
L314.151 248.832
L314.301 245.808
L314.452 248.832
L314.602 248.832
L314.753 242.784
L314.903 245.808
L315.053 242.784
L315.204 245.808
L315.354 242.784
L315.505 245.808
L315.655 239.76
L315.956 239.76
L316.106 242.784
L316.257 236.736
L316.407 239.76
L316.557 236.736
L316.708 239.76
L316.858 236.736
L317.009 239.76
L317.159 236.736
L317.309 236.736
L317.46 233.712
L317.61 236.736
L317.761 233.712
L317.911 236.736
L318.061 236.736
L318.212 233.712
L318.964 233.712
L319.114 236.736
L319.265 236.736
L319.415 233.712
L319.566 233.712
L319.716 236.736
L320.167 236.736
L320.318 230.688
L320.468 236.736
L320.618 233.712
L320.919 233.712
L321.07 230.688
L321.22 233.712
L321.37 233.712
L321.521 230.688
L321.671 233.712
L321.822 227.664
L322.122 239.76
L322.273 239.76
L322.423 242.784
L322.574 242.784
L322.724 239.76
L322.874 245.808
L323.025 242.784
L323.175 245.808
L324.078 245.808
L324.228 248.832
L324.379 245.808
L324.529 245.808
L324.679 248.832
L324.83 245.808
L324.98 248.832
L325.281 248.832
L325.431 245.808
L325.582 245.808
L325.732 248.832
L325.882 248.832
L326.033 239.76
L326.183 248.832
L326.334 245.808
L326.484 248.832
L326.935 248.832
L327.086 245.808
L327.236 248.832
L327.387 248.832
L327.537 245.808
L327.687 248.832
L327.838 248.832
L327.988 245.808
L328.139 251.856
L328.289 245.808
L328.439 245.808
L328.59 251.856
L328.74 248.832
L328.891 248.832
L329.041 245.808
L329.191 248.832
L329.492 248.832
L329.643 245.808
L329.793 239.76
L329.943 242.784
L330.695 242.784
L330.846 239.76
L330.996 242.784
L331.147 242.784
L331.297 239.76
L331.447 239.76
L331.598 236.736
L331.748 239.76
L332.049 239.76
L332.199 236.736
L332.35 239.76
L332.801 239.76
L332.951 236.736
L333.102 239.76
L333.403 239.76
L333.553 236.736
L333.704 239.76
L333.854 236.736
L334.004 236.736
L334.155 239.76
L334.305 239.76
L334.456 236.736
L334.606 236.736
L334.756 233.712
L334.907 236.736
L335.057 236.736
L335.208 239.76
L335.809 239.76
L335.96 236.736
L336.11 236.736
L336.261 209.52
L336.411 242.784
L336.561 245.808
L337.012 245.808
L337.163 248.832
L337.915 248.832
L338.065 245.808
L338.216 248.832
L338.667 248.832
L338.817 245.808
L339.419 245.808
L339.569 248.832
L339.87 248.832
L340.02 245.808
L340.171 245.808
L340.321 248.832
L341.073 248.832
L341.224 245.808
L341.374 245.808
L341.525 248.832
L341.675 245.808
L341.976 245.808
L342.126 242.784
L342.277 245.808
L342.427 245.808
L342.577 242.784
L343.029 242.784
L343.179 245.808
L343.329 242.784
L343.48 245.808
L343.63 239.76
L343.781 242.784
L343.931 239.76
L344.382 239.76
L344.533 236.736
L344.683 239.76
L344.833 236.736
L346.337 236.736
L346.488 233.712
L346.638 233.712
L346.789 236.736
L346.939 233.712
L347.089 236.736
L347.24 236.736
L347.39 233.712
L347.691 233.712
L347.842 230.688
L347.992 233.712
L348.142 227.664
L348.293 233.712
L348.894 233.712
L349.045 230.688
L349.195 233.712
L349.947 233.712
L350.098 230.688
L350.248 230.688
L350.398 233.712
L350.699 233.712
L350.85 236.736
L351 236.736
L351.15 239.76
L351.301 239.76
L351.451 242.784
L351.752 236.736
L351.902 242.784
L352.053 239.76
L352.203 242.784
L353.106 242.784
L353.256 239.76
L353.707 239.76
L353.858 242.784
L354.309 242.784
L354.459 236.736
L354.61 245.808
L354.76 245.808
L354.911 242.784
L355.061 245.808
L355.362 245.808
L355.512 242.784
L355.663 242.784
L355.813 239.76
L355.963 242.784
L356.114 242.784
L356.264 239.76
L356.415 239.76
L356.715 245.808
L356.866 239.76
L357.167 245.808
L357.317 239.76
L357.467 245.808
L357.768 245.808
L357.919 242.784
L358.069 242.784
L358.219 239.76
L358.52 239.76
L358.671 236.736
L358.821 239.76
L358.971 233.712
L359.122 236.736
L359.423 236.736
L359.573 233.712
L359.723 236.736
L359.874 233.712
L360.024 236.736
L360.475 236.736
L360.626 233.712
L361.227 233.712
L361.378 230.688
L361.528 230.688
L361.679 233.712
L362.28 233.712
L362.431 236.736
L362.581 230.688
L362.732 233.712
L362.882 230.688
L363.333 230.688
L363.484 236.736
L363.634 233.712
L364.085 233.712
L364.236 230.688
L364.386 233.712
L365.288 233.712
L365.439 239.76
L365.589 239.76
L365.74 242.784
L365.89 239.76
L366.04 245.808
L366.191 239.76
L366.341 245.808
L366.492 239.76
L366.642 242.784
L366.792 239.76
L366.943 239.76
L367.093 245.808
L367.244 239.76
L367.394 242.784
L367.544 242.784
L367.695 239.76
L367.845 239.76
L367.996 242.784
L368.146 239.76
L368.296 242.784
L368.447 242.784
L368.597 245.808
L368.748 245.808
L368.898 242.784
L369.049 242.784
L369.199 239.76
L369.5 245.808
L369.801 245.808
L369.951 242.784
L370.101 242.784
L370.252 239.76
L370.402 245.808
L370.553 239.76
L370.853 245.808
L371.004 242.784
L371.154 242.784
L371.305 236.736
L371.455 245.808
L371.605 239.76
L371.756 242.784
L371.906 242.784
L372.057 245.808
L372.357 239.76
L372.508 242.784
L372.658 242.784
L372.809 239.76
L373.26 239.76
L373.41 233.712
L373.561 236.736
L374.162 236.736
L374.313 233.712
L374.463 236.736
L374.613 236.736
L374.764 233.712
L375.065 233.712
L375.215 230.688
L375.365 230.688
L375.516 233.712
L375.666 230.688
L375.817 230.688
L375.967 233.712
L376.418 233.712
L376.569 230.688
L376.719 233.712
L377.321 233.712
L377.471 230.688
L377.622 233.712
L377.772 233.712
L377.922 230.688
L378.073 233.712
L378.223 233.712
L378.374 230.688
L378.524 233.712
L379.727 233.712
L379.878 230.688
L380.028 230.688
L380.178 233.712
L380.329 233.712
L380.78 242.784
L380.93 242.784
L381.081 245.808
L381.231 242.784
L381.682 242.784
L381.833 245.808
L381.983 245.808
L382.134 239.76
L382.284 248.832
L382.435 242.784
L382.886 242.784
L383.036 245.808
L383.487 245.808
L383.638 242.784
L384.691 242.784
L384.841 239.76
L384.991 242.784
L385.443 242.784
L385.743 236.736
L385.894 239.76
L386.044 233.712
L386.195 236.736
L386.345 236.736
L386.495 233.712
L386.646 233.712
L386.796 236.736
L387.097 236.736
L387.247 233.712
L387.699 233.712
L387.849 227.664
L387.999 236.736
L388.15 233.712
L388.3 233.712
L388.451 230.688
L388.601 230.688
L388.751 233.712
L388.902 233.712
L389.052 230.688
L389.353 230.688
L389.504 233.712
L389.654 224.64
L389.955 233.712
L390.105 233.712
L390.256 230.688
L390.557 230.688
L390.707 233.712
L391.158 233.712
L391.308 230.688
L391.459 233.712
L391.76 227.664
L391.91 230.688
L392.06 230.688
L392.211 233.712
L392.361 230.688
L392.812 230.688
L392.963 227.664
L393.113 230.688
L393.264 230.688
L393.414 227.664
L393.865 227.664
L394.016 230.688
L394.166 230.688
L394.467 224.64
L394.617 230.688
L394.768 227.664
L394.918 227.664
L395.068 230.688
L395.219 227.664
L395.369 227.664
L395.52 233.712
L395.67 227.664
L395.82 230.688
L395.971 230.688
L396.121 224.64
L396.422 230.688
L396.573 224.64
L396.873 230.688
L397.024 230.688
L397.174 227.664
L397.325 230.688
L397.475 224.64
L397.625 230.688
L397.776 227.664
L397.926 230.688
L398.077 227.664
L398.227 230.688
L398.377 227.664
L398.528 230.688
L398.678 230.688
L398.829 227.664
L399.43 227.664
L399.581 224.64
L399.731 227.664
L399.881 227.664
L400.032 230.688
L400.333 230.688
L400.483 227.664
L400.633 227.664
L400.784 230.688
L400.934 224.64
L401.085 227.664
L401.235 227.664
L401.385 224.64
L401.536 227.664
L401.686 227.664
L401.837 230.688
L401.987 227.664
L402.137 230.688
L402.288 224.64
L402.589 230.688
L402.739 227.664
L402.889 227.664
L403.19 221.616
L403.341 227.664
L403.942 227.664
L404.093 224.64
L404.243 230.688
L404.544 224.64
L404.694 227.664
L405.747 227.664
L405.898 224.64
L406.048 227.664
L406.198 224.64
L406.349 227.664
L407.101 227.664
L407.251 224.64
L407.402 227.664
L408.003 227.664
L408.154 224.64
L408.304 227.664
L408.454 227.664
L408.906 251.856
L409.206 251.856
L409.357 254.88
L409.658 254.88
L409.808 257.904
L409.958 257.904
L410.109 254.88
L410.56 254.88
L410.711 257.904
L410.861 254.88
L411.011 248.832
L411.312 257.904
L411.613 251.856
L411.763 254.88
L411.914 248.832
L412.064 251.856
L412.666 251.856
L412.816 248.832
L412.967 251.856
L413.267 251.856
L413.418 254.88
L413.568 254.88
L413.719 251.856
L413.869 254.88
L414.019 248.832
L414.17 254.88
L414.621 245.808
L414.771 254.88
L415.072 248.832
L415.373 254.88
L415.674 248.832
L415.975 254.88
L416.275 248.832
L416.426 242.784
L416.576 245.808
L416.727 245.808
L417.027 239.76
L417.479 239.76
L417.629 233.712
L417.78 236.736
L418.08 236.736
L418.231 233.712
L418.381 236.736
L419.133 236.736
L419.434 230.688
L419.584 233.712
L419.735 230.688
L419.885 236.736
L420.036 233.712
L420.336 233.712
L420.487 230.688
L420.637 236.736
L420.788 233.712
L420.938 233.712
L421.088 236.736
L421.239 203.472
L421.389 233.712
L421.991 233.712
L422.141 230.688
L422.292 233.712
L422.442 230.688
L422.592 236.736
L422.743 236.736
L422.893 233.712
L423.194 242.784
L423.495 248.832
L423.645 248.832
L423.796 251.856
L423.946 251.856
L424.096 254.88
L424.247 251.856
L424.397 251.856
L424.548 248.832
L424.849 248.832
L424.999 251.856
L425.149 248.832
L425.3 251.856
L425.601 251.856
L425.751 254.88
L425.901 254.88
L426.052 251.856
L426.202 251.856
L426.353 248.832
L427.706 248.832
L427.857 251.856
L428.308 251.856
L428.458 254.88
L428.909 254.88
L429.06 257.904
L429.21 254.88
L429.511 254.88
L429.661 257.904
L429.812 254.88
L429.962 257.904
L430.113 257.904
L430.263 254.88
L430.564 254.88
L430.714 260.928
L430.865 254.88
L431.015 257.904
L431.466 257.904
L431.767 251.856
L431.918 257.904
L432.068 254.88
L432.218 248.832
L432.369 251.856
L432.519 251.856
L432.67 248.832
L432.97 248.832
L433.121 245.808
L433.271 248.832
L433.422 248.832
L433.572 242.784
L433.722 245.808
L434.174 245.808
L434.324 248.832
L434.625 242.784
L434.775 242.784
L434.926 248.832
L435.678 248.832
L435.828 245.808
L436.129 245.808
L436.279 248.832
L436.43 245.808
L437.182 245.808
L437.332 242.784
L437.482 245.808
L437.783 245.808
L437.934 248.832
L438.084 248.832
L438.235 242.784
L438.385 242.784
L438.686 254.88
L438.836 251.856
L438.987 254.88
L439.588 254.88
L439.739 257.904
L439.889 254.88
L440.039 254.88
L440.19 257.904
L440.34 254.88
L440.641 254.88
L440.791 257.904
L440.942 254.88
L441.393 254.88
L441.543 251.856
L441.694 257.904
L441.844 254.88
L441.995 254.88
L442.145 251.856
L442.295 254.88
L442.596 254.88
L442.747 257.904
L442.897 254.88
L443.047 254.88
L443.198 257.904
L443.348 254.88
L443.499 254.88
L443.649 260.928
L443.799 257.904
L444.251 257.904
L444.401 251.856
L444.702 257.904
L444.852 254.88
L445.153 254.88
L445.304 257.904
L445.454 254.88
L445.755 254.88
L445.905 251.856
L446.056 251.856
L446.206 254.88
L446.356 251.856
L446.507 254.88
L446.657 248.832
L446.808 248.832
L446.958 245.808
L447.108 248.832
L447.259 248.832
L447.409 245.808
L447.56 248.832
L447.71 245.808
L447.86 248.832
L448.011 248.832
L448.161 245.808
L448.312 245.808
L448.462 242.784
L448.612 248.832
L448.913 242.784
L449.064 245.808
L449.966 245.808
L450.116 242.784
L450.267 245.808
L450.417 242.784
L450.568 248.832
L451.019 239.76
L451.169 245.808
L451.62 245.808
L451.771 242.784
L451.921 248.832
L452.072 248.832
L452.222 245.808
L452.373 245.808
L452.523 242.784
L452.673 245.808
L452.824 245.808
L452.974 251.856
L453.125 251.856
L453.425 257.904
L453.576 257.904
L453.726 251.856
L453.877 257.904
L454.177 251.856
L454.478 257.904
L454.779 251.856
L455.08 251.856
L455.23 257.904
L455.531 251.856
L455.682 254.88
L455.982 254.88
L456.133 251.856
L456.283 257.904
L456.433 251.856
L456.584 254.88
L456.734 251.856
L456.885 254.88
L457.035 254.88
L457.185 251.856
L457.336 257.904
L457.787 242.784
L457.937 239.76
L458.088 233.712
L458.539 233.712
L458.84 248.832
L458.99 248.832
L459.141 251.856
L459.291 248.832
L459.442 248.832
L459.592 251.856
L459.742 248.832
L459.893 251.856
L460.043 257.904
L460.344 245.808
L460.645 245.808
L460.795 242.784
L460.946 242.784
L461.096 239.76
L461.246 242.784
L461.397 236.736
L461.547 239.76
L461.698 236.736
L461.848 242.784
L462.149 236.736
L462.75 236.736
L462.901 239.76
L463.051 233.712
L463.202 236.736
L463.352 233.712
L463.803 233.712
L463.954 236.736
L464.104 233.712
L464.254 236.736
L464.405 236.736
L464.555 233.712
L464.706 236.736
L464.856 236.736
L465.006 233.712
L465.157 236.736
L465.307 233.712
L465.458 233.712
L465.608 236.736
L465.758 233.712
L465.909 233.712
L466.059 236.736
L466.21 233.712
L466.36 236.736
L466.511 236.736
L466.661 233.712
L466.811 233.712
L466.962 236.736
L467.112 233.712
L467.413 233.712
L467.714 242.784
L468.015 248.832
L468.165 245.808
L468.315 248.832
L468.767 248.832
L468.917 254.88
L469.067 248.832
L469.218 251.856
L469.368 248.832
L469.519 248.832
L469.669 242.784
L469.819 248.832
L469.97 239.76
L470.12 248.832
L470.421 248.832
L470.572 245.808
L470.872 251.856
L471.023 251.856
L471.173 254.88
L471.474 248.832
L471.624 251.856
L471.775 251.856
L471.925 248.832
L472.075 248.832
L472.226 245.808
L472.376 248.832
L472.978 248.832
L473.128 251.856
L473.279 248.832
L473.429 248.832
L473.58 251.856
L473.73 251.856
L473.88 248.832
L474.181 254.88
L474.332 251.856
L474.482 254.88
L474.632 251.856
L474.783 251.856
L474.933 248.832
L475.084 251.856
L475.234 251.856
L475.384 248.832
L475.535 251.856
L475.685 245.808
L475.836 245.808
L475.986 242.784
L476.287 248.832
L476.588 248.832
L476.738 245.808
L476.888 248.832
L477.039 248.832
L477.189 245.808
L477.34 248.832
L477.49 245.808
L477.64 245.808
L477.791 248.832
L477.941 248.832
L478.092 245.808
L478.242 248.832
L478.392 245.808
L478.543 245.808
L478.693 248.832
L478.844 245.808
L479.445 245.808
L479.596 248.832
L480.047 248.832
L480.197 245.808
L480.348 248.832
L480.498 245.808
L480.649 248.832
L480.799 245.808
L480.949 245.808
L481.1 248.832
L481.25 248.832
L481.401 242.784
L481.701 248.832
L481.852 245.808
L482.604 245.808
L482.754 248.832
L483.055 248.832
L483.205 251.856
L483.356 251.856
L483.506 248.832
L483.657 248.832
L483.957 254.88
L484.409 254.88
L484.559 248.832
L484.709 254.88
L484.86 254.88
L485.01 251.856
L485.161 254.88
L485.461 254.88
L485.612 251.856
L485.913 251.856
L486.063 248.832
L486.213 251.856
L486.514 251.856
L486.665 248.832
L486.815 251.856
L486.965 248.832
L487.116 251.856
L487.266 251.856
L487.417 254.88
L487.718 248.832
L487.868 251.856
L488.018 248.832
L488.169 248.832
L488.319 251.856
L488.47 251.856
L488.62 248.832
L488.77 248.832
L488.921 245.808
L489.071 248.832
L489.222 245.808
L489.372 248.832
L489.673 248.832
L489.823 242.784
L489.974 248.832
L490.124 245.808
L490.425 245.808
L490.575 248.832
L490.726 248.832
L490.876 245.808
L491.026 245.808
L491.177 248.832
L491.327 248.832
L491.478 245.808
L490.425 245.808
L490.578 245.808
L490.726 248.832
L490.876 245.808
L491.026 245.808
L491.177 242.784
L491.327 245.808
L491.778 245.808
L491.929 248.832
L492.23 242.784
L492.38 245.808
L492.53 242.784
L492.831 248.832
L493.132 242.784
L493.282 248.832
L493.433 245.808
L493.734 245.808
L493.884 242.784
L494.185 248.832
L494.335 242.784
L494.636 242.784
L494.787 245.808
L494.937 245.808
L495.087 242.784
L495.238 245.808
L495.388 242.784
L495.539 245.808
L496.591 245.808
L496.742 239.76
L497.043 245.808
L497.193 242.784
L497.343 242.784
L497.494 245.808
L497.644 245.808
L497.795 239.76
L497.945 245.808
L498.095 245.808
L498.246 239.76
L498.396 242.784
L498.998 242.784
L499.148 239.76
L499.299 242.784
L499.449 239.76
L500.803 239.76
L500.953 242.784
L501.104 239.76
L501.254 239.76
L501.404 242.784
L501.555 239.76
L501.856 239.76
L502.006 242.784
L502.156 242.784
L502.307 239.76
L502.457 242.784
L502.608 239.76
L502.758 242.784
L502.908 239.76
L503.059 242.784
L503.209 239.76
L503.36 242.784
L503.961 242.784
L504.112 239.76
L504.262 242.784
L504.563 242.784
L504.713 239.76
L504.864 239.76
L505.014 242.784
L505.164 242.784
L505.315 245.808
L505.465 242.784
L505.766 242.784
L505.916 239.76
L506.067 242.784
L506.217 242.784
L506.368 245.808
L506.518 239.76
L506.668 245.808
L506.819 245.808
L506.969 242.784
L507.27 242.784
L507.42 245.808
L507.721 239.76
L507.872 245.808
L508.022 245.808
L508.173 242.784
L508.774 242.784
L508.925 245.808
L509.075 242.784
L509.225 245.808
L509.677 245.808
L509.977 251.856
L510.278 251.856
L510.429 257.904
L510.729 251.856
L510.88 254.88
L511.03 251.856
L511.331 257.904
L511.632 251.856
L511.782 251.856
L512.083 257.904
L512.384 251.856
L512.534 254.88
L512.835 254.88
L512.985 251.856
L513.286 251.856
L513.437 254.88
L513.587 254.88
L513.737 257.904
L513.888 251.856
L514.038 254.88
L514.489 254.88
L514.64 251.856
L514.79 254.88
L514.941 254.88
L515.091 257.904
L515.242 257.904
L515.392 251.856
L515.693 257.904
L515.843 254.88
L515.994 254.88
L516.144 251.856
L516.445 257.904
L516.595 257.904
L516.746 254.88
L516.896 257.904
L517.046 254.88
L517.197 257.904
L517.347 257.904
L517.498 254.88
L517.648 254.88
L517.798 251.856
L517.949 251.856
L518.099 248.832
L518.25 248.832
L518.4 251.856
L518.4 251.856" style="fill:none;stroke:#0000ff;stroke-linecap:square;"/>
   </g>
   <g id="line2d_2">
    <path clip-path="url(#pcb2bf987bf)" d="
M72 88.56
L518.4 88.56" style="fill:none;stroke:#ff0000;stroke-linecap:square;"/>
   </g>
   <g id="matplotlib.axis_1">
    <g id="xtick_1">
     <g id="line2d_3">
      <path clip-path="url(#pcb2bf987bf)" d="
M115.316 345.6
L115.316 43.2" style="fill:none;stroke:#000000;stroke-dasharray:1.000000,3.000000;stroke-dashoffset:0.0;stroke-width:0.5;"/>
     </g>
     <g id="line2d_4">
      <defs>
       <path d="
M0 0
L0 -4" id="m93b0483c22" style="stroke:#000000;stroke-width:0.5;"/>
      </defs>
      <g>
       <use style="stroke:#000000;stroke-width:0.5;" x="115.316274932" xlink:href="#m93b0483c22" y="345.6"/>
      </g>
     </g>
     <g id="line2d_5">
      <defs>
       <path d="
M0 0
L0 4" id="m741efc42ff" style="stroke:#000000;stroke-width:0.5;"/>
      </defs>
      <g>
       <use style="stroke:#000000;stroke-width:0.5;" x="115.316274932" xlink:href="#m741efc42ff" y="43.2"/>
      </g>
     </g>
     <g id="text_1">
      <!-- Jun17 -->
      <defs>
       <path d="
M54.8906 33.0156
L54.8906 0
L45.9062 0
L45.9062 32.7188
Q45.9062 40.4844 42.875 44.3281
Q39.8438 48.1875 33.7969 48.1875
Q26.5156 48.1875 22.3125 43.5469
Q18.1094 38.9219 18.1094 30.9062
L18.1094 0
L9.07812 0
L9.07812 54.6875
L18.1094 54.6875
L18.1094 46.1875
Q21.3438 51.125 25.7031 53.5625
Q30.0781 56 35.7969 56
Q45.2188 56 50.0469 50.1719
Q54.8906 44.3438 54.8906 33.0156" id="BitstreamVeraSans-Roman-6e"/>
       <path d="
M12.4062 8.29688
L28.5156 8.29688
L28.5156 63.9219
L10.9844 60.4062
L10.9844 69.3906
L28.4219 72.9062
L38.2812 72.9062
L38.2812 8.29688
L54.3906 8.29688
L54.3906 0
L12.4062 0
z
" id="BitstreamVeraSans-Roman-31"/>
       <path d="
M8.5 21.5781
L8.5 54.6875
L17.4844 54.6875
L17.4844 21.9219
Q17.4844 14.1562 20.5 10.2656
Q23.5312 6.39062 29.5938 6.39062
Q36.8594 6.39062 41.0781 11.0312
Q45.3125 15.6719 45.3125 23.6875
L45.3125 54.6875
L54.2969 54.6875
L54.2969 0
L45.3125 0
L45.3125 8.40625
Q42.0469 3.42188 37.7188 1
Q33.4062 -1.42188 27.6875 -1.42188
Q18.2656 -1.42188 13.375 4.4375
Q8.5 10.2969 8.5 21.5781" id="BitstreamVeraSans-Roman-75"/>
       <path d="
M8.20312 72.9062
L55.0781 72.9062
L55.0781 68.7031
L28.6094 0
L18.3125 0
L43.2188 64.5938
L8.20312 64.5938
z
" id="BitstreamVeraSans-Roman-37"/>
       <path d="
M9.8125 72.9062
L19.6719 72.9062
L19.6719 5.07812
Q19.6719 -8.10938 14.6719 -14.0625
Q9.67188 -20.0156 -1.42188 -20.0156
L-5.17188 -20.0156
L-5.17188 -11.7188
L-2.09375 -11.7188
Q4.4375 -11.7188 7.125 -8.04688
Q9.8125 -4.39062 9.8125 5.07812
z
" id="BitstreamVeraSans-Roman-4a"/>
      </defs>
      <g transform="translate(84.9570184834 374.304027885)rotate(-30.0)scale(0.12 -0.12)">
       <use xlink:href="#BitstreamVeraSans-Roman-4a"/>
       <use x="29.4921875" xlink:href="#BitstreamVeraSans-Roman-75"/>
       <use x="92.87109375" xlink:href="#BitstreamVeraSans-Roman-6e"/>
       <use x="156.25" xlink:href="#BitstreamVeraSans-Roman-31"/>
       <use x="219.873046875" xlink:href="#BitstreamVeraSans-Roman-37"/>
      </g>
     </g>
    </g>
    <g id="xtick_2">
     <g id="line2d_6">
      <path clip-path="url(#pcb2bf987bf)" d="
M216.388 345.6
L216.388 43.2" style="fill:none;stroke:#000000;stroke-dasharray:1.000000,3.000000;stroke-dashoffset:0.0;stroke-width:0.5;"/>
     </g>
     <g id="line2d_7">
      <g>
       <use style="stroke:#000000;stroke-width:0.5;" x="216.387973046" xlink:href="#m93b0483c22" y="345.6"/>
      </g>
     </g>
     <g id="line2d_8">
      <g>
       <use style="stroke:#000000;stroke-width:0.5;" x="216.387973046" xlink:href="#m741efc42ff" y="43.2"/>
      </g>
     </g>
     <g id="text_2">
      <!-- Jun24 -->
      <defs>
       <path d="
M19.1875 8.29688
L53.6094 8.29688
L53.6094 0
L7.32812 0
L7.32812 8.29688
Q12.9375 14.1094 22.625 23.8906
Q32.3281 33.6875 34.8125 36.5312
Q39.5469 41.8438 41.4219 45.5312
Q43.3125 49.2188 43.3125 52.7812
Q43.3125 58.5938 39.2344 62.25
Q35.1562 65.9219 28.6094 65.9219
Q23.9688 65.9219 18.8125 64.3125
Q13.6719 62.7031 7.8125 59.4219
L7.8125 69.3906
Q13.7656 71.7812 18.9375 73
Q24.125 74.2188 28.4219 74.2188
Q39.75 74.2188 46.4844 68.5469
Q53.2188 62.8906 53.2188 53.4219
Q53.2188 48.9219 51.5312 44.8906
Q49.8594 40.875 45.4062 35.4062
Q44.1875 33.9844 37.6406 27.2188
Q31.1094 20.4531 19.1875 8.29688" id="BitstreamVeraSans-Roman-32"/>
       <path d="
M37.7969 64.3125
L12.8906 25.3906
L37.7969 25.3906
z

M35.2031 72.9062
L47.6094 72.9062
L47.6094 25.3906
L58.0156 25.3906
L58.0156 17.1875
L47.6094 17.1875
L47.6094 0
L37.7969 0
L37.7969 17.1875
L4.89062 17.1875
L4.89062 26.7031
z
" id="BitstreamVeraSans-Roman-34"/>
      </defs>
      <g transform="translate(185.723442643 374.480277885)rotate(-30.0)scale(0.12 -0.12)">
       <use xlink:href="#BitstreamVeraSans-Roman-4a"/>
       <use x="29.4921875" xlink:href="#BitstreamVeraSans-Roman-75"/>
       <use x="92.87109375" xlink:href="#BitstreamVeraSans-Roman-6e"/>
       <use x="156.25" xlink:href="#BitstreamVeraSans-Roman-32"/>
       <use x="219.873046875" xlink:href="#BitstreamVeraSans-Roman-34"/>
      </g>
     </g>
    </g>
    <g id="xtick_3">
     <g id="line2d_9">
      <path clip-path="url(#pcb2bf987bf)" d="
M317.46 345.6
L317.46 43.2" style="fill:none;stroke:#000000;stroke-dasharray:1.000000,3.000000;stroke-dashoffset:0.0;stroke-width:0.5;"/>
     </g>
     <g id="line2d_10">
      <g>
       <use style="stroke:#000000;stroke-width:0.5;" x="317.459671158" xlink:href="#m93b0483c22" y="345.6"/>
      </g>
     </g>
     <g id="line2d_11">
      <g>
       <use style="stroke:#000000;stroke-width:0.5;" x="317.459671158" xlink:href="#m741efc42ff" y="43.2"/>
      </g>
     </g>
     <g id="text_3">
      <!-- Jul01 -->
      <defs>
       <path d="
M31.7812 66.4062
Q24.1719 66.4062 20.3281 58.9062
Q16.5 51.4219 16.5 36.375
Q16.5 21.3906 20.3281 13.8906
Q24.1719 6.39062 31.7812 6.39062
Q39.4531 6.39062 43.2812 13.8906
Q47.125 21.3906 47.125 36.375
Q47.125 51.4219 43.2812 58.9062
Q39.4531 66.4062 31.7812 66.4062
M31.7812 74.2188
Q44.0469 74.2188 50.5156 64.5156
Q56.9844 54.8281 56.9844 36.375
Q56.9844 17.9688 50.5156 8.26562
Q44.0469 -1.42188 31.7812 -1.42188
Q19.5312 -1.42188 13.0625 8.26562
Q6.59375 17.9688 6.59375 36.375
Q6.59375 54.8281 13.0625 64.5156
Q19.5312 74.2188 31.7812 74.2188" id="BitstreamVeraSans-Roman-30"/>
       <path d="
M9.42188 75.9844
L18.4062 75.9844
L18.4062 0
L9.42188 0
z
" id="BitstreamVeraSans-Roman-6c"/>
      </defs>
      <g transform="translate(290.870872812 372.127152885)rotate(-30.0)scale(0.12 -0.12)">
       <use xlink:href="#BitstreamVeraSans-Roman-4a"/>
       <use x="29.4921875" xlink:href="#BitstreamVeraSans-Roman-75"/>
       <use x="92.87109375" xlink:href="#BitstreamVeraSans-Roman-6c"/>
       <use x="120.654296875" xlink:href="#BitstreamVeraSans-Roman-30"/>
       <use x="184.27734375" xlink:href="#BitstreamVeraSans-Roman-31"/>
      </g>
     </g>
    </g>
    <g id="xtick_4">
     <g id="line2d_12">
      <path clip-path="url(#pcb2bf987bf)" d="
M418.531 345.6
L418.531 43.2" style="fill:none;stroke:#000000;stroke-dasharray:1.000000,3.000000;stroke-dashoffset:0.0;stroke-width:0.5;"/>
     </g>
     <g id="line2d_13">
      <g>
       <use style="stroke:#000000;stroke-width:0.5;" x="418.531369273" xlink:href="#m93b0483c22" y="345.6"/>
      </g>
     </g>
     <g id="line2d_14">
      <g>
       <use style="stroke:#000000;stroke-width:0.5;" x="418.531369273" xlink:href="#m741efc42ff" y="43.2"/>
      </g>
     </g>
     <g id="text_4">
      <!-- Jul08 -->
      <defs>
       <path d="
M31.7812 34.625
Q24.75 34.625 20.7188 30.8594
Q16.7031 27.0938 16.7031 20.5156
Q16.7031 13.9219 20.7188 10.1562
Q24.75 6.39062 31.7812 6.39062
Q38.8125 6.39062 42.8594 10.1719
Q46.9219 13.9688 46.9219 20.5156
Q46.9219 27.0938 42.8906 30.8594
Q38.875 34.625 31.7812 34.625
M21.9219 38.8125
Q15.5781 40.375 12.0312 44.7188
Q8.5 49.0781 8.5 55.3281
Q8.5 64.0625 14.7188 69.1406
Q20.9531 74.2188 31.7812 74.2188
Q42.6719 74.2188 48.875 69.1406
Q55.0781 64.0625 55.0781 55.3281
Q55.0781 49.0781 51.5312 44.7188
Q48 40.375 41.7031 38.8125
Q48.8281 37.1562 52.7969 32.3125
Q56.7812 27.4844 56.7812 20.5156
Q56.7812 9.90625 50.3125 4.23438
Q43.8438 -1.42188 31.7812 -1.42188
Q19.7344 -1.42188 13.25 4.23438
Q6.78125 9.90625 6.78125 20.5156
Q6.78125 27.4844 10.7812 32.3125
Q14.7969 37.1562 21.9219 38.8125
M18.3125 54.3906
Q18.3125 48.7344 21.8438 45.5625
Q25.3906 42.3906 31.7812 42.3906
Q38.1406 42.3906 41.7188 45.5625
Q45.3125 48.7344 45.3125 54.3906
Q45.3125 60.0625 41.7188 63.2344
Q38.1406 66.4062 31.7812 66.4062
Q25.3906 66.4062 21.8438 63.2344
Q18.3125 60.0625 18.3125 54.3906" id="BitstreamVeraSans-Roman-38"/>
      </defs>
      <g transform="translate(391.694129888 372.270590385)rotate(-30.0)scale(0.12 -0.12)">
       <use xlink:href="#BitstreamVeraSans-Roman-4a"/>
       <use x="29.4921875" xlink:href="#BitstreamVeraSans-Roman-75"/>
       <use x="92.87109375" xlink:href="#BitstreamVeraSans-Roman-6c"/>
       <use x="120.654296875" xlink:href="#BitstreamVeraSans-Roman-30"/>
       <use x="184.27734375" xlink:href="#BitstreamVeraSans-Roman-38"/>
      </g>
     </g>
    </g>
   </g>
   <g id="matplotlib.axis_2">
    <g id="ytick_1">
     <g id="line2d_15">
      <path clip-path="url(#pcb2bf987bf)" d="
M72 345.6
L518.4 345.6" style="fill:none;stroke:#000000;stroke-dasharray:1.000000,3.000000;stroke-dashoffset:0.0;stroke-width:0.5;"/>
     </g>
     <g id="line2d_16">
      <defs>
       <path d="
M0 0
L4 0" id="m728421d6d4" style="stroke:#000000;stroke-width:0.5;"/>
      </defs>
      <g>
       <use style="stroke:#000000;stroke-width:0.5;" x="72.0" xlink:href="#m728421d6d4" y="345.6"/>
      </g>
     </g>
     <g id="line2d_17">
      <defs>
       <path d="
M0 0
L-4 0" id="mcb0005524f" style="stroke:#000000;stroke-width:0.5;"/>
      </defs>
      <g>
       <use style="stroke:#000000;stroke-width:0.5;" x="518.4" xlink:href="#mcb0005524f" y="345.6"/>
      </g>
     </g>
     <g id="text_5">
      <!-- 0 -->
      <g transform="translate(61.953125 348.91125)scale(0.12 -0.12)">
       <use xlink:href="#BitstreamVeraSans-Roman-30"/>
      </g>
     </g>
    </g>
    <g id="ytick_2">
     <g id="line2d_18">
      <path clip-path="url(#pcb2bf987bf)" d="
M72 285.12
L518.4 285.12" style="fill:none;stroke:#000000;stroke-dasharray:1.000000,3.000000;stroke-dashoffset:0.0;stroke-width:0.5;"/>
     </g>
     <g id="line2d_19">
      <g>
       <use style="stroke:#000000;stroke-width:0.5;" x="72.0" xlink:href="#m728421d6d4" y="285.12"/>
      </g>
     </g>
     <g id="line2d_20">
      <g>
       <use style="stroke:#000000;stroke-width:0.5;" x="518.4" xlink:href="#mcb0005524f" y="285.12"/>
      </g>
     </g>
     <g id="text_6">
      <!-- 20 -->
      <g transform="translate(54.40625 288.43125)scale(0.12 -0.12)">
       <use xlink:href="#BitstreamVeraSans-Roman-32"/>
       <use x="63.623046875" xlink:href="#BitstreamVeraSans-Roman-30"/>
      </g>
     </g>
    </g>
    <g id="ytick_3">
     <g id="line2d_21">
      <path clip-path="url(#pcb2bf987bf)" d="
M72 224.64
L518.4 224.64" style="fill:none;stroke:#000000;stroke-dasharray:1.000000,3.000000;stroke-dashoffset:0.0;stroke-width:0.5;"/>
     </g>
     <g id="line2d_22">
      <g>
       <use style="stroke:#000000;stroke-width:0.5;" x="72.0" xlink:href="#m728421d6d4" y="224.64"/>
      </g>
     </g>
     <g id="line2d_23">
      <g>
       <use style="stroke:#000000;stroke-width:0.5;" x="518.4" xlink:href="#mcb0005524f" y="224.64"/>
      </g>
     </g>
     <g id="text_7">
      <!-- 40 -->
      <g transform="translate(54.11375 227.95125)scale(0.12 -0.12)">
       <use xlink:href="#BitstreamVeraSans-Roman-34"/>
       <use x="63.623046875" xlink:href="#BitstreamVeraSans-Roman-30"/>
      </g>
     </g>
    </g>
    <g id="ytick_4">
     <g id="line2d_24">
      <path clip-path="url(#pcb2bf987bf)" d="
M72 164.16
L518.4 164.16" style="fill:none;stroke:#000000;stroke-dasharray:1.000000,3.000000;stroke-dashoffset:0.0;stroke-width:0.5;"/>
     </g>
     <g id="line2d_25">
      <g>
       <use style="stroke:#000000;stroke-width:0.5;" x="72.0" xlink:href="#m728421d6d4" y="164.16"/>
      </g>
     </g>
     <g id="line2d_26">
      <g>
       <use style="stroke:#000000;stroke-width:0.5;" x="518.4" xlink:href="#mcb0005524f" y="164.16"/>
      </g>
     </g>
     <g id="text_8">
      <!-- 60 -->
      <defs>
       <path d="
M33.0156 40.375
Q26.375 40.375 22.4844 35.8281
Q18.6094 31.2969 18.6094 23.3906
Q18.6094 15.5312 22.4844 10.9531
Q26.375 6.39062 33.0156 6.39062
Q39.6562 6.39062 43.5312 10.9531
Q47.4062 15.5312 47.4062 23.3906
Q47.4062 31.2969 43.5312 35.8281
Q39.6562 40.375 33.0156 40.375
M52.5938 71.2969
L52.5938 62.3125
Q48.875 64.0625 45.0938 64.9844
Q41.3125 65.9219 37.5938 65.9219
Q27.8281 65.9219 22.6719 59.3281
Q17.5312 52.7344 16.7969 39.4062
Q19.6719 43.6562 24.0156 45.9219
Q28.375 48.1875 33.5938 48.1875
Q44.5781 48.1875 50.9531 41.5156
Q57.3281 34.8594 57.3281 23.3906
Q57.3281 12.1562 50.6875 5.35938
Q44.0469 -1.42188 33.0156 -1.42188
Q20.3594 -1.42188 13.6719 8.26562
Q6.98438 17.9688 6.98438 36.375
Q6.98438 53.6562 15.1875 63.9375
Q23.3906 74.2188 37.2031 74.2188
Q40.9219 74.2188 44.7031 73.4844
Q48.4844 72.75 52.5938 71.2969" id="BitstreamVeraSans-Roman-36"/>
      </defs>
      <g transform="translate(54.365 167.47125)scale(0.12 -0.12)">
       <use xlink:href="#BitstreamVeraSans-Roman-36"/>
       <use x="63.623046875" xlink:href="#BitstreamVeraSans-Roman-30"/>
      </g>
     </g>
    </g>
    <g id="ytick_5">
     <g id="line2d_27">
      <path clip-path="url(#pcb2bf987bf)" d="
M72 103.68
L518.4 103.68" style="fill:none;stroke:#000000;stroke-dasharray:1.000000,3.000000;stroke-dashoffset:0.0;stroke-width:0.5;"/>
     </g>
     <g id="line2d_28">
      <g>
       <use style="stroke:#000000;stroke-width:0.5;" x="72.0" xlink:href="#m728421d6d4" y="103.68"/>
      </g>
     </g>
     <g id="line2d_29">
      <g>
       <use style="stroke:#000000;stroke-width:0.5;" x="518.4" xlink:href="#mcb0005524f" y="103.68"/>
      </g>
     </g>
     <g id="text_9">
      <!-- 80 -->
      <g transform="translate(54.340625 106.99125)scale(0.12 -0.12)">
       <use xlink:href="#BitstreamVeraSans-Roman-38"/>
       <use x="63.623046875" xlink:href="#BitstreamVeraSans-Roman-30"/>
      </g>
     </g>
    </g>
    <g id="ytick_6">
     <g id="line2d_30">
      <path clip-path="url(#pcb2bf987bf)" d="
M72 43.2
L518.4 43.2" style="fill:none;stroke:#000000;stroke-dasharray:1.000000,3.000000;stroke-dashoffset:0.0;stroke-width:0.5;"/>
     </g>
     <g id="line2d_31">
      <g>
       <use style="stroke:#000000;stroke-width:0.5;" x="72.0" xlink:href="#m728421d6d4" y="43.2"/>
      </g>
     </g>
     <g id="line2d_32">
      <g>
       <use style="stroke:#000000;stroke-width:0.5;" x="518.4" xlink:href="#mcb0005524f" y="43.2"/>
      </g>
     </g>
     <g id="text_10">
      <!-- 100 -->
      <g transform="translate(47.21 46.51125)scale(0.12 -0.12)">
       <use xlink:href="#BitstreamVeraSans-Roman-31"/>
       <use x="63.623046875" xlink:href="#BitstreamVeraSans-Roman-30"/>
       <use x="127.24609375" xlink:href="#BitstreamVeraSans-Roman-30"/>
      </g>
     </g>
    </g>
    <g id="text_11">
     <!-- temperature (C) -->
     <defs>
      <path d="
M34.2812 27.4844
Q23.3906 27.4844 19.1875 25
Q14.9844 22.5156 14.9844 16.5
Q14.9844 11.7188 18.1406 8.90625
Q21.2969 6.10938 26.7031 6.10938
Q34.1875 6.10938 38.7031 11.4062
Q43.2188 16.7031 43.2188 25.4844
L43.2188 27.4844
z

M52.2031 31.2031
L52.2031 0
L43.2188 0
L43.2188 8.29688
Q40.1406 3.32812 35.5469 0.953125
Q30.9531 -1.42188 24.3125 -1.42188
Q15.9219 -1.42188 10.9531 3.29688
Q6 8.01562 6 15.9219
Q6 25.1406 12.1719 29.8281
Q18.3594 34.5156 30.6094 34.5156
L43.2188 34.5156
L43.2188 35.4062
Q43.2188 41.6094 39.1406 45
Q35.0625 48.3906 27.6875 48.3906
Q23 48.3906 18.5469 47.2656
Q14.1094 46.1406 10.0156 43.8906
L10.0156 52.2031
Q14.9375 54.1094 19.5781 55.0469
Q24.2188 56 28.6094 56
Q40.4844 56 46.3438 49.8438
Q52.2031 43.7031 52.2031 31.2031" id="BitstreamVeraSans-Roman-61"/>
      <path id="BitstreamVeraSans-Roman-20"/>
      <path d="
M8.01562 75.875
L15.8281 75.875
Q23.1406 64.3594 26.7812 53.3125
Q30.4219 42.2812 30.4219 31.3906
Q30.4219 20.4531 26.7812 9.375
Q23.1406 -1.70312 15.8281 -13.1875
L8.01562 -13.1875
Q14.5 -2 17.7031 9.0625
Q20.9062 20.125 20.9062 31.3906
Q20.9062 42.6719 17.7031 53.6562
Q14.5 64.6562 8.01562 75.875" id="BitstreamVeraSans-Roman-29"/>
      <path d="
M52 44.1875
Q55.375 50.25 60.0625 53.125
Q64.75 56 71.0938 56
Q79.6406 56 84.2812 50.0156
Q88.9219 44.0469 88.9219 33.0156
L88.9219 0
L79.8906 0
L79.8906 32.7188
Q79.8906 40.5781 77.0938 44.375
Q74.3125 48.1875 68.6094 48.1875
Q61.625 48.1875 57.5625 43.5469
Q53.5156 38.9219 53.5156 30.9062
L53.5156 0
L44.4844 0
L44.4844 32.7188
Q44.4844 40.625 41.7031 44.4062
Q38.9219 48.1875 33.1094 48.1875
Q26.2188 48.1875 22.1562 43.5312
Q18.1094 38.875 18.1094 30.9062
L18.1094 0
L9.07812 0
L9.07812 54.6875
L18.1094 54.6875
L18.1094 46.1875
Q21.1875 51.2188 25.4844 53.6094
Q29.7812 56 35.6875 56
Q41.6562 56 45.8281 52.9688
Q50 49.9531 52 44.1875" id="BitstreamVeraSans-Roman-6d"/>
      <path d="
M64.4062 67.2812
L64.4062 56.8906
Q59.4219 61.5312 53.7812 63.8125
Q48.1406 66.1094 41.7969 66.1094
Q29.2969 66.1094 22.6562 58.4688
Q16.0156 50.8281 16.0156 36.375
Q16.0156 21.9688 22.6562 14.3281
Q29.2969 6.6875 41.7969 6.6875
Q48.1406 6.6875 53.7812 8.98438
Q59.4219 11.2812 64.4062 15.9219
L64.4062 5.60938
Q59.2344 2.09375 53.4375 0.328125
Q47.6562 -1.42188 41.2188 -1.42188
Q24.6562 -1.42188 15.125 8.70312
Q5.60938 18.8438 5.60938 36.375
Q5.60938 53.9531 15.125 64.0781
Q24.6562 74.2188 41.2188 74.2188
Q47.75 74.2188 53.5312 72.4844
Q59.3281 70.75 64.4062 67.2812" id="BitstreamVeraSans-Roman-43"/>
      <path d="
M31 75.875
Q24.4688 64.6562 21.2812 53.6562
Q18.1094 42.6719 18.1094 31.3906
Q18.1094 20.125 21.3125 9.0625
Q24.5156 -2 31 -13.1875
L23.1875 -13.1875
Q15.875 -1.70312 12.2344 9.375
Q8.59375 20.4531 8.59375 31.3906
Q8.59375 42.2812 12.2031 53.3125
Q15.8281 64.3594 23.1875 75.875
z
" id="BitstreamVeraSans-Roman-28"/>
      <path d="
M56.2031 29.5938
L56.2031 25.2031
L14.8906 25.2031
Q15.4844 15.9219 20.4844 11.0625
Q25.4844 6.20312 34.4219 6.20312
Q39.5938 6.20312 44.4531 7.46875
Q49.3125 8.73438 54.1094 11.2812
L54.1094 2.78125
Q49.2656 0.734375 44.1875 -0.34375
Q39.1094 -1.42188 33.8906 -1.42188
Q20.7969 -1.42188 13.1562 6.1875
Q5.51562 13.8125 5.51562 26.8125
Q5.51562 40.2344 12.7656 48.1094
Q20.0156 56 32.3281 56
Q43.3594 56 49.7812 48.8906
Q56.2031 41.7969 56.2031 29.5938
M47.2188 32.2344
Q47.125 39.5938 43.0938 43.9844
Q39.0625 48.3906 32.4219 48.3906
Q24.9062 48.3906 20.3906 44.1406
Q15.875 39.8906 15.1875 32.1719
z
" id="BitstreamVeraSans-Roman-65"/>
      <path d="
M18.3125 70.2188
L18.3125 54.6875
L36.8125 54.6875
L36.8125 47.7031
L18.3125 47.7031
L18.3125 18.0156
Q18.3125 11.3281 20.1406 9.42188
Q21.9688 7.51562 27.5938 7.51562
L36.8125 7.51562
L36.8125 0
L27.5938 0
Q17.1875 0 13.2344 3.875
Q9.28125 7.76562 9.28125 18.0156
L9.28125 47.7031
L2.6875 47.7031
L2.6875 54.6875
L9.28125 54.6875
L9.28125 70.2188
z
" id="BitstreamVeraSans-Roman-74"/>
      <path d="
M41.1094 46.2969
Q39.5938 47.1719 37.8125 47.5781
Q36.0312 48 33.8906 48
Q26.2656 48 22.1875 43.0469
Q18.1094 38.0938 18.1094 28.8125
L18.1094 0
L9.07812 0
L9.07812 54.6875
L18.1094 54.6875
L18.1094 46.1875
Q20.9531 51.1719 25.4844 53.5781
Q30.0312 56 36.5312 56
Q37.4531 56 38.5781 55.875
Q39.7031 55.7656 41.0625 55.5156
z
" id="BitstreamVeraSans-Roman-72"/>
      <path d="
M18.1094 8.20312
L18.1094 -20.7969
L9.07812 -20.7969
L9.07812 54.6875
L18.1094 54.6875
L18.1094 46.3906
Q20.9531 51.2656 25.2656 53.625
Q29.5938 56 35.5938 56
Q45.5625 56 51.7812 48.0938
Q58.0156 40.1875 58.0156 27.2969
Q58.0156 14.4062 51.7812 6.48438
Q45.5625 -1.42188 35.5938 -1.42188
Q29.5938 -1.42188 25.2656 0.953125
Q20.9531 3.32812 18.1094 8.20312
M48.6875 27.2969
Q48.6875 37.2031 44.6094 42.8438
Q40.5312 48.4844 33.4062 48.4844
Q26.2656 48.4844 22.1875 42.8438
Q18.1094 37.2031 18.1094 27.2969
Q18.1094 17.3906 22.1875 11.75
Q26.2656 6.10938 33.4062 6.10938
Q40.5312 6.10938 44.6094 11.75
Q48.6875 17.3906 48.6875 27.2969" id="BitstreamVeraSans-Roman-70"/>
     </defs>
     <g transform="translate(39.714375 242.37375)rotate(-90.0)scale(0.12 -0.12)">
      <use xlink:href="#BitstreamVeraSans-Roman-74"/>
      <use x="39.208984375" xlink:href="#BitstreamVeraSans-Roman-65"/>
      <use x="100.732421875" xlink:href="#BitstreamVeraSans-Roman-6d"/>
      <use x="198.14453125" xlink:href="#BitstreamVeraSans-Roman-70"/>
      <use x="261.62109375" xlink:href="#BitstreamVeraSans-Roman-65"/>
      <use x="323.14453125" xlink:href="#BitstreamVeraSans-Roman-72"/>
      <use x="364.2578125" xlink:href="#BitstreamVeraSans-Roman-61"/>
      <use x="425.537109375" xlink:href="#BitstreamVeraSans-Roman-74"/>
      <use x="464.74609375" xlink:href="#BitstreamVeraSans-Roman-75"/>
      <use x="528.125" xlink:href="#BitstreamVeraSans-Roman-72"/>
      <use x="566.98828125" xlink:href="#BitstreamVeraSans-Roman-65"/>
      <use x="628.51171875" xlink:href="#BitstreamVeraSans-Roman-20"/>
      <use x="660.298828125" xlink:href="#BitstreamVeraSans-Roman-28"/>
      <use x="699.3125" xlink:href="#BitstreamVeraSans-Roman-43"/>
      <use x="769.13671875" xlink:href="#BitstreamVeraSans-Roman-29"/>
     </g>
    </g>
   </g>
   <g id="patch_3">
    <path d="
M72 43.2
L518.4 43.2" style="fill:none;stroke:#000000;"/>
   </g>
   <g id="patch_4">
    <path d="
M518.4 345.6
L518.4 43.2" style="fill:none;stroke:#000000;"/>
   </g>
   <g id="patch_5">
    <path d="
M72 345.6
L518.4 345.6" style="fill:none;stroke:#000000;"/>
   </g>
   <g id="patch_6">
    <path d="
M72 345.6
L72 43.2" style="fill:none;stroke:#000000;"/>
   </g>
   <g id="text_12">
    <!-- CPU critical temperature -->
    <defs>
     <path d="
M19.6719 64.7969
L19.6719 37.4062
L32.0781 37.4062
Q38.9688 37.4062 42.7188 40.9688
Q46.4844 44.5312 46.4844 51.125
Q46.4844 57.6719 42.7188 61.2344
Q38.9688 64.7969 32.0781 64.7969
z

M9.8125 72.9062
L32.0781 72.9062
Q44.3438 72.9062 50.6094 67.3594
Q56.8906 61.8125 56.8906 51.125
Q56.8906 40.3281 50.6094 34.8125
Q44.3438 29.2969 32.0781 29.2969
L19.6719 29.2969
L19.6719 0
L9.8125 0
z
" id="BitstreamVeraSans-Roman-50"/>
     <path d="
M9.42188 54.6875
L18.4062 54.6875
L18.4062 0
L9.42188 0
z

M9.42188 75.9844
L18.4062 75.9844
L18.4062 64.5938
L9.42188 64.5938
z
" id="BitstreamVeraSans-Roman-69"/>
     <path d="
M8.6875 72.9062
L18.6094 72.9062
L18.6094 28.6094
Q18.6094 16.8906 22.8438 11.7344
Q27.0938 6.59375 36.625 6.59375
Q46.0938 6.59375 50.3438 11.7344
Q54.5938 16.8906 54.5938 28.6094
L54.5938 72.9062
L64.5 72.9062
L64.5 27.3906
Q64.5 13.1406 57.4375 5.85938
Q50.3906 -1.42188 36.625 -1.42188
Q22.7969 -1.42188 15.7344 5.85938
Q8.6875 13.1406 8.6875 27.3906
z
" id="BitstreamVeraSans-Roman-55"/>
     <path d="
M48.7812 52.5938
L48.7812 44.1875
Q44.9688 46.2969 41.1406 47.3438
Q37.3125 48.3906 33.4062 48.3906
Q24.6562 48.3906 19.8125 42.8438
Q14.9844 37.3125 14.9844 27.2969
Q14.9844 17.2812 19.8125 11.7344
Q24.6562 6.20312 33.4062 6.20312
Q37.3125 6.20312 41.1406 7.25
Q44.9688 8.29688 48.7812 10.4062
L48.7812 2.09375
Q45.0156 0.34375 40.9844 -0.53125
Q36.9688 -1.42188 32.4219 -1.42188
Q20.0625 -1.42188 12.7812 6.34375
Q5.51562 14.1094 5.51562 27.2969
Q5.51562 40.6719 12.8594 48.3281
Q20.2188 56 33.0156 56
Q37.1562 56 41.1094 55.1406
Q45.0625 54.2969 48.7812 52.5938" id="BitstreamVeraSans-Roman-63"/>
    </defs>
    <g style="fill:#ff0000;" transform="translate(72.0 85.536)scale(0.12 -0.12)">
     <use xlink:href="#BitstreamVeraSans-Roman-43"/>
     <use x="69.82421875" xlink:href="#BitstreamVeraSans-Roman-50"/>
     <use x="130.126953125" xlink:href="#BitstreamVeraSans-Roman-55"/>
     <use x="203.3203125" xlink:href="#BitstreamVeraSans-Roman-20"/>
     <use x="235.107421875" xlink:href="#BitstreamVeraSans-Roman-63"/>
     <use x="290.087890625" xlink:href="#BitstreamVeraSans-Roman-72"/>
     <use x="331.201171875" xlink:href="#BitstreamVeraSans-Roman-69"/>
     <use x="358.984375" xlink:href="#BitstreamVeraSans-Roman-74"/>
     <use x="398.193359375" xlink:href="#BitstreamVeraSans-Roman-69"/>
     <use x="425.9765625" xlink:href="#BitstreamVeraSans-Roman-63"/>
     <use x="480.95703125" xlink:href="#BitstreamVeraSans-Roman-61"/>
     <use x="542.236328125" xlink:href="#BitstreamVeraSans-Roman-6c"/>
     <use x="570.01953125" xlink:href="#BitstreamVeraSans-Roman-20"/>
     <use x="601.806640625" xlink:href="#BitstreamVeraSans-Roman-74"/>
     <use x="641.015625" xlink:href="#BitstreamVeraSans-Roman-65"/>
     <use x="702.5390625" xlink:href="#BitstreamVeraSans-Roman-6d"/>
     <use x="799.951171875" xlink:href="#BitstreamVeraSans-Roman-70"/>
     <use x="863.427734375" xlink:href="#BitstreamVeraSans-Roman-65"/>
     <use x="924.951171875" xlink:href="#BitstreamVeraSans-Roman-72"/>
     <use x="966.064453125" xlink:href="#BitstreamVeraSans-Roman-61"/>
     <use x="1027.34375" xlink:href="#BitstreamVeraSans-Roman-74"/>
     <use x="1066.55273438" xlink:href="#BitstreamVeraSans-Roman-75"/>
     <use x="1129.93164062" xlink:href="#BitstreamVeraSans-Roman-72"/>
     <use x="1168.79492188" xlink:href="#BitstreamVeraSans-Roman-65"/>
    </g>
   </g>
   <g id="text_13">
    <!-- node03 -->
    <defs>
     <path d="
M45.4062 46.3906
L45.4062 75.9844
L54.3906 75.9844
L54.3906 0
L45.4062 0
L45.4062 8.20312
Q42.5781 3.32812 38.25 0.953125
Q33.9375 -1.42188 27.875 -1.42188
Q17.9688 -1.42188 11.7344 6.48438
Q5.51562 14.4062 5.51562 27.2969
Q5.51562 40.1875 11.7344 48.0938
Q17.9688 56 27.875 56
Q33.9375 56 38.25 53.625
Q42.5781 51.2656 45.4062 46.3906
M14.7969 27.2969
Q14.7969 17.3906 18.875 11.75
Q22.9531 6.10938 30.0781 6.10938
Q37.2031 6.10938 41.2969 11.75
Q45.4062 17.3906 45.4062 27.2969
Q45.4062 37.2031 41.2969 42.8438
Q37.2031 48.4844 30.0781 48.4844
Q22.9531 48.4844 18.875 42.8438
Q14.7969 37.2031 14.7969 27.2969" id="BitstreamVeraSans-Roman-64"/>
     <path d="
M30.6094 48.3906
Q23.3906 48.3906 19.1875 42.75
Q14.9844 37.1094 14.9844 27.2969
Q14.9844 17.4844 19.1562 11.8438
Q23.3438 6.20312 30.6094 6.20312
Q37.7969 6.20312 41.9844 11.8594
Q46.1875 17.5312 46.1875 27.2969
Q46.1875 37.0156 41.9844 42.7031
Q37.7969 48.3906 30.6094 48.3906
M30.6094 56
Q42.3281 56 49.0156 48.375
Q55.7188 40.7656 55.7188 27.2969
Q55.7188 13.875 49.0156 6.21875
Q42.3281 -1.42188 30.6094 -1.42188
Q18.8438 -1.42188 12.1719 6.21875
Q5.51562 13.875 5.51562 27.2969
Q5.51562 40.7656 12.1719 48.375
Q18.8438 56 30.6094 56" id="BitstreamVeraSans-Roman-6f"/>
     <path d="
M40.5781 39.3125
Q47.6562 37.7969 51.625 33
Q55.6094 28.2188 55.6094 21.1875
Q55.6094 10.4062 48.1875 4.48438
Q40.7656 -1.42188 27.0938 -1.42188
Q22.5156 -1.42188 17.6562 -0.515625
Q12.7969 0.390625 7.625 2.20312
L7.625 11.7188
Q11.7188 9.32812 16.5938 8.10938
Q21.4844 6.89062 26.8125 6.89062
Q36.0781 6.89062 40.9375 10.5469
Q45.7969 14.2031 45.7969 21.1875
Q45.7969 27.6406 41.2812 31.2656
Q36.7656 34.9062 28.7188 34.9062
L20.2188 34.9062
L20.2188 43.0156
L29.1094 43.0156
Q36.375 43.0156 40.2344 45.9219
Q44.0938 48.8281 44.0938 54.2969
Q44.0938 59.9062 40.1094 62.9062
Q36.1406 65.9219 28.7188 65.9219
Q24.6562 65.9219 20.0156 65.0312
Q15.375 64.1562 9.8125 62.3125
L9.8125 71.0938
Q15.4375 72.6562 20.3438 73.4375
Q25.25 74.2188 29.5938 74.2188
Q40.8281 74.2188 47.3594 69.1094
Q53.9062 64.0156 53.9062 55.3281
Q53.9062 49.2656 50.4375 45.0938
Q46.9688 40.9219 40.5781 39.3125" id="BitstreamVeraSans-Roman-33"/>
    </defs>
    <g transform="translate(269.299125 38.2)scale(0.144 -0.144)">
     <use xlink:href="#BitstreamVeraSans-Roman-6e"/>
     <use x="63.37890625" xlink:href="#BitstreamVeraSans-Roman-6f"/>
     <use x="124.560546875" xlink:href="#BitstreamVeraSans-Roman-64"/>
     <use x="188.037109375" xlink:href="#BitstreamVeraSans-Roman-65"/>
     <use x="249.560546875" xlink:href="#BitstreamVeraSans-Roman-30"/>
     <use x="313.18359375" xlink:href="#BitstreamVeraSans-Roman-33"/>
    </g>
   </g>
  </g>
 </g>
 <defs>
  <clipPath id="pcb2bf987bf">
   <rect height="302.4" width="446.4" x="72.0" y="43.2"/>
  </clipPath>
 </defs>
</svg>
